<svg width="608" height="484" viewBox="0 0 608 484" fill="none" xmlns="http://www.w3.org/2000/svg">
<g clip-path="url(#clip0_618_5454)">
<rect x="1" y="0.980835" width="606" height="482" fill="url(#paint0_radial_618_5454)"/>
<ellipse cx="0.400895" cy="0.489815" rx="0.400895" ry="0.489815" transform="matrix(0.998524 -0.054307 -0.054307 -0.998524 561.712 397.83)" fill="#FFE8AB"/>
<ellipse cx="0.400895" cy="0.489815" rx="0.400895" ry="0.489815" transform="matrix(0.998524 -0.054307 -0.054307 -0.998524 577.009 436.948)" fill="#FFE8AB"/>
<ellipse cx="0.400895" cy="0.489815" rx="0.400895" ry="0.489815" transform="matrix(0.998524 -0.054307 -0.054307 -0.998524 518.85 352.676)" fill="#FFE8AB"/>
<ellipse cx="0.400895" cy="0.489815" rx="0.400895" ry="0.489815" transform="matrix(0.998524 -0.054307 -0.054307 -0.998524 543.576 436.412)" fill="#FFE8AB"/>
<ellipse cx="0.400895" cy="0.489815" rx="0.400895" ry="0.489815" transform="matrix(0.998524 -0.054307 -0.054307 -0.998524 507.651 382.993)" fill="#FFE8AB"/>
<ellipse cx="0.400895" cy="0.489815" rx="0.400895" ry="0.489815" transform="matrix(0.998524 -0.054307 -0.054307 -0.998524 603.25 272.306)" fill="#FFE8AB"/>
<ellipse cx="0.400895" cy="0.489815" rx="0.400895" ry="0.489815" transform="matrix(0.998524 -0.054307 -0.054307 -0.998524 508.288 173.239)" fill="#FFE8AB"/>
<ellipse cx="0.400895" cy="0.489815" rx="0.400895" ry="0.489815" transform="matrix(0.998524 -0.054307 -0.054307 -0.998524 595.571 145.887)" fill="#FFE8AB"/>
<ellipse cx="0.400895" cy="0.489815" rx="0.400895" ry="0.489815" transform="matrix(0.998524 -0.054307 -0.054307 -0.998524 483.396 362.244)" fill="#FFE8AB"/>
<ellipse cx="0.400895" cy="0.489815" rx="0.400895" ry="0.489815" transform="matrix(0.998524 -0.054307 -0.054307 -0.998524 503.065 452.77)" fill="#FFE8AB"/>
<ellipse cx="0.400895" cy="0.489815" rx="0.400895" ry="0.489815" transform="matrix(0.998524 -0.054307 -0.054307 -0.998524 589.838 377.542)" fill="#FFE8AB"/>
<ellipse cx="0.400895" cy="0.489815" rx="0.400895" ry="0.489815" transform="matrix(0.998524 -0.054307 -0.054307 -0.998524 575.53 353.047)" fill="#FFE8AB"/>
<ellipse cx="0.400895" cy="0.489815" rx="0.400895" ry="0.489815" transform="matrix(-0.998524 0.054307 0.054307 0.998524 54.4766 386.043)" fill="#FFE8AB"/>
<ellipse cx="0.400895" cy="0.489815" rx="0.400895" ry="0.489815" transform="matrix(-0.998524 0.054307 0.054307 0.998524 39.1802 346.925)" fill="#FFE8AB"/>
<ellipse cx="0.400895" cy="0.489815" rx="0.400895" ry="0.489815" transform="matrix(-0.998524 0.054307 0.054307 0.998524 97.3389 431.197)" fill="#FFE8AB"/>
<ellipse cx="0.400895" cy="0.489815" rx="0.400895" ry="0.489815" transform="matrix(-0.998524 0.054307 0.054307 0.998524 72.6138 347.461)" fill="#FFE8AB"/>
<ellipse cx="0.400895" cy="0.489815" rx="0.400895" ry="0.489815" transform="matrix(-0.998524 0.054307 0.054307 0.998524 108.538 400.88)" fill="#FFE8AB"/>
<ellipse cx="0.400895" cy="0.489815" rx="0.400895" ry="0.489815" transform="matrix(-0.998524 0.054307 0.054307 0.998524 132.792 421.629)" fill="#FFE8AB"/>
<ellipse cx="0.400895" cy="0.489815" rx="0.400895" ry="0.489815" transform="matrix(-0.998524 0.054307 0.054307 0.998524 113.124 331.103)" fill="#FFE8AB"/>
<ellipse cx="0.400895" cy="0.489815" rx="0.400895" ry="0.489815" transform="matrix(-0.998524 0.054307 0.054307 0.998524 26.3511 406.331)" fill="#FFE8AB"/>
<ellipse cx="0.400895" cy="0.489815" rx="0.400895" ry="0.489815" transform="matrix(-0.998524 0.054307 0.054307 0.998524 40.6597 430.826)" fill="#FFE8AB"/>
<path d="M53.928 124.088C49.8533 124.088 46.8347 123.139 44.872 121.24C42.9307 119.32 41.96 116.376 41.96 112.408C41.96 108.44 42.8667 105.507 44.68 103.608C46.5147 101.688 49.3307 100.728 53.128 100.728C54.8773 100.728 56.424 100.878 57.768 101.176C59.112 101.475 60.2427 101.955 61.16 102.616C62.0987 103.278 62.8027 104.131 63.272 105.176C63.7627 106.222 64.008 107.491 64.008 108.984H59.624C59.624 108.152 59.432 107.48 59.048 106.968C58.664 106.435 58.1627 106.03 57.544 105.752C56.9253 105.454 56.2213 105.251 55.432 105.144C54.6427 105.038 53.8533 104.984 53.064 104.984C51.912 104.984 50.9307 105.134 50.12 105.432C49.3093 105.71 48.648 106.147 48.136 106.744C47.6453 107.342 47.2827 108.11 47.048 109.048C46.8133 109.966 46.696 111.075 46.696 112.376C46.696 114.979 47.2933 116.878 48.488 118.072C49.6827 119.246 51.5173 119.832 53.992 119.832C54.6747 119.832 55.3573 119.79 56.04 119.704C56.744 119.619 57.3627 119.448 57.896 119.192C58.4507 118.936 58.8987 118.563 59.24 118.072C59.5813 117.582 59.752 116.931 59.752 116.12H64.136C64.136 117.614 63.8907 118.872 63.4 119.896C62.9307 120.899 62.248 121.71 61.352 122.328C60.456 122.947 59.3787 123.395 58.12 123.672C56.8613 123.95 55.464 124.088 53.928 124.088ZM70.1253 123.608H65.7413V99.6084H70.1253V123.608ZM82.2213 123.608H77.8373V115.192C77.8373 114.574 77.7839 114.019 77.6773 113.528C77.5706 113.016 77.3786 112.59 77.1013 112.248C76.8239 111.907 76.4399 111.651 75.9493 111.48C75.4799 111.288 74.8826 111.192 74.1573 111.192C72.8346 111.192 71.8319 111.566 71.1493 112.312C70.4666 113.038 70.1253 114.136 70.1253 115.608V116.024H68.7493V115.608C68.7493 114.35 68.8773 113.208 69.1333 112.184C69.3893 111.139 69.7839 110.243 70.3173 109.496C70.8506 108.75 71.5333 108.174 72.3653 107.768C73.2186 107.342 74.2533 107.128 75.4693 107.128C76.5786 107.128 77.5493 107.267 78.3813 107.544C79.2346 107.8 79.9386 108.227 80.4933 108.824C81.0693 109.422 81.4959 110.211 81.7733 111.192C82.0719 112.152 82.2213 113.347 82.2213 114.776V123.608ZM95.9323 118.008H96.3803C96.3803 118.84 96.3269 119.63 96.2203 120.376C96.1136 121.102 95.8683 121.742 95.4843 122.296C95.1003 122.851 94.5029 123.288 93.6923 123.608C92.9029 123.928 91.8149 124.088 90.4283 124.088C89.4683 124.088 88.5616 124.014 87.7083 123.864C86.8763 123.715 86.1403 123.448 85.5003 123.064C84.8816 122.68 84.3909 122.158 84.0283 121.496C83.6869 120.835 83.5163 120.003 83.5163 119C83.5163 118.168 83.6656 117.464 83.9643 116.888C84.2843 116.312 84.7323 115.832 85.3083 115.448C85.8843 115.064 86.5883 114.766 87.4203 114.552C88.2523 114.318 89.1909 114.147 90.2363 114.04L97.2443 113.4L97.5643 116.408L91.0683 117.048C90.6203 117.091 90.2043 117.155 89.8203 117.24C89.4576 117.326 89.1483 117.443 88.8923 117.592C88.6363 117.72 88.4336 117.902 88.2843 118.136C88.1349 118.35 88.0603 118.616 88.0603 118.936C88.0603 119.171 88.1136 119.384 88.2203 119.576C88.3483 119.768 88.5403 119.939 88.7963 120.088C89.0523 120.216 89.3723 120.312 89.7563 120.376C90.1403 120.44 90.5989 120.472 91.1323 120.472C91.9643 120.472 92.6789 120.398 93.2763 120.248C93.8949 120.078 94.3963 119.875 94.7803 119.64C95.1643 119.406 95.4523 119.15 95.6443 118.872C95.8363 118.574 95.9323 118.286 95.9323 118.008ZM95.9323 113.464C95.9323 112.846 95.8043 112.366 95.5483 112.024C95.2923 111.662 94.9723 111.384 94.5883 111.192C94.2043 111 93.7883 110.883 93.3403 110.84C92.8923 110.776 92.4656 110.744 92.0603 110.744C91.6763 110.744 91.2603 110.766 90.8123 110.808C90.3856 110.851 89.9803 110.958 89.5963 111.128C89.2336 111.278 88.9349 111.512 88.7003 111.832C88.4656 112.152 88.3483 112.59 88.3483 113.144H84.4123C84.4123 112.035 84.5829 111.107 84.9243 110.36C85.2869 109.592 85.7989 108.974 86.4603 108.504C87.1429 108.014 87.9643 107.662 88.9243 107.448C89.8843 107.235 90.9509 107.128 92.1243 107.128C93.5109 107.128 94.7056 107.235 95.7083 107.448C96.7323 107.662 97.5856 108.035 98.2683 108.568C98.9509 109.102 99.4523 109.827 99.7723 110.744C100.114 111.662 100.284 112.803 100.284 114.168V123.608H95.9323V113.464ZM119.004 123.608H114.62V115.192C114.62 114.574 114.566 114.019 114.46 113.528C114.353 113.016 114.161 112.59 113.884 112.248C113.606 111.907 113.222 111.651 112.732 111.48C112.262 111.288 111.665 111.192 110.94 111.192C109.617 111.192 108.614 111.566 107.932 112.312C107.249 113.038 106.908 114.136 106.908 115.608V116.024H105.532V115.608C105.532 114.35 105.66 113.208 105.916 112.184C106.172 111.139 106.566 110.243 107.1 109.496C107.633 108.75 108.316 108.174 109.148 107.768C110.001 107.342 111.036 107.128 112.252 107.128C113.361 107.128 114.332 107.267 115.164 107.544C116.017 107.8 116.721 108.227 117.276 108.824C117.852 109.422 118.278 110.211 118.556 111.192C118.854 112.152 119.004 113.347 119.004 114.776V123.608ZM106.908 123.608H102.524V107.608H106.908V123.608ZM137.355 103.64V106.968C136.843 106.67 136.267 106.446 135.627 106.296C134.987 106.147 134.379 106.072 133.803 106.072C133.525 106.072 133.227 106.104 132.907 106.168C132.587 106.232 132.288 106.339 132.011 106.488C131.733 106.638 131.499 106.84 131.307 107.096C131.115 107.352 131.019 107.662 131.019 108.024H129.547C129.547 107.342 129.643 106.702 129.835 106.104C130.027 105.486 130.304 104.942 130.667 104.472C131.051 104.003 131.52 103.64 132.075 103.384C132.651 103.107 133.301 102.968 134.027 102.968C134.645 102.968 135.243 103.043 135.819 103.192C136.416 103.342 136.928 103.491 137.355 103.64ZM120.971 112.728C120.971 110.851 121.621 109.454 122.923 108.536C124.245 107.598 126.24 107.128 128.907 107.128C131.573 107.128 133.568 107.598 134.891 108.536C136.213 109.454 136.875 110.851 136.875 112.728C136.875 114.606 136.224 116.014 134.923 116.952C133.643 117.87 131.669 118.328 129.003 118.328C126.336 118.328 124.331 117.87 122.987 116.952C121.643 116.014 120.971 114.606 120.971 112.728ZM125.515 112.728C125.515 113.432 125.824 113.944 126.443 114.264C127.061 114.563 127.915 114.712 129.003 114.712C130.112 114.712 130.944 114.563 131.499 114.264C132.053 113.944 132.331 113.432 132.331 112.728C132.331 112.024 132.032 111.523 131.435 111.224C130.859 110.904 130.005 110.744 128.875 110.744C128.235 110.744 127.701 110.787 127.275 110.872C126.848 110.936 126.507 111.054 126.251 111.224C125.995 111.374 125.803 111.576 125.675 111.832C125.568 112.067 125.515 112.366 125.515 112.728ZM129.003 115.864V118.328C128.107 118.328 127.36 118.339 126.763 118.36C126.165 118.36 125.685 118.392 125.323 118.456C124.96 118.499 124.693 118.574 124.523 118.68C124.373 118.787 124.299 118.926 124.299 119.096C124.299 119.288 124.384 119.448 124.555 119.576C124.725 119.683 125.003 119.779 125.387 119.864C125.792 119.95 126.315 120.035 126.955 120.12C127.616 120.184 128.427 120.28 129.387 120.408C130.56 120.515 131.648 120.643 132.651 120.792C133.653 120.92 134.528 121.144 135.275 121.464C136.021 121.784 136.608 122.254 137.035 122.872C137.461 123.47 137.675 124.312 137.675 125.4C137.675 127.107 136.992 128.355 135.627 129.144C134.283 129.934 132.277 130.328 129.611 130.328C128.032 130.328 126.677 130.211 125.547 129.976C124.416 129.763 123.477 129.411 122.731 128.92C122.005 128.451 121.472 127.843 121.131 127.096C120.789 126.35 120.619 125.454 120.619 124.408H124.555C124.555 125.283 125.013 125.88 125.931 126.2C126.848 126.542 128.149 126.712 129.835 126.712C130.496 126.712 131.083 126.68 131.595 126.616C132.128 126.574 132.576 126.499 132.939 126.392C133.301 126.286 133.579 126.147 133.771 125.976C133.963 125.806 134.059 125.592 134.059 125.336C134.059 125.016 133.941 124.782 133.707 124.632C133.493 124.504 133.163 124.408 132.715 124.344C132.288 124.28 131.755 124.238 131.115 124.216C130.475 124.195 129.728 124.142 128.875 124.056C127.957 123.95 127.008 123.832 126.027 123.704C125.045 123.598 124.16 123.395 123.371 123.096C122.581 122.798 121.931 122.371 121.419 121.816C120.928 121.262 120.683 120.504 120.683 119.544C120.683 118.648 120.928 117.955 121.419 117.464C121.909 116.952 122.549 116.579 123.339 116.344C124.128 116.11 125.013 115.971 125.995 115.928C126.976 115.886 127.979 115.864 129.003 115.864ZM154.999 116.248V116.888H150.775V114.808C150.775 114.104 150.679 113.496 150.487 112.984C150.295 112.472 150.018 112.056 149.655 111.736C149.314 111.395 148.898 111.15 148.407 111C147.916 110.83 147.362 110.744 146.743 110.744C146.167 110.744 145.623 110.851 145.111 111.064C144.62 111.256 144.194 111.555 143.831 111.96C143.468 112.366 143.18 112.878 142.967 113.496C142.775 114.094 142.679 114.798 142.679 115.608C142.679 116.526 142.775 117.294 142.967 117.912C143.159 118.531 143.447 119.032 143.831 119.416C144.215 119.779 144.684 120.046 145.239 120.216C145.794 120.387 146.423 120.472 147.127 120.472C147.66 120.472 148.151 120.408 148.599 120.28C149.068 120.152 149.463 119.992 149.783 119.8C150.124 119.587 150.38 119.342 150.551 119.064C150.743 118.766 150.839 118.467 150.839 118.168H154.807C154.807 119.939 154.146 121.368 152.823 122.456C151.522 123.544 149.612 124.088 147.095 124.088C144.066 124.088 141.815 123.374 140.343 121.944C138.871 120.515 138.135 118.403 138.135 115.608C138.135 112.878 138.85 110.787 140.279 109.336C141.73 107.864 143.81 107.128 146.519 107.128C149.548 107.128 151.714 107.886 153.015 109.4C154.338 110.915 154.999 113.198 154.999 116.248ZM140.055 116.888V113.784H153.527V116.888H140.055ZM172.116 123.608H167.732V114.776C167.732 114.264 167.679 113.795 167.572 113.368C167.487 112.92 167.327 112.536 167.092 112.216C166.879 111.896 166.57 111.651 166.164 111.48C165.78 111.288 165.279 111.192 164.66 111.192C163.551 111.192 162.708 111.566 162.132 112.312C161.578 113.038 161.3 114.136 161.3 115.608V116.024H159.988V115.608C159.988 114.35 160.106 113.208 160.34 112.184C160.575 111.139 160.948 110.243 161.46 109.496C161.994 108.75 162.655 108.174 163.444 107.768C164.255 107.342 165.226 107.128 166.356 107.128C167.295 107.128 168.116 107.278 168.82 107.576C169.546 107.854 170.143 108.302 170.612 108.92C171.103 109.518 171.476 110.286 171.732 111.224C171.988 112.163 172.116 113.294 172.116 114.616V123.608ZM161.3 123.608H156.916V107.608H161.3V123.608ZM182.932 123.608H178.58V115.192C178.58 114.574 178.527 114.019 178.42 113.528C178.335 113.016 178.175 112.59 177.94 112.248C177.706 111.907 177.386 111.651 176.98 111.48C176.596 111.288 176.106 111.192 175.508 111.192C174.932 111.192 174.431 111.288 174.004 111.48C173.599 111.651 173.258 111.896 172.98 112.216C172.703 112.536 172.49 112.92 172.34 113.368C172.191 113.795 172.116 114.275 172.116 114.808V116.024H170.036V114.616C170.036 113.656 170.132 112.728 170.324 111.832C170.516 110.915 170.847 110.115 171.316 109.432C171.807 108.728 172.447 108.174 173.236 107.768C174.026 107.342 175.007 107.128 176.18 107.128C177.354 107.128 178.367 107.267 179.22 107.544C180.074 107.8 180.778 108.227 181.332 108.824C181.887 109.422 182.292 110.211 182.548 111.192C182.804 112.152 182.932 113.347 182.932 114.776V123.608ZM196.639 118.008H197.087C197.087 118.84 197.033 119.63 196.927 120.376C196.82 121.102 196.575 121.742 196.191 122.296C195.807 122.851 195.209 123.288 194.399 123.608C193.609 123.928 192.521 124.088 191.135 124.088C190.175 124.088 189.268 124.014 188.415 123.864C187.583 123.715 186.847 123.448 186.207 123.064C185.588 122.68 185.097 122.158 184.735 121.496C184.393 120.835 184.223 120.003 184.223 119C184.223 118.168 184.372 117.464 184.671 116.888C184.991 116.312 185.439 115.832 186.015 115.448C186.591 115.064 187.295 114.766 188.127 114.552C188.959 114.318 189.897 114.147 190.943 114.04L197.951 113.4L198.271 116.408L191.775 117.048C191.327 117.091 190.911 117.155 190.527 117.24C190.164 117.326 189.855 117.443 189.599 117.592C189.343 117.72 189.14 117.902 188.991 118.136C188.841 118.35 188.767 118.616 188.767 118.936C188.767 119.171 188.82 119.384 188.927 119.576C189.055 119.768 189.247 119.939 189.503 120.088C189.759 120.216 190.079 120.312 190.463 120.376C190.847 120.44 191.305 120.472 191.839 120.472C192.671 120.472 193.385 120.398 193.983 120.248C194.601 120.078 195.103 119.875 195.487 119.64C195.871 119.406 196.159 119.15 196.351 118.872C196.543 118.574 196.639 118.286 196.639 118.008ZM196.639 113.464C196.639 112.846 196.511 112.366 196.255 112.024C195.999 111.662 195.679 111.384 195.295 111.192C194.911 111 194.495 110.883 194.047 110.84C193.599 110.776 193.172 110.744 192.767 110.744C192.383 110.744 191.967 110.766 191.519 110.808C191.092 110.851 190.687 110.958 190.303 111.128C189.94 111.278 189.641 111.512 189.407 111.832C189.172 112.152 189.055 112.59 189.055 113.144H185.119C185.119 112.035 185.289 111.107 185.631 110.36C185.993 109.592 186.505 108.974 187.167 108.504C187.849 108.014 188.671 107.662 189.631 107.448C190.591 107.235 191.657 107.128 192.831 107.128C194.217 107.128 195.412 107.235 196.415 107.448C197.439 107.662 198.292 108.035 198.975 108.568C199.657 109.102 200.159 109.827 200.479 110.744C200.82 111.662 200.991 112.803 200.991 114.168V123.608H196.639V113.464ZM212.958 115.608L220.382 123.608H215.038L207.614 115.608L215.038 107.608H220.382L212.958 115.608ZM207.614 123.608H203.23V99.6084H207.614V123.608ZM236.752 116.248V116.888H232.528V114.808C232.528 114.104 232.432 113.496 232.24 112.984C232.048 112.472 231.77 112.056 231.408 111.736C231.066 111.395 230.65 111.15 230.16 111C229.669 110.83 229.114 110.744 228.496 110.744C227.92 110.744 227.376 110.851 226.864 111.064C226.373 111.256 225.946 111.555 225.584 111.96C225.221 112.366 224.933 112.878 224.72 113.496C224.528 114.094 224.432 114.798 224.432 115.608C224.432 116.526 224.528 117.294 224.72 117.912C224.912 118.531 225.2 119.032 225.584 119.416C225.968 119.779 226.437 120.046 226.992 120.216C227.546 120.387 228.176 120.472 228.88 120.472C229.413 120.472 229.904 120.408 230.352 120.28C230.821 120.152 231.216 119.992 231.536 119.8C231.877 119.587 232.133 119.342 232.304 119.064C232.496 118.766 232.592 118.467 232.592 118.168H236.56C236.56 119.939 235.898 121.368 234.576 122.456C233.274 123.544 231.365 124.088 228.848 124.088C225.818 124.088 223.568 123.374 222.096 121.944C220.624 120.515 219.888 118.403 219.888 115.608C219.888 112.878 220.602 110.787 222.032 109.336C223.482 107.864 225.562 107.128 228.272 107.128C231.301 107.128 233.466 107.886 234.768 109.4C236.09 110.915 236.752 113.198 236.752 116.248ZM221.808 116.888V113.784H235.28V116.888H221.808ZM243.053 123.608H238.669V107.608H243.053V123.608ZM253.549 114.072H249.613C249.613 113.646 249.549 113.262 249.421 112.92C249.293 112.558 249.101 112.248 248.845 111.992C248.589 111.736 248.269 111.544 247.885 111.416C247.501 111.267 247.074 111.192 246.605 111.192C245.474 111.192 244.599 111.566 243.981 112.312C243.362 113.038 243.053 114.136 243.053 115.608V116.024H241.677V115.608C241.677 114.35 241.805 113.208 242.061 112.184C242.338 111.139 242.722 110.243 243.213 109.496C243.725 108.75 244.343 108.174 245.069 107.768C245.815 107.342 246.669 107.128 247.629 107.128C248.567 107.128 249.399 107.267 250.125 107.544C250.871 107.822 251.49 108.248 251.981 108.824C252.493 109.379 252.877 110.094 253.133 110.968C253.41 111.843 253.549 112.878 253.549 114.072ZM254.546 112.152C254.546 111.256 254.695 110.499 254.994 109.88C255.292 109.24 255.751 108.718 256.37 108.312C257.01 107.907 257.799 107.608 258.738 107.416C259.698 107.224 260.828 107.128 262.13 107.128C264.967 107.128 267.036 107.598 268.338 108.536C269.639 109.454 270.29 110.958 270.29 113.048H266.322C266.322 112.6 266.215 112.238 266.002 111.96C265.81 111.662 265.5 111.427 265.074 111.256C264.668 111.064 264.146 110.936 263.506 110.872C262.866 110.787 262.13 110.744 261.298 110.744C260.658 110.744 260.135 110.787 259.73 110.872C259.324 110.936 259.015 111.032 258.802 111.16C258.588 111.288 258.439 111.427 258.354 111.576C258.268 111.726 258.226 111.886 258.226 112.056C258.226 112.248 258.311 112.419 258.482 112.568C258.674 112.718 258.951 112.867 259.314 113.016C259.698 113.166 260.178 113.304 260.754 113.432C261.33 113.56 262.023 113.688 262.834 113.816C263.943 113.987 264.967 114.168 265.906 114.36C266.844 114.531 267.655 114.798 268.338 115.16C269.02 115.502 269.543 115.971 269.906 116.568C270.29 117.166 270.482 117.976 270.482 119C270.482 120.835 269.842 122.147 268.562 122.936C267.303 123.704 265.447 124.088 262.994 124.088C260.05 124.088 257.895 123.63 256.53 122.712C255.186 121.774 254.514 120.259 254.514 118.168H258.45C258.45 118.595 258.567 118.958 258.802 119.256C259.058 119.555 259.41 119.79 259.858 119.96C260.306 120.131 260.85 120.259 261.49 120.344C262.13 120.43 262.844 120.472 263.634 120.472C264.21 120.472 264.69 120.44 265.074 120.376C265.479 120.312 265.81 120.216 266.066 120.088C266.322 119.96 266.503 119.822 266.61 119.672C266.738 119.502 266.802 119.32 266.802 119.128C266.802 118.851 266.706 118.627 266.514 118.456C266.322 118.286 266.023 118.147 265.618 118.04C265.212 117.934 264.711 117.848 264.114 117.784C263.516 117.699 262.834 117.592 262.066 117.464C261.191 117.358 260.306 117.208 259.41 117.016C258.514 116.824 257.703 116.536 256.978 116.152C256.252 115.768 255.666 115.256 255.218 114.616C254.77 113.976 254.546 113.155 254.546 112.152ZM280.061 123.608V107.608H284.445V123.608H280.061ZM279.581 102.744C279.581 101.827 279.784 101.155 280.189 100.728C280.616 100.302 281.299 100.088 282.237 100.088C283.197 100.088 283.88 100.302 284.285 100.728C284.712 101.155 284.925 101.827 284.925 102.744C284.925 103.64 284.712 104.312 284.285 104.76C283.88 105.187 283.197 105.4 282.237 105.4C281.299 105.4 280.616 105.187 280.189 104.76C279.784 104.312 279.581 103.64 279.581 102.744ZM303.495 123.608H299.111V115.192C299.111 114.574 299.058 114.019 298.951 113.528C298.844 113.016 298.652 112.59 298.375 112.248C298.098 111.907 297.714 111.651 297.223 111.48C296.754 111.288 296.156 111.192 295.431 111.192C294.108 111.192 293.106 111.566 292.423 112.312C291.74 113.038 291.399 114.136 291.399 115.608V116.024H290.023V115.608C290.023 114.35 290.151 113.208 290.407 112.184C290.663 111.139 291.058 110.243 291.591 109.496C292.124 108.75 292.807 108.174 293.639 107.768C294.492 107.342 295.527 107.128 296.743 107.128C297.852 107.128 298.823 107.267 299.655 107.544C300.508 107.8 301.212 108.227 301.767 108.824C302.343 109.422 302.77 110.211 303.047 111.192C303.346 112.152 303.495 113.347 303.495 114.776V123.608ZM291.399 123.608H287.015V107.608H291.399V123.608ZM313.423 123.608V101.208H317.999V123.608H313.423ZM315.119 114.488V110.328H329.839V114.488H315.119ZM315.119 105.368V101.208H331.119V105.368H315.119ZM332.72 123.608V107.608H337.104V123.608H332.72ZM332.24 102.744C332.24 101.827 332.443 101.155 332.848 100.728C333.275 100.302 333.957 100.088 334.896 100.088C335.856 100.088 336.539 100.302 336.944 100.728C337.371 101.155 337.584 101.827 337.584 102.744C337.584 103.64 337.371 104.312 336.944 104.76C336.539 105.187 335.856 105.4 334.896 105.4C333.957 105.4 333.275 105.187 332.848 104.76C332.443 104.312 332.24 103.64 332.24 102.744ZM356.154 123.608H351.77V115.192C351.77 114.574 351.716 114.019 351.61 113.528C351.503 113.016 351.311 112.59 351.034 112.248C350.756 111.907 350.372 111.651 349.882 111.48C349.412 111.288 348.815 111.192 348.09 111.192C346.767 111.192 345.764 111.566 345.082 112.312C344.399 113.038 344.058 114.136 344.058 115.608V116.024H342.682V115.608C342.682 114.35 342.81 113.208 343.066 112.184C343.322 111.139 343.716 110.243 344.25 109.496C344.783 108.75 345.466 108.174 346.298 107.768C347.151 107.342 348.186 107.128 349.402 107.128C350.511 107.128 351.482 107.267 352.314 107.544C353.167 107.8 353.871 108.227 354.426 108.824C355.002 109.422 355.428 110.211 355.706 111.192C356.004 112.152 356.154 113.347 356.154 114.776V123.608ZM344.058 123.608H339.674V107.608H344.058V123.608ZM369.865 118.008H370.313C370.313 118.84 370.259 119.63 370.153 120.376C370.046 121.102 369.801 121.742 369.417 122.296C369.033 122.851 368.435 123.288 367.625 123.608C366.835 123.928 365.747 124.088 364.361 124.088C363.401 124.088 362.494 124.014 361.641 123.864C360.809 123.715 360.073 123.448 359.433 123.064C358.814 122.68 358.323 122.158 357.961 121.496C357.619 120.835 357.449 120.003 357.449 119C357.449 118.168 357.598 117.464 357.897 116.888C358.217 116.312 358.665 115.832 359.241 115.448C359.817 115.064 360.521 114.766 361.353 114.552C362.185 114.318 363.123 114.147 364.169 114.04L371.177 113.4L371.497 116.408L365.001 117.048C364.553 117.091 364.137 117.155 363.753 117.24C363.39 117.326 363.081 117.443 362.825 117.592C362.569 117.72 362.366 117.902 362.217 118.136C362.067 118.35 361.993 118.616 361.993 118.936C361.993 119.171 362.046 119.384 362.153 119.576C362.281 119.768 362.473 119.939 362.729 120.088C362.985 120.216 363.305 120.312 363.689 120.376C364.073 120.44 364.531 120.472 365.065 120.472C365.897 120.472 366.611 120.398 367.209 120.248C367.827 120.078 368.329 119.875 368.713 119.64C369.097 119.406 369.385 119.15 369.577 118.872C369.769 118.574 369.865 118.286 369.865 118.008ZM369.865 113.464C369.865 112.846 369.737 112.366 369.481 112.024C369.225 111.662 368.905 111.384 368.521 111.192C368.137 111 367.721 110.883 367.273 110.84C366.825 110.776 366.398 110.744 365.993 110.744C365.609 110.744 365.193 110.766 364.745 110.808C364.318 110.851 363.913 110.958 363.529 111.128C363.166 111.278 362.867 111.512 362.633 111.832C362.398 112.152 362.281 112.59 362.281 113.144H358.345C358.345 112.035 358.515 111.107 358.857 110.36C359.219 109.592 359.731 108.974 360.393 108.504C361.075 108.014 361.897 107.662 362.857 107.448C363.817 107.235 364.883 107.128 366.057 107.128C367.443 107.128 368.638 107.235 369.641 107.448C370.665 107.662 371.518 108.035 372.201 108.568C372.883 109.102 373.385 109.827 373.705 110.744C374.046 111.662 374.217 112.803 374.217 114.168V123.608H369.865V113.464ZM392.936 123.608H388.552V115.192C388.552 114.574 388.499 114.019 388.392 113.528C388.286 113.016 388.094 112.59 387.816 112.248C387.539 111.907 387.155 111.651 386.664 111.48C386.195 111.288 385.598 111.192 384.872 111.192C383.55 111.192 382.547 111.566 381.864 112.312C381.182 113.038 380.84 114.136 380.84 115.608V116.024H379.464V115.608C379.464 114.35 379.592 113.208 379.848 112.184C380.104 111.139 380.499 110.243 381.032 109.496C381.566 108.75 382.248 108.174 383.08 107.768C383.934 107.342 384.968 107.128 386.184 107.128C387.294 107.128 388.264 107.267 389.096 107.544C389.95 107.8 390.654 108.227 391.208 108.824C391.784 109.422 392.211 110.211 392.488 111.192C392.787 112.152 392.936 113.347 392.936 114.776V123.608ZM380.84 123.608H376.456V107.608H380.84V123.608ZM403.351 107.128C404.61 107.128 405.719 107.31 406.679 107.672C407.661 108.014 408.482 108.504 409.143 109.144C409.805 109.763 410.295 110.488 410.615 111.32C410.957 112.152 411.127 113.048 411.127 114.008H407.191C407.191 113.582 407.106 113.198 406.935 112.856C406.765 112.515 406.509 112.227 406.167 111.992C405.847 111.736 405.442 111.544 404.951 111.416C404.482 111.267 403.938 111.192 403.319 111.192C402.679 111.192 402.103 111.267 401.591 111.416C401.079 111.566 400.631 111.822 400.247 112.184C399.885 112.526 399.597 112.974 399.383 113.528C399.191 114.083 399.095 114.766 399.095 115.576C399.095 116.408 399.202 117.112 399.415 117.688C399.65 118.264 399.97 118.723 400.375 119.064C400.781 119.406 401.25 119.651 401.783 119.8C402.338 119.95 402.935 120.024 403.575 120.024C404.215 120.024 404.77 119.96 405.239 119.832C405.709 119.683 406.093 119.491 406.391 119.256C406.711 119 406.946 118.702 407.095 118.36C407.266 118.019 407.351 117.635 407.351 117.208H411.287C411.287 118.168 411.127 119.064 410.807 119.896C410.487 120.728 409.997 121.464 409.335 122.104C408.695 122.723 407.885 123.214 406.903 123.576C405.922 123.918 404.759 124.088 403.415 124.088C400.514 124.088 398.306 123.374 396.791 121.944C395.298 120.515 394.551 118.403 394.551 115.608C394.551 112.792 395.245 110.68 396.631 109.272C398.039 107.843 400.279 107.128 403.351 107.128ZM429.119 116.248V116.888H424.895V114.808C424.895 114.104 424.799 113.496 424.607 112.984C424.415 112.472 424.138 112.056 423.775 111.736C423.434 111.395 423.018 111.15 422.527 111C422.036 110.83 421.482 110.744 420.863 110.744C420.287 110.744 419.743 110.851 419.231 111.064C418.74 111.256 418.314 111.555 417.951 111.96C417.588 112.366 417.3 112.878 417.087 113.496C416.895 114.094 416.799 114.798 416.799 115.608C416.799 116.526 416.895 117.294 417.087 117.912C417.279 118.531 417.567 119.032 417.951 119.416C418.335 119.779 418.804 120.046 419.359 120.216C419.914 120.387 420.543 120.472 421.247 120.472C421.78 120.472 422.271 120.408 422.719 120.28C423.188 120.152 423.583 119.992 423.903 119.8C424.244 119.587 424.5 119.342 424.671 119.064C424.863 118.766 424.959 118.467 424.959 118.168H428.927C428.927 119.939 428.266 121.368 426.943 122.456C425.642 123.544 423.732 124.088 421.215 124.088C418.186 124.088 415.935 123.374 414.463 121.944C412.991 120.515 412.255 118.403 412.255 115.608C412.255 112.878 412.97 110.787 414.399 109.336C415.85 107.864 417.93 107.128 420.639 107.128C423.668 107.128 425.834 107.886 427.135 109.4C428.458 110.915 429.119 113.198 429.119 116.248ZM414.175 116.888V113.784H427.647V116.888H414.175Z" fill="#CFC098"/>
<path d="M48 176.648C50.4 176.648 51.78 175.628 51.78 173.148V164.608H54.18V172.768C54.18 177.488 51.76 178.908 48 178.908C44.22 178.908 41.8 177.488 41.8 172.768V164.608H44.2V173.148C44.2 175.628 45.6 176.648 48 176.648ZM65.7444 178.608H63.4444V173.228C63.4444 171.528 62.9244 170.448 60.7844 170.448C58.8844 170.448 57.8844 171.528 57.8844 173.588V178.608H55.5844V168.608H57.8844V170.008C58.5444 168.928 59.6844 168.308 61.4244 168.308C64.3244 168.308 65.7444 169.628 65.7444 173.028V178.608ZM69.4375 178.608H67.1375V163.608H69.4375V178.608ZM70.6344 173.608C70.6344 170.128 72.4544 168.308 76.2344 168.308C80.0144 168.308 81.8344 170.128 81.8344 173.608C81.8344 177.088 80.0144 178.908 76.2344 178.908C72.4544 178.908 70.6344 177.088 70.6344 173.608ZM73.0344 173.608C73.0344 175.668 74.0744 176.748 76.2344 176.748C78.3944 176.748 79.4344 175.668 79.4344 173.608C79.4344 171.528 78.3944 170.448 76.2344 170.448C73.9944 170.448 73.0344 171.528 73.0344 173.608ZM88.0767 168.308C91.2567 168.308 92.9367 170.208 92.9367 172.608H90.8367C90.8367 171.348 89.8967 170.448 88.0567 170.448C86.2567 170.448 85.0367 171.268 85.0367 173.568C85.0367 175.968 86.3967 176.748 88.1767 176.748C90.0567 176.748 90.9167 175.848 90.9167 174.608H93.0167C93.0167 177.008 91.4767 178.908 88.1167 178.908C84.5567 178.908 82.6367 177.088 82.6367 173.608C82.6367 170.088 84.2967 168.308 88.0767 168.308ZM96.3234 178.608H94.0234V163.608H96.3234V178.608ZM99.2634 173.608L104.423 178.608H101.483L96.3234 173.608L101.483 168.608H104.423L99.2634 173.608ZM111.625 175.048V170.708H109.225V168.608H111.625L112.425 164.608H113.925L113.905 168.608H118.925V170.708H113.925V174.748C113.925 175.788 114.105 176.748 115.325 176.748C116.225 176.748 116.905 176.308 116.905 174.808H119.005C119.005 177.908 117.585 178.908 115.245 178.908C112.885 178.908 111.625 177.788 111.625 175.048ZM122.37 178.608H120.07V163.608H122.37V170.008C123.03 168.928 124.17 168.308 125.91 168.308C128.81 168.308 130.23 169.628 130.23 173.028V178.608H127.93V173.228C127.93 171.528 127.41 170.448 125.27 170.448C123.37 170.448 122.37 171.528 122.37 173.588V178.608ZM141.723 173.888V174.288H133.663C133.863 176.268 135.003 176.948 136.823 176.948C138.383 176.948 139.503 176.148 139.503 175.188L141.603 175.208C141.603 177.408 139.923 178.908 136.823 178.908C133.063 178.908 131.223 177.068 131.223 173.588C131.223 170.188 133.083 168.308 136.463 168.308C140.223 168.308 141.723 170.208 141.723 173.888ZM133.723 172.588H139.443C139.223 170.948 138.123 170.248 136.563 170.248C135.163 170.248 134.043 171.048 133.723 172.588ZM150.017 182.608H147.717V168.608H150.017V170.008C150.577 168.928 151.577 168.308 153.317 168.308C156.037 168.308 157.877 170.128 157.877 173.608C157.877 177.088 155.737 178.908 153.237 178.908C151.537 178.908 150.557 178.208 150.017 177.128V182.608ZM155.477 173.588C155.477 171.528 154.677 170.448 152.777 170.448C150.977 170.448 150.017 171.528 150.017 173.588C150.017 175.648 150.977 176.748 152.777 176.748C154.417 176.748 155.477 175.648 155.477 173.588ZM158.675 173.608C158.675 170.128 160.495 168.308 164.275 168.308C168.055 168.308 169.875 170.128 169.875 173.608C169.875 177.088 168.055 178.908 164.275 178.908C160.495 178.908 158.675 177.088 158.675 173.608ZM161.075 173.608C161.075 175.668 162.115 176.748 164.275 176.748C166.435 176.748 167.475 175.668 167.475 173.608C167.475 171.528 166.435 170.448 164.275 170.448C162.035 170.448 161.075 171.528 161.075 173.608ZM173.377 178.608L169.677 168.608H172.217L174.637 175.188L177.077 168.608H179.617L182.037 175.188L184.477 168.608H187.017L183.317 178.608H180.777L178.337 172.028L175.917 178.608H173.377ZM197.32 173.888V174.288H189.26C189.46 176.268 190.6 176.948 192.42 176.948C193.98 176.948 195.1 176.148 195.1 175.188L197.2 175.208C197.2 177.408 195.52 178.908 192.42 178.908C188.66 178.908 186.82 177.068 186.82 173.588C186.82 170.188 188.68 168.308 192.06 168.308C195.82 168.308 197.32 170.208 197.32 173.888ZM189.32 172.588H195.04C194.82 170.948 193.72 170.248 192.16 170.248C190.76 170.248 189.64 171.048 189.32 172.588ZM200.82 178.608H198.52V168.608H200.82V169.988C201.44 168.928 202.46 168.308 203.84 168.308C206.26 168.308 207.56 169.728 207.56 172.648H205.46C205.46 171.348 204.82 170.448 203.34 170.448C201.76 170.448 200.82 171.528 200.82 173.588V178.608ZM212.964 173.608C212.964 170.128 214.784 168.308 218.564 168.308C222.344 168.308 224.164 170.128 224.164 173.608C224.164 177.088 222.344 178.908 218.564 178.908C214.784 178.908 212.964 177.088 212.964 173.608ZM215.364 173.608C215.364 175.668 216.404 176.748 218.564 176.748C220.724 176.748 221.764 175.668 221.764 173.608C221.764 171.528 220.724 170.448 218.564 170.448C216.324 170.448 215.364 171.528 215.364 173.608ZM226.671 167.628C226.671 164.948 227.791 163.608 230.371 163.608C232.731 163.608 234.051 164.608 234.051 167.708H231.951C231.951 166.248 231.411 165.748 230.391 165.748C229.471 165.748 228.971 166.208 228.971 167.728V168.608H233.871V170.708H228.971V178.608H226.671V170.708H224.571V168.608H226.671V167.628ZM239.285 171.308C239.285 169.188 240.865 168.308 243.945 168.308C247.425 168.308 248.985 169.408 248.985 172.008H246.885C246.885 170.648 245.725 170.248 243.545 170.248C241.645 170.248 241.285 170.768 241.285 171.268C241.285 171.828 242.125 172.228 244.365 172.628C247.205 173.128 249.105 173.428 249.105 175.848C249.105 178.048 247.505 178.908 244.485 178.908C240.865 178.908 239.245 177.808 239.245 175.208H241.345C241.345 176.508 242.725 176.948 244.785 176.948C246.465 176.948 247.105 176.528 247.105 175.908C247.105 175.008 245.985 174.968 243.885 174.608C241.705 174.268 239.285 173.688 239.285 171.308ZM259.559 178.608H257.259V172.828C257.259 171.528 256.819 170.448 255.039 170.448C253.439 170.448 252.599 171.528 252.599 173.588V178.608H250.299V168.608H252.599V169.988C253.239 168.928 254.279 168.308 255.859 168.308C257.359 168.308 258.419 168.868 258.999 169.968C259.599 169.008 260.639 168.308 262.299 168.308C265.219 168.308 266.499 169.628 266.499 173.028V178.608H264.199V173.228C264.199 171.528 263.759 170.448 261.999 170.448C260.379 170.448 259.559 171.528 259.559 172.848V178.608ZM275.247 172.228C275.247 170.408 273.667 170.248 272.567 170.248C271.427 170.248 269.967 170.368 269.967 172.068H267.867C267.867 169.368 269.667 168.308 272.567 168.308C275.907 168.308 277.547 169.368 277.547 172.568V178.608H275.247V177.248C274.847 178.228 273.907 178.908 271.707 178.908C269.187 178.908 267.307 178.248 267.307 175.768C267.307 173.768 268.887 172.928 271.707 172.628L275.247 172.268V172.228ZM275.247 173.928L272.047 174.248C270.747 174.388 269.707 174.748 269.707 175.728C269.707 176.488 270.307 176.948 272.027 176.948C274.267 176.948 275.147 175.988 275.247 175.248V173.928ZM281.252 178.608H278.952V168.608H281.252V169.988C281.872 168.928 282.892 168.308 284.272 168.308C286.692 168.308 287.992 169.728 287.992 172.648H285.892C285.892 171.348 285.252 170.448 283.772 170.448C282.192 170.448 281.252 171.528 281.252 173.588V178.608ZM290.802 175.048V170.708H288.402V168.608H290.802L291.602 164.608H293.102L293.082 168.608H298.102V170.708H293.102V174.748C293.102 175.788 293.282 176.748 294.502 176.748C295.402 176.748 296.082 176.308 296.082 174.808H298.182C298.182 177.908 296.762 178.908 294.422 178.908C292.062 178.908 290.802 177.788 290.802 175.048ZM313.301 178.608H311.001V172.828C311.001 171.528 310.561 170.448 308.781 170.448C307.181 170.448 306.341 171.528 306.341 173.588V178.608H304.041V168.608H306.341V169.988C306.981 168.928 308.021 168.308 309.601 168.308C311.101 168.308 312.161 168.868 312.741 169.968C313.341 169.008 314.381 168.308 316.041 168.308C318.961 168.308 320.241 169.628 320.241 173.028V178.608H317.941V173.228C317.941 171.528 317.501 170.448 315.741 170.448C314.121 170.448 313.301 171.528 313.301 172.848V178.608ZM321.249 173.608C321.249 170.128 323.069 168.308 326.849 168.308C330.629 168.308 332.449 170.128 332.449 173.608C332.449 177.088 330.629 178.908 326.849 178.908C323.069 178.908 321.249 177.088 321.249 173.608ZM323.649 173.608C323.649 175.668 324.689 176.748 326.849 176.748C329.009 176.748 330.049 175.668 330.049 173.608C330.049 171.528 329.009 170.448 326.849 170.448C324.609 170.448 323.649 171.528 323.649 173.608ZM343.812 178.608H341.512V173.228C341.512 171.528 340.992 170.448 338.852 170.448C336.952 170.448 335.952 171.528 335.952 173.588V178.608H333.652V168.608H335.952V170.008C336.612 168.928 337.752 168.308 339.492 168.308C342.392 168.308 343.812 169.628 343.812 173.028V178.608ZM355.305 173.888V174.288H347.245C347.445 176.268 348.585 176.948 350.405 176.948C351.965 176.948 353.085 176.148 353.085 175.188L355.185 175.208C355.185 177.408 353.505 178.908 350.405 178.908C346.645 178.908 344.805 177.068 344.805 173.588C344.805 170.188 346.665 168.308 350.045 168.308C353.805 168.308 355.305 170.208 355.305 173.888ZM347.305 172.588H353.025C352.805 170.948 351.705 170.248 350.145 170.248C348.745 170.248 347.625 171.048 347.305 172.588ZM362.718 178.268C361.638 181.348 361.198 183.208 358.318 183.208C356.158 183.208 355.218 181.548 355.218 179.348H357.218C357.218 180.908 357.738 181.268 358.338 181.268C359.198 181.268 359.578 180.368 360.038 179.048L360.218 178.468L354.998 168.608H357.598L361.258 175.488L363.658 168.608H366.098L362.718 178.268ZM380.745 178.608H378.445V172.828C378.445 171.528 378.005 170.448 376.225 170.448C374.625 170.448 373.785 171.528 373.785 173.588V178.608H371.485V168.608H373.785V169.988C374.425 168.928 375.465 168.308 377.045 168.308C378.545 168.308 379.605 168.868 380.185 169.968C380.785 169.008 381.825 168.308 383.485 168.308C386.405 168.308 387.685 169.628 387.685 173.028V178.608H385.385V173.228C385.385 171.528 384.945 170.448 383.185 170.448C381.565 170.448 380.745 171.528 380.745 172.848V178.608ZM388.693 173.608C388.693 170.128 390.513 168.308 394.293 168.308C398.073 168.308 399.893 170.128 399.893 173.608C399.893 177.088 398.073 178.908 394.293 178.908C390.513 178.908 388.693 177.088 388.693 173.608ZM391.093 173.608C391.093 175.668 392.133 176.748 394.293 176.748C396.453 176.748 397.493 175.668 397.493 173.608C397.493 171.528 396.453 170.448 394.293 170.448C392.053 170.448 391.093 171.528 391.093 173.608ZM403.995 178.608L399.695 168.608H402.235L405.255 175.668L408.295 168.608H410.835L406.535 178.608H403.995ZM421.127 173.888V174.288H413.067C413.267 176.268 414.407 176.948 416.227 176.948C417.787 176.948 418.907 176.148 418.907 175.188L421.007 175.208C421.007 177.408 419.327 178.908 416.227 178.908C412.467 178.908 410.627 177.068 410.627 173.588C410.627 170.188 412.487 168.308 415.867 168.308C419.627 168.308 421.127 170.208 421.127 173.888ZM413.127 172.588H418.847C418.627 170.948 417.527 170.248 415.967 170.248C414.567 170.248 413.447 171.048 413.127 172.588ZM421.967 171.308C421.967 169.188 423.547 168.308 426.627 168.308C430.107 168.308 431.667 169.408 431.667 172.008H429.567C429.567 170.648 428.407 170.248 426.227 170.248C424.327 170.248 423.967 170.768 423.967 171.268C423.967 171.828 424.807 172.228 427.047 172.628C429.887 173.128 431.787 173.428 431.787 175.848C431.787 178.048 430.187 178.908 427.167 178.908C423.547 178.908 421.927 177.808 421.927 175.208H424.027C424.027 176.508 425.407 176.948 427.467 176.948C429.147 176.948 429.787 176.528 429.787 175.908C429.787 175.008 428.667 174.968 426.567 174.608C424.387 174.268 421.967 173.688 421.967 171.308ZM49.34 202.228C49.34 200.408 47.76 200.248 46.66 200.248C45.52 200.248 44.06 200.368 44.06 202.068H41.96C41.96 199.368 43.76 198.308 46.66 198.308C50 198.308 51.64 199.368 51.64 202.568V208.608H49.34V207.248C48.94 208.228 48 208.908 45.8 208.908C43.28 208.908 41.4 208.248 41.4 205.768C41.4 203.768 42.98 202.928 45.8 202.628L49.34 202.268V202.228ZM49.34 203.928L46.14 204.248C44.84 204.388 43.8 204.748 43.8 205.728C43.8 206.488 44.4 206.948 46.12 206.948C48.36 206.948 49.24 205.988 49.34 205.248V203.928ZM63.2053 208.608H60.9053V203.228C60.9053 201.528 60.3853 200.448 58.2453 200.448C56.3453 200.448 55.3453 201.528 55.3453 203.588V208.608H53.0453V198.608H55.3453V200.008C56.0053 198.928 57.1453 198.308 58.8853 198.308C61.7853 198.308 63.2053 199.628 63.2053 203.028V208.608ZM72.4584 208.608V207.088C71.8784 208.188 70.8584 208.908 69.0584 208.908C66.2784 208.908 64.1984 207.088 64.1984 203.608C64.1984 200.128 65.9784 198.308 68.9784 198.308C70.8184 198.308 71.8784 198.948 72.4584 200.068V193.608H74.7584V208.608H72.4584ZM66.5984 203.588C66.5984 205.648 67.5984 206.748 69.4984 206.748C71.4584 206.748 72.4584 205.648 72.4584 203.588C72.4584 201.528 71.4584 200.448 69.4984 200.448C67.3184 200.448 66.5984 201.528 66.5984 203.588ZM86.2017 198.308C89.3817 198.308 91.0617 200.208 91.0617 202.608H88.9617C88.9617 201.348 88.0217 200.448 86.1817 200.448C84.3817 200.448 83.1617 201.268 83.1617 203.568C83.1617 205.968 84.5217 206.748 86.3017 206.748C88.1817 206.748 89.0417 205.848 89.0417 204.608H91.1417C91.1417 207.008 89.6017 208.908 86.2417 208.908C82.6817 208.908 80.7617 207.088 80.7617 203.608C80.7617 200.088 82.4217 198.308 86.2017 198.308ZM91.7484 203.608C91.7484 200.128 93.5684 198.308 97.3484 198.308C101.128 198.308 102.948 200.128 102.948 203.608C102.948 207.088 101.128 208.908 97.3484 208.908C93.5684 208.908 91.7484 207.088 91.7484 203.608ZM94.1484 203.608C94.1484 205.668 95.1884 206.748 97.3484 206.748C99.5084 206.748 100.548 205.668 100.548 203.608C100.548 201.528 99.5084 200.448 97.3484 200.448C95.1084 200.448 94.1484 201.528 94.1484 203.608ZM114.311 208.608H112.011V203.228C112.011 201.528 111.491 200.448 109.351 200.448C107.451 200.448 106.451 201.528 106.451 203.588V208.608H104.151V198.608H106.451V200.008C107.111 198.928 108.251 198.308 109.991 198.308C112.891 198.308 114.311 199.628 114.311 203.028V208.608ZM125.864 208.608H123.564V203.228C123.564 201.528 123.044 200.448 120.904 200.448C119.004 200.448 118.004 201.528 118.004 203.588V208.608H115.704V198.608H118.004V200.008C118.664 198.928 119.804 198.308 121.544 198.308C124.444 198.308 125.864 199.628 125.864 203.028V208.608ZM137.357 203.888V204.288H129.297C129.497 206.268 130.637 206.948 132.457 206.948C134.017 206.948 135.137 206.148 135.137 205.188L137.237 205.208C137.237 207.408 135.557 208.908 132.457 208.908C128.697 208.908 126.857 207.068 126.857 203.588C126.857 200.188 128.717 198.308 132.097 198.308C135.857 198.308 137.357 200.208 137.357 203.888ZM129.357 202.588H135.077C134.857 200.948 133.757 200.248 132.197 200.248C130.797 200.248 129.677 201.048 129.357 202.588ZM143.596 198.308C146.776 198.308 148.456 200.208 148.456 202.608H146.356C146.356 201.348 145.416 200.448 143.576 200.448C141.776 200.448 140.556 201.268 140.556 203.568C140.556 205.968 141.916 206.748 143.696 206.748C145.576 206.748 146.436 205.848 146.436 204.608H148.536C148.536 207.008 146.996 208.908 143.636 208.908C140.076 208.908 138.156 207.088 138.156 203.608C138.156 200.088 139.816 198.308 143.596 198.308ZM151.343 205.048V200.708H148.943V198.608H151.343L152.143 194.608H153.643L153.623 198.608H158.643V200.708H153.643V204.748C153.643 205.788 153.823 206.748 155.043 206.748C155.943 206.748 156.623 206.308 156.623 204.808H158.723C158.723 207.908 157.303 208.908 154.963 208.908C152.603 208.908 151.343 207.788 151.343 205.048ZM166.883 208.608L163.183 198.608H165.723L168.143 205.188L170.583 198.608H173.123L175.543 205.188L177.983 198.608H180.523L176.823 208.608H174.283L171.843 202.028L169.423 208.608H166.883ZM180.386 195.568C180.386 194.548 180.826 194.068 181.886 194.068C182.926 194.068 183.386 194.548 183.386 195.568C183.386 196.568 182.926 197.068 181.886 197.068C180.826 197.068 180.386 196.568 180.386 195.568ZM180.726 208.608V198.608H183.026V208.608H180.726ZM186.423 205.048V200.708H184.023V198.608H186.423L187.223 194.608H188.723L188.703 198.608H193.723V200.708H188.723V204.748C188.723 205.788 188.903 206.748 190.123 206.748C191.023 206.748 191.703 206.308 191.703 204.808H193.803C193.803 207.908 192.383 208.908 190.043 208.908C187.683 208.908 186.423 207.788 186.423 205.048ZM197.167 208.608H194.867V193.608H197.167V200.008C197.827 198.928 198.967 198.308 200.707 198.308C203.607 198.308 205.027 199.628 205.027 203.028V208.608H202.727V203.228C202.727 201.528 202.207 200.448 200.067 200.448C198.167 200.448 197.167 201.528 197.167 203.588V208.608ZM212.716 197.628C212.716 194.948 213.836 193.608 216.416 193.608C218.776 193.608 220.096 194.608 220.096 197.708H217.996C217.996 196.248 217.456 195.748 216.436 195.748C215.516 195.748 215.016 196.208 215.016 197.728V198.608H219.916V200.708H215.016V208.608H212.716V200.708H210.616V198.608H212.716V197.628ZM220.298 203.608C220.298 200.128 222.118 198.308 225.898 198.308C229.678 198.308 231.498 200.128 231.498 203.608C231.498 207.088 229.678 208.908 225.898 208.908C222.118 208.908 220.298 207.088 220.298 203.608ZM222.698 203.608C222.698 205.668 223.738 206.748 225.898 206.748C228.058 206.748 229.098 205.668 229.098 203.608C229.098 201.528 228.058 200.448 225.898 200.448C223.658 200.448 222.698 201.528 222.698 203.608ZM235.001 208.608H232.701V198.608H235.001V199.988C235.621 198.928 236.641 198.308 238.021 198.308C240.441 198.308 241.741 199.728 241.741 202.648H239.641C239.641 201.348 239.001 200.448 237.521 200.448C235.941 200.448 235.001 201.528 235.001 203.588V208.608ZM245.05 208.608L241.35 198.608H243.89L246.31 205.188L248.75 198.608H251.29L253.71 205.188L256.15 198.608H258.69L254.99 208.608H252.45L250.01 202.028L247.59 208.608H245.05ZM266.233 202.228C266.233 200.408 264.653 200.248 263.553 200.248C262.413 200.248 260.953 200.368 260.953 202.068H258.853C258.853 199.368 260.653 198.308 263.553 198.308C266.893 198.308 268.533 199.368 268.533 202.568V208.608H266.233V207.248C265.833 208.228 264.893 208.908 262.693 208.908C260.173 208.908 258.293 208.248 258.293 205.768C258.293 203.768 259.873 202.928 262.693 202.628L266.233 202.268V202.228ZM266.233 203.928L263.033 204.248C261.733 204.388 260.693 204.748 260.693 205.728C260.693 206.488 261.293 206.948 263.013 206.948C265.253 206.948 266.133 205.988 266.233 205.248V203.928ZM272.238 208.608H269.938V198.608H272.238V199.988C272.858 198.928 273.878 198.308 275.258 198.308C277.678 198.308 278.978 199.728 278.978 202.648H276.878C276.878 201.348 276.238 200.448 274.758 200.448C273.178 200.448 272.238 201.528 272.238 203.588V208.608ZM287.848 208.608V207.088C287.268 208.188 286.248 208.908 284.448 208.908C281.668 208.908 279.588 207.088 279.588 203.608C279.588 200.128 281.368 198.308 284.368 198.308C286.208 198.308 287.268 198.948 287.848 200.068V193.608H290.148V208.608H287.848ZM281.988 203.588C281.988 205.648 282.988 206.748 284.888 206.748C286.848 206.748 287.848 205.648 287.848 203.588C287.848 201.528 286.848 200.448 284.888 200.448C282.708 200.448 281.988 201.528 281.988 203.588ZM291.355 204.628V203.128H296.555V204.628H291.355ZM299.562 205.048V200.708H297.162V198.608H299.562L300.362 194.608H301.862L301.842 198.608H306.862V200.708H301.862V204.748C301.862 205.788 302.042 206.748 303.262 206.748C304.162 206.748 304.842 206.308 304.842 204.808H306.942C306.942 207.908 305.522 208.908 303.182 208.908C300.822 208.908 299.562 207.788 299.562 205.048ZM310.306 208.608H308.006V193.608H310.306V200.008C310.966 198.928 312.106 198.308 313.846 198.308C316.746 198.308 318.166 199.628 318.166 203.028V208.608H315.866V203.228C315.866 201.528 315.346 200.448 313.206 200.448C311.306 200.448 310.306 201.528 310.306 203.588V208.608ZM319.219 195.568C319.219 194.548 319.659 194.068 320.719 194.068C321.759 194.068 322.219 194.548 322.219 195.568C322.219 196.568 321.759 197.068 320.719 197.068C319.659 197.068 319.219 196.568 319.219 195.568ZM319.559 208.608V198.608H321.859V208.608H319.559ZM333.616 208.608H331.316V203.228C331.316 201.528 330.796 200.448 328.656 200.448C326.756 200.448 325.756 201.528 325.756 203.588V208.608H323.456V198.608H325.756V200.008C326.416 198.928 327.556 198.308 329.296 198.308C332.196 198.308 333.616 199.628 333.616 203.028V208.608ZM337.309 208.608H335.009V193.608H337.309V208.608ZM340.249 203.608L345.409 208.608H342.469L337.309 203.608L342.469 198.608H345.409L340.249 203.608ZM355.745 203.888V204.288H347.685C347.885 206.268 349.025 206.948 350.845 206.948C352.405 206.948 353.525 206.148 353.525 205.188L355.625 205.208C355.625 207.408 353.945 208.908 350.845 208.908C347.085 208.908 345.245 207.068 345.245 203.588C345.245 200.188 347.105 198.308 350.485 198.308C354.245 198.308 355.745 200.208 355.745 203.888ZM347.745 202.588H353.465C353.245 200.948 352.145 200.248 350.585 200.248C349.185 200.248 348.065 201.048 347.745 202.588ZM359.244 208.608H356.944V198.608H359.244V199.988C359.864 198.928 360.884 198.308 362.264 198.308C364.684 198.308 365.984 199.728 365.984 202.648H363.884C363.884 201.348 363.244 200.448 361.764 200.448C360.184 200.448 359.244 201.528 359.244 203.588V208.608ZM366.633 201.308C366.633 199.188 368.213 198.308 371.293 198.308C374.773 198.308 376.333 199.408 376.333 202.008H374.233C374.233 200.648 373.073 200.248 370.893 200.248C368.993 200.248 368.633 200.768 368.633 201.268C368.633 201.828 369.473 202.228 371.713 202.628C374.553 203.128 376.453 203.428 376.453 205.848C376.453 208.048 374.853 208.908 371.833 208.908C368.213 208.908 366.593 207.808 366.593 205.208H368.693C368.693 206.508 370.073 206.948 372.133 206.948C373.813 206.948 374.453 206.528 374.453 205.908C374.453 205.008 373.333 204.968 371.233 204.608C369.053 204.268 366.633 203.688 366.633 201.308ZM43.8 235.048V230.708H41.4V228.608H43.8L44.6 224.608H46.1L46.08 228.608H51.1V230.708H46.1V234.748C46.1 235.788 46.28 236.748 47.5 236.748C48.4 236.748 49.08 236.308 49.08 234.808H51.18C51.18 237.908 49.76 238.908 47.42 238.908C45.06 238.908 43.8 237.788 43.8 235.048ZM54.5445 238.608H52.2445V228.608H54.5445V229.988C55.1645 228.928 56.1845 228.308 57.5645 228.308C59.9845 228.308 61.2845 229.728 61.2845 232.648H59.1845C59.1845 231.348 58.5445 230.448 57.0645 230.448C55.4845 230.448 54.5445 231.528 54.5445 233.588V238.608ZM69.6338 232.228C69.6338 230.408 68.0538 230.248 66.9538 230.248C65.8138 230.248 64.3538 230.368 64.3538 232.068H62.2538C62.2538 229.368 64.0538 228.308 66.9538 228.308C70.2938 228.308 71.9338 229.368 71.9338 232.568V238.608H69.6338V237.248C69.2338 238.228 68.2938 238.908 66.0938 238.908C63.5738 238.908 61.6938 238.248 61.6938 235.768C61.6938 233.768 63.2738 232.928 66.0938 232.628L69.6338 232.268V232.228ZM69.6338 233.928L66.4338 234.248C65.1338 234.388 64.0938 234.748 64.0938 235.728C64.0938 236.488 64.6938 236.948 66.4138 236.948C68.6538 236.948 69.5338 235.988 69.6338 235.248V233.928ZM83.4991 238.608H81.1991V233.228C81.1991 231.528 80.6791 230.448 78.5391 230.448C76.6391 230.448 75.6391 231.528 75.6391 233.588V238.608H73.3391V228.608H75.6391V230.008C76.2991 228.928 77.4391 228.308 79.1791 228.308C82.0791 228.308 83.4991 229.628 83.4991 233.028V238.608ZM84.5322 231.308C84.5322 229.188 86.1122 228.308 89.1922 228.308C92.6722 228.308 94.2322 229.408 94.2322 232.008H92.1322C92.1322 230.648 90.9722 230.248 88.7922 230.248C86.8922 230.248 86.5322 230.768 86.5322 231.268C86.5322 231.828 87.3722 232.228 89.6122 232.628C92.4522 233.128 94.3522 233.428 94.3522 235.848C94.3522 238.048 92.7522 238.908 89.7322 238.908C86.1122 238.908 84.4922 237.808 84.4922 235.208H86.5922C86.5922 236.508 87.9722 236.948 90.0322 236.948C91.7122 236.948 92.3522 236.528 92.3522 235.908C92.3522 235.008 91.2322 234.968 89.1322 234.608C86.9522 234.268 84.5322 233.688 84.5322 231.308ZM97.0469 227.628C97.0469 224.948 98.1669 223.608 100.747 223.608C103.107 223.608 104.427 224.608 104.427 227.708H102.327C102.327 226.248 101.787 225.748 100.767 225.748C99.8469 225.748 99.3469 226.208 99.3469 227.728V228.608H104.247V230.708H99.3469V238.608H97.0469V230.708H94.9469V228.608H97.0469V227.628ZM104.63 233.608C104.63 230.128 106.45 228.308 110.23 228.308C114.01 228.308 115.83 230.128 115.83 233.608C115.83 237.088 114.01 238.908 110.23 238.908C106.45 238.908 104.63 237.088 104.63 233.608ZM107.03 233.608C107.03 235.668 108.07 236.748 110.23 236.748C112.39 236.748 113.43 235.668 113.43 233.608C113.43 231.528 112.39 230.448 110.23 230.448C107.99 230.448 107.03 231.528 107.03 233.608ZM119.332 238.608H117.032V228.608H119.332V229.988C119.952 228.928 120.972 228.308 122.352 228.308C124.772 228.308 126.072 229.728 126.072 232.648H123.972C123.972 231.348 123.332 230.448 121.852 230.448C120.272 230.448 119.332 231.528 119.332 233.588V238.608ZM136.341 238.608H134.041V232.828C134.041 231.528 133.601 230.448 131.821 230.448C130.221 230.448 129.381 231.528 129.381 233.588V238.608H127.081V228.608H129.381V229.988C130.021 228.928 131.061 228.308 132.641 228.308C134.141 228.308 135.201 228.868 135.781 229.968C136.381 229.008 137.421 228.308 139.081 228.308C142.001 228.308 143.281 229.628 143.281 233.028V238.608H140.981V233.228C140.981 231.528 140.541 230.448 138.781 230.448C137.161 230.448 136.341 231.528 136.341 232.848V238.608ZM144.349 225.568C144.349 224.548 144.789 224.068 145.849 224.068C146.889 224.068 147.349 224.548 147.349 225.568C147.349 226.568 146.889 227.068 145.849 227.068C144.789 227.068 144.349 226.568 144.349 225.568ZM144.689 238.608V228.608H146.989V238.608H144.689ZM158.746 238.608H156.446V233.228C156.446 231.528 155.926 230.448 153.786 230.448C151.886 230.448 150.886 231.528 150.886 233.588V238.608H148.586V228.608H150.886V230.008C151.546 228.928 152.686 228.308 154.426 228.308C157.326 228.308 158.746 229.628 158.746 233.028V238.608ZM170.139 226.148V227.968C169.499 227.588 168.659 227.408 167.939 227.408C167.339 227.408 166.519 227.648 166.259 228.388C168.619 228.688 169.799 229.848 169.799 231.808C169.799 234.128 168.259 235.308 164.959 235.308C162.619 235.308 161.739 235.328 161.739 235.888C161.739 236.368 162.579 236.508 165.179 236.768C168.119 237.088 170.319 237.128 170.319 239.788C170.319 241.868 168.639 242.808 165.299 242.808C161.359 242.808 159.739 241.708 159.739 239.108H161.839C161.839 240.428 163.079 240.868 165.359 240.868C167.199 240.868 168.359 240.628 168.359 239.768C168.359 238.768 167.159 239.028 164.859 238.768C162.519 238.508 159.779 238.368 159.779 236.108C159.779 235.168 160.279 234.628 161.059 234.308C160.319 233.728 159.939 232.888 159.939 231.808C159.939 228.668 162.839 228.308 165.319 228.308C165.499 226.848 166.439 225.708 168.039 225.708C168.839 225.708 169.579 225.928 170.139 226.148ZM162.339 231.788C162.339 232.888 163.339 233.348 164.939 233.348C166.599 233.348 167.399 232.888 167.399 231.788C167.399 230.708 166.499 230.248 164.839 230.248C162.959 230.248 162.339 230.708 162.339 231.788ZM178.112 235.048V230.708H175.712V228.608H178.112L178.912 224.608H180.412L180.392 228.608H185.412V230.708H180.412V234.748C180.412 235.788 180.592 236.748 181.812 236.748C182.712 236.748 183.392 236.308 183.392 234.808H185.492C185.492 237.908 184.072 238.908 181.732 238.908C179.372 238.908 178.112 237.788 178.112 235.048ZM188.856 238.608H186.556V223.608H188.856V230.008C189.516 228.928 190.656 228.308 192.396 228.308C195.296 228.308 196.716 229.628 196.716 233.028V238.608H194.416V233.228C194.416 231.528 193.896 230.448 191.756 230.448C189.856 230.448 188.856 231.528 188.856 233.588V238.608ZM208.209 233.888V234.288H200.149C200.349 236.268 201.489 236.948 203.309 236.948C204.869 236.948 205.989 236.148 205.989 235.188L208.089 235.208C208.089 237.408 206.409 238.908 203.309 238.908C199.549 238.908 197.709 237.068 197.709 233.588C197.709 230.188 199.569 228.308 202.949 228.308C206.709 228.308 208.209 230.208 208.209 233.888ZM200.209 232.588H205.929C205.709 230.948 204.609 230.248 203.049 230.248C201.649 230.248 200.529 231.048 200.209 232.588ZM215.704 227.628C215.704 224.948 217.164 223.608 220.564 223.608C223.664 223.608 225.404 224.608 225.404 227.708H223.304C223.304 226.248 222.344 225.748 220.544 225.748C218.884 225.748 218.004 226.208 218.004 227.728V228.608H225.404V238.608H223.104V230.708H218.004V238.608H215.704V230.708H213.604V228.608H215.704V227.628ZM236.815 238.608H234.515V233.228C234.515 231.528 233.995 230.448 231.855 230.448C229.955 230.448 228.955 231.528 228.955 233.588V238.608H226.655V228.608H228.955V230.008C229.615 228.928 230.755 228.308 232.495 228.308C235.395 228.308 236.815 229.628 236.815 233.028V238.608ZM245.549 232.228C245.549 230.408 243.969 230.248 242.869 230.248C241.729 230.248 240.269 230.368 240.269 232.068H238.169C238.169 229.368 239.969 228.308 242.869 228.308C246.209 228.308 247.849 229.368 247.849 232.568V238.608H245.549V237.248C245.149 238.228 244.209 238.908 242.009 238.908C239.489 238.908 237.609 238.248 237.609 235.768C237.609 233.768 239.189 232.928 242.009 232.628L245.549 232.268V232.228ZM245.549 233.928L242.349 234.248C241.049 234.388 240.009 234.748 240.009 235.728C240.009 236.488 240.609 236.948 242.329 236.948C244.569 236.948 245.449 235.988 245.549 235.248V233.928ZM259.414 238.608H257.114V233.228C257.114 231.528 256.594 230.448 254.454 230.448C252.554 230.448 251.554 231.528 251.554 233.588V238.608H249.254V228.608H251.554V230.008C252.214 228.928 253.354 228.308 255.094 228.308C257.994 228.308 259.414 229.628 259.414 233.028V238.608ZM265.847 228.308C269.027 228.308 270.707 230.208 270.707 232.608H268.607C268.607 231.348 267.667 230.448 265.827 230.448C264.027 230.448 262.807 231.268 262.807 233.568C262.807 235.968 264.167 236.748 265.947 236.748C267.827 236.748 268.687 235.848 268.687 234.608H270.787C270.787 237.008 269.247 238.908 265.887 238.908C262.327 238.908 260.407 237.088 260.407 233.608C260.407 230.088 262.067 228.308 265.847 228.308ZM271.454 225.568C271.454 224.548 271.894 224.068 272.954 224.068C273.994 224.068 274.454 224.548 274.454 225.568C274.454 226.568 273.994 227.068 272.954 227.068C271.894 227.068 271.454 226.568 271.454 225.568ZM271.794 238.608V228.608H274.094V238.608H271.794ZM283.031 232.228C283.031 230.408 281.451 230.248 280.351 230.248C279.211 230.248 277.751 230.368 277.751 232.068H275.651C275.651 229.368 277.451 228.308 280.351 228.308C283.691 228.308 285.331 229.368 285.331 232.568V238.608H283.031V237.248C282.631 238.228 281.691 238.908 279.491 238.908C276.971 238.908 275.091 238.248 275.091 235.768C275.091 233.768 276.671 232.928 279.491 232.628L283.031 232.268V232.228ZM283.031 233.928L279.831 234.248C278.531 234.388 277.491 234.748 277.491 235.728C277.491 236.488 278.091 236.948 279.811 236.948C282.051 236.948 282.931 235.988 283.031 235.248V233.928ZM289.036 238.608H286.736V223.608H289.036V238.608ZM297.728 238.608L294.028 228.608H296.568L298.988 235.188L301.428 228.608H303.968L306.388 235.188L308.828 228.608H311.368L307.668 238.608H305.128L302.688 232.028L300.268 238.608H297.728ZM311.171 233.608C311.171 230.128 312.991 228.308 316.771 228.308C320.551 228.308 322.371 230.128 322.371 233.608C322.371 237.088 320.551 238.908 316.771 238.908C312.991 238.908 311.171 237.088 311.171 233.608ZM313.571 233.608C313.571 235.668 314.611 236.748 316.771 236.748C318.931 236.748 319.971 235.668 319.971 233.608C319.971 231.528 318.931 230.448 316.771 230.448C314.531 230.448 313.571 231.528 313.571 233.608ZM325.873 238.608H323.573V228.608H325.873V229.988C326.493 228.928 327.513 228.308 328.893 228.308C331.313 228.308 332.613 229.728 332.613 232.648H330.513C330.513 231.348 329.873 230.448 328.393 230.448C326.813 230.448 325.873 231.528 325.873 233.588V238.608ZM335.923 238.608H333.623V223.608H335.923V238.608ZM345.38 238.608V237.088C344.8 238.188 343.78 238.908 341.98 238.908C339.2 238.908 337.12 237.088 337.12 233.608C337.12 230.128 338.9 228.308 341.9 228.308C343.74 228.308 344.8 228.948 345.38 230.068V223.608H347.68V238.608H345.38ZM339.52 233.588C339.52 235.648 340.52 236.748 342.42 236.748C344.38 236.748 345.38 235.648 345.38 233.588C345.38 231.528 344.38 230.448 342.42 230.448C340.24 230.448 339.52 231.528 339.52 233.588ZM348.888 237.508C348.888 236.568 349.308 236.108 350.288 236.108C351.268 236.108 351.688 236.568 351.688 237.508C351.688 238.428 351.268 238.908 350.288 238.908C349.308 238.908 348.888 238.428 348.888 237.508Z" fill="#FFF9DE"/>
<path d="M50.12 308.501C50.12 309.386 50.024 310.133 49.832 310.741C49.64 311.349 49.352 311.84 48.968 312.213C48.5947 312.576 48.1253 312.832 47.56 312.981C46.9947 313.141 46.3333 313.221 45.576 313.221C44.9147 313.221 44.3227 313.152 43.8 313.013C43.2773 312.874 42.8293 312.65 42.456 312.341C42.0933 312.032 41.8107 311.626 41.608 311.125C41.416 310.613 41.32 309.984 41.32 309.237H43.512C43.512 309.621 43.5707 309.936 43.688 310.181C43.8053 310.426 43.9653 310.618 44.168 310.757C44.3707 310.885 44.6 310.976 44.856 311.029C45.1227 311.072 45.4 311.093 45.688 311.093C46.04 311.093 46.3493 311.05 46.616 310.965C46.8827 310.88 47.1013 310.746 47.272 310.565C47.4533 310.384 47.5867 310.149 47.672 309.861C47.768 309.562 47.816 309.2 47.816 308.773V301.781H50.12V308.501ZM50.9256 308.981C50.9256 307.584 51.2936 306.528 52.0296 305.813C52.7656 305.098 53.9016 304.741 55.4376 304.741C56.9736 304.741 58.1096 305.098 58.8456 305.813C59.5923 306.528 59.9656 307.584 59.9656 308.981C59.9656 310.378 59.5923 311.434 58.8456 312.149C58.1096 312.864 56.9736 313.221 55.4376 313.221C53.9016 313.221 52.7656 312.864 52.0296 312.149C51.2936 311.434 50.9256 310.378 50.9256 308.981ZM53.1976 308.981C53.1976 309.717 53.379 310.272 53.7416 310.645C54.115 311.008 54.6803 311.189 55.4376 311.189C56.2056 311.189 56.771 311.008 57.1336 310.645C57.507 310.272 57.6936 309.717 57.6936 308.981C57.6936 308.245 57.507 307.696 57.1336 307.333C56.771 306.96 56.2056 306.773 55.4376 306.773C54.6376 306.773 54.0616 306.96 53.7096 307.333C53.3683 307.696 53.1976 308.245 53.1976 308.981ZM60.9256 312.981V304.981H63.1176V312.981H60.9256ZM60.6856 302.549C60.6856 302.09 60.787 301.754 60.9896 301.541C61.203 301.328 61.5443 301.221 62.0136 301.221C62.4936 301.221 62.835 301.328 63.0376 301.541C63.251 301.754 63.3576 302.09 63.3576 302.549C63.3576 302.997 63.251 303.333 63.0376 303.557C62.835 303.77 62.4936 303.877 62.0136 303.877C61.5443 303.877 61.203 303.77 60.9896 303.557C60.787 303.333 60.6856 302.997 60.6856 302.549ZM72.6425 312.981H70.4505V308.773C70.4505 308.464 70.4238 308.186 70.3705 307.941C70.3172 307.685 70.2212 307.472 70.0825 307.301C69.9438 307.13 69.7518 307.002 69.5065 306.917C69.2718 306.821 68.9732 306.773 68.6105 306.773C67.9492 306.773 67.4478 306.96 67.1065 307.333C66.7652 307.696 66.5945 308.245 66.5945 308.981V309.189H65.9065V308.981C65.9065 308.352 65.9705 307.781 66.0985 307.269C66.2265 306.746 66.4238 306.298 66.6905 305.925C66.9572 305.552 67.2985 305.264 67.7145 305.061C68.1412 304.848 68.6585 304.741 69.2665 304.741C69.8212 304.741 70.3065 304.81 70.7225 304.949C71.1492 305.077 71.5012 305.29 71.7785 305.589C72.0665 305.888 72.2798 306.282 72.4185 306.773C72.5678 307.253 72.6425 307.85 72.6425 308.565V312.981ZM66.5945 312.981H64.4025V304.981H66.5945V312.981ZM85.8463 312.981H83.6543V308.773C83.6543 308.464 83.6276 308.186 83.5743 307.941C83.5209 307.685 83.4249 307.472 83.2863 307.301C83.1476 307.13 82.9556 307.002 82.7103 306.917C82.4756 306.821 82.1769 306.773 81.8143 306.773C81.1529 306.773 80.6516 306.96 80.3103 307.333C79.9689 307.696 79.7983 308.245 79.7983 308.981V309.189H79.1103V308.981C79.1103 308.352 79.1743 307.781 79.3023 307.269C79.4303 306.746 79.6276 306.298 79.8943 305.925C80.1609 305.552 80.5023 305.264 80.9183 305.061C81.3449 304.848 81.8623 304.741 82.4703 304.741C83.0249 304.741 83.5103 304.81 83.9263 304.949C84.3529 305.077 84.7049 305.29 84.9823 305.589C85.2703 305.888 85.4836 306.282 85.6223 306.773C85.7716 307.253 85.8463 307.85 85.8463 308.565V312.981ZM79.7983 312.981H77.6063V304.981H79.7983V312.981ZM86.6538 308.981C86.6538 307.584 87.0218 306.528 87.7578 305.813C88.4938 305.098 89.6298 304.741 91.1658 304.741C92.7018 304.741 93.8378 305.098 94.5738 305.813C95.3204 306.528 95.6938 307.584 95.6938 308.981C95.6938 310.378 95.3204 311.434 94.5738 312.149C93.8378 312.864 92.7018 313.221 91.1658 313.221C89.6298 313.221 88.4938 312.864 87.7578 312.149C87.0218 311.434 86.6538 310.378 86.6538 308.981ZM88.9258 308.981C88.9258 309.717 89.1071 310.272 89.4698 310.645C89.8431 311.008 90.4084 311.189 91.1658 311.189C91.9338 311.189 92.4991 311.008 92.8618 310.645C93.2351 310.272 93.4218 309.717 93.4218 308.981C93.4218 308.245 93.2351 307.696 92.8618 307.333C92.4991 306.96 91.9338 306.773 91.1658 306.773C90.3658 306.773 89.7898 306.96 89.4378 307.333C89.0964 307.696 88.9258 308.245 88.9258 308.981ZM98.4617 312.981L95.5337 304.981H97.9337L100.878 312.981H98.4617ZM100.878 312.981H98.4617L101.406 304.981H103.806L100.878 312.981ZM104.334 312.981L101.406 304.981H103.806L106.734 312.981H104.334ZM106.734 312.981H104.334L107.262 304.981H109.678L106.734 312.981Z" fill="#FFDD85"/>
<path d="M134.172 304.981L128.808 299.617L130.222 298.203L138 305.981L130.222 313.759L128.808 312.345L134.172 306.981H122V304.981H134.172Z" fill="#FFDD85"/>
<path d="M1143.49 199.723C1130.15 211.199 1113.69 219.092 1096.34 221.922C1069.94 226.229 1041.76 218.771 1020.94 201.967C1019.34 200.671 1017.73 199.305 1016.11 197.929C1007.97 191.013 999.561 183.863 989.666 184.445C980.978 184.957 972.697 191.586 965.055 204.155C964.24 205.496 963.435 206.861 962.626 208.23C957.355 217.151 951.904 226.375 942.65 231.417C924.402 241.353 902.703 229.368 891.392 221.339C888.96 219.612 886.497 217.783 884.117 216.016C876.026 210.009 867.745 203.86 858.746 200.246L738.112 352.691C737.515 353.445 736.452 353.659 735.608 353.185C734.765 352.711 734.392 351.698 734.726 350.79L753.408 300.141C755.128 295.476 757.516 291.089 760.501 287.109L822.137 204.927C821.401 204.278 820.7 203.601 820.039 202.895C814.298 205.61 808.7 209.017 803.279 212.558C781.942 226.502 761.789 242.148 743.028 259.319C745.705 269.886 746.929 280.073 747.457 288.214C748.189 299.482 744.66 310.586 737.518 319.482L651.704 426.394C651.071 427.199 649.913 427.365 649.064 426.787C637.552 418.938 621.704 421.297 612.983 432.167C612.345 432.967 611.191 433.139 610.343 432.56L524.574 374.071C524.117 373.761 523.813 373.27 523.736 372.722C523.658 372.175 523.815 371.622 524.167 371.193C528.971 365.385 531.119 357.773 530.063 350.31C529.006 342.846 524.827 336.129 518.6 331.883C518.144 331.573 517.838 331.083 517.761 330.536C517.683 329.988 517.841 329.434 518.192 329.007L700.932 108.019C701.606 107.199 702.81 107.067 703.65 107.717C715.182 116.641 731.496 114.833 740.79 103.59C741.471 102.77 742.669 102.639 743.508 103.288L820.616 162.957C821.464 163.614 821.63 164.831 820.986 165.691C813.666 175.451 814.051 188.768 821.12 198.091C829.269 194.579 837.756 192.498 846.561 193.244C850.339 193.563 853.953 194.379 857.439 195.563L872.254 176.84C873.459 175.317 873.994 173.417 873.756 171.49C873.519 169.563 872.542 167.848 871.004 166.661L724.405 53.6229C721.28 51.2151 716.886 51.7402 714.405 54.793L671.722 107.465L671.849 107.52C672.417 107.761 672.836 108.256 672.985 108.853C673.133 109.451 672.992 110.085 672.605 110.563L555.879 254.822L466.798 353.965C465.418 355.502 464.763 357.56 465.001 359.612C465.238 361.663 466.347 363.518 468.041 364.697L628.075 476.125C631.162 478.274 635.315 477.719 637.72 474.836L732.388 356.068C732.977 355.327 734.024 355.111 734.861 355.564C735.698 356.019 736.091 357.008 735.79 357.912L674.35 542.797C672.425 548.616 666.119 551.793 660.292 549.872L473.642 488.365C470.756 487.414 468.437 485.385 467.109 482.652C465.782 479.92 465.623 476.841 466.659 473.984L488.994 412.48C492.17 403.739 487.89 394.24 479.252 390.854C464.486 385.065 437.299 375.991 421.128 380.272C410.891 382.983 401.112 387.778 391.652 392.416C387.397 394.502 382.998 396.659 378.589 398.613C360.315 406.715 345.084 409.057 332.03 405.774C318.007 402.245 307.059 392.515 296.472 383.105C290.852 378.109 285.039 372.943 278.86 368.801C258.132 354.902 228.986 350.277 196.791 355.775C176.463 359.248 156.511 366.086 137.22 372.699C129.661 375.291 121.847 377.97 114.1 380.417C96.5505 385.954 68.5491 393.012 28.1721 390.33C27.0877 390.258 26.2689 389.322 26.3417 388.237C26.4121 387.153 27.3502 386.336 28.4324 386.407C68.1487 389.044 95.6683 382.11 112.916 376.664C120.616 374.232 128.408 371.56 135.945 368.977C155.384 362.312 175.486 355.42 196.129 351.897C229.322 346.228 259.482 351.07 281.049 365.532C287.449 369.823 293.365 375.08 299.082 380.163C309.786 389.678 319.899 398.665 332.988 401.957C345.16 405.02 359.554 402.748 376.997 395.017C381.337 393.092 385.701 390.954 389.921 388.884C399.552 384.163 409.509 379.28 420.121 376.469C436.511 372.13 462.104 379.905 480.687 387.19C491.324 391.361 496.596 403.057 492.688 413.818L470.353 475.322C469.682 477.17 469.785 479.163 470.644 480.932C471.502 482.7 473.005 484.014 474.872 484.628L661.522 546.136C665.292 547.376 669.374 545.323 670.618 541.557L728.575 367.154L640.763 477.319C637.004 481.818 630.597 482.668 625.829 479.347L465.795 367.92C463.176 366.095 461.462 363.23 461.096 360.059C460.729 356.889 461.742 353.709 463.875 351.334L536.937 270.025C536.518 269.509 536.376 268.798 536.606 268.139L598.803 89.2865C599.812 86.3832 602.005 84.0039 604.816 82.7597C607.628 81.5167 610.864 81.4922 613.693 82.6993L667.963 105.856L711.352 52.314C715.194 47.5711 721.98 46.7836 726.806 50.5055L873.406 163.544C875.784 165.376 877.293 168.027 877.658 171.007C878.023 173.985 877.2 176.922 875.337 179.275L861.287 197.031C870.282 200.851 878.459 206.922 886.457 212.861C888.822 214.616 891.267 216.432 893.667 218.134C904.231 225.631 924.396 236.877 940.768 227.964C949.074 223.444 954.242 214.693 959.241 206.23C960.059 204.845 960.873 203.468 961.698 202.112C970.047 188.377 979.38 181.111 989.438 180.519C1000.9 179.843 1009.93 187.515 1018.66 194.933C1020.25 196.288 1021.83 197.633 1023.42 198.908C1043.37 215.018 1070.4 222.171 1095.71 218.041C1121.03 213.91 1144.38 198.538 1158.18 176.915C1158.76 176.008 1159.98 175.732 1160.89 176.316C1161.81 176.9 1162.07 178.115 1161.49 179.03C1156.56 186.766 1150.45 193.733 1143.49 199.723ZM734.744 294.123C735.76 294.17 736.672 294.729 737.182 295.619C737.694 296.508 737.718 297.578 737.247 298.482C722.812 326.134 691.03 343.036 659.961 339.583C631.89 336.463 611.433 318.275 603.834 289.682C595.952 260.019 603.115 232.877 623.488 215.211C623.551 215.157 623.618 215.1 623.68 215.046C644.584 197.054 675.09 192.671 701.486 203.888C724.282 213.576 735.951 234.598 741.873 255.055C760.367 238.274 780.18 222.96 801.132 209.266C806.41 205.816 811.861 202.492 817.476 199.762C810.24 189.624 809.676 175.677 816.731 164.917L742.566 107.526C732.181 118.65 715.366 120.525 702.789 111.946L522.551 329.907C528.731 334.791 532.848 341.914 533.957 349.757C535.067 357.601 533.091 365.588 528.509 371.994L611.102 428.316C611.955 427.375 612.858 426.495 613.802 425.683C623.71 417.155 638.314 415.722 649.745 422.555L734.453 317.02C740.978 308.892 744.203 298.75 743.536 288.468C743.055 281.068 741.987 271.913 739.731 262.366M823.886 201.193C824.563 201.843 825.281 202.463 826.039 203.049C826.888 203.707 827.054 204.924 826.408 205.782L763.648 289.464C760.891 293.14 758.688 297.191 757.099 301.498L742.684 340.577L854.833 198.854C852.043 197.997 849.182 197.407 846.234 197.158C838.608 196.514 831.138 198.219 823.886 201.193ZM604.604 87.4921C603.659 88.3054 602.939 89.3593 602.515 90.5789L544.01 258.818L665.389 109.033L612.151 86.3166C610.293 85.5254 608.253 85.5378 606.406 86.3553C605.742 86.6489 605.137 87.0332 604.604 87.4921Z" fill="#FFF3C1"/>
</g>
<rect x="0.75" y="0.730835" width="606.5" height="482.5" stroke="#F9EAAA" stroke-width="0.5"/>
<defs>
<radialGradient id="paint0_radial_618_5454" cx="0" cy="0" r="1" gradientUnits="userSpaceOnUse" gradientTransform="translate(304 26.8215) rotate(90) scale(456.159 573.512)">
<stop stop-color="#111111" stop-opacity="0"/>
<stop offset="0.525" stop-color="#1F1B0D" stop-opacity="0.64"/>
<stop offset="0.95" stop-color="#29220E"/>
</radialGradient>
<clipPath id="clip0_618_5454">
<rect x="1" y="0.980835" width="606" height="482" fill="white"/>
</clipPath>
</defs>
</svg>
