<svg width="608" height="484" viewBox="0 0 608 484" fill="none" xmlns="http://www.w3.org/2000/svg">
<g clip-path="url(#clip0_618_5405)">
<rect x="1" y="0.980835" width="606" height="482" fill="url(#paint0_radial_618_5405)"/>
<ellipse cx="0.400895" cy="0.489815" rx="0.400895" ry="0.489815" transform="matrix(0.998524 -0.054307 -0.054307 -0.998524 561.712 397.83)" fill="#FFE8AB"/>
<ellipse cx="0.400895" cy="0.489815" rx="0.400895" ry="0.489815" transform="matrix(0.998524 -0.054307 -0.054307 -0.998524 577.009 436.948)" fill="#FFE8AB"/>
<ellipse cx="0.400895" cy="0.489815" rx="0.400895" ry="0.489815" transform="matrix(0.998524 -0.054307 -0.054307 -0.998524 518.85 352.676)" fill="#FFE8AB"/>
<ellipse cx="0.400895" cy="0.489815" rx="0.400895" ry="0.489815" transform="matrix(0.998524 -0.054307 -0.054307 -0.998524 543.576 436.412)" fill="#FFE8AB"/>
<ellipse cx="0.400895" cy="0.489815" rx="0.400895" ry="0.489815" transform="matrix(0.998524 -0.054307 -0.054307 -0.998524 507.651 382.993)" fill="#FFE8AB"/>
<ellipse cx="0.400895" cy="0.489815" rx="0.400895" ry="0.489815" transform="matrix(0.998524 -0.054307 -0.054307 -0.998524 603.25 272.306)" fill="#FFE8AB"/>
<ellipse cx="0.400895" cy="0.489815" rx="0.400895" ry="0.489815" transform="matrix(0.998524 -0.054307 -0.054307 -0.998524 508.288 173.239)" fill="#FFE8AB"/>
<ellipse cx="0.400895" cy="0.489815" rx="0.400895" ry="0.489815" transform="matrix(0.998524 -0.054307 -0.054307 -0.998524 595.571 145.888)" fill="#FFE8AB"/>
<ellipse cx="0.400895" cy="0.489815" rx="0.400895" ry="0.489815" transform="matrix(0.998524 -0.054307 -0.054307 -0.998524 483.396 362.244)" fill="#FFE8AB"/>
<ellipse cx="0.400895" cy="0.489815" rx="0.400895" ry="0.489815" transform="matrix(0.998524 -0.054307 -0.054307 -0.998524 503.065 452.77)" fill="#FFE8AB"/>
<ellipse cx="0.400895" cy="0.489815" rx="0.400895" ry="0.489815" transform="matrix(0.998524 -0.054307 -0.054307 -0.998524 589.838 377.542)" fill="#FFE8AB"/>
<ellipse cx="0.400895" cy="0.489815" rx="0.400895" ry="0.489815" transform="matrix(0.998524 -0.054307 -0.054307 -0.998524 575.53 353.047)" fill="#FFE8AB"/>
<ellipse cx="0.400895" cy="0.489815" rx="0.400895" ry="0.489815" transform="matrix(-0.998524 0.054307 0.054307 0.998524 54.4766 386.043)" fill="#FFE8AB"/>
<ellipse cx="0.400895" cy="0.489815" rx="0.400895" ry="0.489815" transform="matrix(-0.998524 0.054307 0.054307 0.998524 39.1802 346.925)" fill="#FFE8AB"/>
<ellipse cx="0.400895" cy="0.489815" rx="0.400895" ry="0.489815" transform="matrix(-0.998524 0.054307 0.054307 0.998524 97.3389 431.197)" fill="#FFE8AB"/>
<ellipse cx="0.400895" cy="0.489815" rx="0.400895" ry="0.489815" transform="matrix(-0.998524 0.054307 0.054307 0.998524 72.6138 347.461)" fill="#FFE8AB"/>
<ellipse cx="0.400895" cy="0.489815" rx="0.400895" ry="0.489815" transform="matrix(-0.998524 0.054307 0.054307 0.998524 108.538 400.88)" fill="#FFE8AB"/>
<ellipse cx="0.400895" cy="0.489815" rx="0.400895" ry="0.489815" transform="matrix(-0.998524 0.054307 0.054307 0.998524 132.792 421.629)" fill="#FFE8AB"/>
<ellipse cx="0.400895" cy="0.489815" rx="0.400895" ry="0.489815" transform="matrix(-0.998524 0.054307 0.054307 0.998524 113.124 331.103)" fill="#FFE8AB"/>
<ellipse cx="0.400895" cy="0.489815" rx="0.400895" ry="0.489815" transform="matrix(-0.998524 0.054307 0.054307 0.998524 26.3511 406.331)" fill="#FFE8AB"/>
<ellipse cx="0.400895" cy="0.489815" rx="0.400895" ry="0.489815" transform="matrix(-0.998524 0.054307 0.054307 0.998524 40.6597 430.826)" fill="#FFE8AB"/>
<path d="M53.928 124.088C49.8533 124.088 46.8347 123.139 44.872 121.24C42.9307 119.32 41.96 116.376 41.96 112.408C41.96 108.44 42.8667 105.507 44.68 103.608C46.5147 101.688 49.3307 100.728 53.128 100.728C54.8773 100.728 56.424 100.878 57.768 101.176C59.112 101.475 60.2427 101.955 61.16 102.616C62.0987 103.278 62.8027 104.131 63.272 105.176C63.7627 106.222 64.008 107.491 64.008 108.984H59.624C59.624 108.152 59.432 107.48 59.048 106.968C58.664 106.435 58.1627 106.03 57.544 105.752C56.9253 105.454 56.2213 105.251 55.432 105.144C54.6427 105.038 53.8533 104.984 53.064 104.984C51.912 104.984 50.9307 105.134 50.12 105.432C49.3093 105.71 48.648 106.147 48.136 106.744C47.6453 107.342 47.2827 108.11 47.048 109.048C46.8133 109.966 46.696 111.075 46.696 112.376C46.696 114.979 47.2933 116.878 48.488 118.072C49.6827 119.246 51.5173 119.832 53.992 119.832C54.6747 119.832 55.3573 119.79 56.04 119.704C56.744 119.619 57.3627 119.448 57.896 119.192C58.4507 118.936 58.8987 118.563 59.24 118.072C59.5813 117.582 59.752 116.931 59.752 116.12H64.136C64.136 117.614 63.8907 118.872 63.4 119.896C62.9307 120.899 62.248 121.71 61.352 122.328C60.456 122.947 59.3787 123.395 58.12 123.672C56.8613 123.95 55.464 124.088 53.928 124.088ZM70.1253 123.608H65.7413V107.608H70.1253V123.608ZM80.6213 114.072H76.6853C76.6853 113.646 76.6213 113.262 76.4933 112.92C76.3653 112.558 76.1733 112.248 75.9173 111.992C75.6613 111.736 75.3413 111.544 74.9573 111.416C74.5733 111.267 74.1466 111.192 73.6773 111.192C72.5466 111.192 71.6719 111.566 71.0533 112.312C70.4346 113.038 70.1253 114.136 70.1253 115.608V116.024H68.7493V115.608C68.7493 114.35 68.8773 113.208 69.1333 112.184C69.4106 111.139 69.7946 110.243 70.2853 109.496C70.7973 108.75 71.4159 108.174 72.1413 107.768C72.8879 107.342 73.7413 107.128 74.7013 107.128C75.6399 107.128 76.4719 107.267 77.1973 107.544C77.9439 107.822 78.5626 108.248 79.0533 108.824C79.5653 109.379 79.9493 110.094 80.2053 110.968C80.4826 111.843 80.6213 112.878 80.6213 114.072ZM97.6378 116.248V116.888H93.4138V114.808C93.4138 114.104 93.3178 113.496 93.1258 112.984C92.9338 112.472 92.6564 112.056 92.2938 111.736C91.9524 111.395 91.5364 111.15 91.0458 111C90.5551 110.83 90.0004 110.744 89.3818 110.744C88.8058 110.744 88.2618 110.851 87.7498 111.064C87.2591 111.256 86.8324 111.555 86.4698 111.96C86.1071 112.366 85.8191 112.878 85.6058 113.496C85.4138 114.094 85.3178 114.798 85.3178 115.608C85.3178 116.526 85.4138 117.294 85.6058 117.912C85.7978 118.531 86.0858 119.032 86.4698 119.416C86.8538 119.779 87.3231 120.046 87.8778 120.216C88.4324 120.387 89.0618 120.472 89.7658 120.472C90.2991 120.472 90.7898 120.408 91.2378 120.28C91.7071 120.152 92.1018 119.992 92.4218 119.8C92.7631 119.587 93.0191 119.342 93.1898 119.064C93.3818 118.766 93.4778 118.467 93.4778 118.168H97.4458C97.4458 119.939 96.7844 121.368 95.4618 122.456C94.1604 123.544 92.2511 124.088 89.7338 124.088C86.7044 124.088 84.4538 123.374 82.9818 121.944C81.5098 120.515 80.7738 118.403 80.7738 115.608C80.7738 112.878 81.4884 110.787 82.9178 109.336C84.3684 107.864 86.4484 107.128 89.1578 107.128C92.1871 107.128 94.3524 107.886 95.6538 109.4C96.9764 110.915 97.6378 113.198 97.6378 116.248ZM82.6938 116.888V113.784H96.1658V116.888H82.6938ZM111.011 118.008H111.459C111.459 118.84 111.406 119.63 111.299 120.376C111.192 121.102 110.947 121.742 110.563 122.296C110.179 122.851 109.582 123.288 108.771 123.608C107.982 123.928 106.894 124.088 105.507 124.088C104.547 124.088 103.64 124.014 102.787 123.864C101.955 123.715 101.219 123.448 100.579 123.064C99.9603 122.68 99.4697 122.158 99.107 121.496C98.7657 120.835 98.595 120.003 98.595 119C98.595 118.168 98.7443 117.464 99.043 116.888C99.363 116.312 99.811 115.832 100.387 115.448C100.963 115.064 101.667 114.766 102.499 114.552C103.331 114.318 104.27 114.147 105.315 114.04L112.323 113.4L112.643 116.408L106.147 117.048C105.699 117.091 105.283 117.155 104.899 117.24C104.536 117.326 104.227 117.443 103.971 117.592C103.715 117.72 103.512 117.902 103.363 118.136C103.214 118.35 103.139 118.616 103.139 118.936C103.139 119.171 103.192 119.384 103.299 119.576C103.427 119.768 103.619 119.939 103.875 120.088C104.131 120.216 104.451 120.312 104.835 120.376C105.219 120.44 105.678 120.472 106.211 120.472C107.043 120.472 107.758 120.398 108.355 120.248C108.974 120.078 109.475 119.875 109.859 119.64C110.243 119.406 110.531 119.15 110.723 118.872C110.915 118.574 111.011 118.286 111.011 118.008ZM111.011 113.464C111.011 112.846 110.883 112.366 110.627 112.024C110.371 111.662 110.051 111.384 109.667 111.192C109.283 111 108.867 110.883 108.419 110.84C107.971 110.776 107.544 110.744 107.139 110.744C106.755 110.744 106.339 110.766 105.891 110.808C105.464 110.851 105.059 110.958 104.675 111.128C104.312 111.278 104.014 111.512 103.779 111.832C103.544 112.152 103.427 112.59 103.427 113.144H99.491C99.491 112.035 99.6617 111.107 100.003 110.36C100.366 109.592 100.878 108.974 101.539 108.504C102.222 108.014 103.043 107.662 104.003 107.448C104.963 107.235 106.03 107.128 107.203 107.128C108.59 107.128 109.784 107.235 110.787 107.448C111.811 107.662 112.664 108.035 113.347 108.568C114.03 109.102 114.531 109.827 114.851 110.744C115.192 111.662 115.363 112.803 115.363 114.168V123.608H111.011V113.464ZM120.163 117.784V107.608L121.859 101.208H124.515V117.336C124.515 117.699 124.536 118.051 124.579 118.392C124.643 118.734 124.739 119.022 124.867 119.256C125.016 119.491 125.219 119.683 125.475 119.832C125.731 119.96 126.061 120.024 126.467 120.024C126.787 120.024 127.075 119.992 127.331 119.928C127.587 119.843 127.811 119.704 128.003 119.512C128.195 119.32 128.344 119.064 128.451 118.744C128.557 118.403 128.611 117.998 128.611 117.528H132.547C132.547 118.766 132.408 119.811 132.131 120.664C131.853 121.496 131.437 122.168 130.883 122.68C130.349 123.192 129.699 123.555 128.931 123.768C128.163 123.982 127.277 124.088 126.275 124.088C125.272 124.088 124.376 123.96 123.587 123.704C122.819 123.47 122.179 123.096 121.667 122.584C121.176 122.051 120.803 121.39 120.547 120.6C120.291 119.811 120.163 118.872 120.163 117.784ZM116.643 107.608H132.323V111.544H116.643V107.608ZM134.119 123.608V107.608H138.503V123.608H134.119ZM133.639 102.744C133.639 101.827 133.841 101.155 134.247 100.728C134.673 100.302 135.356 100.088 136.295 100.088C137.255 100.088 137.937 100.302 138.343 100.728C138.769 101.155 138.983 101.827 138.983 102.744C138.983 103.64 138.769 104.312 138.343 104.76C137.937 105.187 137.255 105.4 136.295 105.4C135.356 105.4 134.673 105.187 134.247 104.76C133.841 104.312 133.639 103.64 133.639 102.744ZM145.649 123.608L138.833 107.608H143.633L150.481 123.608H145.649ZM150.481 123.608H145.649L152.497 107.608H157.297L150.481 123.608ZM173.844 116.248V116.888H169.62V114.808C169.62 114.104 169.524 113.496 169.332 112.984C169.14 112.472 168.863 112.056 168.5 111.736C168.159 111.395 167.743 111.15 167.252 111C166.761 110.83 166.207 110.744 165.588 110.744C165.012 110.744 164.468 110.851 163.956 111.064C163.465 111.256 163.039 111.555 162.676 111.96C162.313 112.366 162.025 112.878 161.812 113.496C161.62 114.094 161.524 114.798 161.524 115.608C161.524 116.526 161.62 117.294 161.812 117.912C162.004 118.531 162.292 119.032 162.676 119.416C163.06 119.779 163.529 120.046 164.084 120.216C164.639 120.387 165.268 120.472 165.972 120.472C166.505 120.472 166.996 120.408 167.444 120.28C167.913 120.152 168.308 119.992 168.628 119.8C168.969 119.587 169.225 119.342 169.396 119.064C169.588 118.766 169.684 118.467 169.684 118.168H173.652C173.652 119.939 172.991 121.368 171.668 122.456C170.367 123.544 168.457 124.088 165.94 124.088C162.911 124.088 160.66 123.374 159.188 121.944C157.716 120.515 156.98 118.403 156.98 115.608C156.98 112.878 157.695 110.787 159.124 109.336C160.575 107.864 162.655 107.128 165.364 107.128C168.393 107.128 170.559 107.886 171.86 109.4C173.183 110.915 173.844 113.198 173.844 116.248ZM158.9 116.888V113.784H172.372V116.888H158.9ZM183.434 123.608V101.208H188.01V123.608H183.434ZM184.778 104.248L188.01 101.208L198.026 119.992V123.608H195.082L184.778 104.248ZM209.642 123.608H205.066V101.208H209.642V123.608ZM208.298 104.248L198.026 123.608H195.082V119.992L205.066 101.208L208.298 104.248ZM212.2 123.608V107.608H216.584V123.608H212.2ZM211.72 102.744C211.72 101.827 211.923 101.155 212.328 100.728C212.755 100.302 213.437 100.088 214.376 100.088C215.336 100.088 216.019 100.302 216.424 100.728C216.851 101.155 217.064 101.827 217.064 102.744C217.064 103.64 216.851 104.312 216.424 104.76C216.019 105.187 215.336 105.4 214.376 105.4C213.437 105.4 212.755 105.187 212.328 104.76C211.923 104.312 211.72 103.64 211.72 102.744ZM235.634 123.608H231.25V115.192C231.25 114.574 231.196 114.019 231.09 113.528C230.983 113.016 230.791 112.59 230.514 112.248C230.236 111.907 229.852 111.651 229.362 111.48C228.892 111.288 228.295 111.192 227.57 111.192C226.247 111.192 225.244 111.566 224.562 112.312C223.879 113.038 223.538 114.136 223.538 115.608V116.024H222.162V115.608C222.162 114.35 222.29 113.208 222.546 112.184C222.802 111.139 223.196 110.243 223.73 109.496C224.263 108.75 224.946 108.174 225.778 107.768C226.631 107.342 227.666 107.128 228.882 107.128C229.991 107.128 230.962 107.267 231.794 107.544C232.647 107.8 233.351 108.227 233.906 108.824C234.482 109.422 234.908 110.211 235.186 111.192C235.484 112.152 235.634 113.347 235.634 114.776V123.608ZM223.538 123.608H219.154V107.608H223.538V123.608ZM249.985 123.608V99.6085H254.369V123.608H249.985ZM237.249 115.608C237.249 112.814 237.921 110.702 239.265 109.272C240.609 107.843 242.443 107.128 244.769 107.128C246.027 107.128 247.051 107.331 247.841 107.736C248.651 108.142 249.291 108.718 249.761 109.464C250.23 110.19 250.55 111.075 250.721 112.12C250.891 113.166 250.977 114.328 250.977 115.608C250.977 116.76 250.891 117.848 250.721 118.872C250.571 119.896 250.273 120.792 249.825 121.56C249.377 122.328 248.758 122.947 247.969 123.416C247.179 123.864 246.155 124.088 244.897 124.088C243.809 124.088 242.795 123.907 241.857 123.544C240.918 123.182 240.107 122.648 239.425 121.944C238.742 121.219 238.209 120.334 237.825 119.288C237.441 118.222 237.249 116.995 237.249 115.608ZM241.793 115.608C241.793 117.059 242.134 118.158 242.817 118.904C243.499 119.651 244.513 120.024 245.857 120.024C247.243 120.024 248.278 119.651 248.961 118.904C249.643 118.158 249.985 117.059 249.985 115.608C249.985 114.136 249.643 113.038 248.961 112.312C248.278 111.566 247.243 111.192 245.857 111.192C245.089 111.192 244.438 111.288 243.905 111.48C243.393 111.651 242.977 111.928 242.657 112.312C242.337 112.675 242.113 113.134 241.985 113.688C241.857 114.222 241.793 114.862 241.793 115.608ZM256.328 112.152C256.328 111.256 256.478 110.499 256.776 109.88C257.075 109.24 257.534 108.718 258.152 108.312C258.792 107.907 259.582 107.608 260.52 107.416C261.48 107.224 262.611 107.128 263.912 107.128C266.75 107.128 268.819 107.598 270.12 108.536C271.422 109.454 272.072 110.958 272.072 113.048H268.104C268.104 112.6 267.998 112.238 267.784 111.96C267.592 111.662 267.283 111.427 266.856 111.256C266.451 111.064 265.928 110.936 265.288 110.872C264.648 110.787 263.912 110.744 263.08 110.744C262.44 110.744 261.918 110.787 261.512 110.872C261.107 110.936 260.798 111.032 260.584 111.16C260.371 111.288 260.222 111.427 260.136 111.576C260.051 111.726 260.008 111.886 260.008 112.056C260.008 112.248 260.094 112.419 260.264 112.568C260.456 112.718 260.734 112.867 261.096 113.016C261.48 113.166 261.96 113.304 262.536 113.432C263.112 113.56 263.806 113.688 264.616 113.816C265.726 113.987 266.75 114.168 267.688 114.36C268.627 114.531 269.438 114.798 270.12 115.16C270.803 115.502 271.326 115.971 271.688 116.568C272.072 117.166 272.264 117.976 272.264 119C272.264 120.835 271.624 122.147 270.344 122.936C269.086 123.704 267.23 124.088 264.776 124.088C261.832 124.088 259.678 123.63 258.312 122.712C256.968 121.774 256.296 120.259 256.296 118.168H260.232C260.232 118.595 260.35 118.958 260.584 119.256C260.84 119.555 261.192 119.79 261.64 119.96C262.088 120.131 262.632 120.259 263.272 120.344C263.912 120.43 264.627 120.472 265.416 120.472C265.992 120.472 266.472 120.44 266.856 120.376C267.262 120.312 267.592 120.216 267.848 120.088C268.104 119.96 268.286 119.822 268.392 119.672C268.52 119.502 268.584 119.32 268.584 119.128C268.584 118.851 268.488 118.627 268.296 118.456C268.104 118.286 267.806 118.147 267.4 118.04C266.995 117.934 266.494 117.848 265.896 117.784C265.299 117.699 264.616 117.592 263.848 117.464C262.974 117.358 262.088 117.208 261.192 117.016C260.296 116.824 259.486 116.536 258.76 116.152C258.035 115.768 257.448 115.256 257 114.616C256.552 113.976 256.328 113.155 256.328 112.152Z" fill="#CFC098"/>
<path d="M42 178.608V164.608H52.9V166.808H44.4V170.508H52.1V172.708H44.4V178.608H42ZM52.8992 173.608C52.8992 170.128 54.7192 168.308 58.4992 168.308C62.2792 168.308 64.0992 170.128 64.0992 173.608C64.0992 177.088 62.2792 178.908 58.4992 178.908C54.7192 178.908 52.8992 177.088 52.8992 173.608ZM55.2992 173.608C55.2992 175.668 56.3392 176.748 58.4992 176.748C60.6592 176.748 61.6992 175.668 61.6992 173.608C61.6992 171.528 60.6592 170.448 58.4992 170.448C56.2592 170.448 55.2992 171.528 55.2992 173.608ZM67.6016 178.608H65.3016V168.608H67.6016V169.988C68.2216 168.928 69.2416 168.308 70.6216 168.308C73.0416 168.308 74.3416 169.728 74.3416 172.648H72.2416C72.2416 171.348 71.6016 170.448 70.1216 170.448C68.5416 170.448 67.6016 171.528 67.6016 173.588V178.608ZM88.0061 178.608V177.088C87.4261 178.188 86.4061 178.908 84.6061 178.908C81.8261 178.908 79.7461 177.088 79.7461 173.608C79.7461 170.128 81.5261 168.308 84.5261 168.308C86.3661 168.308 87.4261 168.948 88.0061 170.068V163.608H90.3061V178.608H88.0061ZM82.1461 173.588C82.1461 175.648 83.1461 176.748 85.0461 176.748C87.0061 176.748 88.0061 175.648 88.0061 173.588C88.0061 171.528 87.0061 170.448 85.0461 170.448C82.8661 170.448 82.1461 171.528 82.1461 173.588ZM102.014 173.888V174.288H93.9541C94.1541 176.268 95.2941 176.948 97.1141 176.948C98.6741 176.948 99.7941 176.148 99.7941 175.188L101.894 175.208C101.894 177.408 100.214 178.908 97.1141 178.908C93.3541 178.908 91.5141 177.068 91.5141 173.588C91.5141 170.188 93.3741 168.308 96.7541 168.308C100.514 168.308 102.014 170.208 102.014 173.888ZM94.0141 172.588H99.7341C99.5141 170.948 98.4141 170.248 96.8541 170.248C95.4541 170.248 94.3341 171.048 94.0141 172.588ZM102.853 171.308C102.853 169.188 104.433 168.308 107.513 168.308C110.993 168.308 112.553 169.408 112.553 172.008H110.453C110.453 170.648 109.293 170.248 107.113 170.248C105.213 170.248 104.853 170.768 104.853 171.268C104.853 171.828 105.693 172.228 107.933 172.628C110.773 173.128 112.673 173.428 112.673 175.848C112.673 178.048 111.073 178.908 108.053 178.908C104.433 178.908 102.813 177.808 102.813 175.208H104.913C104.913 176.508 106.293 176.948 108.353 176.948C110.033 176.948 110.673 176.528 110.673 175.908C110.673 175.008 109.553 174.968 107.453 174.608C105.273 174.268 102.853 173.688 102.853 171.308ZM113.528 165.568C113.528 164.548 113.968 164.068 115.028 164.068C116.068 164.068 116.528 164.548 116.528 165.568C116.528 166.568 116.068 167.068 115.028 167.068C113.968 167.068 113.528 166.568 113.528 165.568ZM113.868 178.608V168.608H116.168V178.608H113.868ZM127.765 166.148V167.968C127.125 167.588 126.285 167.408 125.565 167.408C124.965 167.408 124.145 167.648 123.885 168.388C126.245 168.688 127.425 169.848 127.425 171.808C127.425 174.128 125.885 175.308 122.585 175.308C120.245 175.308 119.365 175.328 119.365 175.888C119.365 176.368 120.205 176.508 122.805 176.768C125.745 177.088 127.945 177.128 127.945 179.788C127.945 181.868 126.265 182.808 122.925 182.808C118.985 182.808 117.365 181.708 117.365 179.108H119.465C119.465 180.428 120.705 180.868 122.985 180.868C124.825 180.868 125.985 180.628 125.985 179.768C125.985 178.768 124.785 179.028 122.485 178.768C120.145 178.508 117.405 178.368 117.405 176.108C117.405 175.168 117.905 174.628 118.685 174.308C117.945 173.728 117.565 172.888 117.565 171.808C117.565 168.668 120.465 168.308 122.945 168.308C123.125 166.848 124.065 165.708 125.665 165.708C126.465 165.708 127.205 165.928 127.765 166.148ZM119.965 171.788C119.965 172.888 120.965 173.348 122.565 173.348C124.225 173.348 125.025 172.888 125.025 171.788C125.025 170.708 124.125 170.248 122.465 170.248C120.585 170.248 119.965 170.708 119.965 171.788ZM138.931 178.608H136.631V173.228C136.631 171.528 136.111 170.448 133.971 170.448C132.071 170.448 131.071 171.528 131.071 173.588V178.608H128.771V168.608H131.071V170.008C131.731 168.928 132.871 168.308 134.611 168.308C137.511 168.308 138.931 169.628 138.931 173.028V178.608ZM150.424 173.888V174.288H142.364C142.564 176.268 143.704 176.948 145.524 176.948C147.084 176.948 148.204 176.148 148.204 175.188L150.304 175.208C150.304 177.408 148.624 178.908 145.524 178.908C141.764 178.908 139.924 177.068 139.924 173.588C139.924 170.188 141.784 168.308 145.164 168.308C148.924 168.308 150.424 170.208 150.424 173.888ZM142.424 172.588H148.144C147.924 170.948 146.824 170.248 145.264 170.248C143.864 170.248 142.744 171.048 142.424 172.588ZM153.923 178.608H151.623V168.608H153.923V169.988C154.543 168.928 155.563 168.308 156.943 168.308C159.363 168.308 160.663 169.728 160.663 172.648H158.563C158.563 171.348 157.923 170.448 156.443 170.448C154.863 170.448 153.923 171.528 153.923 173.588V178.608ZM161.313 171.308C161.313 169.188 162.893 168.308 165.973 168.308C169.453 168.308 171.013 169.408 171.013 172.008H168.913C168.913 170.648 167.753 170.248 165.573 170.248C163.673 170.248 163.313 170.768 163.313 171.268C163.313 171.828 164.153 172.228 166.393 172.628C169.233 173.128 171.133 173.428 171.133 175.848C171.133 178.048 169.533 178.908 166.513 178.908C162.893 178.908 161.273 177.808 161.273 175.208H163.373C163.373 176.508 164.753 176.948 166.813 176.948C168.493 176.948 169.133 176.528 169.133 175.908C169.133 175.008 168.013 174.968 165.913 174.608C163.733 174.268 161.313 173.688 161.313 171.308ZM172.087 177.508C172.087 176.568 172.507 176.108 173.487 176.108C174.467 176.108 174.887 176.568 174.887 177.508C174.887 179.148 174.187 181.008 172.347 181.728L172.047 181.268C173.027 180.388 173.347 179.668 173.467 178.908C172.527 178.888 172.087 178.468 172.087 177.508ZM183.183 178.608L179.483 168.608H182.023L184.443 175.188L186.883 168.608H189.423L191.843 175.188L194.283 168.608H196.823L193.123 178.608H190.583L188.143 172.028L185.723 178.608H183.183ZM199.326 178.608H197.026V168.608H199.326V169.988C199.946 168.928 200.966 168.308 202.346 168.308C204.766 168.308 206.066 169.728 206.066 172.648H203.966C203.966 171.348 203.326 170.448 201.846 170.448C200.266 170.448 199.326 171.528 199.326 173.588V178.608ZM206.735 165.568C206.735 164.548 207.175 164.068 208.235 164.068C209.275 164.068 209.735 164.548 209.735 165.568C209.735 166.568 209.275 167.068 208.235 167.068C207.175 167.068 206.735 166.568 206.735 165.568ZM207.075 178.608V168.608H209.375V178.608H207.075ZM212.772 175.048V170.708H210.372V168.608H212.772L213.572 164.608H215.072L215.052 168.608H220.072V170.708H215.072V174.748C215.072 175.788 215.252 176.748 216.472 176.748C217.372 176.748 218.052 176.308 218.052 174.808H220.152C220.152 177.908 218.732 178.908 216.392 178.908C214.032 178.908 212.772 177.788 212.772 175.048ZM231.316 173.888V174.288H223.256C223.456 176.268 224.596 176.948 226.416 176.948C227.976 176.948 229.096 176.148 229.096 175.188L231.196 175.208C231.196 177.408 229.516 178.908 226.416 178.908C222.656 178.908 220.816 177.068 220.816 173.588C220.816 170.188 222.676 168.308 226.056 168.308C229.816 168.308 231.316 170.208 231.316 173.888ZM223.316 172.588H229.036C228.816 170.948 227.716 170.248 226.156 170.248C224.756 170.248 223.636 171.048 223.316 172.588ZM234.816 178.608H232.516V168.608H234.816V169.988C235.436 168.928 236.456 168.308 237.836 168.308C240.256 168.308 241.556 169.728 241.556 172.648H239.456C239.456 171.348 238.816 170.448 237.336 170.448C235.756 170.448 234.816 171.528 234.816 173.588V178.608ZM242.205 171.308C242.205 169.188 243.785 168.308 246.865 168.308C250.345 168.308 251.905 169.408 251.905 172.008H249.805C249.805 170.648 248.645 170.248 246.465 170.248C244.565 170.248 244.205 170.768 244.205 171.268C244.205 171.828 245.045 172.228 247.285 172.628C250.125 173.128 252.025 173.428 252.025 175.848C252.025 178.048 250.425 178.908 247.405 178.908C243.785 178.908 242.165 177.808 242.165 175.208H244.265C244.265 176.508 245.645 176.948 247.705 176.948C249.385 176.948 250.025 176.528 250.025 175.908C250.025 175.008 248.905 174.968 246.805 174.608C244.625 174.268 242.205 173.688 242.205 171.308ZM252.98 177.508C252.98 176.568 253.4 176.108 254.38 176.108C255.36 176.108 255.78 176.568 255.78 177.508C255.78 179.148 255.08 181.008 253.24 181.728L252.94 181.268C253.92 180.388 254.24 179.668 254.36 178.908C253.42 178.888 252.98 178.468 252.98 177.508ZM269.115 172.228C269.115 170.408 267.535 170.248 266.435 170.248C265.295 170.248 263.835 170.368 263.835 172.068H261.735C261.735 169.368 263.535 168.308 266.435 168.308C269.775 168.308 271.415 169.368 271.415 172.568V178.608H269.115V177.248C268.715 178.228 267.775 178.908 265.575 178.908C263.055 178.908 261.175 178.248 261.175 175.768C261.175 173.768 262.755 172.928 265.575 172.628L269.115 172.268V172.228ZM269.115 173.928L265.915 174.248C264.615 174.388 263.575 174.748 263.575 175.728C263.575 176.488 264.175 176.948 265.895 176.948C268.135 176.948 269.015 175.988 269.115 175.248V173.928ZM282.98 178.608H280.68V173.228C280.68 171.528 280.16 170.448 278.02 170.448C276.12 170.448 275.12 171.528 275.12 173.588V178.608H272.82V168.608H275.12V170.008C275.78 168.928 276.92 168.308 278.66 168.308C281.56 168.308 282.98 169.628 282.98 173.028V178.608ZM292.233 178.608V177.088C291.653 178.188 290.633 178.908 288.833 178.908C286.053 178.908 283.973 177.088 283.973 173.608C283.973 170.128 285.753 168.308 288.753 168.308C290.593 168.308 291.653 168.948 292.233 170.068V163.608H294.533V178.608H292.233ZM286.373 173.588C286.373 175.648 287.373 176.748 289.273 176.748C291.233 176.748 292.233 175.648 292.233 173.588C292.233 171.528 291.233 170.448 289.273 170.448C287.093 170.448 286.373 171.528 286.373 173.588ZM303.837 178.608L299.537 168.608H302.077L305.097 175.668L308.137 168.608H310.677L306.377 178.608H303.837ZM310.529 165.568C310.529 164.548 310.969 164.068 312.029 164.068C313.069 164.068 313.529 164.548 313.529 165.568C313.529 166.568 313.069 167.068 312.029 167.068C310.969 167.068 310.529 166.568 310.529 165.568ZM310.869 178.608V168.608H313.169V178.608H310.869ZM314.406 171.308C314.406 169.188 315.986 168.308 319.066 168.308C322.546 168.308 324.106 169.408 324.106 172.008H322.006C322.006 170.648 320.846 170.248 318.666 170.248C316.766 170.248 316.406 170.768 316.406 171.268C316.406 171.828 317.246 172.228 319.486 172.628C322.326 173.128 324.226 173.428 324.226 175.848C324.226 178.048 322.626 178.908 319.606 178.908C315.986 178.908 314.366 177.808 314.366 175.208H316.466C316.466 176.508 317.846 176.948 319.906 176.948C321.586 176.948 322.226 176.528 322.226 175.908C322.226 175.008 321.106 174.968 319.006 174.608C316.826 174.268 314.406 173.688 314.406 171.308ZM325.08 165.568C325.08 164.548 325.52 164.068 326.58 164.068C327.62 164.068 328.08 164.548 328.08 165.568C328.08 166.568 327.62 167.068 326.58 167.068C325.52 167.068 325.08 166.568 325.08 165.568ZM325.42 178.608V168.608H327.72V178.608H325.42ZM328.917 173.608C328.917 170.128 330.737 168.308 334.517 168.308C338.297 168.308 340.117 170.128 340.117 173.608C340.117 177.088 338.297 178.908 334.517 178.908C330.737 178.908 328.917 177.088 328.917 173.608ZM331.317 173.608C331.317 175.668 332.357 176.748 334.517 176.748C336.677 176.748 337.717 175.668 337.717 173.608C337.717 171.528 336.677 170.448 334.517 170.448C332.277 170.448 331.317 171.528 331.317 173.608ZM351.48 178.608H349.18V173.228C349.18 171.528 348.66 170.448 346.52 170.448C344.62 170.448 343.62 171.528 343.62 173.588V178.608H341.32V168.608H343.62V170.008C344.28 168.928 345.42 168.308 347.16 168.308C350.06 168.308 351.48 169.628 351.48 173.028V178.608ZM360.213 172.228C360.213 170.408 358.633 170.248 357.533 170.248C356.393 170.248 354.933 170.368 354.933 172.068H352.833C352.833 169.368 354.633 168.308 357.533 168.308C360.873 168.308 362.513 169.368 362.513 172.568V178.608H360.213V177.248C359.813 178.228 358.873 178.908 356.673 178.908C354.153 178.908 352.273 178.248 352.273 175.768C352.273 173.768 353.853 172.928 356.673 172.628L360.213 172.268V172.228ZM360.213 173.928L357.013 174.248C355.713 174.388 354.673 174.748 354.673 175.728C354.673 176.488 355.273 176.948 356.993 176.948C359.233 176.948 360.113 175.988 360.213 175.248V173.928ZM366.218 178.608H363.918V168.608H366.218V169.988C366.838 168.928 367.858 168.308 369.238 168.308C371.658 168.308 372.958 169.728 372.958 172.648H370.858C370.858 171.348 370.218 170.448 368.738 170.448C367.158 170.448 366.218 171.528 366.218 173.588V178.608ZM373.627 165.568C373.627 164.548 374.067 164.068 375.127 164.068C376.167 164.068 376.627 164.548 376.627 165.568C376.627 166.568 376.167 167.068 375.127 167.068C374.067 167.068 373.627 166.568 373.627 165.568ZM373.967 178.608V168.608H376.267V178.608H373.967ZM387.964 173.888V174.288H379.904C380.104 176.268 381.244 176.948 383.064 176.948C384.624 176.948 385.744 176.148 385.744 175.188L387.844 175.208C387.844 177.408 386.164 178.908 383.064 178.908C379.304 178.908 377.464 177.068 377.464 173.588C377.464 170.188 379.324 168.308 382.704 168.308C386.464 168.308 387.964 170.208 387.964 173.888ZM379.964 172.588H385.684C385.464 170.948 384.364 170.248 382.804 170.248C381.404 170.248 380.284 171.048 379.964 172.588ZM388.803 171.308C388.803 169.188 390.383 168.308 393.463 168.308C396.943 168.308 398.503 169.408 398.503 172.008H396.403C396.403 170.648 395.243 170.248 393.063 170.248C391.163 170.248 390.803 170.768 390.803 171.268C390.803 171.828 391.643 172.228 393.883 172.628C396.723 173.128 398.623 173.428 398.623 175.848C398.623 178.048 397.023 178.908 394.003 178.908C390.383 178.908 388.763 177.808 388.763 175.208H390.863C390.863 176.508 392.243 176.948 394.303 176.948C395.983 176.948 396.623 176.528 396.623 175.908C396.623 175.008 395.503 174.968 393.403 174.608C391.223 174.268 388.803 173.688 388.803 171.308ZM44.3 208.608L40.6 198.608H43.14L45.56 205.188L48 198.608H50.54L52.96 205.188L55.4 198.608H57.94L54.24 208.608H51.7L49.26 202.028L46.84 208.608H44.3ZM60.8141 208.608H58.5141V193.608H60.8141V200.008C61.4741 198.928 62.6141 198.308 64.3541 198.308C67.2541 198.308 68.6741 199.628 68.6741 203.028V208.608H66.3741V203.228C66.3741 201.528 65.8541 200.448 63.7141 200.448C61.8141 200.448 60.8141 201.528 60.8141 203.588V208.608ZM69.6672 203.608C69.6672 200.128 71.4872 198.308 75.2672 198.308C79.0472 198.308 80.8672 200.128 80.8672 203.608C80.8672 207.088 79.0472 208.908 75.2672 208.908C71.4872 208.908 69.6672 207.088 69.6672 203.608ZM72.0672 203.608C72.0672 205.668 73.1072 206.748 75.2672 206.748C77.4272 206.748 78.4672 205.668 78.4672 203.608C78.4672 201.528 77.4272 200.448 75.2672 200.448C73.0272 200.448 72.0672 201.528 72.0672 203.608ZM88.6648 205.048V200.708H86.2648V198.608H88.6648L89.4648 194.608H90.9648L90.9448 198.608H95.9648V200.708H90.9648V204.748C90.9648 205.788 91.1448 206.748 92.3648 206.748C93.2648 206.748 93.9448 206.308 93.9448 204.808H96.0448C96.0448 207.908 94.6248 208.908 92.2848 208.908C89.9248 208.908 88.6648 207.788 88.6648 205.048ZM96.9094 198.608H99.2094V203.988C99.2094 205.668 99.7294 206.748 101.869 206.748C103.769 206.748 104.769 205.668 104.769 203.608V198.608H107.069V208.608H104.769V207.208C104.089 208.288 102.969 208.908 101.229 208.908C98.3294 208.908 96.9094 207.588 96.9094 204.168V198.608ZM110.962 208.608H108.662V198.608H110.962V199.988C111.582 198.928 112.602 198.308 113.982 198.308C116.402 198.308 117.702 199.728 117.702 202.648H115.602C115.602 201.348 114.962 200.448 113.482 200.448C111.902 200.448 110.962 201.528 110.962 203.588V208.608ZM128.872 208.608H126.572V203.228C126.572 201.528 126.052 200.448 123.912 200.448C122.012 200.448 121.012 201.528 121.012 203.588V208.608H118.712V198.608H121.012V200.008C121.672 198.928 122.812 198.308 124.552 198.308C127.452 198.308 128.872 199.628 128.872 203.028V208.608ZM134.72 195.568C134.72 194.548 135.16 194.068 136.22 194.068C137.26 194.068 137.72 194.548 137.72 195.568C137.72 196.568 137.26 197.068 136.22 197.068C135.16 197.068 134.72 196.568 134.72 195.568ZM135.06 208.608V198.608H137.36V208.608H135.06ZM148.217 208.608H145.917V202.828C145.917 201.528 145.477 200.448 143.697 200.448C142.097 200.448 141.257 201.528 141.257 203.588V208.608H138.957V198.608H141.257V199.988C141.897 198.928 142.937 198.308 144.517 198.308C146.017 198.308 147.077 198.868 147.657 199.968C148.257 199.008 149.297 198.308 150.957 198.308C153.877 198.308 155.157 199.628 155.157 203.028V208.608H152.857V203.228C152.857 201.528 152.417 200.448 150.657 200.448C149.037 200.448 148.217 201.528 148.217 202.848V208.608ZM163.905 202.228C163.905 200.408 162.325 200.248 161.225 200.248C160.085 200.248 158.625 200.368 158.625 202.068H156.525C156.525 199.368 158.325 198.308 161.225 198.308C164.565 198.308 166.205 199.368 166.205 202.568V208.608H163.905V207.248C163.505 208.228 162.565 208.908 160.365 208.908C157.845 208.908 155.965 208.248 155.965 205.768C155.965 203.768 157.545 202.928 160.365 202.628L163.905 202.268V202.228ZM163.905 203.928L160.705 204.248C159.405 204.388 158.365 204.748 158.365 205.728C158.365 206.488 158.965 206.948 160.685 206.948C162.925 206.948 163.805 205.988 163.905 205.248V203.928ZM177.61 196.148V197.968C176.97 197.588 176.13 197.408 175.41 197.408C174.81 197.408 173.99 197.648 173.73 198.388C176.09 198.688 177.27 199.848 177.27 201.808C177.27 204.128 175.73 205.308 172.43 205.308C170.09 205.308 169.21 205.328 169.21 205.888C169.21 206.368 170.05 206.508 172.65 206.768C175.59 207.088 177.79 207.128 177.79 209.788C177.79 211.868 176.11 212.808 172.77 212.808C168.83 212.808 167.21 211.708 167.21 209.108H169.31C169.31 210.428 170.55 210.868 172.83 210.868C174.67 210.868 175.83 210.628 175.83 209.768C175.83 208.768 174.63 209.028 172.33 208.768C169.99 208.508 167.25 208.368 167.25 206.108C167.25 205.168 167.75 204.628 168.53 204.308C167.79 203.728 167.41 202.888 167.41 201.808C167.41 198.668 170.31 198.308 172.79 198.308C172.97 196.848 173.91 195.708 175.51 195.708C176.31 195.708 177.05 195.928 177.61 196.148ZM169.81 201.788C169.81 202.888 170.81 203.348 172.41 203.348C174.07 203.348 174.87 202.888 174.87 201.788C174.87 200.708 173.97 200.248 172.31 200.248C170.43 200.248 169.81 200.708 169.81 201.788ZM178.648 195.568C178.648 194.548 179.088 194.068 180.148 194.068C181.188 194.068 181.648 194.548 181.648 195.568C181.648 196.568 181.188 197.068 180.148 197.068C179.088 197.068 178.648 196.568 178.648 195.568ZM178.988 208.608V198.608H181.288V208.608H178.988ZM193.044 208.608H190.744V203.228C190.744 201.528 190.224 200.448 188.084 200.448C186.184 200.448 185.184 201.528 185.184 203.588V208.608H182.884V198.608H185.184V200.008C185.844 198.928 186.984 198.308 188.724 198.308C191.624 198.308 193.044 199.628 193.044 203.028V208.608ZM201.778 202.228C201.778 200.408 200.198 200.248 199.098 200.248C197.958 200.248 196.498 200.368 196.498 202.068H194.398C194.398 199.368 196.198 198.308 199.098 198.308C202.438 198.308 204.078 199.368 204.078 202.568V208.608H201.778V207.248C201.378 208.228 200.438 208.908 198.238 208.908C195.718 208.908 193.838 208.248 193.838 205.768C193.838 203.768 195.418 202.928 198.238 202.628L201.778 202.268V202.228ZM201.778 203.928L198.577 204.248C197.278 204.388 196.238 204.748 196.238 205.728C196.238 206.488 196.838 206.948 198.558 206.948C200.798 206.948 201.678 205.988 201.778 205.248V203.928ZM207.283 205.048V200.708H204.883V198.608H207.283L208.083 194.608H209.583L209.563 198.608H214.583V200.708H209.583V204.748C209.583 205.788 209.763 206.748 210.983 206.748C211.883 206.748 212.563 206.308 212.563 204.808H214.663C214.663 207.908 213.243 208.908 210.903 208.908C208.543 208.908 207.283 207.788 207.283 205.048ZM215.387 195.568C215.387 194.548 215.827 194.068 216.887 194.068C217.927 194.068 218.387 194.548 218.387 195.568C218.387 196.568 217.927 197.068 216.887 197.068C215.827 197.068 215.387 196.568 215.387 195.568ZM215.727 208.608V198.608H218.027V208.608H215.727ZM219.224 203.608C219.224 200.128 221.044 198.308 224.824 198.308C228.604 198.308 230.424 200.128 230.424 203.608C230.424 207.088 228.604 208.908 224.824 208.908C221.044 208.908 219.224 207.088 219.224 203.608ZM221.624 203.608C221.624 205.668 222.664 206.748 224.824 206.748C226.984 206.748 228.024 205.668 228.024 203.608C228.024 201.528 226.984 200.448 224.824 200.448C222.584 200.448 221.624 201.528 221.624 203.608ZM241.787 208.608H239.487V203.228C239.487 201.528 238.967 200.448 236.827 200.448C234.927 200.448 233.927 201.528 233.927 203.588V208.608H231.627V198.608H233.927V200.008C234.587 198.928 235.727 198.308 237.467 198.308C240.367 198.308 241.787 199.628 241.787 203.028V208.608ZM247.635 195.568C247.635 194.548 248.075 194.068 249.135 194.068C250.175 194.068 250.635 194.548 250.635 195.568C250.635 196.568 250.175 197.068 249.135 197.068C248.075 197.068 247.635 196.568 247.635 195.568ZM247.975 208.608V198.608H250.275V208.608H247.975ZM262.032 208.608H259.732V203.228C259.732 201.528 259.212 200.448 257.072 200.448C255.172 200.448 254.172 201.528 254.172 203.588V208.608H251.872V198.608H254.172V200.008C254.832 198.928 255.972 198.308 257.712 198.308C260.612 198.308 262.032 199.628 262.032 203.028V208.608ZM264.639 205.048V200.708H262.239V198.608H264.639L265.439 194.608H266.939L266.919 198.608H271.939V200.708H266.939V204.748C266.939 205.788 267.119 206.748 268.339 206.748C269.239 206.748 269.919 206.308 269.919 204.808H272.019C272.019 207.908 270.599 208.908 268.259 208.908C265.899 208.908 264.639 207.788 264.639 205.048ZM272.684 203.608C272.684 200.128 274.504 198.308 278.284 198.308C282.064 198.308 283.884 200.128 283.884 203.608C283.884 207.088 282.064 208.908 278.284 208.908C274.504 208.908 272.684 207.088 272.684 203.608ZM275.084 203.608C275.084 205.668 276.124 206.748 278.284 206.748C280.444 206.748 281.484 205.668 281.484 203.608C281.484 201.528 280.444 200.448 278.284 200.448C276.044 200.448 275.084 201.528 275.084 203.608ZM292.181 208.608H289.881V198.608H292.181V199.988C292.801 198.928 293.821 198.308 295.201 198.308C297.621 198.308 298.921 199.728 298.921 202.648H296.821C296.821 201.348 296.181 200.448 294.701 200.448C293.121 200.448 292.181 201.528 292.181 203.588V208.608ZM309.659 203.888V204.288H301.599C301.799 206.268 302.939 206.948 304.759 206.948C306.319 206.948 307.439 206.148 307.439 205.188L309.539 205.208C309.539 207.408 307.859 208.908 304.759 208.908C300.999 208.908 299.159 207.068 299.159 203.588C299.159 200.188 301.019 198.308 304.399 198.308C308.159 198.308 309.659 200.208 309.659 203.888ZM301.659 202.588H307.379C307.159 200.948 306.059 200.248 304.499 200.248C303.099 200.248 301.979 201.048 301.659 202.588ZM318.199 202.228C318.199 200.408 316.619 200.248 315.519 200.248C314.379 200.248 312.919 200.368 312.919 202.068H310.819C310.819 199.368 312.619 198.308 315.519 198.308C318.859 198.308 320.499 199.368 320.499 202.568V208.608H318.199V207.248C317.799 208.228 316.859 208.908 314.659 208.908C312.139 208.908 310.259 208.248 310.259 205.768C310.259 203.768 311.839 202.928 314.659 202.628L318.199 202.268V202.228ZM318.199 203.928L314.999 204.248C313.699 204.388 312.659 204.748 312.659 205.728C312.659 206.488 313.259 206.948 314.979 206.948C317.219 206.948 318.099 205.988 318.199 205.248V203.928ZM324.204 208.608H321.904V193.608H324.204V208.608ZM325.461 195.568C325.461 194.548 325.901 194.068 326.961 194.068C328.001 194.068 328.461 194.548 328.461 195.568C328.461 196.568 328.001 197.068 326.961 197.068C325.901 197.068 325.461 196.568 325.461 195.568ZM325.801 208.608V198.608H328.101V208.608H325.801ZM331.498 205.048V200.708H329.098V198.608H331.498L332.298 194.608H333.798L333.778 198.608H338.798V200.708H333.798V204.748C333.798 205.788 333.978 206.748 335.198 206.748C336.098 206.748 336.778 206.308 336.778 204.808H338.878C338.878 207.908 337.458 208.908 335.118 208.908C332.758 208.908 331.498 207.788 331.498 205.048ZM346.742 208.268C345.662 211.348 345.222 213.208 342.342 213.208C340.182 213.208 339.242 211.548 339.242 209.348H341.242C341.242 210.908 341.762 211.268 342.362 211.268C343.222 211.268 343.602 210.368 344.062 209.048L344.242 208.468L339.022 198.608H341.622L345.282 205.488L347.682 198.608H350.122L346.742 208.268ZM350.314 207.508C350.314 206.568 350.734 206.108 351.714 206.108C352.694 206.108 353.114 206.568 353.114 207.508C353.114 208.428 352.694 208.908 351.714 208.908C350.734 208.908 350.314 208.428 350.314 207.508ZM364.273 202.768C361.073 202.148 358.833 201.388 358.833 198.468C358.833 195.508 360.733 194.308 364.933 194.308C368.613 194.308 370.853 195.548 370.853 199.068H368.553C368.553 196.868 366.773 196.608 364.733 196.608C362.193 196.608 361.333 197.208 361.333 198.328C361.333 199.508 362.613 199.888 365.253 200.308C368.933 200.888 371.013 201.828 371.013 204.748C371.013 207.688 369.073 208.908 364.773 208.908C361.033 208.908 358.713 207.668 358.713 204.148H361.013C361.013 206.368 362.893 206.648 364.993 206.648C367.353 206.648 368.513 206.128 368.513 204.888C368.513 203.148 366.093 203.108 364.273 202.768ZM374.509 208.608H372.209V193.608H374.509V200.008C375.169 198.928 376.309 198.308 378.049 198.308C380.949 198.308 382.369 199.628 382.369 203.028V208.608H380.069V203.228C380.069 201.528 379.549 200.448 377.409 200.448C375.509 200.448 374.509 201.528 374.509 203.588V208.608ZM391.103 202.228C391.103 200.408 389.523 200.248 388.423 200.248C387.283 200.248 385.823 200.368 385.823 202.068H383.723C383.723 199.368 385.523 198.308 388.423 198.308C391.763 198.308 393.403 199.368 393.403 202.568V208.608H391.103V207.248C390.703 208.228 389.763 208.908 387.563 208.908C385.043 208.908 383.163 208.248 383.163 205.768C383.163 203.768 384.743 202.928 387.563 202.628L391.103 202.268V202.228ZM391.103 203.928L387.903 204.248C386.603 204.388 385.563 204.748 385.563 205.728C385.563 206.488 386.163 206.948 387.883 206.948C390.123 206.948 391.003 205.988 391.103 205.248V203.928ZM397.108 208.608H394.808V198.608H397.108V199.988C397.728 198.928 398.748 198.308 400.128 198.308C402.548 198.308 403.848 199.728 403.848 202.648H401.748C401.748 201.348 401.108 200.448 399.628 200.448C398.048 200.448 397.108 201.528 397.108 203.588V208.608ZM414.586 203.888V204.288H406.526C406.726 206.268 407.866 206.948 409.686 206.948C411.246 206.948 412.366 206.148 412.366 205.188L414.466 205.208C414.466 207.408 412.786 208.908 409.686 208.908C405.926 208.908 404.086 207.068 404.086 203.588C404.086 200.188 405.946 198.308 409.326 198.308C413.086 198.308 414.586 200.208 414.586 203.888ZM406.586 202.588H412.306C412.086 200.948 410.986 200.248 409.426 200.248C408.026 200.248 406.906 201.048 406.586 202.588ZM41.66 225.568C41.66 224.548 42.1 224.068 43.16 224.068C44.2 224.068 44.66 224.548 44.66 225.568C44.66 226.568 44.2 227.068 43.16 227.068C42.1 227.068 41.66 226.568 41.66 225.568ZM42 238.608V228.608H44.3V238.608H42ZM53.7569 238.608V237.088C53.1769 238.188 52.1569 238.908 50.3569 238.908C47.5769 238.908 45.4969 237.088 45.4969 233.608C45.4969 230.128 47.2769 228.308 50.2769 228.308C52.1169 228.308 53.1769 228.948 53.7569 230.068V223.608H56.0569V238.608H53.7569ZM47.8969 233.588C47.8969 235.648 48.8969 236.748 50.7969 236.748C52.7569 236.748 53.7569 235.648 53.7569 233.588C53.7569 231.528 52.7569 230.448 50.7969 230.448C48.6169 230.448 47.8969 231.528 47.8969 233.588ZM67.7648 233.888V234.288H59.7048C59.9048 236.268 61.0448 236.948 62.8648 236.948C64.4248 236.948 65.5448 236.148 65.5448 235.188L67.6448 235.208C67.6448 237.408 65.9648 238.908 62.8648 238.908C59.1048 238.908 57.2648 237.068 57.2648 233.588C57.2648 230.188 59.1248 228.308 62.5048 228.308C66.2648 228.308 67.7648 230.208 67.7648 233.888ZM59.7648 232.588H65.4848C65.2648 230.948 64.1648 230.248 62.6048 230.248C61.2048 230.248 60.0848 231.048 59.7648 232.588ZM76.3041 232.228C76.3041 230.408 74.7241 230.248 73.6241 230.248C72.4841 230.248 71.0241 230.368 71.0241 232.068H68.9241C68.9241 229.368 70.7241 228.308 73.6241 228.308C76.9641 228.308 78.6041 229.368 78.6041 232.568V238.608H76.3041V237.248C75.9041 238.228 74.9641 238.908 72.7641 238.908C70.2441 238.908 68.3641 238.248 68.3641 235.768C68.3641 233.768 69.9441 232.928 72.7641 232.628L76.3041 232.268V232.228ZM76.3041 233.928L73.1041 234.248C71.8041 234.388 70.7641 234.748 70.7641 235.728C70.7641 236.488 71.3641 236.948 73.0841 236.948C75.3241 236.948 76.2041 235.988 76.3041 235.248V233.928ZM79.6494 231.308C79.6494 229.188 81.2294 228.308 84.3094 228.308C87.7894 228.308 89.3494 229.408 89.3494 232.008H87.2494C87.2494 230.648 86.0894 230.248 83.9094 230.248C82.0094 230.248 81.6494 230.768 81.6494 231.268C81.6494 231.828 82.4894 232.228 84.7294 232.628C87.5694 233.128 89.4694 233.428 89.4694 235.848C89.4694 238.048 87.8694 238.908 84.8494 238.908C81.2294 238.908 79.6094 237.808 79.6094 235.208H81.7094C81.7094 236.508 83.0894 236.948 85.1494 236.948C86.8294 236.948 87.4694 236.528 87.4694 235.908C87.4694 235.008 86.3494 234.968 84.2494 234.608C82.0694 234.268 79.6494 233.688 79.6494 231.308ZM90.4241 237.508C90.4241 236.568 90.8441 236.108 91.8241 236.108C92.8041 236.108 93.2241 236.568 93.2241 237.508C93.2241 239.148 92.5241 241.008 90.6841 241.728L90.3841 241.268C91.3641 240.388 91.6841 239.668 91.8041 238.908C90.8641 238.888 90.4241 238.468 90.4241 237.508ZM101.52 242.608H99.2195V228.608H101.52V230.008C102.08 228.928 103.08 228.308 104.82 228.308C107.54 228.308 109.38 230.128 109.38 233.608C109.38 237.088 107.24 238.908 104.74 238.908C103.04 238.908 102.06 238.208 101.52 237.128V242.608ZM106.98 233.588C106.98 231.528 106.18 230.448 104.28 230.448C102.48 230.448 101.52 231.528 101.52 233.588C101.52 235.648 102.48 236.748 104.28 236.748C105.92 236.748 106.98 235.648 106.98 233.588ZM112.877 238.608H110.577V228.608H112.877V229.988C113.497 228.928 114.517 228.308 115.897 228.308C118.317 228.308 119.617 229.728 119.617 232.648H117.517C117.517 231.348 116.877 230.448 115.397 230.448C113.817 230.448 112.877 231.528 112.877 233.588V238.608ZM120.227 233.608C120.227 230.128 122.047 228.308 125.827 228.308C129.607 228.308 131.427 230.128 131.427 233.608C131.427 237.088 129.607 238.908 125.827 238.908C122.047 238.908 120.227 237.088 120.227 233.608ZM122.627 233.608C122.627 235.668 123.667 236.748 125.827 236.748C127.987 236.748 129.027 235.668 129.027 233.608C129.027 231.528 127.987 230.448 125.827 230.448C123.587 230.448 122.627 231.528 122.627 233.608ZM134.387 225.568C134.387 224.548 134.827 224.068 135.887 224.068C136.927 224.068 137.387 224.548 137.387 225.568C137.387 226.568 136.927 227.068 135.887 227.068C134.827 227.068 134.387 226.568 134.387 225.568ZM137.027 238.128C137.027 241.588 135.707 243.208 133.327 243.208C130.807 243.208 129.867 241.548 129.867 239.348H131.867C131.867 240.648 132.407 241.268 133.307 241.268C134.327 241.268 134.727 240.288 134.727 238.888V228.608H137.027V238.128ZM148.735 233.888V234.288H140.675C140.875 236.268 142.015 236.948 143.835 236.948C145.395 236.948 146.515 236.148 146.515 235.188L148.615 235.208C148.615 237.408 146.935 238.908 143.835 238.908C140.075 238.908 138.235 237.068 138.235 233.588C138.235 230.188 140.095 228.308 143.475 228.308C147.235 228.308 148.735 230.208 148.735 233.888ZM140.735 232.588H146.455C146.235 230.948 145.135 230.248 143.575 230.248C142.175 230.248 141.055 231.048 140.735 232.588ZM154.974 228.308C158.154 228.308 159.834 230.208 159.834 232.608H157.734C157.734 231.348 156.794 230.448 154.954 230.448C153.154 230.448 151.934 231.268 151.934 233.568C151.934 235.968 153.294 236.748 155.074 236.748C156.954 236.748 157.814 235.848 157.814 234.608H159.914C159.914 237.008 158.374 238.908 155.014 238.908C151.454 238.908 149.534 237.088 149.534 233.608C149.534 230.088 151.194 228.308 154.974 228.308ZM162.721 235.048V230.708H160.321V228.608H162.721L163.521 224.608H165.021L165.001 228.608H170.021V230.708H165.021V234.748C165.021 235.788 165.201 236.748 166.421 236.748C167.321 236.748 168.001 236.308 168.001 234.808H170.101C170.101 237.908 168.681 238.908 166.341 238.908C163.981 238.908 162.721 237.788 162.721 235.048ZM170.806 231.308C170.806 229.188 172.386 228.308 175.466 228.308C178.946 228.308 180.506 229.408 180.506 232.008H178.406C178.406 230.648 177.246 230.248 175.066 230.248C173.166 230.248 172.806 230.768 172.806 231.268C172.806 231.828 173.646 232.228 175.886 232.628C178.726 233.128 180.626 233.428 180.626 235.848C180.626 238.048 179.026 238.908 176.006 238.908C172.386 238.908 170.766 237.808 170.766 235.208H172.866C172.866 236.508 174.246 236.948 176.306 236.948C177.986 236.948 178.626 236.528 178.626 235.908C178.626 235.008 177.506 234.968 175.406 234.608C173.226 234.268 170.806 233.688 170.806 231.308ZM181.58 237.508C181.58 236.568 182 236.108 182.98 236.108C183.96 236.108 184.38 236.568 184.38 237.508C184.38 239.148 183.68 241.008 181.84 241.728L181.54 241.268C182.52 240.388 182.84 239.668 182.96 238.908C182.02 238.888 181.58 238.468 181.58 237.508ZM197.716 232.228C197.716 230.408 196.136 230.248 195.036 230.248C193.896 230.248 192.436 230.368 192.436 232.068H190.336C190.336 229.368 192.136 228.308 195.036 228.308C198.376 228.308 200.016 229.368 200.016 232.568V238.608H197.716V237.248C197.316 238.228 196.376 238.908 194.176 238.908C191.656 238.908 189.776 238.248 189.776 235.768C189.776 233.768 191.356 232.928 194.176 232.628L197.716 232.268V232.228ZM197.716 233.928L194.516 234.248C193.216 234.388 192.176 234.748 192.176 235.728C192.176 236.488 192.776 236.948 194.496 236.948C196.736 236.948 197.616 235.988 197.716 235.248V233.928ZM211.581 238.608H209.281V233.228C209.281 231.528 208.761 230.448 206.621 230.448C204.721 230.448 203.721 231.528 203.721 233.588V238.608H201.421V228.608H203.721V230.008C204.381 228.928 205.521 228.308 207.261 228.308C210.161 228.308 211.581 229.628 211.581 233.028V238.608ZM220.834 238.608V237.088C220.254 238.188 219.234 238.908 217.434 238.908C214.654 238.908 212.574 237.088 212.574 233.608C212.574 230.128 214.354 228.308 217.354 228.308C219.194 228.308 220.254 228.948 220.834 230.068V223.608H223.134V238.608H220.834ZM214.974 233.588C214.974 235.648 215.974 236.748 217.874 236.748C219.834 236.748 220.834 235.648 220.834 233.588C220.834 231.528 219.834 230.448 217.874 230.448C215.694 230.448 214.974 231.528 214.974 233.588ZM229.198 225.568C229.198 224.548 229.638 224.068 230.698 224.068C231.738 224.068 232.198 224.548 232.198 225.568C232.198 226.568 231.738 227.068 230.698 227.068C229.638 227.068 229.198 226.568 229.198 225.568ZM229.538 238.608V228.608H231.838V238.608H229.538ZM243.594 238.608H241.294V233.228C241.294 231.528 240.774 230.448 238.634 230.448C236.734 230.448 235.734 231.528 235.734 233.588V238.608H233.434V228.608H235.734V230.008C236.394 228.928 237.534 228.308 239.274 228.308C242.174 228.308 243.594 229.628 243.594 233.028V238.608ZM244.628 231.308C244.628 229.188 246.208 228.308 249.288 228.308C252.768 228.308 254.328 229.408 254.328 232.008H252.228C252.228 230.648 251.068 230.248 248.888 230.248C246.988 230.248 246.628 230.768 246.628 231.268C246.628 231.828 247.468 232.228 249.708 232.628C252.548 233.128 254.448 233.428 254.448 235.848C254.448 238.048 252.848 238.908 249.828 238.908C246.208 238.908 244.588 237.808 244.588 235.208H246.688C246.688 236.508 248.068 236.948 250.128 236.948C251.808 236.948 252.448 236.528 252.448 235.908C252.448 235.008 251.328 234.968 249.228 234.608C247.048 234.268 244.628 233.688 244.628 231.308ZM257.942 242.608H255.642V228.608H257.942V230.008C258.502 228.928 259.502 228.308 261.242 228.308C263.962 228.308 265.802 230.128 265.802 233.608C265.802 237.088 263.662 238.908 261.162 238.908C259.462 238.908 258.482 238.208 257.942 237.128V242.608ZM263.402 233.588C263.402 231.528 262.602 230.448 260.702 230.448C258.902 230.448 257.942 231.528 257.942 233.588C257.942 235.648 258.902 236.748 260.702 236.748C262.342 236.748 263.402 235.648 263.402 233.588ZM266.66 225.568C266.66 224.548 267.1 224.068 268.16 224.068C269.2 224.068 269.66 224.548 269.66 225.568C269.66 226.568 269.2 227.068 268.16 227.068C267.1 227.068 266.66 226.568 266.66 225.568ZM267 238.608V228.608H269.3V238.608H267ZM273.197 238.608H270.897V228.608H273.197V229.988C273.817 228.928 274.837 228.308 276.217 228.308C278.637 228.308 279.937 229.728 279.937 232.648H277.837C277.837 231.348 277.197 230.448 275.717 230.448C274.137 230.448 273.197 231.528 273.197 233.588V238.608ZM288.286 232.228C288.286 230.408 286.706 230.248 285.606 230.248C284.466 230.248 283.006 230.368 283.006 232.068H280.906C280.906 229.368 282.706 228.308 285.606 228.308C288.946 228.308 290.586 229.368 290.586 232.568V238.608H288.286V237.248C287.886 238.228 286.946 238.908 284.746 238.908C282.226 238.908 280.346 238.248 280.346 235.768C280.346 233.768 281.926 232.928 284.746 232.628L288.286 232.268V232.228ZM288.286 233.928L285.086 234.248C283.786 234.388 282.746 234.748 282.746 235.728C282.746 236.488 283.346 236.948 285.066 236.948C287.306 236.948 288.186 235.988 288.286 235.248V233.928ZM293.791 235.048V230.708H291.391V228.608H293.791L294.591 224.608H296.091L296.071 228.608H301.091V230.708H296.091V234.748C296.091 235.788 296.271 236.748 297.491 236.748C298.391 236.748 299.071 236.308 299.071 234.808H301.171C301.171 237.908 299.751 238.908 297.411 238.908C295.051 238.908 293.791 237.788 293.791 235.048ZM301.896 225.568C301.896 224.548 302.336 224.068 303.396 224.068C304.436 224.068 304.896 224.548 304.896 225.568C304.896 226.568 304.436 227.068 303.396 227.068C302.336 227.068 301.896 226.568 301.896 225.568ZM302.236 238.608V228.608H304.536V238.608H302.236ZM305.733 233.608C305.733 230.128 307.553 228.308 311.333 228.308C315.113 228.308 316.933 230.128 316.933 233.608C316.933 237.088 315.113 238.908 311.333 238.908C307.553 238.908 305.733 237.088 305.733 233.608ZM308.133 233.608C308.133 235.668 309.173 236.748 311.333 236.748C313.493 236.748 314.533 235.668 314.533 233.608C314.533 231.528 313.493 230.448 311.333 230.448C309.093 230.448 308.133 231.528 308.133 233.608ZM328.295 238.608H325.995V233.228C325.995 231.528 325.475 230.448 323.335 230.448C321.435 230.448 320.435 231.528 320.435 233.588V238.608H318.135V228.608H320.435V230.008C321.095 228.928 322.235 228.308 323.975 228.308C326.875 228.308 328.295 229.628 328.295 233.028V238.608Z" fill="#FFF9DE"/>
<path d="M50.12 308.501C50.12 309.386 50.024 310.133 49.832 310.741C49.64 311.349 49.352 311.84 48.968 312.213C48.5947 312.576 48.1253 312.832 47.56 312.981C46.9947 313.141 46.3333 313.221 45.576 313.221C44.9147 313.221 44.3227 313.152 43.8 313.013C43.2773 312.874 42.8293 312.65 42.456 312.341C42.0933 312.032 41.8107 311.626 41.608 311.125C41.416 310.613 41.32 309.984 41.32 309.237H43.512C43.512 309.621 43.5707 309.936 43.688 310.181C43.8053 310.426 43.9653 310.618 44.168 310.757C44.3707 310.885 44.6 310.976 44.856 311.029C45.1227 311.072 45.4 311.093 45.688 311.093C46.04 311.093 46.3493 311.05 46.616 310.965C46.8827 310.88 47.1013 310.746 47.272 310.565C47.4533 310.384 47.5867 310.149 47.672 309.861C47.768 309.562 47.816 309.2 47.816 308.773V301.781H50.12V308.501ZM50.9256 308.981C50.9256 307.584 51.2936 306.528 52.0296 305.813C52.7656 305.098 53.9016 304.741 55.4376 304.741C56.9736 304.741 58.1096 305.098 58.8456 305.813C59.5923 306.528 59.9656 307.584 59.9656 308.981C59.9656 310.378 59.5923 311.434 58.8456 312.149C58.1096 312.864 56.9736 313.221 55.4376 313.221C53.9016 313.221 52.7656 312.864 52.0296 312.149C51.2936 311.434 50.9256 310.378 50.9256 308.981ZM53.1976 308.981C53.1976 309.717 53.379 310.272 53.7416 310.645C54.115 311.008 54.6803 311.189 55.4376 311.189C56.2056 311.189 56.771 311.008 57.1336 310.645C57.507 310.272 57.6936 309.717 57.6936 308.981C57.6936 308.245 57.507 307.696 57.1336 307.333C56.771 306.96 56.2056 306.773 55.4376 306.773C54.6376 306.773 54.0616 306.96 53.7096 307.333C53.3683 307.696 53.1976 308.245 53.1976 308.981ZM60.9256 312.981V304.981H63.1176V312.981H60.9256ZM60.6856 302.549C60.6856 302.09 60.787 301.754 60.9896 301.541C61.203 301.328 61.5443 301.221 62.0136 301.221C62.4936 301.221 62.835 301.328 63.0376 301.541C63.251 301.754 63.3576 302.09 63.3576 302.549C63.3576 302.997 63.251 303.333 63.0376 303.557C62.835 303.77 62.4936 303.877 62.0136 303.877C61.5443 303.877 61.203 303.77 60.9896 303.557C60.787 303.333 60.6856 302.997 60.6856 302.549ZM72.6425 312.981H70.4505V308.773C70.4505 308.464 70.4238 308.186 70.3705 307.941C70.3172 307.685 70.2212 307.472 70.0825 307.301C69.9438 307.13 69.7518 307.002 69.5065 306.917C69.2718 306.821 68.9732 306.773 68.6105 306.773C67.9492 306.773 67.4478 306.96 67.1065 307.333C66.7652 307.696 66.5945 308.245 66.5945 308.981V309.189H65.9065V308.981C65.9065 308.352 65.9705 307.781 66.0985 307.269C66.2265 306.746 66.4238 306.298 66.6905 305.925C66.9572 305.552 67.2985 305.264 67.7145 305.061C68.1412 304.848 68.6585 304.741 69.2665 304.741C69.8212 304.741 70.3065 304.81 70.7225 304.949C71.1492 305.077 71.5012 305.29 71.7785 305.589C72.0665 305.888 72.2798 306.282 72.4185 306.773C72.5678 307.253 72.6425 307.85 72.6425 308.565V312.981ZM66.5945 312.981H64.4025V304.981H66.5945V312.981ZM85.8463 312.981H83.6543V308.773C83.6543 308.464 83.6276 308.186 83.5743 307.941C83.5209 307.685 83.4249 307.472 83.2863 307.301C83.1476 307.13 82.9556 307.002 82.7103 306.917C82.4756 306.821 82.1769 306.773 81.8143 306.773C81.1529 306.773 80.6516 306.96 80.3103 307.333C79.9689 307.696 79.7983 308.245 79.7983 308.981V309.189H79.1103V308.981C79.1103 308.352 79.1743 307.781 79.3023 307.269C79.4303 306.746 79.6276 306.298 79.8943 305.925C80.1609 305.552 80.5023 305.264 80.9183 305.061C81.3449 304.848 81.8623 304.741 82.4703 304.741C83.0249 304.741 83.5103 304.81 83.9263 304.949C84.3529 305.077 84.7049 305.29 84.9823 305.589C85.2703 305.888 85.4836 306.282 85.6223 306.773C85.7716 307.253 85.8463 307.85 85.8463 308.565V312.981ZM79.7983 312.981H77.6063V304.981H79.7983V312.981ZM86.6538 308.981C86.6538 307.584 87.0218 306.528 87.7578 305.813C88.4938 305.098 89.6298 304.741 91.1658 304.741C92.7018 304.741 93.8378 305.098 94.5738 305.813C95.3204 306.528 95.6938 307.584 95.6938 308.981C95.6938 310.378 95.3204 311.434 94.5738 312.149C93.8378 312.864 92.7018 313.221 91.1658 313.221C89.6298 313.221 88.4938 312.864 87.7578 312.149C87.0218 311.434 86.6538 310.378 86.6538 308.981ZM88.9258 308.981C88.9258 309.717 89.1071 310.272 89.4698 310.645C89.8431 311.008 90.4084 311.189 91.1658 311.189C91.9338 311.189 92.4991 311.008 92.8618 310.645C93.2351 310.272 93.4218 309.717 93.4218 308.981C93.4218 308.245 93.2351 307.696 92.8618 307.333C92.4991 306.96 91.9338 306.773 91.1658 306.773C90.3658 306.773 89.7898 306.96 89.4378 307.333C89.0964 307.696 88.9258 308.245 88.9258 308.981ZM98.4617 312.981L95.5337 304.981H97.9337L100.878 312.981H98.4617ZM100.878 312.981H98.4617L101.406 304.981H103.806L100.878 312.981ZM104.334 312.981L101.406 304.981H103.806L106.734 312.981H104.334ZM106.734 312.981H104.334L107.262 304.981H109.678L106.734 312.981Z" fill="#FFDD85"/>
<path d="M134.172 304.981L128.808 299.617L130.222 298.203L138 305.981L130.222 313.759L128.808 312.345L134.172 306.981H122V304.981H134.172Z" fill="#FFDD85"/>
<g clip-path="url(#clip1_618_5405)">
<path d="M173.598 456.269C173.598 456.269 282.401 497.99 289.559 477.743C296.717 457.496 242.725 422.114 258.268 422.523C273.811 422.932 364.616 484.697 370.956 474.266C377.297 463.835 338.029 427.023 350.71 423.955C363.39 420.887 437.22 458.519 450.718 452.178C464.216 445.838 417.995 411.275 435.175 405.344C452.354 399.413 476.231 417.002 478.021 416.695C479.81 416.389 493.496 395.391 494.177 395.017C494.859 394.641 496.24 394.625 496.547 393.705C496.854 392.784 493.905 391.217 493.445 391.83C492.985 392.444 493.189 394.216 492.916 394.66C492.643 395.103 479.112 413.356 478.975 412.606C478.839 411.856 487.581 391.438 488.604 390.211C489.627 388.984 499.137 377.735 499.904 378.093C500.671 378.451 511.204 388.831 512.329 388.268C513.454 387.706 515.269 385.456 515.269 384.996C515.269 384.536 500.876 374.054 500.928 372.264C500.979 370.475 504.2 365.566 505.29 365.464C506.381 365.362 508.392 367.202 507.506 367.066C506.62 366.93 504.37 364.305 505.665 362.533C506.961 360.761 509.927 358.613 510.403 358.579C510.881 358.545 516.13 361.408 514.903 361.511C513.676 361.613 511.494 358.136 512.312 357.216C513.13 356.295 547.097 314.693 549.04 311.472C550.983 308.25 550.216 306.614 553.539 306.972C556.863 307.33 565.709 314.13 568.98 317.326C572.252 320.522 572.176 323.232 572.738 322.848C573.301 322.465 575.09 320.471 574.528 317.965C573.965 315.46 561.311 303.803 556.147 302.576C550.983 301.349 551.596 306.359 552.772 305.337C553.948 304.314 637.033 203.828 634.034 205.533C631.035 207.238 604.222 239.692 603.54 240.374C602.858 241.056 597.2 244.26 596.382 243.851C595.564 243.442 629.807 203.42 631.443 202.671C633.079 201.921 637.288 202.619 636.93 203.335C636.572 204.051 631.868 201.29 632.38 200.114C632.891 198.938 634.51 196.433 635.056 196.364C635.601 196.296 640.067 197.796 640.1 198.409C640.134 199.023 638.293 201.546 638.396 200.523C638.498 199.5 647.565 187.025 650.632 186.412C653.7 185.798 666.38 196.127 668.527 196.536C670.675 196.945 673.947 192.723 674.049 190.984C674.152 189.246 658.574 178.333 655.302 178.947C652.029 179.56 650.938 183.106 651.347 183.309C651.756 183.514 670.3 194.763 669.344 198.648C668.391 202.532 577.927 317.709 577.518 315.97C577.109 314.232 664.387 202.77 664.438 200.214C664.489 197.657 661.421 193.822 659.734 194.538C658.046 195.254 566.321 310.192 566.73 316.839C567.139 323.486 570.77 327.576 571.639 326.349C572.508 325.122 572.508 324.457 571.588 324.713C570.667 324.968 520.459 383.937 518.277 384.005C516.096 384.074 504.336 372.638 502.632 372.45C500.928 372.263 500.042 375.518 500.28 376.131C500.519 376.745 512.619 386.016 512.585 386.732C512.552 387.448 504.507 398.901 502.257 399.77C500.007 400.639 497.281 400.264 491.247 405.343C485.214 410.422 482.368 414.803 483.237 415.007C484.106 415.212 526.39 409.127 521.891 412.502C517.393 415.876 503.894 416.49 511.665 418.024C519.437 419.558 610.446 418.024 610.446 418.024" stroke="#FFF3C1" stroke-width="3" stroke-miterlimit="10"/>
</g>
</g>
<rect x="0.75" y="0.730835" width="606.5" height="482.5" stroke="#F9EAAA" stroke-width="0.5"/>
<defs>
<radialGradient id="paint0_radial_618_5405" cx="0" cy="0" r="1" gradientUnits="userSpaceOnUse" gradientTransform="translate(304 26.8215) rotate(90) scale(456.159 573.512)">
<stop stop-color="#111111" stop-opacity="0"/>
<stop offset="0.525" stop-color="#1F1B0D" stop-opacity="0.64"/>
<stop offset="0.95" stop-color="#29220E"/>
</radialGradient>
<clipPath id="clip0_618_5405">
<rect x="1" y="0.980835" width="606" height="482" fill="white"/>
</clipPath>
<clipPath id="clip1_618_5405">
<rect width="501.197" height="305.463" fill="white" transform="translate(173.401 178.372)"/>
</clipPath>
</defs>
</svg>
