<svg width="608" height="484" viewBox="0 0 608 484" fill="none" xmlns="http://www.w3.org/2000/svg">
<g clip-path="url(#clip0_610_5523)">
<rect x="1" y="0.980835" width="606" height="482" fill="url(#paint0_radial_610_5523)"/>
<ellipse cx="0.400895" cy="0.489815" rx="0.400895" ry="0.489815" transform="matrix(0.998524 -0.054307 -0.054307 -0.998524 561.713 397.83)" fill="#FFE8AB"/>
<ellipse cx="0.400895" cy="0.489815" rx="0.400895" ry="0.489815" transform="matrix(0.998524 -0.054307 -0.054307 -0.998524 577.009 436.948)" fill="#FFE8AB"/>
<ellipse cx="0.400895" cy="0.489815" rx="0.400895" ry="0.489815" transform="matrix(0.998524 -0.054307 -0.054307 -0.998524 518.851 352.676)" fill="#FFE8AB"/>
<ellipse cx="0.400895" cy="0.489815" rx="0.400895" ry="0.489815" transform="matrix(0.998524 -0.054307 -0.054307 -0.998524 543.576 436.412)" fill="#FFE8AB"/>
<ellipse cx="0.400895" cy="0.489815" rx="0.400895" ry="0.489815" transform="matrix(0.998524 -0.054307 -0.054307 -0.998524 507.651 382.993)" fill="#FFE8AB"/>
<ellipse cx="0.400895" cy="0.489815" rx="0.400895" ry="0.489815" transform="matrix(0.998524 -0.054307 -0.054307 -0.998524 603.25 272.306)" fill="#FFE8AB"/>
<ellipse cx="0.400895" cy="0.489815" rx="0.400895" ry="0.489815" transform="matrix(0.998524 -0.054307 -0.054307 -0.998524 508.289 173.239)" fill="#FFE8AB"/>
<ellipse cx="0.400895" cy="0.489815" rx="0.400895" ry="0.489815" transform="matrix(0.998524 -0.054307 -0.054307 -0.998524 595.571 145.888)" fill="#FFE8AB"/>
<ellipse cx="0.400895" cy="0.489815" rx="0.400895" ry="0.489815" transform="matrix(0.998524 -0.054307 -0.054307 -0.998524 483.397 362.244)" fill="#FFE8AB"/>
<ellipse cx="0.400895" cy="0.489815" rx="0.400895" ry="0.489815" transform="matrix(0.998524 -0.054307 -0.054307 -0.998524 503.065 452.77)" fill="#FFE8AB"/>
<ellipse cx="0.400895" cy="0.489815" rx="0.400895" ry="0.489815" transform="matrix(0.998524 -0.054307 -0.054307 -0.998524 589.838 377.542)" fill="#FFE8AB"/>
<ellipse cx="0.400895" cy="0.489815" rx="0.400895" ry="0.489815" transform="matrix(0.998524 -0.054307 -0.054307 -0.998524 575.529 353.047)" fill="#FFE8AB"/>
<ellipse cx="0.400895" cy="0.489815" rx="0.400895" ry="0.489815" transform="matrix(-0.998524 0.054307 0.054307 0.998524 54.4766 386.043)" fill="#FFE8AB"/>
<ellipse cx="0.400895" cy="0.489815" rx="0.400895" ry="0.489815" transform="matrix(-0.998524 0.054307 0.054307 0.998524 39.1797 346.925)" fill="#FFE8AB"/>
<ellipse cx="0.400895" cy="0.489815" rx="0.400895" ry="0.489815" transform="matrix(-0.998524 0.054307 0.054307 0.998524 97.3389 431.197)" fill="#FFE8AB"/>
<ellipse cx="0.400895" cy="0.489815" rx="0.400895" ry="0.489815" transform="matrix(-0.998524 0.054307 0.054307 0.998524 72.6138 347.461)" fill="#FFE8AB"/>
<ellipse cx="0.400895" cy="0.489815" rx="0.400895" ry="0.489815" transform="matrix(-0.998524 0.054307 0.054307 0.998524 108.538 400.88)" fill="#FFE8AB"/>
<ellipse cx="0.400895" cy="0.489815" rx="0.400895" ry="0.489815" transform="matrix(-0.998524 0.054307 0.054307 0.998524 132.792 421.629)" fill="#FFE8AB"/>
<ellipse cx="0.400895" cy="0.489815" rx="0.400895" ry="0.489815" transform="matrix(-0.998524 0.054307 0.054307 0.998524 113.124 331.103)" fill="#FFE8AB"/>
<ellipse cx="0.400895" cy="0.489815" rx="0.400895" ry="0.489815" transform="matrix(-0.998524 0.054307 0.054307 0.998524 26.3511 406.331)" fill="#FFE8AB"/>
<ellipse cx="0.400895" cy="0.489815" rx="0.400895" ry="0.489815" transform="matrix(-0.998524 0.054307 0.054307 0.998524 40.6597 430.826)" fill="#FFE8AB"/>
<path d="M48.36 123.608V101.208H52.936V123.608H48.36ZM41.416 105.368V101.208H59.88V105.368H41.416ZM65.6253 123.608H61.2413V99.6085H65.6253V123.608ZM77.7213 123.608H73.3373V115.192C73.3373 114.574 73.2839 114.019 73.1773 113.528C73.0706 113.016 72.8786 112.59 72.6013 112.248C72.3239 111.907 71.9399 111.651 71.4493 111.48C70.9799 111.288 70.3826 111.192 69.6573 111.192C68.3346 111.192 67.3319 111.566 66.6493 112.312C65.9666 113.038 65.6253 114.136 65.6253 115.608V116.024H64.2493V115.608C64.2493 114.35 64.3773 113.208 64.6333 112.184C64.8893 111.139 65.2839 110.243 65.8173 109.496C66.3506 108.75 67.0333 108.174 67.8653 107.768C68.7186 107.342 69.7533 107.128 70.9693 107.128C72.0786 107.128 73.0493 107.267 73.8813 107.544C74.7346 107.8 75.4386 108.227 75.9933 108.824C76.5693 109.422 76.9959 110.211 77.2733 111.192C77.5719 112.152 77.7213 113.347 77.7213 114.776V123.608ZM96.2003 116.248V116.888H91.9763V114.808C91.9763 114.104 91.8803 113.496 91.6883 112.984C91.4963 112.472 91.2189 112.056 90.8563 111.736C90.5149 111.395 90.0989 111.15 89.6083 111C89.1176 110.83 88.5629 110.744 87.9443 110.744C87.3683 110.744 86.8243 110.851 86.3123 111.064C85.8216 111.256 85.3949 111.555 85.0323 111.96C84.6696 112.366 84.3816 112.878 84.1683 113.496C83.9763 114.094 83.8803 114.798 83.8803 115.608C83.8803 116.526 83.9763 117.294 84.1683 117.912C84.3603 118.531 84.6483 119.032 85.0323 119.416C85.4163 119.779 85.8856 120.046 86.4403 120.216C86.9949 120.387 87.6243 120.472 88.3283 120.472C88.8616 120.472 89.3523 120.408 89.8003 120.28C90.2696 120.152 90.6643 119.992 90.9843 119.8C91.3256 119.587 91.5816 119.342 91.7523 119.064C91.9443 118.766 92.0403 118.467 92.0403 118.168H96.0083C96.0083 119.939 95.3469 121.368 94.0243 122.456C92.7229 123.544 90.8136 124.088 88.2963 124.088C85.2669 124.088 83.0163 123.374 81.5443 121.944C80.0723 120.515 79.3363 118.403 79.3363 115.608C79.3363 112.878 80.0509 110.787 81.4803 109.336C82.9309 107.864 85.0109 107.128 87.7203 107.128C90.7496 107.128 92.9149 107.886 94.2163 109.4C95.5389 110.915 96.2003 113.198 96.2003 116.248ZM81.2563 116.888V113.784H94.7283V116.888H81.2563ZM113.982 114.648C112.702 114.414 111.529 114.147 110.462 113.848C109.395 113.528 108.478 113.112 107.71 112.6C106.942 112.067 106.345 111.406 105.918 110.616C105.491 109.827 105.278 108.846 105.278 107.672C105.278 105.198 106.078 103.427 107.678 102.36C109.278 101.272 111.795 100.728 115.23 100.728C116.745 100.728 118.099 100.867 119.294 101.144C120.489 101.4 121.502 101.827 122.334 102.424C123.166 103.022 123.806 103.811 124.254 104.792C124.702 105.752 124.926 106.936 124.926 108.344H120.542C120.542 107.619 120.382 107.043 120.062 106.616C119.763 106.168 119.347 105.827 118.814 105.592C118.302 105.358 117.694 105.208 116.99 105.144C116.307 105.08 115.593 105.048 114.846 105.048C113.971 105.048 113.225 105.102 112.606 105.208C112.009 105.294 111.518 105.432 111.134 105.624C110.75 105.816 110.473 106.062 110.302 106.36C110.131 106.638 110.046 106.968 110.046 107.352C110.046 107.736 110.153 108.067 110.366 108.344C110.601 108.622 110.953 108.856 111.422 109.048C111.913 109.219 112.531 109.379 113.278 109.528C114.046 109.678 114.953 109.838 115.998 110.008C117.449 110.222 118.739 110.499 119.87 110.84C121.001 111.16 121.961 111.598 122.75 112.152C123.539 112.707 124.137 113.4 124.542 114.232C124.969 115.043 125.182 116.056 125.182 117.272C125.182 119.683 124.361 121.422 122.718 122.488C121.097 123.555 118.526 124.088 115.006 124.088C113.491 124.088 112.115 123.95 110.878 123.672C109.662 123.416 108.627 122.99 107.774 122.392C106.942 121.795 106.291 121.016 105.822 120.056C105.374 119.075 105.15 117.88 105.15 116.472H109.534C109.534 117.219 109.694 117.816 110.014 118.264C110.334 118.691 110.761 119.022 111.294 119.256C111.849 119.491 112.489 119.651 113.214 119.736C113.939 119.8 114.686 119.832 115.454 119.832C117.139 119.832 118.387 119.651 119.198 119.288C120.03 118.926 120.446 118.328 120.446 117.496C120.446 116.942 120.243 116.504 119.838 116.184C119.454 115.864 118.942 115.619 118.302 115.448C117.683 115.256 116.99 115.107 116.222 115C115.454 114.894 114.707 114.776 113.982 114.648ZM129.648 117.784V107.608L131.344 101.208H134V117.336C134 117.699 134.021 118.051 134.064 118.392C134.128 118.734 134.224 119.022 134.352 119.256C134.501 119.491 134.704 119.683 134.96 119.832C135.216 119.96 135.546 120.024 135.952 120.024C136.272 120.024 136.56 119.992 136.816 119.928C137.072 119.843 137.296 119.704 137.488 119.512C137.68 119.32 137.829 119.064 137.936 118.744C138.042 118.403 138.096 117.998 138.096 117.528H142.032C142.032 118.766 141.893 119.811 141.616 120.664C141.338 121.496 140.922 122.168 140.368 122.68C139.834 123.192 139.184 123.555 138.416 123.768C137.648 123.982 136.762 124.088 135.76 124.088C134.757 124.088 133.861 123.96 133.072 123.704C132.304 123.47 131.664 123.096 131.152 122.584C130.661 122.051 130.288 121.39 130.032 120.6C129.776 119.811 129.648 118.872 129.648 117.784ZM126.128 107.608H141.808V111.544H126.128V107.608ZM155.06 118.008H155.508C155.508 118.84 155.454 119.63 155.348 120.376C155.241 121.102 154.996 121.742 154.612 122.296C154.228 122.851 153.63 123.288 152.82 123.608C152.03 123.928 150.942 124.088 149.556 124.088C148.596 124.088 147.689 124.014 146.836 123.864C146.004 123.715 145.268 123.448 144.628 123.064C144.009 122.68 143.518 122.158 143.156 121.496C142.814 120.835 142.644 120.003 142.644 119C142.644 118.168 142.793 117.464 143.092 116.888C143.412 116.312 143.86 115.832 144.436 115.448C145.012 115.064 145.716 114.766 146.548 114.552C147.38 114.318 148.318 114.147 149.364 114.04L156.372 113.4L156.692 116.408L150.196 117.048C149.748 117.091 149.332 117.155 148.948 117.24C148.585 117.326 148.276 117.443 148.02 117.592C147.764 117.72 147.561 117.902 147.412 118.136C147.262 118.35 147.188 118.616 147.188 118.936C147.188 119.171 147.241 119.384 147.348 119.576C147.476 119.768 147.668 119.939 147.924 120.088C148.18 120.216 148.5 120.312 148.884 120.376C149.268 120.44 149.726 120.472 150.26 120.472C151.092 120.472 151.806 120.398 152.404 120.248C153.022 120.078 153.524 119.875 153.908 119.64C154.292 119.406 154.58 119.15 154.772 118.872C154.964 118.574 155.06 118.286 155.06 118.008ZM155.06 113.464C155.06 112.846 154.932 112.366 154.676 112.024C154.42 111.662 154.1 111.384 153.716 111.192C153.332 111 152.916 110.883 152.468 110.84C152.02 110.776 151.593 110.744 151.188 110.744C150.804 110.744 150.388 110.766 149.94 110.808C149.513 110.851 149.108 110.958 148.724 111.128C148.361 111.278 148.062 111.512 147.828 111.832C147.593 112.152 147.476 112.59 147.476 113.144H143.54C143.54 112.035 143.71 111.107 144.052 110.36C144.414 109.592 144.926 108.974 145.588 108.504C146.27 108.014 147.092 107.662 148.052 107.448C149.012 107.235 150.078 107.128 151.252 107.128C152.638 107.128 153.833 107.235 154.836 107.448C155.86 107.662 156.713 108.035 157.396 108.568C158.078 109.102 158.58 109.827 158.9 110.744C159.241 111.662 159.412 112.803 159.412 114.168V123.608H155.06V113.464ZM166.035 123.608H161.651V107.608H166.035V123.608ZM176.531 114.072H172.595C172.595 113.646 172.531 113.262 172.403 112.92C172.275 112.558 172.083 112.248 171.827 111.992C171.571 111.736 171.251 111.544 170.867 111.416C170.483 111.267 170.057 111.192 169.587 111.192C168.457 111.192 167.582 111.566 166.963 112.312C166.345 113.038 166.035 114.136 166.035 115.608V116.024H164.659V115.608C164.659 114.35 164.787 113.208 165.043 112.184C165.321 111.139 165.705 110.243 166.195 109.496C166.707 108.75 167.326 108.174 168.051 107.768C168.798 107.342 169.651 107.128 170.611 107.128C171.55 107.128 172.382 107.267 173.107 107.544C173.854 107.822 174.473 108.248 174.963 108.824C175.475 109.379 175.859 110.094 176.115 110.968C176.393 111.843 176.531 112.878 176.531 114.072ZM180.696 117.784V107.608L182.392 101.208H185.048V117.336C185.048 117.699 185.07 118.051 185.112 118.392C185.176 118.734 185.272 119.022 185.4 119.256C185.55 119.491 185.752 119.683 186.008 119.832C186.264 119.96 186.595 120.024 187 120.024C187.32 120.024 187.608 119.992 187.864 119.928C188.12 119.843 188.344 119.704 188.536 119.512C188.728 119.32 188.878 119.064 188.984 118.744C189.091 118.403 189.144 117.998 189.144 117.528H193.08C193.08 118.766 192.942 119.811 192.664 120.664C192.387 121.496 191.971 122.168 191.416 122.68C190.883 123.192 190.232 123.555 189.464 123.768C188.696 123.982 187.811 124.088 186.808 124.088C185.806 124.088 184.91 123.96 184.12 123.704C183.352 123.47 182.712 123.096 182.2 122.584C181.71 122.051 181.336 121.39 181.08 120.6C180.824 119.811 180.696 118.872 180.696 117.784ZM177.176 107.608H192.856V111.544H177.176V107.608ZM194.333 107.608H198.717V116.024C198.717 116.643 198.77 117.208 198.877 117.72C198.983 118.211 199.175 118.627 199.453 118.968C199.73 119.31 200.103 119.576 200.573 119.768C201.063 119.939 201.671 120.024 202.397 120.024C203.719 120.024 204.722 119.662 205.405 118.936C206.087 118.19 206.429 117.08 206.429 115.608V115.192H207.805V115.608C207.805 116.867 207.677 118.019 207.421 119.064C207.165 120.088 206.77 120.974 206.237 121.72C205.703 122.467 205.01 123.054 204.157 123.48C203.325 123.886 202.301 124.088 201.085 124.088C199.975 124.088 198.994 123.95 198.141 123.672C197.309 123.416 196.605 122.99 196.029 122.392C195.474 121.795 195.047 121.016 194.749 120.056C194.471 119.075 194.333 117.87 194.333 116.44V107.608ZM206.429 107.608H210.813V123.608H206.429V107.608ZM217.772 130.008H213.388V107.608H217.772V130.008ZM229.868 115.608C229.868 116.995 229.676 118.222 229.292 119.288C228.908 120.334 228.385 121.219 227.724 121.944C227.062 122.648 226.294 123.182 225.42 123.544C224.545 123.907 223.606 124.088 222.604 124.088C221.388 124.088 220.406 123.864 219.66 123.416C218.913 122.947 218.326 122.328 217.9 121.56C217.473 120.792 217.174 119.896 217.004 118.872C216.854 117.848 216.78 116.76 216.78 115.608C216.78 114.328 216.865 113.166 217.036 112.12C217.206 111.075 217.505 110.19 217.932 109.464C218.38 108.718 218.988 108.142 219.756 107.736C220.524 107.331 221.505 107.128 222.7 107.128C223.766 107.128 224.737 107.31 225.612 107.672C226.508 108.035 227.265 108.579 227.884 109.304C228.524 110.008 229.014 110.894 229.356 111.96C229.697 113.006 229.868 114.222 229.868 115.608ZM225.324 115.608C225.324 114.136 225.036 113.038 224.46 112.312C223.884 111.566 222.924 111.192 221.58 111.192C220.321 111.192 219.372 111.566 218.732 112.312C218.092 113.038 217.772 114.136 217.772 115.608C217.772 117.059 218.092 118.158 218.732 118.904C219.372 119.651 220.321 120.024 221.58 120.024C222.156 120.024 222.678 119.928 223.148 119.736C223.617 119.544 224.012 119.267 224.332 118.904C224.652 118.52 224.897 118.062 225.068 117.528C225.238 116.974 225.324 116.334 225.324 115.608ZM239.451 123.608V101.208H244.027V123.608H239.451ZM241.147 123.608V119.448H257.147V123.608H241.147ZM270.205 118.008H270.653C270.653 118.84 270.599 119.63 270.493 120.376C270.386 121.102 270.141 121.742 269.757 122.296C269.373 122.851 268.775 123.288 267.965 123.608C267.175 123.928 266.087 124.088 264.701 124.088C263.741 124.088 262.834 124.014 261.981 123.864C261.149 123.715 260.413 123.448 259.773 123.064C259.154 122.68 258.663 122.158 258.301 121.496C257.959 120.835 257.789 120.003 257.789 119C257.789 118.168 257.938 117.464 258.237 116.888C258.557 116.312 259.005 115.832 259.581 115.448C260.157 115.064 260.861 114.766 261.693 114.552C262.525 114.318 263.463 114.147 264.509 114.04L271.517 113.4L271.837 116.408L265.341 117.048C264.893 117.091 264.477 117.155 264.093 117.24C263.73 117.326 263.421 117.443 263.165 117.592C262.909 117.72 262.706 117.902 262.557 118.136C262.407 118.35 262.333 118.616 262.333 118.936C262.333 119.171 262.386 119.384 262.493 119.576C262.621 119.768 262.813 119.939 263.069 120.088C263.325 120.216 263.645 120.312 264.029 120.376C264.413 120.44 264.871 120.472 265.405 120.472C266.237 120.472 266.951 120.398 267.549 120.248C268.167 120.078 268.669 119.875 269.053 119.64C269.437 119.406 269.725 119.15 269.917 118.872C270.109 118.574 270.205 118.286 270.205 118.008ZM270.205 113.464C270.205 112.846 270.077 112.366 269.821 112.024C269.565 111.662 269.245 111.384 268.861 111.192C268.477 111 268.061 110.883 267.613 110.84C267.165 110.776 266.738 110.744 266.333 110.744C265.949 110.744 265.533 110.766 265.085 110.808C264.658 110.851 264.253 110.958 263.869 111.128C263.506 111.278 263.207 111.512 262.973 111.832C262.738 112.152 262.621 112.59 262.621 113.144H258.685C258.685 112.035 258.855 111.107 259.197 110.36C259.559 109.592 260.071 108.974 260.733 108.504C261.415 108.014 262.237 107.662 263.197 107.448C264.157 107.235 265.223 107.128 266.397 107.128C267.783 107.128 268.978 107.235 269.981 107.448C271.005 107.662 271.858 108.035 272.541 108.568C273.223 109.102 273.725 109.827 274.045 110.744C274.386 111.662 274.557 112.803 274.557 114.168V123.608H270.205V113.464ZM281.18 123.608H276.796V99.6085H281.18V123.608ZM293.276 115.608C293.276 116.995 293.084 118.222 292.7 119.288C292.316 120.334 291.794 121.219 291.132 121.944C290.471 122.648 289.703 123.182 288.828 123.544C287.954 123.907 287.015 124.088 286.012 124.088C284.796 124.088 283.815 123.864 283.068 123.416C282.322 122.947 281.735 122.328 281.308 121.56C280.882 120.792 280.583 119.896 280.412 118.872C280.263 117.848 280.188 116.76 280.188 115.608C280.188 114.328 280.274 113.166 280.444 112.12C280.615 111.075 280.914 110.19 281.34 109.464C281.788 108.718 282.396 108.142 283.164 107.736C283.932 107.331 284.914 107.128 286.108 107.128C287.175 107.128 288.146 107.31 289.02 107.672C289.916 108.035 290.674 108.579 291.292 109.304C291.932 110.008 292.423 110.894 292.764 111.96C293.106 113.006 293.276 114.222 293.276 115.608ZM288.732 115.608C288.732 114.136 288.444 113.038 287.868 112.312C287.292 111.566 286.332 111.192 284.988 111.192C283.73 111.192 282.78 111.566 282.14 112.312C281.5 113.038 281.18 114.136 281.18 115.608C281.18 117.059 281.5 118.158 282.14 118.904C282.78 119.651 283.73 120.024 284.988 120.024C285.564 120.024 286.087 119.928 286.556 119.736C287.026 119.544 287.42 119.267 287.74 118.904C288.06 118.52 288.306 118.062 288.476 117.528C288.647 116.974 288.732 116.334 288.732 115.608Z" fill="#FFF3C1"/>
<path d="M49.02 178.908C44.02 178.908 41.6 176.508 41.6 171.588C41.6 166.668 43.86 164.308 48.54 164.308C52.84 164.308 55.28 165.748 55.28 169.468H52.98C52.98 167.008 50.66 166.548 48.46 166.548C45.28 166.548 44.1 168.068 44.1 171.568C44.1 175.128 45.72 176.648 49.1 176.648C51.02 176.648 53.06 176.308 53.06 173.928H55.36C55.36 177.648 52.84 178.908 49.02 178.908ZM55.9656 173.608C55.9656 170.128 57.7856 168.308 61.5656 168.308C65.3456 168.308 67.1656 170.128 67.1656 173.608C67.1656 177.088 65.3456 178.908 61.5656 178.908C57.7856 178.908 55.9656 177.088 55.9656 173.608ZM58.3656 173.608C58.3656 175.668 59.4056 176.748 61.5656 176.748C63.7256 176.748 64.7656 175.668 64.7656 173.608C64.7656 171.528 63.7256 170.448 61.5656 170.448C59.3256 170.448 58.3656 171.528 58.3656 173.608ZM78.528 178.608H76.228V173.228C76.228 171.528 75.708 170.448 73.568 170.448C71.668 170.448 70.668 171.528 70.668 173.588V178.608H68.368V168.608H70.668V170.008C71.328 168.928 72.468 168.308 74.208 168.308C77.108 168.308 78.528 169.628 78.528 173.028V178.608ZM90.0811 178.608H87.7811V173.228C87.7811 171.528 87.2611 170.448 85.1211 170.448C83.2211 170.448 82.2211 171.528 82.2211 173.588V178.608H79.9211V168.608H82.2211V170.008C82.8811 168.928 84.0211 168.308 85.7611 168.308C88.6611 168.308 90.0811 169.628 90.0811 173.028V178.608ZM101.574 173.888V174.288H93.5142C93.7142 176.268 94.8542 176.948 96.6742 176.948C98.2342 176.948 99.3542 176.148 99.3542 175.188L101.454 175.208C101.454 177.408 99.7742 178.908 96.6742 178.908C92.9142 178.908 91.0742 177.068 91.0742 173.588C91.0742 170.188 92.9342 168.308 96.3142 168.308C100.074 168.308 101.574 170.208 101.574 173.888ZM93.5742 172.588H99.2942C99.0742 170.948 97.9742 170.248 96.4142 170.248C95.0142 170.248 93.8942 171.048 93.5742 172.588ZM107.813 168.308C110.993 168.308 112.673 170.208 112.673 172.608H110.573C110.573 171.348 109.633 170.448 107.793 170.448C105.993 170.448 104.773 171.268 104.773 173.568C104.773 175.968 106.133 176.748 107.913 176.748C109.793 176.748 110.653 175.848 110.653 174.608H112.753C112.753 177.008 111.213 178.908 107.853 178.908C104.293 178.908 102.373 177.088 102.373 173.608C102.373 170.088 104.033 168.308 107.813 168.308ZM115.56 175.048V170.708H113.16V168.608H115.56L116.36 164.608H117.86L117.84 168.608H122.86V170.708H117.86V174.748C117.86 175.788 118.04 176.748 119.26 176.748C120.16 176.748 120.84 176.308 120.84 174.808H122.94C122.94 177.908 121.52 178.908 119.18 178.908C116.82 178.908 115.56 177.788 115.56 175.048ZM131.1 178.608L127.4 168.608H129.94L132.36 175.188L134.8 168.608H137.34L139.76 175.188L142.2 168.608H144.74L141.04 178.608H138.5L136.06 172.028L133.64 178.608H131.1ZM144.603 165.568C144.603 164.548 145.043 164.068 146.103 164.068C147.143 164.068 147.603 164.548 147.603 165.568C147.603 166.568 147.143 167.068 146.103 167.068C145.043 167.068 144.603 166.568 144.603 165.568ZM144.943 178.608V168.608H147.243V178.608H144.943ZM150.64 175.048V170.708H148.24V168.608H150.64L151.44 164.608H152.94L152.92 168.608H157.94V170.708H152.94V174.748C152.94 175.788 153.12 176.748 154.34 176.748C155.24 176.748 155.92 176.308 155.92 174.808H158.02C158.02 177.908 156.6 178.908 154.26 178.908C151.9 178.908 150.64 177.788 150.64 175.048ZM161.384 178.608H159.084V163.608H161.384V170.008C162.044 168.928 163.184 168.308 164.924 168.308C167.824 168.308 169.244 169.628 169.244 173.028V178.608H166.944V173.228C166.944 171.528 166.424 170.448 164.284 170.448C162.384 170.448 161.384 171.528 161.384 173.588V178.608ZM183.293 178.608V177.088C182.713 178.188 181.693 178.908 179.893 178.908C177.113 178.908 175.033 177.088 175.033 173.608C175.033 170.128 176.813 168.308 179.813 168.308C181.653 168.308 182.713 168.948 183.293 170.068V163.608H185.593V178.608H183.293ZM177.433 173.588C177.433 175.648 178.433 176.748 180.333 176.748C182.293 176.748 183.293 175.648 183.293 173.588C183.293 171.528 182.293 170.448 180.333 170.448C178.153 170.448 177.433 171.528 177.433 173.588ZM189.501 178.608H187.201V168.608H189.501V169.988C190.121 168.928 191.141 168.308 192.521 168.308C194.941 168.308 196.241 169.728 196.241 172.648H194.141C194.141 171.348 193.501 170.448 192.021 170.448C190.441 170.448 189.501 171.528 189.501 173.588V178.608ZM206.979 173.888V174.288H198.919C199.119 176.268 200.259 176.948 202.079 176.948C203.639 176.948 204.759 176.148 204.759 175.188L206.859 175.208C206.859 177.408 205.179 178.908 202.079 178.908C198.319 178.908 196.479 177.068 196.479 173.588C196.479 170.188 198.339 168.308 201.719 168.308C205.479 168.308 206.979 170.208 206.979 173.888ZM198.979 172.588H204.699C204.479 170.948 203.379 170.248 201.819 170.248C200.419 170.248 199.299 171.048 198.979 172.588ZM215.518 172.228C215.518 170.408 213.938 170.248 212.838 170.248C211.698 170.248 210.238 170.368 210.238 172.068H208.138C208.138 169.368 209.938 168.308 212.838 168.308C216.178 168.308 217.818 169.368 217.818 172.568V178.608H215.518V177.248C215.118 178.228 214.178 178.908 211.978 178.908C209.458 178.908 207.578 178.248 207.578 175.768C207.578 173.768 209.158 172.928 211.978 172.628L215.518 172.268V172.228ZM215.518 173.928L212.318 174.248C211.018 174.388 209.978 174.748 209.978 175.728C209.978 176.488 210.578 176.948 212.298 176.948C214.538 176.948 215.418 175.988 215.518 175.248V173.928ZM228.483 178.608H226.183V172.828C226.183 171.528 225.743 170.448 223.963 170.448C222.363 170.448 221.523 171.528 221.523 173.588V178.608H219.223V168.608H221.523V169.988C222.163 168.928 223.203 168.308 224.783 168.308C226.283 168.308 227.343 168.868 227.923 169.968C228.523 169.008 229.563 168.308 231.223 168.308C234.143 168.308 235.423 169.628 235.423 173.028V178.608H233.123V173.228C233.123 171.528 232.683 170.448 230.923 170.448C229.303 170.448 228.483 171.528 228.483 172.848V178.608ZM246.931 173.888V174.288H238.871C239.071 176.268 240.211 176.948 242.031 176.948C243.591 176.948 244.711 176.148 244.711 175.188L246.811 175.208C246.811 177.408 245.131 178.908 242.031 178.908C238.271 178.908 236.431 177.068 236.431 173.588C236.431 170.188 238.291 168.308 241.671 168.308C245.431 168.308 246.931 170.208 246.931 173.888ZM238.931 172.588H244.651C244.431 170.948 243.331 170.248 241.771 170.248C240.371 170.248 239.251 171.048 238.931 172.588ZM250.43 178.608H248.13V168.608H250.43V169.988C251.05 168.928 252.07 168.308 253.45 168.308C255.87 168.308 257.17 169.728 257.17 172.648H255.07C255.07 171.348 254.43 170.448 252.95 170.448C251.37 170.448 250.43 171.528 250.43 173.588V178.608ZM257.82 171.308C257.82 169.188 259.4 168.308 262.48 168.308C265.96 168.308 267.52 169.408 267.52 172.008H265.42C265.42 170.648 264.26 170.248 262.08 170.248C260.18 170.248 259.82 170.768 259.82 171.268C259.82 171.828 260.66 172.228 262.9 172.628C265.74 173.128 267.64 173.428 267.64 175.848C267.64 178.048 266.04 178.908 263.02 178.908C259.4 178.908 257.78 177.808 257.78 175.208H259.88C259.88 176.508 261.26 176.948 263.32 176.948C265 176.948 265.64 176.528 265.64 175.908C265.64 175.008 264.52 174.968 262.42 174.608C260.24 174.268 257.82 173.688 257.82 171.308ZM280.97 172.228C280.97 170.408 279.39 170.248 278.29 170.248C277.15 170.248 275.69 170.368 275.69 172.068H273.59C273.59 169.368 275.39 168.308 278.29 168.308C281.63 168.308 283.27 169.368 283.27 172.568V178.608H280.97V177.248C280.57 178.228 279.63 178.908 277.43 178.908C274.91 178.908 273.03 178.248 273.03 175.768C273.03 173.768 274.61 172.928 277.43 172.628L280.97 172.268V172.228ZM280.97 173.928L277.77 174.248C276.47 174.388 275.43 174.748 275.43 175.728C275.43 176.488 276.03 176.948 277.75 176.948C279.99 176.948 280.87 175.988 280.97 175.248V173.928ZM294.835 178.608H292.535V173.228C292.535 171.528 292.015 170.448 289.875 170.448C287.975 170.448 286.975 171.528 286.975 173.588V178.608H284.675V168.608H286.975V170.008C287.635 168.928 288.775 168.308 290.515 168.308C293.415 168.308 294.835 169.628 294.835 173.028V178.608ZM304.088 178.608V177.088C303.508 178.188 302.488 178.908 300.688 178.908C297.908 178.908 295.828 177.088 295.828 173.608C295.828 170.128 297.608 168.308 300.608 168.308C302.448 168.308 303.508 168.948 304.088 170.068V163.608H306.388V178.608H304.088ZM298.228 173.588C298.228 175.648 299.228 176.748 301.128 176.748C303.088 176.748 304.088 175.648 304.088 173.588C304.088 171.528 303.088 170.448 301.128 170.448C298.948 170.448 298.228 171.528 298.228 173.588ZM320.651 178.608V177.088C320.071 178.188 319.051 178.908 317.251 178.908C314.471 178.908 312.391 177.088 312.391 173.608C312.391 170.128 314.171 168.308 317.171 168.308C319.011 168.308 320.071 168.948 320.651 170.068V163.608H322.951V178.608H320.651ZM314.791 173.588C314.791 175.648 315.791 176.748 317.691 176.748C319.651 176.748 320.651 175.648 320.651 173.588C320.651 171.528 319.651 170.448 317.691 170.448C315.511 170.448 314.791 171.528 314.791 173.588ZM324.159 173.608C324.159 170.128 325.979 168.308 329.759 168.308C333.539 168.308 335.359 170.128 335.359 173.608C335.359 177.088 333.539 178.908 329.759 178.908C325.979 178.908 324.159 177.088 324.159 173.608ZM326.559 173.608C326.559 175.668 327.599 176.748 329.759 176.748C331.919 176.748 332.959 175.668 332.959 173.608C332.959 171.528 331.919 170.448 329.759 170.448C327.519 170.448 326.559 171.528 326.559 173.608ZM346.662 173.888V174.288H338.602C338.802 176.268 339.942 176.948 341.762 176.948C343.322 176.948 344.442 176.148 344.442 175.188L346.542 175.208C346.542 177.408 344.862 178.908 341.762 178.908C338.002 178.908 336.162 177.068 336.162 173.588C336.162 170.188 338.022 168.308 341.402 168.308C345.162 168.308 346.662 170.208 346.662 173.888ZM338.662 172.588H344.382C344.162 170.948 343.062 170.248 341.502 170.248C340.102 170.248 338.982 171.048 338.662 172.588ZM350.161 178.608H347.861V168.608H350.161V169.988C350.781 168.928 351.801 168.308 353.181 168.308C355.601 168.308 356.901 169.728 356.901 172.648H354.801C354.801 171.348 354.161 170.448 352.681 170.448C351.101 170.448 350.161 171.528 350.161 173.588V178.608ZM357.55 171.308C357.55 169.188 359.13 168.308 362.21 168.308C365.69 168.308 367.25 169.408 367.25 172.008H365.15C365.15 170.648 363.99 170.248 361.81 170.248C359.91 170.248 359.55 170.768 359.55 171.268C359.55 171.828 360.39 172.228 362.63 172.628C365.47 173.128 367.37 173.428 367.37 175.848C367.37 178.048 365.77 178.908 362.75 178.908C359.13 178.908 357.51 177.808 357.51 175.208H359.61C359.61 176.508 360.99 176.948 363.05 176.948C364.73 176.948 365.37 176.528 365.37 175.908C365.37 175.008 364.25 174.968 362.15 174.608C359.97 174.268 357.55 173.688 357.55 171.308ZM43.8 205.048V200.708H41.4V198.608H43.8L44.6 194.608H46.1L46.08 198.608H51.1V200.708H46.1V204.748C46.1 205.788 46.28 206.748 47.5 206.748C48.4 206.748 49.08 206.308 49.08 204.808H51.18C51.18 207.908 49.76 208.908 47.42 208.908C45.06 208.908 43.8 207.788 43.8 205.048ZM52.0445 198.608H54.3445V203.988C54.3445 205.668 54.8645 206.748 57.0045 206.748C58.9045 206.748 59.9045 205.668 59.9045 203.608V198.608H62.2045V208.608H59.9045V207.208C59.2245 208.288 58.1045 208.908 56.3645 208.908C53.4645 208.908 52.0445 207.588 52.0445 204.168V198.608ZM66.0977 208.608H63.7977V198.608H66.0977V199.988C66.7177 198.928 67.7377 198.308 69.1177 198.308C71.5377 198.308 72.8377 199.728 72.8377 202.648H70.7377C70.7377 201.348 70.0977 200.448 68.6177 200.448C67.0377 200.448 66.0977 201.528 66.0977 203.588V208.608ZM84.0069 208.608H81.7069V203.228C81.7069 201.528 81.1869 200.448 79.0469 200.448C77.1469 200.448 76.1469 201.528 76.1469 203.588V208.608H73.8469V198.608H76.1469V200.008C76.8069 198.928 77.9469 198.308 79.6869 198.308C82.5869 198.308 84.0069 199.628 84.0069 203.028V208.608ZM85.06 195.568C85.06 194.548 85.5 194.068 86.56 194.068C87.6 194.068 88.06 194.548 88.06 195.568C88.06 196.568 87.6 197.068 86.56 197.068C85.5 197.068 85.06 196.568 85.06 195.568ZM85.4 208.608V198.608H87.7V208.608H85.4ZM99.4569 208.608H97.1569V203.228C97.1569 201.528 96.6369 200.448 94.4969 200.448C92.5969 200.448 91.5969 201.528 91.5969 203.588V208.608H89.2969V198.608H91.5969V200.008C92.2569 198.928 93.3969 198.308 95.1369 198.308C98.0369 198.308 99.4569 199.628 99.4569 203.028V208.608ZM110.85 196.148V197.968C110.21 197.588 109.37 197.408 108.65 197.408C108.05 197.408 107.23 197.648 106.97 198.388C109.33 198.688 110.51 199.848 110.51 201.808C110.51 204.128 108.97 205.308 105.67 205.308C103.33 205.308 102.45 205.328 102.45 205.888C102.45 206.368 103.29 206.508 105.89 206.768C108.83 207.088 111.03 207.128 111.03 209.788C111.03 211.868 109.35 212.808 106.01 212.808C102.07 212.808 100.45 211.708 100.45 209.108H102.55C102.55 210.428 103.79 210.868 106.07 210.868C107.91 210.868 109.07 210.628 109.07 209.768C109.07 208.768 107.87 209.028 105.57 208.768C103.23 208.508 100.49 208.368 100.49 206.108C100.49 205.168 100.99 204.628 101.77 204.308C101.03 203.728 100.65 202.888 100.65 201.808C100.65 198.668 103.55 198.308 106.03 198.308C106.21 196.848 107.15 195.708 108.75 195.708C109.55 195.708 110.29 195.928 110.85 196.148ZM103.05 201.788C103.05 202.888 104.05 203.348 105.65 203.348C107.31 203.348 108.11 202.888 108.11 201.788C108.11 200.708 107.21 200.248 105.55 200.248C103.67 200.248 103.05 200.708 103.05 201.788ZM116.683 195.568C116.683 194.548 117.123 194.068 118.183 194.068C119.223 194.068 119.683 194.548 119.683 195.568C119.683 196.568 119.223 197.068 118.183 197.068C117.123 197.068 116.683 196.568 116.683 195.568ZM117.023 208.608V198.608H119.323V208.608H117.023ZM128.78 208.608V207.088C128.2 208.188 127.18 208.908 125.38 208.908C122.6 208.908 120.52 207.088 120.52 203.608C120.52 200.128 122.3 198.308 125.3 198.308C127.14 198.308 128.2 198.948 128.78 200.068V193.608H131.08V208.608H128.78ZM122.92 203.588C122.92 205.648 123.92 206.748 125.82 206.748C127.78 206.748 128.78 205.648 128.78 203.588C128.78 201.528 127.78 200.448 125.82 200.448C123.64 200.448 122.92 201.528 122.92 203.588ZM142.788 203.888V204.288H134.728C134.928 206.268 136.068 206.948 137.888 206.948C139.448 206.948 140.568 206.148 140.568 205.188L142.668 205.208C142.668 207.408 140.988 208.908 137.888 208.908C134.128 208.908 132.288 207.068 132.288 203.588C132.288 200.188 134.148 198.308 137.528 198.308C141.288 198.308 142.788 200.208 142.788 203.888ZM134.788 202.588H140.508C140.288 200.948 139.188 200.248 137.628 200.248C136.228 200.248 135.108 201.048 134.788 202.588ZM151.327 202.228C151.327 200.408 149.747 200.248 148.647 200.248C147.507 200.248 146.047 200.368 146.047 202.068H143.947C143.947 199.368 145.747 198.308 148.647 198.308C151.987 198.308 153.627 199.368 153.627 202.568V208.608H151.327V207.248C150.927 208.228 149.987 208.908 147.787 208.908C145.267 208.908 143.387 208.248 143.387 205.768C143.387 203.768 144.967 202.928 147.787 202.628L151.327 202.268V202.228ZM151.327 203.928L148.127 204.248C146.827 204.388 145.787 204.748 145.787 205.728C145.787 206.488 146.387 206.948 148.107 206.948C150.347 206.948 151.227 205.988 151.327 205.248V203.928ZM154.672 201.308C154.672 199.188 156.252 198.308 159.332 198.308C162.812 198.308 164.372 199.408 164.372 202.008H162.272C162.272 200.648 161.112 200.248 158.932 200.248C157.032 200.248 156.672 200.768 156.672 201.268C156.672 201.828 157.512 202.228 159.752 202.628C162.592 203.128 164.492 203.428 164.492 205.848C164.492 208.048 162.892 208.908 159.872 208.908C156.252 208.908 154.632 207.808 154.632 205.208H156.732C156.732 206.508 158.112 206.948 160.172 206.948C161.852 206.948 162.492 206.528 162.492 205.908C162.492 205.008 161.372 204.968 159.272 204.608C157.092 204.268 154.672 203.688 154.672 201.308ZM170.142 195.568C170.142 194.548 170.582 194.068 171.642 194.068C172.682 194.068 173.142 194.548 173.142 195.568C173.142 196.568 172.682 197.068 171.642 197.068C170.582 197.068 170.142 196.568 170.142 195.568ZM170.482 208.608V198.608H172.782V208.608H170.482ZM184.539 208.608H182.239V203.228C182.239 201.528 181.719 200.448 179.579 200.448C177.679 200.448 176.679 201.528 176.679 203.588V208.608H174.379V198.608H176.679V200.008C177.339 198.928 178.479 198.308 180.219 198.308C183.119 198.308 184.539 199.628 184.539 203.028V208.608ZM187.146 205.048V200.708H184.746V198.608H187.146L187.946 194.608H189.446L189.426 198.608H194.446V200.708H189.446V204.748C189.446 205.788 189.626 206.748 190.846 206.748C191.746 206.748 192.426 206.308 192.426 204.808H194.526C194.526 207.908 193.106 208.908 190.766 208.908C188.406 208.908 187.146 207.788 187.146 205.048ZM195.191 203.608C195.191 200.128 197.011 198.308 200.791 198.308C204.571 198.308 206.391 200.128 206.391 203.608C206.391 207.088 204.571 208.908 200.791 208.908C197.011 208.908 195.191 207.088 195.191 203.608ZM197.591 203.608C197.591 205.668 198.631 206.748 200.791 206.748C202.951 206.748 203.991 205.668 203.991 203.608C203.991 201.528 202.951 200.448 200.791 200.448C198.551 200.448 197.591 201.528 197.591 203.608ZM214.688 208.608H212.388V193.608H214.688V200.008C215.248 198.928 216.248 198.308 217.988 198.308C220.708 198.308 222.548 200.128 222.548 203.608C222.548 207.088 220.408 208.908 217.908 208.908C216.208 208.908 215.228 208.208 214.688 207.128V208.608ZM220.148 203.588C220.148 201.528 219.348 200.448 217.448 200.448C215.648 200.448 214.688 201.528 214.688 203.588C214.688 205.648 215.648 206.748 217.448 206.748C219.088 206.748 220.148 205.648 220.148 203.588ZM223.546 198.608H225.846V203.988C225.846 205.668 226.366 206.748 228.506 206.748C230.406 206.748 231.406 205.668 231.406 203.608V198.608H233.706V208.608H231.406V207.208C230.726 208.288 229.606 208.908 227.866 208.908C224.966 208.908 223.546 207.588 223.546 204.168V198.608ZM234.939 201.308C234.939 199.188 236.519 198.308 239.599 198.308C243.079 198.308 244.639 199.408 244.639 202.008H242.539C242.539 200.648 241.379 200.248 239.199 200.248C237.299 200.248 236.939 200.768 236.939 201.268C236.939 201.828 237.779 202.228 240.019 202.628C242.859 203.128 244.759 203.428 244.759 205.848C244.759 208.048 243.159 208.908 240.139 208.908C236.519 208.908 234.899 207.808 234.899 205.208H236.999C236.999 206.508 238.379 206.948 240.439 206.948C242.119 206.948 242.759 206.528 242.759 205.908C242.759 205.008 241.639 204.968 239.539 204.608C237.359 204.268 234.939 203.688 234.939 201.308ZM245.614 195.568C245.614 194.548 246.054 194.068 247.114 194.068C248.154 194.068 248.614 194.548 248.614 195.568C248.614 196.568 248.154 197.068 247.114 197.068C246.054 197.068 245.614 196.568 245.614 195.568ZM245.954 208.608V198.608H248.254V208.608H245.954ZM260.011 208.608H257.711V203.228C257.711 201.528 257.191 200.448 255.051 200.448C253.151 200.448 252.151 201.528 252.151 203.588V208.608H249.851V198.608H252.151V200.008C252.811 198.928 253.951 198.308 255.691 198.308C258.591 198.308 260.011 199.628 260.011 203.028V208.608ZM271.504 203.888V204.288H263.444C263.644 206.268 264.784 206.948 266.604 206.948C268.164 206.948 269.284 206.148 269.284 205.188L271.384 205.208C271.384 207.408 269.704 208.908 266.604 208.908C262.844 208.908 261.004 207.068 261.004 203.588C261.004 200.188 262.864 198.308 266.244 198.308C270.004 198.308 271.504 200.208 271.504 203.888ZM263.504 202.588H269.224C269.004 200.948 267.904 200.248 266.344 200.248C264.944 200.248 263.824 201.048 263.504 202.588ZM272.343 201.308C272.343 199.188 273.923 198.308 277.003 198.308C280.483 198.308 282.043 199.408 282.043 202.008H279.943C279.943 200.648 278.783 200.248 276.603 200.248C274.703 200.248 274.343 200.768 274.343 201.268C274.343 201.828 275.183 202.228 277.423 202.628C280.263 203.128 282.163 203.428 282.163 205.848C282.163 208.048 280.563 208.908 277.543 208.908C273.923 208.908 272.303 207.808 272.303 205.208H274.403C274.403 206.508 275.783 206.948 277.843 206.948C279.523 206.948 280.163 206.528 280.163 205.908C280.163 205.008 279.043 204.968 276.943 204.608C274.763 204.268 272.343 203.688 272.343 201.308ZM282.998 201.308C282.998 199.188 284.578 198.308 287.658 198.308C291.138 198.308 292.698 199.408 292.698 202.008H290.598C290.598 200.648 289.438 200.248 287.258 200.248C285.358 200.248 284.998 200.768 284.998 201.268C284.998 201.828 285.838 202.228 288.078 202.628C290.918 203.128 292.818 203.428 292.818 205.848C292.818 208.048 291.218 208.908 288.198 208.908C284.578 208.908 282.958 207.808 282.958 205.208H285.058C285.058 206.508 286.438 206.948 288.498 206.948C290.178 206.948 290.818 206.528 290.818 205.908C290.818 205.008 289.698 204.968 287.598 204.608C285.418 204.268 282.998 203.688 282.998 201.308ZM304.112 203.888V204.288H296.052C296.252 206.268 297.392 206.948 299.212 206.948C300.772 206.948 301.892 206.148 301.892 205.188L303.992 205.208C303.992 207.408 302.312 208.908 299.212 208.908C295.452 208.908 293.612 207.068 293.612 203.588C293.612 200.188 295.472 198.308 298.852 198.308C302.612 198.308 304.112 200.208 304.112 203.888ZM296.112 202.588H301.832C301.612 200.948 300.512 200.248 298.952 200.248C297.552 200.248 296.432 201.048 296.112 202.588ZM304.952 201.308C304.952 199.188 306.532 198.308 309.612 198.308C313.092 198.308 314.652 199.408 314.652 202.008H312.552C312.552 200.648 311.392 200.248 309.212 200.248C307.312 200.248 306.952 200.768 306.952 201.268C306.952 201.828 307.792 202.228 310.032 202.628C312.872 203.128 314.772 203.428 314.772 205.848C314.772 208.048 313.172 208.908 310.152 208.908C306.532 208.908 304.912 207.808 304.912 205.208H307.012C307.012 206.508 308.392 206.948 310.452 206.948C312.132 206.948 312.772 206.528 312.772 205.908C312.772 205.008 311.652 204.968 309.552 204.608C307.372 204.268 304.952 203.688 304.952 201.308ZM315.566 207.508C315.566 206.568 315.986 206.108 316.966 206.108C317.946 206.108 318.366 206.568 318.366 207.508C318.366 208.428 317.946 208.908 316.966 208.908C315.986 208.908 315.566 208.428 315.566 207.508ZM328.166 208.608V196.808H323.666V194.608H335.066V196.808H330.566V208.608H328.166ZM338.258 208.608H335.958V193.608H338.258V200.008C338.918 198.928 340.058 198.308 341.798 198.308C344.698 198.308 346.118 199.628 346.118 203.028V208.608H343.818V203.228C343.818 201.528 343.298 200.448 341.158 200.448C339.258 200.448 338.258 201.528 338.258 203.588V208.608ZM347.171 195.568C347.171 194.548 347.611 194.068 348.671 194.068C349.711 194.068 350.171 194.548 350.171 195.568C350.171 196.568 349.711 197.068 348.671 197.068C347.611 197.068 347.171 196.568 347.171 195.568ZM347.511 208.608V198.608H349.811V208.608H347.511ZM351.048 201.308C351.048 199.188 352.628 198.308 355.708 198.308C359.188 198.308 360.748 199.408 360.748 202.008H358.648C358.648 200.648 357.488 200.248 355.308 200.248C353.408 200.248 353.048 200.768 353.048 201.268C353.048 201.828 353.888 202.228 356.128 202.628C358.968 203.128 360.868 203.428 360.868 205.848C360.868 208.048 359.268 208.908 356.248 208.908C352.628 208.908 351.008 207.808 351.008 205.208H353.108C353.108 206.508 354.488 206.948 356.548 206.948C358.228 206.948 358.868 206.528 358.868 205.908C358.868 205.008 357.748 204.968 355.648 204.608C353.468 204.268 351.048 203.688 351.048 201.308ZM366.518 195.568C366.518 194.548 366.958 194.068 368.018 194.068C369.058 194.068 369.518 194.548 369.518 195.568C369.518 196.568 369.058 197.068 368.018 197.068C366.958 197.068 366.518 196.568 366.518 195.568ZM366.858 208.608V198.608H369.158V208.608H366.858ZM370.395 201.308C370.395 199.188 371.975 198.308 375.055 198.308C378.535 198.308 380.095 199.408 380.095 202.008H377.995C377.995 200.648 376.835 200.248 374.655 200.248C372.755 200.248 372.395 200.768 372.395 201.268C372.395 201.828 373.235 202.228 375.475 202.628C378.315 203.128 380.215 203.428 380.215 205.848C380.215 208.048 378.615 208.908 375.595 208.908C371.975 208.908 370.355 207.808 370.355 205.208H372.455C372.455 206.508 373.835 206.948 375.895 206.948C377.575 206.948 378.215 206.528 378.215 205.908C378.215 205.008 377.095 204.968 374.995 204.608C372.815 204.268 370.395 203.688 370.395 201.308ZM48.8 238.268C47.72 241.348 47.28 243.208 44.4 243.208C42.24 243.208 41.3 241.548 41.3 239.348H43.3C43.3 240.908 43.82 241.268 44.42 241.268C45.28 241.268 45.66 240.368 46.12 239.048L46.3 238.468L41.08 228.608H43.68L47.34 235.488L49.74 228.608H52.18L48.8 238.268ZM52.3719 233.608C52.3719 230.128 54.1919 228.308 57.9719 228.308C61.7519 228.308 63.5719 230.128 63.5719 233.608C63.5719 237.088 61.7519 238.908 57.9719 238.908C54.1919 238.908 52.3719 237.088 52.3719 233.608ZM54.7719 233.608C54.7719 235.668 55.8119 236.748 57.9719 236.748C60.1319 236.748 61.1719 235.668 61.1719 233.608C61.1719 231.528 60.1319 230.448 57.9719 230.448C55.7319 230.448 54.7719 231.528 54.7719 233.608ZM64.5742 228.608H66.8742V233.988C66.8742 235.668 67.3942 236.748 69.5342 236.748C71.4342 236.748 72.4342 235.668 72.4342 233.608V228.608H74.7342V238.608H72.4342V237.208C71.7542 238.288 70.6342 238.908 68.8942 238.908C65.9942 238.908 64.5742 237.588 64.5742 234.168V228.608ZM78.6273 238.608H76.3273V228.608H78.6273V229.988C79.2473 228.928 80.2673 228.308 81.6473 228.308C84.0673 228.308 85.3673 229.728 85.3673 232.648H83.2673C83.2673 231.348 82.6273 230.448 81.1473 230.448C79.5673 230.448 78.6273 231.528 78.6273 233.588V238.608ZM93.4719 238.608H91.1719V223.608H93.4719V230.008C94.1319 228.928 95.2719 228.308 97.0119 228.308C99.9119 228.308 101.332 229.628 101.332 233.028V238.608H99.0319V233.228C99.0319 231.528 98.5119 230.448 96.3719 230.448C94.4719 230.448 93.4719 231.528 93.4719 233.588V238.608ZM102.525 228.608H104.825V233.988C104.825 235.668 105.345 236.748 107.485 236.748C109.385 236.748 110.385 235.668 110.385 233.608V228.608H112.685V238.608H110.385V237.208C109.705 238.288 108.585 238.908 106.845 238.908C103.945 238.908 102.525 237.588 102.525 234.168V228.608ZM116.578 238.608H114.278V223.608H116.578V230.008C117.138 228.928 118.138 228.308 119.878 228.308C122.598 228.308 124.438 230.128 124.438 233.608C124.438 237.088 122.298 238.908 119.798 238.908C118.098 238.908 117.118 238.208 116.578 237.128V238.608ZM122.038 233.588C122.038 231.528 121.238 230.448 119.338 230.448C117.538 230.448 116.578 231.528 116.578 233.588C116.578 235.648 117.538 236.748 119.338 236.748C120.978 236.748 122.038 235.648 122.038 233.588ZM131.931 227.628C131.931 224.948 133.051 223.608 135.631 223.608C137.991 223.608 139.311 224.608 139.311 227.708H137.211C137.211 226.248 136.671 225.748 135.651 225.748C134.731 225.748 134.231 226.208 134.231 227.728V228.608H139.131V230.708H134.231V238.608H131.931V230.708H129.831V228.608H131.931V227.628ZM139.514 233.608C139.514 230.128 141.334 228.308 145.114 228.308C148.894 228.308 150.714 230.128 150.714 233.608C150.714 237.088 148.894 238.908 145.114 238.908C141.334 238.908 139.514 237.088 139.514 233.608ZM141.914 233.608C141.914 235.668 142.954 236.748 145.114 236.748C147.274 236.748 148.314 235.668 148.314 233.608C148.314 231.528 147.274 230.448 145.114 230.448C142.874 230.448 141.914 231.528 141.914 233.608ZM154.216 238.608H151.916V228.608H154.216V229.988C154.836 228.928 155.856 228.308 157.236 228.308C159.656 228.308 160.956 229.728 160.956 232.648H158.856C158.856 231.348 158.216 230.448 156.736 230.448C155.156 230.448 154.216 231.528 154.216 233.588V238.608ZM176.861 233.888V234.288H168.801C169.001 236.268 170.141 236.948 171.961 236.948C173.521 236.948 174.641 236.148 174.641 235.188L176.741 235.208C176.741 237.408 175.061 238.908 171.961 238.908C168.201 238.908 166.361 237.068 166.361 233.588C166.361 230.188 168.221 228.308 171.601 228.308C175.361 228.308 176.861 230.208 176.861 233.888ZM168.861 232.588H174.581C174.361 230.948 173.261 230.248 171.701 230.248C170.301 230.248 169.181 231.048 168.861 232.588ZM188.22 238.608H185.92V233.228C185.92 231.528 185.4 230.448 183.26 230.448C181.36 230.448 180.36 231.528 180.36 233.588V238.608H178.06V228.608H180.36V230.008C181.02 228.928 182.16 228.308 183.9 228.308C186.8 228.308 188.22 229.628 188.22 233.028V238.608ZM190.827 235.048V230.708H188.427V228.608H190.827L191.627 224.608H193.127L193.107 228.608H198.127V230.708H193.127V234.748C193.127 235.788 193.307 236.748 194.527 236.748C195.427 236.748 196.107 236.308 196.107 234.808H198.207C198.207 237.908 196.787 238.908 194.447 238.908C192.087 238.908 190.827 237.788 190.827 235.048ZM201.572 238.608H199.272V228.608H201.572V229.988C202.192 228.928 203.212 228.308 204.592 228.308C207.012 228.308 208.312 229.728 208.312 232.648H206.212C206.212 231.348 205.572 230.448 204.092 230.448C202.512 230.448 201.572 231.528 201.572 233.588V238.608ZM219.05 233.888V234.288H210.99C211.19 236.268 212.33 236.948 214.15 236.948C215.71 236.948 216.83 236.148 216.83 235.188L218.93 235.208C218.93 237.408 217.25 238.908 214.15 238.908C210.39 238.908 208.55 237.068 208.55 233.588C208.55 230.188 210.41 228.308 213.79 228.308C217.55 228.308 219.05 230.208 219.05 233.888ZM211.05 232.588H216.77C216.55 230.948 215.45 230.248 213.89 230.248C212.49 230.248 211.37 231.048 211.05 232.588ZM222.549 242.608H220.249V228.608H222.549V230.008C223.109 228.928 224.109 228.308 225.849 228.308C228.569 228.308 230.409 230.128 230.409 233.608C230.409 237.088 228.269 238.908 225.769 238.908C224.069 238.908 223.089 238.208 222.549 237.128V242.608ZM228.009 233.588C228.009 231.528 227.209 230.448 225.309 230.448C223.509 230.448 222.549 231.528 222.549 233.588C222.549 235.648 223.509 236.748 225.309 236.748C226.949 236.748 228.009 235.648 228.009 233.588ZM233.907 238.608H231.607V228.608H233.907V229.988C234.527 228.928 235.547 228.308 236.927 228.308C239.347 228.308 240.647 229.728 240.647 232.648H238.547C238.547 231.348 237.907 230.448 236.427 230.448C234.847 230.448 233.907 231.528 233.907 233.588V238.608ZM251.385 233.888V234.288H243.325C243.525 236.268 244.665 236.948 246.485 236.948C248.045 236.948 249.165 236.148 249.165 235.188L251.265 235.208C251.265 237.408 249.585 238.908 246.485 238.908C242.725 238.908 240.885 237.068 240.885 233.588C240.885 230.188 242.745 228.308 246.125 228.308C249.885 228.308 251.385 230.208 251.385 233.888ZM243.385 232.588H249.105C248.885 230.948 247.785 230.248 246.225 230.248C244.825 230.248 243.705 231.048 243.385 232.588ZM262.744 238.608H260.444V233.228C260.444 231.528 259.924 230.448 257.784 230.448C255.884 230.448 254.884 231.528 254.884 233.588V238.608H252.584V228.608H254.884V230.008C255.544 228.928 256.684 228.308 258.424 228.308C261.324 228.308 262.744 229.628 262.744 233.028V238.608ZM274.237 233.888V234.288H266.177C266.377 236.268 267.517 236.948 269.337 236.948C270.897 236.948 272.017 236.148 272.017 235.188L274.117 235.208C274.117 237.408 272.437 238.908 269.337 238.908C265.577 238.908 263.737 237.068 263.737 233.588C263.737 230.188 265.597 228.308 268.977 228.308C272.737 228.308 274.237 230.208 274.237 233.888ZM266.237 232.588H271.957C271.737 230.948 270.637 230.248 269.077 230.248C267.677 230.248 266.557 231.048 266.237 232.588ZM275.237 228.608H277.537V233.988C277.537 235.668 278.057 236.748 280.197 236.748C282.097 236.748 283.097 235.668 283.097 233.608V228.608H285.397V238.608H283.097V237.208C282.417 238.288 281.297 238.908 279.557 238.908C276.657 238.908 275.237 237.588 275.237 234.168V228.608ZM289.29 238.608H286.99V228.608H289.29V229.988C289.91 228.928 290.93 228.308 292.31 228.308C294.73 228.308 296.03 229.728 296.03 232.648H293.93C293.93 231.348 293.29 230.448 291.81 230.448C290.23 230.448 289.29 231.528 289.29 233.588V238.608ZM296.699 225.568C296.699 224.548 297.139 224.068 298.199 224.068C299.239 224.068 299.699 224.548 299.699 225.568C299.699 226.568 299.239 227.068 298.199 227.068C297.139 227.068 296.699 226.568 296.699 225.568ZM297.039 238.608V228.608H299.339V238.608H297.039ZM308.276 232.228C308.276 230.408 306.696 230.248 305.596 230.248C304.456 230.248 302.996 230.368 302.996 232.068H300.896C300.896 229.368 302.696 228.308 305.596 228.308C308.936 228.308 310.576 229.368 310.576 232.568V238.608H308.276V237.248C307.876 238.228 306.936 238.908 304.736 238.908C302.216 238.908 300.336 238.248 300.336 235.768C300.336 233.768 301.916 232.928 304.736 232.628L308.276 232.268V232.228ZM308.276 233.928L305.076 234.248C303.776 234.388 302.736 234.748 302.736 235.728C302.736 236.488 303.336 236.948 305.056 236.948C307.296 236.948 308.176 235.988 308.276 235.248V233.928ZM314.281 238.608H311.981V223.608H314.281V238.608ZM330.673 226.148V227.968C330.033 227.588 329.193 227.408 328.473 227.408C327.873 227.408 327.053 227.648 326.793 228.388C329.153 228.688 330.333 229.848 330.333 231.808C330.333 234.128 328.793 235.308 325.493 235.308C323.153 235.308 322.273 235.328 322.273 235.888C322.273 236.368 323.113 236.508 325.713 236.768C328.653 237.088 330.853 237.128 330.853 239.788C330.853 241.868 329.173 242.808 325.833 242.808C321.893 242.808 320.273 241.708 320.273 239.108H322.373C322.373 240.428 323.613 240.868 325.893 240.868C327.733 240.868 328.893 240.628 328.893 239.768C328.893 238.768 327.693 239.028 325.393 238.768C323.053 238.508 320.313 238.368 320.313 236.108C320.313 235.168 320.813 234.628 321.593 234.308C320.853 233.728 320.473 232.888 320.473 231.808C320.473 228.668 323.373 228.308 325.853 228.308C326.033 226.848 326.973 225.708 328.573 225.708C329.373 225.708 330.113 225.928 330.673 226.148ZM322.873 231.788C322.873 232.888 323.873 233.348 325.473 233.348C327.133 233.348 327.933 232.888 327.933 231.788C327.933 230.708 327.033 230.248 325.373 230.248C323.493 230.248 322.873 230.708 322.873 231.788ZM333.98 238.608H331.68V228.608H333.98V229.988C334.6 228.928 335.62 228.308 337 228.308C339.42 228.308 340.72 229.728 340.72 232.648H338.62C338.62 231.348 337.98 230.448 336.5 230.448C334.92 230.448 333.98 231.528 333.98 233.588V238.608ZM341.329 233.608C341.329 230.128 343.149 228.308 346.929 228.308C350.709 228.308 352.529 230.128 352.529 233.608C352.529 237.088 350.709 238.908 346.929 238.908C343.149 238.908 341.329 237.088 341.329 233.608ZM343.729 233.608C343.729 235.668 344.769 236.748 346.929 236.748C349.089 236.748 350.129 235.668 350.129 233.608C350.129 231.528 349.089 230.448 346.929 230.448C344.689 230.448 343.729 231.528 343.729 233.608ZM356.031 238.608L352.331 228.608H354.871L357.291 235.188L359.731 228.608H362.271L364.691 235.188L367.131 228.608H369.671L365.971 238.608H363.431L360.991 232.028L358.571 238.608H356.031ZM371.674 235.048V230.708H369.274V228.608H371.674L372.474 224.608H373.974L373.954 228.608H378.974V230.708H373.974V234.748C373.974 235.788 374.154 236.748 375.374 236.748C376.274 236.748 376.954 236.308 376.954 234.808H379.054C379.054 237.908 377.634 238.908 375.294 238.908C372.934 238.908 371.674 237.788 371.674 235.048ZM382.419 238.608H380.119V223.608H382.419V230.008C383.079 228.928 384.219 228.308 385.959 228.308C388.859 228.308 390.279 229.628 390.279 233.028V238.608H387.979V233.228C387.979 231.528 387.459 230.448 385.319 230.448C383.419 230.448 382.419 231.528 382.419 233.588V238.608ZM391.272 237.508C391.272 236.568 391.692 236.108 392.672 236.108C393.652 236.108 394.072 236.568 394.072 237.508C394.072 238.428 393.652 238.908 392.672 238.908C391.692 238.908 391.272 238.428 391.272 237.508Z" fill="#FFF9DE"/>
<g clip-path="url(#clip1_610_5523)">
<mask id="path-26-outside-1_610_5523" maskUnits="userSpaceOnUse" x="259.5" y="220.725" width="414" height="304" fill="black">
<rect fill="white" x="259.5" y="220.725" width="414" height="304"/>
<path d="M287.838 523.598C279.486 523.599 270.651 522.934 261.256 521.608C260.776 521.54 260.441 521.096 260.509 520.616C260.577 520.137 261.02 519.801 261.5 519.87C285.016 523.19 304.977 522.328 322.525 517.235C339.234 512.383 348.649 497.438 354.984 484.959C361.023 473.068 370.444 462.875 382.988 454.664C390.712 449.608 403.502 444.575 414.064 445.034C394.387 433.708 389.534 410.346 395.012 392.757C399.465 378.458 412.132 364.083 434.377 366.203C434.911 362.232 436.699 355.897 442.557 352.257C448.306 348.684 456.528 348.585 467.031 351.95C464.678 349.504 460.659 345.268 454.687 338.799C452.599 336.537 449.674 335.153 446.449 334.398C440.691 338.839 430.545 341.609 424.384 339.928C422.768 339.488 421.915 338.773 421.846 337.804C421.762 336.619 422.936 335.492 425.335 334.454C429.773 332.536 438.471 330.95 446.033 332.483C446.728 331.888 447.329 331.265 447.815 330.625C449.38 328.559 449.589 326.536 448.436 324.614C446.781 321.857 444.248 319.464 441.209 317.421C430.214 321.534 411.738 318.606 403.894 312.571C402.185 311.257 401.501 310.064 401.799 308.927C402.12 307.704 403.479 306.937 405.954 306.584C412.934 305.587 430.017 308.355 441.341 315.481C442.087 315.166 442.788 314.815 443.437 314.423C447.538 311.944 449.182 308.186 448.323 303.249C447.648 299.365 446.086 296.111 444.018 293.447C436.232 293.377 427.12 289.293 423.994 286.167C422.854 285.027 422.94 284.142 423.213 283.599C423.993 282.049 426.92 282.234 428.593 282.481C432.848 283.111 439.93 285.779 444.879 291.687C446.224 291.641 447.505 291.452 448.676 291.09C451.888 290.097 453.836 287.882 454.469 284.507C454.994 281.708 454.013 278.191 452.149 274.466C440.056 269.886 427.03 255.548 426.375 249.66C426.238 248.428 426.738 247.856 427.181 247.592C427.863 247.187 429.192 246.946 432.853 249.505C438.342 253.344 448.424 263.497 453.411 273.058C453.531 273.1 453.652 273.141 453.772 273.181C459.388 275.043 463.831 274.277 466.977 270.905C468.414 269.365 469.414 267.742 470.082 266.105C469.972 266.036 469.864 265.965 469.756 265.891C464.844 262.539 462.353 254.978 462.353 243.419C462.353 242.165 463.084 241.825 463.398 241.737C465.508 241.142 468.5 245.857 469.078 246.807C472.237 251.998 474.192 258.905 472.253 265.266C475.115 266.484 478.752 266.243 483.096 264.542C487.648 262.761 491.033 259.281 493.509 255.135C493.378 254.834 493.25 254.527 493.129 254.215C488.751 242.989 491.753 226.82 495.96 222.613C497.077 221.496 498.056 221.673 498.539 221.876C501.15 222.977 501.347 229.522 501.31 232.286C501.212 239.824 499.318 248.396 495.465 255.19C498.054 260.537 502.272 263.366 508.026 263.606C512.567 263.789 516.517 262.677 519.841 260.913C520.611 254.604 525.047 247.083 530.321 243.567C531.736 242.623 532.859 242.464 533.658 243.096C534.911 244.086 534.407 246.359 533.764 248.092C532.14 252.469 527.879 258.37 521.501 262.022C521.481 262.373 521.475 262.719 521.483 263.058C521.557 266.177 522.78 268.47 525.118 269.872C533.757 274.341 542.773 274.51 550.46 272.925C557.656 261.761 565.982 260.093 570.302 260.093C571.88 260.093 572.461 260.751 572.672 261.302C573.101 262.426 572.293 263.911 570.272 265.716C566.957 268.677 560.021 272.587 551.543 274.466C547.874 280.373 544.509 288.984 542.204 301.5C542.134 301.881 541.821 302.172 541.436 302.214C541.05 302.253 540.684 302.04 540.532 301.683C532.118 281.797 516.628 270.252 498.035 270.011C497.846 270.008 497.655 270.008 497.466 270.008C480.668 270.008 465.046 279.654 458.465 294.15C454.002 303.98 450.076 324.197 472.694 350.575C471.934 335.673 477.134 322.692 486.864 315.494C494.796 309.626 509.55 304.848 534.898 315.19C546.494 299.604 559.725 289.97 574.232 286.55C586.971 283.548 600.234 285.575 612.586 292.414C637.648 306.29 656.865 340.299 646.062 369.225C661.5 373.989 671.726 387.593 672.209 404.146C672.655 419.427 663.946 438.935 638.168 447.859C638.076 447.891 637.979 447.907 637.881 447.907H421.983C421.499 447.907 421.106 447.515 421.106 447.029C421.106 446.544 421.499 446.151 421.983 446.151H637.732C662.504 437.518 670.881 418.828 670.455 404.197C669.985 388.1 659.861 374.929 644.663 370.643C644.424 370.575 644.225 370.409 644.115 370.187C644.005 369.964 643.994 369.705 644.085 369.474C655.291 341.216 636.406 307.609 611.736 293.95C585.454 279.4 557.106 287.935 535.904 316.782C535.664 317.107 535.234 317.227 534.861 317.073C515.09 308.866 498.855 308.807 487.909 316.905C478.11 324.153 473.149 337.661 474.636 353.038C474.673 353.415 474.463 353.774 474.115 353.926C473.767 354.079 473.362 353.99 473.11 353.708C447.91 325.63 452.117 303.886 456.867 293.423C463.729 278.311 479.993 268.251 497.468 268.251C497.665 268.251 497.86 268.252 498.058 268.254C516.566 268.495 532.091 279.455 541.01 298.447C543.144 288.076 546.05 280.476 549.246 274.917C541.502 276.244 532.691 275.763 524.262 271.404C521.367 269.668 519.816 266.805 519.727 263.098C519.726 263.049 519.725 262.999 519.725 262.95C516.309 264.576 512.36 265.539 507.953 265.357C501.952 265.107 497.317 262.214 494.401 256.941C491.686 261.119 488.145 264.449 483.735 266.175C478.982 268.036 474.93 268.284 471.653 266.919C470.89 268.726 469.78 270.472 468.26 272.1C464.896 275.704 460.14 276.77 454.453 275.218C455.983 278.687 456.723 282.004 456.194 284.828C455.443 288.836 453.023 291.58 449.195 292.764C448.237 293.06 447.218 293.253 446.158 293.355C447.986 295.98 449.393 299.15 450.053 302.946C451.034 308.586 449.059 313.073 444.344 315.923C443.933 316.172 443.503 316.405 443.057 316.624C445.931 318.664 448.328 321.021 449.94 323.707C451.477 326.268 451.226 329.025 449.214 331.681C448.879 332.124 448.496 332.558 448.072 332.981C451.122 333.868 453.887 335.342 455.977 337.605C466.37 348.865 470.828 353.334 470.872 353.378C471.164 353.67 471.213 354.126 470.99 354.474C470.766 354.821 470.331 354.966 469.944 354.82C458.276 350.444 449.374 350.083 443.483 353.746C437.812 357.271 436.373 363.72 436.02 367.25C435.996 367.484 435.88 367.698 435.698 367.846C435.516 367.993 435.285 368.065 435.048 368.034C413.325 365.583 400.99 379.462 396.688 393.277C391.315 410.528 396.253 433.539 416.085 444.146C416.696 444.472 416.985 445.164 416.787 445.827C416.586 446.504 415.958 446.942 415.252 446.868C405.35 445.982 392.008 450.856 383.95 456.131C371.665 464.172 362.447 474.138 356.549 485.753C350.053 498.548 340.37 513.88 323.014 518.918C312.256 522.042 300.614 523.598 287.838 523.598ZM423.6 337.692C423.626 337.692 423.858 337.964 424.846 338.234C430.03 339.65 438.591 337.506 444.052 333.954C438.663 333.207 432.83 333.935 428.798 335.095C425.093 336.16 423.682 337.318 423.598 337.692C423.599 337.692 423.599 337.692 423.6 337.692ZM409.349 308.13C408.153 308.13 407.094 308.195 406.203 308.321C404.206 308.606 403.56 309.133 403.498 309.371C403.443 309.581 403.69 310.198 404.965 311.178C412.002 316.592 428.803 319.407 439.292 316.216C429.924 310.71 416.927 308.13 409.349 308.13ZM424.814 284.365C424.85 284.458 424.962 284.65 425.236 284.924C427.885 287.574 435.562 291.085 442.444 291.626C438.99 288.034 434.59 285.765 430.543 284.68C427.021 283.736 425.172 284.099 424.814 284.365ZM570.302 261.849C566.514 261.849 559.424 263.268 552.957 272.339C559.014 270.743 564.046 268.151 567.118 265.973C570.121 263.841 571.051 262.323 571.028 261.929C571.008 261.946 570.813 261.849 570.302 261.849ZM428.12 249.096C428.109 249.154 428.098 249.269 428.12 249.465C428.625 254.004 439.467 266.802 450.811 272.006C446.809 265.17 440.378 258.022 435.174 253.555C430.695 249.71 428.596 249.029 428.12 249.096ZM464.109 243.583C464.131 254.366 466.337 261.363 470.666 264.385C471.926 259.803 470.881 255.326 469.885 252.554C468.054 247.452 465.241 244.283 464.109 243.583ZM532.566 244.469C532.567 244.476 532.221 244.409 531.295 245.026C526.766 248.047 522.902 254.236 521.797 259.758C526.847 256.465 530.178 251.784 531.624 248.663C532.85 246.018 532.744 244.665 532.566 244.469ZM497.791 223.479C497.592 223.479 497.295 223.76 497.202 223.853C493.451 227.605 490.76 242.705 494.603 253.149C498.22 246.028 499.487 237.537 499.556 232.261C499.629 226.738 498.606 223.808 497.857 223.492C497.838 223.483 497.815 223.479 497.791 223.479Z"/>
</mask>
<path d="M287.838 523.598C279.486 523.599 270.651 522.934 261.256 521.608C260.776 521.54 260.441 521.096 260.509 520.616C260.577 520.137 261.02 519.801 261.5 519.87C285.016 523.19 304.977 522.328 322.525 517.235C339.234 512.383 348.649 497.438 354.984 484.959C361.023 473.068 370.444 462.875 382.988 454.664C390.712 449.608 403.502 444.575 414.064 445.034C394.387 433.708 389.534 410.346 395.012 392.757C399.465 378.458 412.132 364.083 434.377 366.203C434.911 362.232 436.699 355.897 442.557 352.257C448.306 348.684 456.528 348.585 467.031 351.95C464.678 349.504 460.659 345.268 454.687 338.799C452.599 336.537 449.674 335.153 446.449 334.398C440.691 338.839 430.545 341.609 424.384 339.928C422.768 339.488 421.915 338.773 421.846 337.804C421.762 336.619 422.936 335.492 425.335 334.454C429.773 332.536 438.471 330.95 446.033 332.483C446.728 331.888 447.329 331.265 447.815 330.625C449.38 328.559 449.589 326.536 448.436 324.614C446.781 321.857 444.248 319.464 441.209 317.421C430.214 321.534 411.738 318.606 403.894 312.571C402.185 311.257 401.501 310.064 401.799 308.927C402.12 307.704 403.479 306.937 405.954 306.584C412.934 305.587 430.017 308.355 441.341 315.481C442.087 315.166 442.788 314.815 443.437 314.423C447.538 311.944 449.182 308.186 448.323 303.249C447.648 299.365 446.086 296.111 444.018 293.447C436.232 293.377 427.12 289.293 423.994 286.167C422.854 285.027 422.94 284.142 423.213 283.599C423.993 282.049 426.92 282.234 428.593 282.481C432.848 283.111 439.93 285.779 444.879 291.687C446.224 291.641 447.505 291.452 448.676 291.09C451.888 290.097 453.836 287.882 454.469 284.507C454.994 281.708 454.013 278.191 452.149 274.466C440.056 269.886 427.03 255.548 426.375 249.66C426.238 248.428 426.738 247.856 427.181 247.592C427.863 247.187 429.192 246.946 432.853 249.505C438.342 253.344 448.424 263.497 453.411 273.058C453.531 273.1 453.652 273.141 453.772 273.181C459.388 275.043 463.831 274.277 466.977 270.905C468.414 269.365 469.414 267.742 470.082 266.105C469.972 266.036 469.864 265.965 469.756 265.891C464.844 262.539 462.353 254.978 462.353 243.419C462.353 242.165 463.084 241.825 463.398 241.737C465.508 241.142 468.5 245.857 469.078 246.807C472.237 251.998 474.192 258.905 472.253 265.266C475.115 266.484 478.752 266.243 483.096 264.542C487.648 262.761 491.033 259.281 493.509 255.135C493.378 254.834 493.25 254.527 493.129 254.215C488.751 242.989 491.753 226.82 495.96 222.613C497.077 221.496 498.056 221.673 498.539 221.876C501.15 222.977 501.347 229.522 501.31 232.286C501.212 239.824 499.318 248.396 495.465 255.19C498.054 260.537 502.272 263.366 508.026 263.606C512.567 263.789 516.517 262.677 519.841 260.913C520.611 254.604 525.047 247.083 530.321 243.567C531.736 242.623 532.859 242.464 533.658 243.096C534.911 244.086 534.407 246.359 533.764 248.092C532.14 252.469 527.879 258.37 521.501 262.022C521.481 262.373 521.475 262.719 521.483 263.058C521.557 266.177 522.78 268.47 525.118 269.872C533.757 274.341 542.773 274.51 550.46 272.925C557.656 261.761 565.982 260.093 570.302 260.093C571.88 260.093 572.461 260.751 572.672 261.302C573.101 262.426 572.293 263.911 570.272 265.716C566.957 268.677 560.021 272.587 551.543 274.466C547.874 280.373 544.509 288.984 542.204 301.5C542.134 301.881 541.821 302.172 541.436 302.214C541.05 302.253 540.684 302.04 540.532 301.683C532.118 281.797 516.628 270.252 498.035 270.011C497.846 270.008 497.655 270.008 497.466 270.008C480.668 270.008 465.046 279.654 458.465 294.15C454.002 303.98 450.076 324.197 472.694 350.575C471.934 335.673 477.134 322.692 486.864 315.494C494.796 309.626 509.55 304.848 534.898 315.19C546.494 299.604 559.725 289.97 574.232 286.55C586.971 283.548 600.234 285.575 612.586 292.414C637.648 306.29 656.865 340.299 646.062 369.225C661.5 373.989 671.726 387.593 672.209 404.146C672.655 419.427 663.946 438.935 638.168 447.859C638.076 447.891 637.979 447.907 637.881 447.907H421.983C421.499 447.907 421.106 447.515 421.106 447.029C421.106 446.544 421.499 446.151 421.983 446.151H637.732C662.504 437.518 670.881 418.828 670.455 404.197C669.985 388.1 659.861 374.929 644.663 370.643C644.424 370.575 644.225 370.409 644.115 370.187C644.005 369.964 643.994 369.705 644.085 369.474C655.291 341.216 636.406 307.609 611.736 293.95C585.454 279.4 557.106 287.935 535.904 316.782C535.664 317.107 535.234 317.227 534.861 317.073C515.09 308.866 498.855 308.807 487.909 316.905C478.11 324.153 473.149 337.661 474.636 353.038C474.673 353.415 474.463 353.774 474.115 353.926C473.767 354.079 473.362 353.99 473.11 353.708C447.91 325.63 452.117 303.886 456.867 293.423C463.729 278.311 479.993 268.251 497.468 268.251C497.665 268.251 497.86 268.252 498.058 268.254C516.566 268.495 532.091 279.455 541.01 298.447C543.144 288.076 546.05 280.476 549.246 274.917C541.502 276.244 532.691 275.763 524.262 271.404C521.367 269.668 519.816 266.805 519.727 263.098C519.726 263.049 519.725 262.999 519.725 262.95C516.309 264.576 512.36 265.539 507.953 265.357C501.952 265.107 497.317 262.214 494.401 256.941C491.686 261.119 488.145 264.449 483.735 266.175C478.982 268.036 474.93 268.284 471.653 266.919C470.89 268.726 469.78 270.472 468.26 272.1C464.896 275.704 460.14 276.77 454.453 275.218C455.983 278.687 456.723 282.004 456.194 284.828C455.443 288.836 453.023 291.58 449.195 292.764C448.237 293.06 447.218 293.253 446.158 293.355C447.986 295.98 449.393 299.15 450.053 302.946C451.034 308.586 449.059 313.073 444.344 315.923C443.933 316.172 443.503 316.405 443.057 316.624C445.931 318.664 448.328 321.021 449.94 323.707C451.477 326.268 451.226 329.025 449.214 331.681C448.879 332.124 448.496 332.558 448.072 332.981C451.122 333.868 453.887 335.342 455.977 337.605C466.37 348.865 470.828 353.334 470.872 353.378C471.164 353.67 471.213 354.126 470.99 354.474C470.766 354.821 470.331 354.966 469.944 354.82C458.276 350.444 449.374 350.083 443.483 353.746C437.812 357.271 436.373 363.72 436.02 367.25C435.996 367.484 435.88 367.698 435.698 367.846C435.516 367.993 435.285 368.065 435.048 368.034C413.325 365.583 400.99 379.462 396.688 393.277C391.315 410.528 396.253 433.539 416.085 444.146C416.696 444.472 416.985 445.164 416.787 445.827C416.586 446.504 415.958 446.942 415.252 446.868C405.35 445.982 392.008 450.856 383.95 456.131C371.665 464.172 362.447 474.138 356.549 485.753C350.053 498.548 340.37 513.88 323.014 518.918C312.256 522.042 300.614 523.598 287.838 523.598ZM423.6 337.692C423.626 337.692 423.858 337.964 424.846 338.234C430.03 339.65 438.591 337.506 444.052 333.954C438.663 333.207 432.83 333.935 428.798 335.095C425.093 336.16 423.682 337.318 423.598 337.692C423.599 337.692 423.599 337.692 423.6 337.692ZM409.349 308.13C408.153 308.13 407.094 308.195 406.203 308.321C404.206 308.606 403.56 309.133 403.498 309.371C403.443 309.581 403.69 310.198 404.965 311.178C412.002 316.592 428.803 319.407 439.292 316.216C429.924 310.71 416.927 308.13 409.349 308.13ZM424.814 284.365C424.85 284.458 424.962 284.65 425.236 284.924C427.885 287.574 435.562 291.085 442.444 291.626C438.99 288.034 434.59 285.765 430.543 284.68C427.021 283.736 425.172 284.099 424.814 284.365ZM570.302 261.849C566.514 261.849 559.424 263.268 552.957 272.339C559.014 270.743 564.046 268.151 567.118 265.973C570.121 263.841 571.051 262.323 571.028 261.929C571.008 261.946 570.813 261.849 570.302 261.849ZM428.12 249.096C428.109 249.154 428.098 249.269 428.12 249.465C428.625 254.004 439.467 266.802 450.811 272.006C446.809 265.17 440.378 258.022 435.174 253.555C430.695 249.71 428.596 249.029 428.12 249.096ZM464.109 243.583C464.131 254.366 466.337 261.363 470.666 264.385C471.926 259.803 470.881 255.326 469.885 252.554C468.054 247.452 465.241 244.283 464.109 243.583ZM532.566 244.469C532.567 244.476 532.221 244.409 531.295 245.026C526.766 248.047 522.902 254.236 521.797 259.758C526.847 256.465 530.178 251.784 531.624 248.663C532.85 246.018 532.744 244.665 532.566 244.469ZM497.791 223.479C497.592 223.479 497.295 223.76 497.202 223.853C493.451 227.605 490.76 242.705 494.603 253.149C498.22 246.028 499.487 237.537 499.556 232.261C499.629 226.738 498.606 223.808 497.857 223.492C497.838 223.483 497.815 223.479 497.791 223.479Z" fill="#FFF3C1"/>
<path d="M287.838 523.598C279.486 523.599 270.651 522.934 261.256 521.608C260.776 521.54 260.441 521.096 260.509 520.616C260.577 520.137 261.02 519.801 261.5 519.87C285.016 523.19 304.977 522.328 322.525 517.235C339.234 512.383 348.649 497.438 354.984 484.959C361.023 473.068 370.444 462.875 382.988 454.664C390.712 449.608 403.502 444.575 414.064 445.034C394.387 433.708 389.534 410.346 395.012 392.757C399.465 378.458 412.132 364.083 434.377 366.203C434.911 362.232 436.699 355.897 442.557 352.257C448.306 348.684 456.528 348.585 467.031 351.95C464.678 349.504 460.659 345.268 454.687 338.799C452.599 336.537 449.674 335.153 446.449 334.398C440.691 338.839 430.545 341.609 424.384 339.928C422.768 339.488 421.915 338.773 421.846 337.804C421.762 336.619 422.936 335.492 425.335 334.454C429.773 332.536 438.471 330.95 446.033 332.483C446.728 331.888 447.329 331.265 447.815 330.625C449.38 328.559 449.589 326.536 448.436 324.614C446.781 321.857 444.248 319.464 441.209 317.421C430.214 321.534 411.738 318.606 403.894 312.571C402.185 311.257 401.501 310.064 401.799 308.927C402.12 307.704 403.479 306.937 405.954 306.584C412.934 305.587 430.017 308.355 441.341 315.481C442.087 315.166 442.788 314.815 443.437 314.423C447.538 311.944 449.182 308.186 448.323 303.249C447.648 299.365 446.086 296.111 444.018 293.447C436.232 293.377 427.12 289.293 423.994 286.167C422.854 285.027 422.94 284.142 423.213 283.599C423.993 282.049 426.92 282.234 428.593 282.481C432.848 283.111 439.93 285.779 444.879 291.687C446.224 291.641 447.505 291.452 448.676 291.09C451.888 290.097 453.836 287.882 454.469 284.507C454.994 281.708 454.013 278.191 452.149 274.466C440.056 269.886 427.03 255.548 426.375 249.66C426.238 248.428 426.738 247.856 427.181 247.592C427.863 247.187 429.192 246.946 432.853 249.505C438.342 253.344 448.424 263.497 453.411 273.058C453.531 273.1 453.652 273.141 453.772 273.181C459.388 275.043 463.831 274.277 466.977 270.905C468.414 269.365 469.414 267.742 470.082 266.105C469.972 266.036 469.864 265.965 469.756 265.891C464.844 262.539 462.353 254.978 462.353 243.419C462.353 242.165 463.084 241.825 463.398 241.737C465.508 241.142 468.5 245.857 469.078 246.807C472.237 251.998 474.192 258.905 472.253 265.266C475.115 266.484 478.752 266.243 483.096 264.542C487.648 262.761 491.033 259.281 493.509 255.135C493.378 254.834 493.25 254.527 493.129 254.215C488.751 242.989 491.753 226.82 495.96 222.613C497.077 221.496 498.056 221.673 498.539 221.876C501.15 222.977 501.347 229.522 501.31 232.286C501.212 239.824 499.318 248.396 495.465 255.19C498.054 260.537 502.272 263.366 508.026 263.606C512.567 263.789 516.517 262.677 519.841 260.913C520.611 254.604 525.047 247.083 530.321 243.567C531.736 242.623 532.859 242.464 533.658 243.096C534.911 244.086 534.407 246.359 533.764 248.092C532.14 252.469 527.879 258.37 521.501 262.022C521.481 262.373 521.475 262.719 521.483 263.058C521.557 266.177 522.78 268.47 525.118 269.872C533.757 274.341 542.773 274.51 550.46 272.925C557.656 261.761 565.982 260.093 570.302 260.093C571.88 260.093 572.461 260.751 572.672 261.302C573.101 262.426 572.293 263.911 570.272 265.716C566.957 268.677 560.021 272.587 551.543 274.466C547.874 280.373 544.509 288.984 542.204 301.5C542.134 301.881 541.821 302.172 541.436 302.214C541.05 302.253 540.684 302.04 540.532 301.683C532.118 281.797 516.628 270.252 498.035 270.011C497.846 270.008 497.655 270.008 497.466 270.008C480.668 270.008 465.046 279.654 458.465 294.15C454.002 303.98 450.076 324.197 472.694 350.575C471.934 335.673 477.134 322.692 486.864 315.494C494.796 309.626 509.55 304.848 534.898 315.19C546.494 299.604 559.725 289.97 574.232 286.55C586.971 283.548 600.234 285.575 612.586 292.414C637.648 306.29 656.865 340.299 646.062 369.225C661.5 373.989 671.726 387.593 672.209 404.146C672.655 419.427 663.946 438.935 638.168 447.859C638.076 447.891 637.979 447.907 637.881 447.907H421.983C421.499 447.907 421.106 447.515 421.106 447.029C421.106 446.544 421.499 446.151 421.983 446.151H637.732C662.504 437.518 670.881 418.828 670.455 404.197C669.985 388.1 659.861 374.929 644.663 370.643C644.424 370.575 644.225 370.409 644.115 370.187C644.005 369.964 643.994 369.705 644.085 369.474C655.291 341.216 636.406 307.609 611.736 293.95C585.454 279.4 557.106 287.935 535.904 316.782C535.664 317.107 535.234 317.227 534.861 317.073C515.09 308.866 498.855 308.807 487.909 316.905C478.11 324.153 473.149 337.661 474.636 353.038C474.673 353.415 474.463 353.774 474.115 353.926C473.767 354.079 473.362 353.99 473.11 353.708C447.91 325.63 452.117 303.886 456.867 293.423C463.729 278.311 479.993 268.251 497.468 268.251C497.665 268.251 497.86 268.252 498.058 268.254C516.566 268.495 532.091 279.455 541.01 298.447C543.144 288.076 546.05 280.476 549.246 274.917C541.502 276.244 532.691 275.763 524.262 271.404C521.367 269.668 519.816 266.805 519.727 263.098C519.726 263.049 519.725 262.999 519.725 262.95C516.309 264.576 512.36 265.539 507.953 265.357C501.952 265.107 497.317 262.214 494.401 256.941C491.686 261.119 488.145 264.449 483.735 266.175C478.982 268.036 474.93 268.284 471.653 266.919C470.89 268.726 469.78 270.472 468.26 272.1C464.896 275.704 460.14 276.77 454.453 275.218C455.983 278.687 456.723 282.004 456.194 284.828C455.443 288.836 453.023 291.58 449.195 292.764C448.237 293.06 447.218 293.253 446.158 293.355C447.986 295.98 449.393 299.15 450.053 302.946C451.034 308.586 449.059 313.073 444.344 315.923C443.933 316.172 443.503 316.405 443.057 316.624C445.931 318.664 448.328 321.021 449.94 323.707C451.477 326.268 451.226 329.025 449.214 331.681C448.879 332.124 448.496 332.558 448.072 332.981C451.122 333.868 453.887 335.342 455.977 337.605C466.37 348.865 470.828 353.334 470.872 353.378C471.164 353.67 471.213 354.126 470.99 354.474C470.766 354.821 470.331 354.966 469.944 354.82C458.276 350.444 449.374 350.083 443.483 353.746C437.812 357.271 436.373 363.72 436.02 367.25C435.996 367.484 435.88 367.698 435.698 367.846C435.516 367.993 435.285 368.065 435.048 368.034C413.325 365.583 400.99 379.462 396.688 393.277C391.315 410.528 396.253 433.539 416.085 444.146C416.696 444.472 416.985 445.164 416.787 445.827C416.586 446.504 415.958 446.942 415.252 446.868C405.35 445.982 392.008 450.856 383.95 456.131C371.665 464.172 362.447 474.138 356.549 485.753C350.053 498.548 340.37 513.88 323.014 518.918C312.256 522.042 300.614 523.598 287.838 523.598ZM423.6 337.692C423.626 337.692 423.858 337.964 424.846 338.234C430.03 339.65 438.591 337.506 444.052 333.954C438.663 333.207 432.83 333.935 428.798 335.095C425.093 336.16 423.682 337.318 423.598 337.692C423.599 337.692 423.599 337.692 423.6 337.692ZM409.349 308.13C408.153 308.13 407.094 308.195 406.203 308.321C404.206 308.606 403.56 309.133 403.498 309.371C403.443 309.581 403.69 310.198 404.965 311.178C412.002 316.592 428.803 319.407 439.292 316.216C429.924 310.71 416.927 308.13 409.349 308.13ZM424.814 284.365C424.85 284.458 424.962 284.65 425.236 284.924C427.885 287.574 435.562 291.085 442.444 291.626C438.99 288.034 434.59 285.765 430.543 284.68C427.021 283.736 425.172 284.099 424.814 284.365ZM570.302 261.849C566.514 261.849 559.424 263.268 552.957 272.339C559.014 270.743 564.046 268.151 567.118 265.973C570.121 263.841 571.051 262.323 571.028 261.929C571.008 261.946 570.813 261.849 570.302 261.849ZM428.12 249.096C428.109 249.154 428.098 249.269 428.12 249.465C428.625 254.004 439.467 266.802 450.811 272.006C446.809 265.17 440.378 258.022 435.174 253.555C430.695 249.71 428.596 249.029 428.12 249.096ZM464.109 243.583C464.131 254.366 466.337 261.363 470.666 264.385C471.926 259.803 470.881 255.326 469.885 252.554C468.054 247.452 465.241 244.283 464.109 243.583ZM532.566 244.469C532.567 244.476 532.221 244.409 531.295 245.026C526.766 248.047 522.902 254.236 521.797 259.758C526.847 256.465 530.178 251.784 531.624 248.663C532.85 246.018 532.744 244.665 532.566 244.469ZM497.791 223.479C497.592 223.479 497.295 223.76 497.202 223.853C493.451 227.605 490.76 242.705 494.603 253.149C498.22 246.028 499.487 237.537 499.556 232.261C499.629 226.738 498.606 223.808 497.857 223.492C497.838 223.483 497.815 223.479 497.791 223.479Z" stroke="#FFF3C1" mask="url(#path-26-outside-1_610_5523)"/>
</g>
<path d="M49.4989 310.501C49.4989 311.386 49.4029 312.133 49.2109 312.741C49.0189 313.349 48.7309 313.84 48.3469 314.213C47.9736 314.576 47.5042 314.832 46.9389 314.981C46.3736 315.141 45.7122 315.221 44.9549 315.221C44.2936 315.221 43.7016 315.152 43.1789 315.013C42.6562 314.874 42.2082 314.65 41.8349 314.341C41.4722 314.032 41.1896 313.626 40.9869 313.125C40.7949 312.613 40.6989 311.984 40.6989 311.237H42.8909C42.8909 311.621 42.9496 311.936 43.0669 312.181C43.1842 312.426 43.3442 312.618 43.5469 312.757C43.7496 312.885 43.9789 312.976 44.2349 313.029C44.5016 313.072 44.7789 313.093 45.0669 313.093C45.4189 313.093 45.7282 313.05 45.9949 312.965C46.2616 312.88 46.4802 312.746 46.6509 312.565C46.8322 312.384 46.9656 312.149 47.0509 311.861C47.1469 311.562 47.1949 311.2 47.1949 310.773V303.781H49.4989V310.501ZM50.3045 310.981C50.3045 309.584 50.6725 308.528 51.4085 307.813C52.1445 307.098 53.2805 306.741 54.8165 306.741C56.3525 306.741 57.4885 307.098 58.2245 307.813C58.9712 308.528 59.3445 309.584 59.3445 310.981C59.3445 312.378 58.9712 313.434 58.2245 314.149C57.4885 314.864 56.3525 315.221 54.8165 315.221C53.2805 315.221 52.1445 314.864 51.4085 314.149C50.6725 313.434 50.3045 312.378 50.3045 310.981ZM52.5765 310.981C52.5765 311.717 52.7579 312.272 53.1205 312.645C53.4939 313.008 54.0592 313.189 54.8165 313.189C55.5845 313.189 56.1499 313.008 56.5125 312.645C56.8859 312.272 57.0725 311.717 57.0725 310.981C57.0725 310.245 56.8859 309.696 56.5125 309.333C56.1499 308.96 55.5845 308.773 54.8165 308.773C54.0165 308.773 53.4405 308.96 53.0885 309.333C52.7472 309.696 52.5765 310.245 52.5765 310.981ZM60.3045 314.981V306.981H62.4965V314.981H60.3045ZM60.0645 304.549C60.0645 304.09 60.1659 303.754 60.3685 303.541C60.5819 303.328 60.9232 303.221 61.3925 303.221C61.8725 303.221 62.2139 303.328 62.4165 303.541C62.6299 303.754 62.7365 304.09 62.7365 304.549C62.7365 304.997 62.6299 305.333 62.4165 305.557C62.2139 305.77 61.8725 305.877 61.3925 305.877C60.9232 305.877 60.5819 305.77 60.3685 305.557C60.1659 305.333 60.0645 304.997 60.0645 304.549ZM72.0214 314.981H69.8294V310.773C69.8294 310.464 69.8027 310.186 69.7494 309.941C69.6961 309.685 69.6001 309.472 69.4614 309.301C69.3227 309.13 69.1307 309.002 68.8854 308.917C68.6507 308.821 68.3521 308.773 67.9894 308.773C67.3281 308.773 66.8267 308.96 66.4854 309.333C66.1441 309.696 65.9734 310.245 65.9734 310.981V311.189H65.2854V310.981C65.2854 310.352 65.3494 309.781 65.4774 309.269C65.6054 308.746 65.8027 308.298 66.0694 307.925C66.3361 307.552 66.6774 307.264 67.0934 307.061C67.5201 306.848 68.0374 306.741 68.6454 306.741C69.2001 306.741 69.6854 306.81 70.1014 306.949C70.5281 307.077 70.8801 307.29 71.1574 307.589C71.4454 307.888 71.6587 308.282 71.7974 308.773C71.9467 309.253 72.0214 309.85 72.0214 310.565V314.981ZM65.9734 314.981H63.7814V306.981H65.9734V314.981ZM85.2252 314.981H83.0332V310.773C83.0332 310.464 83.0065 310.186 82.9532 309.941C82.8998 309.685 82.8038 309.472 82.6652 309.301C82.5265 309.13 82.3345 309.002 82.0892 308.917C81.8545 308.821 81.5558 308.773 81.1932 308.773C80.5318 308.773 80.0305 308.96 79.6892 309.333C79.3478 309.696 79.1772 310.245 79.1772 310.981V311.189H78.4892V310.981C78.4892 310.352 78.5532 309.781 78.6812 309.269C78.8092 308.746 79.0065 308.298 79.2732 307.925C79.5398 307.552 79.8812 307.264 80.2972 307.061C80.7238 306.848 81.2412 306.741 81.8492 306.741C82.4038 306.741 82.8892 306.81 83.3052 306.949C83.7318 307.077 84.0838 307.29 84.3612 307.589C84.6492 307.888 84.8625 308.282 85.0012 308.773C85.1505 309.253 85.2252 309.85 85.2252 310.565V314.981ZM79.1772 314.981H76.9852V306.981H79.1772V314.981ZM86.0327 310.981C86.0327 309.584 86.4007 308.528 87.1367 307.813C87.8727 307.098 89.0087 306.741 90.5447 306.741C92.0807 306.741 93.2167 307.098 93.9527 307.813C94.6993 308.528 95.0727 309.584 95.0727 310.981C95.0727 312.378 94.6993 313.434 93.9527 314.149C93.2167 314.864 92.0807 315.221 90.5447 315.221C89.0087 315.221 87.8727 314.864 87.1367 314.149C86.4007 313.434 86.0327 312.378 86.0327 310.981ZM88.3047 310.981C88.3047 311.717 88.486 312.272 88.8487 312.645C89.222 313.008 89.7873 313.189 90.5447 313.189C91.3127 313.189 91.878 313.008 92.2407 312.645C92.614 312.272 92.8007 311.717 92.8007 310.981C92.8007 310.245 92.614 309.696 92.2407 309.333C91.878 308.96 91.3127 308.773 90.5447 308.773C89.7447 308.773 89.1687 308.96 88.8167 309.333C88.4753 309.696 88.3047 310.245 88.3047 310.981ZM97.8407 314.981L94.9127 306.981H97.3127L100.257 314.981H97.8407ZM100.257 314.981H97.8407L100.785 306.981H103.185L100.257 314.981ZM103.713 314.981L100.785 306.981H103.185L106.113 314.981H103.713ZM106.113 314.981H103.713L106.641 306.981H109.057L106.113 314.981Z" fill="#FFDD85"/>
<path d="M133.551 306.981L128.187 301.617L129.601 300.203L137.379 307.981L129.601 315.759L128.187 314.345L133.551 308.981H121.379V306.981H133.551Z" fill="#FFDD85"/>
</g>
<rect x="0.75" y="0.730835" width="606.5" height="482.5" stroke="#F9EAAA" stroke-width="0.5"/>
<defs>
<radialGradient id="paint0_radial_610_5523" cx="0" cy="0" r="1" gradientUnits="userSpaceOnUse" gradientTransform="translate(304 26.8215) rotate(90) scale(456.159 573.512)">
<stop stop-color="#111111" stop-opacity="0"/>
<stop offset="0.525" stop-color="#1F1B0D" stop-opacity="0.64"/>
<stop offset="0.95" stop-color="#29220E"/>
</radialGradient>
<clipPath id="clip0_610_5523">
<rect x="1" y="0.980835" width="606" height="482" fill="white"/>
</clipPath>
<clipPath id="clip1_610_5523">
<rect width="411.724" height="301.874" fill="white" transform="translate(260.5 221.724)"/>
</clipPath>
</defs>
</svg>
