<svg width="1077" height="810" viewBox="0 0 1077 810" fill="none" xmlns="http://www.w3.org/2000/svg">
<g clip-path="url(#clip0_914_8954)">
<path d="M1277.77 785.788C1273.24 785.733 1268.71 785.728 1264.18 785.723C1240.46 785.693 1218.52 779.268 1198.28 767.044C1185.64 759.408 1174.39 749.901 1163.23 740.299C1162.69 739.839 1159.51 737.132 1159.51 737.132C1159.51 737.132 1167.36 737.152 1169.91 736.832C1193.42 733.885 1215.66 726.995 1236.57 715.766C1250.56 708.251 1263.69 699.389 1276.83 690.533C1277.44 690.117 1277.91 689.487 1278.55 688.857C1277.99 688.386 1277.64 688.106 1277.28 687.806C1275.07 688.276 1273.53 689.777 1271.78 690.908C1263.92 696.022 1256.21 701.361 1248.22 706.264C1222.17 722.251 1193.99 732.023 1163.49 734.84C1161.42 735.03 1159.33 735.086 1157.34 735.201C1155.57 733.915 1154 732.789 1152.45 731.638C1148.15 728.471 1143.94 725.193 1139.56 722.151C1128.6 714.53 1116.77 708.686 1104.01 704.663C1080.12 697.133 1056.81 698.839 1033.94 708.681C1032.32 709.382 1030.67 710.022 1028.87 710.758C1026.15 709.647 1023.45 708.586 1020.79 707.445C1007.27 701.646 993.776 695.812 979.525 691.889C956.043 685.429 932.36 684.308 908.428 688.666C895.018 691.108 882.214 695.717 869.329 699.995C868.634 700.225 868.053 700.82 867.333 701.306C867.768 701.876 868.043 702.231 868.488 702.817C870.765 702.086 873.082 701.406 875.349 700.595C884.19 697.448 893.162 694.726 902.293 692.564C913.026 690.027 923.899 688.491 934.942 688.416C950.909 688.301 966.486 690.923 981.832 695.166C995.912 699.064 1009.14 705.189 1022.59 710.723C1023.27 711.003 1023.8 711.628 1024.33 712.029C1023.92 713.785 1022.58 714.185 1021.48 714.776C1013.48 719.074 1006.03 724.218 998.849 729.747C992.57 734.58 986.4 739.554 980.046 744.282C964.514 755.841 947.892 765.353 929.358 771.337C907.872 778.272 885.751 780.394 863.33 780.404C862.239 780.404 861.148 780.059 859.872 779.843C858.731 777.512 859.167 775.565 859.237 773.649C859.442 768.005 860.017 762.366 858.661 756.751C858.336 755.41 858.801 753.884 858.881 752.443C859.022 749.871 859.622 747.209 859.182 744.738C858.276 739.639 859.057 734.78 860.097 729.852C861.003 725.564 861.223 721.23 860.568 716.847C860.212 714.465 860.252 712.024 860.152 709.607C859.967 705.089 859.857 700.565 859.622 696.047C859.507 693.795 859.042 691.559 858.966 689.307C858.546 676.542 858.116 663.773 857.851 651.004C857.691 643.413 857.821 635.818 857.821 627.787C859.847 624.95 860.132 621.282 859.917 617.504C859.882 616.859 859.902 616.208 859.872 615.563C859.077 599.731 859.142 583.889 859.267 568.048C859.292 564.975 859.307 561.928 858.626 558.886C858.316 557.515 858.576 556.019 858.576 554.343C861.774 551 862.159 546.682 862.039 542.229C861.989 540.452 861.934 538.671 861.884 536.895C861.553 525.591 860.057 514.338 860.603 503C860.663 501.709 860.598 500.413 860.603 499.122C860.628 495.154 858.937 492.212 855.219 490.726C851.476 489.23 847.708 487.724 843.835 486.638C836.5 484.581 828.949 483.546 821.384 482.81C808.189 481.529 794.974 480.433 781.77 479.232C780.023 479.072 778.187 479.297 776.556 478.267C774.85 476.525 774.825 474.149 774.454 471.962C773.238 464.782 772.573 457.541 772.408 450.251C771.983 431.727 776.546 414.039 781.349 396.386C781.655 395.271 782.245 394.29 783.566 394.085C786.593 395.351 786.588 395.356 789.045 397.828C801.524 410.402 816.64 417.967 833.988 421.04C844.861 422.961 855.324 421.825 864.586 415.185C867.458 413.124 870.195 410.797 872.667 408.27C875.374 405.508 877.73 402.401 880.187 399.399C883.154 395.771 886.006 392.043 889.014 388.451C895.643 380.525 904.13 376.057 914.382 374.671C922.944 373.515 931.48 373.915 940.041 374.34C941.647 374.42 943.279 374.545 944.865 374.37C945.715 374.275 946.496 373.595 947.126 373.274C947.452 371.403 946.356 370.562 945.52 369.612C941.127 364.588 936.048 360.34 930.519 356.637C917.51 347.931 903.399 341.656 888.338 337.393C869.98 332.194 851.891 333.135 833.948 339.219C820.813 343.673 810.131 351.333 802.51 363.097C799.258 368.116 795.805 373.004 792.363 377.898C790.501 380.54 788.495 383.077 786.488 385.614C786.188 385.994 785.517 386.084 784.447 386.559C784.812 384.558 784.957 383.132 785.342 381.776C786.583 377.423 787.874 373.084 789.215 368.761C797.066 343.458 801.835 317.624 802.62 291.104C802.665 289.648 802.71 288.187 802.89 286.751C803.025 285.665 803.381 284.604 803.626 283.574C804.376 283.188 804.922 282.818 805.522 282.628C806.443 282.338 807.394 282.097 808.349 281.972C818.647 280.616 828.979 280.561 839.332 281.192C844.976 281.537 850.63 282.017 856.275 281.997C870.485 281.957 881.763 275.813 890.64 264.91C894.773 259.831 897.62 254.037 900.107 248.052C902.338 242.678 904.39 237.229 906.547 231.825C911.655 219.021 920.592 209.934 933.181 204.375C939.12 201.753 945.225 199.672 951.605 198.441C952.886 198.196 954.222 198.051 954.407 196.259C953.576 194.283 951.585 193.767 949.878 192.977C929.418 183.48 907.978 180.233 885.586 182.809C866.977 184.951 850.205 191.621 835.369 203.019C820.173 214.693 809.385 229.459 804.381 248.162C804.091 249.253 801.749 260.772 801.749 260.772C801.749 260.772 800.729 248.928 800.549 247.032C798.907 230.054 794.964 213.557 790.061 197.28C787.824 189.855 785.077 182.589 782.54 175.254C781.8 173.107 780.914 170.966 781.214 168.659C782.02 162.454 783.851 156.64 788.39 152.067C790.666 149.775 793.093 147.629 795.51 145.482C800.108 141.384 804.381 136.976 808.149 132.102C814.449 123.951 819.282 115.1 821.329 104.852C823.125 95.8655 822.575 87.1541 818.822 78.7479C816.981 74.6149 814.979 70.5519 813.038 66.4639C809.27 58.518 806.493 50.327 806.073 41.4154C805.572 30.7926 808.009 20.8853 812.662 11.4384C814.089 8.54127 815.66 5.70919 817.091 2.81205C817.411 2.16158 817.426 1.36099 817.631 0.420296C816.74 0.23516 816.085 -0.10509 815.545 0.0300092C814.299 0.340237 813.073 0.800576 811.902 1.33097C805.422 4.27813 799.077 7.46548 793.043 11.2783C781.6 18.5036 771.362 27.0949 762.926 37.7077C752.478 50.8574 745.308 65.4731 743.021 82.3205C740.044 104.277 744.302 124.812 754.99 144.046C759.548 152.252 765.198 159.777 771.217 166.983C773.013 169.134 774.529 171.386 775.36 174.033C778.412 183.745 781.63 193.417 784.342 203.224C788.139 216.95 790.641 230.965 792.658 245.055C794.309 256.599 795.36 268.192 794.894 279.856C794.369 293.116 792.793 306.28 790.526 319.355C789.921 322.857 789.145 326.33 788.33 329.793C788.089 330.808 787.309 337.363 787.309 337.363C787.309 337.363 784.617 330.653 783.986 329.442C780.779 323.278 777.712 317.033 774.474 310.884C772.073 306.32 769.861 301.622 766.088 297.504C765.973 295.622 765.788 293.546 765.733 291.464C765.573 285.325 765.828 279.15 765.268 273.051C763.001 248.473 751.583 229.249 730.812 215.789C722.071 210.119 712.464 206.307 702.521 203.249C675.377 194.893 648.332 195.479 621.352 203.96C619.966 204.395 618.625 204.971 617.289 205.551C616.863 205.736 616.533 206.132 616.233 206.372C615.352 207.933 615.568 209.244 617.029 210.725C618.069 211.025 619.44 211.47 620.841 211.811C629.328 213.872 636.788 217.965 643.613 223.299C649.778 228.118 653.781 234.547 656.818 241.593C658.924 246.486 660.651 251.55 662.637 256.499C664.504 261.147 666.27 265.85 668.481 270.339C672.039 277.559 677.058 283.634 683.833 288.127C691.288 293.071 699.549 295.667 708.431 296.198C715.691 296.633 722.966 296.863 730.237 297.058C738.183 297.274 746.048 298.089 753.774 299.976C756.731 300.696 759.769 301.312 762.396 303.043C762.716 303.648 763.066 304.194 763.306 304.784C768.625 317.834 775.055 330.328 781.93 342.612C782.866 344.288 783.566 346.095 784.367 347.821C783.831 350.037 783.481 352.119 782.82 354.095C778.202 367.891 773.519 381.666 768.865 395.446C766.644 402.031 764.292 408.575 762.265 415.22C760.279 421.725 758.843 428.39 758.593 435.21C758.302 443.121 758.217 451.042 758.127 458.962C758.067 464.136 758.187 469.31 758.137 474.484C758.127 475.72 757.767 476.951 757.607 477.921C755.686 479.297 753.844 479.007 752.103 479.117C742.746 479.693 733.374 480.113 724.022 480.799C713.054 481.604 702.121 482.865 691.318 484.987C687.365 485.762 683.467 486.883 679.6 488.039C677.278 488.734 675.056 489.785 673.31 492.392C673.265 493.678 673.145 495.434 673.145 497.191C673.15 506.557 673.185 515.924 673.2 525.291C673.2 525.777 673.14 526.262 673.13 526.742C672.94 536.595 672.75 546.447 672.584 556.304C672.569 557.11 672.75 557.915 672.77 558.721C672.8 560.172 672.81 561.623 672.765 563.069C672.674 565.976 672.464 568.878 672.439 571.785C672.384 578.405 672.389 585.03 672.414 591.65C672.424 594.882 672.554 598.115 672.594 601.347C672.68 607.642 672.78 613.941 672.775 620.236C672.775 621.102 672.224 621.967 671.834 623.103C670.053 622.853 668.466 622.698 666.91 622.403C650.673 619.33 634.236 617.849 617.774 617.034C604.054 616.353 590.294 616.383 576.554 616.348C568.148 616.323 559.726 616.518 551.345 617.064C540.868 617.749 530.41 618.835 519.957 619.866C512.697 620.586 505.592 622.148 498.652 624.404C495.87 625.31 493.198 626.441 491.201 629.193C490.961 631.189 490.476 633.426 490.456 635.667C490.395 644.389 490.456 653.115 490.521 661.837C490.561 667.171 490.706 672.5 490.766 677.833C490.831 683.328 490.641 688.837 490.946 694.321C491.451 703.377 491.211 712.419 491.111 721.471C490.951 736.021 490.771 750.567 490.641 765.118C490.611 768.675 490.761 772.233 490.781 775.786C490.791 777.217 491.041 778.718 489.935 780.014C488.379 781.064 486.548 780.684 484.811 780.679C470.906 780.664 456.996 780.654 443.091 780.529C424.147 780.359 405.298 778.978 386.599 775.836C374.305 773.769 362.186 771.047 350.413 766.809C336.532 761.815 323.163 755.731 310.133 748.856C291.829 739.194 273.681 729.196 253.646 723.352C252.806 723.107 252.115 722.341 251.255 721.746C251.65 720.645 251.885 719.704 252.305 718.854C256.594 710.157 260.717 701.366 265.275 692.809C271.62 680.911 279.51 670.058 288.832 660.306C299.735 648.902 312.29 639.991 327.681 635.667C342.202 631.589 356.727 631.124 371.088 636.358C381.205 640.046 390.387 645.43 398.553 652.475C404.442 657.554 409.886 663.073 414.895 669.022C422.706 678.299 430.426 687.646 438.347 696.827C444.382 703.823 451.092 710.117 458.717 715.416C466.273 720.665 474.684 722.156 483.641 721.486C484.581 721.416 485.547 721.145 486.413 720.76C487.213 720.41 487.548 719.664 487.143 718.748C486.037 717.583 484.736 718.218 483.505 718.388C475.309 719.529 467.684 717.828 460.789 713.385C457.271 711.118 453.969 708.466 450.831 705.694C444.512 700.12 438.993 693.775 433.609 687.3C426.168 678.349 418.743 669.377 411.067 660.631C403.987 652.56 395.816 645.68 386.394 640.456C363.717 627.887 340.365 626.13 316.538 636.878C305.374 641.912 295.682 649.217 287.236 658.094C275.783 670.138 266.481 683.678 259.271 698.664C256.188 705.073 253.046 711.458 249.894 717.833C249.263 719.114 248.798 720.565 247.102 721.325C246.351 721.29 245.375 721.35 244.435 721.185C233.066 719.184 221.613 718.819 210.114 719.394C198.106 719.994 186.357 721.981 174.883 725.679C159.317 730.692 145.187 738.358 132.227 748.26C125.417 753.464 118.652 758.728 111.832 763.912C103.971 769.886 95.8503 775.455 87.194 780.244C82.3804 782.906 77.3317 784.122 71.8827 784.172C63.6367 784.247 55.3906 784.402 47.1445 784.557C32.7539 784.827 18.3684 785.107 3.97778 785.418C2.89199 785.443 1.81119 785.683 0.430176 785.863C0.710382 786.678 0.895518 787.214 1.13569 787.904C2.89199 787.954 4.48816 788.06 6.08934 788.039C13.85 787.934 21.6108 787.779 29.3715 787.669C66.0734 787.139 102.775 786.578 139.482 786.123C153.243 785.953 166.963 785.383 180.573 783.221C191.831 781.43 202.619 778.167 212.696 772.743C220.502 768.54 227.102 762.941 232.476 755.891C236.113 751.117 239.271 746.044 242.018 740.72C244.014 736.842 245.891 732.894 247.877 729.006C248.523 727.745 248.973 726.259 251.115 725.559C252.335 725.919 254.032 726.379 255.698 726.92C268.823 731.143 281.387 736.687 293.461 743.317C303.953 749.081 314.596 754.53 325.474 759.529C338.724 765.613 352.219 771.067 366.404 774.515C388.796 779.954 411.578 782.601 434.599 783.161C445.267 783.421 455.94 783.406 466.613 783.536C473.083 783.616 479.547 783.711 486.017 783.846C487.593 783.881 489.29 783.576 490.641 784.972C490.791 785.358 491.086 785.793 491.126 786.248C491.461 790.186 493.813 792.713 496.975 794.659C498.351 795.505 499.777 796.271 501.218 796.996C506.602 799.708 512.382 801.304 518.216 802.62C536.885 806.828 555.804 809.05 574.928 809.555C592.886 810.026 610.814 809.735 628.697 807.799C638.68 806.718 648.582 805.242 658.309 802.76C666.5 800.669 674.381 797.817 681.376 792.903C681.881 792.548 682.537 792.398 682.907 792.243C686.85 793.488 690.483 794.89 694.24 795.775C700.845 797.331 707.485 798.837 714.18 799.893C729.526 802.315 744.998 803.561 760.534 803.936C781.915 804.452 803.216 803.516 824.346 800.008C832.172 798.707 839.877 796.881 847.283 793.949C851.881 792.128 855.934 789.591 858.661 785.282C859.082 784.622 859.722 784.102 860.393 783.371C862.279 783.286 864.205 783.156 866.132 783.116C875.994 782.916 885.846 782.611 895.653 781.415C908.863 779.803 921.768 776.901 934.307 772.453C949.043 767.219 962.553 759.609 975.297 750.652C982.833 745.358 990.053 739.614 997.413 734.07C1005.94 727.645 1014.49 721.245 1024.05 716.387C1025.75 715.521 1027.56 714.846 1029.37 714.06C1031.49 714.836 1033.48 715.471 1035.41 716.282C1050.49 722.611 1065.88 728.045 1081.78 731.918C1105.03 737.577 1128.63 739.639 1152.53 738.493C1153.96 738.423 1155.4 738.483 1156.78 738.483C1158.19 739.644 1159.45 740.65 1160.67 741.695C1164.61 745.053 1168.49 748.48 1172.48 751.778C1181.46 759.213 1190.84 766.103 1201.05 771.778C1220.36 782.505 1241.07 788.125 1263.18 788.46C1268.35 788.54 1273.53 788.54 1278.7 788.53C1279.63 788.53 1280.72 788.565 1280.94 787.214C1280.42 785.613 1279.01 785.803 1277.77 785.788ZM884.565 358.989C882.354 358.534 880.127 358.053 877.88 357.863C856.97 356.107 836.935 359.259 818.061 368.741C811.256 372.159 804.882 376.287 798.542 380.49C797.271 381.335 788.735 387.11 788.735 387.11C788.735 387.11 794.744 379.389 795.405 378.328C797.977 374.22 800.649 370.167 803.246 366.069C812.502 351.463 825.947 342.962 842.549 339.049C857.475 335.532 872.356 335.632 887.177 339.645C905.195 344.523 921.628 352.594 936.268 364.218C937.915 365.524 939.496 366.91 941.022 368.351C941.697 368.986 942.158 369.852 942.638 370.512C941.852 372.409 940.431 371.873 939.211 371.838C933.882 371.693 928.553 371.448 923.224 371.373C918.18 371.303 913.231 372.134 908.368 373.41C902.163 375.041 896.529 377.838 891.991 382.436C888.703 385.764 885.601 389.286 882.594 392.874C879.271 396.837 876.319 401.115 872.892 404.978C870.445 407.74 867.668 410.292 864.711 412.503C857.415 417.962 849.089 420.024 840.028 419.268C822.31 417.792 807.028 410.657 793.588 399.279C791.642 397.632 789.591 395.986 788.525 393.725C788.35 391.883 789.31 390.737 790.381 389.767C792.292 388.03 794.224 386.284 796.315 384.778C805.262 378.343 814.689 372.714 824.786 368.246C834.799 363.813 845.352 361.566 856.184 360.425C864.911 359.509 873.617 359.704 882.319 360.79C883.344 360.92 884.41 360.76 885.326 360.735C885.766 359.539 885.131 359.109 884.565 358.989ZM803.581 267.337C804.226 254.927 806.778 242.979 812.948 232.066C820.063 219.471 829.8 209.304 841.809 201.193C857.405 190.66 874.778 185.702 893.317 184.641C911.305 183.61 928.748 186.572 945.52 193.232C947.116 193.868 948.933 194.228 949.948 195.749C949.498 197.35 948.217 197.25 947.186 197.54C943.614 198.546 939.956 199.317 936.488 200.597C933.016 201.878 929.648 203.505 926.386 205.261C918 209.769 911.945 216.579 907.702 225.015C906.181 228.043 904.935 231.21 903.619 234.332C901.173 240.137 898.891 246.011 896.299 251.75C894.032 256.769 891.1 261.407 887.432 265.57C880.477 273.461 871.691 277.854 861.358 279.05C857.05 279.551 852.637 279.701 848.309 279.42C836.04 278.635 823.791 277.984 811.517 279.225C810.416 279.335 804.356 279.766 804.356 279.766C804.356 279.766 807.564 275.918 808.069 274.772C818.877 250.114 836.02 231.185 859.457 217.92C867.668 213.272 876.429 210.014 885.376 207.177C886.722 206.752 888.043 206.242 889.254 205.811C889.259 204.3 888.438 204.035 887.643 204.225C884.976 204.861 882.299 205.501 879.702 206.372C857.881 213.702 839.567 226.156 824.696 243.769C818.102 251.58 812.172 259.801 807.359 268.823C806.698 270.059 803.15 276.098 803.15 276.098C803.15 276.098 803.516 268.613 803.581 267.337ZM763.011 295.187C763.011 295.187 758.037 281.542 756.551 279.04C740.444 251.91 717.352 233.477 687.415 223.564C685.269 222.854 683.147 222.048 680.976 221.423C679.955 221.128 678.839 221.163 677.153 220.982C677.763 222.003 677.938 222.734 678.364 222.929C679.67 223.534 681.051 224.025 682.442 224.41C701.16 229.644 717.658 238.886 731.968 251.99C743.602 262.648 752.443 275.242 757.617 290.248C758.443 292.645 761.605 300.006 761.605 300.006C761.605 300.006 757.092 298.289 756.071 298.009C746.159 295.302 736.051 294.562 725.819 294.522C719.524 294.497 713.214 294.191 706.94 293.666C697.373 292.87 688.686 289.713 681.261 283.398C676.362 279.23 672.544 274.242 669.972 268.422C666.905 261.482 664.178 254.392 661.386 247.332C659.185 241.763 656.838 236.289 653.535 231.245C650.298 226.296 646.285 222.193 641.396 218.881C635.997 215.223 630.173 212.491 623.979 210.52C622.463 210.034 620.836 209.789 619.806 208.603C619.635 207.382 620.346 206.902 621.102 206.662C624.174 205.676 627.241 204.635 630.368 203.87C642.352 200.948 654.496 199.116 666.855 199.752C686.775 200.778 705.844 205.271 723.677 214.443C743.216 224.49 755.525 240.412 761.29 261.427C763.341 268.933 763.011 295.187 763.011 295.187ZM245.41 728.506C242.533 734.11 239.691 739.739 236.639 745.248C228.443 760.034 216.204 769.996 200.272 775.58C191.065 778.808 181.598 780.699 171.931 781.8C162.274 782.896 152.582 783.046 142.89 783.196C126.733 783.446 110.571 783.546 94.4093 783.686C92.8181 783.701 83.5013 784.557 83.5013 784.557C83.5013 784.557 90.0261 781.545 90.5214 781.265C106.188 772.358 119.878 760.694 134.304 750.057C138.332 747.084 142.465 744.242 146.668 741.52C160.288 732.684 175.364 727.495 191.16 724.318C207.638 721.005 224.22 720.8 240.822 723.482C242.673 723.782 244.695 723.772 246.436 725.393C246.096 726.444 245.901 727.55 245.41 728.506ZM780.003 49.9167C776.546 56.5316 774.004 63.5167 771.847 70.6469C766.734 87.5294 764.777 104.762 765.783 122.39C766.478 134.569 768.61 146.443 772.153 158.091C772.618 159.627 772.923 161.219 773.238 162.8C773.283 163.03 774.269 165.417 774.269 165.417C774.269 165.417 770.071 162.069 769.17 160.813C765.393 155.569 761.385 150.456 758.067 144.932C748.25 128.595 743.392 110.771 744.192 91.7174C744.928 74.1945 750.347 58.0477 760.914 43.8973C771.707 29.4416 785.042 17.8481 801.069 9.44693C804.076 7.87077 807.058 6.24958 810.106 4.75849C811.041 4.29815 812.152 4.19807 813.698 3.79778C813.468 5.03869 813.483 5.83428 813.173 6.47475C812.042 8.79646 810.636 10.9981 809.63 13.3698C803.966 26.7346 802.38 40.4147 806.558 54.5451C808.124 59.839 810.281 64.8777 812.567 69.8814C814.179 73.409 815.715 76.9716 817.326 80.4992C820.613 87.6895 820.868 95.18 819.643 102.831C818.096 112.483 813.778 120.904 808.189 128.775C804.612 133.813 800.373 138.247 795.82 142.39C794.029 144.021 792.237 145.662 790.421 147.268C786.618 150.631 783.386 154.384 781.645 159.272C781.229 160.438 778.963 165.422 778.963 165.422C778.963 165.422 778.042 161.924 777.602 161.384C777.221 160.913 777.111 160.203 776.941 159.582C774.149 149.285 771.297 139.007 768.625 128.68C767.945 126.043 767.594 123.271 767.484 120.544C766.614 98.7376 770.391 77.7271 778.537 57.5023C779.803 54.36 781.474 51.3828 782.926 48.3155C783.321 47.4799 783.581 46.5842 783.906 45.7136C781.63 46.4441 780.879 48.2405 780.003 49.9167ZM783.291 341.101C782.7 340.345 782.085 339.58 781.67 338.729C776.881 328.867 772.113 319 767.389 309.107C766.699 307.661 766.198 306.115 765.768 304.569C765.638 304.104 763.681 298.404 763.681 298.404C763.681 298.404 769.105 305.284 769.851 306.671C780.169 325.89 784.422 335.076 785.518 340.56C785.167 340.861 785.257 345.199 785.257 345.199C785.257 345.199 783.461 341.316 783.291 341.101ZM759.949 484.356C761.004 473.868 760.364 463.361 760.439 452.863C760.489 446.083 760.519 439.273 761.14 432.533C762.09 422.175 765.052 412.238 768.75 402.546C776.071 383.352 782.47 363.868 787.559 343.963C791.567 328.286 794.589 312.455 795.73 296.253C797.121 276.498 796.706 256.849 793.548 237.294C790.581 218.926 786.683 200.773 780.599 183.145C780.124 181.774 779.693 180.378 779.358 178.967C779.223 178.406 776.821 169.7 776.821 169.7C776.821 169.7 781.555 178.882 781.94 180.002C784.582 187.633 787.429 195.214 789.635 202.969C793.223 215.564 795.955 228.358 797.786 241.347C800.023 257.219 801.389 273.151 800.894 289.183C800.108 314.681 796.14 339.68 788.325 363.993C782.685 381.546 778.152 399.394 773.724 417.272C769.836 432.968 769.316 448.91 771.282 464.942C771.732 468.63 772.203 472.322 772.908 475.965C773.524 479.127 774.479 482.22 775.29 485.347C775.61 486.573 775.935 487.794 776.241 488.955C774.309 491.111 771.922 490.671 769.736 490.686C766.544 490.706 763.241 490.976 760.829 488.945C759.669 487.278 759.809 485.782 759.949 484.356ZM676.507 492.502C678.264 490.616 680.53 490.12 682.707 489.645C688.856 488.304 695.001 486.873 701.221 485.957C717.853 483.511 734.605 482.335 751.407 481.859C753.154 481.809 754.96 481.494 756.796 482.48C758.433 485.132 756.566 488.99 759.999 491.832C764.202 494.098 769.446 493.183 774.559 493.213C776.351 493.223 778.092 492.842 779.438 491.101C780.058 488.234 777.316 485.862 777.647 483.15C778.437 481.624 779.643 481.834 780.744 481.904C784.772 482.16 788.81 482.345 792.823 482.775C806.788 484.271 820.753 485.792 834.704 487.438C840.163 488.084 845.522 489.35 850.68 491.296C852.182 491.862 853.663 492.537 855.059 493.333C856.65 494.243 857.866 495.519 857.846 497.461C857.535 498.992 856.45 499.737 855.239 500.203C852.532 501.244 849.825 502.334 847.033 503.09C837.18 505.757 827.078 507.033 816.956 508.064C791.977 510.605 766.959 510.51 741.94 508.874C727.11 507.903 712.334 506.252 697.758 503.265C692.864 502.264 688.061 500.808 683.267 499.387C681.431 498.842 679.665 497.941 678.013 496.955C676.537 496.075 675.757 494.659 676.507 492.502ZM675.557 499.783C676.567 499.963 677.558 499.943 678.359 500.318C685.614 503.7 693.345 505.372 701.15 506.773C724.773 511.011 748.63 512.472 772.588 512.742C791.212 512.952 809.755 511.966 828.199 509.395C837.336 508.119 846.397 506.477 855.109 503.31C855.824 503.05 856.635 503.055 857.591 502.91C859.132 505.682 858.351 508.359 858.106 510.811C856.815 513.322 854.683 514.488 852.517 515.604C848.604 517.621 844.391 518.766 840.138 519.767C829.57 522.264 818.822 523.615 808.014 524.421C780.869 526.447 753.734 526.007 726.639 523.485C716.497 522.539 706.384 521.223 696.487 518.741C692.269 517.681 688.111 516.29 684.033 514.759C680.866 513.568 677.853 511.956 675.316 509.204C674.521 505.927 673.955 502.975 675.557 499.783ZM857.721 529.86C856.355 532.216 853.918 533.202 851.556 534.228C844.841 537.13 837.781 538.871 830.596 540.052C815.104 542.594 799.498 544.01 783.801 543.89C770.396 543.785 756.977 543.6 743.592 542.879C728.916 542.084 714.28 540.557 699.875 537.415C694.816 536.314 689.847 534.883 685.129 532.717C681.596 531.091 678.224 529.209 675.156 526.107C674.986 524.981 674.626 523.57 674.601 522.149C674.566 520.062 674.716 517.961 674.911 515.879C674.966 515.304 675.467 514.768 675.847 514.053C676.702 514.288 677.538 514.353 678.199 514.719C686.515 519.347 695.631 521.508 704.838 523.31C715.951 525.481 727.195 526.562 738.493 527.348C757.217 528.649 775.95 528.724 794.684 528.038C808.414 527.538 822.094 526.287 835.584 523.51C842.244 522.139 848.794 520.413 854.883 517.25C855.569 516.895 856.38 516.78 857.415 516.47C858.616 520.208 858.651 523.35 857.721 529.86ZM674.956 532.246C675.051 531.716 675.667 531.276 676.167 530.625C677.023 530.98 677.838 531.141 678.434 531.586C683.442 535.354 689.207 537.39 695.161 539.006C705.173 541.723 715.396 543.24 725.689 544.285C751.132 546.872 776.641 547.297 802.17 546.067C813.313 545.526 824.396 544.325 835.319 541.958C842.92 540.312 850.395 538.311 857.1 534.148C857.475 533.913 858.021 533.948 858.766 533.802C859.067 534.488 859.597 535.169 859.627 535.869C859.752 538.771 859.777 541.683 859.747 544.585C859.717 547.287 858.691 549.544 856.75 551.5C854.428 553.842 851.706 555.513 848.779 556.915C841.449 560.422 833.728 562.754 825.812 564.455C812.657 567.277 799.308 568.613 785.888 568.913C763.887 569.404 741.951 568.453 720.245 564.415C711.023 562.699 701.896 560.617 693.17 557.065C686.335 554.283 680.27 550.41 675.196 544.31C674.376 540.262 674.241 536.259 674.956 532.246ZM856.405 567.362C855.224 569.394 853.372 570.059 851.576 570.795C843.895 573.937 835.86 575.738 827.699 577.009C816.505 578.756 805.247 579.726 793.914 580.002C772.233 580.532 750.597 579.806 729.006 577.82C720.159 577.004 711.328 575.944 702.622 574.077C696.917 572.856 691.338 571.245 685.984 568.888C682.997 567.572 680.3 565.846 677.953 563.554C676.257 561.903 675.136 560.057 675.136 557.61C675.136 555.834 674.956 554.057 675.001 552.286C675.021 551.556 675.417 550.84 675.847 549.459C677.278 550.345 678.164 550.745 678.869 551.35C684.743 556.389 691.573 559.651 698.869 561.958C712.169 566.166 725.804 568.653 739.694 569.989C755.325 571.49 770.972 572.261 786.663 571.65C801.214 571.085 815.695 569.859 829.875 566.221C837.411 564.29 844.771 561.908 851.731 558.381C852.592 557.945 853.482 557.555 854.378 557.2C854.658 557.09 855.014 557.155 855.649 557.125C855.959 557.63 856.65 558.25 856.695 558.911C856.89 561.813 857.03 564.725 856.405 567.362ZM675.862 566.411C676.567 566.637 677.423 566.697 677.983 567.132C684.693 572.306 692.574 574.633 700.625 576.554C708.811 578.505 717.147 579.521 725.493 580.457C741.885 582.293 758.353 582.929 774.83 583.109C792.778 583.304 810.691 582.598 828.434 579.566C837.04 578.095 845.622 576.519 853.583 572.671C854.253 572.346 855.079 572.341 856.355 572.076C857.415 576.999 856.76 581.277 856.6 585.23C854.258 588.027 851.601 589.564 848.924 591.04C843.65 593.952 837.941 595.718 832.127 597.159C820.793 599.966 809.25 601.317 797.631 602.093C774.514 603.639 751.442 602.943 728.461 600.101C715.781 598.535 703.217 596.268 691.123 591.98C687.63 590.744 684.233 589.218 680.856 587.677C678.799 586.741 676.878 585.521 675.477 583.719C673.955 578.971 674.101 570.94 675.862 566.411ZM856.535 603.914C855.629 605.921 853.948 607.227 852.011 608.077C848.764 609.503 845.492 610.949 842.104 611.96C832.612 614.797 822.825 616.068 812.978 616.854C790.696 618.625 768.41 618.525 746.114 617.034C730.287 615.978 714.53 614.357 699.024 610.909C693.515 609.683 688.101 607.987 682.687 606.366C680.21 605.625 677.858 604.505 675.992 602.663C674.316 598.08 674.045 592.876 675.417 587.897C676.607 588.398 677.548 588.643 678.329 589.138C683.297 592.286 688.761 594.267 694.325 596.018C705.158 599.436 716.302 601.412 727.525 602.938C745.513 605.38 763.611 605.986 781.73 605.535C797.246 605.15 812.773 604.399 827.999 601.002C832.877 599.911 837.731 598.555 842.429 596.854C846.047 595.543 849.394 593.496 852.872 591.795C853.838 591.325 854.838 590.914 855.799 590.489C857.355 593.566 857.525 597.204 856.535 603.914ZM680.936 707.1C679.96 708.656 678.239 709.477 676.442 709.762C676.277 709.842 676.107 709.922 675.927 709.982C675.647 710.072 675.362 710.162 675.081 710.242C674.901 710.292 674.721 710.337 674.536 710.387C673.65 710.758 672.755 711.108 671.844 711.393C660.991 714.786 649.793 716.342 638.529 717.493C611.424 720.27 584.315 719.799 557.215 717.363C552.231 716.912 547.277 716.127 542.319 715.421C541.258 715.271 540.237 714.811 539.196 714.495C539.196 714.49 539.196 714.485 539.201 714.485C537.67 714.295 536.159 713.82 534.668 713.475C532.832 713.049 530.98 712.744 529.154 712.279C527.348 711.818 525.556 711.308 523.755 710.818C523.034 710.623 522.314 710.407 521.608 710.157C517.195 709.287 512.807 708.256 508.459 707.035C504.401 705.894 500.498 704.338 497.04 701.851C493.268 699.139 492.612 697.213 493.808 692.034C494.358 692.064 495.094 691.884 495.529 692.164C505.166 698.354 516.124 700.51 527.117 702.447C552.371 706.9 577.84 707.841 603.424 707.005C615.873 706.595 628.272 705.679 640.586 703.778C653.56 701.776 666.315 698.979 678.209 693.125C679.029 692.719 679.995 692.619 681.136 692.309C682.477 695.321 682.422 698.233 682.111 700.99C682.106 701.866 681.956 702.752 681.876 703.607C681.756 704.818 681.586 706.059 680.936 707.1ZM681.276 719.729C679.975 722.036 677.988 723.222 675.917 724.072C671.594 725.844 667.251 727.665 662.767 728.946C652.024 732.013 640.991 733.669 629.918 735.005C610.639 737.342 591.275 738.103 571.87 737.893C560.232 737.767 548.613 737.107 537.11 735.221C527.533 733.649 518.041 731.623 509.019 727.94C505.597 726.544 502.324 724.738 499.117 722.887C495.679 720.905 493.723 717.848 493.573 713.785C493.483 711.368 493.343 708.946 493.393 706.53C493.408 705.639 493.888 704.758 494.253 703.567C495.514 704.098 496.605 704.378 497.501 704.958C502.72 708.356 508.464 710.367 514.468 711.868C531.441 716.112 548.653 718.934 566.101 720.029C587.397 721.365 608.722 721.751 630.028 720.13C642.923 719.149 655.772 717.738 668.316 714.41C671.279 713.625 674.181 712.609 677.118 711.733C678.038 711.458 678.984 711.248 679.935 711.098C680.2 711.058 680.51 711.323 681.061 711.563C681.941 714.24 681.606 717.087 681.276 719.729ZM681.436 687.861C679.034 690.523 676.047 691.779 673.03 692.915C662.707 696.797 652.054 699.424 641.161 701.086C625.16 703.522 609.028 704.613 592.871 704.653C575.753 704.698 558.616 704.338 541.593 702.136C532.296 700.93 523.085 699.209 514.003 696.877C509.144 695.632 504.406 693.98 499.993 691.564C498.446 690.718 496.995 689.667 495.589 688.591C494.118 687.466 493.168 685.894 493.147 684.033C493.092 679.034 493.168 674.036 493.228 669.037C493.233 668.757 493.523 668.482 493.983 667.666C494.899 667.896 495.739 667.916 496.37 668.291C505.136 673.535 514.919 675.722 524.756 677.688C536.965 680.125 549.319 681.521 561.708 682.697C581.547 684.578 601.412 684.328 621.267 683.287C636.133 682.507 650.813 680.18 665.329 676.843C669.912 675.792 674.361 674.361 678.679 672.51C679.389 672.204 680.185 672.104 681.121 671.864C681.486 672.52 682.011 673.045 682.036 673.585C682.221 678.389 682.517 683.222 681.436 687.861ZM493.608 723.212C494.148 723.212 494.939 722.962 495.294 723.247C503.875 730.142 514.138 733.059 524.536 735.561C533.657 737.753 542.939 738.978 552.306 739.779C568.458 741.165 584.62 741.035 600.757 740.269C619.816 739.369 638.775 737.352 657.413 732.969C664.198 731.373 670.843 729.401 677.213 726.544C678.094 726.149 679.004 725.804 679.92 725.503C680.195 725.413 680.545 725.539 681.091 725.584C681.321 726.024 681.811 726.559 681.856 727.125C682.131 730.817 682.402 734.525 681.576 737.923C680.03 740.329 677.843 741.405 675.667 742.481C670.703 744.928 665.399 746.374 660.075 747.745C647.986 750.852 635.677 752.543 623.253 753.584C605.8 755.045 588.353 754.435 570.93 753.319C553.982 752.233 537.15 750.027 520.643 745.868C516.425 744.803 512.257 743.447 508.179 741.911C501.999 739.579 498.321 736.972 493.788 732.333C492.637 728.451 492.607 727.325 493.608 723.212ZM493.002 737.858C494.288 736.717 495.119 737.177 495.96 737.737C498.506 739.434 500.938 741.35 503.635 742.756C508.514 745.298 513.763 746.959 519.077 748.4C532.061 751.918 545.301 753.899 558.661 755.22C575.878 756.922 593.141 757.627 610.439 757.167C626.961 756.726 643.273 754.585 659.35 750.727C665.96 749.141 672.419 747.104 678.504 743.997C679.199 743.642 679.995 743.482 681.246 743.066C682.692 747.37 681.926 751.157 681.791 754.675C679.71 757.442 676.968 758.533 674.336 759.704C667.971 762.536 661.331 764.552 654.576 766.218C644.189 768.775 633.591 769.921 622.968 770.877C596.644 773.249 570.369 772.593 544.17 769.126C532.136 767.534 520.312 764.912 508.719 761.34C505.336 760.299 502.059 758.883 498.817 757.452C496.6 756.471 494.569 755.11 493.047 752.468C492.667 747.775 492.677 742.661 493.002 737.858ZM681.286 788.915C679.58 791.512 677.098 792.753 674.656 793.994C669.297 796.716 663.638 798.627 657.814 800.073C649.788 802.065 641.632 803.226 633.396 803.836C629.198 804.146 625.019 804.447 621.072 806.143C620.206 806.513 619.19 806.583 618.229 806.668C601.938 808.134 585.625 808.314 569.299 807.384C565.586 807.174 561.878 806.928 558.165 806.703C555.769 806.558 553.387 806.343 550.425 805.317C550.46 805.302 550.495 805.292 550.53 805.277C550.289 805.262 550.049 805.247 549.804 805.212C548.618 805.047 547.467 804.727 546.277 804.572C544.996 804.401 543.73 804.206 542.464 803.946C541.268 803.701 540.082 803.406 538.886 803.161C538.406 803.061 537.925 802.95 537.46 802.805C529.569 802 521.719 800.919 513.988 798.963C508.959 797.692 504.096 795.925 499.567 793.348C497.461 792.148 495.369 790.897 493.923 788.465C493.473 785.743 492.857 782.776 493.973 779.423C495.094 779.768 496.07 779.868 496.81 780.334C507.703 787.139 519.862 790.346 532.231 793.038C551.611 797.251 571.195 798.887 591.019 798.257C607.206 797.742 623.313 796.676 639.215 793.408C652.565 790.661 665.604 787.009 677.703 780.519C678.634 780.019 679.735 779.843 680.986 779.443C682.537 782.851 681.981 785.963 681.286 788.915ZM680.856 774.965C677.123 777.827 672.83 780.029 668.321 781.84C657.483 786.193 646.27 789.265 634.792 791.367C622.688 793.583 610.474 794.824 598.185 795.355C594.147 795.53 590.109 795.76 586.071 795.855C566.066 796.321 546.387 793.819 526.977 789.125C522.114 787.949 517.32 786.468 512.532 785.012C505.967 783.016 500.133 779.543 494.478 775.75C494.093 775.49 493.823 775.05 493.107 774.254C492.822 769.116 492.562 763.997 493.248 758.583C494.343 758.678 495.224 758.513 495.814 758.848C505.407 764.267 516.044 766.429 526.607 768.8C547.693 773.539 569.118 774.985 590.659 775.075C598.415 775.105 606.196 775.055 613.926 774.525C631.354 773.334 648.732 771.592 665.414 765.923C669.687 764.472 673.81 762.571 677.993 760.865C679.159 760.389 680.22 759.438 681.611 760.154C682.782 764.297 682.477 770.932 680.856 774.965ZM682.237 667.561C681.251 668.146 680.215 668.882 679.079 669.427C672.314 672.67 665.119 674.521 657.744 675.622C651.354 676.578 644.929 677.288 638.509 678.024C634.822 678.449 631.159 678.734 627.651 680.23C625.77 681.031 623.573 681.276 621.492 681.416C605.195 682.507 588.893 683.132 572.586 681.636C571.965 681.581 571.355 681.446 570.745 681.096C570.755 681.096 570.77 681.091 570.78 681.091C570.199 681.001 569.624 680.881 569.058 680.731C567.782 680.395 566.501 680.165 565.185 680.035C562.504 679.77 559.797 679.695 557.15 679.154C556.269 678.974 555.418 678.709 554.573 678.419C540.567 677.448 526.667 675.502 512.947 672.014C509.825 671.219 506.783 670.088 503.745 669.002C502.234 668.457 500.768 667.736 499.362 666.95C494.508 664.233 491.271 661.842 493.593 652.295C494.639 652.58 495.469 652.62 496.085 653C503.38 657.518 511.546 659.45 519.827 661.006C548.553 666.395 577.56 667.786 606.711 666.84C622.072 666.34 637.364 665.019 652.45 661.967C657.668 660.911 662.872 659.685 667.981 658.199C671.684 657.123 675.226 655.487 678.844 654.101C679.73 653.761 680.615 653.43 681.761 652.995C682.151 653.841 682.717 654.511 682.737 655.202C682.847 659.215 683.012 663.253 682.237 667.561ZM678.454 651.349C676.072 652.685 673.495 653.736 670.903 654.606C661.061 657.904 650.934 660.015 640.651 661.336C617.819 664.273 594.882 665.144 571.91 664.123C552.026 663.238 532.266 660.976 512.787 656.693C509.324 655.932 505.897 654.882 502.589 653.606C498.977 652.21 495.469 650.478 493.037 646.776C492.772 643.678 492.367 640.801 493.503 637.709C494.478 637.799 495.484 637.649 496.265 637.999C506.437 642.573 517.31 644.234 528.228 645.61C555.578 649.057 583.054 649.127 610.554 648.612C625.275 648.337 639.955 647.466 654.556 645.545C662.737 644.469 670.828 642.878 678.589 639.931C679.755 639.49 680.931 638.695 682.267 639.455C684.283 645.249 683.297 648.632 678.454 651.349ZM680.37 635.933C677.513 637.038 674.621 638.114 671.674 638.94C662.132 641.602 652.345 642.858 642.502 643.598C612.801 645.84 583.069 646.36 553.327 644.534C541.388 643.798 529.454 642.873 517.62 640.986C511.536 640.016 505.552 638.705 499.767 636.543C497.641 635.747 495.509 634.962 493.858 632.75V629.893C494.343 629.433 494.634 628.968 495.049 628.792C496.68 628.107 498.326 627.431 500.013 626.896C508.704 624.139 517.736 623.308 526.722 622.253C553.287 619.14 579.951 618.815 606.641 619.681C623.934 620.241 641.196 621.447 658.309 624.154C664.368 625.11 670.363 626.506 676.362 627.822C678.078 628.197 679.745 628.907 681.366 629.613C682.607 630.148 683.457 631.124 683.508 632.595C683.327 634.507 681.876 635.347 680.37 635.933ZM675.972 624.144C674.721 618.63 674.851 610.459 676.257 606.886C677.103 607.071 678.073 607.111 678.884 607.487C689.407 612.395 700.655 614.617 712.003 616.413C737.467 620.436 763.126 621.547 788.855 620.977C802.745 620.671 816.65 620.021 830.35 617.364C834.629 616.533 838.877 615.513 843.1 614.432C846.863 613.466 850.495 612.11 853.858 610.094C854.658 609.613 855.604 609.378 856.735 608.933C857.195 609.923 857.866 610.729 857.911 611.575C858.061 614.477 858.031 617.389 857.996 620.296C857.971 622.528 856.835 624.284 855.369 625.865C852.682 628.762 849.44 630.944 845.772 632.27C840.768 634.081 835.694 635.763 830.546 637.119C820.353 639.8 809.875 640.841 799.413 641.802C781.97 643.403 764.547 642.753 747.119 641.367C732.433 640.196 717.883 638.134 703.467 635.142C697.938 633.996 692.404 632.795 687.13 630.834C685.994 629.573 684.919 628.377 683.823 627.161C681.121 626.12 678.439 625.09 675.972 624.144ZM690.433 652.735C706.254 657.033 722.451 658.784 738.728 660.12C752.123 661.221 765.528 661.256 778.928 660.866C797.521 660.321 816.005 658.574 834.248 654.766C840.268 653.51 846.212 652.014 851.751 649.212C852.567 648.797 853.547 648.712 854.693 648.412C855.089 649.438 855.684 650.288 855.704 651.154C855.784 654.381 855.704 657.614 855.634 660.841C855.594 662.742 854.753 664.339 853.197 665.364C850.645 667.051 848.089 668.782 845.351 670.123C837.721 673.866 829.455 675.442 821.149 676.808C805.958 679.305 790.636 679.995 775.27 680.05C752.273 680.135 729.421 678.544 706.835 674.016C701.135 672.875 695.506 671.399 689.852 670.038C688.291 669.662 686.7 669.292 685.059 667.496C685.139 662.517 684.683 657.423 685.489 652.685C687.666 651.799 689.062 652.365 690.433 652.735ZM685.654 637.254C685.654 636.348 686.079 635.437 686.385 634.221C687.806 634.442 689.082 634.502 690.272 634.847C705.379 639.22 720.83 641.787 736.436 643.368C752.673 645.009 768.975 646.07 785.302 645.385C799.343 644.799 813.388 643.863 827.148 640.751C832.802 639.47 838.366 637.734 843.895 635.958C846.487 635.127 848.889 633.711 851.381 632.57C852.387 632.11 853.402 631.68 854.573 631.164C854.984 631.86 855.539 632.37 855.569 632.915C855.789 636.763 856.139 640.631 854.999 644.394C853.262 646.105 851.081 646.786 848.989 647.596C841.424 650.533 833.543 652.31 825.547 653.556C792.628 658.684 759.583 658.769 726.479 655.852C714.395 654.786 702.431 652.91 690.648 649.993C689.552 649.723 688.461 649.438 687.39 649.082C686.95 648.937 686.58 648.587 686.049 648.252C685.204 644.654 685.649 640.936 685.654 637.254ZM685.474 672.099C686.299 672.159 687.26 672.054 688.111 672.314C705.694 677.638 723.757 680.135 741.995 681.671C759.428 683.137 776.891 683.042 794.339 682.262C805.157 681.776 815.955 680.731 826.598 678.589C830.556 677.793 834.483 676.823 838.361 675.707C843.04 674.361 847.463 672.389 851.531 669.652C852.562 668.962 853.718 668.457 855.004 667.761C855.489 668.522 856.044 669.007 856.104 669.542C856.535 673.385 856.78 677.238 855.809 681.411C854.358 682.162 852.842 683.047 851.251 683.758C843.385 687.265 835.114 689.497 826.728 691.303C811.211 694.646 795.545 696.742 779.678 697.593C763.341 698.469 747.029 698.364 730.727 697.243C719.114 696.442 707.535 695.186 696.172 692.499C693.345 691.829 690.558 690.968 687.786 690.097C686.735 689.767 685.774 689.167 684.909 688.751C683.848 684.123 684.103 675.962 685.474 672.099ZM684.588 693.19C686.234 692.154 687.615 692.94 688.936 693.365C697.122 695.997 705.554 697.468 714.04 698.609C730.082 700.765 746.219 701.276 762.385 701.141C772.243 701.061 782.095 700.78 791.897 699.734C809.43 697.858 826.803 695.111 843.605 689.547C846.512 688.586 849.309 687.295 852.161 686.175C853.192 685.774 854.243 685.434 855.439 685.009C855.859 685.679 856.43 686.18 856.47 686.72C856.735 690.563 857.205 694.426 856.109 698.158C853.427 700.57 850.335 701.951 847.203 703.247C840.288 706.109 833.012 707.59 825.682 708.856C800.063 713.295 774.289 713.8 748.405 712.094C736.146 711.283 723.942 710.082 711.823 708.051C704.648 706.85 697.563 705.229 690.648 702.937C688.516 702.231 686.33 701.601 684.248 699.87C684.073 697.423 683.528 695.201 684.588 693.19ZM684.123 706.875C684.128 706.149 684.573 705.424 684.893 704.473C686.164 704.648 687.305 704.623 688.321 704.968C704.823 710.598 721.986 712.569 739.198 714.265C754.81 715.806 770.461 716.317 786.138 715.756C801.499 715.206 816.74 713.575 831.802 710.427C839.577 708.801 847.168 706.635 854.138 702.682C854.783 702.316 855.599 702.236 856.49 701.981C857.876 705.794 857.656 709.442 857.25 712.869C856.154 714.971 854.328 715.736 852.617 716.622C846.978 719.554 840.908 721.22 834.739 722.561C819.703 725.834 804.446 727.455 789.12 728.361C763.551 729.877 738.103 728.376 712.804 724.488C706.279 723.487 699.84 721.826 693.415 720.245C690.318 719.484 687.22 718.483 684.513 716.607C683.628 713.3 684.093 710.072 684.123 706.875ZM856.98 784.142C855.059 787.329 852.237 788.92 849.319 790.321C843.16 793.283 836.63 795.125 829.95 796.441C812.763 799.813 795.375 801.124 777.887 801.364C756.671 801.655 735.551 800.414 714.57 797.196C706.74 795.995 698.929 794.659 691.338 792.318C689.042 791.607 686.805 790.701 684.743 789.956C683.578 786.008 683.578 786.008 684.979 782.666C685.694 782.666 686.54 782.455 687.235 782.696C711.248 790.992 736.151 793.083 761.315 793.288C780.264 793.438 799.127 792.368 817.821 789.06C825.307 787.734 832.707 786.048 839.917 783.571C844.831 781.88 849.58 779.893 853.863 776.891C854.483 776.456 855.264 776.241 856.41 775.73C857.696 778.968 856.92 781.68 856.98 784.142ZM850.135 776.381C845.522 779.123 840.523 781.004 835.369 782.405C825.067 785.202 814.584 787.134 803.991 788.445C785.177 790.771 766.288 791.182 747.384 790.296C729.927 789.481 712.624 787.349 695.761 782.48C693.13 781.72 690.533 780.799 687.966 779.828C686.79 779.383 685.729 778.633 684.813 778.127C683.948 774.364 684.198 763.281 685.234 759.348C686.074 759.428 687.07 759.288 687.861 759.629C704.253 766.754 721.701 768.975 739.238 770.832C755.01 772.503 770.827 773.038 786.663 772.513C802.495 771.988 818.277 770.717 833.738 766.969C840.673 765.288 847.388 763.016 853.447 759.098C854.093 758.683 854.894 758.508 856.094 758.037C856.525 759.133 856.89 759.694 856.95 760.284C857.08 761.565 856.945 762.876 857.1 764.152C857.786 769.961 854.748 773.644 850.135 776.381ZM856.705 752.553C854.803 755.195 852.136 756.982 849.239 758.473C844.031 761.16 838.481 762.886 832.812 764.262C820.508 767.244 807.984 768.65 795.365 769.181C777.582 769.926 759.804 769.941 742.066 768.215C729.346 766.979 716.692 765.273 704.253 762.245C699.059 760.98 693.955 759.448 689.097 757.192C687.505 756.451 685.744 755.956 684.618 754.505C683.738 750.022 683.803 745.673 684.798 742.101C686.069 741.205 687.28 741.815 688.461 742.301C697.938 746.219 707.885 748.395 717.918 750.192C737.882 753.764 758.027 754.96 778.287 754.38C795.94 753.874 813.448 752.083 830.721 748.29C838.481 746.584 846.072 744.387 853.077 740.49C853.868 740.049 854.833 739.924 855.904 739.594C856.29 740.334 856.79 740.86 856.815 741.415C856.985 745.093 857.946 748.791 856.705 752.553ZM858.226 730.047C857.941 733.339 855.974 735.766 853.127 737.277C849.995 738.938 846.798 740.53 843.49 741.785C835.599 744.778 827.318 746.294 819.032 747.675C799.368 750.942 779.543 752.093 759.638 751.297C741.705 750.582 723.867 748.831 706.299 744.933C700.29 743.602 694.421 741.845 688.721 739.524C687.395 738.983 686.124 738.308 684.613 737.592C683.743 732.724 684.093 727.9 684.268 723.097C684.293 722.416 684.964 721.766 685.424 720.945C686.835 721.28 688.101 721.496 689.312 721.876C703.867 726.469 718.823 728.811 733.985 730.197C750.257 731.683 766.549 732.328 782.871 731.633C800.153 730.892 817.336 729.166 834.293 725.544C841.279 724.052 848.059 722.021 854.408 718.684C854.833 718.458 855.289 718.278 855.754 718.153C856.049 718.073 856.385 718.138 856.7 718.138C858.031 718.583 858.316 719.789 858.346 720.865C858.431 723.922 858.491 727.005 858.226 730.047ZM1148.6 736.051C1141.82 736.046 1135.01 736.256 1128.25 735.881C1113.55 735.066 1098.97 733.129 1084.61 729.832C1074.36 727.475 1064.3 724.453 1054.44 720.805C1048.38 718.563 1042.33 716.297 1036.29 713.985C1035.31 713.61 1034.43 712.949 1033.12 712.204C1034.31 711.408 1035.02 710.728 1035.87 710.392C1050.34 704.663 1065.33 701.586 1080.9 702.902C1096.03 704.183 1110.35 708.631 1123.9 715.521C1132.89 720.089 1140.96 725.999 1148.78 732.283C1149.41 732.789 1149.98 733.364 1150.52 733.955C1150.72 734.17 1154.28 736.106 1154.28 736.106C1154.28 736.106 1149.51 736.051 1148.6 736.051Z" fill="#FFF3C1"/>
<path d="M596.944 630.409C596.008 631.524 595.788 632.065 595.448 632.15C594.367 632.43 593.246 632.675 592.14 632.69C585.515 632.77 578.895 632.795 572.271 632.795C571.205 632.795 569.939 632.98 569.539 631.484C570.099 630.198 571.285 630.133 572.401 630.093C575.628 629.988 578.86 629.928 582.093 629.908C585.16 629.888 588.232 629.913 591.3 629.988C592.881 630.028 594.467 630.218 596.944 630.409Z" fill="#FFF3C1"/>
<path d="M549.083 677.979C549.083 677.979 611.599 682.797 634.962 678.434C633 680.2 630.989 681.206 630.989 681.206L621.262 683.267H605.31L582.948 683.668L560.287 681.806L551.24 680.1L549.083 677.979Z" fill="#FFF3C1"/>
</g>
<defs>
<clipPath id="clip0_914_8954">
<rect width="1280.51" height="809.74" fill="white" transform="translate(0.5)"/>
</clipPath>
</defs>
</svg>
