<svg width="566" height="793" viewBox="0 0 566 793" fill="none" xmlns="http://www.w3.org/2000/svg">
<path d="M409.182 939.517C409.182 939.517 404.603 891.515 441.293 846.805C477.982 802.094 480.975 859.809 455.206 848.909C429.435 838.012 511.802 758.118 506.547 783.532C501.29 808.944 474.14 790.463 482.699 762.196C491.258 733.928 544.212 747.248 528.226 753.843C512.24 760.439 486.959 719.515 502.805 699.33C518.651 679.144 588.194 686.954 555.907 700.606C523.619 714.258 510.767 679.818 516.527 663.522C522.288 647.225 566.778 658.123 559.728 660.043C552.677 661.964 511.074 559.484 509.483 567.391C507.892 575.299 525.828 614.793 523.209 614.35C520.588 613.905 477.648 577.754 478.767 583.02C479.886 588.286 499.956 613.496 491.99 612.317C484.027 611.137 432.518 572.72 427.885 564.374C423.254 556.03 455.851 504.809 484.597 502.902C513.34 500.994 462.6 570.828 418.131 566.468C373.662 562.108 417.548 484.881 458.031 474.367C498.514 463.854 436.906 538.393 389.751 538.939C342.597 539.487 399.863 458.151 437.197 440.084C474.532 422.017 438.033 493.057 384.571 504.13C331.11 515.202 324.005 480.088 273.375 463.131C222.744 446.174 160.019 423.971 118.54 378.87C77.0602 333.77 98.7274 248.917 105.569 251.241C112.41 253.565 157.991 294.895 164.337 299.914C170.684 304.933 209.884 331.439 204.892 329.37C199.9 327.302 164.239 307.942 164.43 311.111C164.621 314.279 166.858 382.944 171.297 379.909C175.735 376.875 338.584 240.541 339.456 236.64C340.327 232.74 271.216 215.103 270.359 217.666C269.502 220.229 286.263 259.143 283.678 256.022C281.093 252.902 218.376 135.515 164.565 85.5145C110.754 35.5117 60.722 20.1452 58.6369 20.2346C56.5517 20.324 49.4655 37.5683 33.0721 48.9463C16.6787 60.3244 9.98031 61.9796 9.06103 61.3501C8.14174 60.7206 -2.16134 16.8951 4.13376 10.4092C10.4289 3.92328 54.0425 17.0887 54.0837 19.9844C54.1248 22.8801 41.577 39.0427 24.7783 48.4955C7.97821 57.9505 7.13979 60.7082 8.75482 70.4166C10.3719 80.1263 24.3121 129.48 46.5729 164.962C68.8304 200.445 113.186 253.416 111.567 246.913C109.95 240.407 65.2441 184.495 69.9031 176.215C74.56 167.934 124.506 205.845 152.235 161.41C179.963 116.975 121.75 66.9944 81.2583 101.003C40.7666 135.012 81.2666 181.298 115.087 174.768C148.907 168.237 156.548 120.146 128.761 105.528C100.974 90.9105 74.3959 118.904 78.9838 141.275C83.5696 163.644 113.86 178.2 132.819 156.095C151.776 133.993 146.108 93.0009 153.467 93.0936C160.826 93.1862 209.572 151.076 240.374 201.179C271.176 251.282 189.159 296.665 174.532 293.398C159.902 290.129 114.435 239.764 129.812 244.898C145.19 250.03 217.285 326.046 228.943 350.897C240.602 375.749 243.543 371.126 264.295 353.626C285.05 336.126 321.525 304.203 322.026 301.172C322.527 298.141 302.325 273.287 297.162 281.562C292.004 289.836 333.4 313.627 347.558 333.104C361.716 352.582 368.84 378.883 364.417 374.504C359.993 370.124 336.531 350.688 338.228 353.874C339.927 357.061 359.183 413.429 350.158 419.223C341.129 425.017 281.564 394.014 288.423 398.036C295.283 402.06 299.662 428.672 295.033 425.333C290.404 421.993 247.798 380.506 253.671 370.697C259.544 360.888 280.099 378.166 281.008 373.391C281.917 368.615 270.834 356.471 275.39 359.424C279.948 362.375 303.008 389.298 302.214 375.431C301.42 361.563 279.318 329.054 292.148 340.37C304.979 351.686 320.25 387.273 319.931 378.623C319.613 369.972 300.945 322.103 308.583 328.684C316.221 335.264 340.414 411.034 368.409 429.022C396.405 447.012 440.625 420.614 422.603 371.391C404.58 322.167 397.261 302.311 391.094 260.08C384.927 217.849 339.166 172.346 300.169 154.414C261.173 136.481 212.733 140.872 224.555 150.542C236.377 160.212 221.071 45.6002 295.256 52.544C369.442 59.4857 280.687 19.6282 360.437 -48.5599" stroke="#FFF3C1" stroke-width="3" stroke-miterlimit="10"/>
</svg>
