<svg width="341" height="582" viewBox="0 0 341 582" fill="none" xmlns="http://www.w3.org/2000/svg">
<path d="M115.205 92.4688C126.586 103.591 139.757 111.341 153.588 118.979C157.71 121.254 161.226 123.61 166.02 122.516C174.523 120.575 182.317 115.387 189.489 110.637C193.078 108.261 196.601 105.79 200.144 103.347C206.19 99.1834 212.668 94.678 214.156 86.9876C215.71 78.9557 214.508 69.8019 214.267 61.662C214.124 56.8081 214.302 51.8112 214.006 46.9643C213.584 40.0579 205.772 34.3224 200.813 30.5312C193.809 25.172 186.175 20.7362 178.868 15.8195C172.303 11.4046 165.069 4.48781 156.563 8.21278C156.452 8.26156 156.368 8.32777 156.302 8.40791C146.131 13.011 137.224 21.0115 128.265 27.531C121.262 32.6254 113.505 37.2529 112.261 46.5252C110.686 58.2541 109.916 70.6417 110.912 82.4438C111.264 86.6147 112.17 89.5034 115.205 92.4688ZM114.449 48.2849C115.505 41.4901 120.014 36.5316 125.363 32.4268C131.83 27.4648 138.608 22.921 145.308 18.2831C150.678 14.5686 157.246 8.1187 164.379 10.4498C166.271 11.0666 167.979 12.1398 169.658 13.2096C182.673 21.5028 196.601 30.0712 207.884 40.6677C212.713 45.2046 211.434 52.6928 211.277 58.6096C211.058 66.8261 211.424 75.0844 211.584 83.3079C211.64 86.1827 211.316 89.1863 209.765 91.6081C207.295 95.4655 202.134 98.1451 198.454 100.762C193.667 104.166 188.774 107.428 183.757 110.487C178.014 113.989 170.15 120.167 163.017 119.348C162.891 119.335 162.766 119.321 162.64 119.307C160.891 119.066 159.239 118.362 157.63 117.631C144.009 111.446 130.746 102.755 119.436 92.9357C113.78 88.026 112.829 80.9419 112.805 73.8335C112.773 65.4567 113.303 57.0833 114.376 48.7762C114.4 48.609 114.425 48.4452 114.449 48.2849Z" fill="#FFF3C1"/>
<path d="M174.492 183.373C185.872 194.496 199.044 202.246 212.874 209.884C216.996 212.159 220.512 214.515 225.306 213.42C233.809 211.48 241.604 206.291 248.775 201.542C252.364 199.165 255.887 196.695 259.43 194.252C265.476 190.088 271.954 185.582 273.442 177.892C274.996 169.86 273.794 160.706 273.553 152.567C273.41 147.713 273.588 142.716 273.292 137.869C272.87 130.962 265.058 125.227 260.1 121.436C253.096 116.077 245.461 111.641 238.154 106.724C231.589 102.309 224.355 95.3924 215.849 99.1173C215.738 99.1661 215.654 99.2323 215.588 99.3125C205.417 103.916 196.51 111.916 187.552 118.436C180.548 123.53 172.791 128.157 171.547 137.43C169.972 149.159 169.202 161.546 170.199 173.348C170.551 177.523 171.457 180.408 174.492 183.373ZM173.735 139.189C174.791 132.395 179.3 127.436 184.649 123.331C191.116 118.369 197.894 113.826 204.594 109.188C209.964 105.473 216.532 99.0232 223.665 101.354C225.557 101.971 227.265 103.044 228.944 104.114C241.959 112.407 255.887 120.976 267.17 131.572C271.999 136.109 270.72 143.597 270.564 149.514C270.344 157.731 270.71 165.989 270.87 174.212C270.926 177.087 270.602 180.091 269.051 182.513C266.581 186.37 261.42 189.05 257.74 191.666C252.953 195.071 248.06 198.332 243.043 201.392C237.3 204.894 229.436 211.072 222.303 210.253C222.177 210.239 222.052 210.225 221.926 210.211C220.177 209.971 218.526 209.267 216.916 208.535C203.295 202.35 190.029 193.66 178.722 183.84C173.066 178.931 172.115 171.846 172.091 164.738C172.059 156.361 172.589 147.988 173.662 139.681C173.687 139.517 173.711 139.353 173.735 139.189Z" fill="#FFF3C1"/>
<path d="M63.8226 185.349C75.2031 196.472 88.3746 204.221 102.205 211.859C106.327 214.135 109.843 216.49 114.638 215.396C123.14 213.455 130.935 208.267 138.106 203.517C141.695 201.141 145.218 198.67 148.762 196.228C154.807 192.064 161.285 187.558 162.773 179.868C164.327 171.836 163.125 162.682 162.884 154.542C162.741 149.688 162.919 144.692 162.623 139.845C162.201 132.938 154.389 127.203 149.431 123.412C142.427 118.052 134.792 113.617 127.485 108.7C120.92 104.285 113.686 97.3682 105.181 101.093C105.069 101.142 104.985 101.208 104.919 101.288C94.7478 105.891 85.8414 113.892 76.8826 120.411C69.8787 125.506 62.1222 130.133 60.8782 139.406C59.3032 151.135 58.5331 163.522 59.5297 175.324C59.8816 179.499 60.7911 182.384 63.8226 185.349ZM63.0665 141.165C64.1223 134.37 68.6313 129.412 73.98 125.307C80.4473 120.345 87.2247 115.801 93.9255 111.163C99.2951 107.449 105.863 100.999 112.996 103.33C114.888 103.947 116.596 105.02 118.275 106.09C131.29 114.383 145.218 122.952 156.501 133.548C161.33 138.085 160.051 145.573 159.895 151.49C159.675 159.706 160.041 167.965 160.201 176.188C160.257 179.063 159.933 182.067 158.382 184.488C155.912 188.346 150.751 191.025 147.072 193.642C142.284 197.047 137.392 200.308 132.374 203.368C126.631 206.87 118.767 213.048 111.634 212.229C111.508 212.215 111.383 212.201 111.258 212.187C109.508 211.947 107.857 211.243 106.247 210.511C92.6257 204.326 79.3636 195.635 68.0528 185.816C62.3974 180.906 61.4462 173.822 61.4218 166.714C61.3904 158.337 61.92 149.964 62.9933 141.657C63.0177 141.493 63.0421 141.329 63.0665 141.165Z" fill="#FFF3C1"/>
<path d="M14.4193 280.209C25.7998 291.328 38.9713 299.081 52.8014 306.719C56.9236 308.994 60.4395 311.35 65.2342 310.256C73.7365 308.315 81.5314 303.126 88.7025 298.377C92.2916 296 95.8145 293.53 99.3582 291.087C105.404 286.923 111.882 282.418 113.37 274.727C114.924 266.695 113.721 257.542 113.481 249.402C113.338 244.548 113.516 239.551 113.22 234.704C112.798 227.798 104.986 222.062 100.027 218.271C93.0233 212.912 85.3887 208.476 78.0817 203.559C71.5168 199.144 64.2829 192.228 55.7772 195.953C55.6657 196.001 55.5821 196.068 55.5159 196.148C45.3445 200.751 36.438 208.751 27.4793 215.271C20.4754 220.365 12.7188 224.993 11.4748 234.265C9.89984 245.994 9.12976 258.381 10.1263 270.184C10.4748 274.354 11.3843 277.243 14.4193 280.209ZM13.6631 236.025C14.7189 229.23 19.2279 224.271 24.5767 220.167C31.044 215.205 37.8214 210.661 44.5221 206.023C49.8918 202.308 56.4602 195.858 63.593 198.19C65.4851 198.806 67.1925 199.88 68.8721 200.949C81.8868 209.243 95.8145 217.811 107.097 228.407C111.927 232.944 110.648 240.433 110.491 246.349C110.272 254.566 110.638 262.824 110.798 271.048C110.854 273.922 110.53 276.926 108.979 279.348C106.508 283.205 101.348 285.885 97.6682 288.502C92.8805 291.906 87.9882 295.168 82.9705 298.227C77.228 301.729 69.3634 307.907 62.2305 307.088C62.1051 307.074 61.9797 307.06 61.8542 307.046C60.105 306.806 58.4533 306.102 56.8435 305.37C43.2224 299.185 29.9568 290.495 18.6495 280.675C12.9976 275.762 12.0463 268.682 12.0219 261.573C11.9906 253.196 12.5202 244.823 13.5934 236.516C13.6144 236.352 13.6353 236.188 13.6631 236.025Z" fill="#FFF3C1"/>
<path d="M233.777 272.302C245.158 283.421 258.329 291.174 272.159 298.813C276.282 301.088 279.797 303.444 284.589 302.349C293.091 300.409 300.886 295.22 308.057 290.471C311.646 288.094 315.169 285.624 318.713 283.181C324.758 279.017 331.236 274.511 332.724 266.821C334.278 258.789 333.076 249.635 332.836 241.496C332.693 236.642 332.87 231.645 332.574 226.798C332.153 219.891 324.34 214.156 319.382 210.365C312.378 205.005 304.743 200.57 297.436 195.653C290.871 191.238 283.637 184.321 275.132 188.046C275.02 188.095 274.937 188.161 274.87 188.241C264.699 192.844 255.793 200.845 246.834 207.365C239.83 212.459 232.073 217.086 230.829 226.359C229.254 238.088 228.484 250.475 229.481 262.277C229.836 266.452 230.746 269.337 233.777 272.302ZM233.021 228.118C234.077 221.324 238.586 216.365 243.935 212.26C250.402 207.298 257.179 202.754 263.88 198.117C269.25 194.402 275.818 187.952 282.951 190.283C284.843 190.9 286.55 191.973 288.23 193.043C301.245 201.336 315.172 209.905 326.455 220.501C331.285 225.038 330.006 232.526 329.849 238.443C329.63 246.66 329.996 254.918 330.156 263.141C330.212 266.016 329.888 269.02 328.337 271.442C325.866 275.299 320.706 277.979 317.026 280.595C312.238 284 307.346 287.261 302.328 290.321C296.586 293.823 288.721 300.001 281.589 299.182C281.463 299.168 281.338 299.154 281.212 299.14C279.463 298.9 277.811 298.196 276.201 297.464C262.58 291.276 249.318 282.589 238.007 272.769C232.352 267.859 231.401 260.779 231.376 253.667C231.345 245.29 231.875 236.917 232.948 228.61C232.972 228.446 232.997 228.282 233.021 228.118Z" fill="#FFF3C1"/>
<path d="M124.098 275.268C135.478 286.387 148.65 294.14 162.48 301.778C166.602 304.053 170.118 306.409 174.913 305.315C183.415 303.374 191.21 298.185 198.381 293.436C201.97 291.059 205.493 288.589 209.037 286.146C215.083 281.982 221.56 277.477 223.048 269.786C224.602 261.755 223.4 252.601 223.16 244.461C223.017 239.607 223.195 234.61 222.898 229.763C222.477 222.857 214.664 217.121 209.706 213.33C202.702 207.971 195.067 203.535 187.76 198.618C181.196 194.203 173.962 187.287 165.456 191.012C165.344 191.06 165.261 191.127 165.195 191.207C155.023 195.81 146.117 203.81 137.158 210.33C130.154 215.424 122.398 220.052 121.154 229.324C119.579 241.053 118.808 253.44 119.805 265.243C120.157 269.417 121.063 272.302 124.098 275.268ZM123.342 231.084C124.398 224.289 128.907 219.33 134.255 215.226C140.723 210.264 147.5 205.72 154.201 201.082C159.571 197.367 166.139 190.918 173.272 193.249C175.164 193.865 176.871 194.939 178.551 196.008C191.565 204.302 205.493 212.87 216.776 223.467C221.606 228.003 220.327 235.492 220.17 241.408C219.95 249.625 220.316 257.883 220.477 266.107C220.532 268.981 220.208 271.985 218.658 274.407C216.187 278.264 211.027 280.944 207.347 283.561C202.559 286.965 197.667 290.227 192.649 293.286C186.907 296.788 179.042 302.966 171.909 302.147C171.784 302.133 171.658 302.119 171.533 302.105C169.784 301.865 168.132 301.161 166.522 300.429C152.901 294.244 139.636 285.554 128.328 275.735C122.673 270.825 121.722 263.741 121.697 256.632C121.666 248.256 122.195 239.882 123.269 231.575C123.293 231.411 123.317 231.247 123.342 231.084Z" fill="#FFF3C1"/>
<path d="M72.7152 370.127C84.0957 381.249 97.2672 388.999 111.097 396.637C115.219 398.912 118.735 401.268 123.53 400.174C132.032 398.233 139.827 393.045 146.998 388.295C150.587 385.919 154.11 383.448 157.654 381.005C163.7 376.841 170.178 372.336 171.665 364.646C173.22 356.614 172.017 347.46 171.777 339.32C171.634 334.466 171.812 329.469 171.516 324.622C171.094 317.716 163.282 311.98 158.323 308.189C151.319 302.83 143.685 298.394 136.378 293.477C129.813 289.063 122.579 282.146 114.073 285.871C113.962 285.92 113.878 285.986 113.812 286.066C103.64 290.669 94.7339 298.669 85.7752 305.189C78.7713 310.283 71.0147 314.911 69.7707 324.183C68.1957 335.912 67.4257 348.3 68.4222 360.102C68.7742 364.273 69.6836 367.161 72.7152 370.127ZM71.959 325.943C73.0148 319.148 77.5238 314.19 82.8726 310.085C89.3399 305.123 96.1173 300.579 102.818 295.941C108.188 292.227 114.756 285.777 121.889 288.108C123.781 288.725 125.488 289.798 127.168 290.868C140.183 299.161 154.11 307.729 165.393 318.326C170.223 322.863 168.944 330.351 168.787 336.268C168.568 344.484 168.934 352.742 169.094 360.966C169.15 363.841 168.826 366.844 167.275 369.266C164.804 373.123 159.644 375.803 155.964 378.42C151.176 381.824 146.284 385.086 141.266 388.145C135.524 391.647 127.659 397.825 120.526 397.006C120.401 396.992 120.276 396.979 120.15 396.965C118.401 396.724 116.749 396.02 115.139 395.289C101.518 389.1 88.2562 380.413 76.9454 370.594C71.29 365.684 70.3387 358.6 70.3143 351.491C70.283 343.115 70.8126 334.741 71.8859 326.434C71.9103 326.27 71.9346 326.107 71.959 325.943Z" fill="#FFF3C1"/>
<path d="M183.384 365.186C194.764 376.308 207.936 384.058 221.766 391.696C225.888 393.972 229.404 396.327 234.195 395.233C242.697 393.292 250.492 388.104 257.663 383.354C261.253 380.978 264.775 378.507 268.319 376.064C274.365 371.9 280.843 367.395 282.33 359.705C283.885 351.673 282.682 342.519 282.442 334.379C282.299 329.525 282.477 324.528 282.181 319.681C281.759 312.775 273.947 307.039 268.988 303.248C261.984 297.889 254.35 293.453 247.043 288.537C240.478 284.122 233.244 277.205 224.738 280.93C224.627 280.979 224.543 281.045 224.477 281.125C214.305 285.728 205.399 293.729 196.44 300.248C189.436 305.342 181.68 309.97 180.436 319.242C178.861 330.971 178.091 343.359 179.087 355.161C179.443 359.332 180.352 362.22 183.384 365.186ZM182.628 321.002C183.683 314.207 188.192 309.249 193.541 305.144C200.008 300.182 206.786 295.638 213.487 291C218.856 287.286 225.425 280.836 232.557 283.167C234.45 283.784 236.157 284.857 237.836 285.927C250.851 294.22 264.779 302.788 276.062 313.385C280.891 317.922 279.613 325.41 279.456 331.327C279.236 339.543 279.602 347.801 279.762 356.025C279.818 358.9 279.494 361.903 277.943 364.325C275.473 368.183 270.312 370.862 266.633 373.479C261.845 376.883 256.953 380.145 251.935 383.204C246.192 386.706 238.328 392.884 231.195 392.065C231.07 392.052 230.944 392.038 230.819 392.024C229.069 391.783 227.418 391.079 225.808 390.348C212.187 384.163 198.921 375.472 187.614 365.653C181.959 360.743 181.007 353.659 180.983 346.551C180.951 338.174 181.481 329.8 182.554 321.493C182.579 321.329 182.603 321.166 182.628 321.002Z" fill="#FFF3C1"/>
<path d="M130.025 462.021C141.406 473.14 154.577 480.893 168.407 488.531C172.53 490.807 176.045 493.162 180.84 492.068C189.342 490.127 197.137 484.939 204.308 480.189C207.898 477.813 211.42 475.342 214.964 472.9C221.01 468.736 227.488 464.23 228.975 456.54C230.53 448.508 229.327 439.354 229.087 431.214C228.944 426.36 229.122 421.364 228.826 416.517C228.404 409.61 220.592 403.875 215.633 400.083C208.629 394.724 200.995 390.288 193.688 385.372C187.123 380.957 179.889 374.04 171.383 377.765C171.272 377.814 171.188 377.88 171.122 377.96C160.95 382.563 152.044 390.564 143.085 397.083C136.081 402.178 128.325 406.805 127.081 416.077C125.506 427.806 124.736 440.194 125.732 451.996C126.084 456.167 126.994 459.056 130.025 462.021ZM129.269 417.837C130.325 411.042 134.834 406.084 140.183 401.979C146.65 397.017 153.427 392.473 160.128 387.835C165.498 384.121 172.066 377.671 179.199 380.002C181.091 380.619 182.798 381.692 184.478 382.762C197.493 391.055 211.42 399.623 222.703 410.22C227.533 414.757 226.254 422.245 226.097 428.162C225.878 436.378 226.244 444.637 226.404 452.86C226.46 455.735 226.136 458.739 224.585 461.16C222.114 465.018 216.954 467.697 213.274 470.314C208.486 473.719 203.594 476.98 198.576 480.04C192.834 483.541 184.969 489.72 177.836 488.901C177.711 488.887 177.586 488.873 177.46 488.859C175.711 488.618 174.059 487.915 172.449 487.183C158.828 480.994 145.563 472.307 134.255 462.488C128.6 457.578 127.649 450.498 127.624 443.386C127.593 435.009 128.123 426.636 129.196 418.328C129.22 418.165 129.245 417.997 129.269 417.837Z" fill="#FFF3C1"/>
<path d="M340.613 250.078C340.452 242.081 340.055 235.112 339.397 228.777C339.313 227.975 339.25 227.184 339.188 226.414C338.818 221.762 338.466 217.372 334.114 213.759C323.713 205.12 312.381 197.747 301.426 190.618C297.053 187.771 292.53 184.83 288.111 181.837C287.742 181.586 287.383 181.349 287.038 181.119C283.968 179.077 282.114 177.847 281.316 174.073C280.299 169.251 280.627 164.268 281.052 159.578C281.954 149.598 282.327 136.925 277.135 127.422C273.1 120.039 267.479 116.652 260.97 112.731C258.615 111.313 256.573 110.115 254.649 108.986C250.552 106.578 247.011 104.501 242.147 101.295C240.669 100.323 238.77 99.2603 236.76 98.1383C232.212 95.5981 226.55 92.4411 224.181 89.2388C220.445 84.1897 220.727 78.3775 221.02 72.2273C221.079 70.9729 221.142 69.7149 221.167 68.4605C221.337 60.3381 221.01 52.1982 220.191 44.2604C219.504 37.5806 215.549 33.8347 210.455 29.6324C200.169 21.151 188.541 14.3423 177.714 6.5822C168.362 -0.125523 158.982 -1.5716 148.667 4.3521L148.235 4.5995C145.479 6.18148 142.353 7.97253 139.242 10.4988C136.579 12.6592 133.398 14.8858 130.032 17.2414C121.53 23.193 111.895 29.9355 107.487 37.9953C103.752 44.8249 104.18 53.8255 104.56 61.7667C104.679 64.2756 104.794 66.6451 104.78 68.8647C104.766 71.2063 105.083 73.7466 105.389 76.2031C106.198 82.6565 107.031 89.3329 102.177 93.5352C97.0231 97.9989 91.2492 102.198 85.6635 106.261C76.8616 112.662 67.7635 119.279 60.4982 127.293C52.1423 136.513 52.0691 147.026 51.996 158.152C51.9716 161.595 52.3793 165.038 52.773 168.366C53.1737 171.759 53.5884 175.272 53.5292 178.715C53.3793 187.374 49.8077 190.44 43.3264 196.008L43.0407 196.252C36.0229 202.28 29.0329 206.727 21.6283 211.431C19.217 212.964 16.7255 214.55 14.1748 216.222C6.35556 221.358 2.4947 231.847 0.860452 249.064C-0.118702 259.378 -1.16406 270.797 3.17418 281.637C6.14997 289.077 12.6242 293.08 18.8825 296.952C20.1055 297.708 21.3356 298.467 22.5377 299.255C26.5484 301.875 31.047 304.283 35.3991 306.611C40.382 309.28 45.4172 311.928 50.069 315.158C53.8985 317.821 58.4284 320.831 60.5296 325.145C62.0349 328.239 62.1534 331.821 61.906 335.25C61.2753 343.923 60.4494 352.711 61.3101 361.409C62.9897 378.396 79.5482 387.56 94.1588 395.644C97.9569 397.745 101.543 399.732 104.72 401.766C111.292 405.976 116.868 410.06 118.544 417.384C121.397 429.869 117.418 442.358 119.206 454.766C119.725 458.369 120.829 461.038 121.279 462.018C124.352 468.715 130.412 472.715 136.266 476.579C137.743 477.555 139.27 478.562 140.695 479.583L143.2 481.385C155.006 489.894 167.17 498.664 180.969 498.664C182.565 498.664 184.185 498.546 185.826 498.298C189.928 497.678 195.942 493.542 204.27 487.82C208.054 485.218 212.347 482.27 216.936 479.346C226.418 473.304 228.864 471.544 231.136 468.119C233.582 464.425 234.669 461.446 235.282 456.728C236.708 445.794 235.436 425.89 234.296 415.914C233.986 413.196 233.666 410.387 235.136 407.763C235.756 406.655 236.415 406.07 239.812 403.15C249.548 394.777 260.664 387.856 270.323 382.027C271.11 381.553 271.947 381.065 272.811 380.556C279.187 376.828 287.125 372.186 289.571 365.085C290.815 361.478 290.436 356.711 290.104 352.506C289.969 350.802 289.843 349.192 289.829 347.781C289.791 343.934 289.334 339.825 288.85 335.477C288.003 327.88 287.129 320.023 288.624 313.566C288.683 313.308 289.237 310.973 290.449 308.994C293.164 304.558 298.168 302.377 302.586 300.053C311.252 295.499 319.204 289.819 327.166 284.157C328.278 283.366 329.4 282.651 330.483 281.958C335.003 279.076 339.271 276.355 340.118 269.682C340.892 263.573 340.763 257.266 340.637 251.168L340.613 250.078ZM337.665 269.368C336.968 274.891 333.518 277.09 329.156 279.871C328.044 280.578 326.894 281.313 325.734 282.139C319.577 286.519 311.911 291.972 305.084 295.91C303.823 296.638 302.464 297.328 301.029 298.06C296.411 300.408 291.178 303.071 288.345 307.702C286.961 309.966 286.331 312.521 286.219 313.008C284.63 319.873 285.529 327.943 286.397 335.745C286.874 340.031 287.324 344.077 287.359 347.798C287.373 349.296 287.505 350.945 287.641 352.694C287.955 356.659 288.31 361.154 287.237 364.276C285.09 370.514 277.592 374.897 271.567 378.42C270.692 378.932 269.845 379.427 269.051 379.908C259.308 385.79 248.088 392.776 238.206 401.275C234.763 404.237 233.84 405.031 232.986 406.554C231.125 409.871 231.512 413.231 231.85 416.192C232.976 426.05 234.237 445.689 232.84 456.404C232.279 460.704 231.296 463.411 229.083 466.749C227.062 469.798 224.885 471.353 215.616 477.259C210.988 480.207 206.678 483.169 202.876 485.782C195.123 491.11 189.001 495.316 185.46 495.852C170.627 498.103 158.009 489.005 144.65 479.377L142.137 477.569C140.674 476.52 139.127 475.499 137.632 474.51C132.064 470.833 126.307 467.032 123.526 460.976C123.119 460.094 122.126 457.69 121.652 454.404C120.85 448.846 121.241 443.121 121.617 437.584C122.077 430.824 122.554 423.834 120.951 416.827C119.07 408.593 113.09 404.188 106.055 399.679C102.807 397.599 99.187 395.595 95.354 393.473C81.2765 385.682 65.3208 376.852 63.7702 361.154C63.1604 354.987 63.5332 348.648 63.8956 342.522C64.1186 338.773 64.3451 334.898 64.3521 331.072C64.3556 329.041 64.2754 327.02 63.2649 324.654C62.3833 322.591 60.8118 320.897 58.0312 318.305C51.9785 312.674 44.1453 308.479 36.5699 304.423C32.0679 302.011 27.8168 299.736 23.8967 297.175C22.6771 296.377 21.4331 295.61 20.1891 294.84C13.9971 291.011 8.14661 287.39 5.47397 280.707C1.33086 270.358 2.88148 260.047 3.83276 250.043C5.39383 233.62 8.38704 222.979 15.5408 218.278C18.074 216.612 20.5585 215.034 22.9628 213.504C30.4406 208.748 37.5073 204.256 44.6575 198.113L44.9433 197.869C51.5046 192.235 55.8394 188.513 56.0067 178.742C56.0694 175.132 55.6443 171.536 55.2331 168.062C54.8498 164.811 54.4526 161.449 54.4735 158.156C54.5466 147.051 54.6128 137.461 62.3346 128.938C69.4256 121.112 78.4227 114.571 87.12 108.243C92.7476 104.153 98.5667 99.9189 103.801 95.389C109.651 90.3225 108.693 82.653 107.846 75.8861C107.536 73.3981 107.243 71.046 107.254 68.8682C107.268 66.5824 107.153 64.1815 107.031 61.6378C106.668 54.0206 106.257 45.3894 109.658 39.1695C113.787 31.6186 123.171 25.0502 131.45 19.2554C134.855 16.872 138.067 14.621 140.799 12.4083C143.761 10.0075 146.66 8.34189 149.465 6.73552L149.897 6.48812C163.177 -1.13604 170.777 4.488 178.822 10.4465C180.645 11.7951 182.53 13.1924 184.485 14.4329C193.221 19.9802 201.085 25.0955 208.887 31.5314C213.696 35.4968 217.145 38.7479 217.738 44.5078C218.543 52.3446 218.867 60.3834 218.699 68.4013C218.675 69.6348 218.616 70.8683 218.553 72.1019C218.25 78.4158 217.936 84.9458 222.194 90.7023C224.881 94.3332 230.554 97.5006 235.558 100.292C237.526 101.393 239.387 102.431 240.791 103.355C245.712 106.595 249.276 108.689 253.402 111.111C255.318 112.237 257.353 113.432 259.698 114.843C265.901 118.579 271.257 121.805 274.971 128.604C279.843 137.52 279.466 149.72 278.595 159.351C278.173 164.013 277.815 169.421 278.905 174.578C279.912 179.338 282.456 181.028 285.676 183.171C286.014 183.398 286.369 183.631 286.731 183.879C291.171 186.886 295.701 189.834 300.084 192.684C310.984 199.775 322.249 207.107 332.543 215.654C336.093 218.605 336.376 222.135 336.731 226.606C336.794 227.397 336.86 228.205 336.944 229.028C337.592 235.296 337.985 242.196 338.146 250.127L338.167 251.21C338.289 257.225 338.414 263.441 337.665 269.368Z" fill="#FFF3C1"/>
<path d="M133.454 57.9268C138.59 55.8674 143.405 52.9822 147.74 49.55C151.186 46.8216 155.692 43.3614 157.079 38.9883C158.006 36.0683 157.302 32.7127 155.002 30.6185C152.336 28.1898 147.841 28.7578 144.75 30.0157C141.05 31.521 137.903 34.1762 134.896 36.7443C130.976 40.086 126.492 43.7203 123.836 48.2119C122.296 50.8183 120.878 54.6687 122.965 57.3797C125.523 60.6935 130.255 59.2091 133.454 57.9268ZM126.882 48.2502C128.401 46.0376 130.516 44.1908 132.457 42.3579C135.056 39.9048 137.719 37.49 140.649 35.4341C143.385 33.5141 146.427 31.7963 149.855 31.7161C151.761 31.6708 153.96 32.1761 154.636 34.1692C155.441 36.5527 154.521 39.5598 152.859 41.3543C148.096 46.494 136.238 54.3969 132.286 55.3866C131.203 55.6583 128.478 56.3239 127.331 56.0765C122.519 55.0242 125.673 50.0134 126.882 48.2502Z" fill="#FFF3C1"/>
<path d="M83.061 144.88C88.1972 142.82 93.0129 139.935 97.3476 136.503C100.794 133.774 105.299 130.314 106.686 125.941C107.613 123.021 106.909 119.666 104.609 117.571C101.944 115.143 97.4487 115.711 94.3579 116.969C90.6573 118.474 87.5108 121.129 84.5036 123.697C80.5835 127.039 76.0989 130.673 73.4437 135.165C71.9036 137.771 70.4854 141.622 72.5726 144.333C75.1302 147.646 79.8622 146.162 83.061 144.88ZM76.4892 135.203C78.0085 132.99 80.1236 131.144 82.0645 129.311C84.6639 126.854 87.3261 124.443 90.2566 122.387C92.992 120.467 96.034 118.749 99.4627 118.669C101.369 118.624 103.568 119.129 104.244 121.122C105.048 123.506 104.129 126.513 102.466 128.307C97.703 133.447 85.8452 141.35 81.8937 142.339C80.81 142.611 78.0851 143.277 76.9387 143.029C72.1266 141.981 75.2801 136.966 76.4892 135.203Z" fill="#FFF3C1"/>
<path d="M31.3921 239.084C36.699 237.519 41.769 235.101 46.4069 232.101C50.0971 229.714 54.9092 226.696 56.7037 222.473C57.9024 219.654 57.5191 216.246 55.4284 213.943C53.0032 211.274 48.4767 211.413 45.2814 212.372C41.4554 213.518 38.0719 215.867 34.8348 218.135C30.6185 221.093 25.8064 224.282 22.7365 228.505C20.9559 230.955 19.1823 234.655 21.0012 237.547C23.2348 241.088 28.0853 240.06 31.3921 239.084ZM25.7681 228.829C27.4894 226.77 29.7718 225.132 31.8764 223.494C34.6989 221.295 37.5737 219.149 40.6888 217.375C43.5914 215.724 46.7833 214.298 50.2051 214.546C52.1076 214.682 54.2506 215.393 54.7315 217.442C55.3064 219.891 54.1078 222.797 52.2819 224.425C47.0551 229.09 34.5003 235.836 30.4722 236.446C29.3676 236.613 26.5904 237.021 25.4719 236.662C20.7817 235.16 24.3951 230.47 25.7681 228.829Z" fill="#FFF3C1"/>
<path d="M144.037 231.177C149.344 229.613 154.414 227.195 159.052 224.194C162.742 221.808 167.554 218.79 169.349 214.567C170.547 211.748 170.164 208.34 168.073 206.037C165.648 203.367 161.122 203.507 157.926 204.465C154.1 205.611 150.717 207.96 147.48 210.228C143.264 213.187 138.451 216.375 135.382 220.598C133.601 223.048 131.827 226.749 133.646 229.641C135.88 233.181 140.73 232.153 144.037 231.177ZM138.413 220.922C140.134 218.863 142.417 217.225 144.521 215.588C147.344 213.389 150.219 211.242 153.334 209.469C156.236 207.817 159.428 206.392 162.85 206.639C164.753 206.775 166.896 207.486 167.377 209.535C167.951 211.985 166.753 214.891 164.927 216.518C159.7 221.184 147.145 227.93 143.117 228.54C142.013 228.707 139.235 229.115 138.117 228.756C133.427 227.257 137.04 222.567 138.413 220.922Z" fill="#FFF3C1"/>
<path d="M89.6914 329.002C94.9983 327.438 100.068 325.02 104.706 322.019C108.396 319.633 113.209 316.615 115.003 312.392C116.202 309.573 115.818 306.165 113.728 303.862C111.302 301.192 106.776 301.332 103.581 302.29C99.7547 303.436 96.3713 305.785 93.1341 308.053C88.9178 311.012 84.1057 314.2 81.0358 318.423C79.2552 320.873 77.4816 324.574 79.3005 327.466C81.5341 331.006 86.3846 329.975 89.6914 329.002ZM84.0639 318.747C85.7852 316.688 88.0676 315.05 90.1723 313.413C92.9947 311.214 95.8695 309.067 98.9847 307.294C101.887 305.642 105.079 304.217 108.501 304.464C110.403 304.6 112.546 305.311 113.027 307.36C113.602 309.81 112.404 312.716 110.578 314.343C105.351 319.009 92.7961 325.755 88.768 326.365C87.6634 326.532 84.8862 326.94 83.7677 326.581C79.081 325.079 82.691 320.389 84.0639 318.747Z" fill="#FFF3C1"/>
<path d="M201.347 323.072C206.654 321.507 211.724 319.089 216.362 316.089C220.052 313.702 224.864 310.684 226.658 306.461C227.857 303.642 227.474 300.234 225.383 297.931C222.958 295.262 218.431 295.401 215.236 296.359C211.41 297.506 208.027 299.854 204.789 302.123C200.573 305.081 195.761 308.269 192.691 312.493C190.911 314.942 189.137 318.643 190.956 321.535C193.189 325.075 198.04 324.047 201.347 323.072ZM195.723 312.817C197.444 310.757 199.726 309.12 201.831 307.482C204.653 305.283 207.528 303.137 210.643 301.363C213.546 299.711 216.738 298.286 220.16 298.534C222.062 298.67 224.205 299.38 224.686 301.429C225.261 303.879 224.062 306.785 222.236 308.412C217.01 313.078 204.455 319.824 200.427 320.434C199.322 320.601 196.545 321.009 195.426 320.65C190.736 319.152 194.35 314.461 195.723 312.817Z" fill="#FFF3C1"/>
<path d="M148.978 418.921C154.285 417.356 159.355 414.938 163.993 411.938C167.683 409.551 172.495 406.533 174.29 402.31C175.488 399.491 175.105 396.083 173.014 393.78C170.589 391.111 166.063 391.25 162.867 392.208C159.041 393.355 155.658 395.703 152.421 397.972C148.204 400.93 143.392 404.118 140.322 408.342C138.542 410.791 136.768 414.492 138.587 417.384C140.821 420.924 145.671 419.893 148.978 418.921ZM143.354 408.666C145.075 406.606 147.358 404.969 149.462 403.331C152.285 401.132 155.16 398.986 158.275 397.212C161.177 395.56 164.369 394.135 167.791 394.383C169.694 394.518 171.837 395.229 172.317 397.278C172.892 399.728 171.694 402.634 169.868 404.261C164.641 408.927 152.086 415.673 148.058 416.283C146.954 416.45 144.176 416.858 143.058 416.499C138.368 414.997 141.978 410.307 143.354 408.666Z" fill="#FFF3C1"/>
<path d="M251.74 230.192C257.047 228.627 262.117 226.209 266.755 223.209C270.445 220.822 275.257 217.804 277.052 213.581C278.251 210.762 277.867 207.354 275.777 205.051C273.351 202.382 268.825 202.521 265.63 203.479C261.804 204.626 258.42 206.974 255.183 209.243C250.967 212.201 246.155 215.389 243.085 219.613C241.304 222.062 239.53 225.763 241.349 228.655C243.583 232.195 248.433 231.164 251.74 230.192ZM246.116 219.937C247.838 217.877 250.12 216.24 252.225 214.602C255.047 212.403 257.922 210.257 261.037 208.483C263.94 206.831 267.131 205.406 270.553 205.654C272.456 205.789 274.599 206.5 275.08 208.549C275.655 210.999 274.456 213.905 272.63 215.532C267.403 220.198 254.848 226.944 250.82 227.554C249.716 227.721 246.939 228.129 245.82 227.77C241.13 226.268 244.743 221.578 246.116 219.937Z" fill="#FFF3C1"/>
<path d="M197.681 141.914C202.817 139.855 207.633 136.97 211.968 133.538C215.414 130.809 219.919 127.349 221.306 122.976C222.233 120.056 221.529 116.7 219.23 114.606C216.564 112.177 212.069 112.745 208.978 114.003C205.277 115.509 202.131 118.164 199.124 120.732C195.204 124.074 190.719 127.708 188.064 132.199C186.524 134.806 185.105 138.656 187.193 141.367C189.75 144.681 194.482 143.197 197.681 141.914ZM191.109 132.238C192.629 130.025 194.744 128.178 196.685 126.345C199.284 123.889 201.946 121.478 204.877 119.422C207.612 117.502 210.654 115.784 214.083 115.704C215.989 115.658 218.188 116.164 218.864 118.157C219.669 120.54 218.749 123.547 217.087 125.342C212.323 130.482 200.465 138.385 196.514 139.374C195.43 139.646 192.705 140.311 191.559 140.064C186.747 139.015 189.9 134.004 191.109 132.238Z" fill="#FFF3C1"/>
<path d="M155.971 111.996C160.602 117.899 167.847 114.794 173.178 111.679C181.049 107.083 188.928 101.992 195.845 96.0402C197.068 94.9879 195.427 92.8066 194.099 93.7788C188.904 97.5909 183.872 101.574 178.492 105.131C173.335 108.539 163.181 117.01 157.745 110.222C156.731 108.957 154.989 110.745 155.971 111.996Z" fill="#FFF3C1"/>
<path d="M107.362 207.479C112.185 210.758 117.816 207.796 122.126 204.988C125.346 202.89 128.245 200.346 131.402 198.165C135.5 195.332 139.977 193.207 144.312 190.785C145.633 190.046 144.671 187.994 143.277 188.652C138.117 191.095 133.13 193.956 128.482 197.273C123.806 200.611 114.92 209.452 108.616 205.667C107.414 204.939 106.177 206.674 107.362 207.479Z" fill="#FFF3C1"/>
<path d="M219.801 202.382C218.996 201.019 216.766 202.065 217.564 203.465C221.362 210.145 228.568 205.103 233.087 202.197C241.471 196.803 250.876 192.186 258.66 185.987C259.95 184.959 258.556 182.837 257.085 183.576C251.437 186.419 246.405 190.52 241.116 193.966C237.61 196.249 223.184 208.107 219.801 202.382Z" fill="#FFF3C1"/>
<path d="M309.482 277.717C304.499 280.466 299.91 283.982 295.15 287.094C290.767 289.958 282.77 295.094 277.975 290.369C276.884 289.296 275.243 290.944 276.299 292.046C280.062 295.969 285.495 294.979 290.056 293.014C297.241 289.916 304.712 284.867 310.904 280.142C312.301 279.076 311.116 276.818 309.482 277.717Z" fill="#FFF3C1"/>
<path d="M89.9843 284.456C84.8725 287.544 80.144 291.293 75.1158 294.53C72.9275 295.938 70.7322 297.495 68.3871 298.631C63.8538 300.823 61.655 298.123 58.6967 295.011C57.4213 293.673 55.4491 295.673 56.6756 297.032C61.2717 302.112 63.2614 304.607 69.9482 301.304C77.4539 297.596 85.423 292.161 91.6046 286.557C92.7301 285.53 91.2735 283.676 89.9843 284.456Z" fill="#FFF3C1"/>
<path d="M261.514 366.897C256.59 370.73 251.963 374.786 246.649 378.11C244.45 379.486 242.199 380.772 239.907 381.985C235.701 384.208 232.523 384.622 228.449 381.661C227.268 380.8 225.704 382.796 226.874 383.702C232.798 388.292 236.655 387.197 242.949 383.765C250.207 379.81 257.74 374.876 263.403 368.785C264.608 367.489 262.838 365.865 261.514 366.897Z" fill="#FFF3C1"/>
<path d="M153.887 371.089C149.019 375.329 144.141 379.445 138.726 382.992C133.534 386.393 125.739 392.424 119.624 388.104C118.101 387.027 116.693 389.511 118.171 390.592C124.021 394.871 130.405 391.494 135.851 388.226C142.988 383.943 149.873 378.863 155.727 372.932C156.915 371.723 155.138 369.995 153.887 371.089Z" fill="#FFF3C1"/>
<path d="M209.532 462.342C203.236 466.387 197.849 471.746 191.632 475.928C186.144 479.618 176.764 484.615 170.84 479.092C169.596 477.931 167.749 479.761 168.969 480.963C173.948 485.873 180.963 485.277 186.921 482.541C195.601 478.555 204.487 471.22 211.295 464.62C212.459 463.488 210.94 461.439 209.532 462.342Z" fill="#FFF3C1"/>
<path d="M92.4373 423.109C90.3501 417.698 88.3535 412.175 86.0154 406.871C85.7436 406.258 85.2836 405.544 84.6181 405.627C83.1441 405.812 83.1371 408.258 83.0012 409.314C82.4123 413.792 81.036 418.046 80.1718 422.461C79.1752 427.569 78.3041 432.709 77.7849 437.891C77.1577 444.145 80.008 450.452 87.221 449.912C94.0855 449.397 97.5143 442.218 96.7094 436.026C96.1344 431.591 94.0333 427.252 92.4373 423.109ZM88.8204 446.368C77.4817 450.435 81.0151 434.044 81.9942 428.353C82.9141 423.026 83.9281 417.719 84.9839 412.419C86.7576 417.123 88.4232 421.869 90.2421 426.559C92.4164 432.165 97.4411 443.278 88.8204 446.368Z" fill="#FFF3C1"/>
<path d="M83.9284 431.11C82.5137 434.235 81.8969 437.765 82.7262 441.142C83.106 442.682 85.2351 441.982 85.033 440.504C84.6392 437.647 84.7682 434.96 85.9355 432.281C86.5209 430.932 84.5486 429.74 83.9284 431.11Z" fill="#FFF3C1"/>
<path d="M152.748 542.381C151.403 537.928 150.807 533.287 150.445 528.663C150.051 523.635 149.908 518.592 149.542 513.561C149.41 511.721 148.619 498.069 145.124 501.459C142.009 504.48 141.137 508.968 140.688 513.111C139.472 524.328 137.726 535.252 134.792 546.179C132.35 555.278 126.29 579.945 142.179 581.321C155.71 582.495 160.024 563.863 157.055 553.936C155.874 549.995 153.94 546.326 152.748 542.381ZM146.023 577.349C136.099 580.655 134.231 567.731 134.785 560.888C135.339 554.055 137.646 547.427 139.218 540.785C140.685 534.576 141.981 528.339 142.939 522.028C143.632 517.47 143.305 511 145.406 506.459C147.11 518.091 146.134 530.081 149.131 541.517C150.741 547.667 154.264 553.417 154.717 559.839C155.152 566.027 152.619 575.15 146.023 577.349Z" fill="#FFF3C1"/>
<path d="M139.214 563.059C139.315 559.111 141.395 555.522 143.113 551.922C143.744 550.601 141.19 549.946 140.542 551.232C136.378 559.49 133.691 568.048 141.385 575.815C142.402 576.843 144.556 575.631 143.685 574.495C140.928 570.913 139.103 567.338 139.214 563.059Z" fill="#FFF3C1"/>
</svg>
