<svg width="785" height="728" viewBox="0 0 785 728" fill="none" xmlns="http://www.w3.org/2000/svg">
<g clip-path="url(#clip0_578_8128)">
<path d="M60.8003 191.632C62.6052 191.271 64.3758 190.807 66.1979 190.566C70.9079 189.982 75.6351 189.501 80.3623 188.968C81.6 188.83 82.8376 188.658 84.0925 188.555C87.7539 188.211 91.3981 187.816 95.0596 187.61C99.6493 187.352 104.239 187.73 108.811 188.194C112.129 188.538 115.429 189.054 118.644 189.982C120.088 190.394 121.549 190.807 122.77 191.701C123.492 192.234 124.248 192.217 125.125 192.234C127.944 192.268 130.78 192.303 133.771 193.042C133.032 194.125 132.293 194.933 131.21 195.38C130.436 195.706 129.663 195.981 128.872 196.273C124.007 198.044 119.4 200.347 114.793 202.72C107.522 206.467 101.317 211.641 95.1455 216.867C90.8653 220.477 86.9804 224.516 83.2158 228.642C81.4109 230.619 79.6919 232.664 78.0932 234.796C74.0708 240.142 69.7734 245.247 65.4243 250.301C61.9176 254.375 57.9468 257.933 53.5806 261.045C50.8646 262.97 48.0454 264.792 45.3295 266.717C43.1464 268.264 41.032 269.897 38.9177 271.513C38.5567 271.788 38.041 272.046 38.1441 272.665C37.3534 272.51 37.1471 273.163 36.8205 273.645C37.319 273.404 38.0066 273.387 38.0925 272.613C39.3646 272.029 40.6538 271.479 41.9087 270.877C48.2689 267.852 54.0447 263.915 59.4767 259.446C60.319 258.758 61.0753 257.985 61.8317 257.211C65.4415 253.515 69.017 249.785 72.6269 246.072C73.727 244.938 74.9131 243.872 75.9961 242.72C78.3167 240.228 80.5858 237.666 82.9236 235.157C86.6194 231.186 90.2292 227.146 94.0969 223.347C96.1597 221.319 98.5663 219.566 101.024 218.036C109.86 212.501 119.091 207.687 128.803 203.802C129.645 203.459 130.436 202.995 131.261 202.616C131.468 202.53 131.725 202.582 132.018 202.565C132.207 203.252 131.76 203.682 131.502 204.146C130.694 205.521 130.11 206.983 129.749 208.547C128.838 212.483 127.136 216.093 125.159 219.583C119.864 228.951 114.106 238.027 107.505 246.554C102.606 252.897 98.3772 259.704 94.5095 266.717C94.1829 267.302 93.925 267.903 93.6328 268.505C93.5125 268.866 93.375 269.21 93.2375 269.571C92.5671 269.966 92.9452 270.499 93.0656 270.997C92.8421 271.101 92.6358 271.204 92.4123 271.307C92.4639 271.548 92.5155 271.771 92.567 272.012C91.9654 271.737 91.656 272.08 91.381 272.545C89.0947 276.567 87.1866 280.761 85.4161 285.024C85.2786 285.368 85.3473 285.815 85.313 286.21C85.1754 286.228 85.0551 286.262 84.9348 286.279C84.9863 286.348 85.0207 286.434 85.0723 286.503C85.1411 286.382 85.1926 286.262 85.2614 286.124C86.499 284.99 87.2898 283.546 87.943 282.033C89.0431 279.455 90.1089 276.859 91.2262 274.281C91.57 273.473 91.7591 272.527 92.5842 271.994C92.4983 271.53 92.5327 271.135 93.0827 270.98C93.1171 270.482 93.1515 270 93.2031 269.502C93.8219 269.313 93.8047 268.9 93.5812 268.419C93.8047 268.385 94.1141 268.436 94.2345 268.299C94.6642 267.8 95.0768 267.267 95.4378 266.7C99.1851 260.718 104.067 255.681 108.708 250.421C109.98 248.977 111.184 247.499 112.353 245.969C115.412 241.912 118.524 237.856 121.446 233.696C122.924 231.598 124.213 229.312 125.331 226.992C127.858 221.731 130.299 216.42 132.654 211.074C134.493 206.862 137.106 203.218 140.475 200.175C142.624 198.233 145.03 196.514 147.437 194.881C151.511 192.113 155.86 189.81 160.381 187.833C164.042 186.235 167.618 184.412 171.296 182.814C173.273 181.954 175.319 181.164 177.399 180.631C181.352 179.616 185.358 178.791 189.346 177.915C190.738 177.605 192.165 177.605 193.574 177.846C194.812 178.052 196.015 177.932 197.27 177.622C203.441 176.093 209.698 175.216 216.093 175.371C221.439 175.491 226.751 175.817 232.08 176.264C238.577 176.815 244.989 177.932 251.384 179.084C259.343 180.51 267.319 181.92 275.26 183.467C280.091 184.395 284.869 185.564 289.683 186.613C294.169 187.575 298.673 188.452 303.142 189.449C312.665 191.546 322.068 194.176 331.471 196.772C336.611 198.199 341.699 199.814 346.804 201.344C354.162 203.562 361.622 205.332 369.117 207C374.016 208.083 378.966 208.77 383.9 209.561C391.429 210.764 399.027 210.782 406.625 210.868C410.114 210.902 413.621 210.524 417.111 210.266C420.686 210.008 424.262 209.888 428.095 209.888C427.614 210.799 426.926 210.902 426.359 211.005C425.671 211.143 425.431 211.624 425.155 212.174C424.863 212.019 424.571 211.882 424.279 211.727C424.124 211.761 423.952 211.761 423.815 211.847C423.522 212.002 423.23 212.174 422.972 212.38C418.245 216.093 412.813 218.431 407.261 220.545C400.299 223.193 393.131 225.101 385.86 226.596C379.826 227.851 373.741 228.951 367.69 230.103C352.03 233.06 336.37 235.999 321.106 240.64C307.216 244.869 293.499 249.562 280.211 255.458C274.04 258.191 267.8 260.787 261.594 263.451C251.882 267.611 242.858 272.957 234.314 279.145C228.367 283.46 222.402 287.74 216.506 292.107C209.578 297.229 203.166 302.953 197.098 309.056C187.008 319.198 177.897 330.165 169.148 341.459C165.761 345.825 162.616 350.328 159.539 354.901C154.107 363.015 148.554 371.059 143.294 379.276C135.799 390.982 129.628 403.359 125.073 416.509C122.666 423.454 120.26 430.381 117.802 437.292C116.908 439.801 115.859 442.26 114.879 444.752C114.673 445.268 114.518 445.818 114.192 446.729C115.24 445.904 115.601 445.096 116.048 444.374C119.779 438.306 122.701 431.86 125.193 425.207C125.984 423.093 126.775 420.996 127.531 418.864C129.009 414.687 130.814 410.647 133.118 406.866C133.599 406.075 134.063 405.284 134.441 404.459C137.501 397.755 141.627 391.67 145.494 385.413C146.062 384.485 146.698 383.608 147.334 382.731C149.173 380.153 150.995 377.557 152.869 374.996C156.857 369.547 160.879 364.115 164.885 358.666C168.202 354.145 172.001 350.036 175.852 345.997C182.59 338.932 189.277 331.798 196.445 325.163C206.364 315.966 216.677 307.216 227.868 299.567C230.481 297.779 233.163 296.077 235.81 294.324C243.236 289.373 250.696 284.457 258.603 280.28C267.078 275.793 275.57 271.324 284.594 268.006C288.823 266.442 292.949 264.62 297.16 263.039C302.781 260.924 308.402 258.81 314.109 256.936C319.971 255.011 325.798 253 331.901 251.882C335.184 251.281 338.433 250.542 341.665 249.699C348.351 247.929 355.004 246.038 361.674 244.181C362.155 244.044 362.671 243.958 363.1 243.717C366.108 241.964 369.632 241.809 372.83 240.606C373.105 240.503 373.449 240.589 373.964 240.589C373.827 241.036 373.792 241.328 373.655 241.586C373.397 242.101 372.984 242.548 372.813 243.081C372.297 244.628 371.386 245.918 370.303 247.086C368.842 248.685 367.346 250.267 365.851 251.831C363.186 254.598 360.505 257.332 357.84 260.099C351.532 266.666 345.154 273.146 338.399 279.249C334.187 283.065 330.061 286.95 325.85 290.766C319.473 296.559 314.402 303.331 310.414 310.947C308.299 315.021 306.236 319.112 304.122 323.186C303.125 325.111 302.076 327.019 301.028 328.91C295.493 338.932 288.445 347.784 280.159 355.657C273.851 361.639 267.301 367.312 260.563 372.796C260.185 373.105 259.893 373.5 259.566 373.861C259.394 373.964 259.239 374.05 259.068 374.136C259.136 374.171 259.188 374.205 259.257 374.239C259.343 374.085 259.429 373.947 259.514 373.793C259.91 373.724 260.374 373.741 260.683 373.552C262.076 372.658 263.451 371.713 264.809 370.733C266.167 369.753 267.473 368.739 268.814 367.725C269.88 366.917 270.946 366.126 272.012 365.301C273.988 363.771 275.982 362.258 277.925 360.694C278.887 359.903 279.798 359.044 280.675 358.15C281.913 356.912 283.047 355.571 284.319 354.368C288.806 350.088 292.931 345.498 296.645 340.565C301.406 334.239 306.254 327.947 309.932 320.882C312.133 316.654 315.003 312.837 318.046 309.159C321.604 304.844 325.18 300.547 328.772 296.249C330.44 294.255 332.468 292.639 334.548 291.075C340.014 286.95 345.464 282.824 350.913 278.681C355.829 274.934 360.814 271.29 365.937 267.835C372.039 263.726 378.004 259.429 383.367 254.392C386.049 251.882 388.524 249.149 390.896 246.364C394.386 242.256 398.305 238.681 402.946 235.93C406.35 233.919 410.046 232.561 413.913 231.822C417.712 231.083 421.305 229.811 424.812 228.229C427.321 227.095 429.848 225.909 432.478 225.187C435.968 224.224 439.148 222.643 442.38 221.095C450.442 217.228 458.693 213.841 467.442 211.865C471.912 210.85 476.415 209.922 480.919 209.114C494.74 206.622 508.285 203.115 521.504 198.388C523.069 197.82 524.65 197.288 526.232 196.772C530.357 195.431 534.414 193.918 538.368 192.096C542.304 190.291 546.223 188.435 550.366 187.386C550.796 186.596 551.105 185.908 551.535 185.306C551.672 185.1 552.119 185.048 552.412 185.066C552.566 185.083 552.841 185.409 552.824 185.564C552.738 186.2 552.979 186.664 553.735 186.974C552.48 187.868 552.308 189.019 552.171 190.171C551.827 193.403 551.518 196.652 551.157 199.883C550.297 207.43 549.421 214.976 548.544 222.522C547.891 228.16 545.965 233.386 543.507 238.44C541.29 243.03 538.608 247.361 535.617 251.504C532.901 255.269 529.463 258.311 525.939 261.251C523.051 263.657 520.078 265.961 517.172 268.35C511.5 273.026 506.016 277.908 500.997 283.305C495.565 289.133 490.752 295.407 486.867 302.369C484.512 306.598 482.535 311.015 480.661 315.485C480.61 315.605 480.713 315.794 480.764 316.121C481.194 315.502 481.59 315.003 481.916 314.47C483.927 311.308 485.904 308.11 487.95 304.947C488.586 303.968 489.308 303.056 490.03 302.128C491.319 300.478 492.608 298.845 493.932 297.229C494.826 296.129 495.685 294.96 496.768 294.066C500.309 291.11 503.403 287.723 506.549 284.388C507.993 282.876 509.471 281.414 511.139 280.142C512.205 279.335 513.133 278.372 514.147 277.495C518.101 273.988 522.244 270.774 527.143 268.677C532.385 266.425 536.717 263.004 540.516 258.793C541.909 257.246 543.49 255.87 545.003 254.444C545.157 254.289 545.433 254.272 545.811 254.134C545.828 254.547 545.914 254.873 545.845 255.148C545.381 257.332 544.281 259.24 542.768 260.804C541.53 262.093 541.427 263.4 541.72 264.929C542.167 267.302 542.734 269.674 543.078 272.063C543.439 274.625 543.679 277.203 543.851 279.781C544.384 287.397 543.92 294.96 542.82 302.506C542.27 306.219 541.737 309.932 541.238 313.663C540.121 321.914 537.577 329.735 534.483 337.436C531.474 344.931 527.211 351.704 522.553 358.236C519.442 362.602 516.726 367.174 514.371 371.988C513.202 374.394 511.912 376.732 510.692 379.104C510.348 379.775 510.107 380.479 509.884 381.201C509.832 381.373 510.004 381.614 510.125 381.975C510.915 381.528 511.122 380.772 511.569 380.204C511.964 379.723 512.325 379.207 512.755 378.674C513.116 379.259 512.703 379.568 512.531 379.912C512.119 380.737 511.62 381.511 511.225 382.336C511.122 382.559 511.259 382.903 511.294 383.213C511.603 383.109 511.826 383.109 511.878 383.006C514.8 378.038 517.791 373.139 521.229 368.515C524.874 363.633 528.518 358.751 532.093 353.818C534.242 350.844 536.322 347.802 538.264 344.69C540.533 341.08 542.184 337.144 543.662 333.139C543.885 332.52 544.023 331.849 544.057 331.196C544.143 328.996 544.745 326.916 545.656 324.939C545.931 324.337 546.223 323.719 546.395 323.083C547.53 318.459 548.767 313.869 549.696 309.21C550.263 306.357 550.469 303.417 550.624 300.512C550.779 297.263 550.744 293.997 550.693 290.749C550.641 287.568 550.951 284.423 551.415 281.277C551.655 279.627 551.707 277.942 552.033 276.309C552.429 274.349 553.013 272.441 553.512 270.499C553.718 269.691 553.993 268.9 554.148 268.075C554.904 263.64 555.712 259.205 556.314 254.736C556.692 251.934 556.898 249.08 556.95 246.261C557.018 242.978 557.431 239.746 558.273 236.618C559.631 231.512 560.439 226.338 561.075 221.113C561.453 217.967 561.986 214.838 562.451 211.693C562.536 211.108 562.64 210.541 562.674 209.956C562.863 206.433 563.74 203.046 564.857 199.711C567.023 193.282 569.808 187.146 572.816 181.078C574.088 178.499 575.79 176.23 578.024 174.425C580.947 172.07 583.8 169.612 586.877 167.463C592.017 163.888 597.191 160.364 602.537 157.115C607.522 154.072 612.714 151.391 617.836 148.572C620.69 146.99 623.543 145.443 626.379 143.844C631.175 141.146 635.988 138.464 640.75 135.696C644.583 133.479 648.348 131.158 652.147 128.924C656.599 126.294 661.034 123.612 665.538 121.085C671.365 117.819 677.227 114.656 683.123 111.493C689.088 108.296 694.829 104.738 700.467 101.007C705.899 97.4148 711.452 94.0456 717.365 91.2608C719.772 90.1263 722.144 88.8542 724.447 87.5306C726.029 86.6196 727.61 85.6397 729.02 84.488C733.214 81.0329 737.305 77.4918 741.448 73.9851C743.236 72.4724 744.938 70.8565 746.811 69.4813C751.418 66.1293 755.612 62.296 759.738 58.4111C764.775 53.6495 769.708 48.7848 774.762 44.0404C777.306 41.6338 780.022 39.3992 782.669 37.1129C783.082 36.7519 783.615 36.5285 784.113 36.2362C784.474 36.941 783.993 37.2676 783.769 37.6458C780.555 42.9746 776.55 47.6846 772.08 51.9649C766.597 57.2078 761.044 62.4163 755.389 67.4701C752.604 69.9626 749.458 72.077 746.536 74.432C743.889 76.5807 741.207 78.7122 739.076 81.4454C737.632 83.3019 735.758 84.7115 733.833 86.0695C728.968 89.5074 723.76 92.3266 718.431 94.9051C713.618 97.2429 708.994 99.8901 704.541 102.847C696.393 108.244 688.005 113.212 679.341 117.733C670.024 122.598 660.897 127.824 651.941 133.341C648.606 135.404 645.168 137.295 641.747 139.22C635.937 142.504 630.127 145.787 624.282 149.019C619.761 151.511 615.189 153.952 610.616 156.359C603.225 160.278 596.314 164.954 589.473 169.749C586.276 172.001 583.267 174.545 580.225 177.021C578.454 178.448 577.113 180.27 576.082 182.315C572.696 189.036 569.601 195.861 567.487 203.098C566.954 204.937 566.61 206.828 566.301 208.719C565.871 211.349 565.579 214.013 565.218 216.66C564.771 219.892 564.273 223.107 563.912 226.338C563.533 229.587 562.76 232.733 561.952 235.896C560.972 239.695 560.285 243.528 560.181 247.499C560.027 253.189 559.133 258.793 557.981 264.362C557.345 267.388 556.778 270.396 555.764 273.335C555.093 275.278 554.939 277.409 554.629 279.472C554.388 281.036 554.217 282.618 554.096 284.199C553.924 286.279 553.77 288.359 553.718 290.439C553.649 293.104 553.667 295.785 553.684 298.45C553.701 303.985 552.962 309.434 551.569 314.797C550.366 319.404 549.214 324.011 547.994 328.601C547.427 330.766 546.756 332.915 546.103 335.219C546.498 335.562 546.894 335.975 547.358 336.267C549.678 337.763 552.137 339.018 554.749 339.894C558.703 341.235 562.605 342.696 566.628 343.831C577.285 346.839 588.854 358.872 590.642 373.071C591.157 377.196 590.693 381.236 589.628 385.224C588.802 388.301 587.634 391.257 586.19 394.077C585.554 395.331 584.643 396.449 583.783 397.566C583.388 398.082 582.855 398.529 582.322 398.924C580.122 400.54 578.454 400.299 577.165 397.927C576.22 396.174 575.498 394.3 574.81 392.426C573.882 389.917 573.125 387.355 572.232 384.846C570.1 378.864 566.817 373.569 562.502 368.928C559.494 365.696 556.331 362.585 553.237 359.422C553.065 359.25 552.841 359.147 552.618 358.992C552.274 359.491 552.687 359.817 552.824 360.144C554.543 364.132 556.4 368.051 557.981 372.091C560.869 379.482 562.296 387.166 562.158 395.108C562.055 401.76 560.199 407.949 556.829 413.673C554.629 417.42 551.432 420.222 548.028 422.818C547.341 423.351 546.378 423.626 545.501 423.798C544.401 424.004 543.542 423.282 543.353 422.182C543.267 421.701 543.284 421.185 543.284 420.686C543.301 419.26 543.301 417.85 543.37 416.423C543.679 410.235 543.112 404.081 542.442 397.944C541.634 390.639 540.104 383.453 538.935 376.199C538.075 370.836 537.371 365.455 537.56 360.006C537.68 356.826 538.127 353.698 538.935 350.621C539.072 350.071 539.09 349.486 539.158 348.919C539.261 348.867 539.382 348.816 539.485 348.747C539.416 348.695 539.33 348.627 539.261 348.575C539.244 348.713 539.227 348.833 539.193 348.97C538.333 349.125 538.075 349.899 537.697 350.5C534.947 354.884 531.784 358.992 528.655 363.118C526.077 366.504 523.464 369.873 520.903 373.277C519.596 375.013 518.393 376.818 517.138 378.589C516.261 379.809 515.368 381.012 514.491 382.233C513.906 383.041 513.356 383.849 512.738 384.725C519.132 391.842 523.344 399.99 526.128 408.963C528.896 417.919 530.391 426.961 528.948 436.398C530.048 437.137 531.199 437.807 532.231 438.633C535.273 440.987 538.11 443.583 540.551 446.574C543.765 450.528 546.739 454.671 549.18 459.157C553.718 467.511 556.211 476.45 556.434 485.956C556.589 492.694 555.437 499.278 552.962 505.552C550.418 512.067 546.43 517.551 540.602 521.556C540.465 521.642 540.379 521.797 540.155 522.037C540.241 522.416 540.276 522.914 540.43 523.361C542.734 529.618 542.906 536.082 542.459 542.631C542.132 547.427 540.929 552.017 539.468 556.537C538.643 559.082 537.388 561.454 535.841 563.654C532.42 568.536 528.501 572.954 523.584 576.546C523.687 577.114 523.773 577.664 523.877 578.231C524.977 584.144 526.214 590.023 526.18 596.074C526.146 602.4 524.822 608.502 522.673 614.416C521.693 617.114 520.215 619.521 518.445 621.756C515.694 625.245 512.6 628.391 509.145 631.193C506.412 633.41 503.421 635.232 500.103 636.47C499.794 636.59 499.519 636.728 499.175 636.883C499.123 637.261 499.054 637.587 499.054 637.897C499.072 642.418 498.47 646.887 497.525 651.305C494.946 663.424 488.328 672.809 478.169 679.754C473.975 682.625 469.247 684.275 464.383 685.513C461.718 686.183 459.019 686.716 456.2 687.335C456.063 687.747 455.891 688.211 455.771 688.675C454.808 692.337 453.261 695.758 451.164 698.903C445.818 706.897 439.268 713.738 431.327 719.205C425.241 723.382 418.503 725.943 411.18 726.888C410.527 726.974 409.822 727.129 409.186 727.026C406.934 726.648 404.717 727.043 402.465 727.163C391.206 727.731 381.012 724.705 371.953 717.984C364.922 712.758 358.958 706.484 354.076 699.213C351.824 695.861 350.122 692.251 349.194 688.297C349.125 687.988 348.953 687.696 348.798 687.318C346.839 686.905 344.862 686.578 342.937 686.08C340.203 685.358 337.436 684.67 334.789 683.673C324.114 679.702 316.482 672.276 311.307 662.272C308.162 656.17 306.804 649.569 306.219 642.779C306.064 640.871 306.013 638.963 305.91 637.003C305.6 636.848 305.325 636.659 305.033 636.539C301.372 635.215 298.157 633.152 295.201 630.66C292.261 628.185 289.579 625.434 287.121 622.46C284.302 619.074 282.343 615.241 281.174 610.995C280.022 606.8 279.18 602.555 278.853 598.206C278.612 595.025 278.939 591.862 279.386 588.717C279.97 584.677 280.692 580.672 281.38 576.529C280.486 575.824 279.489 575.085 278.561 574.26C274.573 570.788 271.186 566.765 268.316 562.313C267.095 560.422 266.184 558.342 265.445 556.211C262.643 548.183 261.938 539.932 262.643 531.526C262.832 529.188 263.485 526.937 264.173 524.702C264.448 523.842 264.689 522.966 264.929 522.175C264.757 521.934 264.706 521.762 264.568 521.677C258.346 517.413 254.22 511.552 251.676 504.555C249.699 499.106 248.651 493.434 248.582 487.641C248.461 477.842 250.92 468.646 255.406 459.982C257.916 455.135 261.044 450.717 264.517 446.523C267.405 443.033 270.705 439.973 274.47 437.429C275.02 437.068 275.484 436.604 275.896 436.26C275.776 434.094 275.639 432.118 275.57 430.124C275.329 423.54 276.446 417.162 278.337 410.871C280.073 405.112 282.085 399.457 285.248 394.283C285.402 394.042 285.454 393.733 285.729 392.994C284.749 393.698 284.165 394.111 283.597 394.558C279.833 397.549 275.553 399.594 271.169 401.468C270.258 401.864 269.261 402.104 268.281 402.207C267.473 402.293 266.597 402.224 265.823 402.001C264.276 401.554 263.915 400.506 264.706 399.13C264.912 398.769 265.136 398.426 265.393 398.082C269.055 393.148 271.685 387.665 274.143 382.078C275.793 378.331 277.392 374.583 279.025 370.819C281.088 366.074 283.254 361.364 286.159 357.067C286.279 356.878 286.348 356.637 286.451 356.396C285.884 356.173 285.677 356.62 285.454 356.878C282.686 360.024 279.592 362.774 276.189 365.215C273.627 367.054 271.324 369.289 268.625 370.956C268.195 371.214 267.817 371.541 267.439 371.884C264.964 374.188 262.041 375.804 259.05 377.282C257.331 378.124 255.647 379.07 253.876 379.809C252.192 380.514 250.421 381.012 248.685 381.58C248.375 381.683 248.032 381.751 247.705 381.751C247.172 381.751 246.656 381.545 246.553 380.995C246.485 380.634 246.605 380.136 246.828 379.878C247.207 379.448 247.722 379.139 248.221 378.846C254.083 375.254 259.446 371.008 264.551 366.452C268.35 363.066 272.132 359.645 275.879 356.207C280.383 352.082 284.474 347.578 288.376 342.885C291.952 338.571 295.029 333.895 297.813 329.03C299.584 325.919 301.269 322.739 302.97 319.576C303.159 319.215 303.297 318.837 303.452 318.459C302.902 318.063 302.592 318.424 302.317 318.699C302.094 318.923 301.922 319.249 301.801 319.559C301.045 321.45 299.893 323.083 298.621 324.63C294.014 330.251 289.167 335.666 283.924 340.702C276.034 348.283 266.717 353.56 256.523 357.376C253.79 358.39 251.04 359.387 248.272 360.281C245.659 361.124 243.012 361.863 240.365 362.602C240.021 362.705 239.523 362.585 239.213 362.396C238.749 362.086 238.732 361.553 238.938 361.055C239.024 360.814 239.11 360.591 239.231 360.367C241.929 355.004 244.525 349.572 247.361 344.278C248.891 341.424 250.713 338.708 252.57 336.027C255.561 331.729 259.377 328.257 263.726 325.369C270.138 321.106 277.168 318.355 284.698 316.877C289.115 316 293.55 315.244 297.968 314.35C300.77 313.783 303.383 312.7 305.807 311.153C307.01 310.379 308.11 309.52 308.609 308.076C308.763 307.612 309.09 307.216 309.382 306.821C309.863 306.151 310.431 305.532 310.86 304.827C314.264 299.12 318.51 294.083 323.357 289.562C327.088 286.09 330.801 282.601 334.6 279.214C343.005 271.702 351.033 263.778 359.112 255.922C361.811 253.309 364.39 250.576 367.002 247.877C367.69 247.172 368.309 246.382 369.082 245.453C368.481 245.196 368.051 244.852 367.673 244.886C367.105 244.938 366.555 245.213 366.04 245.471C359.937 248.462 353.457 250.353 346.873 251.951C342.748 252.948 338.656 254.186 334.462 254.908C327.517 256.128 320.865 258.277 314.23 260.512C306.649 263.073 299.171 265.926 291.659 268.728C277.082 274.195 263.193 281.054 249.871 289.081C245.161 291.917 240.674 295.149 236.016 298.089C229.02 302.506 222.333 307.371 215.904 312.58C206.037 320.573 196.565 328.996 187.816 338.227C183.398 342.885 178.929 347.509 174.494 352.168C170.11 356.775 166.311 361.863 162.684 367.071C162.151 367.828 161.636 368.584 161.086 369.323C157.287 374.515 153.488 379.689 149.723 384.897C148.606 386.444 147.574 388.077 146.577 389.71C143.363 394.884 139.994 399.973 137.501 405.542C136.986 406.677 136.349 407.777 135.713 408.843C133.823 412.005 132.293 415.34 131.003 418.778C130.419 420.343 129.869 421.907 129.731 423.591C129.645 424.571 129.319 425.551 129.061 426.514C128.563 428.37 128.15 430.261 127.48 432.049C125.52 437.257 125.21 442.638 125.95 448.07C126.706 453.76 128.683 459.054 131.588 464.005C131.846 464.434 132.086 464.864 132.379 465.277C135.095 469.299 137.295 473.597 139.426 477.946C141.455 482.106 142.985 486.386 143.586 490.993C144.205 495.634 144.927 500.241 144.944 504.934C144.962 510.417 144.068 515.712 142.452 520.937C139.908 529.171 135.971 536.649 130.694 543.439C125.795 549.73 119.418 553.753 111.837 555.953C110.823 556.245 109.688 556.314 108.64 556.228C106.955 556.073 106.113 555.008 106.267 553.323C106.37 552.171 106.663 551.019 106.955 549.902C108.45 544.092 109.998 538.282 111.493 532.472C113.006 526.558 113.814 520.525 114.364 514.44C115.034 506.928 114.983 499.433 114.398 491.921C114.089 488.002 113.35 484.151 112.662 480.283C111.287 472.548 111.166 464.847 113.195 457.198C113.298 456.819 113.281 456.39 113.367 455.496C112.782 456.269 112.473 456.63 112.215 457.026C109.757 460.893 107.367 464.83 104.841 468.646C102.348 472.41 99.3914 475.831 96.1253 478.96C95.1111 479.94 94.011 480.885 92.8249 481.624C91.3638 482.535 90.2808 483.739 89.3698 485.148C88.4243 486.626 87.3757 488.036 86.3787 489.48C84.23 492.574 81.7547 495.376 78.9012 497.869C75.5663 500.774 72.3862 503.868 69.1201 506.824C65.5962 510.022 61.7457 512.841 57.8436 515.557C56.9498 516.176 56.0387 516.777 55.0761 517.276C48.9221 520.456 42.8713 523.825 36.3908 526.318C34.4483 527.074 32.523 527.848 30.5978 528.656C27.5724 529.91 24.4438 530.735 21.2293 531.303C18.5993 531.75 16.0036 532.437 13.3908 532.901C11.8437 533.176 10.2451 533.245 8.66359 533.314C7.6494 533.366 7.16808 532.575 7.52907 531.629C7.6494 531.32 7.82129 531.028 7.976 530.736C10.5029 526.043 13.0298 521.333 15.5739 516.64C17.0866 513.855 18.6165 511.07 20.1808 508.32C27.538 495.307 38.4535 486.644 52.4804 481.71C58.1874 479.699 64.0148 478.478 70.0656 478.083C74.81 477.774 79.5372 477.241 84.2644 476.691C87.857 476.278 91.2091 474.989 94.5439 473.631C95.3862 473.287 95.8331 472.617 96.28 471.912C98.6522 467.976 101.024 464.056 103.414 460.137C109.379 450.304 113.556 439.681 117.32 428.852C117.75 427.597 118.197 426.325 118.627 425.07C118.747 424.692 118.782 424.296 118.953 423.42C118.3 424.124 117.956 424.434 117.681 424.812C112.215 432.307 105.442 438.461 98.0678 444.013C94.7845 446.488 91.1747 448.414 87.3929 450.012C84.4019 451.284 81.3421 452.384 78.2823 453.519C77.0275 453.983 75.7382 454.361 74.3802 454.224C73.5036 454.138 73.0222 453.536 73.1769 452.677C73.2629 452.195 73.4176 451.714 73.5895 451.233C75.6867 445.698 77.7666 440.145 79.9325 434.627C81.239 431.275 82.8376 428.078 84.6597 424.967C90.8137 414.464 99.7868 407.553 111.424 404.081C114.69 403.101 118.042 402.345 121.343 401.485C123.285 400.987 125.193 400.437 126.998 399.491C128.305 398.804 129.216 397.893 129.869 396.517C132.551 390.862 135.559 385.361 138.876 380.05C141.747 375.46 144.704 370.887 147.712 366.384C151.545 360.625 155.516 354.935 159.367 349.177C163.423 343.143 168.065 337.539 172.517 331.815C179.857 322.378 187.919 313.577 196.342 305.102C201.774 299.653 207.55 294.582 213.738 290.027C221.319 284.423 228.985 278.922 236.669 273.456C242.393 269.399 248.444 265.823 254.822 262.901C270.671 255.63 286.657 248.719 303.142 242.978C317.255 238.062 331.609 233.936 346.254 230.98C354.832 229.243 363.461 227.748 372.091 226.166C383.505 224.069 394.919 222.007 405.903 218.173C409.135 217.039 412.28 215.732 415.46 214.46C415.839 214.305 416.509 214.254 416.337 213.515C416.509 213.498 416.664 213.498 416.836 213.48C416.801 213.446 416.75 213.36 416.732 213.36C416.612 213.412 416.492 213.498 416.371 213.566C415.615 213.601 414.859 213.584 414.12 213.687C407.794 214.563 401.451 214.271 395.125 213.91C382.078 213.171 369.375 210.403 356.74 207.189C348.334 205.04 340.117 202.255 331.763 199.9C326.778 198.491 328.342 198.405 324.045 200.588C323.753 200.743 323.461 200.915 323.151 201.052C319.885 202.496 317.169 204.679 314.78 207.309C309.949 212.621 305.085 217.898 300.254 223.21C297.899 225.805 295.613 228.47 293.241 231.048C289.493 235.122 285.282 238.646 280.486 241.448C274.366 245.041 267.714 247.172 260.804 248.513C257.744 249.115 254.633 248.874 251.676 247.757C250.834 247.43 249.991 247.018 249.269 246.468C248.152 245.608 248.032 244.56 248.771 243.373C249.166 242.737 249.648 242.153 250.112 241.569C255.131 235.432 260.168 229.295 265.153 223.141C267.662 220.03 270.121 216.85 272.527 213.652C275.346 209.905 278.372 206.364 281.81 203.166C287.31 198.061 293.774 195.053 301.183 194.022C302.592 193.832 303.985 193.643 305.514 193.437C305.188 192.853 304.638 192.767 304.139 192.664C300.547 191.89 296.954 191.168 293.361 190.394C288.307 189.312 283.254 188.177 278.2 187.146C273.713 186.235 269.192 185.444 264.671 184.619C257.778 183.364 250.885 182.092 243.992 180.888C241.534 180.459 239.041 180.184 236.566 179.754C235.483 179.565 234.503 180.029 234.383 181.525C234.28 182.659 234.452 183.862 234.727 184.98C235.139 186.596 235.741 188.16 236.291 189.741C236.515 190.377 236.755 190.996 237.03 191.598C238.904 196.016 240.09 200.588 240.348 205.401C240.623 210.678 240.485 215.904 239.66 221.13C238.904 225.943 236.944 230.223 233.988 234.057C230.395 238.732 226.063 242.686 221.216 245.952C218.689 247.654 215.698 248.685 212.896 249.974C212.449 250.181 211.916 250.198 211.435 250.284C209.698 250.559 207.979 250.851 206.243 251.109C204.576 251.35 202.926 251.332 201.31 250.696C199.213 249.888 198.834 249.046 199.814 247.086C200.227 246.261 200.691 245.471 201.172 244.697C203.957 240.228 206.639 235.707 209.561 231.341C213.772 225.032 216.127 218.07 217.468 210.696C217.967 207.911 218.448 205.109 218.878 202.307C219.6 197.631 221.25 193.282 223.45 189.122C223.828 188.418 224.172 187.678 224.55 186.905C223.88 186.681 223.691 187.128 223.467 187.386C219.961 191.46 216.849 195.758 215.027 200.897C213.549 205.057 211.967 209.2 210.489 213.36C208.289 219.514 205.521 225.376 202.324 231.066C197.837 239.024 191.133 244.439 182.882 248.066C180.373 249.166 177.743 250.009 175.147 250.971C172.843 251.814 170.454 252.175 168.013 252.089C165.761 252.003 163.509 251.882 161.258 251.728C159.642 251.607 158.163 251.057 156.891 250.026C155.499 248.909 155.465 247.894 156.805 246.76C159.16 244.749 161.533 242.789 163.888 240.795C170.213 235.449 176.058 229.622 181.301 223.193C184.636 219.101 187.352 214.598 189.93 210.008C191.237 207.687 192.595 205.367 194.021 203.132C196.204 199.729 198.938 196.789 202.221 194.417C205.607 191.976 209.08 189.672 212.569 187.386C214.46 186.149 216.471 185.134 218.654 184.498C219.118 184.361 219.548 184.069 219.961 183.794C222.041 182.418 224.121 181.026 226.201 179.634C226.407 179.496 226.613 179.393 227.18 179.049C226.321 178.843 225.943 178.671 225.582 178.671C219.995 178.551 214.408 177.88 208.822 178.533C205.504 178.912 202.204 179.376 198.903 179.874C196.428 180.252 193.97 180.734 191.512 181.181C190.36 181.387 189.225 181.679 188.091 181.903C187.609 182.006 187.025 182.264 186.63 182.109C185.34 181.61 184.189 182.092 183.003 182.418C182.281 182.607 181.559 182.814 180.82 182.968C177.364 183.656 174.064 184.791 170.884 186.32C165.4 188.968 159.865 191.495 154.416 194.211C150.445 196.187 146.818 198.766 143.397 201.568C140.148 204.249 137.57 207.533 135.782 211.383C133.926 215.406 132.052 219.394 130.178 223.416C129.37 225.152 128.58 226.906 127.737 228.642C126.379 231.427 124.832 234.091 122.924 236.532C120.002 240.296 117.166 244.113 114.243 247.86C112.817 249.699 111.321 251.521 109.74 253.223C108.863 254.169 108.571 255.131 108.674 256.386C108.983 260.305 109.568 264.19 110.513 267.989C111.562 272.201 112.696 276.378 113.848 280.572C116.341 289.58 116.53 298.673 115.12 307.87C113.951 315.485 110.84 322.206 106.336 328.377C104.6 330.749 102.623 332.881 100.217 334.617C98.7898 335.648 97.2771 336.525 95.5753 337.041C94.9392 337.23 94.286 337.419 93.6328 337.47C91.9998 337.625 91.2434 336.989 91.2262 335.373C91.2091 334.204 91.295 333.035 91.4497 331.884C92.5327 323.598 93.2718 315.296 92.8421 306.924C92.3951 298.226 93.1515 289.58 94.3032 280.95C94.7502 277.547 95.5581 274.229 96.8129 271.015C97.0536 270.413 97.4833 269.829 97.1052 269.124C97.2427 269.124 97.3802 269.141 97.5349 269.141C97.5005 269.038 97.4661 268.918 97.4318 268.814C97.3458 268.935 97.2599 269.072 97.1739 269.193C96.0566 270.138 95.4721 271.462 94.8877 272.734C93.4437 275.828 92.0686 278.974 90.7106 282.102C89.937 283.873 89.0088 285.54 87.8914 287.104C86.8772 288.531 86.0177 290.061 84.9692 291.488C83.5424 293.43 82.0297 295.338 80.5342 297.229C78.884 299.326 77.1134 301.338 75.532 303.486C73.366 306.408 70.736 308.798 67.7794 310.878C67.1777 311.308 66.6104 311.806 65.9916 312.219C65.8369 312.322 65.4759 312.27 65.3384 312.15C65.1837 312.012 65.0634 311.669 65.1321 311.497C65.3728 310.981 65.6306 310.431 66.0088 310.018C68.6045 307.079 71.2001 304.139 73.8989 301.286C75.2225 299.876 76.4086 298.398 77.4056 296.748C79.9154 292.588 82.0125 288.256 83.7659 283.718C89.1291 269.863 96.3144 256.971 105.253 245.127C111.957 236.24 117.905 226.888 123.509 217.297C125.107 214.546 126.517 211.727 127.445 208.667C127.755 207.636 128.202 206.639 128.58 205.625C128.305 205.195 128.012 205.401 127.737 205.59C120.346 210.644 112.335 214.598 104.6 219.067C100.457 221.456 96.6926 224.327 93.4265 227.851C89.8682 231.719 86.1896 235.483 82.9236 239.626C82.4079 240.279 81.8234 240.881 81.239 241.465C76.8212 245.918 72.3862 250.318 68.0028 254.787C65.1493 257.693 63.2069 261.182 61.7629 264.947C60.4393 268.385 59.8205 272.012 59.1844 275.639C58.1359 281.638 57.3795 287.689 57.0357 293.774C56.881 296.61 56.3481 299.412 56.159 302.231C55.7465 308.317 55.3167 314.385 55.0933 320.487C54.801 328.205 52.8586 335.476 49.73 342.473C48.4408 345.361 46.5327 347.75 43.9715 349.589C43.387 350.019 42.665 350.311 41.9774 350.535C41.393 350.724 40.8085 350.277 40.6366 349.692C40.5507 349.366 40.4991 349.039 40.4819 348.713C40.1209 342.18 38.6942 335.837 37.405 329.443C35.9094 322.068 35.0156 314.608 35.0328 307.079C35.0328 302.971 35.5485 298.931 36.4079 294.908C37.8003 288.428 40.7913 282.687 44.4528 277.255C45.8967 275.106 47.5641 273.129 49.1456 271.083C49.5066 270.619 49.8848 270.19 50.2285 269.76C49.9535 269.244 49.6957 269.536 49.4206 269.657C46.8078 270.946 44.1777 272.235 41.5821 273.542C39.3474 274.676 37.2674 276.051 35.3937 277.753C32.1793 280.658 29.1023 283.735 25.5096 286.21C25.0283 286.537 24.5814 286.915 24.0657 287.207C23.6359 287.465 23.1202 287.672 22.6733 287.276C22.192 286.864 22.3983 286.348 22.6561 285.918C22.8968 285.488 23.189 285.059 23.5156 284.681C26.7645 280.882 29.8242 276.911 33.3653 273.335C37.1471 269.519 41.3414 266.236 45.7592 263.21C48.7846 261.131 51.7069 258.913 54.6635 256.73C55.0933 256.403 55.4714 256.008 56.0559 255.458C55.0589 255.475 54.612 256.025 54.1134 256.369C50.091 259.085 45.8451 261.406 41.2727 263.056C35.1015 265.256 28.7585 265.806 22.2779 264.981C17.7226 264.397 13.2533 263.365 8.78392 262.282C6.73834 261.801 4.7787 261.062 2.99096 259.979C2.0799 259.429 1.22041 258.724 0.446865 257.985C-0.206347 257.366 -0.0860185 256.575 0.618764 256.042C1.01413 255.733 1.44387 255.475 1.89081 255.234C8.09633 251.796 14.0268 247.877 19.9917 244.061C22.9483 242.17 26.0081 240.486 29.2398 239.093C37.8347 235.415 46.5327 235.157 55.4027 237.976C59.2188 239.196 62.9662 240.606 66.9027 241.414C67.1433 241.465 67.384 241.551 67.6246 241.603C68.4154 241.792 69.103 241.689 69.6358 240.984C70.0484 240.451 70.4953 239.97 70.9079 239.437C72.3518 237.598 73.7786 235.741 75.2053 233.902C83.0611 223.829 92.1373 215.027 102.52 207.584C103.947 206.57 105.322 205.47 106.714 204.439C107.11 204.146 107.557 203.888 107.986 203.648C110.823 202.049 113.676 200.502 116.495 198.869C118.283 197.838 120.036 196.703 121.858 195.586C121.446 194.142 120.5 193.385 119.28 193.007C117.286 192.406 115.292 191.804 113.246 191.374C107.419 190.171 101.523 189.81 95.5753 189.896C93.8735 189.93 92.2576 190.188 90.9512 191.426C90.7793 191.598 90.5387 191.718 90.3152 191.838C86.4991 193.764 83.594 196.755 80.9296 199.986C78.437 203.012 76.0476 206.123 73.6411 209.234C71.4408 212.071 69.1373 214.804 66.4901 217.279C62.4161 221.095 57.6202 223.485 52.1882 224.585C50.2286 224.98 48.2345 225.29 46.2577 225.513C42.8885 225.909 39.8287 224.894 36.9752 223.175C36.8549 223.107 36.8033 222.9 36.6142 222.625C36.8033 222.282 36.9408 221.783 37.2502 221.439C41.8399 216.145 46.3608 210.764 51.1052 205.607C55.884 200.382 61.5394 196.273 68.1059 193.471C68.4154 193.334 68.6904 193.162 68.9654 192.99C69.017 192.956 69.017 192.835 69.0686 192.646C67.3496 192.474 65.7509 193.024 64.1523 193.334C58.9954 194.365 53.89 195.62 48.9393 197.408C45.5701 198.628 42.2869 200.09 38.9692 201.413C37.5253 201.998 36.047 202.496 34.4999 202.891C36.1501 200.983 38.0754 199.436 40.1553 198.095C43.1807 196.153 46.3265 194.451 49.6441 193.024C58.325 189.312 67.2465 186.32 76.5118 184.395C81.3421 183.381 86.2412 182.814 91.1575 182.642C95.2487 182.504 99.3398 182.573 103.431 182.556C104.428 182.556 105.425 182.556 106.456 182.315C106.13 182.229 105.803 182.109 105.459 182.057C101.196 181.249 96.9161 180.562 92.6874 179.634C87.1523 178.413 82.1328 176.007 77.5603 172.672C75.1366 170.901 72.816 168.993 70.461 167.119C68.3638 165.435 66.6104 163.424 65.1321 161.189C64.1695 159.728 63.2069 158.267 62.313 156.754C61.9004 156.049 61.591 155.241 61.3504 154.451C61.1441 153.763 61.6082 153.11 62.3302 152.989C62.7427 152.921 63.1553 152.903 63.5678 152.886C68.0716 152.714 72.5753 152.577 77.079 152.371C86.9632 151.906 95.8331 154.76 103.895 160.398C110.41 164.954 115.653 170.746 120.26 177.158C121.188 178.448 122.099 179.754 122.976 181.06C123.715 182.178 124.643 182.9 126.036 182.9C126.362 182.9 126.689 182.986 127.136 183.054C126.998 183.398 126.878 183.673 126.723 184.051C128.408 185.203 130.299 185.238 132.207 184.894C136.315 184.172 140.32 183.054 144.291 181.748C153.006 178.877 161.739 176.058 170.506 173.394C177.21 171.365 184.051 169.818 191.013 168.856C194.485 168.374 197.958 167.927 201.464 167.67C212.724 166.862 223.983 166.673 235.26 167.154C242.428 167.463 249.596 167.996 256.713 168.924C267.387 170.317 278.062 171.623 288.72 173.187C296.559 174.339 304.363 175.766 312.15 177.193C321.501 178.894 330.852 180.648 340.186 182.487C349.52 184.344 358.803 186.338 368.12 188.28C376.044 189.93 383.952 191.649 391.945 192.904C402.688 194.606 413.466 195.775 424.348 195.07C428.095 194.829 431.825 194.434 435.555 194.056C436.38 193.97 437.188 193.712 437.979 193.471C442.277 192.113 446.54 190.652 450.854 189.415C455.358 188.125 459.638 186.269 463.936 184.43C477.584 178.551 490.821 171.829 503.954 164.885C514.508 159.315 525.097 153.832 535.497 147.97C550.263 139.65 565.407 132.104 580.5 124.403C589.353 119.882 598.085 115.189 606.56 109.998C617.028 103.603 627.669 97.4835 638.137 91.0889C648.314 84.8662 658.421 78.506 668.494 72.1114C674.906 68.0374 681.026 63.5336 687.025 58.858C688.538 57.6719 689.964 56.3999 691.443 55.1622C695.345 51.879 699.316 48.6988 703.115 45.2953C706.725 42.0636 710.163 38.66 713.618 35.2736C723.106 25.9911 732.406 16.5195 742.376 7.73552C745.075 5.36332 747.894 3.14584 750.679 0.876782C750.988 0.618935 751.349 0.429847 751.831 0.12043C752.071 1.03149 751.521 1.5128 751.177 1.99412C748.633 5.51803 745.917 8.90442 742.806 11.947C740.485 14.2333 738.13 16.4679 735.793 18.7542C732.87 21.6077 729.982 24.5128 727.043 27.3663C720.906 33.2796 714.804 39.1929 708.581 45.0202C706.209 47.2377 703.63 49.2489 701.103 51.2945C695.207 56.0733 689.277 60.8177 683.346 65.5792C678.911 69.1375 674.201 72.2833 669.285 75.1196C667.704 76.0306 666.174 77.062 664.644 78.0762C650.376 87.5134 635.799 96.4693 621.051 105.15C616.805 107.643 612.576 110.152 608.399 112.765C599.821 118.128 590.9 122.838 581.909 127.445C573.228 131.898 564.479 136.229 555.832 140.75C549.85 143.879 543.954 147.179 538.075 150.514C528.93 155.705 519.51 160.364 510.262 165.366C500.859 170.437 491.405 175.388 481.762 179.995C474.164 183.622 466.411 186.939 458.693 190.326C457.025 191.065 455.238 191.581 453.467 192.062C444.597 194.4 435.71 196.686 426.823 198.972C426.204 199.127 425.551 199.161 424.777 198.938C425.259 198.611 425.723 198.302 426.634 197.683C424.605 197.855 423.127 198.01 421.649 198.078C413.209 198.491 404.82 197.941 396.431 196.823C384.828 195.276 373.431 192.835 362 190.446C349.589 187.85 337.178 185.255 324.698 183.037C313.851 181.112 303.039 179.101 292.175 177.261C286.09 176.23 279.953 175.474 273.851 174.614C269.639 174.03 265.411 173.462 261.199 172.947C257.469 172.483 253.739 172.019 250.009 171.692C242.772 171.039 235.535 170.575 228.263 170.471C220.751 170.368 213.24 170.506 205.728 170.953C200.725 171.245 195.74 171.692 190.79 172.431C184.842 173.325 178.997 174.683 173.204 176.282C169.182 177.399 165.194 178.619 161.24 179.891C154.657 182.006 148.073 184.189 141.506 186.338C138.876 187.197 136.16 187.627 133.427 188.005C132.929 188.074 132.43 188.091 131.932 188.091C129.766 188.108 127.6 188.091 125.434 188.091C125.314 187.696 125.21 187.403 125.09 186.991C124.85 186.922 124.54 186.767 124.231 186.733C119.16 186.32 114.089 185.874 109.001 185.547C105.425 185.306 101.832 185.152 98.2397 185.1C87.1351 184.945 76.2711 186.475 65.665 189.758C64.2383 190.205 62.8115 190.669 61.3675 191.099C61.0066 191.202 60.8003 191.391 60.8862 191.787C60.4909 191.563 60.0955 191.46 59.3048 192.165C60.1127 191.838 60.4565 191.735 60.8003 191.632ZM276.859 325.97C277.134 325.73 277.409 325.489 277.667 325.266C277.736 325.249 277.822 325.231 277.89 325.214C277.839 325.249 277.787 325.283 277.719 325.317C277.272 325.3 277.031 325.575 276.859 325.97C276.326 325.97 275.793 325.988 275.278 325.988C274.917 326.125 274.573 326.28 274.212 326.417C274.023 326.675 273.885 326.761 273.971 326.331C273.988 326.263 274.091 326.211 274.143 326.177C276.085 324.784 278.234 323.822 280.452 322.945C281.225 322.636 281.878 322.756 282.428 323.409C282.36 323.444 282.308 323.478 282.239 323.495C282.188 323.495 282.136 323.444 282.085 323.409C282.188 323.426 282.308 323.444 282.411 323.461C283.322 323.065 284.216 322.618 285.145 322.275C288.342 321.106 291.573 319.971 294.771 318.785C296.249 318.235 297.693 317.599 299.137 316.946C299.464 316.791 299.962 316.654 299.807 316.086C299.876 316.052 299.945 316 300.014 316C300.065 316 300.117 316.069 300.168 316.121C300.065 316.086 299.945 316.052 299.842 316.018C298.965 316.275 298.106 316.585 297.212 316.757C292.966 317.599 288.686 318.373 284.44 319.232C277.512 320.642 271.032 323.203 265.101 327.105C261.01 329.787 257.4 333.001 254.615 337.006C252.621 339.877 250.713 342.834 249.029 345.893C246.846 349.83 244.92 353.904 242.892 357.926C242.72 358.27 242.617 358.666 242.445 359.147C243.614 359.353 244.525 358.837 245.436 358.528C248.651 357.393 251.865 356.207 255.062 355.021C265.823 350.982 275.449 345.086 283.529 336.869C287.981 332.348 292.192 327.603 296.49 322.945C297.04 322.361 297.504 321.69 298.14 320.882C297.641 320.917 297.384 320.865 297.177 320.934C293.258 322.343 289.339 323.753 285.42 325.18C274.057 329.271 264.465 336.061 255.819 344.346C254.925 345.206 254.134 346.203 253.309 347.131C253 347.475 252.673 347.802 251.934 348.592C252.209 347.716 252.26 347.423 252.398 347.148C253.326 345.257 254.581 343.607 255.939 342.009C258.346 339.207 260.958 336.645 263.915 334.445C266.992 332.159 270.172 330.027 273.318 327.827C273.713 327.552 274.212 327.414 274.332 326.864C274.281 326.692 274.246 326.521 274.229 326.383C275.02 326.727 275.054 326.71 275.26 325.936C275.793 326.314 276.326 326.108 276.859 325.97ZM286.365 360.539C286.502 360.556 286.64 360.574 286.76 360.574C286.795 360.574 286.846 360.488 286.881 360.453C286.726 360.505 286.554 360.539 286.417 360.608C286.124 361.141 286.159 361.674 286.451 362.207C286.056 362.224 285.626 362.086 285.402 362.568C284.646 364.097 283.855 365.627 283.116 367.174C283.03 367.364 283.116 367.656 283.133 367.879C282.377 367.965 282.343 368.67 282.136 369.151C280.606 372.572 279.094 376.01 277.598 379.448C274.659 386.186 271.582 392.839 267.061 398.718C266.837 399.01 266.751 399.423 266.579 399.869C267.869 400.162 268.883 399.869 269.88 399.44C273.49 397.875 277.031 396.191 280.177 393.819C287.654 388.232 293.653 381.39 297.452 372.778C298.432 370.561 299.395 368.343 299.721 365.92C299.962 365.645 300.203 365.352 299.653 364.768C299.721 365.335 299.756 365.662 299.79 365.971C299.584 366.04 299.257 366.04 299.189 366.177C298.638 367.192 298.174 368.24 297.624 369.237C296.885 370.595 296.077 371.936 295.304 373.294C295.046 373.724 294.685 373.775 294.255 373.586L294.307 373.603C294.736 372.796 295.183 372.005 295.596 371.197C296.627 369.1 297.641 367.003 298.69 364.905C299.068 364.166 299.515 363.444 300.478 363.41C302.592 356.757 303.761 346.392 302.712 343.04C302.472 343.779 302.266 344.398 302.059 345.034C300.753 349.16 299.567 353.354 298.088 357.411C296.627 361.399 294.96 365.318 293.189 369.186C290.92 374.154 287.757 378.554 284.13 382.628C282.411 384.571 280.555 386.393 278.217 387.596C277.925 387.751 277.547 387.699 276.997 387.768C277.323 387.355 277.461 387.149 277.633 386.96C283.46 380.668 288.204 373.672 291.677 365.782C294.943 358.356 297.487 350.689 299.945 342.971C300.048 342.679 300.014 342.335 300.082 341.682C299.532 342.266 299.171 342.593 298.879 342.988C297.263 345.12 295.647 347.251 294.083 349.4C292.519 351.566 290.972 353.749 289.459 355.932C289.184 356.328 288.754 356.895 288.857 357.222C289.27 358.459 288.565 359.353 288.084 360.264C286.709 362.929 285.265 365.559 283.804 368.189C283.632 368.515 283.219 368.722 282.927 368.979L282.91 369.014C282.961 368.618 283.03 368.223 283.082 367.81C283.855 367.329 283.89 366.418 284.319 365.731C285.041 364.544 285.23 363.066 286.417 362.155C286.399 361.639 286.382 361.089 286.365 360.539ZM497.903 327.655L497.971 327.707C498.04 327.053 498.04 326.366 498.195 325.73C499.914 318.751 500.877 311.669 501.616 304.535C502.045 300.392 502.75 296.284 504.246 292.364C504.349 292.072 504.4 291.746 504.521 291.281C503.489 291.608 503.111 292.382 502.527 292.897C501.203 294.032 500.447 295.39 500.602 297.212C500.653 297.865 500.567 298.57 500.361 299.189C500.155 299.79 500.309 300.564 499.673 301.062C499.192 299.55 500.258 298.14 499.776 296.301C498.436 298.759 498.367 301.252 497.25 303.469C497.164 302.85 497.095 302.3 497.009 301.75C497.06 301.63 497.112 301.509 497.146 301.389C497.112 301.527 497.095 301.664 497.06 301.802C496.854 302.025 496.545 302.231 496.459 302.489C495.943 304.157 495.307 305.824 495.015 307.526C494.104 312.958 493.347 318.407 492.471 323.839C491.594 329.271 490.614 334.686 488.93 339.963C488.809 340.324 488.758 340.702 488.655 341.166C489.17 341.201 489.514 341.304 489.824 341.235C493.726 340.376 497.284 338.932 499.845 335.597C502.647 331.97 504.607 327.964 505.569 323.478C506.79 317.788 506.704 312.03 506.309 306.271C506.171 304.363 506.016 302.438 505.913 300.53C505.862 299.412 505.896 298.278 505.896 297.143C505.518 297.573 505.294 298.02 505.208 298.484C504.951 299.876 504.727 301.286 504.504 302.678C503.833 306.959 503.232 311.256 502.458 315.536C501.753 319.404 500.412 323.1 498.797 326.692C498.659 327.105 498.625 327.741 497.903 327.655ZM484.942 295.201C487.692 293.722 489.944 291.625 491.938 289.27C492.488 288.617 493.21 288.033 493.468 287.087C493.158 287.087 493.004 287.053 492.849 287.087C489.428 288.119 486.007 289.219 482.569 290.198C477.739 291.574 473.063 293.31 468.663 295.751C465.019 297.779 461.409 299.876 458.487 302.936C458.418 303.005 458.246 302.971 457.936 303.022C458.091 302.644 458.177 302.334 458.332 302.077C459.38 300.323 460.842 298.965 462.406 297.71C467.872 293.327 474.06 290.284 480.73 288.222C483.67 287.311 486.661 286.554 489.617 285.678C492.024 284.973 494.327 284.01 496.459 282.669C496.785 282.463 497.232 282.308 496.974 281.81C493.691 281.81 490.442 281.707 487.194 281.827C482.105 282.016 477.344 283.391 472.892 285.901C469.677 287.706 466.652 289.752 463.798 292.089C459.724 295.424 455.942 299.068 452.281 302.85C451.421 303.744 450.682 304.775 449.96 305.79C449.703 306.151 449.634 306.666 449.479 307.096C450.459 308.007 451.525 308.162 452.608 308.145C454.859 308.076 457.111 307.956 459.363 307.852C463.42 307.663 467.219 306.477 470.88 304.741C475.745 302.438 480.025 299.258 484.254 296.009C484.374 295.923 484.426 295.734 484.529 295.596C484.667 295.459 484.804 295.338 484.942 295.201ZM547.237 338.158C546.98 337.883 546.705 337.608 546.309 337.213C545.948 338.192 546.309 338.416 546.997 338.416C546.309 339.018 546.344 339.688 546.808 340.427C547.891 342.146 549.283 343.59 550.899 344.776C553.116 346.409 555.403 347.939 557.655 349.521C560.456 351.463 563.327 353.354 566.078 355.365C569.378 357.789 572.369 360.591 574.913 363.822C578.953 368.945 581.686 374.704 582.906 381.133C583.336 383.436 583.302 385.344 582.872 387.218C582.339 387.08 582.373 386.599 582.305 386.221C580.276 375.958 575.205 367.432 567.436 360.488C565.579 358.82 563.568 357.308 561.557 355.812C559.288 354.11 556.933 352.529 554.629 350.879C552.188 349.125 549.764 347.337 547.667 345.172C547.461 344.965 547.186 344.828 546.842 344.604C547.306 348.334 548.028 350.277 550.074 352.701C551.243 354.11 552.532 355.434 553.821 356.723C556.95 359.852 560.13 362.929 563.241 366.057C568.243 371.111 571.991 376.99 574.329 383.711C575.171 386.152 575.876 388.645 576.701 391.085C577.32 392.89 577.99 394.695 578.729 396.466C578.936 396.947 579.434 397.308 579.778 397.704C581.737 396.535 582.889 395.28 583.938 392.994C585.193 390.26 586.276 387.458 587.015 384.553C588.115 380.222 588.355 375.873 587.548 371.42C585.347 359.284 575.085 348.592 565.424 345.636C559.184 343.728 552.893 341.63 547.237 338.158ZM216.437 191.959C215.56 192.234 215.199 193.024 214.735 193.695C212.793 196.514 210.833 199.316 209.011 202.204C204.799 208.856 199.969 215.027 194.915 221.027C194.056 222.041 193.127 223.021 192.165 223.932C189.277 226.717 186.372 229.467 183.45 232.2C181.988 233.575 180.527 234.933 178.997 236.24C178.104 236.996 177.124 237.615 176.144 238.251C175.886 238.406 175.508 238.354 174.82 238.457C179.891 233.506 184.653 228.831 189.432 224.172C194.124 219.617 198.353 214.684 201.31 208.788C201.464 208.495 201.636 208.203 201.791 207.911C205.453 201.533 209.251 195.259 213.91 189.552C214.047 189.38 214.099 189.157 214.357 188.59C213.635 189.002 213.205 189.191 212.844 189.466C210.128 191.409 207.429 193.368 204.731 195.345C200.777 198.25 197.58 201.86 195.139 206.106C193.884 208.272 192.68 210.472 191.477 212.655C188.761 217.554 185.736 222.264 182.057 226.51C177.399 231.891 172.362 236.876 166.879 241.397C164.506 243.373 162.065 245.264 159.676 247.224C159.384 247.465 158.937 247.688 159.16 248.376C159.521 248.496 159.968 248.702 160.432 248.805C161.086 248.943 161.756 249.046 162.409 249.063C164.42 249.098 166.414 249.08 168.426 249.115C170.282 249.149 172.087 248.823 173.823 248.169C176.402 247.207 179.015 246.33 181.524 245.213C189.122 241.844 195.328 236.841 199.505 229.518C200.708 227.421 201.843 225.29 202.96 223.124C205.642 217.915 207.687 212.449 209.733 206.983C211.572 202.066 213.394 197.116 216.351 192.715C216.471 192.526 216.471 192.251 216.523 192.01C217.434 191.598 217.864 190.79 218.225 189.913C217.399 190.429 216.66 190.979 216.437 191.959ZM321.071 199.007C319.438 199.024 317.994 199.711 316.533 200.296C312.012 202.101 307.852 204.542 303.795 207.189C298.69 210.524 293.825 214.202 289.064 218.001C282.136 223.519 275.26 229.072 269.399 235.776C269.278 235.913 269.038 235.947 268.453 236.188C269.433 234.744 270.121 233.61 270.894 232.544C272.957 229.708 275.295 227.095 277.77 224.602C283.546 218.775 289.906 213.635 296.473 208.753C299.618 206.415 302.919 204.301 306.254 202.221C309.227 200.365 312.425 198.903 315.76 197.786C316.842 197.425 317.943 197.116 319.404 196.652C318.579 196.394 318.115 196.153 317.65 196.136C312.408 195.912 307.147 195.637 301.905 196.411C294.857 197.459 288.668 200.227 283.408 205.092C280.142 208.117 277.254 211.435 274.607 214.993C271.375 219.359 267.972 223.571 264.465 227.714C260.099 232.87 255.819 238.113 251.521 243.322C251.229 243.683 251.023 244.113 250.679 244.646C251.47 244.989 252.037 245.333 252.656 245.488C255.097 246.124 257.606 246.382 260.099 245.832C262.695 245.264 265.29 244.611 267.852 243.855C277.375 241.018 285.368 235.776 291.934 228.332C292.433 227.765 292.931 227.215 293.43 226.648C299.773 219.669 306.133 212.707 312.493 205.728C314.866 203.115 317.461 200.777 320.71 199.299C320.848 199.23 320.916 199.058 321.037 198.938C321.157 198.869 321.277 198.783 321.415 198.714C321.295 198.817 321.174 198.903 321.071 199.007ZM494.052 302.249C493.777 302.386 493.416 302.438 493.227 302.661C492.213 303.882 491.164 305.085 490.305 306.408C488.105 309.761 486.007 313.164 483.859 316.55C483.326 317.393 482.759 318.218 482.105 318.991C480.85 320.47 479.853 322.086 479.011 323.822C478.1 325.695 477.155 327.552 476.209 329.408C476.02 329.769 475.814 330.165 475.522 330.44C475.195 330.732 474.748 330.87 474.25 331.145C474.851 331.66 475.367 332.09 475.865 332.52C480.919 336.886 485.01 341.974 487.83 348.077C489.548 351.807 490.7 355.726 491.628 359.714C492.35 362.877 492.986 366.057 492.299 369.358C493.433 370.028 494.516 370.647 495.582 371.3C496.579 371.919 497.525 372.589 498.504 373.242C499.553 373.93 500.602 374.6 501.65 375.305C502.613 375.958 503.575 376.646 504.538 377.299C505.552 377.987 506.36 378.949 507.512 379.431C507.787 379.104 507.993 378.95 508.096 378.726C509.351 376.096 510.589 373.449 511.826 370.802C514.199 365.713 516.983 360.9 520.215 356.31C524.77 349.813 528.93 343.092 531.818 335.631C534.448 328.841 536.769 321.982 537.869 314.763C538.66 309.571 539.433 304.363 540.087 299.154C540.654 294.685 541.032 290.198 541.066 285.678C541.101 279.489 540.894 273.335 539.863 267.216C539.726 266.425 539.657 265.634 539.519 264.654C539.038 264.929 538.729 265.05 538.488 265.256C535.273 267.835 531.784 269.897 528.002 271.53C525.785 272.493 523.687 273.696 521.693 275.071C518.376 277.358 515.522 280.177 512.48 282.772C511.551 283.563 510.881 284.663 510.572 285.918C510.125 287.689 509.712 289.494 509.179 291.247C507.993 295.149 507.804 299.12 508.182 303.142C508.423 305.721 508.629 308.299 508.818 310.878C509.111 315.055 508.853 319.232 508.062 323.34C506.945 329.151 504.366 334.204 500.172 338.399C497.318 341.252 493.691 342.37 489.875 343.074C489.72 343.109 489.548 343.109 489.377 343.109C486.97 343.092 486.368 342.352 486.987 340.049C489.187 331.901 490.477 323.581 491.646 315.227C492.213 311.187 492.711 307.113 494.018 303.211C494.121 302.919 494.052 302.558 494.069 302.231C494.173 302.163 494.293 302.094 494.396 302.025C494.31 301.973 494.224 301.939 494.138 301.888C494.069 301.991 494.069 302.111 494.052 302.249ZM446.007 687.524L446.058 687.575C445.749 687.232 445.439 686.871 445.147 686.544C445.233 686.389 445.268 686.252 445.319 686.235C445.714 686.114 446.11 685.994 446.505 685.925C452.814 684.705 459.088 683.329 465.225 681.421C469.058 680.235 472.806 678.826 476.158 676.539C485.664 670.076 492.058 661.412 494.482 650.05C495.238 646.457 495.771 642.83 496.373 639.203C496.493 638.481 496.717 637.725 496.218 637.072C495.427 636.642 494.327 637.106 493.76 636.195C494.774 635.525 495.72 634.871 496.682 634.253C496.889 634.115 497.146 634.063 497.37 633.978C498.298 633.617 499.261 633.324 500.12 632.86C507.048 629.182 512.48 623.836 517.087 617.578C518.376 615.825 519.287 613.831 519.992 611.768C520.507 610.273 520.954 608.743 521.35 607.213C522.673 602.004 523.481 596.744 522.862 591.347C522.398 587.29 521.934 583.216 521.436 579.159C521.367 578.609 521.126 578.093 521.023 577.767C518.29 577.234 516.055 578.059 513.838 579.056C512.772 579.52 511.655 579.864 510.537 580.242C503.747 582.528 496.854 584.557 489.909 586.31C485.629 587.393 481.332 588.493 476.966 589.146C469.866 590.195 462.732 590.969 455.599 591.708C450.287 592.241 444.958 592.67 439.629 592.894C432.049 593.22 424.451 593.427 416.853 593.478C408.67 593.53 400.488 593.341 392.306 593.238C389.298 593.203 386.289 593.117 383.298 592.997C375.288 592.67 367.295 592.172 359.319 591.312C354.179 590.762 349.022 590.315 343.899 589.559C333.757 588.046 323.615 586.43 313.508 584.729C306.425 583.525 299.446 581.927 292.691 579.434C291.367 578.953 290.009 578.506 288.668 578.076C287.259 577.629 285.54 577.578 283.786 577.922C283.718 578.145 283.632 578.368 283.597 578.609C283.133 582.339 282.566 586.052 282.222 589.783C281.982 592.344 281.896 594.957 281.999 597.535C282.188 602.486 283.391 607.265 284.973 611.94C285.815 614.415 286.984 616.736 288.634 618.747C294.014 625.314 299.825 631.365 308.162 634.218C308.866 634.992 309.795 634.923 310.706 634.957C311.376 634.975 312.047 635.043 312.7 635.146C316.585 635.696 320.47 636.247 324.337 636.831C332.76 638.086 341.149 639.461 349.589 640.596C355.382 641.369 361.192 641.919 367.02 642.366C372.262 642.762 377.523 642.882 382.783 643.105C391.206 643.483 399.646 643.535 408.069 643.26C414.653 643.037 421.236 642.676 427.82 642.263C432.152 642.005 436.466 641.575 440.798 641.18C445.113 640.785 449.427 640.303 453.742 639.874C457.472 639.495 461.22 639.169 464.95 638.722C469.505 638.155 474.043 637.536 478.581 636.848C483.945 636.04 489.291 635.146 494.516 633.668C494.86 633.565 495.221 633.565 495.582 633.513C495.221 633.995 494.809 634.27 494.344 634.442C492.471 635.129 490.597 635.851 488.689 636.436C480.902 638.756 472.874 639.805 464.864 640.905C460.068 641.558 455.255 642.057 450.442 642.538C443.463 643.243 436.501 644.034 429.505 644.532C421.511 645.099 413.501 645.563 405.508 645.787C392.478 646.148 379.465 645.615 366.469 644.824C362.55 644.584 358.648 644.205 354.763 643.724C349.211 643.037 343.693 642.229 338.158 641.369C332.64 640.51 327.139 639.513 321.638 638.55C318.922 638.069 316.224 637.519 313.525 637.02C311.875 636.711 310.242 636.556 308.54 637.261C308.54 637.759 308.488 638.241 308.54 638.722C309.107 643.535 309.812 648.331 311.17 652.989C312.923 659.006 315.742 664.438 320.04 669.062C324.354 673.686 329.168 677.605 335.167 679.891C342.215 682.573 349.52 684.223 356.895 685.616C359.267 686.063 361.656 686.475 364.011 686.991C364.957 687.197 365.919 687.472 366.813 688.297C366.401 688.383 366.177 688.504 365.971 688.469C363.736 688.211 361.484 687.988 359.267 687.661C356.86 687.3 354.488 687.541 351.927 687.644C352.116 688.28 352.202 688.761 352.391 689.208C353.715 692.182 355.176 695.087 357.084 697.752C361.605 704.026 366.848 709.596 372.95 714.34C378.021 718.276 383.625 721.147 389.796 722.9C396.552 724.826 403.376 725.496 410.321 724.069C418.812 722.333 426.479 718.861 433.2 713.343C438.581 708.925 443.308 703.888 447.433 698.267C449.513 695.431 451.146 692.337 452.522 689.088C452.711 688.658 452.745 688.16 452.883 687.575C450.493 687.524 448.241 687.524 446.007 687.524ZM466.067 379.001C464.95 379.293 463.85 379.671 462.715 379.843C457.679 380.617 452.659 381.39 447.605 382.026C443.05 382.594 438.478 383.041 433.905 383.384C429.659 383.711 425.413 383.9 421.15 384.072C405.043 384.708 388.954 384.863 372.898 382.989C362.034 381.717 351.257 379.964 340.599 377.557C332.623 375.752 324.664 373.896 316.705 372.074C315.656 371.833 314.608 371.627 313.576 371.403C313.078 371.713 312.648 371.97 312.253 372.263C308.987 374.583 305.669 376.835 302.472 379.242C296.593 383.642 291.728 388.971 287.946 395.297C285.041 400.145 283.185 405.37 281.414 410.682C278.63 419.053 278.303 427.665 278.44 436.415C278.801 436.553 279.18 436.759 279.575 436.845C290.748 439.595 301.991 442.105 313.336 443.996C320.16 445.13 327.002 446.196 333.86 447.124C340.478 448.018 347.114 448.775 353.749 449.428C358.975 449.943 364.235 450.236 369.478 450.648C379.723 451.439 389.985 451.731 400.247 451.869C414.102 452.058 427.957 451.594 441.778 450.631C449.599 450.081 457.421 449.359 465.191 448.396C474.954 447.193 484.667 445.594 494.293 443.463C504.486 441.211 514.525 438.461 524.203 434.473C524.891 434.198 525.596 433.974 526.421 433.699C526.558 429.402 526.455 425.07 525.802 420.772C525.011 415.478 523.464 410.355 521.659 405.336C517.568 393.991 510.52 384.897 500.653 378.004C497.232 375.615 493.812 373.225 490.408 370.819C489.892 370.458 489.497 369.925 489.033 369.461C489.634 368.739 489.789 368.137 489.652 367.312C488.895 362.946 487.898 358.648 486.575 354.42C483.566 344.81 477.842 337.264 469.385 331.763C464.761 328.755 460.068 325.919 455.014 323.65C452.9 322.704 450.871 321.536 449.152 320.384C448.963 319.49 448.963 318.802 448.688 318.235C447.537 315.743 446.368 313.233 445.078 310.809C443.703 308.231 442.328 305.635 440.678 303.246C433.355 292.708 423.316 285.609 411.61 280.71C409.203 279.696 406.676 279.283 404.029 279.61C402.792 279.764 401.537 279.592 400.282 279.575C399.697 279.558 399.13 279.524 398.546 279.541C396.088 279.61 393.801 280.435 391.567 281.38C385.842 283.821 380.634 287.121 375.752 290.938C371.317 294.393 367.466 298.432 364.252 303.074C361.055 307.698 358.734 312.769 356.482 317.874C356.465 317.926 356.517 318.029 356.585 318.235C356.946 318.252 357.342 318.304 357.737 318.304C362.155 318.304 366.59 318.166 371.008 318.338C380.771 318.734 390.535 318.957 400.299 318.716C405.886 318.579 411.472 318.218 417.042 317.857C420.188 317.668 423.333 317.29 426.479 316.997C426.101 317.376 425.671 317.599 425.224 317.719C418.812 319.335 412.28 320.281 405.697 320.659C399.955 320.985 394.179 321.226 388.421 321.106C378.416 320.899 368.395 320.418 358.39 319.988C357.17 319.937 356.156 320.092 355.09 320.762C353.319 321.862 351.497 322.876 349.589 323.736C344.552 326.005 339.842 328.858 335.236 331.884C328.36 336.405 323.168 342.352 319.937 349.95L319.988 349.916C319.524 351.068 318.991 352.202 318.596 353.388C317.203 357.583 316.206 361.88 315.364 366.229C315.089 367.621 315.089 368.825 316.121 370.011C316.602 370.08 317.169 370.165 317.736 370.251C320.865 370.716 324.028 371.059 327.122 371.678C333.242 372.916 339.327 374.36 345.464 375.597C350.775 376.663 356.104 377.626 361.45 378.468C365.558 379.121 369.718 379.517 373.861 380.05C379.74 380.789 385.636 381.287 391.567 381.373C395.812 381.425 400.076 381.562 404.321 381.476C412.83 381.304 421.339 381.15 429.831 380.686C436.243 380.342 442.62 379.568 449.015 378.915C455.238 378.279 461.426 377.368 467.528 376.01C472.978 374.79 478.375 373.397 483.807 372.091C484.495 371.919 485.199 371.816 486.403 371.592C485.75 372.349 485.371 372.658 484.942 372.864C482.913 373.844 480.885 374.824 478.856 375.769C478.255 376.044 477.602 376.216 477 376.491C476.862 376.56 476.88 376.921 476.811 377.145C476.45 377.076 476.089 377.007 475.728 376.938C475.711 377.007 475.711 377.076 475.694 377.145C476.072 377.145 476.433 377.145 476.811 377.145C481.143 376.079 484.374 375.752 486.798 376.182C483.102 376.955 479.527 377.677 475.951 378.434C472.307 379.207 468.766 380.359 465.087 381.047C464.967 380.187 465.569 380.118 465.947 379.861C466.411 379.568 466.119 379.276 466.067 379.001C466.445 379.207 466.824 379.5 467.374 379.07C466.841 379.035 466.463 379.018 466.067 379.001ZM267.13 522.914C266.442 525.596 265.823 528.26 265.514 530.993C265.17 534.002 265.393 536.993 265.445 540.001C265.565 545.244 266.786 550.246 268.488 555.145C269.141 557.019 270.035 558.858 271.118 560.525C274.315 565.459 278.165 569.825 282.532 573.779C283.597 574.741 284.818 575.377 286.262 575.687C288.05 576.065 289.837 576.512 291.591 577.062C298.845 579.365 306.202 581.136 313.714 582.357C319.559 583.302 325.403 584.265 331.248 585.193C335.7 585.898 340.152 586.654 344.621 587.17C351.824 588.012 359.061 588.734 366.28 589.387C376.182 590.298 386.1 590.728 396.036 590.745C399.629 590.762 403.221 590.814 406.814 590.797C415.581 590.78 424.348 590.814 433.114 590.711C437.206 590.659 441.28 590.367 445.371 590.126C447.623 589.989 449.874 589.8 452.109 589.559C457.593 588.992 463.059 588.339 468.543 587.789C474.198 587.221 479.802 586.345 485.303 584.935C492.247 583.147 499.175 581.274 506.068 579.331C510.554 578.076 515.007 576.615 519.476 575.274C520.868 574.862 522.02 574.105 523.069 573.108C526.868 569.55 530.237 565.648 533.211 561.385C534.655 559.322 535.806 557.105 536.58 554.698C537.989 550.315 539.158 545.897 539.399 541.256C539.605 537.164 539.863 533.073 539.107 529.017C538.797 527.383 538.453 525.75 538.11 524.117C538.007 523.653 537.852 523.206 537.714 522.794C536.116 522.897 536.116 522.897 535.445 522.519C537.422 520.679 539.502 518.892 541.427 516.949C545.776 512.532 548.939 507.375 550.727 501.427C552.927 494.156 553.856 486.747 552.601 479.166C551.518 472.617 549.678 466.325 546.481 460.464C543.92 455.754 540.877 451.353 537.439 447.262C534.38 443.618 530.856 440.42 526.953 437.429C526.919 437.275 526.85 436.948 526.747 436.621C526.644 436.312 526.524 436.02 526.403 435.676C526.008 435.796 525.682 435.865 525.389 435.985C515.643 440.214 505.483 443.188 495.152 445.577C485.956 447.692 476.69 449.359 467.322 450.493C460.034 451.37 452.745 452.264 445.422 452.831C437.687 453.433 429.917 453.725 422.164 454.086C407.811 454.757 393.44 454.447 379.104 453.777C370.853 453.399 362.619 452.711 354.385 451.989C347.578 451.387 340.754 450.7 333.981 449.771C325.798 448.637 317.65 447.331 309.52 445.869C299.67 444.099 289.923 441.795 280.331 438.925C279.3 438.615 278.269 438.306 277.375 438.031C277.082 438.186 276.911 438.254 276.79 438.357C276.326 438.718 275.879 439.079 275.432 439.458C267.422 446.162 261.165 454.258 256.884 463.73C252.449 473.511 250.662 483.756 252.57 494.499C253.687 500.825 255.733 506.756 259.446 512.067C261.921 515.591 264.964 518.531 268.161 521.298C268.952 521.298 269.691 521.281 270.43 521.298C280.71 521.677 290.886 522.948 300.959 524.977C313.92 527.59 327.019 528.931 340.203 529.567C347.629 529.928 355.055 530.185 362.481 530.478C363.203 530.512 363.943 530.426 364.836 530.392C364.836 529.412 364.854 528.604 364.854 527.779C364.802 524.358 364.836 520.955 365.197 517.534C366.126 508.595 368.12 499.931 371.3 491.543C373.603 485.475 376.835 479.957 381.287 475.195C383.178 473.167 385.189 471.276 387.665 469.987C390.398 468.56 393.217 467.288 396.036 466.05C396.844 465.689 397.806 465.569 398.718 465.535C400.041 465.466 401.416 465.724 402.723 465.552C406.178 465.105 409.324 465.93 412.349 467.511C414.051 468.388 415.839 469.11 417.506 470.056C419.93 471.413 421.958 473.27 423.849 475.298C428.336 480.146 431.619 485.733 433.871 491.921C437.979 503.146 440.386 514.68 440.179 526.696C440.179 527.16 440.334 527.624 440.437 528.243C442.552 528.14 444.546 528.054 446.54 527.951C451.129 527.693 455.702 527.401 460.291 527.143C466.875 526.765 473.459 526.404 480.043 526.008C482.38 525.871 484.701 525.665 487.022 525.441C491.25 525.029 495.496 524.616 499.725 524.135C503.128 523.739 506.515 523.292 509.901 522.811C515.608 522.003 521.212 520.697 526.816 519.39C529.085 518.857 531.388 518.41 533.675 517.964C534.483 517.792 535.325 517.654 536.133 518.41C535.858 518.72 535.652 519.115 535.325 519.27C534.586 519.631 533.812 519.975 533.021 520.181C530.116 520.954 527.211 521.694 524.306 522.416C517.654 524.032 510.933 525.321 504.125 526.094C498.659 526.73 493.176 527.315 487.692 527.83C482.38 528.329 477.052 528.776 471.723 529.102C461.976 529.704 452.212 530.185 442.466 530.736C441.658 530.787 440.798 530.718 440.007 531.268C439.836 532.42 439.664 533.572 439.475 534.724C438.392 541.015 436.484 547.049 433.355 552.635C430.364 557.981 426.599 562.76 422.233 567.075C419.259 570.014 415.684 571.939 411.902 573.538C410.922 573.951 409.822 574.157 408.756 574.329C404.596 574.982 400.437 574.982 396.294 574.329C395.073 574.14 393.836 573.813 392.684 573.332C388.73 571.682 385.052 569.567 382.112 566.353C381.373 565.545 380.6 564.789 379.878 563.998C372.503 555.901 367.69 546.533 365.748 535.721C365.61 534.913 365.369 534.139 365.197 533.383C364.819 533.297 364.579 533.211 364.338 533.194C360.677 533.022 356.998 532.833 353.336 532.712C344.415 532.437 335.493 531.973 326.589 531.234C318.682 530.581 310.843 529.446 303.056 527.899C296.593 526.61 290.095 525.493 283.58 524.564C279.541 523.98 275.501 523.378 271.444 522.794C271.032 522.742 270.619 522.725 270.207 522.725C269.21 522.777 268.316 522.845 267.13 522.914ZM549.713 189.776C548.733 190.309 548.131 190.584 547.581 190.927C541.341 194.881 534.637 197.803 527.607 200.021C525.853 200.571 524.117 201.172 522.381 201.757C515.093 204.163 507.838 206.656 500.344 208.358C493.262 209.956 486.179 211.504 479.028 212.69C474.009 213.515 469.024 214.495 464.108 215.818C453.742 218.586 444.047 223.055 434.318 227.421C432.874 228.075 431.533 229.14 430.037 229.398C428.318 229.69 426.96 230.533 425.516 231.272C422.285 232.888 418.967 234.228 415.409 234.796C412.83 235.208 410.407 236.085 408.017 237.048C407.502 237.254 407.003 237.546 406.522 237.804C406.453 239.265 406.453 240.606 406.298 241.912C405.851 245.574 405.903 249.235 406.04 252.914C406.144 256.008 405.954 259.085 405.473 262.145C404.786 266.442 404.407 270.757 404.39 275.106C404.39 275.587 404.493 276.051 404.545 276.515C404.923 276.584 405.164 276.67 405.404 276.67C408.739 276.533 411.868 277.375 414.859 278.716C428.232 284.715 439.182 293.482 446.419 306.494C446.626 306.855 446.935 307.165 447.399 307.766C447.416 305.807 448.224 304.552 449.152 303.349C449.72 302.627 450.321 301.922 450.957 301.269C454.55 297.539 458.28 293.946 462.285 290.663C465.448 288.05 468.835 285.764 472.445 283.821C477.619 281.036 483.154 279.678 489.033 279.747C491.869 279.781 494.705 279.799 497.542 279.953C499.158 280.039 500.327 279.661 501.513 278.423C505.999 273.713 510.864 269.382 515.918 265.256C519.854 262.024 523.756 258.758 527.641 255.475C529.618 253.79 531.371 251.882 532.901 249.785C535.961 245.591 538.66 241.19 540.894 236.498C542.803 232.492 544.504 228.401 545.123 223.983C545.862 218.689 546.498 213.394 547.186 208.1C547.856 203.063 548.527 198.01 549.214 192.973C549.266 192.062 549.455 191.185 549.713 189.776ZM403.599 239.592C402.138 240.211 401.073 241.001 400.041 241.826C397.686 243.7 395.641 245.9 393.647 248.152C391.154 250.954 388.713 253.825 385.98 256.386C382.318 259.807 378.416 262.953 374.274 265.789C370.973 268.041 367.656 270.293 364.355 272.579C362.499 273.851 360.659 275.157 358.837 276.481C353.852 280.108 348.867 283.752 343.882 287.414C341.871 288.892 339.722 290.216 338.038 292.089C337.659 292.519 337.126 292.829 336.662 293.155C333.964 295.098 331.368 297.126 329.305 299.842C326.383 303.692 323.134 307.302 320.057 311.033C317.616 313.989 315.295 317.066 313.319 320.367C311.651 323.151 310.018 325.97 308.419 328.807C307.973 329.598 307.56 330.457 307.371 331.334C306.34 336.233 305.36 341.132 305.635 346.203C305.858 350.311 305.463 354.385 304.621 358.39C303.194 365.266 301.63 372.091 297.934 378.21C297.796 378.434 297.831 378.743 297.727 379.293C302.661 375.477 307.68 372.383 312.769 369.168C312.047 367.381 312.27 365.662 312.511 363.908C313.061 359.92 314.075 356.053 315.381 352.271C318.304 343.848 323.289 336.817 330.405 331.471C336.422 326.968 342.885 323.134 350.07 320.676C351.016 320.349 351.927 319.954 352.7 319.662C353.182 318.304 353.491 317.083 354.007 315.949C355.365 312.992 356.757 310.053 358.218 307.148C360.04 303.572 362.292 300.255 364.888 297.178C370.939 289.975 378.382 284.543 386.685 280.246C388.386 279.369 390.191 278.681 391.962 277.977C394.231 277.083 396.586 276.584 399.044 276.67C399.611 276.687 400.179 276.67 400.883 276.67C401.795 264.311 402.688 252.089 403.599 239.592ZM108.433 553.546C109.688 553.907 110.565 553.684 111.424 553.392C118.18 551.019 123.973 547.306 128.425 541.565C133.668 534.809 137.381 527.332 139.805 519.167C141.214 514.422 141.988 509.592 141.902 504.607C141.833 500.172 141.18 495.806 140.527 491.422C140.097 488.62 139.616 485.819 138.464 483.188C136.092 477.757 133.582 472.393 130.333 467.425C127.944 463.764 126.122 459.845 124.798 455.702C124.574 455.014 124.334 454.327 124.093 453.639C123.818 454.189 123.767 454.671 123.87 455.152C124.918 460.137 125.984 465.105 127.033 470.073C128.305 476.123 129.284 482.209 129.731 488.38C130.522 499.192 129.697 509.884 127.222 520.439C126.087 525.235 124.764 529.979 122.666 534.448C121.996 535.875 121.137 537.216 120.311 538.557C120.14 538.832 119.933 539.313 119.349 538.987C120.758 535.721 121.652 532.351 122.443 528.948C122.804 527.401 123.199 525.871 123.543 524.324C125.142 517.31 126.311 510.245 126.672 503.06C127.119 494.19 126.5 485.372 125.039 476.622C124.231 471.774 123.268 466.944 122.443 462.097C122.116 460.206 121.91 458.298 121.824 456.372C121.635 452.453 121.618 448.534 122.254 444.632C122.357 443.961 122.615 443.222 122.082 442.311C121.79 442.758 121.566 442.982 121.446 443.257C120.088 446.213 118.575 449.101 117.441 452.144C114.759 459.277 113.745 466.686 114.673 474.284C115.017 477.172 115.584 480.043 116.014 482.931C116.461 485.904 116.994 488.861 117.234 491.852C117.784 498.591 117.922 505.346 117.355 512.102C116.805 518.599 116.048 525.063 114.415 531.372C112.834 537.508 111.08 543.594 109.43 549.713C109.069 550.916 108.794 552.137 108.433 553.546ZM25.458 516.038C28.6553 511.242 32.4887 507.082 36.9236 503.507C45.4326 496.648 54.5948 490.958 65.1665 487.813C67.8825 487.005 70.6329 486.317 73.366 485.543C76.7352 484.581 80.1044 483.635 83.4393 482.587C85.6739 481.882 87.7711 480.868 89.7651 479.613C90.5215 479.132 91.3294 478.685 91.7076 477.533C91.1575 477.636 90.7621 477.671 90.4011 477.791C87.7195 478.719 84.9692 479.407 82.1328 479.682C77.8182 480.094 73.5036 480.662 69.1889 480.919C63.2069 481.28 57.5342 482.759 51.9303 484.787C39.2615 489.377 29.4805 497.353 22.742 509.042C21.195 511.706 19.6995 514.422 18.2211 517.121C15.9865 521.212 13.769 525.338 11.5687 529.446C11.414 529.739 11.3108 530.031 11.0874 530.546C11.8093 530.495 12.3594 530.512 12.8923 530.392C16.1412 529.67 19.4072 528.965 22.6389 528.174C24.4095 527.745 26.1972 527.246 27.899 526.61C31.0963 525.424 34.328 524.255 37.4221 522.811C42.8541 520.267 48.2173 517.568 53.5634 514.835C55.1105 514.044 56.5544 513.013 57.964 511.964C61.7113 509.179 65.4072 506.309 68.7935 503.077C71.6986 500.31 74.5521 497.49 77.526 494.826C80.2935 492.351 82.5454 489.48 84.7285 486.541C84.866 486.369 84.8832 486.111 84.952 485.887C84.7457 485.87 84.5738 485.784 84.4363 485.836C79.3825 487.572 74.174 488.741 69.017 490.082C62.1239 491.887 55.5574 494.465 49.4206 498.109C41.8055 502.647 34.5686 507.684 28.2084 513.924C27.3489 514.766 26.5582 515.609 25.458 516.038ZM232.75 186.802C232.578 187.128 232.423 187.335 232.389 187.541C232.269 188.28 232.114 189.019 232.097 189.776C232.045 191.856 232.028 193.953 232.028 196.033C232.011 198.697 232.062 201.379 232.011 204.043C231.89 209.75 230.979 215.337 229.381 220.803C227.352 227.748 223.691 233.747 218.5 238.801C217.056 240.193 215.509 241.448 213.618 242.239C213.257 242.394 212.896 242.669 212.414 242.29C216.213 239.282 218.895 235.346 221.439 231.323C223.571 227.92 225.255 224.293 226.321 220.391C227.954 214.409 228.951 208.341 229.02 202.118C229.054 199.368 229.037 196.617 229.089 193.85C229.157 190.429 229.398 187.025 230.395 183.708C230.464 183.467 230.378 183.175 230.343 182.642C228.882 183.897 227.937 185.152 227.163 186.527C224.361 191.495 222.264 196.737 221.439 202.427C220.872 206.381 220.253 210.352 219.497 214.271C218.259 220.717 215.973 226.785 212.243 232.234C211.727 232.991 211.263 233.782 210.747 234.555C208.272 238.32 205.762 242.067 203.287 245.832C202.805 246.571 202.186 247.258 202.049 248.29C203.39 248.84 204.61 248.702 205.831 248.496C211.71 247.482 211.71 247.482 217.176 244.886C217.331 244.817 217.485 244.749 217.623 244.663C218.551 244.095 219.531 243.614 220.373 242.944C223.949 240.056 227.318 236.927 230.292 233.421C233.764 229.312 236.068 224.637 236.635 219.239C237.013 215.595 237.305 211.933 237.426 208.272C237.529 204.765 237.305 201.241 236.308 197.855C235.191 194.211 233.953 190.584 232.75 186.802ZM75.8242 451.731C76.3055 451.628 76.7009 451.611 77.0618 451.473C85.7427 448.362 93.8735 444.357 100.973 438.22C109.929 430.467 117.166 421.443 122.701 411.008C122.907 410.613 123.371 410.218 123.079 409.65C122.941 409.65 122.752 409.599 122.649 409.65C119.469 411.834 115.962 413.398 112.49 415.014C107.866 417.18 103.534 419.844 99.6493 423.179C96.5551 425.843 93.5297 428.594 90.5558 431.396C87.943 433.854 85.5536 436.535 83.7315 439.664C83.6627 439.784 83.4908 439.836 83.147 440.059C83.3017 439.423 83.3533 438.942 83.5252 438.495C84.4878 435.968 86.0177 433.785 87.7195 431.705C94.8361 423.007 103.139 415.804 113.556 411.232C115.842 410.235 118.042 409.014 120.208 407.76C122.391 406.505 124.282 404.872 125.881 402.895C126.053 402.689 126.139 402.396 126.328 402.035C123.199 402.981 120.26 403.875 117.338 404.734C115.412 405.301 113.47 405.766 111.562 406.367C100.749 409.736 92.378 416.2 86.6022 425.998C84.8145 429.023 83.2674 432.152 81.9609 435.401C79.9154 440.506 77.9213 445.629 75.9101 450.751C75.7898 451.044 75.8414 451.301 75.8242 451.731ZM102.898 264.104C102.64 264.19 102.537 264.19 102.503 264.242C102.348 264.431 102.176 264.62 102.056 264.826C100.096 268.436 98.5663 272.218 97.6896 276.24C96.7957 280.332 96.4348 284.474 96.0394 288.634C95.5409 294.049 95.2143 299.464 95.4893 304.896C95.9019 313.439 95.283 321.914 93.8735 330.337C93.6328 331.781 93.3062 333.259 93.3922 334.909C93.9594 334.823 94.3892 334.858 94.733 334.686C95.8503 334.136 96.9848 333.586 98.0162 332.881C100.32 331.317 102.176 329.271 103.758 327.002C107.935 321.054 110.943 314.642 112.043 307.354C113.401 298.329 113.35 289.408 110.909 280.555C109.276 274.607 107.608 268.642 106.852 262.489C106.8 262.059 106.663 261.646 106.456 260.718C106.027 262.798 105.838 264.362 105.906 265.944C106.078 269.691 106.147 273.456 106.542 277.186C107.763 288.617 106.233 299.67 102.279 310.414C101.678 312.047 100.904 313.628 100.131 315.21C99.7868 315.914 99.3742 316.654 98.4288 316.997C99.4602 312.511 100.44 308.127 101.489 303.761C103.328 296.163 104.222 288.497 103.689 280.675C103.551 278.595 103.345 276.515 103.242 274.435C103.087 271.049 103.018 267.628 102.898 264.104ZM42.751 347.269C43.3011 346.942 43.5933 346.822 43.8168 346.615C45.3123 345.24 46.4124 343.59 47.2547 341.734C48.9049 338.072 50.2629 334.308 51.1224 330.388C51.5694 328.36 51.9303 326.297 52.1022 324.217C52.4117 320.47 52.5148 316.722 52.7555 312.975C53.0305 308.557 53.3399 304.157 53.6665 299.739C53.804 297.917 54.0447 296.095 54.1994 294.255C54.6979 288.686 55.0245 283.099 56.0731 277.598C56.2106 276.842 56.4169 276.068 56.2622 274.917C55.3683 276.189 55.0417 277.306 54.6291 278.372C51.8616 285.54 49.6269 292.88 47.6501 300.289C45.8967 306.821 44.3496 313.388 43.9543 320.177C43.9027 321.071 43.6964 321.948 43.5761 322.842C43.1292 319.524 43.0088 316.224 43.3354 312.941C43.8167 308.213 44.5387 303.503 45.6045 298.862C48.1658 287.706 51.2256 276.722 56.9154 266.648C57.0529 266.408 57.0357 266.081 57.1217 265.651C56.7951 265.841 56.6232 265.909 56.52 266.03C51.7756 271.101 47.4438 276.464 43.9543 282.515C39.674 289.941 37.7487 297.951 37.6628 306.443C37.594 313.731 38.5395 320.917 39.9147 328.068C41.118 334.308 42.4072 340.513 42.751 347.269ZM2.68154 257.297C3.2488 257.658 3.64417 257.968 4.07392 258.191C5.86166 259.119 7.76972 259.738 9.72936 260.134C12.2563 260.649 14.7832 261.199 17.3444 261.577C20.1464 262.007 22.9655 262.454 25.7846 262.54C32.8497 262.781 39.5021 261.113 45.7592 257.83C50.7271 255.217 55.2824 251.986 59.6486 248.479C59.8377 248.324 59.9408 248.049 60.1643 247.74C57.4655 248.049 55.0073 248.41 52.5148 248.616C46.2061 249.149 39.8803 249.613 33.5716 250.146C31.337 250.335 29.1023 250.713 26.9536 251.435C26.3519 251.642 25.7159 251.779 24.5298 252.089C25.2861 251.487 25.5612 251.212 25.8878 251.006C27.7443 249.837 29.7727 249.115 31.887 248.582C37.4909 247.155 43.2323 246.708 48.9393 246.055C52.9961 245.591 57.0529 245.075 61.0925 244.456C62.4677 244.25 63.8773 244.061 65.39 243.133C64.032 242.806 62.9146 242.583 61.7973 242.273C58.9954 241.465 56.2106 240.606 53.4087 239.815C45.5014 237.58 37.7487 237.976 30.168 241.19C27.1598 242.462 24.3235 244.044 21.5731 245.763C15.7802 249.39 10.0216 253.086 3.98797 256.317C3.54103 256.575 3.18005 256.919 2.68154 257.297ZM545.433 421.563C546.344 420.961 546.842 420.704 547.272 420.36C551.758 416.578 555.265 412.109 557.19 406.488C558.394 402.981 559.167 399.423 559.253 395.71C559.442 387.94 558.067 380.428 555.437 373.122C553.632 368.086 551.449 363.221 549.111 358.408C548.939 358.047 548.647 357.737 548.2 357.101C548.286 357.772 548.286 358.012 548.355 358.253C549.558 363.633 550.658 369.014 551.294 374.497C552.257 382.783 551.844 391 550.452 399.182C550.108 401.227 549.61 403.273 548.664 405.164C548.458 405.576 548.166 405.937 547.753 406.556C547.736 405.989 547.684 405.748 547.719 405.508C548.166 401.606 548.785 397.721 549.025 393.819C549.575 384.949 548.991 376.13 547.306 367.398C546.206 361.657 545.003 355.95 543.868 350.225C543.576 348.764 543.335 347.303 543.009 345.498C542.665 346.1 542.476 346.358 542.356 346.65C540.293 351.944 539.416 357.462 539.829 363.1C540.155 367.415 540.757 371.73 541.41 376.01C542.287 381.786 543.421 387.51 544.298 393.286C545.295 399.904 545.828 406.556 545.622 413.243C545.553 415.254 545.501 417.248 545.433 419.26C545.415 419.861 545.433 420.429 545.433 421.563ZM78.9527 159.762C81.875 159.522 84.6425 160.123 87.2898 161.172C93.1687 163.458 98.5319 166.638 103.5 170.489C105.339 171.915 107.144 173.411 108.966 174.889C111.562 176.986 114.226 179.015 117.131 180.682C117.853 181.095 118.627 181.387 119.4 181.679C119.727 181.8 120.174 182.04 120.449 181.542C120.397 181.37 120.363 181.198 120.277 181.06C117.492 177.107 114.536 173.273 111.218 169.732C108.124 166.415 104.737 163.458 100.956 160.965C94.6814 156.84 87.8399 154.382 80.2763 154.382C75.3601 154.382 70.4266 154.588 65.5103 154.726C65.0634 154.743 64.6164 154.897 64.1351 155.001C65.5962 158.232 68.656 162.22 71.5095 164.541C73.5207 166.174 75.6007 167.721 77.6635 169.268C82.7517 173.067 88.3727 175.732 94.5954 177.021C99.8212 178.104 105.081 178.98 110.324 179.943C110.513 179.977 110.737 179.857 110.943 179.806C110.84 179.582 110.805 179.393 110.685 179.307C107.333 176.557 103.981 173.789 100.612 171.056C96.1769 167.463 91.3466 164.507 86.1037 162.255C84.3503 161.498 82.4938 161.017 80.6717 160.398C80.1216 160.175 79.5372 159.968 78.9527 159.762ZM485.182 298.639C484.77 298.897 484.357 299.154 483.962 299.447C482.208 300.719 480.472 302.008 478.702 303.263C476.037 305.154 473.184 306.701 470.176 307.956C464.09 310.517 457.713 310.775 451.25 310.259C450.528 310.207 449.823 309.864 449.101 309.64C448.757 309.537 448.43 309.09 448.018 309.64C449.41 312.975 451.301 316.138 452.092 319.456C455.908 321.123 459.587 322.498 463.059 324.286C466.514 326.074 469.78 328.257 473.287 330.354C475.642 319.129 480.214 308.901 485.182 298.639ZM54.7667 212.294C55.0417 211.985 55.2136 211.744 55.4371 211.555C60.0955 207.516 64.7883 203.51 69.4296 199.453C72.1284 197.098 74.8959 194.829 77.9557 192.904C78.2479 192.732 78.4714 192.457 78.8324 192.113C78.437 192.062 78.2479 191.993 78.1104 192.027C73.6239 193.575 69.1373 195.122 64.9946 197.494C59.872 200.433 55.4714 204.215 51.5178 208.547C47.5813 212.862 43.6105 217.125 39.6568 221.422C39.5021 221.577 39.4677 221.835 39.3474 222.11C40.7226 222.935 42.2009 223.193 43.6792 223.107C45.5014 223.004 47.3235 222.78 49.1284 222.488C56.7435 221.233 63.0865 217.692 68.1403 211.847C68.8967 210.971 69.6702 210.077 70.3922 209.166C71.3892 207.928 72.3346 206.656 73.3145 205.418C76.2024 201.74 79.3137 198.25 82.8204 195.156C83.0611 194.95 83.233 194.675 83.4393 194.417C83.3189 193.953 83.233 193.575 83.0955 193.024C82.236 193.471 81.4968 193.815 80.8092 194.228C77.7666 195.981 74.9475 198.044 72.1971 200.227C69.653 202.255 67.1605 204.353 64.5649 206.312C62.227 208.066 59.8033 209.681 57.3623 211.28C56.6575 211.779 55.9012 212.329 54.7667 212.294ZM509.334 380.617C509.351 380.548 509.403 380.479 509.403 380.411C509.403 380.376 509.3 380.359 509.248 380.325C509.214 380.393 509.179 380.462 509.162 380.531C509.162 380.565 509.265 380.6 509.334 380.617Z" fill="#FFFCF0"/>
</g>
<defs>
<clipPath id="clip0_578_8128">
<rect width="784.216" height="727.112" fill="white"/>
</clipPath>
</defs>
</svg>
