<svg width="359" height="925" viewBox="0 0 359 925" fill="none" xmlns="http://www.w3.org/2000/svg">
<g clip-path="url(#clip0_44_181)">
<path d="M175.154 470.078C168.951 506.819 188.064 542.264 211.486 569.118C237.671 599.143 270.797 623.008 292.786 656.638C303.176 672.536 310.995 690.563 312.567 709.65C314.027 727.347 309.396 744.705 301.769 760.56C293.906 776.893 283.107 791.888 271.249 805.536C259.017 819.619 245.134 832.268 229.913 843.058C214.796 853.779 198.342 862.579 180.914 868.93C164.13 875.046 145.773 879.59 127.798 879.303C119.206 879.164 110.57 877.765 102.69 874.221C94.5847 870.581 87.7996 864.656 82.1961 857.836C71.1106 844.344 63.3959 827.759 57.5404 811.418C45.8816 778.891 42.6845 743.384 47.984 709.233C50.625 692.188 55.4033 675.507 62.3273 659.713C68.7823 644.97 76.8966 631.026 84.8719 617.074C100.075 590.472 116.399 562.011 116.929 530.51C117.068 522.265 115.713 514.273 114.879 506.106C114.045 497.94 114.419 489.617 119.996 483.093C125.513 476.638 133.94 473.171 141.524 469.835C148.805 466.638 158.118 462.711 166.024 466.099C171.41 468.41 176.449 474.726 173.73 480.721C172.261 483.953 177.352 486.055 178.821 482.832C182.018 475.795 178.325 468.011 172.548 463.597C165.311 458.072 155.955 458.845 147.745 461.495C143.349 462.911 139.118 464.848 134.922 466.777C130.821 468.662 126.764 470.704 123.02 473.232C115.557 478.28 110.405 485.534 109.302 494.595C108.259 503.17 110.24 511.71 111.065 520.206C111.821 527.99 111.482 535.818 110.249 543.533C107.747 559.136 101.648 573.896 94.5847 587.944C79.5637 617.812 59.9469 645.318 49.7997 677.471C39.0791 711.457 37.1678 748.145 44.0745 783.096C47.5322 800.567 53.1271 817.638 60.9199 833.667C68.8605 849.991 79.0338 867.01 95.0886 876.48C110.796 885.741 129.726 886.053 147.284 883.343C166.197 880.415 184.667 874.421 201.878 866.08C236.568 849.27 266.514 823.129 289.093 791.992C299.727 777.327 309.101 761.29 314.235 743.827C319.622 725.47 319.526 706.566 313.992 688.244C302.073 648.801 270.675 620.332 241.963 592.662C214.675 566.364 186.474 536.27 180.506 497.236C179.168 488.47 179.159 479.609 180.636 470.852C181.21 467.324 175.745 466.586 175.154 470.078Z" fill="#FFC223"/>
<path d="M155.842 458.402C155.546 473.996 155.59 489.6 156.015 505.194C156.432 520.693 157.214 536.192 158.352 551.656C159.482 567.05 160.976 582.419 162.818 597.735C163.747 605.467 164.773 613.191 165.885 620.905C166.997 628.585 168.065 636.3 169.681 643.893C172.67 657.993 178.082 672.406 190.062 681.267C199.471 688.226 212.963 691.658 223.684 685.533C233.475 679.938 238.531 668.053 237.141 657.029C236.437 651.469 234.022 646.282 230.017 642.346C225.873 638.272 220.495 635.77 214.814 634.701C202.46 632.382 190.01 636.917 180.532 644.788C175.007 649.375 170.341 654.935 166.215 660.782C164.208 663.631 162.314 666.55 160.49 669.522C158.761 672.328 157.075 675.212 155.859 678.287C153.539 684.16 152.914 691.275 157.24 696.41C161.054 700.936 168.048 703.586 173.269 699.772C178.464 695.984 178.134 688.782 177.37 683.109C176.623 677.592 175.354 672.093 173.426 666.872C169.829 657.185 163.087 647.437 152.175 645.674C145.017 644.518 138.101 647.324 131.977 650.765C125.304 654.509 118.997 658.853 113.185 663.831C108.016 668.262 102.908 673.049 100.319 679.504C98.0251 685.229 98.3987 692.335 104.254 695.767C109.458 698.825 115.878 697.07 120.526 693.769C125.417 690.294 128.762 684.621 130.726 679.052C132.785 673.205 133.645 667.019 134.096 660.869C134.626 653.562 134.8 646.221 135.104 638.897C135.773 622.747 136.407 606.588 137.007 590.437C137.606 574.278 138.171 558.128 138.692 541.969C139.222 525.81 139.717 509.651 140.169 493.492C140.395 485.681 140.603 477.871 140.812 470.052C140.847 468.567 140.039 467.168 138.458 466.951C137.111 466.768 135.391 467.811 135.356 469.305C134.548 499.938 133.619 530.571 132.567 561.203C131.516 591.68 130.343 622.148 129.04 652.615C128.58 663.466 128.189 675.759 121.647 684.786C120.127 686.888 118.467 688.634 116.252 690.016C115.713 690.355 114.358 690.997 113.368 691.336C112.629 691.588 112.716 691.562 112.09 691.675C111.439 691.797 110.77 691.884 110.101 691.884C110.605 691.884 109.701 691.849 109.701 691.849C109.423 691.823 109.154 691.788 108.876 691.745C108.867 691.745 108.007 691.527 108.485 691.675C108.224 691.597 107.964 691.501 107.712 691.388C107.156 691.154 107.225 691.215 106.635 690.763C106.053 690.329 105.835 690.103 105.401 689.512C104.88 688.799 104.593 688.009 104.471 687.053C104.332 685.959 104.445 684.777 104.767 683.465C106.122 678.061 110.405 673.674 114.453 670.025C119.788 665.221 125.582 660.921 131.733 657.211C137.033 654.014 143.288 650.478 149.699 650.93C150.829 651.008 151.958 651.182 153.053 651.468C152.566 651.338 153.426 651.59 153.426 651.59C153.687 651.677 153.939 651.764 154.2 651.859C154.79 652.077 155.364 652.329 155.929 652.607C156.172 652.728 156.406 652.85 156.641 652.98C157.405 653.397 156.215 652.702 156.954 653.171C157.405 653.458 157.857 653.753 158.292 654.075C158.726 654.396 159.152 654.735 159.56 655.083C159.768 655.256 159.968 655.439 160.168 655.621C160.298 655.743 160.437 655.873 160.568 655.995C160.385 655.812 160.411 655.838 160.646 656.073C167.361 662.971 170.228 672.944 171.662 682.318C172.035 684.786 172.426 687.479 172.27 689.79C172.114 692.205 171.566 694.229 169.733 695.515C169.038 696.002 170.15 695.367 169.386 695.706C169.134 695.819 168.873 695.923 168.613 696.01C169.142 695.845 168.3 696.062 168.256 696.062C167.987 696.106 167.709 696.132 167.431 696.132C167.944 696.123 167.04 696.088 167.031 696.088C166.745 696.054 166.467 696.01 166.189 695.958C165.329 695.776 166.597 696.123 165.754 695.836C165.381 695.715 165.016 695.567 164.66 695.402C162.818 694.551 161.028 692.761 160.229 690.954C159.734 689.833 159.595 688.991 159.517 687.557C159.447 686.332 159.621 685.029 159.881 683.778C160.463 680.981 161.758 678.322 163.122 675.829C166.197 670.208 169.898 664.787 173.834 659.748C177.865 654.596 182.435 649.861 187.856 646.16C192.417 643.041 197.499 640.93 202.729 640.088C207.612 639.306 212.737 639.479 217.29 640.991C222.024 642.564 226.038 645.274 228.775 649.47C229.296 650.27 229.696 651.034 230.191 652.198C230.669 653.319 231.068 654.605 231.242 655.387C231.781 657.776 231.937 660.191 231.781 662.328C231.416 667.15 229.852 671.607 227.02 675.377C224.266 679.043 220.478 681.658 216.03 682.64C210.887 683.778 205.744 683.092 200.896 681.12C195.961 679.121 191.426 675.864 187.908 671.945C183.364 666.88 180.324 660.686 178.126 654.292C175.789 647.498 174.459 640.409 173.321 633.329C172.148 626.066 171.106 618.777 170.116 611.488C168.143 596.919 166.501 582.315 165.172 567.667C162.54 538.537 161.176 509.286 161.106 480.034C161.089 473.067 161.15 466.108 161.289 459.141C161.315 457.655 160.524 456.256 158.934 456.039C157.614 455.865 155.876 456.908 155.842 458.402Z" fill="#FFC223"/>
<path d="M177.179 472.042C178.308 471.799 179.333 471.408 180.263 470.678C181.053 470.052 181.67 469.279 182.165 468.41C183.147 466.69 183.538 464.675 183.321 462.703C182.86 458.498 179.455 455.509 175.849 453.78C174.112 452.946 172.253 452.416 170.393 451.938C168.752 451.513 167.075 451.209 165.398 451C161.801 450.566 158.135 450.575 154.53 450.905C147.354 451.548 140.343 453.441 133.48 455.535C130.065 456.578 126.616 457.594 123.289 458.897C119.571 460.348 116.043 462.346 113.385 465.37C111.057 468.028 110.023 471.451 110.084 474.943C110.136 478.149 111.526 481.468 114.115 483.449C114.784 483.961 115.548 484.387 116.33 484.691C117.677 485.221 119.414 484.613 119.927 483.197C120.431 481.815 119.866 480.156 118.432 479.6C118.224 479.513 118.007 479.426 117.807 479.322C117.703 479.27 117.373 479.079 117.816 479.339C118.276 479.6 117.894 479.374 117.79 479.313C117.442 479.079 117.121 478.818 116.817 478.523C116.99 478.688 117.155 478.862 117.329 479.027C116.895 478.592 116.521 478.106 116.208 477.576C116.33 477.793 116.452 478.002 116.582 478.219C116.191 477.541 115.904 476.82 115.696 476.064C115.757 476.299 115.826 476.542 115.887 476.777C115.652 475.882 115.548 474.961 115.548 474.031C115.548 474.266 115.548 474.509 115.539 474.744C115.548 474.057 115.609 473.371 115.731 472.685C115.765 472.511 115.8 472.337 115.835 472.163C115.852 472.085 115.87 472.007 115.887 471.929C115.974 471.564 115.8 472.268 115.791 472.268C115.739 472.233 116.095 471.364 116.13 471.26C116.252 470.947 116.391 470.643 116.539 470.348C116.651 470.13 117.008 469.609 116.495 470.391C116.582 470.261 116.66 470.122 116.738 469.992C117.207 469.279 117.772 468.628 118.372 468.019C118.207 468.193 118.033 468.358 117.868 468.532C118.98 467.42 120.248 466.49 121.603 465.691C121.386 465.813 121.178 465.943 120.961 466.065C123.523 464.579 126.321 463.563 129.127 462.65C131.811 461.773 134.496 460.922 137.198 460.122C138.753 459.662 140.317 459.219 141.889 458.802C141.655 458.863 141.411 458.932 141.177 458.993C146.051 457.707 151.02 456.673 156.05 456.3C157.458 456.195 158.865 456.143 160.272 456.152C160.038 456.152 159.795 456.152 159.56 456.143C162.045 456.161 164.538 456.369 166.979 456.812C167.579 456.925 168.169 457.047 168.76 457.177C169.073 457.247 169.377 457.325 169.681 457.403C169.742 457.42 169.837 457.429 169.89 457.455C169.924 457.473 169.281 457.29 169.559 457.368C169.725 457.412 169.89 457.464 170.055 457.507C171.254 457.855 172.435 458.263 173.565 458.793C173.895 458.949 174.225 459.115 174.546 459.288C174.624 459.332 174.868 459.471 174.494 459.253C174.103 459.028 174.416 459.21 174.503 459.262C174.65 459.349 174.789 459.445 174.928 459.532C175.528 459.931 176.084 460.374 176.605 460.878C176.431 460.713 176.266 460.548 176.093 460.374C176.631 460.913 177.1 461.504 177.5 462.155C177.378 461.938 177.248 461.73 177.126 461.512C177.413 462.008 177.648 462.52 177.804 463.076C177.743 462.842 177.674 462.598 177.613 462.364C177.761 462.937 177.839 463.528 177.839 464.119C177.839 463.884 177.839 463.641 177.848 463.406C177.839 463.788 177.813 464.171 177.752 464.544C177.726 464.683 177.57 465.326 177.709 464.822C177.848 464.31 177.656 464.961 177.613 465.083C177.552 465.239 177.491 465.387 177.422 465.543C177.378 465.639 177.326 465.726 177.283 465.821C177.153 466.099 177.63 465.283 177.457 465.526C177.231 465.839 177.031 466.143 176.762 466.421C176.927 466.247 177.092 466.082 177.265 465.908C176.987 466.186 176.683 466.43 176.336 466.638C176.553 466.516 176.762 466.386 176.979 466.264C176.657 466.447 176.336 466.577 175.98 466.682C176.214 466.621 176.457 466.551 176.692 466.49C176.614 466.508 176.527 466.534 176.449 466.551C175.71 466.716 175.067 467.003 174.59 467.62C174.19 468.15 173.938 468.958 174.051 469.627C174.338 471.008 175.676 472.372 177.179 472.042Z" fill="#FFC223"/>
<path d="M179.82 456.916C181.427 456.109 182.574 454.936 183.399 453.346C184.12 451.947 184.303 450.349 184.259 448.802C184.172 445.614 182.339 442.738 179.811 440.905C177.179 438.994 173.964 438.09 170.793 437.578C167.535 437.048 164.225 436.909 160.941 437.03C154.478 437.256 148.118 438.681 141.95 440.558C138.918 441.478 135.921 442.538 132.958 443.659C130.387 444.632 127.711 445.544 125.304 446.891C122.924 448.22 120.674 449.81 118.98 451.973C117.425 453.954 116.365 456.638 116.973 459.175C117.147 459.896 117.338 460.565 117.703 461.208C118.076 461.868 118.467 462.398 119.197 462.702C119.823 462.963 120.683 462.989 121.308 462.702C121.951 462.398 122.55 461.903 122.802 461.208C123.037 460.565 123.15 459.723 122.802 459.097C122.585 458.706 122.411 458.298 122.29 457.872C122.351 458.107 122.42 458.35 122.481 458.585C122.368 458.15 122.307 457.716 122.316 457.273C122.316 457.507 122.316 457.751 122.307 457.985C122.316 457.768 122.325 457.551 122.359 457.334C122.403 457.047 122.672 456.291 122.333 457.281C122.472 456.864 122.637 456.465 122.828 456.065C123.063 455.587 122.464 456.656 122.698 456.282C122.75 456.195 122.802 456.109 122.863 456.022C122.994 455.813 123.141 455.622 123.289 455.422C123.593 455.014 123.932 454.64 124.288 454.275C124.123 454.449 123.949 454.614 123.784 454.788C124.957 453.606 126.321 452.625 127.763 451.782C127.546 451.904 127.337 452.025 127.12 452.156C129.353 450.87 131.803 450.01 134.201 449.089C136.963 448.029 139.752 447.021 142.576 446.118C144.191 445.596 145.825 445.119 147.467 444.684C147.232 444.745 146.989 444.815 146.754 444.875C152.288 443.407 157.979 442.451 163.713 442.478C163.478 442.478 163.235 442.478 163 442.469C165.867 442.486 168.76 442.73 171.566 443.32C171.896 443.39 172.227 443.468 172.548 443.546C173.174 443.703 172.001 443.381 172.496 443.529C172.661 443.572 172.817 443.624 172.982 443.676C173.617 443.876 174.251 444.102 174.859 444.371C175.163 444.502 175.458 444.649 175.754 444.806C176.31 445.101 175.259 444.493 175.693 444.762C175.832 444.849 175.971 444.936 176.11 445.023C176.675 445.397 177.196 445.814 177.682 446.291C177.509 446.126 177.344 445.953 177.17 445.788C177.656 446.283 178.1 446.813 178.447 447.421C178.325 447.204 178.204 446.995 178.073 446.778C178.377 447.325 178.612 447.907 178.768 448.515C178.708 448.281 178.638 448.038 178.577 447.803C178.742 448.455 178.821 449.115 178.812 449.784C178.812 449.549 178.812 449.306 178.821 449.072C178.812 449.419 178.786 449.767 178.734 450.114C178.725 450.192 178.586 450.618 178.621 450.67C178.612 450.653 178.829 449.984 178.716 450.314C178.682 450.401 178.656 450.496 178.629 450.583C178.569 450.74 178.508 450.896 178.438 451.044C178.404 451.113 178.369 451.174 178.343 451.243C178.169 451.617 178.682 450.713 178.499 450.965C178.299 451.252 178.108 451.53 177.865 451.791C178.03 451.617 178.204 451.452 178.369 451.278C178.082 451.574 177.761 451.825 177.413 452.034C177.63 451.912 177.839 451.791 178.056 451.66C177.952 451.721 177.856 451.773 177.752 451.825C177.092 452.156 176.553 452.616 176.258 453.32C175.997 453.945 175.971 454.805 176.258 455.431C176.814 456.699 178.438 457.611 179.82 456.916Z" fill="#FFC223"/>
<path d="M174.425 433.729C173.999 435.302 173.573 436.874 173.139 438.455C172.948 439.159 172.809 439.863 173.139 440.566C173.399 441.131 173.782 441.574 174.32 441.878C175.45 442.521 177.1 442.321 177.874 441.174C181.027 436.483 181.757 430.463 179.707 425.18C179.29 424.112 177.978 423.287 176.822 423.504C168.456 425.067 160.099 426.64 151.732 428.204C147.571 428.986 143.401 429.759 139.239 430.549C135.226 431.314 130.63 432.426 128.102 435.962C125.626 439.42 125.409 444.867 129.127 447.577C130.291 448.429 132.133 448.29 132.984 447.047C133.818 445.84 133.697 444.094 132.454 443.19C132.263 443.051 132.081 442.895 131.916 442.73C132.089 442.895 132.255 443.068 132.428 443.233C132.185 442.981 131.985 442.712 131.803 442.417C131.924 442.634 132.046 442.843 132.176 443.06C131.985 442.721 131.846 442.373 131.742 442.008C131.803 442.243 131.872 442.486 131.933 442.721C131.803 442.226 131.742 441.722 131.742 441.209C131.742 441.444 131.742 441.687 131.733 441.922C131.742 441.513 131.777 441.114 131.864 440.714C131.881 440.61 131.907 440.514 131.933 440.41C131.994 440.132 131.707 441.122 131.864 440.671C131.933 440.479 131.994 440.28 132.072 440.089C132.15 439.897 132.237 439.706 132.333 439.524C132.367 439.454 132.411 439.376 132.446 439.307C132.063 440.054 132.202 439.724 132.315 439.55C132.55 439.185 132.819 438.855 133.115 438.551C132.95 438.725 132.784 438.89 132.611 439.063C133.175 438.499 133.81 438.03 134.496 437.621C134.279 437.743 134.07 437.873 133.853 437.995C135.035 437.317 136.32 436.857 137.632 436.501C137.398 436.561 137.154 436.631 136.92 436.692C139.431 436.031 142.011 435.64 144.556 435.163C147.232 434.659 149.908 434.155 152.584 433.66C157.875 432.669 163.174 431.679 168.465 430.68C171.471 430.115 174.485 429.55 177.491 428.986C176.527 428.43 175.571 427.865 174.607 427.309C174.789 427.787 174.955 428.273 175.085 428.777C175.024 428.543 174.955 428.299 174.894 428.065C175.215 429.29 175.372 430.541 175.372 431.809C175.372 431.575 175.372 431.331 175.38 431.097C175.372 431.8 175.328 432.495 175.224 433.191C175.18 433.512 175.12 433.833 175.05 434.155C175.015 434.337 174.963 434.52 174.92 434.702C174.798 435.197 175.12 434.025 174.937 434.633C174.746 435.284 174.503 435.918 174.216 436.535C174.077 436.831 173.929 437.117 173.773 437.413C173.547 437.83 174.147 436.796 173.773 437.404C173.677 437.56 173.573 437.717 173.469 437.873C175.05 438.777 176.631 439.689 178.212 440.592C178.638 439.02 179.064 437.447 179.498 435.866C179.698 435.128 179.802 434.494 179.498 433.755C179.238 433.13 178.655 432.504 178.004 432.261C177.335 432.018 176.562 431.948 175.893 432.261C175.311 432.53 174.616 433.043 174.425 433.729Z" fill="#FFC223"/>
<path d="M173.13 428.143C174.372 424.859 172.791 420.993 169.811 419.221C168.3 418.317 166.658 417.778 164.894 417.587C163.261 417.405 161.584 417.457 159.951 417.535C156.658 417.7 153.374 418.187 150.177 418.995C148.457 419.429 146.72 419.89 145.069 420.55C143.47 421.193 141.846 422.053 140.603 423.26C139.083 424.737 138.049 426.458 137.624 428.551C137.207 430.593 137.684 432.669 138.84 434.372C139.37 435.154 140.456 435.527 141.351 435.415C142.41 435.284 143.062 434.624 143.557 433.738C145.078 430.984 146.589 428.238 148.11 425.484C146.355 425.007 144.591 424.529 142.836 424.06C142.758 425.945 142.671 427.821 142.593 429.707C142.541 430.897 143.053 432.183 144.27 432.626C145.442 433.051 146.728 432.73 147.519 431.748C149.065 429.837 150.29 427.622 151.089 425.293C149.335 424.816 147.571 424.338 145.816 423.869C145.694 425.745 145.581 427.613 145.46 429.49C145.382 430.68 145.938 431.974 147.137 432.409C148.301 432.834 149.613 432.53 150.386 431.531C151.211 430.471 152.028 429.411 152.853 428.36C151.211 427.917 149.569 427.474 147.918 427.031C147.918 428.143 147.918 429.255 147.918 430.367C147.979 430.602 148.049 430.845 148.11 431.079C148.24 431.436 148.448 431.731 148.735 431.965C149.143 432.365 149.691 432.695 150.281 432.747C151.524 432.86 152.697 432.226 153.201 431.071C154.191 428.803 155.173 426.544 156.163 424.277C154.399 424.042 152.645 423.799 150.881 423.564C150.942 425.154 151.003 426.744 151.072 428.343C151.089 428.786 151.367 429.35 151.637 429.698C152.01 430.176 152.523 430.489 153.096 430.645C154.087 430.914 155.416 430.593 156.007 429.672C157.214 427.787 158.031 425.832 158.57 423.66C156.745 423.408 154.929 423.165 153.105 422.913C152.905 424.85 152.705 426.796 152.506 428.734C152.367 430.106 153.174 431.383 154.521 431.748C155.885 432.122 157.18 431.418 157.779 430.167C158.726 428.195 159.065 425.988 158.891 423.816C158.821 422.948 158.248 422.209 157.518 421.784C156.841 421.393 155.833 421.193 155.103 421.61C154.53 421.931 154.113 422.131 153.713 422.678C153.374 423.13 153.114 423.669 153.044 424.233C152.949 424.946 153.035 425.684 153.366 426.327C154.052 427.682 155.355 428.725 156.91 428.873C158.821 429.055 160.524 427.769 161.202 426.014C161.714 424.677 161.697 423.217 161.523 421.818C161.341 420.394 159.916 419.177 158.448 419.42C156.945 419.681 155.902 420.958 156.05 422.496C156.154 423.591 156.267 424.694 156.372 425.789C156.484 426.953 157.553 428.065 158.735 428.178C159.925 428.291 161.219 427.674 161.654 426.501C162.01 425.537 162.366 424.581 162.722 423.617C163.131 422.505 162.87 421.08 161.845 420.367C160.889 419.707 159.412 419.559 158.483 420.385C157.527 421.236 156.997 422.383 157.153 423.686C157.31 424.955 158.153 426.127 159.343 426.605C160.542 427.092 161.94 426.857 162.939 426.049C163.904 425.276 164.547 423.903 164.277 422.661C164.121 421.923 163.826 421.28 163.209 420.802C162.679 420.402 161.871 420.15 161.202 420.263C159.638 420.533 158.735 421.792 158.804 423.339C158.848 424.268 158.9 425.198 158.943 426.136C158.987 426.996 159.603 427.761 160.316 428.169C161.106 428.621 161.88 428.621 162.731 428.343C164.503 427.761 166.276 427.17 168.048 426.588C166.971 426.301 165.893 426.023 164.816 425.736C165.546 426.631 166.276 427.517 167.005 428.412C167.917 429.524 169.725 429.872 170.871 428.89C171.983 427.943 172.331 426.214 171.349 425.024C170.619 424.129 169.89 423.243 169.16 422.348C168.343 421.349 167.118 421.106 165.928 421.497C164.156 422.079 162.383 422.67 160.611 423.252C161.871 423.99 163.139 424.72 164.399 425.458C164.356 424.529 164.303 423.599 164.26 422.661C162.436 422.887 160.611 423.113 158.787 423.339C158.804 423.408 158.813 423.469 158.813 423.538C158.813 423.304 158.813 423.061 158.821 422.826C158.821 422.861 158.813 422.896 158.813 422.93C158.839 422.67 158.926 422.435 159.073 422.227C159.325 421.801 159.16 422.07 159.065 422.166C159.23 421.992 159.395 421.827 159.569 421.653C159.517 421.705 159.464 421.749 159.404 421.784C159.621 421.662 159.829 421.54 160.046 421.41C159.951 421.462 159.873 421.497 159.768 421.532C160.003 421.471 160.246 421.401 160.481 421.34C160.411 421.358 160.351 421.367 160.281 421.367C160.516 421.367 160.759 421.367 160.993 421.375C160.724 421.349 160.854 421.384 161.384 421.488C161.836 421.784 161.966 421.844 161.767 421.662C161.94 421.827 162.105 421.992 162.279 422.166C162.236 422.114 162.201 422.07 162.166 422.009C162.288 422.227 162.418 422.435 162.54 422.652C162.496 422.557 162.462 422.479 162.436 422.383C162.496 422.618 162.566 422.861 162.627 423.095C162.609 423.035 162.601 422.965 162.601 422.904C162.601 423.139 162.601 423.382 162.592 423.617C162.592 423.478 162.67 423.191 162.54 423.669C162.514 423.842 162.453 423.999 162.349 424.138C162.192 424.381 162.166 424.433 162.279 424.286C162.114 424.459 161.94 424.624 161.775 424.798C161.801 424.772 161.827 424.755 161.845 424.729C160.429 423.651 159.021 422.574 157.605 421.497C157.249 422.461 156.893 423.417 156.537 424.381C158.3 424.616 160.055 424.859 161.819 425.094C161.714 423.999 161.602 422.896 161.497 421.801C159.673 422.027 157.848 422.253 156.024 422.479C156.085 422.939 156.12 423.391 156.128 423.851C156.128 423.617 156.128 423.373 156.137 423.139C156.137 423.33 156.128 423.512 156.102 423.695C156.094 423.773 156.076 423.86 156.067 423.938C156.041 424.181 155.868 424.346 156.163 423.669C156.146 423.703 155.998 424.103 155.998 424.103C155.937 424.051 156.476 423.469 156.137 423.834C156.076 423.903 156.015 423.981 155.955 424.051C156.12 423.877 156.293 423.712 156.458 423.538C156.354 423.643 156.241 423.73 156.111 423.816C156.328 423.695 156.537 423.573 156.754 423.443C156.676 423.486 156.606 423.512 156.528 423.538C156.763 423.478 157.006 423.408 157.24 423.347C157.136 423.373 157.032 423.382 156.919 423.391C157.153 423.391 157.397 423.391 157.631 423.399C157.553 423.391 157.466 423.365 157.388 423.373C157.814 423.356 158.109 423.573 157.718 423.434C157.475 423.347 158.387 423.903 158.04 423.608C157.961 423.547 157.892 423.486 157.814 423.417C157.987 423.582 158.153 423.756 158.326 423.921C158.231 423.825 158.153 423.721 158.074 423.608C158.196 423.825 158.318 424.034 158.448 424.251C158.387 424.138 158.335 424.034 158.3 423.912C158.361 424.147 158.431 424.39 158.491 424.624C158.474 424.555 158.465 424.494 158.465 424.425C158.465 424.659 158.465 424.902 158.457 425.137C158.465 424.842 158.604 424.955 158.318 425.563C158.292 425.606 157.831 426.249 158.126 425.954C157.961 426.127 157.788 426.292 157.623 426.466C157.657 426.431 157.701 426.397 157.744 426.371C157.527 426.492 157.319 426.623 157.101 426.744C157.127 426.727 157.153 426.718 157.171 426.701C155.911 425.962 154.643 425.233 153.383 424.494C153.409 424.798 153.418 425.094 153.418 425.398C153.418 425.163 153.418 424.92 153.426 424.685C153.418 425.363 153.34 426.032 153.192 426.692C153.044 427.326 153.374 426.171 153.201 426.666C153.148 426.805 153.114 426.953 153.062 427.092C152.94 427.422 152.801 427.743 152.653 428.056C154.408 428.534 156.172 429.012 157.927 429.481C158.126 427.543 158.326 425.597 158.526 423.66C158.674 422.227 157.683 420.698 156.172 420.559C155.451 420.489 154.669 420.628 154.104 421.115C153.522 421.61 153.253 422.183 153.07 422.913C153.044 423.017 153.018 423.113 152.992 423.217C153.114 422.791 153.131 422.713 153.053 422.991C152.992 423.191 152.931 423.391 152.862 423.591C152.731 423.964 152.592 424.329 152.436 424.685C152.28 425.041 152.115 425.398 151.932 425.745C151.88 425.841 151.837 425.928 151.784 426.023C151.645 426.275 151.68 426.206 151.906 425.823C151.784 425.98 151.689 426.188 151.576 426.353C153.218 426.796 154.86 427.239 156.511 427.682C156.45 426.093 156.389 424.503 156.319 422.904C156.293 422.305 155.911 421.705 155.503 421.297C155.094 420.897 154.547 420.567 153.956 420.515C152.714 420.402 151.541 421.036 151.037 422.192C150.047 424.459 149.065 426.718 148.075 428.986C149.838 429.22 151.593 429.463 153.357 429.698C153.357 428.586 153.357 427.474 153.357 426.362C153.357 425.928 153.053 425.345 152.792 425.007C152.419 424.529 151.906 424.216 151.333 424.06C150.264 423.773 149.109 424.147 148.422 425.033C147.597 426.093 146.78 427.153 145.955 428.204C147.597 428.881 149.239 429.568 150.881 430.245C151.003 428.369 151.116 426.501 151.237 424.624C151.324 423.243 150.603 421.992 149.222 421.61C147.971 421.271 146.407 421.888 145.964 423.191C145.608 424.225 145.173 425.233 144.652 426.188C144.6 426.284 144.365 426.692 144.6 426.292C144.834 425.884 144.591 426.301 144.539 426.388C144.4 426.614 144.261 426.831 144.122 427.048C143.8 427.526 143.462 427.987 143.105 428.43C144.747 429.107 146.389 429.794 148.031 430.471C148.11 428.586 148.196 426.709 148.275 424.824C148.335 423.434 147.658 422.192 146.259 421.81C145.694 421.653 145.034 421.645 144.487 421.905C143.783 422.235 143.366 422.722 142.993 423.399C141.472 426.153 139.961 428.899 138.44 431.653C140.013 431.436 141.585 431.227 143.158 431.01C143.079 430.897 143.01 430.784 142.94 430.671C143.062 430.888 143.184 431.097 143.314 431.314C143.149 431.001 143.019 430.68 142.914 430.341C142.975 430.575 143.045 430.819 143.105 431.053C142.993 430.628 142.94 430.193 142.94 429.75C142.94 429.985 142.94 430.228 142.932 430.463C142.94 430.08 142.975 429.698 143.053 429.324C143.166 428.768 142.871 429.889 143.045 429.342C143.105 429.142 143.175 428.951 143.262 428.76C143.331 428.595 143.418 428.43 143.496 428.265C143.67 427.917 143.383 428.516 143.349 428.516C143.375 428.516 143.479 428.317 143.496 428.282C143.731 427.926 144 427.604 144.296 427.292C144.131 427.465 143.966 427.63 143.792 427.804C144.4 427.196 145.078 426.683 145.816 426.24C145.599 426.362 145.39 426.492 145.173 426.614C146.989 425.563 149.022 424.963 151.037 424.425C150.803 424.485 150.559 424.555 150.325 424.616C154.434 423.538 158.691 422.948 162.939 422.965C162.705 422.965 162.462 422.965 162.227 422.956C162.809 422.965 163.4 422.982 163.982 423.043C164.269 423.069 164.555 423.113 164.842 423.156C164.972 423.182 165.633 423.226 165.685 423.33C165.641 423.243 164.981 423.121 165.554 423.304C165.693 423.347 165.824 423.391 165.963 423.443C166.232 423.547 166.484 423.669 166.745 423.79C167.179 423.999 166.223 423.443 166.623 423.721C166.71 423.782 166.805 423.843 166.892 423.903C167.118 424.068 167.335 424.251 167.535 424.442C167.361 424.277 167.196 424.103 167.023 423.938C167.396 424.312 167.709 424.711 167.978 425.163C167.857 424.946 167.735 424.737 167.605 424.52C167.813 424.894 167.978 425.276 168.1 425.693C168.039 425.458 167.97 425.215 167.909 424.981C168.004 425.345 168.057 425.71 168.065 426.084C168.065 425.849 168.065 425.606 168.074 425.372C168.074 425.58 168.056 425.78 168.022 425.988C168.004 426.067 167.987 426.153 167.97 426.232C168.083 425.502 168.1 425.78 168.004 426.032C167.492 427.378 168.065 429.107 169.499 429.629C170.897 430.132 172.583 429.585 173.13 428.143Z" fill="#FFC223"/>
<path d="M157.327 419.394C158.874 405.173 160.385 390.864 159.916 376.538C159.49 363.402 157.692 349.172 151.663 337.313C149.195 332.457 145.547 327.948 140.438 325.75C135.999 323.838 130.673 324.438 126.634 327.079C122.733 329.624 120.248 334.012 121.404 338.72C122.437 342.934 126.286 345.731 130.404 346.548C134.774 347.417 139.561 346.574 143.105 343.785C147.606 340.25 149.943 334.672 151.176 329.234C152.636 322.787 153.044 316.08 153.704 309.521C154.46 302.085 155.181 294.63 156.224 287.229C159.716 262.39 167.57 234.877 189.029 219.499C191.574 217.675 194.841 215.555 198.125 216.328C200.114 216.798 201.487 218.509 202.164 220.359C203.919 225.164 201.209 229.76 196.5 231.349C183.903 235.598 174.068 221.776 168.161 212.827C160.872 201.777 155.572 189.475 152.566 176.582C149.552 163.672 150.142 149.546 143.748 137.609C138.657 128.105 128.684 120.781 117.538 123.813C112.933 125.064 108.641 128.053 106.582 132.449C104.35 137.218 105.105 142.77 107.938 147.131C114.801 157.695 128.467 157.747 138.353 151.544C149.534 144.525 155.034 131.537 160.585 120.138C172.617 95.4219 183.903 70.0191 200.444 47.8829C214.883 28.5614 234.352 11.577 257.592 4.01873C263.213 2.19432 269.007 0.94329 274.889 0.361215C277.643 0.0918965 277.678 -4.26063 274.889 -3.98263C251.45 -1.68039 230.417 10.3521 213.606 26.433C195.049 44.1906 182.061 66.7004 170.654 89.4882C164.703 101.373 159.134 113.44 153.192 125.334C147.736 136.254 140.742 148.721 127.65 151.24C122.081 152.309 116.469 150.684 112.742 146.34C109.467 142.526 108.355 136.897 111.482 132.649C114.236 128.922 119.197 127.254 123.688 127.462C128.997 127.705 133.627 131.015 136.876 135.029C145.104 145.176 144.965 159.155 147.084 171.413C149.256 183.975 153.609 196.182 159.768 207.345C162.8 212.845 166.302 218.083 170.194 223.009C173.86 227.648 178.16 232.123 183.642 234.564C192.451 238.499 206.126 235.754 207.003 224.356C207.333 220.108 205.466 215.434 201.73 213.183C196.578 210.073 190.618 212.966 186.301 216.155C176.814 223.148 169.507 232.661 164.251 243.156C152.01 267.568 151.315 295.082 148.066 321.649C146.98 330.537 143.427 344.602 131.559 342.369C127.78 341.657 124.14 338.425 125.843 334.255C127.459 330.293 132.776 328.365 136.755 329.112C142.011 330.102 145.651 335.054 147.918 339.511C150.759 345.115 152.358 351.439 153.557 357.573C156.224 371.247 155.989 385.33 154.947 399.161C154.434 405.92 153.722 412.661 152.992 419.403C152.679 422.166 157.023 422.148 157.327 419.394Z" fill="url(#paint0_linear_44_181)"/>
<path d="M68.2437 794.65C71.8056 806.735 77.7828 817.951 85.5843 827.82C93.3511 837.637 102.994 846.029 113.811 852.336C119.927 855.898 126.442 858.791 133.184 860.937C135.851 861.789 136.998 857.592 134.34 856.75C122.985 853.144 112.36 847.263 103.194 839.652C93.9505 831.972 86.1229 822.651 80.2674 812.147C76.9661 806.24 74.3424 799.993 72.4225 793.503C71.6406 790.819 67.4531 791.957 68.2437 794.65Z" fill="#FFC223"/>
<path d="M97.2779 820.088C101.405 826.977 106.687 833.18 112.864 838.314C113.767 839.062 115.053 839.201 115.939 838.314C116.712 837.541 116.843 835.995 115.939 835.239C110.023 830.33 104.984 824.492 101.031 817.898C99.5975 815.492 95.8357 817.681 97.2779 820.088Z" fill="#FFC223"/>
<path d="M288.633 691.571C293.993 710.432 293.168 730.787 286.583 749.24C284.749 754.365 282.447 759.3 279.737 764.018C278.338 766.441 282.091 768.639 283.49 766.207C293.62 748.588 298.042 727.764 296.052 707.539C295.479 701.744 294.419 696.01 292.829 690.407C292.064 687.731 287.868 688.878 288.633 691.571Z" fill="#FFC223"/>
<path d="M277.487 738.311C275.436 745.061 272.899 751.655 269.859 758.023C269.355 759.083 269.563 760.369 270.641 760.994C271.588 761.55 273.108 761.281 273.612 760.212C276.809 753.505 279.519 746.573 281.674 739.466C282.491 736.79 278.295 735.644 277.487 738.311Z" fill="#FFC223"/>
</g>
<g style="mix-blend-mode:hard-light" opacity="0.7" clip-path="url(#clip1_44_181)" filter="url(#filter0_f_44_181)">
<path d="M175.154 470.078C168.951 506.819 188.064 542.264 211.486 569.118C237.671 599.143 270.797 623.008 292.786 656.638C303.176 672.536 310.995 690.563 312.567 709.65C314.027 727.347 309.396 744.705 301.769 760.56C293.906 776.893 283.107 791.888 271.249 805.536C259.017 819.619 245.134 832.268 229.913 843.058C214.796 853.779 198.342 862.579 180.914 868.93C164.13 875.046 145.773 879.59 127.798 879.303C119.206 879.164 110.57 877.765 102.69 874.221C94.5847 870.581 87.7996 864.656 82.1961 857.836C71.1106 844.344 63.3959 827.759 57.5404 811.418C45.8816 778.891 42.6845 743.384 47.984 709.233C50.625 692.188 55.4033 675.507 62.3273 659.713C68.7823 644.97 76.8966 631.026 84.8719 617.074C100.075 590.472 116.399 562.011 116.929 530.51C117.068 522.265 115.713 514.273 114.879 506.106C114.045 497.94 114.419 489.617 119.996 483.093C125.513 476.638 133.94 473.171 141.524 469.835C148.805 466.638 158.118 462.711 166.024 466.099C171.41 468.41 176.449 474.726 173.73 480.721C172.261 483.953 177.352 486.055 178.821 482.832C182.018 475.795 178.325 468.011 172.548 463.597C165.311 458.072 155.955 458.845 147.745 461.495C143.349 462.911 139.118 464.848 134.922 466.777C130.821 468.662 126.764 470.704 123.02 473.232C115.557 478.28 110.405 485.534 109.302 494.595C108.259 503.17 110.24 511.71 111.065 520.206C111.821 527.99 111.482 535.818 110.249 543.533C107.747 559.136 101.648 573.896 94.5847 587.944C79.5637 617.812 59.9469 645.318 49.7997 677.471C39.0791 711.457 37.1678 748.145 44.0745 783.096C47.5322 800.567 53.1271 817.638 60.9199 833.667C68.8605 849.991 79.0338 867.01 95.0886 876.48C110.796 885.741 129.726 886.053 147.284 883.343C166.197 880.415 184.667 874.421 201.878 866.08C236.568 849.27 266.514 823.129 289.093 791.992C299.727 777.327 309.101 761.29 314.235 743.827C319.622 725.47 319.526 706.566 313.992 688.244C302.073 648.801 270.675 620.332 241.963 592.662C214.675 566.364 186.474 536.27 180.506 497.236C179.168 488.47 179.159 479.609 180.636 470.852C181.21 467.324 175.745 466.586 175.154 470.078Z" fill="#FFB902"/>
<path d="M155.842 458.402C155.546 473.996 155.59 489.6 156.015 505.194C156.432 520.693 157.214 536.192 158.352 551.656C159.482 567.05 160.976 582.419 162.818 597.735C163.747 605.467 164.773 613.191 165.885 620.905C166.997 628.585 168.065 636.3 169.681 643.893C172.67 657.993 178.082 672.406 190.062 681.267C199.471 688.226 212.963 691.658 223.684 685.533C233.475 679.938 238.531 668.053 237.141 657.029C236.437 651.469 234.022 646.282 230.017 642.346C225.873 638.272 220.495 635.77 214.814 634.701C202.46 632.382 190.01 636.917 180.532 644.788C175.007 649.375 170.341 654.935 166.215 660.782C164.208 663.631 162.314 666.55 160.49 669.522C158.761 672.328 157.075 675.212 155.859 678.287C153.539 684.16 152.914 691.275 157.24 696.41C161.054 700.936 168.048 703.586 173.269 699.772C178.464 695.984 178.134 688.782 177.37 683.109C176.623 677.592 175.354 672.093 173.426 666.872C169.829 657.185 163.087 647.437 152.175 645.674C145.017 644.518 138.101 647.324 131.977 650.765C125.304 654.509 118.997 658.853 113.185 663.831C108.016 668.262 102.908 673.049 100.319 679.504C98.0251 685.229 98.3987 692.335 104.254 695.767C109.458 698.825 115.878 697.07 120.526 693.769C125.417 690.294 128.762 684.621 130.726 679.052C132.785 673.205 133.645 667.019 134.096 660.869C134.626 653.562 134.8 646.221 135.104 638.897C135.773 622.747 136.407 606.588 137.007 590.437C137.606 574.278 138.171 558.128 138.692 541.969C139.222 525.81 139.717 509.651 140.169 493.492C140.395 485.681 140.603 477.871 140.812 470.052C140.847 468.567 140.039 467.168 138.458 466.951C137.111 466.768 135.391 467.811 135.356 469.305C134.548 499.938 133.619 530.571 132.567 561.203C131.516 591.68 130.343 622.148 129.04 652.615C128.58 663.466 128.189 675.759 121.647 684.786C120.127 686.888 118.467 688.634 116.252 690.016C115.713 690.355 114.358 690.997 113.368 691.336C112.629 691.588 112.716 691.562 112.09 691.675C111.439 691.797 110.77 691.884 110.101 691.884C110.605 691.884 109.701 691.849 109.701 691.849C109.423 691.823 109.154 691.788 108.876 691.745C108.867 691.745 108.007 691.527 108.485 691.675C108.224 691.597 107.964 691.501 107.712 691.388C107.156 691.154 107.225 691.215 106.635 690.763C106.053 690.329 105.835 690.103 105.401 689.512C104.88 688.799 104.593 688.009 104.471 687.053C104.332 685.959 104.445 684.777 104.767 683.465C106.122 678.061 110.405 673.674 114.453 670.025C119.788 665.221 125.582 660.921 131.733 657.211C137.033 654.014 143.288 650.478 149.699 650.93C150.829 651.008 151.958 651.182 153.053 651.468C152.566 651.338 153.426 651.59 153.426 651.59C153.687 651.677 153.939 651.764 154.2 651.859C154.79 652.077 155.364 652.329 155.929 652.607C156.172 652.728 156.406 652.85 156.641 652.98C157.405 653.397 156.215 652.702 156.954 653.171C157.405 653.458 157.857 653.753 158.292 654.075C158.726 654.396 159.152 654.735 159.56 655.083C159.768 655.256 159.968 655.439 160.168 655.621C160.298 655.743 160.437 655.873 160.568 655.995C160.385 655.812 160.411 655.838 160.646 656.073C167.361 662.971 170.228 672.944 171.662 682.318C172.035 684.786 172.426 687.479 172.27 689.79C172.114 692.205 171.566 694.229 169.733 695.515C169.038 696.002 170.15 695.367 169.386 695.706C169.134 695.819 168.873 695.923 168.613 696.01C169.142 695.845 168.3 696.062 168.256 696.062C167.987 696.106 167.709 696.132 167.431 696.132C167.944 696.123 167.04 696.088 167.031 696.088C166.745 696.054 166.467 696.01 166.189 695.958C165.329 695.776 166.597 696.123 165.754 695.836C165.381 695.715 165.016 695.567 164.66 695.402C162.818 694.551 161.028 692.761 160.229 690.954C159.734 689.833 159.595 688.991 159.517 687.557C159.447 686.332 159.621 685.029 159.881 683.778C160.463 680.981 161.758 678.322 163.122 675.829C166.197 670.208 169.898 664.787 173.834 659.748C177.865 654.596 182.435 649.861 187.856 646.16C192.417 643.041 197.499 640.93 202.729 640.088C207.612 639.306 212.737 639.479 217.29 640.991C222.024 642.564 226.038 645.274 228.775 649.47C229.296 650.27 229.696 651.034 230.191 652.198C230.669 653.319 231.068 654.605 231.242 655.387C231.781 657.776 231.937 660.191 231.781 662.328C231.416 667.15 229.852 671.607 227.02 675.377C224.266 679.043 220.478 681.658 216.03 682.64C210.887 683.778 205.744 683.092 200.896 681.12C195.961 679.121 191.426 675.864 187.908 671.945C183.364 666.88 180.324 660.686 178.126 654.292C175.789 647.498 174.459 640.409 173.321 633.329C172.148 626.066 171.106 618.777 170.116 611.488C168.143 596.919 166.501 582.315 165.172 567.667C162.54 538.537 161.176 509.286 161.106 480.034C161.089 473.067 161.15 466.108 161.289 459.141C161.315 457.655 160.524 456.256 158.934 456.039C157.614 455.865 155.876 456.908 155.842 458.402Z" fill="#FFB902"/>
<path d="M177.179 472.042C178.308 471.799 179.333 471.408 180.263 470.678C181.053 470.052 181.67 469.279 182.165 468.41C183.147 466.69 183.538 464.675 183.321 462.703C182.86 458.498 179.455 455.509 175.849 453.78C174.112 452.946 172.253 452.416 170.393 451.938C168.752 451.513 167.075 451.209 165.398 451C161.801 450.566 158.135 450.575 154.53 450.905C147.354 451.548 140.343 453.441 133.48 455.535C130.065 456.578 126.616 457.594 123.289 458.897C119.571 460.348 116.043 462.346 113.385 465.37C111.057 468.028 110.023 471.451 110.084 474.943C110.136 478.149 111.526 481.468 114.115 483.449C114.784 483.961 115.548 484.387 116.33 484.691C117.677 485.221 119.414 484.613 119.927 483.197C120.431 481.815 119.866 480.156 118.432 479.6C118.224 479.513 118.007 479.426 117.807 479.322C117.703 479.27 117.373 479.079 117.816 479.339C118.276 479.6 117.894 479.374 117.79 479.313C117.442 479.079 117.121 478.818 116.817 478.523C116.99 478.688 117.155 478.862 117.329 479.027C116.895 478.592 116.521 478.106 116.208 477.576C116.33 477.793 116.452 478.002 116.582 478.219C116.191 477.541 115.904 476.82 115.696 476.064C115.757 476.299 115.826 476.542 115.887 476.777C115.652 475.882 115.548 474.961 115.548 474.031C115.548 474.266 115.548 474.509 115.539 474.744C115.548 474.057 115.609 473.371 115.731 472.685C115.765 472.511 115.8 472.337 115.835 472.163C115.852 472.085 115.87 472.007 115.887 471.929C115.974 471.564 115.8 472.268 115.791 472.268C115.739 472.233 116.095 471.364 116.13 471.26C116.252 470.947 116.391 470.643 116.539 470.348C116.651 470.13 117.008 469.609 116.495 470.391C116.582 470.261 116.66 470.122 116.738 469.992C117.207 469.279 117.772 468.628 118.372 468.019C118.207 468.193 118.033 468.358 117.868 468.532C118.98 467.42 120.248 466.49 121.603 465.691C121.386 465.813 121.178 465.943 120.961 466.065C123.523 464.579 126.321 463.563 129.127 462.65C131.811 461.773 134.496 460.922 137.198 460.122C138.753 459.662 140.317 459.219 141.889 458.802C141.655 458.863 141.411 458.932 141.177 458.993C146.051 457.707 151.02 456.673 156.05 456.3C157.458 456.195 158.865 456.143 160.272 456.152C160.038 456.152 159.795 456.152 159.56 456.143C162.045 456.161 164.538 456.369 166.979 456.812C167.579 456.925 168.169 457.047 168.76 457.177C169.073 457.247 169.377 457.325 169.681 457.403C169.742 457.42 169.837 457.429 169.89 457.455C169.924 457.473 169.281 457.29 169.559 457.368C169.725 457.412 169.89 457.464 170.055 457.507C171.254 457.855 172.435 458.263 173.565 458.793C173.895 458.949 174.225 459.115 174.546 459.288C174.624 459.332 174.868 459.471 174.494 459.253C174.103 459.028 174.416 459.21 174.503 459.262C174.65 459.349 174.789 459.445 174.928 459.532C175.528 459.931 176.084 460.374 176.605 460.878C176.431 460.713 176.266 460.548 176.093 460.374C176.631 460.913 177.1 461.504 177.5 462.155C177.378 461.938 177.248 461.73 177.126 461.512C177.413 462.008 177.648 462.52 177.804 463.076C177.743 462.842 177.674 462.598 177.613 462.364C177.761 462.937 177.839 463.528 177.839 464.119C177.839 463.884 177.839 463.641 177.848 463.406C177.839 463.788 177.813 464.171 177.752 464.544C177.726 464.683 177.57 465.326 177.709 464.822C177.848 464.31 177.656 464.961 177.613 465.083C177.552 465.239 177.491 465.387 177.422 465.543C177.378 465.639 177.326 465.726 177.283 465.821C177.153 466.099 177.63 465.283 177.457 465.526C177.231 465.839 177.031 466.143 176.762 466.421C176.927 466.247 177.092 466.082 177.265 465.908C176.987 466.186 176.683 466.43 176.336 466.638C176.553 466.516 176.762 466.386 176.979 466.264C176.657 466.447 176.336 466.577 175.98 466.682C176.214 466.621 176.457 466.551 176.692 466.49C176.614 466.508 176.527 466.534 176.449 466.551C175.71 466.716 175.067 467.003 174.59 467.62C174.19 468.15 173.938 468.958 174.051 469.627C174.338 471.008 175.676 472.372 177.179 472.042Z" fill="#FFB902"/>
<path d="M179.82 456.916C181.427 456.109 182.574 454.936 183.399 453.346C184.12 451.947 184.303 450.349 184.259 448.802C184.172 445.614 182.339 442.738 179.811 440.905C177.179 438.994 173.964 438.09 170.793 437.578C167.535 437.048 164.225 436.909 160.941 437.03C154.478 437.256 148.118 438.681 141.95 440.558C138.918 441.478 135.921 442.538 132.958 443.659C130.387 444.632 127.711 445.544 125.304 446.891C122.924 448.22 120.674 449.81 118.98 451.973C117.425 453.954 116.365 456.638 116.973 459.175C117.147 459.896 117.338 460.565 117.703 461.208C118.076 461.868 118.467 462.398 119.197 462.702C119.823 462.963 120.683 462.989 121.308 462.702C121.951 462.398 122.55 461.903 122.802 461.208C123.037 460.565 123.15 459.723 122.802 459.097C122.585 458.706 122.411 458.298 122.29 457.872C122.351 458.107 122.42 458.35 122.481 458.585C122.368 458.15 122.307 457.716 122.316 457.273C122.316 457.507 122.316 457.751 122.307 457.985C122.316 457.768 122.325 457.551 122.359 457.334C122.403 457.047 122.672 456.291 122.333 457.281C122.472 456.864 122.637 456.465 122.828 456.065C123.063 455.587 122.464 456.656 122.698 456.282C122.75 456.195 122.802 456.109 122.863 456.022C122.994 455.813 123.141 455.622 123.289 455.422C123.593 455.014 123.932 454.64 124.288 454.275C124.123 454.449 123.949 454.614 123.784 454.788C124.957 453.606 126.321 452.625 127.763 451.782C127.546 451.904 127.337 452.025 127.12 452.156C129.353 450.87 131.803 450.01 134.201 449.089C136.963 448.029 139.752 447.021 142.576 446.118C144.191 445.596 145.825 445.119 147.467 444.684C147.232 444.745 146.989 444.815 146.754 444.875C152.288 443.407 157.979 442.451 163.713 442.478C163.478 442.478 163.235 442.478 163 442.469C165.867 442.486 168.76 442.73 171.566 443.32C171.896 443.39 172.227 443.468 172.548 443.546C173.174 443.703 172.001 443.381 172.496 443.529C172.661 443.572 172.817 443.624 172.982 443.676C173.617 443.876 174.251 444.102 174.859 444.371C175.163 444.502 175.458 444.649 175.754 444.806C176.31 445.101 175.259 444.493 175.693 444.762C175.832 444.849 175.971 444.936 176.11 445.023C176.675 445.397 177.196 445.814 177.682 446.291C177.509 446.126 177.344 445.953 177.17 445.788C177.656 446.283 178.1 446.813 178.447 447.421C178.325 447.204 178.204 446.995 178.073 446.778C178.377 447.325 178.612 447.907 178.768 448.515C178.708 448.281 178.638 448.038 178.577 447.803C178.742 448.455 178.821 449.115 178.812 449.784C178.812 449.549 178.812 449.306 178.821 449.072C178.812 449.419 178.786 449.767 178.734 450.114C178.725 450.192 178.586 450.618 178.621 450.67C178.612 450.653 178.829 449.984 178.716 450.314C178.682 450.401 178.656 450.496 178.629 450.583C178.569 450.74 178.508 450.896 178.438 451.044C178.404 451.113 178.369 451.174 178.343 451.243C178.169 451.617 178.682 450.713 178.499 450.965C178.299 451.252 178.108 451.53 177.865 451.791C178.03 451.617 178.204 451.452 178.369 451.278C178.082 451.574 177.761 451.825 177.413 452.034C177.63 451.912 177.839 451.791 178.056 451.66C177.952 451.721 177.856 451.773 177.752 451.825C177.092 452.156 176.553 452.616 176.258 453.32C175.997 453.945 175.971 454.805 176.258 455.431C176.814 456.699 178.438 457.611 179.82 456.916Z" fill="#FFB902"/>
<path d="M174.425 433.729C173.999 435.302 173.573 436.874 173.139 438.455C172.948 439.159 172.809 439.863 173.139 440.566C173.399 441.131 173.782 441.574 174.32 441.878C175.45 442.521 177.1 442.321 177.874 441.174C181.027 436.483 181.757 430.463 179.707 425.18C179.29 424.112 177.978 423.287 176.822 423.504C168.456 425.067 160.099 426.64 151.732 428.204C147.571 428.986 143.401 429.759 139.239 430.549C135.226 431.314 130.63 432.426 128.102 435.962C125.626 439.42 125.409 444.867 129.127 447.577C130.291 448.429 132.133 448.29 132.984 447.047C133.818 445.84 133.697 444.094 132.454 443.19C132.263 443.051 132.081 442.895 131.916 442.73C132.089 442.895 132.255 443.068 132.428 443.233C132.185 442.981 131.985 442.712 131.803 442.417C131.924 442.634 132.046 442.843 132.176 443.06C131.985 442.721 131.846 442.373 131.742 442.008C131.803 442.243 131.872 442.486 131.933 442.721C131.803 442.226 131.742 441.722 131.742 441.209C131.742 441.444 131.742 441.687 131.733 441.922C131.742 441.513 131.777 441.114 131.864 440.714C131.881 440.61 131.907 440.514 131.933 440.41C131.994 440.132 131.707 441.122 131.864 440.671C131.933 440.479 131.994 440.28 132.072 440.089C132.15 439.897 132.237 439.706 132.333 439.524C132.367 439.454 132.411 439.376 132.446 439.307C132.063 440.054 132.202 439.724 132.315 439.55C132.55 439.185 132.819 438.855 133.115 438.551C132.95 438.725 132.784 438.89 132.611 439.063C133.175 438.499 133.81 438.03 134.496 437.621C134.279 437.743 134.07 437.873 133.853 437.995C135.035 437.317 136.32 436.857 137.632 436.501C137.398 436.561 137.154 436.631 136.92 436.692C139.431 436.031 142.011 435.64 144.556 435.163C147.232 434.659 149.908 434.155 152.584 433.66C157.875 432.669 163.174 431.679 168.465 430.68C171.471 430.115 174.485 429.55 177.491 428.986C176.527 428.43 175.571 427.865 174.607 427.309C174.789 427.787 174.955 428.273 175.085 428.777C175.024 428.543 174.955 428.299 174.894 428.065C175.215 429.29 175.372 430.541 175.372 431.809C175.372 431.575 175.372 431.331 175.38 431.097C175.372 431.8 175.328 432.495 175.224 433.191C175.18 433.512 175.12 433.833 175.05 434.155C175.015 434.337 174.963 434.52 174.92 434.702C174.798 435.197 175.12 434.025 174.937 434.633C174.746 435.284 174.503 435.918 174.216 436.535C174.077 436.831 173.929 437.117 173.773 437.413C173.547 437.83 174.147 436.796 173.773 437.404C173.677 437.56 173.573 437.717 173.469 437.873C175.05 438.777 176.631 439.689 178.212 440.592C178.638 439.02 179.064 437.447 179.498 435.866C179.698 435.128 179.802 434.494 179.498 433.755C179.238 433.13 178.655 432.504 178.004 432.261C177.335 432.018 176.562 431.948 175.893 432.261C175.311 432.53 174.616 433.043 174.425 433.729Z" fill="#FFB902"/>
<path d="M173.13 428.143C174.372 424.859 172.791 420.993 169.811 419.221C168.3 418.317 166.658 417.778 164.894 417.587C163.261 417.405 161.584 417.457 159.951 417.535C156.658 417.7 153.374 418.187 150.177 418.995C148.457 419.429 146.72 419.89 145.069 420.55C143.47 421.193 141.846 422.053 140.603 423.26C139.083 424.737 138.049 426.458 137.624 428.551C137.207 430.593 137.684 432.669 138.84 434.372C139.37 435.154 140.456 435.527 141.351 435.415C142.41 435.284 143.062 434.624 143.557 433.738C145.078 430.984 146.589 428.238 148.11 425.484C146.355 425.007 144.591 424.529 142.836 424.06C142.758 425.945 142.671 427.821 142.593 429.707C142.541 430.897 143.053 432.183 144.27 432.626C145.442 433.051 146.728 432.73 147.519 431.748C149.065 429.837 150.29 427.622 151.089 425.293C149.335 424.816 147.571 424.338 145.816 423.869C145.694 425.745 145.581 427.613 145.46 429.49C145.382 430.68 145.938 431.974 147.137 432.409C148.301 432.834 149.613 432.53 150.386 431.531C151.211 430.471 152.028 429.411 152.853 428.36C151.211 427.917 149.569 427.474 147.918 427.031C147.918 428.143 147.918 429.255 147.918 430.367C147.979 430.602 148.049 430.845 148.11 431.079C148.24 431.436 148.448 431.731 148.735 431.965C149.143 432.365 149.691 432.695 150.281 432.747C151.524 432.86 152.697 432.226 153.201 431.071C154.191 428.803 155.173 426.544 156.163 424.277C154.399 424.042 152.645 423.799 150.881 423.564C150.942 425.154 151.003 426.744 151.072 428.343C151.089 428.786 151.367 429.35 151.637 429.698C152.01 430.176 152.523 430.489 153.096 430.645C154.087 430.914 155.416 430.593 156.007 429.672C157.214 427.787 158.031 425.832 158.57 423.66C156.745 423.408 154.929 423.165 153.105 422.913C152.905 424.85 152.705 426.796 152.506 428.734C152.367 430.106 153.174 431.383 154.521 431.748C155.885 432.122 157.18 431.418 157.779 430.167C158.726 428.195 159.065 425.988 158.891 423.816C158.821 422.948 158.248 422.209 157.518 421.784C156.841 421.393 155.833 421.193 155.103 421.61C154.53 421.931 154.113 422.131 153.713 422.678C153.374 423.13 153.114 423.669 153.044 424.233C152.949 424.946 153.035 425.684 153.366 426.327C154.052 427.682 155.355 428.725 156.91 428.873C158.821 429.055 160.524 427.769 161.202 426.014C161.714 424.677 161.697 423.217 161.523 421.818C161.341 420.394 159.916 419.177 158.448 419.42C156.945 419.681 155.902 420.958 156.05 422.496C156.154 423.591 156.267 424.694 156.372 425.789C156.484 426.953 157.553 428.065 158.735 428.178C159.925 428.291 161.219 427.674 161.654 426.501C162.01 425.537 162.366 424.581 162.722 423.617C163.131 422.505 162.87 421.08 161.845 420.367C160.889 419.707 159.412 419.559 158.483 420.385C157.527 421.236 156.997 422.383 157.153 423.686C157.31 424.955 158.153 426.127 159.343 426.605C160.542 427.092 161.94 426.857 162.939 426.049C163.904 425.276 164.547 423.903 164.277 422.661C164.121 421.923 163.826 421.28 163.209 420.802C162.679 420.402 161.871 420.15 161.202 420.263C159.638 420.533 158.735 421.792 158.804 423.339C158.848 424.268 158.9 425.198 158.943 426.136C158.987 426.996 159.603 427.761 160.316 428.169C161.106 428.621 161.88 428.621 162.731 428.343C164.503 427.761 166.276 427.17 168.048 426.588C166.971 426.301 165.893 426.023 164.816 425.736C165.546 426.631 166.276 427.517 167.005 428.412C167.917 429.524 169.725 429.872 170.871 428.89C171.983 427.943 172.331 426.214 171.349 425.024C170.619 424.129 169.89 423.243 169.16 422.348C168.343 421.349 167.118 421.106 165.928 421.497C164.156 422.079 162.383 422.67 160.611 423.252C161.871 423.99 163.139 424.72 164.399 425.458C164.356 424.529 164.303 423.599 164.26 422.661C162.436 422.887 160.611 423.113 158.787 423.339C158.804 423.408 158.813 423.469 158.813 423.538C158.813 423.304 158.813 423.061 158.821 422.826C158.821 422.861 158.813 422.896 158.813 422.93C158.839 422.67 158.926 422.435 159.073 422.227C159.325 421.801 159.16 422.07 159.065 422.166C159.23 421.992 159.395 421.827 159.569 421.653C159.517 421.705 159.464 421.749 159.404 421.784C159.621 421.662 159.829 421.54 160.046 421.41C159.951 421.462 159.873 421.497 159.768 421.532C160.003 421.471 160.246 421.401 160.481 421.34C160.411 421.358 160.351 421.367 160.281 421.367C160.516 421.367 160.759 421.367 160.993 421.375C160.724 421.349 160.854 421.384 161.384 421.488C161.836 421.784 161.966 421.844 161.767 421.662C161.94 421.827 162.105 421.992 162.279 422.166C162.236 422.114 162.201 422.07 162.166 422.009C162.288 422.227 162.418 422.435 162.54 422.652C162.496 422.557 162.462 422.479 162.436 422.383C162.496 422.618 162.566 422.861 162.627 423.095C162.609 423.035 162.601 422.965 162.601 422.904C162.601 423.139 162.601 423.382 162.592 423.617C162.592 423.478 162.67 423.191 162.54 423.669C162.514 423.842 162.453 423.999 162.349 424.138C162.192 424.381 162.166 424.433 162.279 424.286C162.114 424.459 161.94 424.624 161.775 424.798C161.801 424.772 161.827 424.755 161.845 424.729C160.429 423.651 159.021 422.574 157.605 421.497C157.249 422.461 156.893 423.417 156.537 424.381C158.3 424.616 160.055 424.859 161.819 425.094C161.714 423.999 161.602 422.896 161.497 421.801C159.673 422.027 157.848 422.253 156.024 422.479C156.085 422.939 156.12 423.391 156.128 423.851C156.128 423.617 156.128 423.373 156.137 423.139C156.137 423.33 156.128 423.512 156.102 423.695C156.094 423.773 156.076 423.86 156.067 423.938C156.041 424.181 155.868 424.346 156.163 423.669C156.146 423.703 155.998 424.103 155.998 424.103C155.937 424.051 156.476 423.469 156.137 423.834C156.076 423.903 156.015 423.981 155.955 424.051C156.12 423.877 156.293 423.712 156.458 423.538C156.354 423.643 156.241 423.73 156.111 423.816C156.328 423.695 156.537 423.573 156.754 423.443C156.676 423.486 156.606 423.512 156.528 423.538C156.763 423.478 157.006 423.408 157.24 423.347C157.136 423.373 157.032 423.382 156.919 423.391C157.153 423.391 157.397 423.391 157.631 423.399C157.553 423.391 157.466 423.365 157.388 423.373C157.814 423.356 158.109 423.573 157.718 423.434C157.475 423.347 158.387 423.903 158.04 423.608C157.961 423.547 157.892 423.486 157.814 423.417C157.987 423.582 158.153 423.756 158.326 423.921C158.231 423.825 158.153 423.721 158.074 423.608C158.196 423.825 158.318 424.034 158.448 424.251C158.387 424.138 158.335 424.034 158.3 423.912C158.361 424.147 158.431 424.39 158.491 424.624C158.474 424.555 158.465 424.494 158.465 424.425C158.465 424.659 158.465 424.902 158.457 425.137C158.465 424.842 158.604 424.955 158.318 425.563C158.292 425.606 157.831 426.249 158.126 425.954C157.961 426.127 157.788 426.292 157.623 426.466C157.657 426.431 157.701 426.397 157.744 426.371C157.527 426.492 157.319 426.623 157.101 426.744C157.127 426.727 157.153 426.718 157.171 426.701C155.911 425.962 154.643 425.233 153.383 424.494C153.409 424.798 153.418 425.094 153.418 425.398C153.418 425.163 153.418 424.92 153.426 424.685C153.418 425.363 153.34 426.032 153.192 426.692C153.044 427.326 153.374 426.171 153.201 426.666C153.148 426.805 153.114 426.953 153.062 427.092C152.94 427.422 152.801 427.743 152.653 428.056C154.408 428.534 156.172 429.012 157.927 429.481C158.126 427.543 158.326 425.597 158.526 423.66C158.674 422.227 157.683 420.698 156.172 420.559C155.451 420.489 154.669 420.628 154.104 421.115C153.522 421.61 153.253 422.183 153.07 422.913C153.044 423.017 153.018 423.113 152.992 423.217C153.114 422.791 153.131 422.713 153.053 422.991C152.992 423.191 152.931 423.391 152.862 423.591C152.731 423.964 152.592 424.329 152.436 424.685C152.28 425.041 152.115 425.398 151.932 425.745C151.88 425.841 151.837 425.928 151.784 426.023C151.645 426.275 151.68 426.206 151.906 425.823C151.784 425.98 151.689 426.188 151.576 426.353C153.218 426.796 154.86 427.239 156.511 427.682C156.45 426.093 156.389 424.503 156.319 422.904C156.293 422.305 155.911 421.705 155.503 421.297C155.094 420.897 154.547 420.567 153.956 420.515C152.714 420.402 151.541 421.036 151.037 422.192C150.047 424.459 149.065 426.718 148.075 428.986C149.838 429.22 151.593 429.463 153.357 429.698C153.357 428.586 153.357 427.474 153.357 426.362C153.357 425.928 153.053 425.345 152.792 425.007C152.419 424.529 151.906 424.216 151.333 424.06C150.264 423.773 149.109 424.147 148.422 425.033C147.597 426.093 146.78 427.153 145.955 428.204C147.597 428.881 149.239 429.568 150.881 430.245C151.003 428.369 151.116 426.501 151.237 424.624C151.324 423.243 150.603 421.992 149.222 421.61C147.971 421.271 146.407 421.888 145.964 423.191C145.608 424.225 145.173 425.233 144.652 426.188C144.6 426.284 144.365 426.692 144.6 426.292C144.834 425.884 144.591 426.301 144.539 426.388C144.4 426.614 144.261 426.831 144.122 427.048C143.8 427.526 143.462 427.987 143.105 428.43C144.747 429.107 146.389 429.794 148.031 430.471C148.11 428.586 148.196 426.709 148.275 424.824C148.335 423.434 147.658 422.192 146.259 421.81C145.694 421.653 145.034 421.645 144.487 421.905C143.783 422.235 143.366 422.722 142.993 423.399C141.472 426.153 139.961 428.899 138.44 431.653C140.013 431.436 141.585 431.227 143.158 431.01C143.079 430.897 143.01 430.784 142.94 430.671C143.062 430.888 143.184 431.097 143.314 431.314C143.149 431.001 143.019 430.68 142.914 430.341C142.975 430.575 143.045 430.819 143.105 431.053C142.993 430.628 142.94 430.193 142.94 429.75C142.94 429.985 142.94 430.228 142.932 430.463C142.94 430.08 142.975 429.698 143.053 429.324C143.166 428.768 142.871 429.889 143.045 429.342C143.105 429.142 143.175 428.951 143.262 428.76C143.331 428.595 143.418 428.43 143.496 428.265C143.67 427.917 143.383 428.516 143.349 428.516C143.375 428.516 143.479 428.317 143.496 428.282C143.731 427.926 144 427.604 144.296 427.292C144.131 427.465 143.966 427.63 143.792 427.804C144.4 427.196 145.078 426.683 145.816 426.24C145.599 426.362 145.39 426.492 145.173 426.614C146.989 425.563 149.022 424.963 151.037 424.425C150.803 424.485 150.559 424.555 150.325 424.616C154.434 423.538 158.691 422.948 162.939 422.965C162.705 422.965 162.462 422.965 162.227 422.956C162.809 422.965 163.4 422.982 163.982 423.043C164.269 423.069 164.555 423.113 164.842 423.156C164.972 423.182 165.633 423.226 165.685 423.33C165.641 423.243 164.981 423.121 165.554 423.304C165.693 423.347 165.824 423.391 165.963 423.443C166.232 423.547 166.484 423.669 166.745 423.79C167.179 423.999 166.223 423.443 166.623 423.721C166.71 423.782 166.805 423.843 166.892 423.903C167.118 424.068 167.335 424.251 167.535 424.442C167.361 424.277 167.196 424.103 167.023 423.938C167.396 424.312 167.709 424.711 167.978 425.163C167.857 424.946 167.735 424.737 167.605 424.52C167.813 424.894 167.978 425.276 168.1 425.693C168.039 425.458 167.97 425.215 167.909 424.981C168.004 425.345 168.057 425.71 168.065 426.084C168.065 425.849 168.065 425.606 168.074 425.372C168.074 425.58 168.056 425.78 168.022 425.988C168.004 426.067 167.987 426.153 167.97 426.232C168.083 425.502 168.1 425.78 168.004 426.032C167.492 427.378 168.065 429.107 169.499 429.629C170.897 430.132 172.583 429.585 173.13 428.143Z" fill="#FFB902"/>
</g>
<defs>
<filter id="filter0_f_44_181" x="0" y="-44" width="358.197" height="968.802" filterUnits="userSpaceOnUse" color-interpolation-filters="sRGB">
<feFlood flood-opacity="0" result="BackgroundImageFix"/>
<feBlend mode="normal" in="SourceGraphic" in2="BackgroundImageFix" result="shape"/>
<feGaussianBlur stdDeviation="20" result="effect1_foregroundBlur_44_181"/>
</filter>
<linearGradient id="paint0_linear_44_181" x1="191.123" y1="-3.99539" x2="191.123" y2="421.467" gradientUnits="userSpaceOnUse">
<stop offset="0.075" stop-color="white"/>
<stop offset="0.49" stop-color="#FFC223"/>
</linearGradient>
<clipPath id="clip0_44_181">
<rect width="278.197" height="888.802" fill="white" transform="translate(40 -4)"/>
</clipPath>
<clipPath id="clip1_44_181">
<rect width="278.197" height="888.802" fill="white" transform="translate(40 -4)"/>
</clipPath>
</defs>
</svg>
