<svg width="399" height="475" viewBox="0 0 399 475" fill="none" xmlns="http://www.w3.org/2000/svg">
<g clip-path="url(#clip0_316_1598)">
<rect x="1" y="1" width="397" height="473" fill="url(#paint0_angular_316_1598)"/>
<rect x="1" y="1" width="397" height="473" fill="#111111" fill-opacity="0.77"/>
<g clip-path="url(#clip1_316_1598)">
<path d="M457.694 515.022C448.509 516.987 418.607 516.639 409.173 516.125C405.169 499.819 407.632 475.024 405.534 458.386C404.233 448.032 404.208 434.089 397.087 425.666C390.878 418.313 379.662 417.642 370.974 417.625C367.235 417.617 363.505 417.857 359.774 418.139C354.013 418.57 348.11 417.816 342.283 418.28C336.604 418.736 330.876 418.595 325.189 418.868C319.03 419.167 312.779 419.167 306.636 418.868C304.688 418.777 301.903 419.532 300.195 418.794C299.922 414.84 309.778 414.69 312.174 414.409C314.105 414.185 317.04 414.375 318.4 412.751C319.859 411.026 320.281 408.829 320.298 406.624C320.315 404.129 320.431 401.642 320.431 399.147C320.431 397.365 320.364 395.582 320.364 393.8C320.364 393.128 320.099 392.084 320.364 391.479C320.298 391.636 325.471 392.689 325.885 392.755C330.014 393.361 334.349 393.278 338.502 393.004C339.879 392.913 341.57 392.996 342.689 392.043C342.838 391.918 344.645 389.978 344.057 389.821C340.616 388.884 336.554 390.161 332.973 390.161C330.262 390.161 327.601 390.476 324.891 390.343C318.051 390.012 314.86 383.214 312.066 378.041C308.46 371.376 306.47 364.147 305.161 356.719C303.975 349.955 303.942 342.32 304.788 335.531C305.501 329.835 307.656 322.847 314.603 322.35C317.67 322.126 323.025 325.823 320.82 328.484C320.024 329.446 318.499 329.346 317.761 328.343C314.487 323.858 319.593 314.541 323.68 312.385C328.356 309.923 339.663 310.247 338.56 318.23C338.279 320.277 336.637 322.441 335.245 319.78C334.142 317.674 336.844 313.819 338.154 312.518C341.785 308.937 349.246 307.61 353.822 310.172C359.592 313.405 359.608 321.231 357.461 326.934C355.488 332.173 350.514 336.02 344.703 335.97C340.525 335.937 338.428 333.292 339.489 329.272C342.565 317.575 359.526 309.227 370.377 313.115C377.291 315.593 381.643 320.849 381.56 328.493C381.469 336.194 372.118 345.321 368.421 334.229C366.431 328.269 372.798 320.766 376.453 328.7C379.993 336.368 369.15 334.13 365.428 334.047C369.573 334.138 372.076 344.591 370.277 347.352C369.109 349.134 366.837 349.748 365.793 351.837C364.301 354.838 363.413 364.761 365.925 367.314C369.73 364.661 366.904 355.658 373.303 354.871C378.518 354.233 379.595 363.335 376.694 366.377C375.318 367.82 372.914 367.902 371.654 369.138C369.83 370.92 370.825 373.523 370.277 376.209C369.565 379.707 367.973 383.952 365.304 386.439C362.336 389.199 358.779 390.99 356.425 394.571C346.295 409.982 360.371 412.751 373.129 416.058C385.473 419.25 391.383 430.69 394.617 442.428C397.982 454.639 398.538 467.455 399.599 479.965C399.963 484.259 400.792 489.241 401.049 494.132C401.24 497.862 395.769 498.567 395.014 494.911C394.011 490.053 393.887 484.765 393.489 480.504C392.503 469.959 393.033 457.847 388.548 448.074C383.392 436.857 375.6 427.54 363.438 424.448C344.264 419.573 321.284 420.386 301.157 420.468C287.901 420.526 277.033 430.872 276.138 444.094C275.185 458.196 276.702 472.438 275.707 486.522C275.193 493.792 278.907 505.199 274.969 511.524C272.648 515.255 260.835 513.439 256.217 511.524C249.577 508.764 251.235 501.311 251.252 494.754C251.285 479.368 250.622 463.982 250.746 448.596C250.829 438.167 250.033 427.374 238.842 422.441C229.856 418.487 217.504 419.938 207.871 419.722C194.375 419.424 181.227 423.726 167.732 423.552C158.066 423.428 145.772 421.049 136.321 420.808C140.317 417.915 145.913 413.613 147.529 408.506C150.107 400.39 149.262 391.015 149.262 382.609C149.262 373.788 147.405 364.951 147.413 356.346C147.413 351.273 149.336 345.379 152.42 341.275C156.076 336.401 164.009 331.402 170.144 334.436C173.617 326.826 175.731 319.075 184.328 315.519C193.065 311.905 204.762 314.997 212.779 319.2C232.774 329.678 231.646 354.075 226.739 373.299C224.749 381.108 224.484 389.854 227.418 397.348C223.87 397.323 218.606 396.635 215.838 394.48C216.617 404.801 221.616 412.096 227.07 420.029C222.594 421.389 216.774 424.05 212.124 424.05C201.297 424.05 190.645 415.503 179.835 414.947C171.736 414.533 160.519 416.489 152.785 414.201C152.445 391.147 145.349 369.204 152.089 346.564C154.443 338.664 159.856 336.766 167.798 337.454C174.521 338.034 176.693 341.292 176.113 347.849C175.682 352.699 170.567 357.374 167.417 350.776C165.361 346.465 170.144 339.327 172.78 335.663C177.663 328.882 186.442 325.782 194.665 326.337C201.231 326.785 208.319 328.957 213.566 333.027C221.052 338.822 220.14 346.813 219.817 355.393C219.618 360.583 219.435 365.755 219.427 370.961C219.419 376.126 220.331 381.34 221.765 386.248C214.561 372.362 217.139 354.564 207.473 341.682C205.376 338.888 202.242 335.73 198.943 334.602C197.426 334.088 191.789 333.135 190.902 334.892C189.957 336.774 194.044 338.78 195.005 339.676C199.349 343.696 203.154 348.214 204.978 353.942C206.868 359.878 206.884 366.228 206.636 372.387C206.453 376.739 205.931 380.18 204.024 384.018C202.69 386.696 200.982 389.224 200.319 392.2C198.702 399.437 201.993 405.969 202.905 412.643C203.171 414.549 203.602 415.171 201.811 416.58C197.31 420.12 185.43 418.28 180.1 418.28C172.954 418.28 165.808 418.28 158.654 418.28C151.906 418.28 145.075 416.829 138.361 418.073C132.607 419.142 125.205 421.156 123.804 427.822C122.842 432.389 123.074 437.62 123.082 442.271C123.099 447.792 122.859 453.313 122.859 458.85C122.859 469.901 122.602 480.951 122.452 491.993C122.394 496.263 124.832 508.324 121.731 511.524C119.775 513.53 110.465 511.69 107.647 511.524C100.302 511.101 101.305 508.54 101.305 501.659C101.305 481.175 100.766 460.815 100.766 440.306C100.766 432.588 98.4532 424.962 91.9125 419.797C82.0559 412.013 57.6589 414.931 46.3266 415.519C30.2029 416.357 12.9517 413.571 -2.84046 415.959C0.873397 411.946 4.38829 408.498 6.4276 403.093C7.86174 399.296 9.45339 396.047 9.45339 391.984C9.45339 388.246 9.08035 380.727 10.0337 378.273C10.9124 376.002 12.5455 375.264 14.8003 374.36C15.505 374.078 16.6821 374.029 17.8842 374.078C20.1058 374.178 20.7193 377.146 18.7297 378.14C17.2707 378.87 15.5133 379.251 14.3693 379.4C9.96737 379.964 5.19241 377.734 4.14789 373.365C2.81322 367.762 2.7469 361.859 1.33763 356.239C-0.162834 350.22 -4.57303 345.362 -5.08701 339.112C-5.51808 333.922 -1.7379 326.329 4.69502 328.882C8.16847 319.084 14.8418 311.73 26.058 311.357C30.7749 311.2 35.2348 313.703 39.8854 313.969C44.7516 314.251 49.51 312.253 53.8207 310.263C53.5803 311.556 54.2269 313.264 53.9865 314.557C58.6702 312.858 63.3208 306.342 67.0264 310.752C69.6211 313.844 68.2367 320.642 67.0761 323.966C62.3012 337.603 34.6545 339.75 26.945 327.954C38.9072 329.869 50.5213 326.619 62.2266 324.547C63.3872 332.579 55.2465 340.778 57.7584 350.179C58.8443 354.241 70.3755 366.899 57.8412 365.971C56.1916 371.127 58.6702 377.461 57.1615 382.708C55.4786 388.577 49.0872 389.547 43.5081 390.235C43.1185 397.149 40.9797 406.798 47.8354 409.725C51.7565 411.399 66.529 412.154 76.2364 415.138C80.7047 416.514 79.7845 423.146 75.109 423.163C65.443 423.196 53.3316 420.792 46.2189 420.485C25.859 419.623 11.3103 418.263 -9.0993 418.263C-15.7726 418.263 -24.3112 417.915 -29.5006 422.798C-38.9593 431.701 -35.2538 450.337 -35.1211 461.52C-34.9968 472.504 -35.1211 483.504 -35.1211 494.489C-35.1211 499.172 -34.6735 505.572 -38.205 508.979C-41.9105 512.552 -77.0263 509.087 -81.3785 508.507C-83.0945 508.283 -84.7939 508.208 -86.4933 508.266C-90.1492 508.391 -90.0165 513.862 -86.3607 513.895C-84.0893 513.92 -81.8676 513.837 -79.7869 513.738C-75.8077 513.539 -36.4558 515.114 -33.5461 512.146C-28.8457 507.363 -31.9047 489.399 -31.9047 483.247C-31.9047 473.034 -32.5015 462.846 -32.9906 452.641C-33.7533 436.658 -33.3471 423.71 -15.6234 418.288C2.53137 412.734 22.6923 413.008 41.5517 413.008C52.7927 413.008 69.7704 410.927 77.9773 419.789C86.7314 429.231 82.7274 449.798 82.1803 461.702C81.7409 471.376 81.6414 481.241 81.658 490.899C81.6663 495.425 80.1824 503.682 82.1968 507.885C85.7698 515.354 100.758 511.367 107.738 511.69C111.626 511.872 118.034 513.779 121.789 512.129C127.766 509.51 125.777 495.069 125.768 489.067C125.752 474.784 125.768 460.492 125.768 446.208C125.768 439.46 125.064 431.66 126.954 425.235C129.822 423.884 132.707 423.552 135.981 423.212C148.756 421.894 161.929 420.303 174.778 420.187C188.804 420.054 203.701 418.064 217.562 420.228C230.875 422.309 233.777 427.855 234.929 441.815C236.662 462.772 234.531 483.927 233.81 504.834C233.462 514.873 243.998 512.718 252.238 513.497C257.386 513.978 272.457 516.564 277.066 511.939C280.507 508.49 279.031 501.543 279.039 497.05C279.056 483.388 277.406 469.702 276.809 456.181C276.403 447.013 275.193 434.569 282.463 428.203C288.075 423.287 294.956 421.181 302.201 420.725" stroke="#FFF3C1" stroke-width="1.65797" stroke-miterlimit="10" stroke-linecap="round" stroke-linejoin="round"/>
</g>
<path d="M41.3109 106.509C33.7209 106.509 30.0909 102.939 30.0909 95.5586C30.0909 88.1786 33.4809 84.6086 40.5609 84.6086C47.0709 84.6086 50.7609 86.7686 50.7609 92.3486H46.6509C46.6509 89.2286 43.4709 88.5986 40.5009 88.5986C36.1509 88.5986 34.5309 90.6986 34.5309 95.5286C34.5309 100.419 36.7509 102.519 41.3709 102.519C43.9809 102.519 46.7709 102.099 46.7709 99.0386H50.8809C50.8809 104.619 47.0709 106.509 41.3109 106.509ZM51.7858 98.5586C51.7858 93.3386 54.5158 90.6086 60.2458 90.6086C65.9758 90.6086 68.7358 93.3386 68.7358 98.5586C68.7358 103.779 65.9758 106.509 60.2458 106.509C54.5158 106.509 51.7858 103.779 51.7858 98.5586ZM56.0458 98.5586C56.0458 101.289 57.4258 102.699 60.2458 102.699C63.0958 102.699 64.4758 101.289 64.4758 98.5586C64.4758 95.8286 63.0958 94.4186 60.2458 94.4186C57.2458 94.4186 56.0458 95.8286 56.0458 98.5586ZM74.6458 106.059H70.5358V83.5586H74.6458V106.059ZM81.165 106.059H77.055V83.5586H81.165V106.059ZM94.3141 96.5486C94.3141 94.2386 92.1841 93.9986 90.6841 93.9986C89.2141 93.9986 87.2041 94.1486 87.2041 96.2486H83.5141C83.5141 92.1386 86.2741 90.6086 90.7441 90.6086C95.8741 90.6086 98.3941 92.0486 98.3941 97.2086V106.059H94.3141V104.049C93.7141 105.519 92.3341 106.509 89.1541 106.509C85.5241 106.509 82.6741 105.519 82.6741 101.739C82.6741 98.6486 85.0741 97.4786 88.9741 97.0886L94.3141 96.6086V96.5486ZM94.3141 99.4586L89.7541 99.9086C88.0741 100.059 86.9341 100.479 86.9341 101.679C86.9341 102.639 87.8641 103.119 89.8141 103.119C92.7841 103.119 94.1941 101.949 94.3141 100.959V99.4586ZM104.604 106.059H100.494V83.5586H104.604V93.0986C105.384 91.5086 106.824 90.6086 109.224 90.6086C113.274 90.6086 115.944 93.3386 115.944 98.5586C115.944 103.779 112.884 106.509 109.134 106.509C106.764 106.509 105.384 105.489 104.604 103.929V106.059ZM111.684 98.5586C111.684 95.8286 110.694 94.4186 108.174 94.4186C105.834 94.4186 104.604 95.8286 104.604 98.5586C104.604 101.259 105.834 102.699 108.174 102.699C110.364 102.699 111.684 101.259 111.684 98.5586ZM117.135 98.5586C117.135 93.3386 119.865 90.6086 125.595 90.6086C131.325 90.6086 134.085 93.3386 134.085 98.5586C134.085 103.779 131.325 106.509 125.595 106.509C119.865 106.509 117.135 103.779 117.135 98.5586ZM121.395 98.5586C121.395 101.289 122.775 102.699 125.595 102.699C128.445 102.699 129.825 101.289 129.825 98.5586C129.825 95.8286 128.445 94.4186 125.595 94.4186C122.595 94.4186 121.395 95.8286 121.395 98.5586ZM139.995 106.059H135.885V91.0586H139.995V93.0686C140.925 91.5086 142.365 90.6086 144.285 90.6086C147.795 90.6086 149.835 92.6486 149.835 97.1186H146.145C146.145 95.5286 145.155 94.4186 143.325 94.4186C141.225 94.4186 139.995 95.8286 139.995 98.5586V106.059ZM162.08 96.5486C162.08 94.2386 159.95 93.9986 158.45 93.9986C156.98 93.9986 154.97 94.1486 154.97 96.2486H151.28C151.28 92.1386 154.04 90.6086 158.51 90.6086C163.64 90.6086 166.16 92.0486 166.16 97.2086V106.059H162.08V104.049C161.48 105.519 160.1 106.509 156.92 106.509C153.29 106.509 150.44 105.519 150.44 101.739C150.44 98.6486 152.84 97.4786 156.74 97.0886L162.08 96.6086V96.5486ZM162.08 99.4586L157.52 99.9086C155.84 100.059 154.7 100.479 154.7 101.679C154.7 102.639 155.63 103.119 157.58 103.119C160.55 103.119 161.96 101.949 162.08 100.959V99.4586ZM170.66 100.599V94.7486H167.36V91.0586H170.66L172.25 85.0586H174.74V91.0586H182.06V94.7486H174.74V100.179C174.74 101.589 175.07 102.699 176.57 102.699C177.74 102.699 178.58 102.159 178.58 100.359H182.27C182.27 105.009 180.11 106.509 176.39 106.509C172.55 106.509 170.66 104.679 170.66 100.599ZM198.954 99.1586V99.7586H187.464C187.794 102.249 189.264 103.119 191.574 103.119C193.614 103.119 195.054 102.129 195.054 100.959H198.774C198.774 104.259 196.224 106.509 191.544 106.509C185.904 106.509 183.144 103.779 183.144 98.5586C183.144 93.4586 185.934 90.6086 191.004 90.6086C196.674 90.6086 198.954 93.4586 198.954 99.1586ZM187.614 96.8486H194.904C194.574 94.8986 193.164 93.9986 191.214 93.9986C189.504 93.9986 188.124 94.9586 187.614 96.8486ZM218.684 96.5486C218.684 94.2386 216.554 93.9986 215.054 93.9986C213.584 93.9986 211.574 94.1486 211.574 96.2486H207.884C207.884 92.1386 210.644 90.6086 215.114 90.6086C220.244 90.6086 222.764 92.0486 222.764 97.2086V106.059H218.684V104.049C218.084 105.519 216.704 106.509 213.524 106.509C209.894 106.509 207.044 105.519 207.044 101.739C207.044 98.6486 209.444 97.4786 213.344 97.0886L218.684 96.6086V96.5486ZM218.684 99.4586L214.124 99.9086C212.444 100.059 211.304 100.479 211.304 101.679C211.304 102.639 212.234 103.119 214.184 103.119C217.154 103.119 218.564 101.949 218.684 100.959V99.4586ZM240.314 106.059H236.204V98.1686C236.204 95.8286 235.514 94.4186 232.754 94.4186C230.294 94.4186 228.974 95.8286 228.974 98.5586V106.059H224.864V91.0586H228.974V93.0986C229.964 91.5386 231.584 90.6086 233.984 90.6086C238.154 90.6086 240.314 92.4386 240.314 97.7786V106.059ZM253.768 106.059V103.839C252.958 105.459 251.518 106.509 248.998 106.509C244.888 106.509 241.828 103.779 241.828 98.5586C241.828 93.3386 244.498 90.6086 248.878 90.6086C251.458 90.6086 252.958 91.5386 253.768 93.1886V83.5586H257.878V106.059H253.768ZM246.088 98.5586C246.088 101.259 247.378 102.699 249.898 102.699C252.478 102.699 253.768 101.259 253.768 98.5586C253.768 95.8286 252.478 94.4186 249.898 94.4186C247.018 94.4186 246.088 95.8286 246.088 98.5586ZM272.878 106.059V88.9586H266.368V85.0586H283.678V88.9586H277.168V106.059H272.878ZM289.064 106.059H284.954V83.5586H289.064V93.0986C290.054 91.5386 291.674 90.6086 294.074 90.6086C298.244 90.6086 300.404 92.4386 300.404 97.7786V106.059H296.294V98.1686C296.294 95.8286 295.604 94.4186 292.844 94.4186C290.384 94.4186 289.064 95.8286 289.064 98.5586V106.059ZM306.628 106.059H302.518V91.0586H306.628V93.0686C307.558 91.5086 308.998 90.6086 310.918 90.6086C314.428 90.6086 316.468 92.6486 316.468 97.1186H312.778C312.778 95.5286 311.788 94.4186 309.958 94.4186C307.858 94.4186 306.628 95.8286 306.628 98.5586V106.059ZM317.523 86.4986C317.523 84.8186 318.273 84.0086 320.013 84.0086C321.783 84.0086 322.533 84.8186 322.533 86.4986C322.533 88.1786 321.783 88.9886 320.013 88.9886C318.273 88.9886 317.523 88.1786 317.523 86.4986ZM317.973 106.059V91.0586H322.083V106.059H317.973ZM328.782 106.059L322.392 91.0586H326.892L331.062 100.779L335.202 91.0586H339.702L333.312 106.059H328.782ZM355.215 99.1586V99.7586H343.725C344.055 102.249 345.525 103.119 347.835 103.119C349.875 103.119 351.315 102.129 351.315 100.959H355.035C355.035 104.259 352.485 106.509 347.805 106.509C342.165 106.509 339.405 103.779 339.405 98.5586C339.405 93.4586 342.195 90.6086 347.265 90.6086C352.935 90.6086 355.215 93.4586 355.215 99.1586ZM343.875 96.8486H351.165C350.835 94.8986 349.425 93.9986 347.475 93.9986C345.765 93.9986 344.385 94.9586 343.875 96.8486ZM356.412 104.199C356.412 102.669 357.102 101.919 358.722 101.919C360.312 101.919 361.002 102.669 361.002 104.199C361.002 105.729 360.312 106.509 358.722 106.509C357.102 106.509 356.412 105.729 356.412 104.199Z" fill="#DCA802"/>
<path d="M40.2509 152.7C40.2509 156.92 38.3909 158.3 34.8909 158.3C31.5509 158.3 29.5909 157.04 29.5909 153.32H31.8909C31.8909 155.66 33.3309 156.04 34.9909 156.04C36.8509 156.04 37.8509 155.28 37.8509 152.98V144H40.2509V152.7ZM41.2464 153C41.2464 149.52 43.0664 147.7 46.8464 147.7C50.6264 147.7 52.4464 149.52 52.4464 153C52.4464 156.48 50.6264 158.3 46.8464 158.3C43.0664 158.3 41.2464 156.48 41.2464 153ZM43.6464 153C43.6464 155.06 44.6864 156.14 46.8464 156.14C49.0064 156.14 50.0464 155.06 50.0464 153C50.0464 150.92 49.0064 149.84 46.8464 149.84C44.6064 149.84 43.6464 150.92 43.6464 153ZM53.3087 144.96C53.3087 143.94 53.7487 143.46 54.8087 143.46C55.8487 143.46 56.3087 143.94 56.3087 144.96C56.3087 145.96 55.8487 146.46 54.8087 146.46C53.7487 146.46 53.3087 145.96 53.3087 144.96ZM53.6487 158V148H55.9487V158H53.6487ZM67.7056 158H65.4056V152.62C65.4056 150.92 64.8856 149.84 62.7456 149.84C60.8456 149.84 59.8456 150.92 59.8456 152.98V158H57.5456V148H59.8456V149.4C60.5056 148.32 61.6456 147.7 63.3856 147.7C66.2856 147.7 67.7056 149.02 67.7056 152.42V158ZM81.234 151.62C81.234 149.8 79.654 149.64 78.554 149.64C77.414 149.64 75.954 149.76 75.954 151.46H73.854C73.854 148.76 75.654 147.7 78.554 147.7C81.894 147.7 83.534 148.76 83.534 151.96V158H81.234V156.64C80.834 157.62 79.894 158.3 77.694 158.3C75.174 158.3 73.294 157.64 73.294 155.16C73.294 153.16 74.874 152.32 77.694 152.02L81.234 151.66V151.62ZM81.234 153.32L78.034 153.64C76.734 153.78 75.694 154.14 75.694 155.12C75.694 155.88 76.294 156.34 78.014 156.34C80.254 156.34 81.134 155.38 81.234 154.64V153.32ZM92.6347 158L88.3347 148H90.8747L93.8947 155.06L96.9347 148H99.4747L95.1747 158H92.6347ZM99.3267 144.96C99.3267 143.94 99.7667 143.46 100.827 143.46C101.867 143.46 102.327 143.94 102.327 144.96C102.327 145.96 101.867 146.46 100.827 146.46C99.7667 146.46 99.3267 145.96 99.3267 144.96ZM99.6667 158V148H101.967V158H99.6667ZM105.864 158H103.564V143H105.864V149.4C106.424 148.32 107.424 147.7 109.164 147.7C111.884 147.7 113.724 149.52 113.724 153C113.724 156.48 111.584 158.3 109.084 158.3C107.384 158.3 106.404 157.6 105.864 156.52V158ZM111.324 152.98C111.324 150.92 110.524 149.84 108.624 149.84C106.824 149.84 105.864 150.92 105.864 152.98C105.864 155.04 106.824 156.14 108.624 156.14C110.264 156.14 111.324 155.04 111.324 152.98ZM117.221 158H114.921V148H117.221V149.38C117.841 148.32 118.861 147.7 120.241 147.7C122.661 147.7 123.961 149.12 123.961 152.04H121.861C121.861 150.74 121.221 149.84 119.741 149.84C118.161 149.84 117.221 150.92 117.221 152.98V158ZM132.311 151.62C132.311 149.8 130.731 149.64 129.631 149.64C128.491 149.64 127.031 149.76 127.031 151.46H124.931C124.931 148.76 126.731 147.7 129.631 147.7C132.971 147.7 134.611 148.76 134.611 151.96V158H132.311V156.64C131.911 157.62 130.971 158.3 128.771 158.3C126.251 158.3 124.371 157.64 124.371 155.16C124.371 153.16 125.951 152.32 128.771 152.02L132.311 151.66V151.62ZM132.311 153.32L129.111 153.64C127.811 153.78 126.771 154.14 126.771 155.12C126.771 155.88 127.371 156.34 129.091 156.34C131.331 156.34 132.211 155.38 132.311 154.64V153.32ZM146.176 158H143.876V152.62C143.876 150.92 143.356 149.84 141.216 149.84C139.316 149.84 138.316 150.92 138.316 152.98V158H136.016V148H138.316V149.4C138.976 148.32 140.116 147.7 141.856 147.7C144.756 147.7 146.176 149.02 146.176 152.42V158ZM148.783 154.44V150.1H146.383V148H148.783L149.583 144H151.083L151.063 148H156.083V150.1H151.083V154.14C151.083 155.18 151.263 156.14 152.483 156.14C153.383 156.14 154.063 155.7 154.063 154.2H156.163C156.163 157.3 154.743 158.3 152.403 158.3C150.043 158.3 148.783 157.18 148.783 154.44ZM167.063 147.7C170.243 147.7 171.923 149.6 171.923 152H169.823C169.823 150.74 168.883 149.84 167.043 149.84C165.243 149.84 164.023 150.66 164.023 152.96C164.023 155.36 165.383 156.14 167.163 156.14C169.043 156.14 169.903 155.24 169.903 154H172.003C172.003 156.4 170.463 158.3 167.103 158.3C163.543 158.3 161.623 156.48 161.623 153C161.623 149.48 163.283 147.7 167.063 147.7ZM172.61 153C172.61 149.52 174.43 147.7 178.21 147.7C181.99 147.7 183.81 149.52 183.81 153C183.81 156.48 181.99 158.3 178.21 158.3C174.43 158.3 172.61 156.48 172.61 153ZM175.01 153C175.01 155.06 176.05 156.14 178.21 156.14C180.37 156.14 181.41 155.06 181.41 153C181.41 150.92 180.37 149.84 178.21 149.84C175.97 149.84 175.01 150.92 175.01 153ZM194.272 158H191.972V152.22C191.972 150.92 191.532 149.84 189.752 149.84C188.152 149.84 187.312 150.92 187.312 152.98V158H185.012V148H187.312V149.38C187.952 148.32 188.992 147.7 190.572 147.7C192.072 147.7 193.132 148.26 193.712 149.36C194.312 148.4 195.352 147.7 197.012 147.7C199.932 147.7 201.212 149.02 201.212 152.42V158H198.912V152.62C198.912 150.92 198.472 149.84 196.712 149.84C195.092 149.84 194.272 150.92 194.272 152.24V158ZM211.88 158H209.58V152.22C209.58 150.92 209.14 149.84 207.36 149.84C205.76 149.84 204.92 150.92 204.92 152.98V158H202.62V148H204.92V149.38C205.56 148.32 206.6 147.7 208.18 147.7C209.68 147.7 210.74 148.26 211.32 149.36C211.92 148.4 212.96 147.7 214.62 147.7C217.54 147.7 218.82 149.02 218.82 152.42V158H216.52V152.62C216.52 150.92 216.08 149.84 214.32 149.84C212.7 149.84 211.88 150.92 211.88 152.24V158ZM220.028 148H222.328V153.38C222.328 155.06 222.848 156.14 224.988 156.14C226.888 156.14 227.888 155.06 227.888 153V148H230.188V158H227.888V156.6C227.208 157.68 226.088 158.3 224.348 158.3C221.448 158.3 220.028 156.98 220.028 153.56V148ZM241.941 158H239.641V152.62C239.641 150.92 239.121 149.84 236.981 149.84C235.081 149.84 234.081 150.92 234.081 152.98V158H231.781V148H234.081V149.4C234.741 148.32 235.881 147.7 237.621 147.7C240.521 147.7 241.941 149.02 241.941 152.42V158ZM242.994 144.96C242.994 143.94 243.434 143.46 244.494 143.46C245.534 143.46 245.994 143.94 245.994 144.96C245.994 145.96 245.534 146.46 244.494 146.46C243.434 146.46 242.994 145.96 242.994 144.96ZM243.334 158V148H245.634V158H243.334ZM249.031 154.44V150.1H246.631V148H249.031L249.831 144H251.331L251.311 148H256.331V150.1H251.331V154.14C251.331 155.18 251.511 156.14 252.731 156.14C253.631 156.14 254.311 155.7 254.311 154.2H256.411C256.411 157.3 254.991 158.3 252.651 158.3C250.291 158.3 249.031 157.18 249.031 154.44ZM264.275 157.66C263.195 160.74 262.755 162.6 259.875 162.6C257.715 162.6 256.775 160.94 256.775 158.74H258.775C258.775 160.3 259.295 160.66 259.895 160.66C260.755 160.66 261.135 159.76 261.595 158.44L261.775 157.86L256.555 148H259.155L262.815 154.88L265.215 148H267.655L264.275 157.66ZM272.642 153C272.642 149.52 274.462 147.7 278.242 147.7C282.022 147.7 283.842 149.52 283.842 153C283.842 156.48 282.022 158.3 278.242 158.3C274.462 158.3 272.642 156.48 272.642 153ZM275.042 153C275.042 155.06 276.082 156.14 278.242 156.14C280.402 156.14 281.442 155.06 281.442 153C281.442 150.92 280.402 149.84 278.242 149.84C276.002 149.84 275.042 150.92 275.042 153ZM286.35 147.02C286.35 144.34 287.47 143 290.05 143C292.41 143 293.73 144 293.73 147.1H291.63C291.63 145.64 291.09 145.14 290.07 145.14C289.15 145.14 288.65 145.6 288.65 147.12V148H293.55V150.1H288.65V158H286.35V150.1H284.25V148H286.35V147.02ZM29.8509 174.96C29.8509 173.94 30.2909 173.46 31.3509 173.46C32.3909 173.46 32.8509 173.94 32.8509 174.96C32.8509 175.96 32.3909 176.46 31.3509 176.46C30.2909 176.46 29.8509 175.96 29.8509 174.96ZM30.1909 188V178H32.4909V188H30.1909ZM44.2478 188H41.9478V182.62C41.9478 180.92 41.4278 179.84 39.2878 179.84C37.3878 179.84 36.3878 180.92 36.3878 182.98V188H34.0878V178H36.3878V179.4C37.0478 178.32 38.1878 177.7 39.9278 177.7C42.8278 177.7 44.2478 179.02 44.2478 182.42V188ZM55.8009 188H53.5009V182.62C53.5009 180.92 52.9809 179.84 50.8409 179.84C48.9409 179.84 47.9409 180.92 47.9409 182.98V188H45.6409V178H47.9409V179.4C48.6009 178.32 49.7409 177.7 51.4809 177.7C54.3809 177.7 55.8009 179.02 55.8009 182.42V188ZM56.794 183C56.794 179.52 58.614 177.7 62.394 177.7C66.174 177.7 67.994 179.52 67.994 183C67.994 186.48 66.174 188.3 62.394 188.3C58.614 188.3 56.794 186.48 56.794 183ZM59.194 183C59.194 185.06 60.234 186.14 62.394 186.14C64.554 186.14 65.594 185.06 65.594 183C65.594 180.92 64.554 179.84 62.394 179.84C60.154 179.84 59.194 180.92 59.194 183ZM72.0964 188L67.7964 178H70.3364L73.3564 185.06L76.3964 178H78.9364L74.6364 188H72.0964ZM86.4684 181.62C86.4684 179.8 84.8884 179.64 83.7884 179.64C82.6484 179.64 81.1884 179.76 81.1884 181.46H79.0884C79.0884 178.76 80.8884 177.7 83.7884 177.7C87.1284 177.7 88.7684 178.76 88.7684 181.96V188H86.4684V186.64C86.0684 187.62 85.1284 188.3 82.9284 188.3C80.4084 188.3 78.5284 187.64 78.5284 185.16C78.5284 183.16 80.1084 182.32 82.9284 182.02L86.4684 181.66V181.62ZM86.4684 183.32L83.2684 183.64C81.9684 183.78 80.9284 184.14 80.9284 185.12C80.9284 185.88 81.5284 186.34 83.2484 186.34C85.4884 186.34 86.3684 185.38 86.4684 184.64V183.32ZM91.9737 184.44V180.1H89.5737V178H91.9737L92.7737 174H94.2737L94.2537 178H99.2737V180.1H94.2737V184.14C94.2737 185.18 94.4537 186.14 95.6737 186.14C96.5737 186.14 97.2537 185.7 97.2537 184.2H99.3537C99.3537 187.3 97.9337 188.3 95.5937 188.3C93.2337 188.3 91.9737 187.18 91.9737 184.44ZM100.018 183C100.018 179.52 101.838 177.7 105.618 177.7C109.398 177.7 111.218 179.52 111.218 183C111.218 186.48 109.398 188.3 105.618 188.3C101.838 188.3 100.018 186.48 100.018 183ZM102.418 183C102.418 185.06 103.458 186.14 105.618 186.14C107.778 186.14 108.818 185.06 108.818 183C108.818 180.92 107.778 179.84 105.618 179.84C103.378 179.84 102.418 180.92 102.418 183ZM114.721 188H112.421V178H114.721V179.38C115.341 178.32 116.361 177.7 117.741 177.7C120.161 177.7 121.461 179.12 121.461 182.04H119.361C119.361 180.74 118.721 179.84 117.241 179.84C115.661 179.84 114.721 180.92 114.721 182.98V188ZM122.11 180.7C122.11 178.58 123.69 177.7 126.77 177.7C130.25 177.7 131.81 178.8 131.81 181.4H129.71C129.71 180.04 128.55 179.64 126.37 179.64C124.47 179.64 124.11 180.16 124.11 180.66C124.11 181.22 124.95 181.62 127.19 182.02C130.03 182.52 131.93 182.82 131.93 185.24C131.93 187.44 130.33 188.3 127.31 188.3C123.69 188.3 122.07 187.2 122.07 184.6H124.17C124.17 185.9 125.55 186.34 127.61 186.34C129.29 186.34 129.93 185.92 129.93 185.3C129.93 184.4 128.81 184.36 126.71 184C124.53 183.66 122.11 183.08 122.11 180.7ZM145.26 181.62C145.26 179.8 143.68 179.64 142.58 179.64C141.44 179.64 139.98 179.76 139.98 181.46H137.88C137.88 178.76 139.68 177.7 142.58 177.7C145.92 177.7 147.56 178.76 147.56 181.96V188H145.26V186.64C144.86 187.62 143.92 188.3 141.72 188.3C139.2 188.3 137.32 187.64 137.32 185.16C137.32 183.16 138.9 182.32 141.72 182.02L145.26 181.66V181.62ZM145.26 183.32L142.06 183.64C140.76 183.78 139.72 184.14 139.72 185.12C139.72 185.88 140.32 186.34 142.04 186.34C144.28 186.34 145.16 185.38 145.26 184.64V183.32ZM159.125 188H156.825V182.62C156.825 180.92 156.305 179.84 154.165 179.84C152.265 179.84 151.265 180.92 151.265 182.98V188H148.965V178H151.265V179.4C151.925 178.32 153.065 177.7 154.805 177.7C157.705 177.7 159.125 179.02 159.125 182.42V188ZM168.378 188V186.48C167.798 187.58 166.778 188.3 164.978 188.3C162.198 188.3 160.118 186.48 160.118 183C160.118 179.52 161.898 177.7 164.898 177.7C166.738 177.7 167.798 178.34 168.378 179.46V173H170.678V188H168.378ZM162.518 182.98C162.518 185.04 163.518 186.14 165.418 186.14C167.378 186.14 168.378 185.04 168.378 182.98C168.378 180.92 167.378 179.84 165.418 179.84C163.238 179.84 162.518 180.92 162.518 182.98ZM187.182 183.28V183.68H179.122C179.322 185.66 180.462 186.34 182.282 186.34C183.842 186.34 184.962 185.54 184.962 184.58L187.062 184.6C187.062 186.8 185.382 188.3 182.282 188.3C178.522 188.3 176.682 186.46 176.682 182.98C176.682 179.58 178.542 177.7 181.922 177.7C185.682 177.7 187.182 179.6 187.182 183.28ZM179.182 181.98H184.902C184.682 180.34 183.582 179.64 182.022 179.64C180.622 179.64 179.502 180.44 179.182 181.98ZM198.541 188H196.241V182.62C196.241 180.92 195.721 179.84 193.581 179.84C191.681 179.84 190.681 180.92 190.681 182.98V188H188.381V178H190.681V179.4C191.341 178.32 192.481 177.7 194.221 177.7C197.121 177.7 198.541 179.02 198.541 182.42V188ZM201.148 184.44V180.1H198.748V178H201.148L201.948 174H203.448L203.428 178H208.448V180.1H203.448V184.14C203.448 185.18 203.628 186.14 204.848 186.14C205.748 186.14 206.428 185.7 206.428 184.2H208.528C208.528 187.3 207.108 188.3 204.768 188.3C202.408 188.3 201.148 187.18 201.148 184.44ZM211.892 188H209.592V178H211.892V179.38C212.512 178.32 213.532 177.7 214.912 177.7C217.332 177.7 218.632 179.12 218.632 182.04H216.532C216.532 180.74 215.892 179.84 214.412 179.84C212.832 179.84 211.892 180.92 211.892 182.98V188ZM229.371 183.28V183.68H221.311C221.511 185.66 222.651 186.34 224.471 186.34C226.031 186.34 227.151 185.54 227.151 184.58L229.251 184.6C229.251 186.8 227.571 188.3 224.471 188.3C220.711 188.3 218.871 186.46 218.871 182.98C218.871 179.58 220.731 177.7 224.111 177.7C227.871 177.7 229.371 179.6 229.371 183.28ZM221.371 181.98H227.091C226.871 180.34 225.771 179.64 224.211 179.64C222.811 179.64 221.691 180.44 221.371 181.98ZM232.87 192H230.57V178H232.87V179.4C233.43 178.32 234.43 177.7 236.17 177.7C238.89 177.7 240.73 179.52 240.73 183C240.73 186.48 238.59 188.3 236.09 188.3C234.39 188.3 233.41 187.6 232.87 186.52V192ZM238.33 182.98C238.33 180.92 237.53 179.84 235.63 179.84C233.83 179.84 232.87 180.92 232.87 182.98C232.87 185.04 233.83 186.14 235.63 186.14C237.27 186.14 238.33 185.04 238.33 182.98ZM244.228 188H241.928V178H244.228V179.38C244.848 178.32 245.868 177.7 247.248 177.7C249.668 177.7 250.968 179.12 250.968 182.04H248.868C248.868 180.74 248.228 179.84 246.748 179.84C245.168 179.84 244.228 180.92 244.228 182.98V188ZM261.706 183.28V183.68H253.646C253.846 185.66 254.986 186.34 256.806 186.34C258.366 186.34 259.486 185.54 259.486 184.58L261.586 184.6C261.586 186.8 259.906 188.3 256.806 188.3C253.046 188.3 251.206 186.46 251.206 182.98C251.206 179.58 253.066 177.7 256.446 177.7C260.206 177.7 261.706 179.6 261.706 183.28ZM253.706 181.98H259.426C259.206 180.34 258.106 179.64 256.546 179.64C255.146 179.64 254.026 180.44 253.706 181.98ZM273.065 188H270.765V182.62C270.765 180.92 270.245 179.84 268.105 179.84C266.205 179.84 265.205 180.92 265.205 182.98V188H262.905V178H265.205V179.4C265.865 178.32 267.005 177.7 268.745 177.7C271.645 177.7 273.065 179.02 273.065 182.42V188ZM284.558 183.28V183.68H276.498C276.698 185.66 277.838 186.34 279.658 186.34C281.218 186.34 282.338 185.54 282.338 184.58L284.438 184.6C284.438 186.8 282.758 188.3 279.658 188.3C275.898 188.3 274.058 186.46 274.058 182.98C274.058 179.58 275.918 177.7 279.298 177.7C283.058 177.7 284.558 179.6 284.558 183.28ZM276.558 181.98H282.278C282.058 180.34 280.958 179.64 279.398 179.64C277.998 179.64 276.878 180.44 276.558 181.98ZM285.557 178H287.857V183.38C287.857 185.06 288.377 186.14 290.517 186.14C292.417 186.14 293.417 185.06 293.417 183V178H295.717V188H293.417V186.6C292.737 187.68 291.617 188.3 289.877 188.3C286.977 188.3 285.557 186.98 285.557 183.56V178ZM299.61 188H297.31V178H299.61V179.38C300.23 178.32 301.25 177.7 302.63 177.7C305.05 177.7 306.35 179.12 306.35 182.04H304.25C304.25 180.74 303.61 179.84 302.13 179.84C300.55 179.84 299.61 180.92 299.61 182.98V188ZM307 180.7C307 178.58 308.58 177.7 311.66 177.7C315.14 177.7 316.7 178.8 316.7 181.4H314.6C314.6 180.04 313.44 179.64 311.26 179.64C309.36 179.64 309 180.16 309 180.66C309 181.22 309.84 181.62 312.08 182.02C314.92 182.52 316.82 182.82 316.82 185.24C316.82 187.44 315.22 188.3 312.2 188.3C308.58 188.3 306.96 187.2 306.96 184.6H309.06C309.06 185.9 310.44 186.34 312.5 186.34C314.18 186.34 314.82 185.92 314.82 185.3C314.82 184.4 313.7 184.36 311.6 184C309.42 183.66 307 183.08 307 180.7ZM32.4909 218L28.7909 208H31.3309L33.7509 214.58L36.1909 208H38.7309L41.1509 214.58L43.5909 208H46.1309L42.4309 218H39.8909L37.4509 211.42L35.0309 218H32.4909ZM45.9339 213C45.9339 209.52 47.7539 207.7 51.5339 207.7C55.3139 207.7 57.1339 209.52 57.1339 213C57.1339 216.48 55.3139 218.3 51.5339 218.3C47.7539 218.3 45.9339 216.48 45.9339 213ZM48.3339 213C48.3339 215.06 49.3739 216.14 51.5339 216.14C53.6939 216.14 54.7339 215.06 54.7339 213C54.7339 210.92 53.6939 209.84 51.5339 209.84C49.2939 209.84 48.3339 210.92 48.3339 213ZM60.6362 218H58.3362V208H60.6362V209.38C61.2562 208.32 62.2762 207.7 63.6562 207.7C66.0762 207.7 67.3762 209.12 67.3762 212.04H65.2762C65.2762 210.74 64.6362 209.84 63.1562 209.84C61.5762 209.84 60.6362 210.92 60.6362 212.98V218ZM70.6854 218H68.3854V203H70.6854V218ZM73.6254 213L78.7854 218H75.8454L70.6854 213L75.8454 208H78.7854L73.6254 213ZM79.0517 204.96C79.0517 203.94 79.4917 203.46 80.5517 203.46C81.5917 203.46 82.0517 203.94 82.0517 204.96C82.0517 205.96 81.5917 206.46 80.5517 206.46C79.4917 206.46 79.0517 205.96 79.0517 204.96ZM79.3917 218V208H81.6917V218H79.3917ZM93.4486 218H91.1486V212.62C91.1486 210.92 90.6286 209.84 88.4886 209.84C86.5886 209.84 85.5886 210.92 85.5886 212.98V218H83.2886V208H85.5886V209.4C86.2486 208.32 87.3886 207.7 89.1286 207.7C92.0286 207.7 93.4486 209.02 93.4486 212.42V218ZM104.842 205.54V207.36C104.202 206.98 103.362 206.8 102.642 206.8C102.042 206.8 101.222 207.04 100.962 207.78C103.322 208.08 104.502 209.24 104.502 211.2C104.502 213.52 102.962 214.7 99.6617 214.7C97.3217 214.7 96.4417 214.72 96.4417 215.28C96.4417 215.76 97.2817 215.9 99.8817 216.16C102.822 216.48 105.022 216.52 105.022 219.18C105.022 221.26 103.342 222.2 100.002 222.2C96.0617 222.2 94.4417 221.1 94.4417 218.5H96.5417C96.5417 219.82 97.7817 220.26 100.062 220.26C101.902 220.26 103.062 220.02 103.062 219.16C103.062 218.16 101.862 218.42 99.5617 218.16C97.2217 217.9 94.4817 217.76 94.4817 215.5C94.4817 214.56 94.9817 214.02 95.7617 213.7C95.0217 213.12 94.6417 212.28 94.6417 211.2C94.6417 208.06 97.5417 207.7 100.022 207.7C100.202 206.24 101.142 205.1 102.742 205.1C103.542 205.1 104.282 205.32 104.842 205.54ZM97.0417 211.18C97.0417 212.28 98.0417 212.74 99.6417 212.74C101.302 212.74 102.102 212.28 102.102 211.18C102.102 210.1 101.202 209.64 99.5417 209.64C97.6617 209.64 97.0417 210.1 97.0417 211.18ZM112.814 214.44V210.1H110.414V208H112.814L113.614 204H115.114L115.094 208H120.114V210.1H115.114V214.14C115.114 215.18 115.294 216.14 116.514 216.14C117.414 216.14 118.094 215.7 118.094 214.2H120.194C120.194 217.3 118.774 218.3 116.434 218.3C114.074 218.3 112.814 217.18 112.814 214.44ZM120.859 213C120.859 209.52 122.679 207.7 126.459 207.7C130.239 207.7 132.059 209.52 132.059 213C132.059 216.48 130.239 218.3 126.459 218.3C122.679 218.3 120.859 216.48 120.859 213ZM123.259 213C123.259 215.06 124.299 216.14 126.459 216.14C128.619 216.14 129.659 215.06 129.659 213C129.659 210.92 128.619 209.84 126.459 209.84C124.219 209.84 123.259 210.92 123.259 213ZM143.261 205.54V207.36C142.621 206.98 141.781 206.8 141.061 206.8C140.461 206.8 139.641 207.04 139.381 207.78C141.741 208.08 142.921 209.24 142.921 211.2C142.921 213.52 141.381 214.7 138.081 214.7C135.741 214.7 134.861 214.72 134.861 215.28C134.861 215.76 135.701 215.9 138.301 216.16C141.241 216.48 143.441 216.52 143.441 219.18C143.441 221.26 141.761 222.2 138.421 222.2C134.481 222.2 132.861 221.1 132.861 218.5H134.961C134.961 219.82 136.201 220.26 138.481 220.26C140.321 220.26 141.481 220.02 141.481 219.16C141.481 218.16 140.281 218.42 137.981 218.16C135.641 217.9 132.901 217.76 132.901 215.5C132.901 214.56 133.401 214.02 134.181 213.7C133.441 213.12 133.061 212.28 133.061 211.2C133.061 208.06 135.961 207.7 138.441 207.7C138.621 206.24 139.561 205.1 141.161 205.1C141.961 205.1 142.701 205.32 143.261 205.54ZM135.461 211.18C135.461 212.28 136.461 212.74 138.061 212.74C139.721 212.74 140.521 212.28 140.521 211.18C140.521 210.1 139.621 209.64 137.961 209.64C136.081 209.64 135.461 210.1 135.461 211.18ZM154.367 213.28V213.68H146.307C146.507 215.66 147.647 216.34 149.467 216.34C151.027 216.34 152.147 215.54 152.147 214.58L154.247 214.6C154.247 216.8 152.567 218.3 149.467 218.3C145.707 218.3 143.867 216.46 143.867 212.98C143.867 209.58 145.727 207.7 149.107 207.7C152.867 207.7 154.367 209.6 154.367 213.28ZM146.367 211.98H152.087C151.867 210.34 150.767 209.64 149.207 209.64C147.807 209.64 146.687 210.44 146.367 211.98ZM157.367 214.44V210.1H154.967V208H157.367L158.167 204H159.667L159.647 208H164.667V210.1H159.667V214.14C159.667 215.18 159.847 216.14 161.067 216.14C161.967 216.14 162.647 215.7 162.647 214.2H164.747C164.747 217.3 163.327 218.3 160.987 218.3C158.627 218.3 157.367 217.18 157.367 214.44ZM168.111 218H165.811V203H168.111V209.4C168.771 208.32 169.911 207.7 171.651 207.7C174.551 207.7 175.971 209.02 175.971 212.42V218H173.671V212.62C173.671 210.92 173.151 209.84 171.011 209.84C169.111 209.84 168.111 210.92 168.111 212.98V218ZM187.464 213.28V213.68H179.404C179.604 215.66 180.744 216.34 182.564 216.34C184.124 216.34 185.244 215.54 185.244 214.58L187.344 214.6C187.344 216.8 185.664 218.3 182.564 218.3C178.804 218.3 176.964 216.46 176.964 212.98C176.964 209.58 178.824 207.7 182.204 207.7C185.964 207.7 187.464 209.6 187.464 213.28ZM179.464 211.98H185.184C184.964 210.34 183.864 209.64 182.304 209.64C180.904 209.64 179.784 210.44 179.464 211.98ZM190.964 218H188.664V208H190.964V209.38C191.584 208.32 192.604 207.7 193.984 207.7C196.404 207.7 197.704 209.12 197.704 212.04H195.604C195.604 210.74 194.964 209.84 193.484 209.84C191.904 209.84 190.964 210.92 190.964 212.98V218ZM205.308 214.44V210.1H202.908V208H205.308L206.108 204H207.608L207.588 208H212.608V210.1H207.608V214.14C207.608 215.18 207.788 216.14 209.008 216.14C209.908 216.14 210.588 215.7 210.588 214.2H212.688C212.688 217.3 211.268 218.3 208.928 218.3C206.568 218.3 205.308 217.18 205.308 214.44ZM213.353 213C213.353 209.52 215.173 207.7 218.953 207.7C222.733 207.7 224.553 209.52 224.553 213C224.553 216.48 222.733 218.3 218.953 218.3C215.173 218.3 213.353 216.48 213.353 213ZM215.753 213C215.753 215.06 216.793 216.14 218.953 216.14C221.113 216.14 222.153 215.06 222.153 213C222.153 210.92 221.113 209.84 218.953 209.84C216.713 209.84 215.753 210.92 215.753 213ZM235.59 207.7C238.77 207.7 240.45 209.6 240.45 212H238.35C238.35 210.74 237.41 209.84 235.57 209.84C233.77 209.84 232.55 210.66 232.55 212.96C232.55 215.36 233.91 216.14 235.69 216.14C237.57 216.14 238.43 215.24 238.43 214H240.53C240.53 216.4 238.99 218.3 235.63 218.3C232.07 218.3 230.15 216.48 230.15 213C230.15 209.48 231.81 207.7 235.59 207.7ZM243.837 218H241.537V208H243.837V209.38C244.457 208.32 245.477 207.7 246.857 207.7C249.277 207.7 250.577 209.12 250.577 212.04H248.477C248.477 210.74 247.837 209.84 246.357 209.84C244.777 209.84 243.837 210.92 243.837 212.98V218ZM261.315 213.28V213.68H253.255C253.455 215.66 254.595 216.34 256.415 216.34C257.975 216.34 259.095 215.54 259.095 214.58L261.195 214.6C261.195 216.8 259.515 218.3 256.415 218.3C252.655 218.3 250.815 216.46 250.815 212.98C250.815 209.58 252.675 207.7 256.055 207.7C259.815 207.7 261.315 209.6 261.315 213.28ZM253.315 211.98H259.035C258.815 210.34 257.715 209.64 256.155 209.64C254.755 209.64 253.635 210.44 253.315 211.98ZM269.854 211.62C269.854 209.8 268.274 209.64 267.174 209.64C266.034 209.64 264.574 209.76 264.574 211.46H262.474C262.474 208.76 264.274 207.7 267.174 207.7C270.514 207.7 272.154 208.76 272.154 211.96V218H269.854V216.64C269.454 217.62 268.514 218.3 266.314 218.3C263.794 218.3 261.914 217.64 261.914 215.16C261.914 213.16 263.494 212.32 266.314 212.02L269.854 211.66V211.62ZM269.854 213.32L266.654 213.64C265.354 213.78 264.314 214.14 264.314 215.12C264.314 215.88 264.914 216.34 266.634 216.34C268.874 216.34 269.754 215.38 269.854 214.64V213.32ZM275.36 214.44V210.1H272.96V208H275.36L276.16 204H277.66L277.64 208H282.66V210.1H277.66V214.14C277.66 215.18 277.84 216.14 279.06 216.14C279.96 216.14 280.64 215.7 280.64 214.2H282.74C282.74 217.3 281.32 218.3 278.98 218.3C276.62 218.3 275.36 217.18 275.36 214.44ZM293.904 213.28V213.68H285.844C286.044 215.66 287.184 216.34 289.004 216.34C290.564 216.34 291.684 215.54 291.684 214.58L293.784 214.6C293.784 216.8 292.104 218.3 289.004 218.3C285.244 218.3 283.404 216.46 283.404 212.98C283.404 209.58 285.264 207.7 288.644 207.7C292.404 207.7 293.904 209.6 293.904 213.28ZM285.904 211.98H291.624C291.404 210.34 290.304 209.64 288.744 209.64C287.344 209.64 286.224 210.44 285.904 211.98ZM29.8509 234.96C29.8509 233.94 30.2909 233.46 31.3509 233.46C32.3909 233.46 32.8509 233.94 32.8509 234.96C32.8509 235.96 32.3909 236.46 31.3509 236.46C30.2909 236.46 29.8509 235.96 29.8509 234.96ZM30.1909 248V238H32.4909V248H30.1909ZM43.3478 248H41.0478V242.22C41.0478 240.92 40.6078 239.84 38.8278 239.84C37.2278 239.84 36.3878 240.92 36.3878 242.98V248H34.0878V238H36.3878V239.38C37.0278 238.32 38.0678 237.7 39.6478 237.7C41.1478 237.7 42.2078 238.26 42.7878 239.36C43.3878 238.4 44.4278 237.7 46.0878 237.7C49.0078 237.7 50.2878 239.02 50.2878 242.42V248H47.9878V242.62C47.9878 240.92 47.5478 239.84 45.7878 239.84C44.1678 239.84 43.3478 240.92 43.3478 242.24V248ZM53.9956 252H51.6956V238H53.9956V239.4C54.5556 238.32 55.5556 237.7 57.2956 237.7C60.0156 237.7 61.8556 239.52 61.8556 243C61.8556 246.48 59.7156 248.3 57.2156 248.3C55.5156 248.3 54.5356 247.6 53.9956 246.52V252ZM59.4556 242.98C59.4556 240.92 58.6556 239.84 56.7556 239.84C54.9556 239.84 53.9956 240.92 53.9956 242.98C53.9956 245.04 54.9556 246.14 56.7556 246.14C58.3956 246.14 59.4556 245.04 59.4556 242.98ZM70.3934 241.62C70.3934 239.8 68.8134 239.64 67.7134 239.64C66.5734 239.64 65.1134 239.76 65.1134 241.46H63.0134C63.0134 238.76 64.8134 237.7 67.7134 237.7C71.0534 237.7 72.6934 238.76 72.6934 241.96V248H70.3934V246.64C69.9934 247.62 69.0534 248.3 66.8534 248.3C64.3334 248.3 62.4534 247.64 62.4534 245.16C62.4534 243.16 64.0334 242.32 66.8534 242.02L70.3934 241.66V241.62ZM70.3934 243.32L67.1934 243.64C65.8934 243.78 64.8534 244.14 64.8534 245.12C64.8534 245.88 65.4534 246.34 67.1734 246.34C69.4134 246.34 70.2934 245.38 70.3934 244.64V243.32ZM79.1387 237.7C82.3187 237.7 83.9987 239.6 83.9987 242H81.8987C81.8987 240.74 80.9587 239.84 79.1187 239.84C77.3187 239.84 76.0987 240.66 76.0987 242.96C76.0987 245.36 77.4587 246.14 79.2387 246.14C81.1187 246.14 81.9787 245.24 81.9787 244H84.0787C84.0787 246.4 82.5387 248.3 79.1787 248.3C75.6187 248.3 73.6987 246.48 73.6987 243C73.6987 239.48 75.3587 237.7 79.1387 237.7ZM86.8854 244.44V240.1H84.4854V238H86.8854L87.6854 234H89.1854L89.1654 238H94.1854V240.1H89.1854V244.14C89.1854 245.18 89.3654 246.14 90.5854 246.14C91.4854 246.14 92.1654 245.7 92.1654 244.2H94.2654C94.2654 247.3 92.8454 248.3 90.5054 248.3C88.1454 248.3 86.8854 247.18 86.8854 244.44ZM96.83 237.02C96.83 234.34 97.95 233 100.53 233C102.89 233 104.21 234 104.21 237.1H102.11C102.11 235.64 101.57 235.14 100.55 235.14C99.63 235.14 99.13 235.6 99.13 237.12V238H104.03V240.1H99.13V248H96.83V240.1H94.73V238H96.83V237.02ZM104.808 238H107.108V243.38C107.108 245.06 107.628 246.14 109.768 246.14C111.668 246.14 112.668 245.06 112.668 243V238H114.968V248H112.668V246.6C111.988 247.68 110.868 248.3 109.128 248.3C106.228 248.3 104.808 246.98 104.808 243.56V238ZM118.861 248H116.561V233H118.861V248ZM124.893 240.7C124.893 238.58 126.473 237.7 129.553 237.7C133.033 237.7 134.593 238.8 134.593 241.4H132.493C132.493 240.04 131.333 239.64 129.153 239.64C127.253 239.64 126.893 240.16 126.893 240.66C126.893 241.22 127.733 241.62 129.973 242.02C132.813 242.52 134.713 242.82 134.713 245.24C134.713 247.44 133.113 248.3 130.093 248.3C126.473 248.3 124.853 247.2 124.853 244.6H126.953C126.953 245.9 128.333 246.34 130.393 246.34C132.073 246.34 132.713 245.92 132.713 245.3C132.713 244.4 131.593 244.36 129.493 244C127.313 243.66 124.893 243.08 124.893 240.7ZM135.508 243C135.508 239.52 137.328 237.7 141.108 237.7C144.888 237.7 146.708 239.52 146.708 243C146.708 246.48 144.888 248.3 141.108 248.3C137.328 248.3 135.508 246.48 135.508 243ZM137.908 243C137.908 245.06 138.948 246.14 141.108 246.14C143.268 246.14 144.308 245.06 144.308 243C144.308 240.92 143.268 239.84 141.108 239.84C138.868 239.84 137.908 240.92 137.908 243ZM150.21 248H147.91V233H150.21V248ZM151.607 238H153.907V243.38C153.907 245.06 154.427 246.14 156.567 246.14C158.467 246.14 159.467 245.06 159.467 243V238H161.767V248H159.467V246.6C158.787 247.68 157.667 248.3 155.927 248.3C153.027 248.3 151.607 246.98 151.607 243.56V238ZM165.16 244.44V240.1H162.76V238H165.16L165.96 234H167.46L167.44 238H172.46V240.1H167.46V244.14C167.46 245.18 167.64 246.14 168.86 246.14C169.76 246.14 170.44 245.7 170.44 244.2H172.54C172.54 247.3 171.12 248.3 168.78 248.3C166.42 248.3 165.16 247.18 165.16 244.44ZM173.265 234.96C173.265 233.94 173.705 233.46 174.765 233.46C175.805 233.46 176.265 233.94 176.265 234.96C176.265 235.96 175.805 236.46 174.765 236.46C173.705 236.46 173.265 235.96 173.265 234.96ZM173.605 248V238H175.905V248H173.605ZM177.102 243C177.102 239.52 178.922 237.7 182.702 237.7C186.482 237.7 188.302 239.52 188.302 243C188.302 246.48 186.482 248.3 182.702 248.3C178.922 248.3 177.102 246.48 177.102 243ZM179.502 243C179.502 245.06 180.542 246.14 182.702 246.14C184.862 246.14 185.902 245.06 185.902 243C185.902 240.92 184.862 239.84 182.702 239.84C180.462 239.84 179.502 240.92 179.502 243ZM199.664 248H197.364V242.62C197.364 240.92 196.844 239.84 194.704 239.84C192.804 239.84 191.804 240.92 191.804 242.98V248H189.504V238H191.804V239.4C192.464 238.32 193.604 237.7 195.344 237.7C198.244 237.7 199.664 239.02 199.664 242.42V248ZM200.697 240.7C200.697 238.58 202.277 237.7 205.357 237.7C208.837 237.7 210.397 238.8 210.397 241.4H208.297C208.297 240.04 207.137 239.64 204.957 239.64C203.057 239.64 202.697 240.16 202.697 240.66C202.697 241.22 203.537 241.62 205.777 242.02C208.617 242.52 210.517 242.82 210.517 245.24C210.517 247.44 208.917 248.3 205.897 248.3C202.277 248.3 200.657 247.2 200.657 244.6H202.757C202.757 245.9 204.137 246.34 206.197 246.34C207.877 246.34 208.517 245.92 208.517 245.3C208.517 244.4 207.397 244.36 205.297 244C203.117 243.66 200.697 243.08 200.697 240.7ZM211.312 246.9C211.312 245.96 211.732 245.5 212.712 245.5C213.692 245.5 214.112 245.96 214.112 246.9C214.112 247.82 213.692 248.3 212.712 248.3C211.732 248.3 211.312 247.82 211.312 246.9Z" fill="white"/>
</g>
<rect x="0.5" y="0.5" width="398" height="474" stroke="#111111"/>
<defs>
<radialGradient id="paint0_angular_316_1598" cx="0" cy="0" r="1" gradientUnits="userSpaceOnUse" gradientTransform="translate(199.5 26.3581) rotate(90) scale(447.642 375.716)">
<stop stop-color="#111111" stop-opacity="0"/>
<stop offset="0.466" stop-color="#29220E"/>
</radialGradient>
<clipPath id="clip0_316_1598">
<rect x="1" y="1" width="397" height="473" fill="white"/>
</clipPath>
<clipPath id="clip1_316_1598">
<rect width="548.523" height="209.352" fill="white" transform="translate(-90 308)"/>
</clipPath>
</defs>
</svg>
