<svg width="822" height="595" viewBox="0 0 822 595" fill="none" xmlns="http://www.w3.org/2000/svg">
<ellipse cx="0.514635" cy="0.628783" rx="0.514635" ry="0.628783" transform="matrix(1 0 0 -1 735.682 322.735)" fill="#FFE8AB"/>
<ellipse cx="0.514635" cy="0.628783" rx="0.514635" ry="0.628783" transform="matrix(1 0 0 -1 752.562 373.944)" fill="#FFE8AB"/>
<ellipse cx="0.514635" cy="0.628783" rx="0.514635" ry="0.628783" transform="matrix(1 0 0 -1 683.888 261.868)" fill="#FFE8AB"/>
<ellipse cx="0.514635" cy="0.628783" rx="0.514635" ry="0.628783" transform="matrix(1 0 0 -1 709.744 370.926)" fill="#FFE8AB"/>
<ellipse cx="0.514635" cy="0.628783" rx="0.514635" ry="0.628783" transform="matrix(1 0 0 -1 667.419 299.948)" fill="#FFE8AB"/>
<ellipse cx="0.514635" cy="0.628783" rx="0.514635" ry="0.628783" transform="matrix(1 0 0 -1 797.677 164.732)" fill="#FFE8AB"/>
<ellipse cx="0.514635" cy="0.628783" rx="0.514635" ry="0.628783" transform="matrix(1 0 0 -1 682.859 31.1252)" fill="#FFE8AB"/>
<ellipse cx="0.514635" cy="0.628783" rx="0.514635" ry="0.628783" transform="matrix(1 0 0 -1 796.647 2.15039)" fill="#FFE8AB"/>
<ellipse cx="0.514635" cy="0.628783" rx="0.514635" ry="0.628783" transform="matrix(1 0 0 -1 637.776 271.661)" fill="#FFE8AB"/>
<ellipse cx="0.514635" cy="0.628783" rx="0.514635" ry="0.628783" transform="matrix(1 0 0 -1 820.907 345.872)" fill="#FFE8AB"/>
<ellipse cx="0.514635" cy="0.628783" rx="0.514635" ry="0.628783" transform="matrix(1 0 0 -1 656.677 389.07)" fill="#FFE8AB"/>
<ellipse cx="0.514635" cy="0.628783" rx="0.514635" ry="0.628783" transform="matrix(1 0 0 -1 773.148 298.69)" fill="#FFE8AB"/>
<ellipse cx="0.514635" cy="0.628783" rx="0.514635" ry="0.628783" transform="matrix(1 0 0 -1 756.515 266.295)" fill="#FFE8AB"/>
<ellipse cx="0.514635" cy="0.628783" rx="0.514635" ry="0.628783" transform="matrix(-1 0 0 1 86.3181 272.265)" fill="#FFE8AB"/>
<ellipse cx="0.514635" cy="0.628783" rx="0.514635" ry="0.628783" transform="matrix(-1 0 0 1 69.4377 221.056)" fill="#FFE8AB"/>
<ellipse cx="0.514635" cy="0.628783" rx="0.514635" ry="0.628783" transform="matrix(-1 0 0 1 138.112 333.132)" fill="#FFE8AB"/>
<ellipse cx="0.514635" cy="0.628783" rx="0.514635" ry="0.628783" transform="matrix(-1 0 0 1 112.256 224.074)" fill="#FFE8AB"/>
<ellipse cx="0.514635" cy="0.628783" rx="0.514635" ry="0.628783" transform="matrix(-1 0 0 1 154.581 295.052)" fill="#FFE8AB"/>
<ellipse cx="0.514635" cy="0.628783" rx="0.514635" ry="0.628783" transform="matrix(-1 0 0 1 24.3235 430.268)" fill="#FFE8AB"/>
<ellipse cx="0.514635" cy="0.628783" rx="0.514635" ry="0.628783" transform="matrix(-1 0 0 1 139.141 563.875)" fill="#FFE8AB"/>
<ellipse cx="0.514635" cy="0.628783" rx="0.514635" ry="0.628783" transform="matrix(-1 0 0 1 25.3528 592.85)" fill="#FFE8AB"/>
<ellipse cx="0.514635" cy="0.628783" rx="0.514635" ry="0.628783" transform="matrix(-1 0 0 1 184.224 323.339)" fill="#FFE8AB"/>
<ellipse cx="0.514635" cy="0.628783" rx="0.514635" ry="0.628783" transform="matrix(-1 0 0 1 1.09277 249.129)" fill="#FFE8AB"/>
<ellipse cx="0.514635" cy="0.628783" rx="0.514635" ry="0.628783" transform="matrix(-1 0 0 1 165.323 205.93)" fill="#FFE8AB"/>
<ellipse cx="0.514635" cy="0.628783" rx="0.514635" ry="0.628783" transform="matrix(-1 0 0 1 48.8518 296.31)" fill="#FFE8AB"/>
<ellipse cx="0.514635" cy="0.628783" rx="0.514635" ry="0.628783" transform="matrix(-1 0 0 1 65.4852 328.705)" fill="#FFE8AB"/>
</svg>
