<svg width="399" height="475" viewBox="0 0 399 475" fill="none" xmlns="http://www.w3.org/2000/svg">
<g clip-path="url(#clip0_322_1708)">
<rect x="1" y="1" width="397" height="473" fill="url(#paint0_angular_322_1708)"/>
<rect x="1" y="1" width="397" height="473" fill="#111111" fill-opacity="0.77"/>
<path d="M39.3909 106.509C33.5709 106.509 30.0909 102.939 30.0909 95.5586C30.0909 88.1786 33.4809 84.6086 40.5609 84.6086C47.0709 84.6086 50.7609 86.7686 50.7609 92.3486H46.6509C46.6509 89.2286 43.4709 88.5986 40.5009 88.5986C36.1509 88.5986 34.5309 90.6986 34.5309 95.5286C34.5309 100.419 36.7509 102.519 40.4409 102.519C42.9009 102.519 44.6409 100.689 45.9609 98.4986H40.3209V94.7786H50.9109V106.059H46.8009V101.919C44.9709 104.529 42.5109 106.509 39.3909 106.509ZM57.1111 106.059H53.0011V91.0586H57.1111V93.0686C58.0411 91.5086 59.4811 90.6086 61.4011 90.6086C64.9111 90.6086 66.9511 92.6486 66.9511 97.1186H63.2611C63.2611 95.5286 62.2711 94.4186 60.4411 94.4186C58.3411 94.4186 57.1111 95.8286 57.1111 98.5586V106.059ZM67.8558 98.5586C67.8558 93.3386 70.5858 90.6086 76.3158 90.6086C82.0458 90.6086 84.8058 93.3386 84.8058 98.5586C84.8058 103.779 82.0458 106.509 76.3158 106.509C70.5858 106.509 67.8558 103.779 67.8558 98.5586ZM72.1158 98.5586C72.1158 101.289 73.4958 102.699 76.3158 102.699C79.1658 102.699 80.5458 101.289 80.5458 98.5586C80.5458 95.8286 79.1658 94.4186 76.3158 94.4186C73.3158 94.4186 72.1158 95.8286 72.1158 98.5586ZM89.9958 106.059L84.5058 91.0586H89.0058L92.2758 99.9086L95.5158 91.0586H100.016L103.256 99.9086L106.496 91.0586H111.026L105.506 106.059H101.006L97.7658 97.2086L94.5258 106.059H89.9958ZM129.371 105.489C127.751 110.109 127.121 112.959 122.471 112.959C119.051 112.959 117.521 110.469 117.521 107.169H121.031C121.031 109.119 121.721 109.569 122.471 109.569C123.581 109.569 124.031 108.369 124.721 106.419L124.931 105.819L117.161 91.0586H121.811L126.791 100.479L130.061 91.0586H134.381L129.371 105.489ZM134.684 98.5586C134.684 93.3386 137.414 90.6086 143.144 90.6086C148.874 90.6086 151.634 93.3386 151.634 98.5586C151.634 103.779 148.874 106.509 143.144 106.509C137.414 106.509 134.684 103.779 134.684 98.5586ZM138.944 98.5586C138.944 101.289 140.324 102.699 143.144 102.699C145.994 102.699 147.374 101.289 147.374 98.5586C147.374 95.8286 145.994 94.4186 143.144 94.4186C140.144 94.4186 138.944 95.8286 138.944 98.5586ZM153.134 91.0586H157.244V98.9486C157.244 101.289 157.934 102.699 160.694 102.699C163.154 102.699 164.474 101.289 164.474 98.5586V91.0586H168.584V106.059H164.474V104.019C163.484 105.579 161.864 106.509 159.464 106.509C155.294 106.509 153.134 104.679 153.134 99.3386V91.0586ZM175.108 106.059H170.998V91.0586H175.108V93.0686C176.038 91.5086 177.478 90.6086 179.398 90.6086C182.908 90.6086 184.948 92.6486 184.948 97.1186H181.258C181.258 95.5286 180.268 94.4186 178.438 94.4186C176.338 94.4186 175.108 95.8286 175.108 98.5586V106.059ZM212.186 85.0586L204.176 106.059H199.556L191.546 85.0586H196.166L201.866 99.9986L207.566 85.0586H212.186ZM212.049 86.4986C212.049 84.8186 212.799 84.0086 214.539 84.0086C216.309 84.0086 217.059 84.8186 217.059 86.4986C217.059 88.1786 216.309 88.9886 214.539 88.9886C212.799 88.9886 212.049 88.1786 212.049 86.4986ZM212.499 106.059V91.0586H216.609V106.059H212.499ZM218.448 95.3186C218.448 91.9886 220.668 90.6086 225.558 90.6086C230.868 90.6086 233.208 92.2586 233.208 96.1586H229.488C229.488 94.5086 227.928 93.9986 224.778 93.9986C222.378 93.9986 221.898 94.6286 221.898 95.2286C221.898 95.9186 223.188 96.3686 226.218 96.8786C230.388 97.5386 233.388 97.9286 233.388 101.739C233.388 105.159 230.958 106.509 226.368 106.509C220.878 106.509 218.418 104.859 218.418 100.959H222.108C222.108 102.579 223.968 103.119 226.968 103.119C229.068 103.119 229.938 102.579 229.938 101.859C229.938 100.779 228.408 100.719 225.498 100.299C222.228 99.8786 218.448 99.0986 218.448 95.3186ZM234.726 86.4986C234.726 84.8186 235.476 84.0086 237.216 84.0086C238.986 84.0086 239.736 84.8186 239.736 86.4986C239.736 88.1786 238.986 88.9886 237.216 88.9886C235.476 88.9886 234.726 88.1786 234.726 86.4986ZM235.176 106.059V91.0586H239.286V106.059H235.176ZM241.095 98.5586C241.095 93.3386 243.825 90.6086 249.555 90.6086C255.285 90.6086 258.045 93.3386 258.045 98.5586C258.045 103.779 255.285 106.509 249.555 106.509C243.825 106.509 241.095 103.779 241.095 98.5586ZM245.355 98.5586C245.355 101.289 246.735 102.699 249.555 102.699C252.405 102.699 253.785 101.289 253.785 98.5586C253.785 95.8286 252.405 94.4186 249.555 94.4186C246.555 94.4186 245.355 95.8286 245.355 98.5586ZM275.295 106.059H271.185V98.1686C271.185 95.8286 270.495 94.4186 267.735 94.4186C265.275 94.4186 263.955 95.8286 263.955 98.5586V106.059H259.845V91.0586H263.955V93.0986C264.945 91.5386 266.565 90.6086 268.965 90.6086C273.135 90.6086 275.295 92.4386 275.295 97.7786V106.059ZM276.809 104.199C276.809 102.669 277.499 101.919 279.119 101.919C280.709 101.919 281.399 102.669 281.399 104.199C281.399 105.729 280.709 106.509 279.119 106.509C277.499 106.509 276.809 105.729 276.809 104.199Z" fill="#DCA802"/>
<path d="M30.1909 158V144H41.0909V146.2H32.5909V149.9H40.2909V152.1H32.5909V158H30.1909ZM43.9269 158H41.6269V148H43.9269V149.38C44.5469 148.32 45.5669 147.7 46.9469 147.7C49.3669 147.7 50.6669 149.12 50.6669 152.04H48.5669C48.5669 150.74 47.9269 149.84 46.4469 149.84C44.8669 149.84 43.9269 150.92 43.9269 152.98V158ZM51.2761 153C51.2761 149.52 53.0961 147.7 56.8761 147.7C60.6561 147.7 62.4761 149.52 62.4761 153C62.4761 156.48 60.6561 158.3 56.8761 158.3C53.0961 158.3 51.2761 156.48 51.2761 153ZM53.6761 153C53.6761 155.06 54.7161 156.14 56.8761 156.14C59.0361 156.14 60.0761 155.06 60.0761 153C60.0761 150.92 59.0361 149.84 56.8761 149.84C54.6361 149.84 53.6761 150.92 53.6761 153ZM72.9384 158H70.6384V152.22C70.6384 150.92 70.1984 149.84 68.4184 149.84C66.8184 149.84 65.9784 150.92 65.9784 152.98V158H63.6784V148H65.9784V149.38C66.6184 148.32 67.6584 147.7 69.2384 147.7C70.7384 147.7 71.7984 148.26 72.3784 149.36C72.9784 148.4 74.0184 147.7 75.6784 147.7C78.5984 147.7 79.8784 149.02 79.8784 152.42V158H77.5784V152.62C77.5784 150.92 77.1384 149.84 75.3784 149.84C73.7584 149.84 72.9384 150.92 72.9384 152.24V158ZM96.0815 145.54V147.36C95.4415 146.98 94.6015 146.8 93.8815 146.8C93.2815 146.8 92.4615 147.04 92.2015 147.78C94.5615 148.08 95.7415 149.24 95.7415 151.2C95.7415 153.52 94.2015 154.7 90.9015 154.7C88.5615 154.7 87.6815 154.72 87.6815 155.28C87.6815 155.76 88.5215 155.9 91.1215 156.16C94.0615 156.48 96.2615 156.52 96.2615 159.18C96.2615 161.26 94.5815 162.2 91.2415 162.2C87.3015 162.2 85.6815 161.1 85.6815 158.5H87.7815C87.7815 159.82 89.0215 160.26 91.3015 160.26C93.1415 160.26 94.3015 160.02 94.3015 159.16C94.3015 158.16 93.1015 158.42 90.8015 158.16C88.4615 157.9 85.7215 157.76 85.7215 155.5C85.7215 154.56 86.2215 154.02 87.0015 153.7C86.2615 153.12 85.8815 152.28 85.8815 151.2C85.8815 148.06 88.7815 147.7 91.2615 147.7C91.4415 146.24 92.3815 145.1 93.9815 145.1C94.7815 145.1 95.5215 145.32 96.0815 145.54ZM88.2815 151.18C88.2815 152.28 89.2815 152.74 90.8815 152.74C92.5415 152.74 93.3415 152.28 93.3415 151.18C93.3415 150.1 92.4415 149.64 90.7815 149.64C88.9015 149.64 88.2815 150.1 88.2815 151.18ZM99.3878 158H97.0878V148H99.3878V149.38C100.008 148.32 101.028 147.7 102.408 147.7C104.828 147.7 106.128 149.12 106.128 152.04H104.028C104.028 150.74 103.388 149.84 101.908 149.84C100.328 149.84 99.3878 150.92 99.3878 152.98V158ZM106.737 153C106.737 149.52 108.557 147.7 112.337 147.7C116.117 147.7 117.937 149.52 117.937 153C117.937 156.48 116.117 158.3 112.337 158.3C108.557 158.3 106.737 156.48 106.737 153ZM109.137 153C109.137 155.06 110.177 156.14 112.337 156.14C114.497 156.14 115.537 155.06 115.537 153C115.537 150.92 114.497 149.84 112.337 149.84C110.097 149.84 109.137 150.92 109.137 153ZM118.939 148H121.239V153.38C121.239 155.06 121.759 156.14 123.899 156.14C125.799 156.14 126.799 155.06 126.799 153V148H129.099V158H126.799V156.6C126.119 157.68 124.999 158.3 123.259 158.3C120.359 158.3 118.939 156.98 118.939 153.56V148ZM140.852 158H138.552V152.62C138.552 150.92 138.032 149.84 135.892 149.84C133.992 149.84 132.992 150.92 132.992 152.98V158H130.692V148H132.992V149.4C133.652 148.32 134.792 147.7 136.532 147.7C139.432 147.7 140.852 149.02 140.852 152.42V158ZM150.106 158V156.48C149.526 157.58 148.506 158.3 146.706 158.3C143.926 158.3 141.846 156.48 141.846 153C141.846 149.52 143.626 147.7 146.626 147.7C148.466 147.7 149.526 148.34 150.106 149.46V143H152.406V158H150.106ZM144.246 152.98C144.246 155.04 145.246 156.14 147.146 156.14C149.106 156.14 150.106 155.04 150.106 152.98C150.106 150.92 149.106 149.84 147.146 149.84C144.966 149.84 144.246 150.92 144.246 152.98ZM156.314 158H154.014V143H156.314V149.4C156.874 148.32 157.874 147.7 159.614 147.7C162.334 147.7 164.174 149.52 164.174 153C164.174 156.48 162.034 158.3 159.534 158.3C157.834 158.3 156.854 157.6 156.314 156.52V158ZM161.774 152.98C161.774 150.92 160.974 149.84 159.074 149.84C157.274 149.84 156.314 150.92 156.314 152.98C156.314 155.04 157.274 156.14 159.074 156.14C160.714 156.14 161.774 155.04 161.774 152.98ZM167.671 158H165.371V148H167.671V149.38C168.291 148.32 169.311 147.7 170.691 147.7C173.111 147.7 174.411 149.12 174.411 152.04H172.311C172.311 150.74 171.671 149.84 170.191 149.84C168.611 149.84 167.671 150.92 167.671 152.98V158ZM185.15 153.28V153.68H177.09C177.29 155.66 178.43 156.34 180.25 156.34C181.81 156.34 182.93 155.54 182.93 154.58L185.03 154.6C185.03 156.8 183.35 158.3 180.25 158.3C176.49 158.3 174.65 156.46 174.65 152.98C174.65 149.58 176.51 147.7 179.89 147.7C183.65 147.7 185.15 149.6 185.15 153.28ZM177.15 151.98H182.87C182.65 150.34 181.55 149.64 179.99 149.64C178.59 149.64 177.47 150.44 177.15 151.98ZM193.689 151.62C193.689 149.8 192.109 149.64 191.009 149.64C189.869 149.64 188.409 149.76 188.409 151.46H186.309C186.309 148.76 188.109 147.7 191.009 147.7C194.349 147.7 195.989 148.76 195.989 151.96V158H193.689V156.64C193.289 157.62 192.349 158.3 190.149 158.3C187.629 158.3 185.749 157.64 185.749 155.16C185.749 153.16 187.329 152.32 190.149 152.02L193.689 151.66V151.62ZM193.689 153.32L190.489 153.64C189.189 153.78 188.149 154.14 188.149 155.12C188.149 155.88 188.749 156.34 190.469 156.34C192.709 156.34 193.589 155.38 193.689 154.64V153.32ZM199.694 158H197.394V143H199.694V158ZM202.634 153L207.794 158H204.854L199.694 153L204.854 148H207.794L202.634 153ZM208.06 144.96C208.06 143.94 208.5 143.46 209.56 143.46C210.6 143.46 211.06 143.94 211.06 144.96C211.06 145.96 210.6 146.46 209.56 146.46C208.5 146.46 208.06 145.96 208.06 144.96ZM208.4 158V148H210.7V158H208.4ZM222.457 158H220.157V152.62C220.157 150.92 219.637 149.84 217.497 149.84C215.597 149.84 214.597 150.92 214.597 152.98V158H212.297V148H214.597V149.4C215.257 148.32 216.397 147.7 218.137 147.7C221.037 147.7 222.457 149.02 222.457 152.42V158ZM233.85 145.54V147.36C233.21 146.98 232.37 146.8 231.65 146.8C231.05 146.8 230.23 147.04 229.97 147.78C232.33 148.08 233.51 149.24 233.51 151.2C233.51 153.52 231.97 154.7 228.67 154.7C226.33 154.7 225.45 154.72 225.45 155.28C225.45 155.76 226.29 155.9 228.89 156.16C231.83 156.48 234.03 156.52 234.03 159.18C234.03 161.26 232.35 162.2 229.01 162.2C225.07 162.2 223.45 161.1 223.45 158.5H225.55C225.55 159.82 226.79 160.26 229.07 160.26C230.91 160.26 232.07 160.02 232.07 159.16C232.07 158.16 230.87 158.42 228.57 158.16C226.23 157.9 223.49 157.76 223.49 155.5C223.49 154.56 223.99 154.02 224.77 153.7C224.03 153.12 223.65 152.28 223.65 151.2C223.65 148.06 226.55 147.7 229.03 147.7C229.21 146.24 230.15 145.1 231.75 145.1C232.55 145.1 233.29 145.32 233.85 145.54ZM226.05 151.18C226.05 152.28 227.05 152.74 228.65 152.74C230.31 152.74 231.11 152.28 231.11 151.18C231.11 150.1 230.21 149.64 228.55 149.64C226.67 149.64 226.05 150.1 226.05 151.18ZM239.683 144.96C239.683 143.94 240.123 143.46 241.183 143.46C242.223 143.46 242.683 143.94 242.683 144.96C242.683 145.96 242.223 146.46 241.183 146.46C240.123 146.46 239.683 145.96 239.683 144.96ZM240.023 158V148H242.323V158H240.023ZM251.78 158V156.48C251.2 157.58 250.18 158.3 248.38 158.3C245.6 158.3 243.52 156.48 243.52 153C243.52 149.52 245.3 147.7 248.3 147.7C250.14 147.7 251.2 148.34 251.78 149.46V143H254.08V158H251.78ZM245.92 152.98C245.92 155.04 246.92 156.14 248.82 156.14C250.78 156.14 251.78 155.04 251.78 152.98C251.78 150.92 250.78 149.84 248.82 149.84C246.64 149.84 245.92 150.92 245.92 152.98ZM265.788 153.28V153.68H257.728C257.928 155.66 259.068 156.34 260.888 156.34C262.448 156.34 263.568 155.54 263.568 154.58L265.668 154.6C265.668 156.8 263.988 158.3 260.888 158.3C257.128 158.3 255.288 156.46 255.288 152.98C255.288 149.58 257.148 147.7 260.528 147.7C264.288 147.7 265.788 149.6 265.788 153.28ZM257.788 151.98H263.508C263.288 150.34 262.188 149.64 260.628 149.64C259.228 149.64 258.108 150.44 257.788 151.98ZM274.327 151.62C274.327 149.8 272.747 149.64 271.647 149.64C270.507 149.64 269.047 149.76 269.047 151.46H266.947C266.947 148.76 268.747 147.7 271.647 147.7C274.987 147.7 276.627 148.76 276.627 151.96V158H274.327V156.64C273.927 157.62 272.987 158.3 270.787 158.3C268.267 158.3 266.387 157.64 266.387 155.16C266.387 153.16 267.967 152.32 270.787 152.02L274.327 151.66V151.62ZM274.327 153.32L271.127 153.64C269.827 153.78 268.787 154.14 268.787 155.12C268.787 155.88 269.387 156.34 271.107 156.34C273.347 156.34 274.227 155.38 274.327 154.64V153.32ZM277.672 150.7C277.672 148.58 279.252 147.7 282.332 147.7C285.812 147.7 287.372 148.8 287.372 151.4H285.272C285.272 150.04 284.112 149.64 281.932 149.64C280.032 149.64 279.672 150.16 279.672 150.66C279.672 151.22 280.512 151.62 282.752 152.02C285.592 152.52 287.492 152.82 287.492 155.24C287.492 157.44 285.892 158.3 282.872 158.3C279.252 158.3 277.632 157.2 277.632 154.6H279.732C279.732 155.9 281.112 156.34 283.172 156.34C284.852 156.34 285.492 155.92 285.492 155.3C285.492 154.4 284.372 154.36 282.272 154C280.092 153.66 277.672 153.08 277.672 150.7ZM295.282 154.44V150.1H292.882V148H295.282L296.082 144H297.582L297.562 148H302.582V150.1H297.582V154.14C297.582 155.18 297.762 156.14 298.982 156.14C299.882 156.14 300.562 155.7 300.562 154.2H302.662C302.662 157.3 301.242 158.3 298.902 158.3C296.542 158.3 295.282 157.18 295.282 154.44ZM303.327 153C303.327 149.52 305.147 147.7 308.927 147.7C312.707 147.7 314.527 149.52 314.527 153C314.527 156.48 312.707 158.3 308.927 158.3C305.147 158.3 303.327 156.48 303.327 153ZM305.727 153C305.727 155.06 306.767 156.14 308.927 156.14C311.087 156.14 312.127 155.06 312.127 153C312.127 150.92 311.087 149.84 308.927 149.84C306.687 149.84 305.727 150.92 305.727 153ZM29.8309 180.7C29.8309 178.58 31.4109 177.7 34.4909 177.7C37.9709 177.7 39.5309 178.8 39.5309 181.4H37.4309C37.4309 180.04 36.2709 179.64 34.0909 179.64C32.1909 179.64 31.8309 180.16 31.8309 180.66C31.8309 181.22 32.6709 181.62 34.9109 182.02C37.7509 182.52 39.6509 182.82 39.6509 185.24C39.6509 187.44 38.0509 188.3 35.0309 188.3C31.4109 188.3 29.7909 187.2 29.7909 184.6H31.8909C31.8909 185.9 33.2709 186.34 35.3309 186.34C37.0109 186.34 37.6509 185.92 37.6509 185.3C37.6509 184.4 36.5309 184.36 34.4309 184C32.2509 183.66 29.8309 183.08 29.8309 180.7ZM45.8856 177.7C49.0656 177.7 50.7456 179.6 50.7456 182H48.6456C48.6456 180.74 47.7056 179.84 45.8656 179.84C44.0656 179.84 42.8456 180.66 42.8456 182.96C42.8456 185.36 44.2056 186.14 45.9856 186.14C47.8656 186.14 48.7256 185.24 48.7256 184H50.8256C50.8256 186.4 49.2856 188.3 45.9256 188.3C42.3656 188.3 40.4456 186.48 40.4456 183C40.4456 179.48 42.1056 177.7 45.8856 177.7ZM59.1723 181.62C59.1723 179.8 57.5923 179.64 56.4923 179.64C55.3523 179.64 53.8923 179.76 53.8923 181.46H51.7923C51.7923 178.76 53.5923 177.7 56.4923 177.7C59.8323 177.7 61.4723 178.76 61.4723 181.96V188H59.1723V186.64C58.7723 187.62 57.8323 188.3 55.6323 188.3C53.1123 188.3 51.2323 187.64 51.2323 185.16C51.2323 183.16 52.8123 182.32 55.6323 182.02L59.1723 181.66V181.62ZM59.1723 183.32L55.9723 183.64C54.6723 183.78 53.6323 184.14 53.6323 185.12C53.6323 185.88 54.2323 186.34 55.9523 186.34C58.1923 186.34 59.0723 185.38 59.1723 184.64V183.32ZM65.1776 188H62.8776V173H65.1776V188ZM66.4345 174.96C66.4345 173.94 66.8745 173.46 67.9345 173.46C68.9745 173.46 69.4345 173.94 69.4345 174.96C69.4345 175.96 68.9745 176.46 67.9345 176.46C66.8745 176.46 66.4345 175.96 66.4345 174.96ZM66.7745 188V178H69.0745V188H66.7745ZM80.8314 188H78.5314V182.62C78.5314 180.92 78.0114 179.84 75.8714 179.84C73.9714 179.84 72.9714 180.92 72.9714 182.98V188H70.6714V178H72.9714V179.4C73.6314 178.32 74.7714 177.7 76.5114 177.7C79.4114 177.7 80.8314 179.02 80.8314 182.42V188ZM92.2245 175.54V177.36C91.5845 176.98 90.7445 176.8 90.0245 176.8C89.4245 176.8 88.6045 177.04 88.3445 177.78C90.7045 178.08 91.8845 179.24 91.8845 181.2C91.8845 183.52 90.3445 184.7 87.0445 184.7C84.7045 184.7 83.8245 184.72 83.8245 185.28C83.8245 185.76 84.6645 185.9 87.2645 186.16C90.2045 186.48 92.4045 186.52 92.4045 189.18C92.4045 191.26 90.7245 192.2 87.3845 192.2C83.4445 192.2 81.8245 191.1 81.8245 188.5H83.9245C83.9245 189.82 85.1645 190.26 87.4445 190.26C89.2845 190.26 90.4445 190.02 90.4445 189.16C90.4445 188.16 89.2445 188.42 86.9445 188.16C84.6045 187.9 81.8645 187.76 81.8645 185.5C81.8645 184.56 82.3645 184.02 83.1445 183.7C82.4045 183.12 82.0245 182.28 82.0245 181.2C82.0245 178.06 84.9245 177.7 87.4045 177.7C87.5845 176.24 88.5245 175.1 90.1245 175.1C90.9245 175.1 91.6645 175.32 92.2245 175.54ZM84.4245 181.18C84.4245 182.28 85.4245 182.74 87.0245 182.74C88.6845 182.74 89.4845 182.28 89.4845 181.18C89.4845 180.1 88.5845 179.64 86.9245 179.64C85.0445 179.64 84.4245 180.1 84.4245 181.18ZM100.697 188H98.3972V173H100.697V179.4C101.257 178.32 102.257 177.7 103.997 177.7C106.717 177.7 108.557 179.52 108.557 183C108.557 186.48 106.417 188.3 103.917 188.3C102.217 188.3 101.237 187.6 100.697 186.52V188ZM106.157 182.98C106.157 180.92 105.357 179.84 103.457 179.84C101.657 179.84 100.697 180.92 100.697 182.98C100.697 185.04 101.657 186.14 103.457 186.14C105.097 186.14 106.157 185.04 106.157 182.98ZM109.555 178H111.855V183.38C111.855 185.06 112.375 186.14 114.515 186.14C116.415 186.14 117.415 185.06 117.415 183V178H119.715V188H117.415V186.6C116.735 187.68 115.615 188.3 113.875 188.3C110.975 188.3 109.555 186.98 109.555 183.56V178ZM120.948 180.7C120.948 178.58 122.528 177.7 125.608 177.7C129.088 177.7 130.648 178.8 130.648 181.4H128.548C128.548 180.04 127.388 179.64 125.208 179.64C123.308 179.64 122.948 180.16 122.948 180.66C122.948 181.22 123.788 181.62 126.028 182.02C128.868 182.52 130.768 182.82 130.768 185.24C130.768 187.44 129.168 188.3 126.148 188.3C122.528 188.3 120.908 187.2 120.908 184.6H123.008C123.008 185.9 124.388 186.34 126.448 186.34C128.128 186.34 128.768 185.92 128.768 185.3C128.768 184.4 127.648 184.36 125.548 184C123.368 183.66 120.948 183.08 120.948 180.7ZM131.623 174.96C131.623 173.94 132.063 173.46 133.123 173.46C134.163 173.46 134.623 173.94 134.623 174.96C134.623 175.96 134.163 176.46 133.123 176.46C132.063 176.46 131.623 175.96 131.623 174.96ZM131.963 188V178H134.263V188H131.963ZM146.02 188H143.72V182.62C143.72 180.92 143.2 179.84 141.06 179.84C139.16 179.84 138.16 180.92 138.16 182.98V188H135.86V178H138.16V179.4C138.82 178.32 139.96 177.7 141.7 177.7C144.6 177.7 146.02 179.02 146.02 182.42V188ZM157.513 183.28V183.68H149.453C149.653 185.66 150.793 186.34 152.613 186.34C154.173 186.34 155.293 185.54 155.293 184.58L157.393 184.6C157.393 186.8 155.713 188.3 152.613 188.3C148.853 188.3 147.013 186.46 147.013 182.98C147.013 179.58 148.873 177.7 152.253 177.7C156.013 177.7 157.513 179.6 157.513 183.28ZM149.513 181.98H155.233C155.013 180.34 153.913 179.64 152.353 179.64C150.953 179.64 149.833 180.44 149.513 181.98ZM158.352 180.7C158.352 178.58 159.932 177.7 163.012 177.7C166.492 177.7 168.052 178.8 168.052 181.4H165.952C165.952 180.04 164.792 179.64 162.612 179.64C160.712 179.64 160.352 180.16 160.352 180.66C160.352 181.22 161.192 181.62 163.432 182.02C166.272 182.52 168.172 182.82 168.172 185.24C168.172 187.44 166.572 188.3 163.552 188.3C159.932 188.3 158.312 187.2 158.312 184.6H160.412C160.412 185.9 161.792 186.34 163.852 186.34C165.532 186.34 166.172 185.92 166.172 185.3C166.172 184.4 165.052 184.36 162.952 184C160.772 183.66 158.352 183.08 158.352 180.7ZM169.007 180.7C169.007 178.58 170.587 177.7 173.667 177.7C177.147 177.7 178.707 178.8 178.707 181.4H176.607C176.607 180.04 175.447 179.64 173.267 179.64C171.367 179.64 171.007 180.16 171.007 180.66C171.007 181.22 171.847 181.62 174.087 182.02C176.927 182.52 178.827 182.82 178.827 185.24C178.827 187.44 177.227 188.3 174.207 188.3C170.587 188.3 168.967 187.2 168.967 184.6H171.067C171.067 185.9 172.447 186.34 174.507 186.34C176.187 186.34 176.827 185.92 176.827 185.3C176.827 184.4 175.707 184.36 173.607 184C171.427 183.66 169.007 183.08 169.007 180.7ZM190.121 183.28V183.68H182.061C182.261 185.66 183.401 186.34 185.221 186.34C186.781 186.34 187.901 185.54 187.901 184.58L190.001 184.6C190.001 186.8 188.321 188.3 185.221 188.3C181.461 188.3 179.621 186.46 179.621 182.98C179.621 179.58 181.481 177.7 184.861 177.7C188.621 177.7 190.121 179.6 190.121 183.28ZM182.121 181.98H187.841C187.621 180.34 186.521 179.64 184.961 179.64C183.561 179.64 182.441 180.44 182.121 181.98ZM190.961 180.7C190.961 178.58 192.541 177.7 195.621 177.7C199.101 177.7 200.661 178.8 200.661 181.4H198.561C198.561 180.04 197.401 179.64 195.221 179.64C193.321 179.64 192.961 180.16 192.961 180.66C192.961 181.22 193.801 181.62 196.041 182.02C198.881 182.52 200.781 182.82 200.781 185.24C200.781 187.44 199.181 188.3 196.161 188.3C192.541 188.3 190.921 187.2 190.921 184.6H193.021C193.021 185.9 194.401 186.34 196.461 186.34C198.141 186.34 198.781 185.92 198.781 185.3C198.781 184.4 197.661 184.36 195.561 184C193.381 183.66 190.961 183.08 190.961 180.7ZM201.735 186.9C201.735 185.96 202.155 185.5 203.135 185.5C204.115 185.5 204.535 185.96 204.535 186.9C204.535 188.54 203.835 190.4 201.995 191.12L201.695 190.66C202.675 189.78 202.995 189.06 203.115 188.3C202.175 188.28 201.735 187.86 201.735 186.9ZM212.831 188L209.131 178H211.671L214.091 184.58L216.531 178H219.071L221.491 184.58L223.931 178H226.471L222.771 188H220.231L217.791 181.42L215.371 188H212.831ZM236.774 183.28V183.68H228.714C228.914 185.66 230.054 186.34 231.874 186.34C233.434 186.34 234.554 185.54 234.554 184.58L236.654 184.6C236.654 186.8 234.974 188.3 231.874 188.3C228.114 188.3 226.274 186.46 226.274 182.98C226.274 179.58 228.134 177.7 231.514 177.7C235.274 177.7 236.774 179.6 236.774 183.28ZM228.774 181.98H234.494C234.274 180.34 233.174 179.64 231.614 179.64C230.214 179.64 229.094 180.44 228.774 181.98ZM245.068 192H242.768V178H245.068V179.4C245.628 178.32 246.628 177.7 248.368 177.7C251.088 177.7 252.928 179.52 252.928 183C252.928 186.48 250.788 188.3 248.288 188.3C246.588 188.3 245.608 187.6 245.068 186.52V192ZM250.528 182.98C250.528 180.92 249.728 179.84 247.828 179.84C246.028 179.84 245.068 180.92 245.068 182.98C245.068 185.04 246.028 186.14 247.828 186.14C249.468 186.14 250.528 185.04 250.528 182.98ZM256.426 188H254.126V178H256.426V179.38C257.046 178.32 258.066 177.7 259.446 177.7C261.866 177.7 263.166 179.12 263.166 182.04H261.066C261.066 180.74 260.426 179.84 258.946 179.84C257.366 179.84 256.426 180.92 256.426 182.98V188ZM263.775 183C263.775 179.52 265.595 177.7 269.375 177.7C273.155 177.7 274.975 179.52 274.975 183C274.975 186.48 273.155 188.3 269.375 188.3C265.595 188.3 263.775 186.48 263.775 183ZM266.175 183C266.175 185.06 267.215 186.14 269.375 186.14C271.535 186.14 272.575 185.06 272.575 183C272.575 180.92 271.535 179.84 269.375 179.84C267.135 179.84 266.175 180.92 266.175 183ZM279.078 188L274.778 178H277.318L280.338 185.06L283.378 178H285.918L281.618 188H279.078ZM285.77 174.96C285.77 173.94 286.21 173.46 287.27 173.46C288.31 173.46 288.77 173.94 288.77 174.96C288.77 175.96 288.31 176.46 287.27 176.46C286.21 176.46 285.77 175.96 285.77 174.96ZM286.11 188V178H288.41V188H286.11ZM297.867 188V186.48C297.287 187.58 296.267 188.3 294.467 188.3C291.687 188.3 289.607 186.48 289.607 183C289.607 179.52 291.387 177.7 294.387 177.7C296.227 177.7 297.287 178.34 297.867 179.46V173H300.167V188H297.867ZM292.007 182.98C292.007 185.04 293.007 186.14 294.907 186.14C296.867 186.14 297.867 185.04 297.867 182.98C297.867 180.92 296.867 179.84 294.907 179.84C292.727 179.84 292.007 180.92 292.007 182.98ZM311.875 183.28V183.68H303.815C304.015 185.66 305.155 186.34 306.975 186.34C308.535 186.34 309.655 185.54 309.655 184.58L311.755 184.6C311.755 186.8 310.075 188.3 306.975 188.3C303.215 188.3 301.375 186.46 301.375 182.98C301.375 179.58 303.235 177.7 306.615 177.7C310.375 177.7 311.875 179.6 311.875 183.28ZM303.875 181.98H309.595C309.375 180.34 308.275 179.64 306.715 179.64C305.315 179.64 304.195 180.44 303.875 181.98ZM319.669 184.44V180.1H317.269V178H319.669L320.469 174H321.969L321.949 178H326.969V180.1H321.969V184.14C321.969 185.18 322.149 186.14 323.369 186.14C324.269 186.14 324.949 185.7 324.949 184.2H327.049C327.049 187.3 325.629 188.3 323.289 188.3C320.929 188.3 319.669 187.18 319.669 184.44ZM330.414 188H328.114V173H330.414V179.4C331.074 178.32 332.214 177.7 333.954 177.7C336.854 177.7 338.274 179.02 338.274 182.42V188H335.974V182.62C335.974 180.92 335.454 179.84 333.314 179.84C331.414 179.84 330.414 180.92 330.414 182.98V188ZM349.767 183.28V183.68H341.707C341.907 185.66 343.047 186.34 344.867 186.34C346.427 186.34 347.547 185.54 347.547 184.58L349.647 184.6C349.647 186.8 347.967 188.3 344.867 188.3C341.107 188.3 339.267 186.46 339.267 182.98C339.267 179.58 341.127 177.7 344.507 177.7C348.267 177.7 349.767 179.6 349.767 183.28ZM341.767 181.98H347.487C347.267 180.34 346.167 179.64 344.607 179.64C343.207 179.64 342.087 180.44 341.767 181.98ZM32.4909 218H30.1909V208H32.4909V209.38C33.1109 208.32 34.1309 207.7 35.5109 207.7C37.9309 207.7 39.2309 209.12 39.2309 212.04H37.1309C37.1309 210.74 36.4909 209.84 35.0109 209.84C33.4309 209.84 32.4909 210.92 32.4909 212.98V218ZM49.969 213.28V213.68H41.909C42.109 215.66 43.249 216.34 45.069 216.34C46.629 216.34 47.749 215.54 47.749 214.58L49.849 214.6C49.849 216.8 48.169 218.3 45.069 218.3C41.309 218.3 39.469 216.46 39.469 212.98C39.469 209.58 41.329 207.7 44.709 207.7C48.469 207.7 49.969 209.6 49.969 213.28ZM41.969 211.98H47.689C47.469 210.34 46.369 209.64 44.809 209.64C43.409 209.64 42.289 210.44 41.969 211.98ZM50.8083 210.7C50.8083 208.58 52.3883 207.7 55.4683 207.7C58.9483 207.7 60.5083 208.8 60.5083 211.4H58.4083C58.4083 210.04 57.2483 209.64 55.0683 209.64C53.1683 209.64 52.8083 210.16 52.8083 210.66C52.8083 211.22 53.6483 211.62 55.8883 212.02C58.7283 212.52 60.6283 212.82 60.6283 215.24C60.6283 217.44 59.0283 218.3 56.0083 218.3C52.3883 218.3 50.7683 217.2 50.7683 214.6H52.8683C52.8683 215.9 54.2483 216.34 56.3083 216.34C57.9883 216.34 58.6283 215.92 58.6283 215.3C58.6283 214.4 57.5083 214.36 55.4083 214C53.2283 213.66 50.8083 213.08 50.8083 210.7ZM61.4229 213C61.4229 209.52 63.2429 207.7 67.0229 207.7C70.8029 207.7 72.6229 209.52 72.6229 213C72.6229 216.48 70.8029 218.3 67.0229 218.3C63.2429 218.3 61.4229 216.48 61.4229 213ZM63.8229 213C63.8229 215.06 64.8629 216.14 67.0229 216.14C69.1829 216.14 70.2229 215.06 70.2229 213C70.2229 210.92 69.1829 209.84 67.0229 209.84C64.7829 209.84 63.8229 210.92 63.8229 213ZM73.6253 208H75.9253V213.38C75.9253 215.06 76.4453 216.14 78.5853 216.14C80.4853 216.14 81.4853 215.06 81.4853 213V208H83.7853V218H81.4853V216.6C80.8053 217.68 79.6853 218.3 77.9453 218.3C75.0453 218.3 73.6253 216.98 73.6253 213.56V208ZM87.6784 218H85.3784V208H87.6784V209.38C88.2984 208.32 89.3184 207.7 90.6984 207.7C93.1184 207.7 94.4184 209.12 94.4184 212.04H92.3184C92.3184 210.74 91.6784 209.84 90.1984 209.84C88.6184 209.84 87.6784 210.92 87.6784 212.98V218ZM100.097 207.7C103.277 207.7 104.957 209.6 104.957 212H102.857C102.857 210.74 101.917 209.84 100.077 209.84C98.2765 209.84 97.0565 210.66 97.0565 212.96C97.0565 215.36 98.4165 216.14 100.197 216.14C102.077 216.14 102.937 215.24 102.937 214H105.037C105.037 216.4 103.497 218.3 100.137 218.3C96.5765 218.3 94.6565 216.48 94.6565 213C94.6565 209.48 96.3165 207.7 100.097 207.7ZM116.143 213.28V213.68H108.083C108.283 215.66 109.423 216.34 111.243 216.34C112.803 216.34 113.923 215.54 113.923 214.58L116.023 214.6C116.023 216.8 114.343 218.3 111.243 218.3C107.483 218.3 105.643 216.46 105.643 212.98C105.643 209.58 107.503 207.7 110.883 207.7C114.643 207.7 116.143 209.6 116.143 213.28ZM108.143 211.98H113.863C113.643 210.34 112.543 209.64 110.983 209.64C109.583 209.64 108.463 210.44 108.143 211.98ZM116.982 210.7C116.982 208.58 118.562 207.7 121.642 207.7C125.122 207.7 126.682 208.8 126.682 211.4H124.582C124.582 210.04 123.422 209.64 121.242 209.64C119.342 209.64 118.982 210.16 118.982 210.66C118.982 211.22 119.822 211.62 122.062 212.02C124.902 212.52 126.802 212.82 126.802 215.24C126.802 217.44 125.202 218.3 122.182 218.3C118.562 218.3 116.942 217.2 116.942 214.6H119.042C119.042 215.9 120.422 216.34 122.482 216.34C124.162 216.34 124.802 215.92 124.802 215.3C124.802 214.4 123.682 214.36 121.582 214C119.402 213.66 116.982 213.08 116.982 210.7ZM140.132 211.62C140.132 209.8 138.552 209.64 137.452 209.64C136.312 209.64 134.852 209.76 134.852 211.46H132.752C132.752 208.76 134.552 207.7 137.452 207.7C140.792 207.7 142.432 208.76 142.432 211.96V218H140.132V216.64C139.732 217.62 138.792 218.3 136.592 218.3C134.072 218.3 132.192 217.64 132.192 215.16C132.192 213.16 133.772 212.32 136.592 212.02L140.132 211.66V211.62ZM140.132 213.32L136.932 213.64C135.632 213.78 134.592 214.14 134.592 215.12C134.592 215.88 135.192 216.34 136.912 216.34C139.152 216.34 140.032 215.38 140.132 214.64V213.32ZM153.998 218H151.698V212.62C151.698 210.92 151.178 209.84 149.038 209.84C147.138 209.84 146.138 210.92 146.138 212.98V218H143.838V208H146.138V209.4C146.798 208.32 147.938 207.7 149.678 207.7C152.578 207.7 153.998 209.02 153.998 212.42V218ZM163.251 218V216.48C162.671 217.58 161.651 218.3 159.851 218.3C157.071 218.3 154.991 216.48 154.991 213C154.991 209.52 156.771 207.7 159.771 207.7C161.611 207.7 162.671 208.34 163.251 209.46V203H165.551V218H163.251ZM157.391 212.98C157.391 215.04 158.391 216.14 160.291 216.14C162.251 216.14 163.251 215.04 163.251 212.98C163.251 210.92 162.251 209.84 160.291 209.84C158.111 209.84 157.391 210.92 157.391 212.98ZM181.214 218H178.914V212.22C178.914 210.92 178.474 209.84 176.694 209.84C175.094 209.84 174.254 210.92 174.254 212.98V218H171.954V208H174.254V209.38C174.894 208.32 175.934 207.7 177.514 207.7C179.014 207.7 180.074 208.26 180.654 209.36C181.254 208.4 182.294 207.7 183.954 207.7C186.874 207.7 188.154 209.02 188.154 212.42V218H185.854V212.62C185.854 210.92 185.414 209.84 183.654 209.84C182.034 209.84 181.214 210.92 181.214 212.24V218ZM199.662 213.28V213.68H191.602C191.802 215.66 192.942 216.34 194.762 216.34C196.322 216.34 197.442 215.54 197.442 214.58L199.542 214.6C199.542 216.8 197.862 218.3 194.762 218.3C191.002 218.3 189.162 216.46 189.162 212.98C189.162 209.58 191.022 207.7 194.402 207.7C198.162 207.7 199.662 209.6 199.662 213.28ZM191.662 211.98H197.382C197.162 210.34 196.062 209.64 194.502 209.64C193.102 209.64 191.982 210.44 191.662 211.98ZM211.021 218H208.721V212.62C208.721 210.92 208.201 209.84 206.061 209.84C204.161 209.84 203.161 210.92 203.161 212.98V218H200.861V208H203.161V209.4C203.821 208.32 204.961 207.7 206.701 207.7C209.601 207.7 211.021 209.02 211.021 212.42V218ZM213.628 214.44V210.1H211.228V208H213.628L214.428 204H215.928L215.908 208H220.928V210.1H215.928V214.14C215.928 215.18 216.108 216.14 217.328 216.14C218.228 216.14 218.908 215.7 218.908 214.2H221.008C221.008 217.3 219.588 218.3 217.248 218.3C214.888 218.3 213.628 217.18 213.628 214.44ZM221.673 213C221.673 209.52 223.493 207.7 227.273 207.7C231.053 207.7 232.873 209.52 232.873 213C232.873 216.48 231.053 218.3 227.273 218.3C223.493 218.3 221.673 216.48 221.673 213ZM224.073 213C224.073 215.06 225.113 216.14 227.273 216.14C229.433 216.14 230.473 215.06 230.473 213C230.473 210.92 229.433 209.84 227.273 209.84C225.033 209.84 224.073 210.92 224.073 213ZM236.375 218H234.075V208H236.375V209.38C236.995 208.32 238.015 207.7 239.395 207.7C241.815 207.7 243.115 209.12 243.115 212.04H241.015C241.015 210.74 240.375 209.84 238.895 209.84C237.315 209.84 236.375 210.92 236.375 212.98V218ZM243.765 210.7C243.765 208.58 245.345 207.7 248.425 207.7C251.905 207.7 253.465 208.8 253.465 211.4H251.365C251.365 210.04 250.205 209.64 248.025 209.64C246.125 209.64 245.765 210.16 245.765 210.66C245.765 211.22 246.605 211.62 248.845 212.02C251.685 212.52 253.585 212.82 253.585 215.24C253.585 217.44 251.985 218.3 248.965 218.3C245.345 218.3 243.725 217.2 243.725 214.6H245.825C245.825 215.9 247.205 216.34 249.265 216.34C250.945 216.34 251.585 215.92 251.585 215.3C251.585 214.4 250.465 214.36 248.365 214C246.185 213.66 243.765 213.08 243.765 210.7ZM257.079 218H254.779V203H257.079V209.4C257.739 208.32 258.879 207.7 260.619 207.7C263.519 207.7 264.939 209.02 264.939 212.42V218H262.639V212.62C262.639 210.92 262.119 209.84 259.979 209.84C258.079 209.84 257.079 210.92 257.079 212.98V218ZM265.992 204.96C265.992 203.94 266.432 203.46 267.492 203.46C268.532 203.46 268.992 203.94 268.992 204.96C268.992 205.96 268.532 206.46 267.492 206.46C266.432 206.46 265.992 205.96 265.992 204.96ZM266.332 218V208H268.632V218H266.332ZM272.529 222H270.229V208H272.529V209.4C273.089 208.32 274.089 207.7 275.829 207.7C278.549 207.7 280.389 209.52 280.389 213C280.389 216.48 278.249 218.3 275.749 218.3C274.049 218.3 273.069 217.6 272.529 216.52V222ZM277.989 212.98C277.989 210.92 277.189 209.84 275.289 209.84C273.489 209.84 272.529 210.92 272.529 212.98C272.529 215.04 273.489 216.14 275.289 216.14C276.929 216.14 277.989 215.04 277.989 212.98ZM293.182 217.66C292.102 220.74 291.662 222.6 288.782 222.6C286.622 222.6 285.682 220.94 285.682 218.74H287.682C287.682 220.3 288.202 220.66 288.802 220.66C289.662 220.66 290.042 219.76 290.502 218.44L290.682 217.86L285.462 208H288.062L291.722 214.88L294.122 208H296.562L293.182 217.66ZM296.754 213C296.754 209.52 298.574 207.7 302.354 207.7C306.134 207.7 307.954 209.52 307.954 213C307.954 216.48 306.134 218.3 302.354 218.3C298.574 218.3 296.754 216.48 296.754 213ZM299.154 213C299.154 215.06 300.194 216.14 302.354 216.14C304.514 216.14 305.554 215.06 305.554 213C305.554 210.92 304.514 209.84 302.354 209.84C300.114 209.84 299.154 210.92 299.154 213ZM308.957 208H311.257V213.38C311.257 215.06 311.777 216.14 313.917 216.14C315.817 216.14 316.817 215.06 316.817 213V208H319.117V218H316.817V216.6C316.137 217.68 315.017 218.3 313.277 218.3C310.377 218.3 308.957 216.98 308.957 213.56V208ZM40.3509 248H38.0509V242.62C38.0509 240.92 37.5309 239.84 35.3909 239.84C33.4909 239.84 32.4909 240.92 32.4909 242.98V248H30.1909V238H32.4909V239.4C33.1509 238.32 34.2909 237.7 36.0309 237.7C38.9309 237.7 40.3509 239.02 40.3509 242.42V248ZM51.844 243.28V243.68H43.784C43.984 245.66 45.124 246.34 46.944 246.34C48.504 246.34 49.624 245.54 49.624 244.58L51.724 244.6C51.724 246.8 50.044 248.3 46.944 248.3C43.184 248.3 41.344 246.46 41.344 242.98C41.344 239.58 43.204 237.7 46.584 237.7C50.344 237.7 51.844 239.6 51.844 243.28ZM43.844 241.98H49.564C49.344 240.34 48.244 239.64 46.684 239.64C45.284 239.64 44.164 240.44 43.844 241.98ZM63.1433 243.28V243.68H55.0833C55.2833 245.66 56.4233 246.34 58.2433 246.34C59.8033 246.34 60.9233 245.54 60.9233 244.58L63.0233 244.6C63.0233 246.8 61.3433 248.3 58.2433 248.3C54.4833 248.3 52.6433 246.46 52.6433 242.98C52.6433 239.58 54.5033 237.7 57.8833 237.7C61.6433 237.7 63.1433 239.6 63.1433 243.28ZM55.1433 241.98H60.8633C60.6433 240.34 59.5433 239.64 57.9833 239.64C56.5833 239.64 55.4633 240.44 55.1433 241.98ZM72.2025 248V246.48C71.6225 247.58 70.6025 248.3 68.8025 248.3C66.0225 248.3 63.9425 246.48 63.9425 243C63.9425 239.52 65.7225 237.7 68.7225 237.7C70.5625 237.7 71.6225 238.34 72.2025 239.46V233H74.5025V248H72.2025ZM66.3425 242.98C66.3425 245.04 67.3425 246.14 69.2425 246.14C71.2025 246.14 72.2025 245.04 72.2025 242.98C72.2025 240.92 71.2025 239.84 69.2425 239.84C67.0625 239.84 66.3425 240.92 66.3425 242.98ZM82.7058 244.44V240.1H80.3058V238H82.7058L83.5058 234H85.0058L84.9858 238H90.0058V240.1H85.0058V244.14C85.0058 245.18 85.1858 246.14 86.4058 246.14C87.3058 246.14 87.9858 245.7 87.9858 244.2H90.0858C90.0858 247.3 88.6658 248.3 86.3258 248.3C83.9658 248.3 82.7058 247.18 82.7058 244.44ZM90.7503 243C90.7503 239.52 92.5703 237.7 96.3503 237.7C100.13 237.7 101.95 239.52 101.95 243C101.95 246.48 100.13 248.3 96.3503 248.3C92.5703 248.3 90.7503 246.48 90.7503 243ZM93.1503 243C93.1503 245.06 94.1903 246.14 96.3503 246.14C98.5103 246.14 99.5503 245.06 99.5503 243C99.5503 240.92 98.5103 239.84 96.3503 239.84C94.1103 239.84 93.1503 240.92 93.1503 243ZM107.588 240.7C107.588 238.58 109.168 237.7 112.248 237.7C115.728 237.7 117.288 238.8 117.288 241.4H115.188C115.188 240.04 114.028 239.64 111.848 239.64C109.948 239.64 109.588 240.16 109.588 240.66C109.588 241.22 110.428 241.62 112.668 242.02C115.508 242.52 117.408 242.82 117.408 245.24C117.408 247.44 115.808 248.3 112.788 248.3C109.168 248.3 107.548 247.2 107.548 244.6H109.648C109.648 245.9 111.028 246.34 113.088 246.34C114.768 246.34 115.408 245.92 115.408 245.3C115.408 244.4 114.288 244.36 112.188 244C110.008 243.66 107.588 243.08 107.588 240.7ZM118.403 238H120.703V243.38C120.703 245.06 121.223 246.14 123.363 246.14C125.263 246.14 126.263 245.06 126.263 243V238H128.563V248H126.263V246.6C125.583 247.68 124.463 248.3 122.723 248.3C119.823 248.3 118.403 246.98 118.403 243.56V238ZM135.196 237.7C138.376 237.7 140.056 239.6 140.056 242H137.956C137.956 240.74 137.016 239.84 135.176 239.84C133.376 239.84 132.156 240.66 132.156 242.96C132.156 245.36 133.516 246.14 135.296 246.14C137.176 246.14 138.036 245.24 138.036 244H140.136C140.136 246.4 138.596 248.3 135.236 248.3C131.676 248.3 129.756 246.48 129.756 243C129.756 239.48 131.416 237.7 135.196 237.7ZM146.182 237.7C149.362 237.7 151.042 239.6 151.042 242H148.942C148.942 240.74 148.002 239.84 146.162 239.84C144.362 239.84 143.142 240.66 143.142 242.96C143.142 245.36 144.502 246.14 146.282 246.14C148.162 246.14 149.022 245.24 149.022 244H151.122C151.122 246.4 149.582 248.3 146.222 248.3C142.662 248.3 140.742 246.48 140.742 243C140.742 239.48 142.402 237.7 146.182 237.7ZM162.229 243.28V243.68H154.169C154.369 245.66 155.509 246.34 157.329 246.34C158.889 246.34 160.009 245.54 160.009 244.58L162.109 244.6C162.109 246.8 160.429 248.3 157.329 248.3C153.569 248.3 151.729 246.46 151.729 242.98C151.729 239.58 153.589 237.7 156.969 237.7C160.729 237.7 162.229 239.6 162.229 243.28ZM154.229 241.98H159.949C159.729 240.34 158.629 239.64 157.069 239.64C155.669 239.64 154.549 240.44 154.229 241.98ZM173.528 243.28V243.68H165.468C165.668 245.66 166.808 246.34 168.628 246.34C170.188 246.34 171.308 245.54 171.308 244.58L173.408 244.6C173.408 246.8 171.728 248.3 168.628 248.3C164.868 248.3 163.028 246.46 163.028 242.98C163.028 239.58 164.888 237.7 168.268 237.7C172.028 237.7 173.528 239.6 173.528 243.28ZM165.528 241.98H171.248C171.028 240.34 169.928 239.64 168.368 239.64C166.968 239.64 165.848 240.44 165.528 241.98ZM182.588 248V246.48C182.008 247.58 180.988 248.3 179.188 248.3C176.408 248.3 174.328 246.48 174.328 243C174.328 239.52 176.108 237.7 179.108 237.7C180.948 237.7 182.008 238.34 182.588 239.46V233H184.888V248H182.588ZM176.728 242.98C176.728 245.04 177.728 246.14 179.628 246.14C181.588 246.14 182.588 245.04 182.588 242.98C182.588 240.92 181.588 239.84 179.628 239.84C177.448 239.84 176.728 240.92 176.728 242.98ZM186.096 246.9C186.096 245.96 186.516 245.5 187.496 245.5C188.476 245.5 188.896 245.96 188.896 246.9C188.896 247.82 188.476 248.3 187.496 248.3C186.516 248.3 186.096 247.82 186.096 246.9Z" fill="white"/>
<g clip-path="url(#clip1_322_1708)">
<path d="M229.576 307.968C185.396 298.214 159.864 348.13 158.143 349.278C156.422 350.425 152.406 357.023 159.865 353.294C167.325 349.565 190.561 344.114 198.594 353.581C206.627 363.048 222.404 381.122 231.871 379.687C241.338 378.253 264.288 348.991 267.444 348.991C270.6 348.991 270.886 356.737 264.288 381.695C257.69 406.654 219.822 428.456 215.806 430.464C211.79 432.473 208.634 433.907 217.528 422.144C226.421 410.382 224.413 396.899 223.839 386.571C223.266 376.244 229.004 377.965 229.004 377.965C270.601 359.031 290.395 326.9 298.14 314.852C305.886 302.805 292.403 290.467 288.387 295.058C284.371 299.648 290.109 303.952 292.403 299.648C294.698 295.345 288.96 282.722 280.927 287.025C272.895 291.327 271.46 297.926 275.476 304.524C279.492 311.122 295.557 315.711 298.139 301.081C300.721 286.45 287.525 282.434 282.361 281.86C277.196 281.287 263.14 287.312 268.017 301.942C272.895 316.572 295.27 316.285 303.59 303.663C311.91 291.042 311.622 274.689 312.484 268.664C313.344 262.64 309.041 262.926 309.041 262.926C278.613 266.371 251.991 287.769 232.874 308.472C213.783 329.149 202.179 349.133 201.749 349.85C200.889 351.284 219.248 372.227 223.266 377.103C227.282 381.981 222.692 380.546 219.25 381.693C215.807 382.84 215.521 380.832 215.521 380.832L203.185 363.333C203.185 363.333 200.889 359.604 197.733 361.325C194.578 363.047 196.3 365.054 196.3 365.054C200.602 373.086 205.48 368.783 205.48 368.783C205.48 368.783 235.602 337.226 237.037 336.366C238.471 335.506 244.495 326.899 249.373 330.055C254.25 333.21 249.086 338.661 249.086 338.661C249.086 338.661 207.489 377.963 202.899 384.562C198.31 391.16 162.737 419.274 159.868 420.421C156.999 421.568 155.565 421.568 157.859 414.683C172.777 383.988 180.523 380.832 192.572 373.373C204.621 365.914 201.465 372.799 205.768 376.528C210.071 380.257 208.97 386.653 201.465 396.036C190.755 409.424 160.728 423.002 154.13 425.011C147.914 428.548 131.467 447.674 135.483 444.805C136.897 443.795 139.281 443.046 141.854 442.474C150.945 440.452 159.642 436.929 167.661 432.189C192.804 417.327 197.546 412.168 206.628 404.068C217.242 394.601 213.8 367.921 194.292 366.773C175.364 365.659 155.894 383.995 131.166 445.368C130.41 447.243 129.65 449.159 128.883 451.115C101.917 523.408 62.3272 534.023 42.2461 522.834C30.4453 516.26 -1.55684 492.747 -23.5951 518.49C-30.9782 527.114 -34.4986 538.373 -33.8246 549.705C-33.0119 563.361 -27.0084 573.851 -18.6184 581.274C0.968498 598.602 30.9475 596.728 48.7451 577.566C56.7493 568.947 67.9078 558.01 77.0273 553.122C85.934 548.349 96.4662 551.14 106.508 557.833C120.278 567.014 135.914 584.226 141.077 562.423C146.241 540.62 166.752 533.735 173.638 543.489C180.523 553.242 169.622 560.127 166.179 548.653C162.737 537.177 164.457 532.014 189.703 522.834C214.948 513.654 205.195 550.948 220.111 527.998C235.029 505.048 248.483 501.606 263.143 522.547C273.183 536.891 258.553 553.242 283.224 553.817C307.896 554.391 300.436 584.801 287.813 596.848C275.19 608.898 260.272 606.602 247.651 584.226C235.029 561.849 212.652 565.292 205.193 576.194C204.189 577.662 203.298 578.932 202.511 580.031C200.169 583.298 195.224 582.972 193.311 579.438C173.245 542.381 112.513 561.183 107.655 587.095C102.491 614.636 150.686 599.717 166.751 586.521C182.817 573.325 202.324 572.751 224.701 592.259C247.077 611.767 276.339 608.324 302.731 600.291C329.124 592.259 327.977 611.192 341.173 599.717C354.369 588.242 338.878 576.767 330.272 574.472C321.665 572.177 323.387 572.177 323.387 565.292C323.387 558.407 321.092 551.091 298.142 541.337C275.192 531.584 248.512 558.407 248.512 558.407" stroke="#FFF3C1" stroke-width="1.85006" stroke-miterlimit="10" stroke-linecap="round"/>
</g>
</g>
<rect x="0.5" y="0.5" width="398" height="474" stroke="#111111"/>
<defs>
<radialGradient id="paint0_angular_322_1708" cx="0" cy="0" r="1" gradientUnits="userSpaceOnUse" gradientTransform="translate(199.5 26.3581) rotate(90) scale(447.642 375.716)">
<stop stop-color="#111111" stop-opacity="0"/>
<stop offset="0.466" stop-color="#29220E"/>
</radialGradient>
<clipPath id="clip0_322_1708">
<rect x="1" y="1" width="397" height="473" fill="white"/>
</clipPath>
<clipPath id="clip1_322_1708">
<rect width="382.048" height="345.604" fill="white" transform="translate(-34.8329 262)"/>
</clipPath>
</defs>
</svg>
