<svg width="1042" height="851" viewBox="0 0 1042 851" fill="none" xmlns="http://www.w3.org/2000/svg">
<g clip-path="url(#clip0_15_83)">
<path d="M135.475 851.329C176.977 828.641 218.479 805.956 300.458 805.253C382.437 804.551 504.896 825.839 568.203 836.388C631.515 846.941 635.674 846.76 638.206 845.491C640.738 844.228 641.64 841.872 641.551 839.883C641.458 837.895 640.376 836.264 638.206 836.538C636.036 836.812 632.779 838.982 631.153 840.878C629.526 842.778 629.526 844.404 631.696 845.217C633.866 846.031 638.21 846.031 641.644 845.036C645.082 844.042 647.615 842.053 648.158 838.341C648.702 834.629 647.257 829.206 648.065 824.866C648.879 820.527 651.954 817.27 653.762 815.1C655.569 812.93 656.113 811.843 655.843 806.327C655.574 800.812 654.487 790.86 653.492 781.544C652.498 772.228 651.592 763.544 652.317 756.579C653.042 749.614 655.393 744.368 655.755 737.677C656.117 730.986 654.491 722.846 651.866 719.227C649.245 715.607 645.626 716.513 644.358 717.6C643.089 718.687 644.176 719.951 646.439 719.589C648.702 719.227 652.136 717.238 653.947 712.443C655.755 707.648 655.936 700.051 653.404 693.267C650.872 686.484 645.626 680.513 639.929 676.443C634.233 672.373 628.081 670.203 622.743 669.297C617.408 668.391 612.883 668.753 608.543 670.022C604.203 671.29 600.04 673.46 600.133 672.284C600.226 671.109 604.566 666.588 612.344 665.951C620.122 665.319 631.338 668.572 639.567 673.548C647.8 678.524 653.046 685.215 655.759 691.367C658.473 697.519 658.654 703.127 658.022 708.642C657.39 714.158 655.941 719.584 655.759 725.825C655.578 732.065 656.665 739.122 659.016 742.013C661.368 744.907 664.987 743.639 668.425 742.287C671.863 740.93 675.116 739.48 676.835 735.322C678.554 731.159 678.736 724.287 678.011 716.871C677.286 709.455 675.66 701.496 672.403 694.801C669.146 688.106 664.262 682.683 664.174 684.398C664.085 686.112 668.788 694.982 672.04 699.229C675.297 703.48 677.105 703.118 679.549 700.135C681.993 697.152 685.064 691.544 684.706 690.726C684.348 689.909 680.543 693.89 678.917 700.674C677.29 707.458 677.83 717.043 678.373 723.92C678.917 730.792 679.46 734.955 681.356 737.306C683.257 739.657 686.509 740.201 689.041 740.563C691.574 740.926 693.381 741.107 694.018 738.844C694.65 736.581 694.11 731.879 692.749 725.369C691.388 718.86 689.223 710.538 688.86 702.848C688.498 695.159 689.947 688.106 693.381 682.771C696.819 677.437 702.246 673.818 709.207 672.191C716.172 670.565 724.675 670.923 731.728 673.637C738.781 676.35 744.389 681.415 747.92 687.023C751.447 692.631 752.896 698.783 755.155 704.205C757.413 709.628 760.489 714.334 760.763 720.486C761.037 726.638 758.5 734.235 755.155 742.556C751.809 750.878 747.646 759.92 744.752 766.253C741.857 772.586 740.231 776.201 740.049 779.546C739.868 782.892 741.137 785.967 740.955 789.224C740.774 792.482 739.148 795.915 739.687 800.984C740.231 806.049 742.944 812.744 745.295 818.984C747.646 825.224 749.635 831.014 749.365 835.172C749.096 839.331 746.564 841.868 744.924 842.729C743.284 843.596 742.538 842.791 741.693 842.592C740.849 842.398 739.904 842.813 738.808 842.84C737.712 842.871 736.47 842.513 735.259 842.632C734.048 842.751 732.864 843.339 731.445 843.578C730.026 843.817 728.369 843.697 727.278 843.401C726.182 843.105 725.651 842.632 725.236 841.983C724.82 841.333 724.524 840.502 724.259 839.587C723.994 838.672 723.755 837.665 723.906 837.576C724.051 837.488 724.586 838.314 724.555 839.353C724.524 840.387 723.932 841.629 722.487 842.31C721.037 842.99 718.731 843.109 716.87 842.751C715.009 842.398 713.591 841.572 712.672 840.476C711.757 839.38 711.341 838.023 711.783 835.862C712.225 833.705 713.529 830.749 714.21 827.611C714.89 824.478 714.948 821.167 715.01 815.312C715.067 809.456 715.129 801.059 714.979 795.531C714.833 790.002 714.475 787.342 714.682 784.916C714.89 782.489 715.659 780.302 714.992 775.799C714.324 771.291 712.225 764.467 708.968 759.526C705.716 754.586 701.305 751.528 698.923 748.244C696.541 744.96 696.179 741.451 695.414 735.295C694.65 729.135 693.478 720.323 692.581 712.81C691.684 705.301 691.052 699.096 692.581 692.98C694.11 686.864 697.796 680.84 702.834 677.243C707.872 673.645 714.258 672.474 720.419 672.925C726.579 673.376 732.514 675.444 737.239 677.915C741.963 680.389 745.468 683.266 748.031 687.089C750.594 690.912 752.211 695.68 753.789 699.41C755.367 703.14 756.892 705.84 758.332 706.198C759.773 706.556 761.121 704.581 761.885 700.802C762.65 697.024 762.831 691.447 761.572 684.791C760.312 678.136 757.616 670.402 752.892 664.33C748.172 658.262 741.424 653.851 732.073 653.807C722.721 653.763 710.758 658.081 699.966 663.295C689.174 668.51 679.549 674.627 672.447 676.248C665.341 677.866 660.753 674.989 655.225 669.907C649.692 664.824 643.217 657.541 637.238 653.719C631.259 649.896 625.77 649.538 621.182 651.288C616.595 653.043 612.91 656.909 611.425 657.091C609.94 657.272 610.66 653.763 613.223 650.798C615.786 647.832 620.193 645.401 627.705 647.019C635.214 648.636 645.829 654.302 653.696 659.835C661.566 665.368 666.693 670.764 675.598 671.21C684.503 671.661 697.182 667.162 706.043 664.016C714.903 660.869 719.937 659.071 727.291 658.858C734.645 658.646 744.31 660.025 749.144 659.61C753.979 659.199 753.979 656.993 751.854 653.772C749.732 650.546 745.481 646.299 739.665 641.738C733.849 637.177 726.451 632.298 726.217 631.357C725.983 630.411 732.903 633.403 738.171 636.704C743.443 640.01 747.059 643.625 749.339 642.29C751.619 640.951 752.565 634.662 750.833 629.784C749.1 624.909 744.699 621.444 740.133 616.57C735.573 611.695 730.853 605.402 729.045 599.736C727.238 594.075 728.338 589.042 727.158 590.217C725.978 591.397 722.518 598.791 723.618 604.691C724.719 610.59 730.384 614.996 736.753 616.017C743.125 617.038 750.201 614.678 752.799 610.356C755.393 606.03 753.506 599.736 749.812 593.527C746.117 587.314 740.611 581.18 739.272 582.514C737.933 583.853 740.765 592.661 744.226 596.829C747.686 600.996 751.778 600.527 753.665 595.021C755.553 589.514 755.239 578.974 754.218 577.64C753.197 576.301 751.465 584.167 751.858 590.619C752.251 597.067 754.766 602.101 755.712 607.766C756.657 613.428 756.025 619.721 757.126 623.654C758.226 627.587 761.059 629.16 765.934 630.181C770.808 631.202 777.733 631.675 783.708 631.361C789.687 631.047 794.721 629.947 795.349 630.495C795.976 631.047 792.202 633.248 787.089 634.349C781.976 635.449 775.528 635.449 770.808 634.742C766.088 634.035 763.101 632.621 761.607 634.583C760.113 636.55 760.113 641.897 760.931 654.085C761.748 666.274 763.388 685.308 764.988 699.91C766.588 714.511 768.152 724.684 771.723 736.122C775.294 747.559 780.866 760.26 782.687 771.94C784.508 783.621 782.581 794.28 781.843 802.672C781.105 811.065 781.56 817.19 780.822 822.29C780.084 827.394 778.157 831.478 777.817 834.143C777.477 836.807 778.723 838.054 780.425 837.886C782.126 837.718 784.278 836.127 785.98 833.687C787.681 831.248 788.927 827.96 789.891 824.897C790.854 821.835 791.535 819.002 793.011 818.379C794.487 817.756 796.754 819.342 798.341 822.347C799.927 825.353 800.837 829.776 802.592 833.573C804.351 837.373 806.958 840.546 809.566 842.137C812.173 843.724 814.785 843.724 815.01 842.875C815.236 842.027 813.083 840.325 811.837 837.373C810.591 834.425 810.251 830.227 810.534 828.017C810.816 825.808 811.722 825.578 813.083 827.903C814.445 830.227 816.257 835.102 818.471 838.337C820.68 841.567 823.288 843.158 825.162 843.326C827.031 843.494 828.167 842.248 827.261 840.489C826.355 838.73 823.403 836.463 821.308 833.232C819.209 830.002 817.962 825.803 818.245 826.201C818.528 826.599 820.344 831.588 822.386 834.934C824.428 838.279 826.695 839.981 827.658 839.923C828.622 839.866 828.282 838.054 826.47 835.049C824.658 832.043 821.365 827.849 819.438 823.426C817.512 819.002 816.946 814.353 814.904 809.195C812.862 804.038 809.349 798.364 807.135 794.285C804.925 790.201 804.019 787.709 803.962 785.609C803.905 783.51 804.7 781.809 804.585 779.144C804.47 776.479 803.449 772.851 802.884 767.464C802.318 762.076 802.203 754.935 802.371 746.71C802.543 738.486 802.994 729.188 802.654 719.664C802.314 710.14 801.178 700.387 799.764 690.691C798.345 680.995 796.643 671.356 795.795 662.168C794.946 652.985 794.947 644.252 795.004 639.373C795.061 634.495 795.172 633.478 796.193 632.4C797.214 631.321 799.14 630.19 799.711 627.468C800.276 624.745 799.485 620.437 800.616 613.291C801.752 606.145 804.815 596.166 803.737 584.088C802.658 572.009 797.443 557.837 794.041 552.052C790.638 546.267 789.051 548.874 789.219 549.895C789.391 550.916 791.318 550.35 791.826 548.419C792.335 546.492 791.429 543.204 788.706 538.953C785.984 534.701 781.45 529.482 776.063 524.095C770.676 518.708 764.44 513.153 760.524 508.672C756.613 504.195 755.027 500.792 753.095 502.604C751.169 504.42 748.901 511.451 746.519 517.174C744.137 522.897 741.64 527.326 738.693 529.933C735.745 532.54 732.342 533.336 727.75 537.587C723.159 541.839 717.374 549.55 711.196 557.545C705.013 565.54 698.437 573.817 694.694 577.56C690.951 581.303 690.045 580.508 690.155 573.649C690.27 566.79 691.401 553.859 691.857 545.242C692.312 536.624 692.082 532.315 691.119 527.719C690.155 523.127 688.454 518.248 686.297 514.054C684.14 509.86 681.533 506.343 681.59 503.903C681.648 501.464 684.37 500.102 686.637 497.27C688.904 494.437 690.721 490.128 692.59 488.877C694.464 487.631 696.391 489.443 698.145 490.521C699.904 491.6 701.491 491.94 700.925 494.715C700.359 497.495 697.637 502.71 695.878 507.589C694.119 512.468 693.328 517.002 692.02 517.4C690.716 517.797 688.9 514.054 687.146 511.164C685.387 508.274 683.685 506.232 682.894 509.86C682.103 513.489 682.214 522.787 683.517 533.049C684.821 543.31 687.318 554.54 687.884 564.006C688.449 573.477 687.088 581.188 688.962 583.509C690.831 585.833 695.936 582.771 701.606 577.441C707.276 572.111 713.511 564.514 717.595 558.504C721.678 552.494 723.605 548.07 726.385 543.933C729.165 539.793 732.793 535.939 733.474 534.635C734.154 533.331 731.887 534.578 730.353 536.054C728.82 537.53 728.029 539.231 730.239 540.08C732.448 540.928 737.667 540.928 740.275 542.404C742.882 543.88 742.882 546.828 744.129 546.545C745.375 546.262 747.872 542.745 749.631 537.985C751.389 533.221 752.41 527.211 753.06 522.022C753.71 516.834 753.992 512.468 753.741 508.654C753.489 504.84 752.698 501.587 752.848 497.495C752.994 493.403 754.081 488.471 754.081 487.291C754.081 486.111 752.994 488.67 752.799 491.286C752.6 493.898 753.294 496.563 754.624 496.859C755.955 497.155 757.93 495.082 761.527 492.271C765.129 489.461 770.353 485.912 775.086 481.276C779.819 476.64 784.057 470.922 786.722 466.091C789.387 461.261 790.47 457.314 790.863 453.319C791.256 449.324 790.96 445.281 789.237 440.795C787.509 436.309 784.353 431.377 781.251 427.678C778.144 423.979 775.086 421.513 770.751 418.901C766.411 416.29 760.789 413.528 759.609 413.969C758.425 414.411 761.682 418.062 787.191 451.198C812.699 484.334 860.463 546.952 886.33 582.488C912.196 618.024 916.16 626.473 918.577 632.426C920.99 638.375 921.857 641.826 920.045 644.584C918.233 647.346 913.752 649.414 910.039 649.587C906.332 649.759 903.397 648.035 905.297 645.362C907.193 642.688 913.924 639.064 915.303 634.495C916.682 629.925 912.717 624.405 907.971 622.421C903.229 620.437 897.709 621.992 897.104 623.888C896.498 625.784 900.812 628.029 904.78 628.458C908.749 628.891 912.368 627.508 912.368 626.734C912.368 625.956 908.744 625.788 905.037 627.768C901.329 629.753 897.533 633.889 898.483 635.962C899.433 638.03 905.125 638.03 910.384 637.601C915.643 637.173 920.473 636.306 922.886 638.808C925.299 641.309 925.299 647.174 926.422 650.881C927.544 654.589 929.785 656.14 939.101 654.417C948.413 652.693 964.799 647.691 977.823 647.174C990.843 646.657 1000.5 650.625 1001.71 651.916C1002.92 653.21 995.673 651.832 984.894 651.832C974.115 651.832 959.797 653.21 948.417 654.333C937.033 655.455 928.583 656.317 924.703 660.025C920.823 663.733 921.512 670.287 922.807 679.086C924.102 687.88 925.998 698.92 928.41 706.163C930.823 713.406 933.758 716.858 932.207 719.615C930.656 722.373 924.619 724.446 923.324 727.119C922.029 729.793 925.48 733.068 928.844 735.485C932.207 737.898 935.486 739.454 934.88 740.66C934.279 741.867 929.794 742.729 927.465 745.058C925.136 747.387 924.963 751.183 926.603 753.335C928.243 755.492 931.69 756.009 931.95 756.61C932.211 757.215 929.277 757.905 927.381 759.889C925.485 761.873 924.619 765.148 926.086 766.871C927.553 768.595 931.345 768.767 935.314 767.649C939.282 766.527 943.419 764.114 947.564 764.052C951.709 763.99 955.859 766.284 955.713 766.739C955.567 767.194 951.13 765.815 946.397 765.961C941.664 766.107 936.635 767.786 933.97 768.869C931.31 769.952 931.013 770.447 931.062 775.034C931.111 779.621 931.504 788.296 932.344 796.088C933.183 803.879 934.465 810.782 935.057 816.204C935.649 821.627 935.552 825.574 933.97 828.729C932.392 831.884 929.334 834.253 925.931 836.273C922.528 838.297 918.781 839.972 916.713 841.501C914.64 843.03 914.247 844.409 915.625 845.248C917.009 846.088 920.164 846.384 923.713 845.938C927.262 845.496 931.208 844.312 935.101 844.409C938.995 844.506 942.844 845.889 946.145 845.841C949.451 845.792 952.209 844.312 953.393 842.588C954.577 840.86 954.184 838.889 953.296 836.821C952.408 834.748 951.029 832.578 951.029 828.587C951.029 824.592 952.407 818.777 954.034 810.344C955.66 801.912 957.534 790.868 958.471 783.422C959.408 775.975 959.408 772.13 958.816 769.815C958.223 767.499 957.039 766.708 957.088 766.509C957.136 766.31 958.418 766.708 959.16 767.3C959.898 767.892 960.097 768.679 960.296 767.397C960.495 766.116 960.689 762.761 959.311 760.446C957.932 758.13 954.971 756.844 953.738 755.417C952.505 753.985 953 752.411 954.131 753.101C955.267 753.79 957.039 756.747 958.321 757.29C959.602 757.834 960.393 755.96 960.491 754.528C960.588 753.096 959.996 752.111 957.583 750.781C955.165 749.45 950.927 747.771 949.447 746.193C947.966 744.616 949.248 743.135 951.122 743.087C952.995 743.038 955.461 744.417 957.286 745.946C959.112 747.475 960.296 749.15 960.937 748.611C961.578 748.067 961.675 745.309 962.417 743.038C963.155 740.771 964.539 738.994 965.277 736.577C966.015 734.159 966.116 731.106 965.917 728.145C965.719 725.188 965.228 722.329 965.573 719.417C965.917 716.509 967.102 713.548 969.126 710.79C971.146 708.028 974.005 705.465 976.029 700.683C978.049 695.901 979.233 688.901 978.742 687.469C978.252 686.037 976.078 690.183 974.995 694.027C973.912 697.872 973.912 701.425 976.67 701.377C979.432 701.328 984.952 697.678 985.248 697.43C985.544 697.183 980.612 700.338 977.704 703.1C974.796 705.862 973.908 708.227 975.043 710.348C976.179 712.469 979.335 714.343 979.728 716.067C980.121 717.79 977.757 719.368 974.747 720.999C971.738 722.625 968.092 724.304 966.66 727.455C965.232 730.611 966.019 735.247 968.582 737.12C971.146 738.994 975.485 738.106 977.063 738.601C978.641 739.096 977.456 740.965 974.5 742.101C971.543 743.237 966.806 743.63 964.296 744.664C961.781 745.698 961.485 747.378 962.568 748.164C963.655 748.955 966.116 748.854 967.349 749.446C968.582 750.038 968.582 751.32 967.548 751.466C966.514 751.611 964.441 750.626 963.553 751.368C962.665 752.106 962.961 754.572 963.898 756.004C964.835 757.436 966.412 757.829 969.073 756.548C971.738 755.266 975.485 752.305 976.617 752.305C977.748 752.305 976.272 755.266 973.656 756.791C971.044 758.32 967.296 758.417 965.966 759.8C964.636 761.184 965.719 763.844 966.806 766.606C967.893 769.368 968.976 772.228 970.355 772.82C971.733 773.412 973.413 771.733 976.763 769.169C980.117 766.606 985.146 763.155 988.841 761.723C992.54 760.291 994.904 760.883 992.637 762.611C990.37 764.339 983.467 767.198 979.078 769.664C974.69 772.13 972.816 774.199 972.67 780.165C972.524 786.131 974.098 795.99 974.743 802.845C975.384 809.699 975.088 813.544 974.447 817.093C973.806 820.642 972.82 823.899 972.326 826.263C971.831 828.627 971.831 830.108 969.811 832.132C967.791 834.156 963.748 836.719 961.034 838.297C958.325 839.874 956.942 840.467 956.646 841.452C956.35 842.438 957.141 843.821 958.665 844.608C960.194 845.399 962.462 845.593 965.369 845.054C968.277 844.51 971.831 843.229 975.379 843.229C978.928 843.229 982.481 844.51 985.88 844.855C989.282 845.2 992.535 844.608 993.967 843.277C995.399 841.947 995.001 839.874 994.36 837.263C993.719 834.651 992.831 831.495 992.389 828.044C991.947 824.592 991.947 820.845 993.326 811.723C994.705 802.602 997.467 788.106 998.603 778.883C999.739 769.664 999.244 765.718 998.506 763.601C997.768 761.48 996.782 761.184 996.928 760.839C997.074 760.494 998.355 760.101 998.21 758.718C998.064 757.339 996.486 754.97 995.2 753.048C993.918 751.125 992.933 749.645 993.079 748.067C993.225 746.489 994.511 744.814 994.705 742.892C994.904 740.97 994.016 738.8 993.423 736.334C992.831 733.868 992.535 731.106 990.317 729.183C988.098 727.261 983.957 726.174 983.118 724.844C982.278 723.513 984.744 721.936 987.21 722.13C989.676 722.329 992.142 724.3 992.928 726.125C993.719 727.95 992.831 729.625 992.336 729.479C991.846 729.334 991.744 727.358 993.074 724.499C994.405 721.639 997.167 717.892 998.152 714.343C999.138 710.794 998.351 707.44 997.56 704.678C996.773 701.916 995.982 699.746 997.361 696.838C998.74 693.93 1002.29 690.28 1003.72 685.105C1005.15 679.925 1004.46 673.221 1003.82 667.352C1003.18 661.483 1002.58 656.454 1003.82 653.94C1005.05 651.425 1008.11 651.425 1009.64 652.114C1011.17 652.804 1011.17 654.187 1009.54 655.469C1007.91 656.75 1004.66 657.935 1004.66 656.998C1004.66 656.061 1007.91 653.003 1009.19 649.109C1010.47 645.216 1009.78 640.483 1007.91 633.231C1006.04 625.983 1002.98 616.221 1001.99 604.138C1001.01 592.056 1002.09 577.657 1001.4 567.846C1000.71 558.036 998.245 552.807 993.905 547.089C989.565 541.37 983.352 535.157 979.114 530.967C974.871 526.778 972.604 524.608 968.613 523.472C964.623 522.336 958.899 522.239 953.919 522.734C948.938 523.229 944.696 524.312 940.555 526.53C936.414 528.749 932.37 532.103 930.642 532.744C928.919 533.384 929.507 531.312 930.443 528.156C931.38 525.001 932.662 520.758 934.929 518.244C937.196 515.729 940.453 514.938 946.022 515.234C951.594 515.53 959.483 516.909 964.954 517.749C970.43 518.589 973.483 518.885 973.828 520.069C974.173 521.253 971.808 523.322 970.819 523.768C969.833 524.21 970.226 523.03 971.115 521.894C972.003 520.758 973.382 519.676 976.144 518.394C978.906 517.112 983.047 515.632 986.202 510.506C989.358 505.379 991.528 496.602 992.071 491.277C992.615 485.952 991.528 484.078 991.921 482.107C992.314 480.136 994.188 478.063 993.057 474.121C991.921 470.175 987.78 464.359 980.285 459.33C972.79 454.3 961.944 450.062 952.527 449.519C943.109 448.975 935.119 452.131 931.226 455.436C927.332 458.737 927.527 462.193 929.206 465.495C930.881 468.8 934.036 471.956 935.075 474.422C936.109 476.888 935.026 478.66 934.677 478.881C934.328 479.097 934.708 477.758 934.478 476.273C934.248 474.788 933.4 473.153 932.105 471.686C930.81 470.219 929.06 468.924 928.441 467.74C927.823 466.555 928.331 465.481 927.907 465.764C927.482 466.047 926.13 467.682 924.888 469.684C923.646 471.686 922.52 474.055 921.759 476.057C920.999 478.059 920.602 479.694 920.774 481.356C920.942 483.017 921.675 484.71 921.675 485.952C921.675 487.194 920.942 487.98 919.647 488.519C918.352 489.054 916.492 489.337 915.418 490.097C914.348 490.857 914.065 492.099 914.317 493.367C914.569 494.636 915.36 495.931 915.785 497.115C916.209 498.299 916.262 499.369 916.262 500.359C916.262 501.349 916.204 502.246 916.545 503.996C916.885 505.746 917.614 508.336 917.672 510.987C917.729 513.639 917.106 516.344 916.938 518.319C916.77 520.294 917.053 521.532 918.374 522.323C919.7 523.114 922.069 523.45 924.407 523.114C926.744 522.778 929.06 521.762 931.455 519.592C933.851 517.422 936.334 514.094 937.855 510.965C939.379 507.836 939.941 504.906 939.998 501.972C940.055 499.042 939.6 496.107 939.83 494.304C940.055 492.501 940.957 491.825 942.34 492.276C943.724 492.727 945.584 494.304 946.119 496.647C946.654 498.984 945.867 502.087 944.599 504.089C943.33 506.091 941.58 506.992 940.851 506.232C940.117 505.472 940.4 503.046 940.851 501.269C941.302 499.493 941.92 498.366 942.009 499.718C942.093 501.07 941.642 504.906 939.808 508.879C937.978 512.857 934.761 516.971 932.565 521.028C930.368 525.089 929.184 529.093 927.633 531.74C926.081 534.392 924.164 535.687 922.696 537.123C921.229 538.56 920.217 540.142 921.768 541.269C923.319 542.395 927.434 543.072 928.335 542.762C929.237 542.453 926.926 541.154 924.53 540.619C922.135 540.084 919.651 540.31 916.425 544.848C913.195 549.387 909.217 558.239 906.968 564.015C904.718 569.791 904.201 572.487 905.496 572.748C906.796 573.008 909.907 570.83 914.521 571.4C919.139 571.97 925.26 575.289 928.888 577.158C932.521 579.023 933.661 579.438 934.699 577.52C935.738 575.602 936.67 571.347 936.569 566.264C936.467 561.182 935.322 555.269 934.235 555.061C933.148 554.854 932.109 560.351 932.264 566.008C932.419 571.66 933.767 577.472 932.989 579.544C932.211 581.622 929.308 579.96 925.675 578.612C922.042 577.264 917.685 576.226 914.936 576.641C912.187 577.056 911.047 578.921 911.202 582.037C911.356 585.148 912.81 589.506 913.535 593.916C914.26 598.327 914.26 602.786 913.69 606.989C913.12 611.191 911.979 615.133 912.912 619.075C913.844 623.018 916.854 626.96 918.772 629.761C920.69 632.563 921.521 634.221 923.028 634.119C924.53 634.017 926.709 632.148 928.578 627.843C930.443 623.539 932.003 616.795 932.936 610.361C933.868 603.93 934.182 597.805 934.023 592.776C933.868 587.742 933.245 583.8 933.453 583.544C933.661 583.283 934.699 586.708 935.53 589.718C936.361 592.727 936.984 595.322 938.385 595.578C939.786 595.839 941.965 593.761 941.704 593.244C941.443 592.727 938.747 593.761 937.245 597.085C935.742 600.404 935.428 606.007 935.844 610.157C936.259 614.307 937.399 617.003 936.312 620.375C935.225 623.747 931.902 627.79 929.206 630.645C926.51 633.5 924.433 635.157 920.261 630.875C916.089 626.593 909.823 616.366 898.761 600.086C887.7 583.805 871.847 561.474 854.603 538.157C837.363 514.841 818.731 490.539 802.645 469.596C786.559 448.652 773.022 431.064 744.915 395.413C716.808 359.766 674.135 306.058 630.865 250.008C587.591 193.957 543.72 135.56 516.851 96.2411C489.981 56.9267 480.117 36.6905 493.751 24.5462C507.389 12.3974 544.52 8.33603 560.766 4.8536C577.011 1.37116 572.371 -1.52793 531.465 7.46542C490.56 16.4588 413.39 37.349 353.627 53.3028C293.855 69.2434 251.5 80.2696 221.909 88.1007C192.317 95.9318 175.488 100.576 159.534 92.741C143.576 84.9099 128.493 64.5986 112.826 60.8289C97.1594 57.0593 80.9139 69.8223 75.403 69.8223C69.8921 69.8223 75.1113 57.0593 91.6485 64.0197C108.186 70.9846 136.036 97.673 171.718 101.447C207.404 105.217 250.921 86.0722 271.228 80.2696C291.535 74.467 288.636 82.0108 292.119 90.7125C295.601 99.4142 305.465 109.278 299.95 117.693C294.439 126.107 273.548 133.067 253.821 137.712C234.093 142.352 215.527 144.677 218.718 143.223C221.909 141.774 246.86 136.55 263.976 131.326C281.092 126.103 290.377 120.883 295.888 115.66C301.399 110.436 303.14 105.217 306.039 106.954C308.943 108.695 313.004 117.396 322.577 122.62C332.149 127.844 347.237 129.585 356.522 130.164C365.807 130.743 369.285 130.164 356.522 138.287C343.759 146.409 314.746 163.238 288.053 178.322C261.364 193.405 236.992 206.751 214.365 218.648C191.738 230.545 170.847 240.988 149.962 245.628C129.071 250.268 108.186 249.11 90.4862 244.179C72.7867 239.247 58.2825 230.545 42.6159 231.124C26.9494 231.703 10.1249 241.567 4.03067 240.117C-2.05918 238.668 2.58113 225.9 26.3704 229.961C50.1597 234.023 93.098 254.913 134.291 253.751C175.488 252.588 214.944 229.383 241.924 213.424C268.904 197.466 283.412 188.764 306.039 177.451C328.671 166.137 359.421 152.212 387.271 135.675C415.122 119.138 440.074 99.9931 464.733 82.8726C489.393 65.7565 513.762 50.6689 530.878 38.1975C547.994 25.7217 557.858 15.8577 555.829 15.5661C553.796 15.2744 539.871 24.5594 531.169 32.6822C522.463 40.8049 518.985 47.7698 520.727 61.1118C522.468 74.4582 529.428 94.1861 525.95 101.73C522.468 109.274 508.542 104.629 492.589 100.859C476.635 97.0852 458.644 94.1861 458.065 88.9625C457.486 83.7388 474.31 76.1994 486.207 77.3573C498.104 78.5196 505.064 88.3835 549.739 146.193C594.415 204.002 676.804 309.761 718.001 362.131C759.194 414.5 759.194 413.479 757.736 412.529C756.277 411.579 753.361 410.704 748.035 409.904C742.71 409.099 734.976 408.37 730.455 409.833C725.93 411.291 724.617 414.937 727.609 418.296C730.601 421.65 737.897 424.717 740.447 428.509C743.002 432.301 740.814 436.826 740.226 437.463C739.638 438.099 740.664 434.851 740.549 432.491C740.434 430.131 739.188 428.664 736.602 426.556C734.017 424.448 730.088 421.695 728.126 419.931C726.164 418.168 726.164 417.399 725.227 417.545C724.29 417.691 722.421 418.756 720.078 420.073C717.736 421.39 714.926 422.958 713.308 424.426C711.691 425.888 711.266 427.25 710.97 428.735C710.674 430.219 710.502 431.832 710.166 433.061C709.826 434.294 709.317 435.138 706.94 436.159C704.562 437.175 700.32 438.364 697.902 439.597C695.485 440.83 694.888 442.103 695.1 443.248C695.312 444.392 696.329 445.413 697.434 445.966C698.539 446.518 699.727 446.602 700.744 447.45C701.76 448.299 702.613 449.912 703.714 450.464C704.818 451.017 706.175 450.509 706.387 449.192C706.599 447.875 705.667 445.753 704.306 444.861C702.949 443.968 701.164 444.308 699.767 445.369C698.366 446.43 697.35 448.211 696.713 449.656C696.077 451.096 695.821 452.201 695.525 453.518C695.229 454.835 694.888 456.36 695.1 457.637C695.312 458.91 696.077 459.931 695.821 460.863C695.564 461.796 694.292 462.644 693.571 463.453C692.851 464.262 692.679 465.022 692.851 466.043C693.023 467.063 693.532 468.336 692.807 469.693C692.086 471.05 690.133 472.495 689.072 474.784C688.012 477.078 687.844 480.215 689.329 482.549C690.814 484.882 693.956 486.411 698.79 487.64C703.625 488.868 710.161 489.805 716.357 489.297C722.553 488.789 728.409 486.836 733.036 484.246C737.663 481.656 741.057 478.43 743.687 474.908C746.316 471.386 748.185 467.567 750.731 466.038C753.277 464.509 756.503 465.274 757.435 467.523C758.368 469.772 757.011 473.507 754.209 476.561C751.407 479.614 747.165 481.992 743.983 482.924C740.801 483.857 738.679 483.349 739.528 481.311C740.376 479.274 744.195 475.708 746.276 474.435C748.358 473.162 748.694 474.179 746.656 476.132C744.619 478.085 740.209 480.971 735.922 483.729C731.635 486.486 727.476 489.12 722.43 490.349C717.378 491.582 711.439 491.41 705.499 490.393C699.559 489.377 693.615 487.507 690.221 485.43C686.827 483.353 685.979 481.059 686.231 478.726C686.483 476.393 687.844 474.015 687.247 472.574C686.655 471.134 684.105 470.621 682.072 470.749C680.035 470.877 678.506 471.642 676.049 470.877C673.591 470.113 670.193 467.824 664.846 465.362C659.498 462.9 652.197 460.271 644.857 458.189C637.516 456.108 630.132 454.583 625.589 453.947C621.045 453.31 619.34 453.567 620.621 457.451C621.903 461.336 626.172 468.844 626.512 475.929C626.853 483.013 623.268 489.668 621.73 491.803C620.197 493.937 620.705 491.547 621.814 487.706C622.924 483.866 624.634 478.571 624.289 473.538C623.949 468.504 621.558 463.722 618.999 460.05C616.441 456.382 613.709 453.819 609.44 450.747C605.171 447.676 599.369 444.092 595.272 442.214C591.175 440.335 588.784 440.163 586.822 434.873C584.86 429.583 583.322 419.167 581.948 410.721C580.569 402.276 579.353 395.797 578.364 390.437C577.374 385.076 576.609 380.833 574.952 379.092C573.299 377.351 570.753 378.115 568.8 378.964C566.847 379.812 565.49 380.745 567.231 380.533C568.972 380.321 573.807 378.964 576.994 375.99C580.175 373.02 581.705 368.437 583.273 365.255C584.842 362.073 586.455 360.292 586.84 357.362C587.22 354.432 586.371 350.362 585.695 346.924C585.015 343.485 584.506 340.684 582.977 339.327C581.448 337.97 578.903 338.054 577.674 339.835C576.446 341.616 576.529 345.099 577.758 347.644C578.991 350.19 581.364 351.803 581.788 351.803C582.213 351.803 580.684 350.19 579.031 348.113C577.374 346.031 575.593 343.485 574.744 339.923C573.896 336.357 573.98 331.774 573.511 328.212C573.043 324.646 572.026 322.1 570.581 321.508C569.14 320.916 567.271 322.273 566.635 324.862C565.998 327.452 566.59 331.27 566.378 333.688C566.166 336.105 565.145 337.126 564.213 337.126C563.28 337.126 562.432 336.105 562.472 333.86C562.516 331.611 563.448 328.133 563.236 325.883C563.024 323.634 561.667 322.617 560.054 323.55C558.441 324.482 556.576 327.368 556.788 329.361C557 331.354 559.294 332.459 560.651 333.52C562.008 334.58 562.432 335.597 562.052 336.574C561.667 337.55 560.483 338.483 559.122 338.355C557.765 338.226 556.236 337.038 556.024 335.809C555.812 334.576 556.916 333.303 556.492 333.051C556.068 332.8 554.115 333.56 552.758 334.793C551.401 336.026 550.637 337.723 550.464 339.632C550.296 341.541 550.721 343.662 551.653 344.851C552.586 346.04 554.031 346.296 555.683 345.448C557.336 344.599 559.206 342.646 559.038 342.306C558.87 341.965 556.66 343.238 554.199 344.259C551.737 345.275 549.024 346.04 547.623 347.401C546.222 348.762 546.138 350.711 547.114 351.56C548.091 352.408 550.128 352.152 552.378 351.856C554.627 351.56 557.089 351.219 558.233 350.499C559.378 349.779 559.21 348.674 557.809 347.953C556.408 347.233 553.779 346.893 551.613 348.037C549.448 349.182 547.751 351.812 547.03 355.674C546.31 359.537 546.562 364.628 546.986 367.938C547.41 371.248 548.007 372.777 549.532 374.39C551.061 376.003 553.522 377.7 554.243 380.29C554.963 382.879 553.947 386.357 552.453 393.561C550.959 400.765 548.993 411.694 548.948 422.11C548.904 432.526 550.782 442.426 552.232 448.573C553.681 454.72 554.707 457.107 558.207 459.586C561.707 462.061 567.682 464.62 576.388 470.511C585.094 476.402 596.531 485.62 604.469 491.679C612.406 497.738 616.847 500.642 621.797 503.713C626.746 506.784 632.209 510.028 635.285 512.503C638.356 514.978 639.041 516.684 640.234 514.041C641.427 511.394 643.138 504.398 642.196 503.457C641.255 502.52 637.671 507.637 634.94 520.697C632.209 533.756 630.331 554.752 626.318 573.618C622.305 592.484 616.162 609.211 610.355 621.418C604.553 633.624 599.09 641.305 598.489 647.196C597.893 653.087 602.162 657.183 604.637 659.574C607.111 661.965 607.796 662.646 604.066 666.968C600.341 671.29 592.2 679.245 588.13 687.164C584.06 695.084 584.06 702.963 585.602 711.581C587.145 720.203 590.229 729.568 595.595 739.958C600.96 750.348 608.614 761.767 614.607 770.045C620.604 778.322 624.943 783.462 627.281 787.629C629.623 791.797 629.964 794.992 629.279 797.391C628.594 799.791 626.879 801.391 626.137 804.586C625.394 807.786 625.624 812.581 624.652 817.203C623.679 821.83 621.51 826.281 618.655 830.223C615.8 834.165 612.26 837.59 613.06 841.015C613.86 844.44 618.999 847.865 628.474 847.75C637.954 847.635 651.769 843.984 663.529 841.24C675.288 838.5 684.998 836.67 692.626 839.402C700.253 842.133 705.804 849.416 720.64 851.334C735.471 853.252 759.587 849.809 814.533 848.775C869.479 847.741 955.249 849.12 1041.02 850.499" stroke="#FFFCF0" stroke-width="3.5" stroke-miterlimit="22.9256"/>
</g>
<defs>
<clipPath id="clip0_15_83">
<rect width="1040.55" height="852.641" fill="white" transform="translate(0.499542 0.359131)"/>
</clipPath>
</defs>
</svg>
