<svg width="1367" height="698" viewBox="0 0 1367 698" fill="none" xmlns="http://www.w3.org/2000/svg">
<path d="M29.2382 750.5V341.165H112.86V750.5H29.2382ZM315.773 750.5V341.165H399.394V750.5H315.773ZM62.5698 583.842V507.823H354.952V583.842H62.5698ZM446.408 750.5V341.165H530.03V750.5H446.408ZM938.292 341.165L782.159 750.5H692.106L848.238 341.165H938.292ZM535.973 341.165H626.027L782.159 750.5H692.106L535.973 341.165ZM944.395 750.5V341.165H1028.02V750.5H944.395ZM975.388 583.842V507.823H1248.47V583.842H975.388ZM975.388 417.184V341.165H1271.86V417.184H975.388ZM975.388 750.5V674.481H1277.71V750.5H975.388Z" fill="url(#paint0_linear_533_1222)"/>
<ellipse cx="0.514635" cy="0.628783" rx="0.514635" ry="0.628783" transform="matrix(0.775685 0.63112 0.63112 -0.775685 1057.76 549.114)" fill="#FFE8AB"/>
<ellipse cx="0.514635" cy="0.628783" rx="0.514635" ry="0.628783" transform="matrix(0.775685 0.63112 0.63112 -0.775685 1164.31 598.452)" fill="#FFE8AB"/>
<ellipse cx="0.514635" cy="0.628783" rx="0.514635" ry="0.628783" transform="matrix(-0.775685 -0.63112 -0.63112 0.775685 442.841 359.673)" fill="#FFE8AB"/>
<ellipse cx="0.514635" cy="0.628783" rx="0.514635" ry="0.628783" transform="matrix(-0.775685 -0.63112 -0.63112 0.775685 462.066 309.297)" fill="#FFE8AB"/>
<ellipse cx="0.514635" cy="0.628783" rx="0.514635" ry="0.628783" transform="matrix(-0.775685 -0.63112 -0.63112 0.775685 444.602 439.575)" fill="#FFE8AB"/>
<ellipse cx="0.514635" cy="0.628783" rx="0.514635" ry="0.628783" transform="matrix(-0.775685 -0.63112 -0.63112 0.775685 493.375 338.662)" fill="#FFE8AB"/>
<ellipse cx="0.514635" cy="0.628783" rx="0.514635" ry="0.628783" transform="matrix(-0.775685 -0.63112 -0.63112 0.775685 481.41 420.431)" fill="#FFE8AB"/>
<ellipse cx="0.514635" cy="0.628783" rx="0.514635" ry="0.628783" transform="matrix(-0.775685 -0.63112 -0.63112 0.775685 295.034 443.108)" fill="#FFE8AB"/>
<ellipse cx="0.514635" cy="0.628783" rx="0.514635" ry="0.628783" transform="matrix(-0.775685 -0.63112 -0.63112 0.775685 299.774 619.208)" fill="#FFE8AB"/>
<ellipse cx="0.514635" cy="0.628783" rx="0.514635" ry="0.628783" transform="matrix(-0.775685 -0.63112 -0.63112 0.775685 193.224 569.87)" fill="#FFE8AB"/>
<ellipse cx="0.514635" cy="0.628783" rx="0.514635" ry="0.628783" transform="matrix(-0.775685 -0.63112 -0.63112 0.775685 486.551 461.082)" fill="#FFE8AB"/>
<ellipse cx="0.514635" cy="0.628783" rx="0.514635" ry="0.628783" transform="matrix(-0.775685 -0.63112 -0.63112 0.775685 391.335 287.939)" fill="#FFE8AB"/>
<ellipse cx="0.514635" cy="0.628783" rx="0.514635" ry="0.628783" transform="matrix(-0.775685 -0.63112 -0.63112 0.775685 545.99 358.08)" fill="#FFE8AB"/>
<ellipse cx="0.514635" cy="0.628783" rx="0.514635" ry="0.628783" transform="matrix(-0.775685 -0.63112 -0.63112 0.775685 398.604 354.679)" fill="#FFE8AB"/>
<ellipse cx="0.514635" cy="0.628783" rx="0.514635" ry="0.628783" transform="matrix(-0.775685 -0.63112 -0.63112 0.775685 391.061 390.305)" fill="#FFE8AB"/>
<ellipse cx="0.514635" cy="0.628783" rx="0.514635" ry="0.628783" transform="matrix(0.775685 0.63112 0.63112 -0.775685 1349.28 611.857)" fill="#FFE8AB"/>
<ellipse cx="0.514635" cy="0.628783" rx="0.514635" ry="0.628783" transform="matrix(-0.775685 -0.63112 -0.63112 0.775685 980.575 161.289)" fill="#FFE8AB"/>
<ellipse cx="0.514635" cy="0.628783" rx="0.514635" ry="0.628783" transform="matrix(-0.775685 -0.63112 -0.63112 0.775685 999.801 110.913)" fill="#FFE8AB"/>
<ellipse cx="0.514635" cy="0.628783" rx="0.514635" ry="0.628783" transform="matrix(-0.775685 -0.63112 -0.63112 0.775685 982.337 241.191)" fill="#FFE8AB"/>
<ellipse cx="0.514635" cy="0.628783" rx="0.514635" ry="0.628783" transform="matrix(-0.775685 -0.63112 -0.63112 0.775685 1031.11 140.278)" fill="#FFE8AB"/>
<ellipse cx="0.514635" cy="0.628783" rx="0.514635" ry="0.628783" transform="matrix(-0.775685 -0.63112 -0.63112 0.775685 1019.14 222.046)" fill="#FFE8AB"/>
<ellipse cx="0.514635" cy="0.628783" rx="0.514635" ry="0.628783" transform="matrix(-0.775685 -0.63112 -0.63112 0.775685 832.768 244.724)" fill="#FFE8AB"/>
<ellipse cx="0.514635" cy="0.628783" rx="0.514635" ry="0.628783" transform="matrix(-0.775685 -0.63112 -0.63112 0.775685 837.509 420.824)" fill="#FFE8AB"/>
<ellipse cx="0.514635" cy="0.628783" rx="0.514635" ry="0.628783" transform="matrix(-0.775685 -0.63112 -0.63112 0.775685 730.958 371.485)" fill="#FFE8AB"/>
<ellipse cx="0.514635" cy="0.628783" rx="0.514635" ry="0.628783" transform="matrix(-0.775685 -0.63112 -0.63112 0.775685 1024.29 262.697)" fill="#FFE8AB"/>
<ellipse cx="0.514635" cy="0.628783" rx="0.514635" ry="0.628783" transform="matrix(-0.775685 -0.63112 -0.63112 0.775685 929.069 89.5547)" fill="#FFE8AB"/>
<ellipse cx="0.514635" cy="0.628783" rx="0.514635" ry="0.628783" transform="matrix(-0.775685 -0.63112 -0.63112 0.775685 1083.72 159.696)" fill="#FFE8AB"/>
<ellipse cx="0.514635" cy="0.628783" rx="0.514635" ry="0.628783" transform="matrix(-0.775685 -0.63112 -0.63112 0.775685 936.338 156.294)" fill="#FFE8AB"/>
<ellipse cx="0.514635" cy="0.628783" rx="0.514635" ry="0.628783" transform="matrix(-0.775685 -0.63112 -0.63112 0.775685 928.795 191.921)" fill="#FFE8AB"/>
<defs>
<linearGradient id="paint0_linear_533_1222" x1="647" y1="19.5" x2="647" y2="955.5" gradientUnits="userSpaceOnUse">
<stop offset="0.366" stop-color="#111111"/>
<stop offset="0.806" stop-color="#6A5618"/>
<stop offset="1" stop-color="#BF9515"/>
</linearGradient>
</defs>
</svg>
