<svg width="399" height="475" viewBox="0 0 399 475" fill="none" xmlns="http://www.w3.org/2000/svg">
<g clip-path="url(#clip0_322_1717)">
<rect x="1" y="1" width="397" height="473" fill="url(#paint0_angular_322_1717)"/>
<rect x="1" y="1" width="397" height="473" fill="#111111" fill-opacity="0.77"/>
<path d="M30.6909 106.059V85.0586H34.9809V106.059H30.6909ZM52.8358 106.059H48.7258V98.1686C48.7258 95.8286 48.0358 94.4186 45.2758 94.4186C42.8158 94.4186 41.4958 95.8286 41.4958 98.5586V106.059H37.3858V91.0586H41.4958V93.0986C42.4858 91.5386 44.1058 90.6086 46.5058 90.6086C50.6758 90.6086 52.8358 92.4386 52.8358 97.7786V106.059ZM70.3999 106.059H66.2899V98.1686C66.2899 95.8286 65.5999 94.4186 62.8399 94.4186C60.3799 94.4186 59.0599 95.8286 59.0599 98.5586V106.059H54.9499V91.0586H59.0599V93.0986C60.0499 91.5386 61.6699 90.6086 64.0699 90.6086C68.2399 90.6086 70.3999 92.4386 70.3999 97.7786V106.059ZM71.914 98.5586C71.914 93.3386 74.644 90.6086 80.374 90.6086C86.104 90.6086 88.864 93.3386 88.864 98.5586C88.864 103.779 86.104 106.509 80.374 106.509C74.644 106.509 71.914 103.779 71.914 98.5586ZM76.174 98.5586C76.174 101.289 77.554 102.699 80.374 102.699C83.224 102.699 84.604 101.289 84.604 98.5586C84.604 95.8286 83.224 94.4186 80.374 94.4186C77.374 94.4186 76.174 95.8286 76.174 98.5586ZM94.954 106.059L88.564 91.0586H93.064L97.234 100.779L101.374 91.0586H105.874L99.484 106.059H94.954ZM116.917 96.5486C116.917 94.2386 114.787 93.9986 113.287 93.9986C111.817 93.9986 109.807 94.1486 109.807 96.2486H106.117C106.117 92.1386 108.877 90.6086 113.347 90.6086C118.477 90.6086 120.997 92.0486 120.997 97.2086V106.059H116.917V104.049C116.317 105.519 114.937 106.509 111.757 106.509C108.127 106.509 105.277 105.519 105.277 101.739C105.277 98.6486 107.677 97.4786 111.577 97.0886L116.917 96.6086V96.5486ZM116.917 99.4586L112.357 99.9086C110.677 100.059 109.537 100.479 109.537 101.679C109.537 102.639 110.467 103.119 112.417 103.119C115.387 103.119 116.797 101.949 116.917 100.959V99.4586ZM125.497 100.599V94.7486H122.197V91.0586H125.497L127.087 85.0586H129.577V91.0586H136.897V94.7486H129.577V100.179C129.577 101.589 129.907 102.699 131.407 102.699C132.577 102.699 133.417 102.159 133.417 100.359H137.107C137.107 105.009 134.947 106.509 131.227 106.509C127.387 106.509 125.497 104.679 125.497 100.599ZM153.791 99.1586V99.7586H142.301C142.631 102.249 144.101 103.119 146.411 103.119C148.451 103.119 149.891 102.129 149.891 100.959H153.611C153.611 104.259 151.061 106.509 146.381 106.509C140.741 106.509 137.981 103.779 137.981 98.5586C137.981 93.4586 140.771 90.6086 145.841 90.6086C151.511 90.6086 153.791 93.4586 153.791 99.1586ZM142.451 96.8486H149.741C149.411 94.8986 148.001 93.9986 146.051 93.9986C144.341 93.9986 142.961 94.9586 142.451 96.8486ZM165.181 100.599V94.7486H161.881V91.0586H165.181L166.771 85.0586H169.261V91.0586H176.581V94.7486H169.261V100.179C169.261 101.589 169.591 102.699 171.091 102.699C172.261 102.699 173.101 102.159 173.101 100.359H176.791C176.791 105.009 174.631 106.509 170.911 106.509C167.071 106.509 165.181 104.679 165.181 100.599ZM182.375 106.059H178.265V83.5586H182.375V93.0986C183.365 91.5386 184.985 90.6086 187.385 90.6086C191.555 90.6086 193.715 92.4386 193.715 97.7786V106.059H189.605V98.1686C189.605 95.8286 188.915 94.4186 186.155 94.4186C183.695 94.4186 182.375 95.8286 182.375 98.5586V106.059ZM211.039 99.1586V99.7586H199.549C199.879 102.249 201.349 103.119 203.659 103.119C205.699 103.119 207.139 102.129 207.139 100.959H210.859C210.859 104.259 208.309 106.509 203.629 106.509C197.989 106.509 195.229 103.779 195.229 98.5586C195.229 93.4586 198.019 90.6086 203.089 90.6086C208.759 90.6086 211.039 93.4586 211.039 99.1586ZM199.699 96.8486H206.989C206.659 94.8986 205.249 93.9986 203.299 93.9986C201.589 93.9986 200.209 94.9586 199.699 96.8486ZM220.03 106.059V85.0586H236.62V88.9586H224.32V93.6086H235.42V97.5086H224.32V106.059H220.03ZM237.821 91.0586H241.931V98.9486C241.931 101.289 242.621 102.699 245.381 102.699C247.841 102.699 249.161 101.289 249.161 98.5586V91.0586H253.271V106.059H249.161V104.019C248.171 105.579 246.551 106.509 244.151 106.509C239.981 106.509 237.821 104.679 237.821 99.3386V91.0586ZM258.085 100.599V94.7486H254.785V91.0586H258.085L259.675 85.0586H262.165V91.0586H269.485V94.7486H262.165V100.179C262.165 101.589 262.495 102.699 263.995 102.699C265.165 102.699 266.005 102.159 266.005 100.359H269.695C269.695 105.009 267.535 106.509 263.815 106.509C259.975 106.509 258.085 104.679 258.085 100.599ZM270.869 91.0586H274.979V98.9486C274.979 101.289 275.669 102.699 278.429 102.699C280.889 102.699 282.209 101.289 282.209 98.5586V91.0586H286.319V106.059H282.209V104.019C281.219 105.579 279.599 106.509 277.199 106.509C273.029 106.509 270.869 104.679 270.869 99.3386V91.0586ZM292.843 106.059H288.733V91.0586H292.843V93.0686C293.773 91.5086 295.213 90.6086 297.133 90.6086C300.643 90.6086 302.683 92.6486 302.683 97.1186H298.993C298.993 95.5286 298.003 94.4186 296.173 94.4186C294.073 94.4186 292.843 95.8286 292.843 98.5586V106.059ZM318.636 99.1586V99.7586H307.146C307.476 102.249 308.946 103.119 311.256 103.119C313.296 103.119 314.736 102.129 314.736 100.959H318.456C318.456 104.259 315.906 106.509 311.226 106.509C305.586 106.509 302.826 103.779 302.826 98.5586C302.826 93.4586 305.616 90.6086 310.686 90.6086C316.356 90.6086 318.636 93.4586 318.636 99.1586ZM307.296 96.8486H314.586C314.256 94.8986 312.846 93.9986 310.896 93.9986C309.186 93.9986 307.806 94.9586 307.296 96.8486ZM319.834 104.199C319.834 102.669 320.524 101.919 322.144 101.919C323.734 101.919 324.424 102.669 324.424 104.199C324.424 105.729 323.734 106.509 322.144 106.509C320.524 106.509 319.834 105.729 319.834 104.199Z" fill="#DCA802"/>
<path d="M30.1909 158V144H32.5909V155.8H41.0909V158H30.1909ZM51.7269 153.28V153.68H43.6669C43.8669 155.66 45.0069 156.34 46.8269 156.34C48.3869 156.34 49.5069 155.54 49.5069 154.58L51.6069 154.6C51.6069 156.8 49.9269 158.3 46.8269 158.3C43.0669 158.3 41.2269 156.46 41.2269 152.98C41.2269 149.58 43.0869 147.7 46.4669 147.7C50.2269 147.7 51.7269 149.6 51.7269 153.28ZM43.7269 151.98H49.4469C49.2269 150.34 48.1269 149.64 46.5669 149.64C45.1669 149.64 44.0469 150.44 43.7269 151.98ZM55.8261 158L51.5261 148H54.0661L57.0861 155.06L60.1261 148H62.6661L58.3661 158H55.8261ZM72.9581 153.28V153.68H64.8981C65.0981 155.66 66.2381 156.34 68.0581 156.34C69.6181 156.34 70.7381 155.54 70.7381 154.58L72.8381 154.6C72.8381 156.8 71.1581 158.3 68.0581 158.3C64.2981 158.3 62.4581 156.46 62.4581 152.98C62.4581 149.58 64.3181 147.7 67.6981 147.7C71.4581 147.7 72.9581 149.6 72.9581 153.28ZM64.9581 151.98H70.6781C70.4581 150.34 69.3581 149.64 67.7981 149.64C66.3981 149.64 65.2781 150.44 64.9581 151.98ZM76.4573 158H74.1573V148H76.4573V149.38C77.0773 148.32 78.0973 147.7 79.4773 147.7C81.8973 147.7 83.1973 149.12 83.1973 152.04H81.0973C81.0973 150.74 80.4573 149.84 78.9773 149.84C77.3973 149.84 76.4573 150.92 76.4573 152.98V158ZM91.5465 151.62C91.5465 149.8 89.9665 149.64 88.8665 149.64C87.7265 149.64 86.2665 149.76 86.2665 151.46H84.1665C84.1665 148.76 85.9665 147.7 88.8665 147.7C92.2065 147.7 93.8465 148.76 93.8465 151.96V158H91.5465V156.64C91.1465 157.62 90.2065 158.3 88.0065 158.3C85.4865 158.3 83.6065 157.64 83.6065 155.16C83.6065 153.16 85.1865 152.32 88.0065 152.02L91.5465 151.66V151.62ZM91.5465 153.32L88.3465 153.64C87.0465 153.78 86.0065 154.14 86.0065 155.12C86.0065 155.88 86.6065 156.34 88.3265 156.34C90.5665 156.34 91.4465 155.38 91.5465 154.64V153.32ZM105.252 145.54V147.36C104.612 146.98 103.772 146.8 103.052 146.8C102.452 146.8 101.632 147.04 101.372 147.78C103.732 148.08 104.912 149.24 104.912 151.2C104.912 153.52 103.372 154.7 100.072 154.7C97.7319 154.7 96.8519 154.72 96.8519 155.28C96.8519 155.76 97.6919 155.9 100.292 156.16C103.232 156.48 105.432 156.52 105.432 159.18C105.432 161.26 103.752 162.2 100.412 162.2C96.4719 162.2 94.8519 161.1 94.8519 158.5H96.9519C96.9519 159.82 98.1919 160.26 100.472 160.26C102.312 160.26 103.472 160.02 103.472 159.16C103.472 158.16 102.272 158.42 99.9719 158.16C97.6319 157.9 94.8919 157.76 94.8919 155.5C94.8919 154.56 95.3919 154.02 96.1719 153.7C95.4319 153.12 95.0519 152.28 95.0519 151.2C95.0519 148.06 97.9519 147.7 100.432 147.7C100.612 146.24 101.552 145.1 103.152 145.1C103.952 145.1 104.692 145.32 105.252 145.54ZM97.4519 151.18C97.4519 152.28 98.4519 152.74 100.052 152.74C101.712 152.74 102.512 152.28 102.512 151.18C102.512 150.1 101.612 149.64 99.9519 149.64C98.0719 149.64 97.4519 150.1 97.4519 151.18ZM116.358 153.28V153.68H108.298C108.498 155.66 109.638 156.34 111.458 156.34C113.018 156.34 114.138 155.54 114.138 154.58L116.238 154.6C116.238 156.8 114.558 158.3 111.458 158.3C107.698 158.3 105.858 156.46 105.858 152.98C105.858 149.58 107.718 147.7 111.098 147.7C114.858 147.7 116.358 149.6 116.358 153.28ZM108.358 151.98H114.078C113.858 150.34 112.758 149.64 111.198 149.64C109.798 149.64 108.678 150.44 108.358 151.98ZM121.953 153C121.953 149.52 123.773 147.7 127.553 147.7C131.333 147.7 133.153 149.52 133.153 153C133.153 156.48 131.333 158.3 127.553 158.3C123.773 158.3 121.953 156.48 121.953 153ZM124.353 153C124.353 155.06 125.393 156.14 127.553 156.14C129.713 156.14 130.753 155.06 130.753 153C130.753 150.92 129.713 149.84 127.553 149.84C125.313 149.84 124.353 150.92 124.353 153ZM134.155 148H136.455V153.38C136.455 155.06 136.975 156.14 139.115 156.14C141.015 156.14 142.015 155.06 142.015 153V148H144.315V158H142.015V156.6C141.335 157.68 140.215 158.3 138.475 158.3C135.575 158.3 134.155 156.98 134.155 153.56V148ZM148.208 158H145.908V148H148.208V149.38C148.828 148.32 149.848 147.7 151.228 147.7C153.648 147.7 154.948 149.12 154.948 152.04H152.848C152.848 150.74 152.208 149.84 150.728 149.84C149.148 149.84 148.208 150.92 148.208 152.98V158ZM163.053 158H160.753V148H163.053V149.38C163.673 148.32 164.693 147.7 166.073 147.7C168.493 147.7 169.793 149.12 169.793 152.04H167.693C167.693 150.74 167.053 149.84 165.573 149.84C163.993 149.84 163.053 150.92 163.053 152.98V158ZM180.531 153.28V153.68H172.471C172.671 155.66 173.811 156.34 175.631 156.34C177.191 156.34 178.311 155.54 178.311 154.58L180.411 154.6C180.411 156.8 178.731 158.3 175.631 158.3C171.871 158.3 170.031 156.46 170.031 152.98C170.031 149.58 171.891 147.7 175.271 147.7C179.031 147.7 180.531 149.6 180.531 153.28ZM172.531 151.98H178.251C178.031 150.34 176.931 149.64 175.371 149.64C173.971 149.64 172.851 150.44 172.531 151.98ZM181.37 150.7C181.37 148.58 182.95 147.7 186.03 147.7C189.51 147.7 191.07 148.8 191.07 151.4H188.97C188.97 150.04 187.81 149.64 185.63 149.64C183.73 149.64 183.37 150.16 183.37 150.66C183.37 151.22 184.21 151.62 186.45 152.02C189.29 152.52 191.19 152.82 191.19 155.24C191.19 157.44 189.59 158.3 186.57 158.3C182.95 158.3 181.33 157.2 181.33 154.6H183.43C183.43 155.9 184.81 156.34 186.87 156.34C188.55 156.34 189.19 155.92 189.19 155.3C189.19 154.4 188.07 154.36 185.97 154C183.79 153.66 181.37 153.08 181.37 150.7ZM191.985 153C191.985 149.52 193.805 147.7 197.585 147.7C201.365 147.7 203.185 149.52 203.185 153C203.185 156.48 201.365 158.3 197.585 158.3C193.805 158.3 191.985 156.48 191.985 153ZM194.385 153C194.385 155.06 195.425 156.14 197.585 156.14C199.745 156.14 200.785 155.06 200.785 153C200.785 150.92 199.745 149.84 197.585 149.84C195.345 149.84 194.385 150.92 194.385 153ZM204.187 148H206.487V153.38C206.487 155.06 207.007 156.14 209.147 156.14C211.047 156.14 212.047 155.06 212.047 153V148H214.347V158H212.047V156.6C211.367 157.68 210.247 158.3 208.507 158.3C205.607 158.3 204.187 156.98 204.187 153.56V148ZM218.24 158H215.94V148H218.24V149.38C218.86 148.32 219.88 147.7 221.26 147.7C223.68 147.7 224.98 149.12 224.98 152.04H222.88C222.88 150.74 222.24 149.84 220.76 149.84C219.18 149.84 218.24 150.92 218.24 152.98V158ZM230.658 147.7C233.838 147.7 235.518 149.6 235.518 152H233.418C233.418 150.74 232.478 149.84 230.638 149.84C228.838 149.84 227.618 150.66 227.618 152.96C227.618 155.36 228.978 156.14 230.758 156.14C232.638 156.14 233.498 155.24 233.498 154H235.598C235.598 156.4 234.058 158.3 230.698 158.3C227.138 158.3 225.218 156.48 225.218 153C225.218 149.48 226.878 147.7 230.658 147.7ZM246.705 153.28V153.68H238.645C238.845 155.66 239.985 156.34 241.805 156.34C243.365 156.34 244.485 155.54 244.485 154.58L246.585 154.6C246.585 156.8 244.905 158.3 241.805 158.3C238.045 158.3 236.205 156.46 236.205 152.98C236.205 149.58 238.065 147.7 241.445 147.7C245.205 147.7 246.705 149.6 246.705 153.28ZM238.705 151.98H244.425C244.205 150.34 243.105 149.64 241.545 149.64C240.145 149.64 239.025 150.44 238.705 151.98ZM247.544 150.7C247.544 148.58 249.124 147.7 252.204 147.7C255.684 147.7 257.244 148.8 257.244 151.4H255.144C255.144 150.04 253.984 149.64 251.804 149.64C249.904 149.64 249.544 150.16 249.544 150.66C249.544 151.22 250.384 151.62 252.624 152.02C255.464 152.52 257.364 152.82 257.364 155.24C257.364 157.44 255.764 158.3 252.744 158.3C249.124 158.3 247.504 157.2 247.504 154.6H249.604C249.604 155.9 250.984 156.34 253.044 156.34C254.724 156.34 255.364 155.92 255.364 155.3C255.364 154.4 254.244 154.36 252.144 154C249.964 153.66 247.544 153.08 247.544 150.7ZM258.319 156.9C258.319 155.96 258.739 155.5 259.719 155.5C260.699 155.5 261.119 155.96 261.119 156.9C261.119 158.54 260.419 160.4 258.579 161.12L258.279 160.66C259.259 159.78 259.579 159.06 259.699 158.3C258.759 158.28 258.319 157.86 258.319 156.9ZM35.2309 177.7C38.4109 177.7 40.0909 179.6 40.0909 182H37.9909C37.9909 180.74 37.0509 179.84 35.2109 179.84C33.4109 179.84 32.1909 180.66 32.1909 182.96C32.1909 185.36 33.5509 186.14 35.3309 186.14C37.2109 186.14 38.0709 185.24 38.0709 184H40.1709C40.1709 186.4 38.6309 188.3 35.2709 188.3C31.7109 188.3 29.7909 186.48 29.7909 183C29.7909 179.48 31.4509 177.7 35.2309 177.7ZM40.7776 183C40.7776 179.52 42.5976 177.7 46.3776 177.7C50.1576 177.7 51.9776 179.52 51.9776 183C51.9776 186.48 50.1576 188.3 46.3776 188.3C42.5976 188.3 40.7776 186.48 40.7776 183ZM43.1776 183C43.1776 185.06 44.2176 186.14 46.3776 186.14C48.5376 186.14 49.5776 185.06 49.5776 183C49.5776 180.92 48.5376 179.84 46.3776 179.84C44.1376 179.84 43.1776 180.92 43.1776 183ZM63.34 188H61.04V182.62C61.04 180.92 60.52 179.84 58.38 179.84C56.48 179.84 55.48 180.92 55.48 182.98V188H53.18V178H55.48V179.4C56.14 178.32 57.28 177.7 59.02 177.7C61.92 177.7 63.34 179.02 63.34 182.42V188ZM74.8931 188H72.5931V182.62C72.5931 180.92 72.0731 179.84 69.9331 179.84C68.0331 179.84 67.0331 180.92 67.0331 182.98V188H64.7331V178H67.0331V179.4C67.6931 178.32 68.8331 177.7 70.5731 177.7C73.4731 177.7 74.8931 179.02 74.8931 182.42V188ZM86.3862 183.28V183.68H78.3262C78.5262 185.66 79.6662 186.34 81.4862 186.34C83.0462 186.34 84.1662 185.54 84.1662 184.58L86.2662 184.6C86.2662 186.8 84.5862 188.3 81.4862 188.3C77.7262 188.3 75.8862 186.46 75.8862 182.98C75.8862 179.58 77.7462 177.7 81.1262 177.7C84.8862 177.7 86.3862 179.6 86.3862 183.28ZM78.3862 181.98H84.1062C83.8862 180.34 82.7862 179.64 81.2262 179.64C79.8262 179.64 78.7062 180.44 78.3862 181.98ZM92.6254 177.7C95.8054 177.7 97.4854 179.6 97.4854 182H95.3854C95.3854 180.74 94.4454 179.84 92.6054 179.84C90.8054 179.84 89.5854 180.66 89.5854 182.96C89.5854 185.36 90.9454 186.14 92.7254 186.14C94.6054 186.14 95.4654 185.24 95.4654 184H97.5654C97.5654 186.4 96.0254 188.3 92.6654 188.3C89.1054 188.3 87.1854 186.48 87.1854 183C87.1854 179.48 88.8454 177.7 92.6254 177.7ZM100.372 184.44V180.1H97.9722V178H100.372L101.172 174H102.672L102.652 178H107.672V180.1H102.672V184.14C102.672 185.18 102.852 186.14 104.072 186.14C104.972 186.14 105.652 185.7 105.652 184.2H107.752C107.752 187.3 106.332 188.3 103.992 188.3C101.632 188.3 100.372 187.18 100.372 184.44ZM108.477 174.96C108.477 173.94 108.917 173.46 109.977 173.46C111.017 173.46 111.477 173.94 111.477 174.96C111.477 175.96 111.017 176.46 109.977 176.46C108.917 176.46 108.477 175.96 108.477 174.96ZM108.817 188V178H111.117V188H108.817ZM112.314 183C112.314 179.52 114.134 177.7 117.914 177.7C121.694 177.7 123.514 179.52 123.514 183C123.514 186.48 121.694 188.3 117.914 188.3C114.134 188.3 112.314 186.48 112.314 183ZM114.714 183C114.714 185.06 115.754 186.14 117.914 186.14C120.074 186.14 121.114 185.06 121.114 183C121.114 180.92 120.074 179.84 117.914 179.84C115.674 179.84 114.714 180.92 114.714 183ZM134.876 188H132.576V182.62C132.576 180.92 132.056 179.84 129.916 179.84C128.016 179.84 127.016 180.92 127.016 182.98V188H124.716V178H127.016V179.4C127.676 178.32 128.816 177.7 130.556 177.7C133.456 177.7 134.876 179.02 134.876 182.42V188ZM135.909 180.7C135.909 178.58 137.489 177.7 140.569 177.7C144.049 177.7 145.609 178.8 145.609 181.4H143.509C143.509 180.04 142.349 179.64 140.169 179.64C138.269 179.64 137.909 180.16 137.909 180.66C137.909 181.22 138.749 181.62 140.989 182.02C143.829 182.52 145.729 182.82 145.729 185.24C145.729 187.44 144.129 188.3 141.109 188.3C137.489 188.3 135.869 187.2 135.869 184.6H137.969C137.969 185.9 139.349 186.34 141.409 186.34C143.089 186.34 143.729 185.92 143.729 185.3C143.729 184.4 142.609 184.36 140.509 184C138.329 183.66 135.909 183.08 135.909 180.7ZM146.684 186.9C146.684 185.96 147.104 185.5 148.084 185.5C149.064 185.5 149.484 185.96 149.484 186.9C149.484 188.54 148.784 190.4 146.944 191.12L146.644 190.66C147.624 189.78 147.944 189.06 148.064 188.3C147.124 188.28 146.684 187.86 146.684 186.9ZM162.819 181.62C162.819 179.8 161.239 179.64 160.139 179.64C158.999 179.64 157.539 179.76 157.539 181.46H155.439C155.439 178.76 157.239 177.7 160.139 177.7C163.479 177.7 165.119 178.76 165.119 181.96V188H162.819V186.64C162.419 187.62 161.479 188.3 159.279 188.3C156.759 188.3 154.879 187.64 154.879 185.16C154.879 183.16 156.459 182.32 159.279 182.02L162.819 181.66V181.62ZM162.819 183.32L159.619 183.64C158.319 183.78 157.279 184.14 157.279 185.12C157.279 185.88 157.879 186.34 159.599 186.34C161.839 186.34 162.719 185.38 162.819 184.64V183.32ZM176.685 188H174.385V182.62C174.385 180.92 173.865 179.84 171.725 179.84C169.825 179.84 168.825 180.92 168.825 182.98V188H166.525V178H168.825V179.4C169.485 178.32 170.625 177.7 172.365 177.7C175.265 177.7 176.685 179.02 176.685 182.42V188ZM185.938 188V186.48C185.358 187.58 184.338 188.3 182.538 188.3C179.758 188.3 177.678 186.48 177.678 183C177.678 179.52 179.458 177.7 182.458 177.7C184.298 177.7 185.358 178.34 185.938 179.46V173H188.238V188H185.938ZM180.078 182.98C180.078 185.04 181.078 186.14 182.978 186.14C184.938 186.14 185.938 185.04 185.938 182.98C185.938 180.92 184.938 179.84 182.978 179.84C180.798 179.84 180.078 180.92 180.078 182.98ZM194.281 180.7C194.281 178.58 195.861 177.7 198.941 177.7C202.421 177.7 203.981 178.8 203.981 181.4H201.881C201.881 180.04 200.721 179.64 198.541 179.64C196.641 179.64 196.281 180.16 196.281 180.66C196.281 181.22 197.121 181.62 199.361 182.02C202.201 182.52 204.101 182.82 204.101 185.24C204.101 187.44 202.501 188.3 199.481 188.3C195.861 188.3 194.241 187.2 194.241 184.6H196.341C196.341 185.9 197.721 186.34 199.781 186.34C201.461 186.34 202.101 185.92 202.101 185.3C202.101 184.4 200.981 184.36 198.881 184C196.701 183.66 194.281 183.08 194.281 180.7ZM205.096 178H207.396V183.38C207.396 185.06 207.916 186.14 210.056 186.14C211.956 186.14 212.956 185.06 212.956 183V178H215.256V188H212.956V186.6C212.276 187.68 211.156 188.3 209.416 188.3C206.516 188.3 205.096 186.98 205.096 183.56V178ZM219.149 192H216.849V178H219.149V179.4C219.709 178.32 220.709 177.7 222.449 177.7C225.169 177.7 227.009 179.52 227.009 183C227.009 186.48 224.869 188.3 222.369 188.3C220.669 188.3 219.689 187.6 219.149 186.52V192ZM224.609 182.98C224.609 180.92 223.809 179.84 221.909 179.84C220.109 179.84 219.149 180.92 219.149 182.98C219.149 185.04 220.109 186.14 221.909 186.14C223.549 186.14 224.609 185.04 224.609 182.98ZM230.507 192H228.207V178H230.507V179.4C231.067 178.32 232.067 177.7 233.807 177.7C236.527 177.7 238.367 179.52 238.367 183C238.367 186.48 236.227 188.3 233.727 188.3C232.027 188.3 231.047 187.6 230.507 186.52V192ZM235.967 182.98C235.967 180.92 235.167 179.84 233.267 179.84C231.467 179.84 230.507 180.92 230.507 182.98C230.507 185.04 231.467 186.14 233.267 186.14C234.907 186.14 235.967 185.04 235.967 182.98ZM239.164 183C239.164 179.52 240.984 177.7 244.764 177.7C248.544 177.7 250.364 179.52 250.364 183C250.364 186.48 248.544 188.3 244.764 188.3C240.984 188.3 239.164 186.48 239.164 183ZM241.564 183C241.564 185.06 242.604 186.14 244.764 186.14C246.924 186.14 247.964 185.06 247.964 183C247.964 180.92 246.924 179.84 244.764 179.84C242.524 179.84 241.564 180.92 241.564 183ZM253.867 188H251.567V178H253.867V179.38C254.487 178.32 255.507 177.7 256.887 177.7C259.307 177.7 260.607 179.12 260.607 182.04H258.507C258.507 180.74 257.867 179.84 256.387 179.84C254.807 179.84 253.867 180.92 253.867 182.98V188ZM263.416 184.44V180.1H261.016V178H263.416L264.216 174H265.716L265.696 178H270.716V180.1H265.716V184.14C265.716 185.18 265.896 186.14 267.116 186.14C268.016 186.14 268.696 185.7 268.696 184.2H270.796C270.796 187.3 269.376 188.3 267.036 188.3C264.676 188.3 263.416 187.18 263.416 184.44ZM276.296 180.7C276.296 178.58 277.876 177.7 280.956 177.7C284.436 177.7 285.996 178.8 285.996 181.4H283.896C283.896 180.04 282.736 179.64 280.556 179.64C278.656 179.64 278.296 180.16 278.296 180.66C278.296 181.22 279.136 181.62 281.376 182.02C284.216 182.52 286.116 182.82 286.116 185.24C286.116 187.44 284.516 188.3 281.496 188.3C277.876 188.3 276.256 187.2 276.256 184.6H278.356C278.356 185.9 279.736 186.34 281.796 186.34C283.476 186.34 284.116 185.92 284.116 185.3C284.116 184.4 282.996 184.36 280.896 184C278.716 183.66 276.296 183.08 276.296 180.7ZM293.525 187.66C292.445 190.74 292.005 192.6 289.125 192.6C286.965 192.6 286.025 190.94 286.025 188.74H288.025C288.025 190.3 288.545 190.66 289.145 190.66C290.005 190.66 290.385 189.76 290.845 188.44L291.025 187.86L285.805 178H288.405L292.065 184.88L294.465 178H296.905L293.525 187.66ZM297.136 180.7C297.136 178.58 298.716 177.7 301.796 177.7C305.276 177.7 306.836 178.8 306.836 181.4H304.736C304.736 180.04 303.576 179.64 301.396 179.64C299.496 179.64 299.136 180.16 299.136 180.66C299.136 181.22 299.976 181.62 302.216 182.02C305.056 182.52 306.956 182.82 306.956 185.24C306.956 187.44 305.356 188.3 302.336 188.3C298.716 188.3 297.096 187.2 297.096 184.6H299.196C299.196 185.9 300.576 186.34 302.636 186.34C304.316 186.34 304.956 185.92 304.956 185.3C304.956 184.4 303.836 184.36 301.736 184C299.556 183.66 297.136 183.08 297.136 180.7ZM309.951 184.44V180.1H307.551V178H309.951L310.751 174H312.251L312.231 178H317.251V180.1H312.251V184.14C312.251 185.18 312.431 186.14 313.651 186.14C314.551 186.14 315.231 185.7 315.231 184.2H317.331C317.331 187.3 315.911 188.3 313.571 188.3C311.211 188.3 309.951 187.18 309.951 184.44ZM328.496 183.28V183.68H320.436C320.636 185.66 321.776 186.34 323.596 186.34C325.156 186.34 326.276 185.54 326.276 184.58L328.376 184.6C328.376 186.8 326.696 188.3 323.596 188.3C319.836 188.3 317.996 186.46 317.996 182.98C317.996 179.58 319.856 177.7 323.236 177.7C326.996 177.7 328.496 179.6 328.496 183.28ZM320.496 181.98H326.216C325.996 180.34 324.896 179.64 323.336 179.64C321.936 179.64 320.816 180.44 320.496 181.98ZM338.955 188H336.655V182.22C336.655 180.92 336.215 179.84 334.435 179.84C332.835 179.84 331.995 180.92 331.995 182.98V188H329.695V178H331.995V179.38C332.635 178.32 333.675 177.7 335.255 177.7C336.755 177.7 337.815 178.26 338.395 179.36C338.995 178.4 340.035 177.7 341.695 177.7C344.615 177.7 345.895 179.02 345.895 182.42V188H343.595V182.62C343.595 180.92 343.155 179.84 341.395 179.84C339.775 179.84 338.955 180.92 338.955 182.24V188ZM31.9909 214.44V210.1H29.5909V208H31.9909L32.7909 204H34.2909L34.2709 208H39.2909V210.1H34.2909V214.14C34.2909 215.18 34.4709 216.14 35.6909 216.14C36.5909 216.14 37.2709 215.7 37.2709 214.2H39.3709C39.3709 217.3 37.9509 218.3 35.6109 218.3C33.2509 218.3 31.9909 217.18 31.9909 214.44ZM40.0354 213C40.0354 209.52 41.8554 207.7 45.6354 207.7C49.4154 207.7 51.2355 209.52 51.2355 213C51.2355 216.48 49.4154 218.3 45.6354 218.3C41.8554 218.3 40.0354 216.48 40.0354 213ZM42.4354 213C42.4354 215.06 43.4754 216.14 45.6354 216.14C47.7954 216.14 48.8355 215.06 48.8355 213C48.8355 210.92 47.7954 209.84 45.6354 209.84C43.3954 209.84 42.4354 210.92 42.4354 213ZM59.0331 214.44V210.1H56.6331V208H59.0331L59.8331 204H61.3331L61.3131 208H66.3331V210.1H61.3331V214.14C61.3331 215.18 61.5131 216.14 62.7331 216.14C63.6331 216.14 64.3131 215.7 64.3131 214.2H66.4131C66.4131 217.3 64.9931 218.3 62.6531 218.3C60.2931 218.3 59.0331 217.18 59.0331 214.44ZM67.2776 208H69.5776V213.38C69.5776 215.06 70.0976 216.14 72.2376 216.14C74.1376 216.14 75.1376 215.06 75.1376 213V208H77.4376V218H75.1376V216.6C74.4576 217.68 73.3376 218.3 71.5976 218.3C68.6976 218.3 67.2776 216.98 67.2776 213.56V208ZM81.3308 218H79.0308V208H81.3308V209.38C81.9508 208.32 82.9708 207.7 84.3508 207.7C86.7708 207.7 88.0708 209.12 88.0708 212.04H85.9708C85.9708 210.74 85.3308 209.84 83.8508 209.84C82.2708 209.84 81.3308 210.92 81.3308 212.98V218ZM99.24 218H96.94V212.62C96.94 210.92 96.42 209.84 94.28 209.84C92.38 209.84 91.38 210.92 91.38 212.98V218H89.08V208H91.38V209.4C92.04 208.32 93.18 207.7 94.92 207.7C97.82 207.7 99.24 209.02 99.24 212.42V218ZM112.228 217.66C111.148 220.74 110.708 222.6 107.828 222.6C105.668 222.6 104.728 220.94 104.728 218.74H106.728C106.728 220.3 107.248 220.66 107.848 220.66C108.708 220.66 109.088 219.76 109.548 218.44L109.728 217.86L104.508 208H107.108L110.768 214.88L113.168 208H115.608L112.228 217.66ZM115.8 213C115.8 209.52 117.62 207.7 121.4 207.7C125.18 207.7 127 209.52 127 213C127 216.48 125.18 218.3 121.4 218.3C117.62 218.3 115.8 216.48 115.8 213ZM118.2 213C118.2 215.06 119.24 216.14 121.4 216.14C123.56 216.14 124.6 215.06 124.6 213C124.6 210.92 123.56 209.84 121.4 209.84C119.16 209.84 118.2 210.92 118.2 213ZM128.003 208H130.303V213.38C130.303 215.06 130.823 216.14 132.963 216.14C134.863 216.14 135.863 215.06 135.863 213V208H138.163V218H135.863V216.6C135.183 217.68 134.063 218.3 132.323 218.3C129.423 218.3 128.003 216.98 128.003 213.56V208ZM142.056 218H139.756V208H142.056V209.38C142.676 208.32 143.696 207.7 145.076 207.7C147.496 207.7 148.796 209.12 148.796 212.04H146.696C146.696 210.74 146.056 209.84 144.576 209.84C142.996 209.84 142.056 210.92 142.056 212.98V218ZM162.46 218V216.48C161.88 217.58 160.86 218.3 159.06 218.3C156.28 218.3 154.2 216.48 154.2 213C154.2 209.52 155.98 207.7 158.98 207.7C160.82 207.7 161.88 208.34 162.46 209.46V203H164.76V218H162.46ZM156.6 212.98C156.6 215.04 157.6 216.14 159.5 216.14C161.46 216.14 162.46 215.04 162.46 212.98C162.46 210.92 161.46 209.84 159.5 209.84C157.32 209.84 156.6 210.92 156.6 212.98ZM168.668 218H166.368V208H168.668V209.38C169.288 208.32 170.308 207.7 171.688 207.7C174.108 207.7 175.408 209.12 175.408 212.04H173.308C173.308 210.74 172.668 209.84 171.188 209.84C169.608 209.84 168.668 210.92 168.668 212.98V218ZM186.146 213.28V213.68H178.086C178.286 215.66 179.426 216.34 181.246 216.34C182.806 216.34 183.926 215.54 183.926 214.58L186.026 214.6C186.026 216.8 184.346 218.3 181.246 218.3C177.486 218.3 175.646 216.46 175.646 212.98C175.646 209.58 177.506 207.7 180.886 207.7C184.646 207.7 186.146 209.6 186.146 213.28ZM178.146 211.98H183.866C183.646 210.34 182.546 209.64 180.986 209.64C179.586 209.64 178.466 210.44 178.146 211.98ZM194.686 211.62C194.686 209.8 193.106 209.64 192.006 209.64C190.866 209.64 189.406 209.76 189.406 211.46H187.306C187.306 208.76 189.106 207.7 192.006 207.7C195.346 207.7 196.986 208.76 196.986 211.96V218H194.686V216.64C194.286 217.62 193.346 218.3 191.146 218.3C188.626 218.3 186.746 217.64 186.746 215.16C186.746 213.16 188.326 212.32 191.146 212.02L194.686 211.66V211.62ZM194.686 213.32L191.486 213.64C190.186 213.78 189.146 214.14 189.146 215.12C189.146 215.88 189.746 216.34 191.466 216.34C193.706 216.34 194.586 215.38 194.686 214.64V213.32ZM207.651 218H205.351V212.22C205.351 210.92 204.911 209.84 203.131 209.84C201.531 209.84 200.691 210.92 200.691 212.98V218H198.391V208H200.691V209.38C201.331 208.32 202.371 207.7 203.951 207.7C205.451 207.7 206.511 208.26 207.091 209.36C207.691 208.4 208.731 207.7 210.391 207.7C213.311 207.7 214.591 209.02 214.591 212.42V218H212.291V212.62C212.291 210.92 211.851 209.84 210.091 209.84C208.471 209.84 207.651 210.92 207.651 212.24V218ZM215.639 210.7C215.639 208.58 217.219 207.7 220.299 207.7C223.779 207.7 225.339 208.8 225.339 211.4H223.239C223.239 210.04 222.079 209.64 219.899 209.64C217.999 209.64 217.639 210.16 217.639 210.66C217.639 211.22 218.479 211.62 220.719 212.02C223.559 212.52 225.459 212.82 225.459 215.24C225.459 217.44 223.859 218.3 220.839 218.3C217.219 218.3 215.599 217.2 215.599 214.6H217.699C217.699 215.9 219.079 216.34 221.139 216.34C222.819 216.34 223.459 215.92 223.459 215.3C223.459 214.4 222.339 214.36 220.239 214C218.059 213.66 215.639 213.08 215.639 210.7ZM231.109 204.96C231.109 203.94 231.549 203.46 232.609 203.46C233.649 203.46 234.109 203.94 234.109 204.96C234.109 205.96 233.649 206.46 232.609 206.46C231.549 206.46 231.109 205.96 231.109 204.96ZM231.449 218V208H233.749V218H231.449ZM245.506 218H243.206V212.62C243.206 210.92 242.686 209.84 240.546 209.84C238.646 209.84 237.646 210.92 237.646 212.98V218H235.346V208H237.646V209.4C238.306 208.32 239.446 207.7 241.186 207.7C244.086 207.7 245.506 209.02 245.506 212.42V218ZM248.113 214.44V210.1H245.713V208H248.113L248.913 204H250.413L250.393 208H255.413V210.1H250.413V214.14C250.413 215.18 250.593 216.14 251.813 216.14C252.713 216.14 253.393 215.7 253.393 214.2H255.493C255.493 217.3 254.073 218.3 251.733 218.3C249.373 218.3 248.113 217.18 248.113 214.44ZM256.157 213C256.157 209.52 257.977 207.7 261.757 207.7C265.537 207.7 267.357 209.52 267.357 213C267.357 216.48 265.537 218.3 261.757 218.3C257.977 218.3 256.157 216.48 256.157 213ZM258.557 213C258.557 215.06 259.597 216.14 261.757 216.14C263.917 216.14 264.957 215.06 264.957 213C264.957 210.92 263.917 209.84 261.757 209.84C259.517 209.84 258.557 210.92 258.557 213ZM275.655 218H273.355V208H275.655V209.38C276.275 208.32 277.295 207.7 278.675 207.7C281.095 207.7 282.395 209.12 282.395 212.04H280.295C280.295 210.74 279.655 209.84 278.175 209.84C276.595 209.84 275.655 210.92 275.655 212.98V218ZM293.133 213.28V213.68H285.073C285.273 215.66 286.413 216.34 288.233 216.34C289.793 216.34 290.913 215.54 290.913 214.58L293.013 214.6C293.013 216.8 291.333 218.3 288.233 218.3C284.473 218.3 282.633 216.46 282.633 212.98C282.633 209.58 284.493 207.7 287.873 207.7C291.633 207.7 293.133 209.6 293.133 213.28ZM285.133 211.98H290.853C290.633 210.34 289.533 209.64 287.973 209.64C286.573 209.64 285.453 210.44 285.133 211.98ZM301.672 211.62C301.672 209.8 300.092 209.64 298.992 209.64C297.852 209.64 296.392 209.76 296.392 211.46H294.292C294.292 208.76 296.092 207.7 298.992 207.7C302.332 207.7 303.972 208.76 303.972 211.96V218H301.672V216.64C301.272 217.62 300.332 218.3 298.132 218.3C295.612 218.3 293.732 217.64 293.732 215.16C293.732 213.16 295.312 212.32 298.132 212.02L301.672 211.66V211.62ZM301.672 213.32L298.472 213.64C297.172 213.78 296.132 214.14 296.132 215.12C296.132 215.88 296.732 216.34 298.452 216.34C300.692 216.34 301.572 215.38 301.672 214.64V213.32ZM307.678 218H305.378V203H307.678V218ZM308.935 204.96C308.935 203.94 309.375 203.46 310.435 203.46C311.475 203.46 311.935 203.94 311.935 204.96C311.935 205.96 311.475 206.46 310.435 206.46C309.375 206.46 308.935 205.96 308.935 204.96ZM309.275 218V208H311.575V218H309.275ZM314.971 214.44V210.1H312.571V208H314.971L315.771 204H317.271L317.251 208H322.271V210.1H317.271V214.14C317.271 215.18 317.451 216.14 318.671 216.14C319.571 216.14 320.251 215.7 320.251 214.2H322.351C322.351 217.3 320.931 218.3 318.591 218.3C316.231 218.3 314.971 217.18 314.971 214.44ZM330.216 217.66C329.136 220.74 328.696 222.6 325.816 222.6C323.656 222.6 322.716 220.94 322.716 218.74H324.716C324.716 220.3 325.236 220.66 325.836 220.66C326.696 220.66 327.076 219.76 327.536 218.44L327.716 217.86L322.496 208H325.096L328.756 214.88L331.156 208H333.596L330.216 217.66ZM333.788 216.9C333.788 215.96 334.208 215.5 335.188 215.5C336.168 215.5 336.588 215.96 336.588 216.9C336.588 217.82 336.168 218.3 335.188 218.3C334.208 218.3 333.788 217.82 333.788 216.9Z" fill="white"/>
<g clip-path="url(#clip1_322_1717)">
<path d="M164.158 292.353C179.289 292.31 194.42 292.267 208.253 293.434C209.206 297.091 208.559 300.944 208.123 304.697C207.688 308.451 207.516 312.455 209.284 315.795C211.052 319.134 215.415 321.367 218.747 319.584C221.72 317.994 222.571 314.204 223.109 310.876C224.133 304.525 225.162 298.137 225.103 291.704C225.074 288.502 224.737 285.179 223.109 282.421C221.48 279.663 218.262 277.628 215.123 278.26C212.349 278.818 210.282 281.3 209.399 283.988C208.516 286.676 208.604 289.573 209.143 292.648C210.941 292.207 212.96 292.839 214.186 294.227C214.67 294.775 215.053 295.443 215.684 295.815C216.736 296.437 218.186 295.972 218.945 295.015C219.703 294.057 219.877 292.749 219.749 291.533C219.645 290.539 219.331 289.519 218.609 288.829C217.886 288.139 216.681 287.892 215.869 288.475C215.094 289.031 214.913 290.089 214.796 291.037C214.155 296.193 213.515 301.35 212.874 306.505C212.722 307.725 212.571 308.97 212.814 310.175C213.057 311.379 213.767 312.558 214.897 313.042C216.61 313.774 218.843 312.33 218.876 310.466C218.91 308.603 216.732 307.079 215.345 308.712C212.069 309.902 212.046 314.997 214.539 317.434C217.032 319.87 220.785 320.349 224.253 320.7C231.076 321.391 237.924 322.083 244.778 321.844C253.329 321.547 262.296 319.552 268.517 313.679C274.739 307.805 277.034 297.226 271.693 290.54C268.348 286.353 262.922 284.504 257.734 283.162C245.95 280.113 233.766 278.614 221.442 279.058C220.674 279.327 219.907 279.597 219.14 279.867C223.322 281.877 222.22 288.993 226.163 291.438C227.747 292.421 229.743 292.354 231.606 292.253C238.233 291.898 244.862 291.543 251.489 291.188C256.353 290.928 261.413 290.698 265.903 292.588C270.393 294.477 274.11 299.156 273.296 303.846C288.289 304.361 301.985 313.848 310.426 326.25C318.867 338.652 322.666 353.66 324.482 368.552C326.299 383.445 326.287 398.507 327.901 413.423C329.847 431.402 335.405 450.946 350.721 460.561C359.043 465.787 370.301 467.14 378.655 461.966C395.443 451.567 390.41 438.741 390.762 428.851C388.442 428.664 386.123 428.477 383.802 428.29C383.884 424.407 383.966 420.525 383.911 417.284C377.875 417.206 371.917 414.519 367.864 410.045C363.81 405.572 361.721 399.379 362.237 393.365C364.689 393.898 367.443 391.08 369.455 392.579C370.264 393.182 370.52 394.259 370.783 395.235C371.552 398.097 372.887 400.873 375.036 402.913C377.187 404.951 380.231 406.166 383.595 406.363C383.837 396.236 384.079 386.111 384.091 376.444C380.166 375.005 376.208 373.545 372.665 371.324C369.122 369.102 365.979 366.032 364.394 362.162C362.062 356.469 363.526 349.604 367.427 344.846C371.329 340.089 379.179 337.36 385.768 337.298C385.969 332.424 386.169 327.548 386.369 322.673C389.332 322.703 392.295 322.734 395.258 322.764C396.007 322.771 396.843 322.815 397.359 323.358C397.899 323.928 397.871 324.812 397.808 325.594C397.498 329.493 397.187 333.39 397.324 337.004C402.336 337.76 407.082 340.184 410.632 343.802C414.182 347.42 416.517 352.21 417.18 357.235C415.246 357.878 413.313 358.521 410.321 359.348C408.022 353.811 402.805 349.587 396.669 348.965C396.259 354.955 395.849 360.944 394.835 368.606C403.602 368.46 411.37 373.391 415.729 380.999C420.088 388.607 420.861 398.581 416.302 406.072C411.744 413.562 402.945 418.261 393.076 417.226C393.456 404.489 393.837 391.753 394.015 379.253C394.485 377.342 394.958 375.399 394.865 373.433C394.773 371.468 394.034 369.441 392.48 368.234C390.848 366.968 388.651 366.804 386.605 366.518C382.22 365.907 377.553 364.2 375.388 360.338C373.717 357.36 373.961 353.412 375.987 350.663C378.012 347.913 381.709 346.509 385.049 347.222C385.262 353.313 385.475 359.404 386.312 365.565C385.887 369.681 385.768 374.565 389.034 377.106C391.779 379.242 395.667 378.693 399.08 379.362C406.055 380.73 411.17 388.299 409.836 395.281C408.503 402.264 400.958 407.415 394.724 406.703C392.017 406.978 389.309 407.253 386.602 407.527C385.703 410.112 384.795 412.914 385.6 415.531C386.404 418.148 389.75 420.1 391.969 418.497C392.545 425.671 393.119 432.933 391.912 440.028C390.706 447.123 387.51 454.148 381.807 458.539C374.753 463.972 364.641 464.512 356.453 461.016C348.265 457.52 341.946 450.445 338.081 442.424C334.215 434.403 330.808 415.527 328.525 405.654C328.676 390.961 328.821 376.178 326.417 361.682C324.013 347.186 318.9 332.845 309.567 321.495C300.234 310.146 286.305 302.09 271.143 302.022C267.708 306.897 263.985 311.705 259.106 315.134C254.227 318.563 247.441 322.828 241.795 321.837" stroke="#FFF3C1" stroke-width="1.8" stroke-miterlimit="10" stroke-linecap="round" stroke-linejoin="round"/>
<path d="M152.059 321.704C150.598 322.086 149.072 322.47 147.596 322.152C146.12 321.833 144.729 320.574 144.801 319.066C150.946 319.045 157.09 318.774 163.213 318.254C164.51 318.144 165.883 317.994 166.911 317.197C167.896 316.434 168.401 315.18 168.525 313.941C168.649 312.701 168.436 311.455 167.884 309.345C167.771 301.061 167.658 292.777 167.544 284.493C167.5 281.317 166.824 277.295 163.739 276.545C161.775 276.068 159.72 277.358 158.683 279.094C157.648 280.83 157.41 282.913 157.246 284.928C156.527 293.746 156.763 302.642 157.952 311.409C158.326 314.162 159.39 317.525 162.142 317.907C164.04 318.171 165.833 316.695 166.581 314.931C167.33 313.167 167.275 311.181 167.209 309.266C166.909 300.661 166.609 292.056 166.31 283.451C166.245 281.571 166.122 279.532 164.899 278.101C163.544 276.514 161.265 276.164 159.189 275.96C152.089 275.26 144.856 275.053 137.882 276.552C130.907 278.051 124.157 281.384 119.547 286.829C114.937 292.272 112.749 299.986 114.86 306.801C116.971 313.615 123.812 318.963 131.124 318.049C132.385 318.409 133.644 318.769 134.905 319.129C134.712 317.658 134.52 316.187 134.327 314.716C130.305 316.655 125.646 313.66 122.673 310.328C119.7 306.997 116.917 302.916 112.567 301.913C109.512 301.209 106.331 302.226 103.473 303.517C94.1127 307.746 86.2147 315.136 81.3725 324.195C75.9593 334.324 74.4359 346.091 74.332 357.575C74.2281 369.058 75.4479 380.533 75.1055 392.012C74.8263 401.37 73.2496 411.285 67.0955 418.34C60.9413 425.395 48.9403 427.964 42.188 421.478C39.7701 419.155 38.3335 415.144 40.371 412.481C42.2712 409.998 46.2992 410.123 48.8174 411.977C51.3356 413.831 52.6566 416.873 53.6614 419.834C56.9386 429.493 57.993 440.128 55.1486 449.923C52.3043 459.718 45.2213 468.52 35.6572 472.067C26.093 475.615 14.2203 473.113 7.88909 465.115C1.65998 457.246 1.65185 446.293 1.67263 435.705C-1.97683 436.245 -5.64165 434.11 -7.7903 431.112C-9.93896 428.113 -10.8082 424.388 -11.2654 420.727C-11.7226 417.066 -11.8193 413.35 -12.6442 409.754C-3.6475 408.574 5.40883 407.859 15.8892 406.805C21.6511 391.724 34.1618 379.366 37.0053 363.474C39.3382 350.437 34.2079 336.323 24.0474 327.827C13.8869 319.331 -0.911538 316.78 -13.3309 321.383C-25.7485 325.985 -35.3081 337.565 -37.4748 350.631C-39.2593 361.39 -36.2794 372.505 -31.196 382.153C-26.1126 391.801 -19.0179 400.217 -11.1217 408.824C-8.54116 408.521 -5.96151 408.218 -3.38096 407.915C-4.17247 394.195 -4.96398 380.477 -5.75459 366.757C-5.92537 363.79 -6.16029 360.639 -7.915 358.241C-9.6697 355.843 -13.5315 354.75 -15.6368 356.847C-17.7963 358.998 -16.5819 362.982 -14.051 364.682C-11.5202 366.381 -8.271 366.447 -5.2233 366.455C-2.95176 366.461 -0.680229 366.467 1.59041 366.472C4.69864 366.481 8.05534 366.409 10.5329 364.533C13.0113 362.657 13.6926 358.246 11.0289 356.644C8.80801 355.308 5.75941 356.84 4.55136 359.132C3.3433 361.424 3.46077 364.159 3.60985 366.747C4.37697 380.116 5.14409 393.485 6.31781 407.293C8.70681 406.592 11.2982 405.895 13.633 406.761C15.9678 407.627 17.5445 410.803 15.9307 412.698C7.71109 413.296 -0.509456 413.896 -8.7291 414.494C-10.0365 414.589 -11.4154 414.709 -12.4879 415.462C-13.5604 416.216 -14.1378 417.838 -13.3336 418.873C-12.5801 419.844 -11.1307 419.81 -9.90914 419.686C-3.04212 418.991 3.8249 418.295 10.691 417.599C11.9397 417.473 13.2544 417.356 14.4001 417.868C15.5458 418.379 16.4078 419.755 15.9054 420.905C15.3488 422.179 13.6565 422.374 12.2659 422.395C5.43955 422.5 -1.38139 422.961 -8.16076 423.773C-9.53055 423.938 -11.1262 424.275 -11.7 425.529C-12.3189 426.881 -11.2392 428.519 -9.85041 429.049C-8.46165 429.579 -6.91115 429.318 -5.44829 429.051C-1.27115 428.287 2.90508 427.524 7.08222 426.76C9.01131 426.408 11.2874 426.155 12.6671 427.549C14.3504 429.251 13.3529 432.375 11.3416 433.673C9.33026 434.97 6.77682 434.966 3.58636 434.615C3.45535 440.569 3.58184 446.599 5.10162 452.357C6.6214 458.116 9.66006 463.64 14.4408 467.192C21.7045 472.589 32.2417 472.494 40.0665 467.948C47.8913 463.402 53.0343 454.986 54.7818 446.105C56.5293 437.226 55.1387 427.943 52.1127 419.414C51.3004 417.126 50.2776 414.753 48.2988 413.344C46.32 411.936 43.1223 411.984 41.8357 414.045C40.7135 415.841 41.5014 418.265 42.8404 419.906C46.4411 424.318 53.244 424.954 58.5243 422.82C66.622 419.547 71.6711 411.069 73.2189 402.474C74.7675 393.878 73.3941 378.731 73.1999 370.385C72.637 360.181 72.4445 349.874 74.2525 339.816C76.0605 329.757 79.9901 319.881 86.8354 312.293C93.6808 304.704 103.67 299.636 114.816 299.832C119.355 300.714 124.005 301.6 128.575 300.897C133.146 300.194 137.702 297.579 139.44 293.293C140.434 290.838 140.439 288.056 141.532 285.643C143.106 282.171 146.787 279.983 150.554 279.399C154.321 278.814 158.835 278.158 162.219 280.572C162.219 280.572 165.327 284.664 164.632 287.677C162.955 287.35 161.399 289.153 161.562 290.855C161.726 292.556 163.158 293.92 164.758 294.521C166.358 295.122 179.013 294.943 184.784 294.871C186.086 294.855 187.452 294.822 188.589 294.186C189.727 293.55 190.521 292.097 189.976 290.913C189.356 289.564 187.555 289.365 186.07 289.356C179.487 289.317 175.253 289.278 168.67 289.239C167.295 289.231 164.908 288.715 163.81 289.542C162.114 290.82 163.027 293.898 163.464 295.975C163.901 298.053 163.323 302.272 162.587 304.453C161.466 304.486 160.688 305.796 160.941 306.887C161.195 307.979 162.207 308.764 163.283 309.074C164.36 309.384 165.505 309.304 166.623 309.221C172.614 308.778 180.051 309.237 186.041 308.793C187.055 308.718 188.127 308.623 188.953 308.03C189.778 307.438 190.202 305.077 189.55 304.297C189.018 303.66 188.068 303.627 187.238 303.644C180.06 303.794 171.798 303.402 164.679 303.28" stroke="#FFF3C1" stroke-width="1.8" stroke-miterlimit="10" stroke-linecap="round" stroke-linejoin="round"/>
<path d="M142.269 321.571C140.209 321.296 138.112 321.298 136.254 321.596C134.097 319.793 133.672 316.259 135.34 313.997C136.516 314.335 136.683 316.296 135.581 316.827C135.614 314.947 135.703 312.904 136.912 311.463C138.121 310.022 140.882 309.856 141.616 311.587C141.925 312.315 141.795 313.143 141.757 313.933C141.697 315.223 141.9 316.514 141.847 317.803C141.793 319.093 141.435 320.452 140.473 321.313C139.512 322.174 137.832 322.296 137.004 321.305" stroke="#FFF3C1" stroke-width="0.722844" stroke-miterlimit="10" stroke-linecap="round" stroke-linejoin="round"/>
</g>
</g>
<rect x="0.5" y="0.5" width="398" height="474" stroke="#111111"/>
<defs>
<radialGradient id="paint0_angular_322_1717" cx="0" cy="0" r="1" gradientUnits="userSpaceOnUse" gradientTransform="translate(199.5 26.3581) rotate(90) scale(447.642 375.716)">
<stop stop-color="#111111" stop-opacity="0"/>
<stop offset="0.466" stop-color="#29220E"/>
</radialGradient>
<clipPath id="clip0_322_1717">
<rect x="1" y="1" width="397" height="473" fill="white"/>
</clipPath>
<clipPath id="clip1_322_1717">
<rect width="458.095" height="198.939" fill="white" transform="translate(-38.3567 275.061)"/>
</clipPath>
</defs>
</svg>
