<svg width="603" height="833" viewBox="0 0 603 833" fill="none" xmlns="http://www.w3.org/2000/svg">
<g clip-path="url(#clip0_74_95)">
<path d="M-91.027 79.8189C-90.4203 84.2273 -89.1568 88.541 -87.3812 92.6266C-83.7799 100.909 -78.3529 108.19 -72.5752 115.136C-66.6138 122.3 -60.4465 129.302 -54.2236 136.254C-41.6274 150.336 -28.7195 164.141 -16.2457 178.323C-3.92782 192.322 7.98931 206.688 18.6262 221.956C23.9141 229.543 28.9014 237.341 33.4155 245.395C37.9909 253.544 42.1766 261.899 46.9858 269.925C55.7914 284.637 67.4859 298.608 84.4293 304.497C92.1384 307.174 100.638 307.786 108.514 305.41C116.691 302.933 123.721 297.667 132.037 295.569C146.08 292.017 156.478 302.498 165.979 310.903C175.046 318.919 186.396 327.201 198.931 320.895C206.851 316.915 213.147 309.484 218.707 302.877C224.813 295.635 230.374 287.965 236.636 280.846C241.957 274.79 248.241 268.896 255.316 264.448C256.396 263.769 257.481 263.135 258.594 262.522C256.774 260.051 254.96 257.58 253.139 255.108C252.048 255.748 250.991 256.422 249.939 257.123C241.083 263.101 233.608 271.3 227.034 279.427C221.29 286.518 215.841 293.86 209.629 300.573C203.929 306.712 197.027 313.775 188.093 314.605C176.126 315.712 166.781 304.819 158.704 297.845C154.218 293.971 149.42 290.219 143.809 288.032C137.102 285.416 130.127 286.234 123.565 288.9C115.822 292.045 108.759 296.882 100.321 298.174C92.0438 299.443 83.5443 297.411 76.1469 293.748C59.9549 285.722 50.5704 270.215 42.377 255.075C33.7161 239.067 24.5598 223.57 13.6946 208.881C2.85175 194.237 -8.98189 180.327 -21.1439 166.718C-33.267 153.147 -45.6962 139.844 -57.8082 126.268C-63.8475 119.489 -69.9146 112.693 -75.5753 105.612C-80.5515 99.3895 -85.099 92.7045 -86.7744 84.9286C-51.8023 81.3329 -18.6002 95.7659 14.9581 102.846C30.4042 106.102 45.9505 107.533 61.7138 106.035C78.6572 104.432 95.2499 100.425 112.204 98.8662C120.62 98.0926 129.12 97.9645 137.508 99.0945C145.473 100.169 153.221 102.351 160.791 104.933C175.364 109.887 189.457 116.361 204.58 119.639C238.361 126.964 270.762 113.227 303.474 107.149C327.214 102.735 354.694 102.54 375.005 116.667C375.539 117.04 376.062 117.413 376.591 117.802C377.465 118.465 378.328 119.138 379.174 119.856C379.653 120.251 380.126 120.658 380.588 121.081C380.643 121.131 380.699 121.17 380.743 121.192C381.278 121.537 381.389 120.764 381.406 120.29C381.411 120.207 381.411 120.129 381.411 120.073C381.4 119.11 380.81 117.791 380.137 117.101C379.586 116.544 379.024 115.993 378.461 115.465C356.464 94.8698 322.588 95.944 294.607 101.761C277.263 105.362 260.259 110.511 242.697 113.099C225.732 115.598 209.217 114.919 192.797 109.943C177.696 105.373 163.391 98.5601 148.128 94.4746C132.126 90.1831 115.928 90.4892 99.6082 92.7101C82.4144 95.0534 65.3708 99.0221 47.9487 99.3449C32.0908 99.6399 16.3998 96.573 1.10954 92.7268C-28.9143 85.1735 -59.094 74.0635 -90.6151 77.5034C-91.4055 77.6035 -91.0771 79.4626 -91.027 79.8189Z" fill="white"/>
<path d="M441.943 37.0039C451.45 53.925 454.473 73.6849 450.922 92.6655C450.137 96.8735 449.285 101.994 446.007 105.123C442.745 108.228 437.78 108.963 433.41 109.047C422.918 109.258 412.003 105.473 402.379 101.727C397.13 99.6844 392.945 97.4078 390.256 92.3315C387.774 87.6392 387.161 82.4126 386.811 77.2194C386.694 75.4549 388.041 75.3158 389.148 76.3121C390.64 77.6591 391.314 80.047 391.431 81.9506C391.559 84.0713 391.62 86.4035 392.327 88.4352C393.078 90.5893 394.926 91.7248 396.941 92.71C401.928 95.1368 407.339 96.9625 412.643 98.6045C418.12 100.302 423.764 101.966 429.497 102.54C434.412 103.035 441.092 102.952 444.426 98.7326C447.37 95.0088 448.127 89.3814 448.84 84.8561C449.647 79.7186 449.881 74.5031 449.619 69.3099C449.074 58.4948 446.185 47.6464 441.359 37.9056C440.919 37.0317 441.131 35.5567 441.943 37.0039Z" fill="white"/>
<path d="M383.705 64.9683C384.094 63.7048 383.783 62.8253 382.441 63.4042C381.851 63.6602 381.233 64.5119 380.838 65.0239C379.781 66.3876 379.068 68.0742 378.946 69.783C378.701 73.2006 381.974 74.0021 384.428 75.505C385.269 76.0171 387.985 81.6612 386.237 81.728C382.413 81.8671 379.085 77.5255 377.526 74.5309C375.639 70.9074 374.894 66.6047 376.252 62.6973C377.293 59.6916 380.716 54.9158 384.156 58.0607C387.061 60.7213 387.846 65.4692 386.093 68.8757C385.491 70.0446 383.41 65.9201 383.705 64.9683Z" fill="white"/>
<path d="M383.265 71.2524C383.104 71.2301 383.003 71.4249 383.003 71.5641C382.881 71.052 382.758 70.5399 382.642 70.0278C382.959 70.8015 381.873 69.0816 382.308 69.5157C382.441 69.6493 382.569 69.8052 382.692 69.9443C382.976 70.2783 383.254 70.6178 383.538 70.9518C384.439 71.9927 385.102 73.49 385.124 74.8648C385.13 75.2099 385.13 75.7999 384.729 75.9558C384.334 76.1061 383.894 75.6552 383.677 75.427C382.152 73.7794 380.654 71.4583 380.604 69.1762C380.599 68.9424 380.621 68.3747 380.938 68.2634C381.534 68.0574 382.057 68.0296 382.597 68.3914C383.126 68.7476 383.438 69.5658 383.566 70.1447C383.632 70.4397 383.81 71.3247 383.265 71.2524Z" fill="white"/>
<path d="M385.547 62.4135C390.2 61.5841 390.924 54.7377 391.347 51.1364C392.009 45.5035 391.442 40.1322 390.1 34.6439C389.232 31.0872 388.236 26.3392 391.286 23.4782C394.453 20.5059 399.039 21.4187 402.685 22.916C412.359 26.8847 422.089 31.3042 432.403 33.5029C436.695 34.4213 442.578 33.2802 441.459 27.6751C440.691 23.8345 437.079 20.0829 434.167 17.5837C427.772 12.0843 419.567 8.85594 411.246 7.41987C401.778 5.78342 390.802 6.06173 382.636 11.6223C379.101 14.0269 376.157 17.4278 374.56 21.3631C372.951 25.3206 374.025 29.7902 371.203 33.2802C368.481 36.6477 365.058 38.9243 363.077 42.9041C361.167 46.7503 360.449 51.1086 360.305 55.3556C360.126 60.6546 360.678 66.0426 361.496 71.2748C362.314 76.507 363.555 81.7948 366.294 86.4147C368.899 90.8008 372.979 94.9476 377.972 96.6342C382.792 98.2651 388.514 97.0405 390.557 92.0699C391.191 90.5281 393.295 93.7954 393.501 94.1795C394.292 95.6434 395.177 97.8754 394.475 99.523C392.683 103.737 388.13 105.69 383.643 105.239C378.261 104.705 373.524 101.02 370.023 97.2186C362.425 88.9529 358.985 77.6926 357.527 66.8886C356.236 57.3149 355.084 46.5833 359.108 37.4604C360.06 35.3063 361.34 33.3025 362.96 31.5714C364.691 29.7234 366.828 28.2428 368.325 26.1889C369.895 24.0293 369.589 21.6804 370.079 19.209C370.535 16.9046 371.431 14.6614 372.673 12.6576C383.849 -5.38785 412.905 -1.53607 428.44 8.23809C436.11 13.0639 443.235 21.1126 444.854 30.1298C445.567 34.1151 444.905 39.0579 440.196 40.1989C435.108 41.4346 428.852 38.5681 424.137 37.0207C417.586 34.8666 411.302 32.2004 404.962 29.5286C402.106 28.3263 398.872 27.2298 395.828 28.4766C392.065 30.0129 392.56 33.5307 393.334 36.7312C394.826 42.8985 395.41 49.1994 394.342 55.4892C393.685 59.341 392.188 67.0723 386.599 65.4748C385.976 65.2856 384.651 62.5693 385.547 62.4135Z" fill="white"/>
<path d="M437.585 55.2775C438.164 57.7989 440.429 57.3369 442.3 58.222C443.674 58.8732 444.52 60.1423 445.077 61.5004C446.424 64.7845 445.222 68.8644 441.932 70.5844C441.687 70.6345 441.476 70.5677 441.292 70.3951C440.975 70.1669 440.663 69.9387 440.346 69.7161C439.5 69.1038 438.637 67.1556 439.082 66.1426C439.806 64.5173 441.982 64.3169 442.65 62.5302C442.706 62.2185 442.828 62.1461 443.018 62.3186C442.595 62.1183 442.172 61.9179 441.743 61.7286C441.203 61.4392 440.708 61.1442 440.235 60.749C438.565 59.3686 437.507 57.0753 437.218 54.988C437.151 54.4871 437.541 55.0826 437.585 55.2775Z" fill="white"/>
<path d="M444.732 78.0653C444.303 81.4717 441.832 82.5516 438.626 82.7909C434.858 83.0748 430.533 83.0414 427.516 80.6201C427.054 80.2472 425.852 78.1766 426.642 77.709C428.74 76.4789 432.871 77.9651 435.297 78.0708C437.518 78.1654 442.723 78.8779 443.68 76.2674C443.847 75.811 444.782 77.6868 444.732 78.0653Z" fill="white"/>
<path d="M427.076 54.5148C426.002 53.2402 424.026 53.101 422.506 53.5129C421.076 53.897 419.74 55.1383 418.282 55.0047C417.274 54.9156 416.489 52.2105 416.846 51.459C417.686 49.6946 420.503 48.9654 422.367 49.0489C424.516 49.1435 426.074 50.2734 427.171 52.0156C427.533 52.589 428.106 53.6354 427.928 54.3423C427.8 54.8822 427.538 55.0659 427.076 54.5148Z" fill="white"/>
<path d="M445.111 55.7006C444.799 55.2999 444.493 54.8935 444.164 54.5039C444.059 54.3759 443.78 54.2033 443.897 54.1922C443.569 54.22 443.318 54.7043 443.135 54.9047C442.773 55.2943 442.355 55.6394 441.943 55.9789C441.392 56.4354 441.058 56.5133 440.34 56.4075C439.684 56.3073 439.11 54.6097 439.266 54.0586C439.405 53.5855 439.5 53.1124 439.812 52.7227C440.012 52.4723 440.318 52.283 440.569 52.0882C441.081 51.693 441.838 50.9694 442.556 51.0139C443.112 51.0473 443.463 51.526 443.758 51.949C444.259 52.6726 444.688 53.4575 445.155 54.2033C445.378 54.554 445.712 55.1718 445.611 55.606C445.55 55.9233 445.378 56.0457 445.111 55.7006Z" fill="white"/>
<path d="M431.062 105.796C429.559 108.852 428.991 112.609 428.997 115.999C429.002 118.676 430.149 121.03 430.305 123.635C430.36 124.554 429.831 124.687 429.214 124.058C426.77 121.581 426.097 116.95 426.147 113.65C426.213 109.742 427.75 107.271 430.338 104.41C430.644 104.076 431.217 105.479 431.062 105.796Z" fill="white"/>
<path d="M430.722 125.634C428.139 129.385 426.592 133.337 426.197 137.857C426.085 139.098 424.911 138.046 424.555 137.651C423.681 136.671 423.247 135.18 423.135 133.916C423.013 132.513 420.046 130.565 419.083 129.686C417.82 128.534 416.528 127.404 415.22 126.302C412.231 123.775 409.125 121.376 405.936 119.093C402.886 116.911 399.757 114.835 396.551 112.876C393.334 110.911 389.46 109.414 386.783 106.798C386.399 106.419 384.595 102.556 385.72 102.501C387.751 102.4 389.894 104.159 391.609 105.145C393.69 106.341 395.744 107.583 397.765 108.868C401.95 111.535 406.008 114.401 409.91 117.451C413.667 120.385 417.341 123.457 420.792 126.736C423.77 129.563 426.224 133.126 426.224 137.334C425.206 136.02 424.187 134.706 423.169 133.393C424.488 129.48 426.38 125.89 429.247 122.845C429.881 122.166 431.184 124.955 430.722 125.634Z" fill="white"/>
<path d="M392.861 124.754C393.295 125.205 393.757 125.645 394.225 126.062C396.657 128.283 399.407 130.198 401.761 132.519C403.08 133.816 404.377 135.163 405.569 136.571C407.183 138.469 407.912 139.738 407.739 142.238C407.684 143.089 409.159 148.833 410.756 147.314C411.947 146.173 413.177 145.087 414.43 144.024C415.148 143.418 415.871 142.811 416.59 142.21C417.558 141.408 418.532 140.596 419.484 139.777C420.703 138.731 422.106 137.222 423.681 136.232C424.031 136.015 424.388 135.82 424.755 135.664C424.8 135.647 424.844 135.631 424.883 135.614C425.256 135.464 425.635 135.352 426.019 135.297C426.197 135.263 426.38 135.246 426.559 135.241C426.831 135.23 427.11 135.246 427.399 135.297C427.444 135.297 427.494 135.302 427.538 135.313C427.733 135.352 427.51 134.712 427.343 134.645C427.137 134.573 426.931 134.506 426.725 134.45C426.403 134.367 426.085 134.295 425.763 134.245C425.089 134.139 424.41 134.105 423.742 134.15C423.542 134.161 423.352 134.178 423.158 134.2C423.013 134.211 422.868 134.233 422.729 134.256C419.924 134.684 417.18 136.17 414.547 137.79C413.89 138.197 413.239 138.603 412.587 139.015C412.003 139.377 411.435 139.744 410.862 140.083C409.715 136.922 407.545 133.827 405.975 131.929C403.943 129.458 401.639 127.187 399.273 125.021C397.325 123.24 395.126 120.936 392.661 119.717C392.405 119.583 392.143 119.472 391.881 119.372C390.256 118.732 392.354 124.237 392.861 124.754Z" fill="white"/>
<path d="M422.2 132.346C423.987 129.947 427.872 136.003 428.752 137.122C431.557 140.679 433.644 144.842 436.539 148.299C436.004 148.316 435.464 148.332 434.93 148.349C435.743 143.673 435.821 139.799 434.006 135.335C432.954 132.753 433.934 130.231 435.915 133.643C439.244 139.371 440.752 147.492 438.153 153.759C437.646 154.984 435.921 152.295 435.832 152.112C434.357 149.017 432.286 146.078 430.355 143.245C429.459 141.931 428.546 140.629 427.583 139.36C426.586 138.052 424.727 134.946 423.063 134.484C422.512 134.333 421.844 132.831 422.2 132.346Z" fill="white"/>
<path d="M412.599 139.02C413.233 140.718 413.934 142.327 414.441 144.024C414.625 144.653 414.792 145.288 414.909 145.95C415.204 147.603 415.298 149.273 415.799 150.893C416.356 152.685 417.118 154.355 418.348 155.446C418.627 155.691 418.933 155.902 419.256 156.086C419.94 156.47 420.747 156.693 421.705 156.732C423.842 156.804 426.069 156.704 428.212 156.593C428.317 156.587 428.418 156.581 428.518 156.576C429.191 156.542 429.859 156.504 430.477 156.353C431.379 156.142 432.169 155.719 432.726 154.828C433.967 152.841 433.783 150.08 433.255 147.564C433.015 146.395 432.687 145.282 432.403 144.325C432.18 143.573 430.605 141.72 431 143.573C431.056 143.841 431.106 144.108 431.134 144.38C431.568 147.492 430.616 150.475 426.881 150.409C425.468 150.386 424.043 150.336 422.623 150.314C421.927 150.303 419.144 149.83 418.649 150.225C418.794 151.427 418.872 152.034 418.872 152.051C418.861 152.023 418.833 151.778 418.771 151.316C418.721 150.921 418.666 150.525 418.616 150.13C418.515 149.451 418.41 148.778 418.276 148.11C418.014 146.818 417.692 145.527 417.296 144.269C417.079 143.585 416.846 142.894 416.595 142.215C416.044 140.69 415.382 139.193 414.552 137.801C413.896 138.196 413.244 138.608 412.599 139.02Z" fill="white"/>
<path d="M429.113 152.323C437.34 175.907 442.044 201.099 445.255 225.774C446.858 238.114 447.955 250.521 448.539 262.951C448.84 269.324 449.001 275.697 449.024 282.076C449.046 288.171 449.369 294.533 448.138 300.544C445.823 311.816 435.67 318.901 430.138 328.514C429.514 329.6 428 328.03 427.672 327.551C420.892 317.621 414.207 307.636 407.506 297.661C404.528 293.225 400.609 288.622 400.553 283.044C400.498 277.795 402.635 272.162 403.799 267.075C406.392 255.709 409.315 244.36 411.291 232.871C413.289 221.243 413.656 209.382 414.391 197.632C415.243 184.05 416.139 170.474 416.946 156.893C417.046 155.245 417.97 154.884 419.194 156.025C420.508 157.244 421.605 159.904 421.488 161.691C420.018 183.733 419.373 205.931 417.102 227.912C415.983 238.721 413.539 249.274 411.107 259.856C409.899 265.127 408.686 270.398 407.478 275.675C406.849 278.402 406.22 281.13 405.596 283.857C405.351 284.942 404.867 286.167 405.162 287.275C405.479 288.482 406.865 289.852 407.578 290.915C414.719 301.552 421.877 312.172 428.941 322.859C428.117 322.536 427.299 322.219 426.475 321.896C431.357 313.847 439.689 307.764 443.235 298.941C445.456 293.414 445.205 287.291 445.266 281.452C445.328 275.469 445.266 269.485 445.077 263.502C444.331 239.434 441.543 215.443 436.8 191.815C434.134 178.529 430.466 165.532 427.137 152.401C426.458 149.713 428.384 150.236 429.113 152.323Z" fill="white"/>
<path d="M389.237 107.627C391.297 114.763 393.429 121.704 394.826 129.012C396.223 136.298 397.23 143.64 397.898 151.026C399.173 165.086 399.167 179.213 397.759 193.262C395.143 219.384 387.384 244.955 374.448 267.988C370.875 274.35 366.906 280.512 362.559 286.395C360.477 289.206 358.312 291.961 356.058 294.644C353.803 297.333 351.566 300.322 348.404 302.003C346.779 302.865 345.565 298.067 346.083 297.11C349.083 291.561 354.265 286.935 358.1 281.881C361.757 277.066 365.153 272.068 368.281 266.914C374.799 256.182 380.165 244.788 384.328 232.994C393.195 207.862 396.585 181.195 395.16 154.678C394.731 146.668 393.818 138.692 392.583 130.76C391.982 126.892 391.28 123.04 390.518 119.205C389.738 115.292 389.232 111.262 388.263 107.393C387.918 105.974 388.987 106.759 389.237 107.627Z" fill="white"/>
<path d="M387.712 109.214C385.959 114.858 381.578 119.912 378.15 124.71C374.777 129.43 371.403 134.145 368.025 138.865C367.145 140.089 366.338 141.52 365.325 142.633C364.696 144.019 364.129 143.557 363.611 141.264C364.201 141.726 364.791 142.188 365.381 142.65C367.451 144.281 369.517 145.917 371.582 147.553C376.335 151.333 381.05 155.157 385.781 158.964C386.989 159.938 390.028 164.953 387.851 166.161C373.04 174.388 382.925 194.693 383.694 207.072C384.573 221.255 379.591 236.078 369.656 246.525C367.936 248.334 364.329 241.243 365.86 239.501C375.979 227.968 381.378 212.872 378.795 197.688C376.697 185.359 370.507 166.651 384.846 158.736C385.536 161.135 386.226 163.534 386.916 165.933C381.283 161.385 375.639 156.849 370.04 152.257C366.104 149.028 358.674 144.342 360.895 138.225C361.841 135.614 364.49 133.176 366.194 131.005C368.414 128.172 370.63 125.344 372.856 122.517C375.072 119.7 377.298 116.89 379.563 114.112C381.606 111.607 383.532 108.479 386.571 107.076C387.261 106.77 387.84 108.807 387.712 109.214Z" fill="white"/>
<path d="M437.618 136.037C441.659 140.523 445.005 145.727 448.344 150.726C451.79 155.891 455.052 161.168 458.158 166.534C461.319 171.994 464.303 177.555 467.097 183.204C469.746 188.553 472.362 193.997 473.058 199.97C473.804 206.415 472.702 213.039 472.207 219.468C471.706 226.014 471.294 232.571 470.965 239.127C470.286 252.648 469.88 266.185 469.624 279.721C469.334 294.923 469.557 310.152 469.089 325.342C469.045 326.839 468.054 327.095 466.991 326.154C465.716 325.03 465.004 322.854 464.993 321.217C464.843 296.058 465.822 270.76 467.097 245.634C467.72 233.333 468.538 221.032 469.602 208.759C470.197 201.901 470.431 195.856 467.525 189.433C465.054 183.978 462.204 178.651 459.299 173.402C456.104 167.63 452.697 161.981 449.118 156.426C445.361 150.603 441.136 145.076 437.401 139.243C436.962 138.581 435.926 134.161 437.618 136.037Z" fill="white"/>
<path d="M227.591 218.132C229.506 230.862 238.378 241.359 245.809 251.484C247.189 253.366 248.564 255.241 249.944 257.123C251.737 259.566 253.529 262.004 255.316 264.448C260.487 271.5 265.669 278.552 270.851 285.599C275.07 291.321 279.362 297.049 284.026 302.459C285.245 303.878 286.486 305.264 287.761 306.628C289.665 308.671 291.635 310.647 293.689 312.545C298.036 316.558 302.739 320.248 307.888 323.243C310.081 324.518 312.898 326.477 315.542 326.499C317.15 326.51 318.319 325.687 319.321 324.629C319.994 323.911 320.59 323.093 321.191 322.347C321.414 322.074 321.637 321.807 321.859 321.534C327.119 315.111 332.98 309.189 339.354 303.845C341.519 302.025 343.74 300.266 346.022 298.574C346.829 297.978 347.647 297.383 348.477 296.809C348.944 296.475 349.406 296.147 349.879 295.824C351.132 294.956 350.742 293.097 349.991 291.449C349.484 290.342 348.81 289.334 348.349 288.8C334.934 273.031 321.314 257.434 307.482 242.011C306.43 240.825 305.361 239.645 304.298 238.465C302.645 236.617 300.975 234.775 299.3 232.932C297.68 231.14 296.054 229.342 294.418 227.555C291.852 224.739 289.28 221.933 286.698 219.134C285.562 217.898 284.666 218.455 284.605 219.941C284.527 221.783 285.534 223.948 286.77 225.301C288.529 227.221 290.282 229.142 292.036 231.068C293.706 232.893 295.375 234.73 297.04 236.572C299.127 238.877 301.209 241.192 303.29 243.502C304.381 244.71 305.461 245.924 306.547 247.131C319.21 261.292 331.695 275.597 343.996 290.063C341.413 291.928 338.897 293.876 336.459 295.908C334.166 297.811 331.934 299.787 329.774 301.836C325.199 306.138 320.935 310.741 317 315.64C316.555 316.191 316.109 316.853 315.586 317.421C315.08 317.972 314.501 318.434 313.788 318.623C313.688 318.651 313.588 318.668 313.493 318.684C311.885 318.929 310.17 317.794 308.851 317.087C306.129 315.629 303.513 313.975 301.014 312.178C296.895 309.205 293.121 305.81 289.603 302.186C288.785 301.357 287.989 300.511 287.204 299.659C286.753 299.169 286.308 298.68 285.868 298.184C278.51 289.963 272.148 280.935 265.635 272.085C263.292 268.895 260.943 265.711 258.6 262.522C256.78 260.051 254.965 257.579 253.145 255.108C249.165 249.703 245.191 244.298 241.222 238.894C237.827 234.268 234.237 229.426 232.461 223.948C230.58 218.132 232.072 212.56 235.823 207.818C239.664 202.958 244.545 198.762 249.043 194.492C253.768 190.006 258.566 185.592 263.431 181.25C272.927 172.784 283.046 165.031 292.603 156.648C296.561 153.186 300.079 149.123 301.092 143.885C302.049 138.948 300.246 132.981 302.828 128.444C305.645 123.496 312.319 123.463 317.367 123.379C324.331 123.273 331.283 123.179 338.24 123.079C349.885 122.906 361.535 122.839 373.157 122.149C375.072 122.038 376.992 121.904 378.907 121.754C379.396 121.715 379.419 120.858 379.174 119.861C378.868 118.587 378.122 117.084 377.387 116.817C377.32 116.794 377.259 116.783 377.192 116.778C376.463 116.739 375.734 116.705 375.01 116.678C359.03 115.937 343.011 116.338 327.019 116.455C322.761 116.488 318.503 116.505 314.239 116.555C311.289 116.588 308.244 116.627 305.406 117.518C299.494 119.372 297.797 124.498 297.585 130.053C297.468 133.176 297.78 136.382 296.856 139.421C296.066 142.026 294.379 144.347 292.564 146.362C288.284 151.104 282.763 154.839 277.831 158.897C266.944 167.864 256.362 177.176 246.109 186.828C241.345 191.314 236.146 195.734 232.083 200.86C228.097 205.892 226.645 211.864 227.591 218.132Z" fill="white"/>
<path d="M292.041 231.068C293.711 232.894 295.381 234.731 297.045 236.573C297.808 235.354 298.531 234.102 299.3 232.938C299.344 232.86 299.4 232.782 299.45 232.704C301.198 230.116 302.979 227.561 304.804 225.029C308.261 220.225 311.801 215.477 315.469 210.835C319.265 206.037 323.145 201.311 327.192 196.703C329.279 194.326 331.349 191.943 333.465 189.589C334.411 188.537 335.352 187.479 336.27 186.405C336.838 185.737 337.828 183.962 338.775 183.193H338.78C338.903 183.288 339.047 183.327 339.198 183.288C339.287 183.227 339.376 183.155 339.465 183.093C339.81 182.854 339.765 182.386 339.71 182.025C339.693 181.93 339.682 181.835 339.665 181.741C339.554 181.089 339.053 179.464 338.196 179.314C335.925 178.913 333.726 181.607 332.184 183.01C329.897 185.075 327.67 187.235 325.516 189.439C321.18 193.864 316.994 198.439 312.976 203.143C308.834 207.996 304.86 212.989 301.097 218.127C299.261 220.637 297.463 223.175 295.704 225.736C295.292 226.337 294.858 226.943 294.418 227.556C293.605 228.708 292.776 229.866 292.041 231.068Z" fill="white"/>
<path d="M307.487 242.011C308.361 236.695 308.951 231.352 309.068 225.969C309.079 225.429 307.582 222.457 307.293 223.77C306.207 228.658 305.266 233.567 304.304 238.465C303.975 240.146 303.647 241.827 303.302 243.502C304.393 244.71 305.472 245.924 306.558 247.132C306.897 245.428 307.209 243.72 307.487 242.011Z" fill="white"/>
<path d="M249.037 381.682C262.14 388.601 276.484 392.508 290.355 397.607C299.377 400.924 307.855 404.932 315.441 410.359C316.883 411.383 318.28 412.463 319.649 413.593C319.655 413.56 319.666 413.526 319.672 413.493C320.067 411.689 320.468 409.886 320.879 408.083C319.555 406.852 318.186 405.689 316.772 404.598C298.665 390.532 273.595 386.731 252.739 377.224C257.887 367.733 263.008 358.227 267.945 348.63C275.031 334.86 281.794 320.894 287.772 306.628C288.395 305.153 289.008 303.678 289.609 302.192C288.791 301.363 287.995 300.517 287.21 299.665C286.759 299.175 286.314 298.685 285.874 298.19C285.267 299.62 284.661 301.045 284.037 302.459C273.2 327.368 259.941 351.341 246.805 375.086C245.77 376.929 247.217 380.719 249.037 381.682Z" fill="white"/>
<path d="M313.488 318.685C315.158 320.844 317.133 322.848 319.327 324.629C323.546 328.075 328.55 330.702 333.676 332.016C335.051 332.366 336.442 332.639 337.845 332.823C338.914 332.973 339.983 333.067 341.057 333.118C341.14 333.123 341.218 333.129 341.302 333.129C342.454 333.179 343.612 333.179 344.769 333.129C345.783 333.084 346.79 333.001 347.786 332.923C350.898 332.678 353.942 332.477 356.982 333.641C359.759 334.704 362.102 336.496 364.223 338.556C365.743 340.031 367.151 341.651 368.531 343.231C369.299 344.105 370.056 344.968 370.819 345.803C374.426 349.716 380.298 356.106 386.299 355.605C389.688 355.327 391.937 352.115 392.56 349.076C392.588 348.964 392.611 348.853 392.633 348.742C392.816 347.645 392.855 346.532 392.778 345.424C392.683 344.05 392.416 342.686 392.059 341.333C394.976 341.834 398.06 339.869 398.973 336.875C399.279 335.867 399.407 334.826 399.39 333.769C399.373 332.811 399.24 331.843 399 330.88C398.767 329.895 398.422 328.921 398.01 327.969C399.023 327.897 400.03 327.824 401.043 327.752C401.361 327.568 401.533 327.29 401.555 326.928C403.298 320.61 400.576 313.541 396.59 308.554C392.304 303.183 386.009 300.533 379.28 299.409C371.365 298.079 363.177 297.901 355.173 297.299C354.755 297.266 354.332 297.238 353.915 297.205C352.106 297.066 350.291 296.932 348.482 296.798C347.77 296.743 347.063 296.693 346.35 296.637C343.055 296.387 339.76 296.142 336.465 295.897C334.171 297.8 331.939 299.776 329.78 301.825C330.286 302.626 330.876 303.183 331.444 303.227C334.082 303.428 336.721 303.628 339.359 303.828C350.48 304.669 361.607 305.509 372.728 306.367C378.745 306.834 385.002 307.357 390.518 309.957C394.804 311.972 398.321 315.122 397.481 319.809C395.605 319.943 393.729 320.071 391.848 320.21C389.794 320.354 392.961 326.761 393.568 327.407C395.204 329.155 395.455 330.552 393.429 332.288C391.998 333.518 389.805 334.136 388.23 332.856C385.998 331.053 387.245 336.535 387.434 337.058C388.269 339.363 388.97 341.717 388.158 343.999C388.03 344.384 387.851 344.762 387.623 345.146C387.239 345.786 386.761 346.354 386.204 346.81C385.135 347.69 383.783 348.163 382.285 347.94C378.84 347.434 375.589 344.701 373.185 342.396C373.157 342.369 373.118 342.341 373.09 342.313C372.712 341.957 372.344 341.584 371.977 341.205C367.585 336.719 363.884 331.392 358.479 328.002C355.662 326.243 352.673 325.23 349.323 325.23C344.191 325.225 339.415 326.349 334.244 325.553C329.691 324.857 325.622 323.499 321.87 321.512C319.677 320.349 317.595 318.98 315.592 317.399C315.085 317.95 314.506 318.412 313.794 318.601C313.688 318.651 313.588 318.668 313.488 318.685Z" fill="white"/>
<path d="M461.725 356.351C461.826 356.701 461.948 357.052 462.093 357.397C463.323 360.319 465.856 362.846 469.318 362.329C470.464 362.156 471.511 361.689 472.546 361.204C472.969 361.004 473.426 360.703 473.876 360.559C474.717 360.292 474.132 359.969 474.789 360.447C475.953 361.288 476.181 365.123 476.259 366.414C476.342 367.733 477.7 373.383 480.038 372.47C480.127 372.437 480.211 372.403 480.3 372.37C481.346 371.958 482.426 371.546 483.495 371.084C485.081 370.416 486.651 369.676 488.115 368.791C489.194 368.14 490.213 367.411 491.126 366.581C492.228 365.591 493.18 364.444 493.931 363.108C496.859 357.881 496.046 351.553 499.225 346.432C500.438 344.473 496.982 337.337 495.356 339.396C492.273 343.32 492.523 348.347 491.176 352.877C490.953 353.64 490.681 354.386 490.341 355.109C489.707 356.468 488.838 357.636 487.808 358.666C485.565 360.904 482.565 362.479 479.593 363.765C479.047 361.7 478.301 359.685 477.333 357.72C476.543 356.117 475.496 353.712 473.709 352.911C471.7 352.009 469.963 353.629 468.166 354.325C467.982 354.397 466.668 354.581 465.705 354.681C465.733 354.514 465.761 354.358 465.794 354.191C465.805 354.119 465.822 354.035 465.833 353.963C465.978 353.133 466.128 352.299 466.284 351.469C466.54 350.072 466.802 348.681 467.08 347.289C467.999 342.708 469.062 338.144 470.514 333.696C471.177 331.67 471.923 329.605 472.785 327.596C473.698 325.464 474.75 323.394 475.997 321.468C476.164 321.2 476.348 320.933 476.526 320.672C476.954 320.037 477.416 319.397 478.012 318.896C478.279 318.668 480.745 317.532 480.511 317.21C480.778 317.477 481.129 318.868 481.302 319.208C481.702 319.998 482.181 320.811 482.816 321.445C485.871 324.523 489.105 320.321 492.523 320.672C498.262 321.245 498.779 327.323 499.191 331.743C499.23 332.194 499.787 333.162 500.349 333.824C500.978 334.565 501.618 334.915 501.574 333.724C501.523 332.494 501.423 331.125 501.245 329.706C501.245 329.7 501.245 329.7 501.245 329.7C500.421 323.21 497.905 315.612 490.553 314.927C488.671 314.749 487.235 315.445 485.56 316.158C484.831 316.464 483.684 317.271 483.417 317.081C483.116 316.87 482.827 315.517 482.654 315.15C481.463 312.695 479.404 310.703 476.86 311.627C476.487 311.766 476.097 311.961 475.702 312.233C473.965 313.43 472.674 315.334 471.611 317.343C470.826 318.824 470.18 320.366 469.568 321.724C469.429 322.035 469.29 322.347 469.156 322.664V322.67C468.6 323.956 468.076 325.264 467.598 326.583C466.768 328.798 466.05 331.047 465.399 333.318C465.032 334.598 464.692 335.878 464.375 337.175C464.225 337.776 464.08 338.383 463.941 338.99C463.406 341.266 462.922 343.56 462.46 345.847C462.026 348.018 461.458 350.195 461.33 352.365C461.247 353.69 461.336 355.026 461.725 356.351Z" fill="white"/>
<path d="M473.832 193.602C479.443 213.735 479.053 234.83 477.433 255.464C475.819 276.115 473.503 296.704 471.617 317.332C471.45 319.169 471.283 321 471.127 322.837C470.999 324.284 471.767 326.349 472.785 327.596C473.698 325.464 474.75 323.394 475.997 321.468C476.292 318.189 476.587 314.9 476.865 311.616C477.578 303.422 478.251 295.234 478.958 287.047C480.89 264.593 483.333 241.961 481.185 219.44C480.155 208.636 477.984 197.988 474.4 187.707C472.708 182.843 470.676 178.145 468.333 173.542C466.128 169.222 463.301 165.304 460.579 161.296C460.284 160.862 460.306 161.508 460.423 161.708C466.273 171.482 470.782 182.681 473.832 193.602Z" fill="white"/>
<path d="M437.958 132.018C445.534 133.766 452.608 137.067 459.371 140.779C465.655 144.23 471.956 148.037 477.121 153.002C481.78 157.478 485.371 163.088 486.712 169.395C487.436 172.801 487.23 176.152 486.829 179.581C486.294 184.106 486.723 187.629 488.159 191.921C498.429 222.68 507.362 254.228 509.322 286.685C510.39 304.391 509.411 322.603 504.774 339.808C504.284 341.623 502.598 340.125 501.952 339.279C500.867 337.86 499.959 335.511 500.382 333.708C507.245 304.135 505.887 274.333 499.715 244.76C496.625 229.982 492.467 215.427 487.875 201.033C485.76 194.403 482.638 187.507 482.409 180.477C482.304 177.176 483.061 173.959 483.3 170.692C483.562 167.14 482.565 164.508 480.328 161.747C475.724 156.069 469.028 151.939 462.755 148.249C455.313 143.868 447.343 140.506 439.455 136.994C438.342 136.488 436.628 131.706 437.958 132.018Z" fill="white"/>
<path d="M426.225 332.155C428.568 329.511 434.902 330.669 437.991 331.158C443.251 331.993 447.587 333.942 452.152 336.457C452.23 336.502 452.296 336.541 452.374 336.585C452.463 336.63 452.558 336.869 452.614 337.053C453.198 337.064 453.771 337.075 454.356 337.086C454.924 338.022 455.285 339.179 455.464 340.137C455.497 340.348 455.541 340.56 455.569 340.771C456.165 344.595 455.937 348.53 455.48 352.388C455.386 353.161 455.285 353.93 455.185 354.698C455.102 355.299 455.04 356.006 454.963 356.752C454.623 359.98 454.039 363.993 450.415 364.227C448.484 364.355 446.53 363.631 444.699 363.142C442.077 362.429 439.444 361.744 436.822 361.01C432.893 359.897 430.472 357.904 428.674 354.297C426.881 350.701 426.225 346.677 425.707 342.747C425.317 339.792 423.942 334.726 426.225 332.155ZM427.878 341.562C428.239 344.623 428.167 349.51 430.026 352.087C431.757 354.497 436.55 354.831 439.266 355.51C441.81 356.151 446.463 358.26 449.04 356.997C450.805 356.128 450.716 353.785 450.955 352.109C451.211 350.312 451.484 348.508 451.701 346.705C451.94 344.679 451.99 342.664 452.035 340.649C452.057 339.469 452.074 338.294 452.124 337.114C452.046 337.086 451.974 337.059 451.896 337.036C445.829 334.949 438.392 334.142 432.086 334.799C427.867 335.233 427.449 337.944 427.878 341.562Z" fill="white"/>
<path d="M450.181 346.254C448.634 345.714 447.109 345.441 445.472 345.358C444.12 345.291 441.698 344.979 440.569 345.909C440.619 345.552 440.669 345.202 440.719 344.845C440.769 345.04 440.813 345.241 440.864 345.435C440.39 344.5 439.917 343.571 439.439 342.636C441.849 344.133 445.105 344.172 447.582 345.502C448.339 345.909 450.972 350.851 449.53 350.99C447.587 351.18 445.35 349.977 443.647 349.154C441.776 348.246 440.296 347.295 439.377 345.419C439.183 345.018 438.164 342.858 438.965 342.48C442.183 340.949 446.602 342.541 449.53 344.1C450.003 344.356 450.654 346.421 450.181 346.254Z" fill="white"/>
<path d="M444.07 340.348C444.253 339.713 444.649 339.251 445.255 338.956C444.326 338.433 443.318 338.255 442.244 338.422C440.741 338.456 439.194 338.689 437.719 338.962C436.7 339.151 435.119 339.302 434.307 340.042C432.893 341.328 433.572 343.877 433.861 345.435C434.385 348.263 435.13 350.451 438.392 350.64C440.602 350.768 443.513 349.66 443.741 347.2C443.869 345.814 445.077 347.033 445.461 347.517C446.38 348.681 447.036 350.412 447.131 351.875C447.465 357.336 440.808 358.149 437.118 355.427C432.871 352.293 431.574 345.697 431.067 340.86C430.817 338.467 430.522 336.023 433.06 334.821C435.442 333.691 439.361 333.123 441.999 333.457C446.619 334.042 448.734 340.921 446.096 344.294C445.433 345.129 443.58 341.283 444.07 340.348Z" fill="white"/>
<path d="M428.93 337.136C428.145 338.55 427.883 338.35 426.213 338.439C424.816 338.511 423.375 338.494 421.983 338.422C419.757 338.305 417.525 338.044 415.315 337.732C410.066 336.997 403.693 336.357 399.117 333.624C398.783 333.424 397.481 331.041 398.16 330.947C400.587 330.618 403.114 331.598 405.468 332.105C407.951 332.639 410.456 333.095 412.966 333.479C415.493 333.863 418.031 334.153 420.569 334.47C423.469 334.838 426.464 334.765 428.746 336.635C428.852 336.724 429.002 337.008 428.93 337.136Z" fill="white"/>
<path d="M386.198 346.827C388.274 347.673 390.401 348.419 392.56 349.081C397.453 350.59 402.518 351.697 407.483 352.71C411.179 353.467 414.925 354.174 418.682 354.558C422.156 354.904 425.646 354.775 429.113 355.121C429.163 355.126 429.219 355.132 429.269 355.137C429.397 355.154 429.247 354.631 429.108 354.614C429.008 354.603 428.913 354.592 428.818 354.575C424.916 354.052 421.22 352.872 417.385 352.004C413.751 351.185 410.11 350.384 406.492 349.477C401.861 348.313 397.331 346.849 392.777 345.43C391.241 344.951 389.699 344.473 388.158 344.016C388.03 344.4 387.851 344.779 387.623 345.163C387.234 345.803 386.755 346.371 386.198 346.827Z" fill="white"/>
<path d="M449.402 339.92C450.187 340.298 451.083 340.521 452.035 340.649C453.17 340.81 454.384 340.821 455.564 340.766C456.744 340.704 457.907 340.576 458.931 340.454C462.393 340.042 465.104 338.35 468.221 337.003C468.349 336.947 468.132 336.43 468.004 336.474C464.859 337.593 461.414 337.114 458.107 337.131C456.855 337.137 455.603 337.114 454.35 337.086C453.766 337.075 453.193 337.064 452.608 337.053C452.447 337.047 452.28 337.047 452.118 337.042H452.068C452.013 337.042 451.951 337.042 451.896 337.036C450.704 337.009 449.602 336.892 448.545 337.509C447.916 337.877 448.957 339.708 449.402 339.92Z" fill="white"/>
<path d="M452.413 355.922C453.209 356.323 454.072 356.595 454.957 356.751C457.089 357.158 459.399 356.952 461.469 356.428C461.558 356.406 461.636 356.384 461.72 356.356C463.368 355.894 464.648 355.031 465.828 353.968C465.972 353.139 466.123 352.304 466.279 351.475C464.731 352.07 463.017 352.237 461.325 352.36C460.835 352.393 460.345 352.426 459.861 352.46C458.514 352.56 456.978 352.393 455.475 352.387C454.022 352.371 452.608 352.499 451.445 353.178C450.704 353.606 451.901 355.66 452.413 355.922Z" fill="white"/>
<path d="M338.736 330.696C338.953 331.047 339.192 331.37 339.432 331.615C339.949 332.149 340.489 332.65 341.057 333.123C341.124 333.179 341.19 333.234 341.263 333.29C345.154 336.491 349.991 338.394 354.783 340.047C358.668 341.378 363.861 343.137 368.531 343.242C370.134 343.281 371.676 343.131 373.084 342.703C373.185 342.675 373.207 342.558 373.179 342.419C373.151 342.391 373.112 342.363 373.084 342.335C372.706 341.979 372.339 341.606 371.971 341.227C369.489 340.142 366.867 339.324 364.218 338.567C361.067 337.66 357.872 336.836 354.844 335.728C352.545 334.899 350.119 334.008 347.786 332.934C344.558 331.459 341.497 329.644 339.164 327.145C338.313 326.232 337.901 326.6 337.828 327.657C337.762 328.553 338.174 329.761 338.736 330.696Z" fill="white"/>
<path d="M278.783 715.501C280.492 715.496 282.189 715.457 283.892 715.396C284.11 712.774 284.315 710.169 284.538 707.553V707.547C285.774 692.491 287.026 677.446 288.29 662.389C292.988 606.516 297.413 550.582 305.205 495.026C309.035 467.73 313.755 440.55 319.638 413.604C319.644 413.571 319.655 413.538 319.661 413.504C320.056 411.701 320.456 409.897 320.868 408.094C323.54 396.227 326.485 384.415 329.646 372.66C333.197 359.457 337.801 346.515 341.252 333.301C341.268 333.251 341.279 333.201 341.291 333.146C341.408 332.711 341.519 332.277 341.63 331.849C341.825 331.086 340.111 327.674 339.671 328.62C339.342 329.316 339.031 330.012 338.725 330.713V330.719C338.418 331.426 338.118 332.133 337.834 332.845C335.596 338.328 333.843 344.016 332.034 349.638C329.641 357.063 327.37 364.528 325.21 372.02C322.093 382.807 319.315 393.689 316.755 404.615C316.304 406.535 315.864 408.456 315.425 410.382C314.924 412.575 314.434 414.779 313.95 416.977C301.955 471.604 295.604 527.293 290.394 582.865C286.492 624.472 283.002 666.118 279.434 707.753C279.228 710.325 279.005 712.913 278.783 715.501Z" fill="white"/>
<path d="M350.397 703.712C352.54 703.256 354.683 702.816 356.826 702.398C357.605 699.46 358.373 696.521 359.125 693.576C360.427 688.489 361.668 683.396 362.782 678.264C367.797 655.131 370.763 631.636 375.049 608.375C379.385 584.864 384.545 561.491 390.518 538.319C392.911 529.024 395.438 519.762 398.104 510.533C398.705 508.435 399.318 506.342 399.936 504.243C400.097 503.698 400.258 503.158 400.42 502.601C403.459 492.115 406.214 481.166 410.817 471.247C412.927 466.705 415.688 462.67 418.877 458.801C421.777 455.295 424.844 451.86 427.071 447.886C429.353 443.817 430.388 439.509 430.188 434.872C430.082 432.357 429.731 429.852 429.681 427.33C429.67 426.941 430.115 421.035 431.167 420.373C432.008 421.04 432.665 420.929 432.726 419.766C432.815 418.191 431.974 415.447 430.177 414.94C428.173 414.378 427.193 416.671 426.67 418.096C424.644 423.612 426.993 429.44 425.946 435.056C424.961 440.355 421.41 444.719 417.998 448.766C414.28 453.174 410.6 457.482 407.956 462.614C403.659 470.974 400.954 480.192 398.327 489.259C397.709 491.408 397.091 493.545 396.462 495.66C396.312 496.156 396.167 496.657 396.017 497.152C392.65 508.474 389.482 519.851 386.504 531.284C380.204 555.502 374.788 579.937 370.279 604.54C365.759 629.231 362.676 654.201 356.87 678.653C355.59 684.052 354.193 689.424 352.762 694.784C351.983 697.767 351.187 700.74 350.397 703.712Z" fill="white"/>
<path d="M480.483 405.684C480.662 418.842 480.968 431.995 481.396 445.148C482.988 493.056 486.1 540.913 490.647 588.638C492.896 612.227 495.924 635.733 498.167 659.317C498.891 666.931 499.403 674.529 499.62 682.11C499.709 684.854 499.748 687.593 499.748 690.337C501.29 690.314 502.843 690.292 504.385 690.27C504.307 687.526 504.19 684.782 504.039 682.032C503.561 673.455 502.748 664.916 501.869 656.5C499.397 632.883 496.481 609.321 494.243 585.676C491.961 561.547 490.052 537.379 488.543 513.194C487.202 491.825 486.133 470.435 485.359 449.038C485.265 446.484 485.181 443.918 485.098 441.363C485.048 439.765 484.992 438.173 484.947 436.576C484.619 426.072 484.346 415.569 484.129 405.06C483.89 393.744 484.018 382.384 483.489 371.079C483.456 370.172 483.406 369.275 483.356 368.374C483.3 367.316 482.877 365.646 481.975 364.956C481.207 364.372 480.684 364.411 480.617 365.479C480.472 367.767 480.372 370.066 480.294 372.365C479.949 383.458 480.328 394.629 480.483 405.684Z" fill="white"/>
<path d="M396.023 497.157C396.624 501.649 397.397 506.13 398.11 510.539C398.16 510.856 398.21 511.173 398.26 511.485C399.707 520.535 401.438 529.553 403.37 538.52C406.854 554.734 411.908 570.653 412.265 587.329C412.632 604.25 411.313 621.144 412.176 638.07C412.994 654.117 415.794 669.875 418.688 685.666C418.727 685.906 418.771 686.145 418.816 686.384C419.272 688.861 419.707 691.333 420.124 693.799C421.504 693.687 422.885 693.57 424.265 693.465C423.748 690.748 423.23 688.038 422.723 685.338C422.707 685.232 422.684 685.126 422.668 685.021C419.623 668.734 416.968 652.498 416.484 635.916C415.983 619.017 417.558 602.013 416.322 585.142C415.109 568.599 409.771 552.58 406.392 536.382C404.7 528.272 403.231 520.123 401.845 511.958C401.322 508.858 400.871 505.741 400.431 502.618C399.791 498.159 399.167 493.69 398.338 489.27C397.72 491.419 397.102 493.556 396.473 495.671C396.318 496.161 396.167 496.662 396.023 497.157Z" fill="white"/>
<path d="M-20.8266 763.704C-13.3791 762.441 -6.23774 760.704 1.02052 758.65C30.4042 750.356 59.7546 741.963 89.0993 733.524C103.761 729.311 118.433 725.086 133.094 720.872C147.065 716.859 161.07 712.779 175.447 710.391C190.164 707.948 204.825 707.948 219.642 709.506C234.181 711.037 248.603 713.625 263.175 714.872C268.402 715.323 273.601 715.529 278.794 715.496C280.503 715.49 282.2 715.451 283.904 715.39C291.273 715.128 298.632 714.382 305.984 713.174C320.39 710.809 334.528 707.135 348.783 704.063C349.323 703.946 349.868 703.829 350.408 703.718C352.551 703.261 354.694 702.821 356.837 702.404C377.754 698.274 398.895 695.58 420.135 693.799C421.516 693.687 422.896 693.57 424.276 693.465C449.363 691.494 474.578 690.748 499.753 690.348C501.295 690.325 502.848 690.303 504.39 690.281C511.949 690.175 519.508 690.092 527.05 690.019C540.431 689.88 554.391 690.292 566.096 697.406C575.898 703.361 582.923 712.612 587.999 722.592C593.732 733.842 598.013 746.816 598.241 759.451C598.469 772.398 593.17 783.904 586.83 794.975C580.83 805.445 574.212 815.681 570.649 827.258C567.004 839.081 566.313 851.599 566.425 863.878C566.653 888.442 570.727 914.797 559.506 937.785C558.654 939.528 559.417 941.821 560.324 943.407C560.647 943.964 562.901 947.148 563.72 945.456C566.442 939.895 568.468 934.084 569.759 928.05C575.147 902.847 569.542 877.031 571.891 851.61C573.088 838.641 577.173 826.863 583.552 815.48C589.552 804.771 596.565 794.44 600.356 782.707C604.62 769.521 603.267 755.594 599.527 742.452C596.142 730.558 591.194 718.874 584.181 708.571C577.785 699.187 569.319 690.949 558.66 686.357C545.446 680.668 530.512 681.631 516.424 681.848C512.294 681.909 508.169 681.976 504.039 682.043C502.564 682.071 501.089 682.093 499.62 682.121C474.862 682.572 450.103 683.295 425.406 685.127C424.516 685.193 423.625 685.266 422.729 685.333C421.382 685.433 420.035 685.55 418.694 685.661C398.683 687.347 378.829 689.93 359.136 693.576C357.015 693.966 354.889 694.366 352.774 694.789C346.901 695.942 341.046 697.194 335.207 698.541C320.457 701.948 305.678 705.521 290.572 707.068C288.562 707.274 286.553 707.43 284.544 707.542V707.547C282.84 707.636 281.148 707.703 279.451 707.736C267.968 707.97 256.524 706.885 245.091 705.393C230.235 703.462 215.384 701.029 200.372 700.717C185.633 700.411 171.111 702.621 156.834 706.061C142.028 709.629 127.45 714.137 112.828 718.362C97.5766 722.776 82.3253 727.184 67.0685 731.598C52.0232 735.951 36.9667 740.298 21.9381 744.723C6.94846 749.137 -8.33062 752.984 -22.7303 759.001C-24.0606 759.557 -22.246 763.943 -20.8266 763.704Z" fill="white"/>
<path d="M433.6 367.5C435.581 370.845 437.485 374.229 439.394 377.613C440.83 380.152 443.107 383.13 442.968 386.191C442.851 388.707 440.574 388.996 438.793 390.171C436.171 391.902 436.244 395.18 436.288 397.952C436.305 399.021 435.898 399.115 435.091 398.659C434.162 398.13 433.583 396.21 433.433 395.286C434.707 398.047 435.019 398.854 434.351 397.702C434.151 397.384 433.984 397.05 433.845 396.694C433.605 396.11 433.477 395.509 433.366 394.891C433.11 393.516 433.01 392.108 433.088 390.711C433.216 388.484 433.806 386.163 435.642 384.694C436.516 383.992 437.574 383.697 438.526 383.141C438.904 382.968 439.244 382.729 439.539 382.434C439.728 382.89 439.923 383.341 440.112 383.797C440.201 383.658 438.604 381.103 438.503 380.92C436.527 377.391 434.529 373.873 432.626 370.305C432.269 369.632 431.312 367.617 431.896 366.86C432.492 366.119 433.165 366.771 433.6 367.5Z" fill="white"/>
<path d="M485.159 449.172C485.231 449.133 485.293 449.094 485.359 449.044C486.851 448.059 487.469 445.982 488.404 444.496C489.573 442.626 490.92 440.856 492.417 439.214C495.072 436.297 498.507 434.316 501.256 431.538C507.246 425.493 502.698 414.049 500.299 407.331C497.054 398.208 493.915 389.325 492.412 379.729C491.727 375.365 491.287 370.979 491.12 366.576C491.104 366.236 491.093 365.891 491.081 365.552C490.948 361.332 491.254 357.085 491.176 352.872C490.953 353.634 490.681 354.38 490.341 355.104C489.707 356.462 488.838 357.631 487.808 358.661C487.808 359.056 487.808 359.445 487.803 359.83C487.786 362.819 487.892 365.808 488.109 368.791C488.209 370.222 488.343 371.646 488.499 373.071C489.478 382.089 491.532 390.972 494.516 399.555C495.991 403.802 497.722 407.993 498.874 412.341C499.982 416.515 501.028 421.213 497.572 424.569C494.649 427.408 491.104 429.418 488.332 432.462C487.23 433.676 486.011 435.073 484.947 436.581C483.461 438.685 482.265 440.99 482.064 443.311C481.986 444.207 483.333 450.224 485.159 449.172Z" fill="white"/>
</g>
<defs>
<clipPath id="clip0_74_95">
<rect width="694.138" height="945.94" fill="white" transform="translate(-91.1383)"/>
</clipPath>
</defs>
</svg>
