<svg width="11" height="11" viewBox="0 0 11 11" fill="none" xmlns="http://www.w3.org/2000/svg">
<path d="M3.36034 9.29183H2.2093C2.01069 9.29183 1.82788 9.24218 1.66086 9.14287C1.49385 9.04356 1.36069 8.90815 1.26139 8.73662L0.65201 7.65329C0.552705 7.49079 0.503052 7.31475 0.503052 7.12516C0.503052 6.93558 0.552705 6.75954 0.65201 6.59704L1.27493 5.50016L0.65201 4.40329C0.552705 4.24079 0.503052 4.06475 0.503052 3.87516C0.503052 3.68558 0.552705 3.50954 0.65201 3.34704L1.26139 2.2637C1.36069 2.09218 1.49385 1.95676 1.66086 1.85745C1.82788 1.75815 2.01069 1.7085 2.2093 1.7085H3.36034L3.96972 0.638704C4.06902 0.467177 4.20218 0.33176 4.3692 0.232454C4.53621 0.133149 4.71902 0.0834961 4.91764 0.0834961H6.08222C6.28083 0.0834961 6.46364 0.133149 6.63066 0.232454C6.79767 0.33176 6.93083 0.467177 7.03014 0.638704L7.63951 1.7085H8.79055C8.98916 1.7085 9.17198 1.75815 9.33899 1.85745C9.506 1.95676 9.63916 2.09218 9.73847 2.2637L10.3478 3.34704C10.4472 3.50954 10.4968 3.68558 10.4968 3.87516C10.4968 4.06475 10.4472 4.24079 10.3478 4.40329L9.72493 5.50016L10.3478 6.59704C10.4472 6.75954 10.4968 6.93558 10.4968 7.12516C10.4968 7.31475 10.4472 7.49079 10.3478 7.65329L9.73847 8.73662C9.63916 8.90815 9.506 9.04356 9.33899 9.14287C9.17198 9.24218 8.98916 9.29183 8.79055 9.29183H7.63951L7.03014 10.3616C6.93083 10.5331 6.79767 10.6686 6.63066 10.7679C6.46364 10.8672 6.28083 10.9168 6.08222 10.9168H4.91764C4.71902 10.9168 4.53621 10.8672 4.3692 10.7679C4.20218 10.6686 4.06902 10.5331 3.96972 10.3616L3.36034 9.29183ZM7.63951 4.9585H8.80409L9.39993 3.87516L8.80409 2.79183H7.63951L7.03014 3.87516L7.63951 4.9585ZM4.93118 6.5835H6.06868L6.67805 5.50016L6.06868 4.41683H4.93118L4.3218 5.50016L4.93118 6.5835ZM4.93118 3.3335H6.06868L6.69159 2.23662L6.08222 1.16683H4.91764L4.30826 2.23662L4.93118 3.3335ZM3.96972 3.87516L3.36034 2.79183H2.2093L1.59993 3.87516L2.2093 4.9585H3.36034L3.96972 3.87516ZM3.96972 7.12516L3.36034 6.04183H2.19576L1.59993 7.12516L2.2093 8.2085H3.36034L3.96972 7.12516ZM4.93118 7.66683L4.30826 8.7637L4.91764 9.8335H6.08222L6.69159 8.7637L6.06868 7.66683H4.93118ZM7.63951 8.2085H8.79055L9.39993 7.12516L8.79055 6.04183H7.63951L7.03014 7.12516L7.63951 8.2085Z" fill="#FFF3C1"/>
</svg>
