<svg width="13" height="13" viewBox="0 0 13 13" fill="none" xmlns="http://www.w3.org/2000/svg">
<path d="M4.36034 10.2918H3.2093C3.01069 10.2918 2.82788 10.2422 2.66086 10.1429C2.49385 10.0436 2.36069 9.90815 2.26139 9.73662L1.65201 8.65329C1.5527 8.49079 1.50305 8.31475 1.50305 8.12516C1.50305 7.93558 1.5527 7.75954 1.65201 7.59704L2.27493 6.50016L1.65201 5.40329C1.5527 5.24079 1.50305 5.06475 1.50305 4.87516C1.50305 4.68558 1.5527 4.50954 1.65201 4.34704L2.26139 3.2637C2.36069 3.09218 2.49385 2.95676 2.66086 2.85745C2.82788 2.75815 3.01069 2.7085 3.2093 2.7085H4.36034L4.96972 1.6387C5.06902 1.46718 5.20218 1.33176 5.3692 1.23245C5.53621 1.13315 5.71902 1.0835 5.91764 1.0835H7.08222C7.28083 1.0835 7.46364 1.13315 7.63066 1.23245C7.79767 1.33176 7.93083 1.46718 8.03014 1.6387L8.63951 2.7085H9.79055C9.98916 2.7085 10.172 2.75815 10.339 2.85745C10.506 2.95676 10.6392 3.09218 10.7385 3.2637L11.3478 4.34704C11.4472 4.50954 11.4968 4.68558 11.4968 4.87516C11.4968 5.06475 11.4472 5.24079 11.3478 5.40329L10.7249 6.50016L11.3478 7.59704C11.4472 7.75954 11.4968 7.93558 11.4968 8.12516C11.4968 8.31475 11.4472 8.49079 11.3478 8.65329L10.7385 9.73662C10.6392 9.90815 10.506 10.0436 10.339 10.1429C10.172 10.2422 9.98916 10.2918 9.79055 10.2918H8.63951L8.03014 11.3616C7.93083 11.5331 7.79767 11.6686 7.63066 11.7679C7.46364 11.8672 7.28083 11.9168 7.08222 11.9168H5.91764C5.71902 11.9168 5.53621 11.8672 5.3692 11.7679C5.20218 11.6686 5.06902 11.5331 4.96972 11.3616L4.36034 10.2918ZM8.63951 5.9585H9.80409L10.3999 4.87516L9.80409 3.79183H8.63951L8.03014 4.87516L8.63951 5.9585ZM5.93118 7.5835H7.06868L7.67805 6.50016L7.06868 5.41683H5.93118L5.3218 6.50016L5.93118 7.5835ZM5.93118 4.3335H7.06868L7.69159 3.23662L7.08222 2.16683H5.91764L5.30826 3.23662L5.93118 4.3335ZM4.96972 4.87516L4.36034 3.79183H3.2093L2.59993 4.87516L3.2093 5.9585H4.36034L4.96972 4.87516ZM4.96972 8.12516L4.36034 7.04183H3.19576L2.59993 8.12516L3.2093 9.2085H4.36034L4.96972 8.12516ZM5.93118 8.66683L5.30826 9.7637L5.91764 10.8335H7.08222L7.69159 9.7637L7.06868 8.66683H5.93118ZM8.63951 9.2085H9.79055L10.3999 8.12516L9.79055 7.04183H8.63951L8.03014 8.12516L8.63951 9.2085Z" fill="#937B3E"/>
</svg>
