<svg width="20" height="15" viewBox="0 0 20 15" fill="none" xmlns="http://www.w3.org/2000/svg">
<path d="M2.69618 14.8031C2.18797 14.8031 1.75291 14.6222 1.39101 14.2603C1.0291 13.8983 0.848145 13.4633 0.848145 12.9551V1.86684C0.848145 1.35863 1.0291 0.923568 1.39101 0.56166C1.75291 0.199753 2.18797 0.0187988 2.69618 0.0187988H17.4805C17.9887 0.0187988 18.4238 0.199753 18.7857 0.56166C19.1476 0.923568 19.3285 1.35863 19.3285 1.86684V12.9551C19.3285 13.4633 19.1476 13.8983 18.7857 14.2603C18.4238 14.6222 17.9887 14.8031 17.4805 14.8031H2.69618ZM6.48466 12.9551L5.88405 12.1004C5.76085 11.931 5.69925 11.75 5.69925 11.5575C5.69925 11.365 5.76085 11.184 5.88405 11.0146L7.24698 9.14349V6.81034C7.24698 6.61014 7.30088 6.42919 7.40868 6.26748C7.51649 6.10578 7.67049 5.99413 7.87069 5.93252L10.0883 5.21641L11.4744 3.32217C11.5976 3.15277 11.7516 3.04111 11.9364 2.98721C12.1212 2.93331 12.306 2.93716 12.4908 2.99876L14.7084 3.71488L17.4805 2.81396V1.86684H2.69618V12.9551H6.48466ZM8.77161 12.9551H17.4805V5.81702L16.8568 4.9623L14.7084 5.65532L12.5832 4.9623L11.2434 6.78724L9.09502 7.48026V9.74411L7.77829 11.569L8.77161 12.9551Z" fill="#FFF3C1"/>
</svg>
