<svg width="33" height="22" viewBox="0 0 33 22" fill="none" xmlns="http://www.w3.org/2000/svg">
<path d="M2.99109 21.5065C2.1676 21.5065 1.46264 21.2132 0.876217 20.6268C0.289794 20.0404 -0.00341797 19.3354 -0.00341797 18.5119V3.53943C-0.00341797 2.71594 0.289794 2.01098 0.876217 1.42456C1.46264 0.838134 2.1676 0.544922 2.99109 0.544922H17.9636C18.7871 0.544922 19.492 0.838134 20.0785 1.42456C20.6649 2.01098 20.9581 2.71594 20.9581 3.53943V18.5119C20.9581 19.3354 20.6649 20.0404 20.0785 20.6268C19.492 21.2132 18.7871 21.5065 17.9636 21.5065H2.99109ZM25.4499 9.52843C25.0256 9.52843 24.67 9.38495 24.3831 9.09797C24.0961 8.811 23.9526 8.4554 23.9526 8.03118V2.04217C23.9526 1.61795 24.0961 1.26236 24.3831 0.975382C24.67 0.688409 25.0256 0.544922 25.4499 0.544922H31.4389C31.8631 0.544922 32.2187 0.688409 32.5057 0.975382C32.7926 1.26236 32.9361 1.61795 32.9361 2.04217V8.03118C32.9361 8.4554 32.7926 8.811 32.5057 9.09797C32.2187 9.38495 31.8631 9.52843 31.4389 9.52843H25.4499ZM26.9471 6.53393H29.9416V3.53943H26.9471V6.53393ZM2.99109 18.5119H17.9636V3.53943H2.99109V18.5119ZM4.48834 15.5174H16.4664L12.5361 10.2771L9.72872 14.0202L7.67 11.2877L4.48834 15.5174ZM25.4499 21.5065C25.0256 21.5065 24.67 21.363 24.3831 21.076C24.0961 20.789 23.9526 20.4334 23.9526 20.0092V14.0202C23.9526 13.596 24.0961 13.2404 24.3831 12.9534C24.67 12.6664 25.0256 12.5229 25.4499 12.5229H31.4389C31.8631 12.5229 32.2187 12.6664 32.5057 12.9534C32.7926 13.2404 32.9361 13.596 32.9361 14.0202V20.0092C32.9361 20.4334 32.7926 20.789 32.5057 21.076C32.2187 21.363 31.8631 21.5065 31.4389 21.5065H25.4499ZM26.9471 18.5119H29.9416V15.5174H26.9471V18.5119Z" fill="#FFF3C1"/>
</svg>
