<svg width="32" height="33" viewBox="0 0 32 33" fill="none" xmlns="http://www.w3.org/2000/svg">
<path d="M6.50256 26.9192V15.0193L2.86106 17.8154L1.30042 15.7346L15.6063 4.81006L20.8085 8.77669V6.11059H24.7101V11.7679L29.9122 15.7346L28.3516 17.8154L24.7101 15.0193V26.9192H16.9068V19.116H14.3058V26.9192H6.50256ZM9.10363 24.3181H11.7047V16.5149H19.5079V24.3181H22.109V13.0359L15.6063 8.09391L9.10363 13.0359V24.3181ZM13.0052 13.9463H18.2074C18.2074 13.2527 17.9473 12.6837 17.4271 12.2394C16.9068 11.795 16.2999 11.5728 15.6063 11.5728C14.9127 11.5728 14.3058 11.795 13.7856 12.2394C13.2653 12.6837 13.0052 13.2527 13.0052 13.9463Z" fill="#FFF3C1"/>
</svg>
