<svg width="34" height="34" viewBox="0 0 34 34" fill="none" xmlns="http://www.w3.org/2000/svg">
<path d="M7.61801 29.0329C6.86665 29.0329 6.22344 28.7653 5.68839 28.2303C5.15333 27.6952 4.8858 27.052 4.8858 26.3007V15.4401C4.36212 14.962 3.95798 14.3472 3.67338 13.5959C3.38877 12.8445 3.38308 12.0248 3.6563 11.1369L5.09071 6.49209C5.27286 5.90011 5.59731 5.41059 6.06406 5.02353C6.53082 4.63646 7.07157 4.44293 7.68632 4.44293H26.6752C27.29 4.44293 27.825 4.63077 28.2804 5.00645C28.7358 5.38213 29.0659 5.87734 29.2708 6.49209L30.7052 11.1369C30.9785 12.0248 30.9728 12.8331 30.6882 13.5617C30.4035 14.2903 29.9994 14.9164 29.4757 15.4401V26.3007C29.4757 27.052 29.2082 27.6952 28.6731 28.2303C28.1381 28.7653 27.4949 29.0329 26.7435 29.0329H7.61801ZM20.1862 14.0057C20.8009 14.0057 21.2677 13.7951 21.5865 13.3739C21.9052 12.9526 22.0304 12.4802 21.9621 11.9565L21.2108 7.17515H18.5469V12.2297C18.5469 12.7079 18.7063 13.1234 19.025 13.4763C19.3438 13.8292 19.7308 14.0057 20.1862 14.0057ZM14.0387 14.0057C14.5624 14.0057 14.9893 13.8292 15.3194 13.4763C15.6496 13.1234 15.8147 12.7079 15.8147 12.2297V7.17515H13.1507L12.3994 11.9565C12.3083 12.503 12.4278 12.9811 12.758 13.3909C13.0881 13.8008 13.515 14.0057 14.0387 14.0057ZM7.95954 14.0057C8.36937 14.0057 8.72797 13.8577 9.03535 13.5617C9.34272 13.2657 9.53056 12.89 9.59887 12.4347L10.3502 7.17515H7.68632L6.32021 11.7516C6.1836 12.207 6.2576 12.6965 6.5422 13.2202C6.82681 13.7438 7.29925 14.0057 7.95954 14.0057ZM26.402 14.0057C27.0623 14.0057 27.5404 13.7438 27.8364 13.2202C28.1324 12.6965 28.2007 12.207 28.0413 11.7516L26.6069 7.17515H24.0113L24.7627 12.4347C24.831 12.89 25.0188 13.2657 25.3262 13.5617C25.6336 13.8577 25.9922 14.0057 26.402 14.0057ZM7.61801 26.3007H26.7435V16.6696C26.6297 16.7151 26.5557 16.7379 26.5215 16.7379H26.402C25.7872 16.7379 25.2465 16.6354 24.7797 16.4305C24.313 16.2256 23.8519 15.8955 23.3966 15.4401C22.9867 15.8499 22.52 16.1687 21.9963 16.3964C21.4726 16.6241 20.9148 16.7379 20.3228 16.7379C19.7081 16.7379 19.1332 16.6241 18.5981 16.3964C18.063 16.1687 17.5906 15.8499 17.1808 15.4401C16.7937 15.8499 16.344 16.1687 15.8317 16.3964C15.3194 16.6241 14.7673 16.7379 14.1753 16.7379C13.515 16.7379 12.9174 16.6241 12.3823 16.3964C11.8473 16.1687 11.3748 15.8499 10.965 15.4401C10.4868 15.9182 10.0144 16.2541 9.54764 16.4476C9.08089 16.6411 8.55152 16.7379 7.95954 16.7379H7.80585C7.74893 16.7379 7.68632 16.7151 7.61801 16.6696V26.3007Z" fill="#FFF3C1"/>
</svg>
