<svg width="26" height="25" viewBox="0 0 26 25" fill="none" xmlns="http://www.w3.org/2000/svg">
<path d="M12.9099 15.707C13.8341 15.707 14.6196 15.3836 15.2665 14.7367C15.9134 14.0898 16.2368 13.3043 16.2368 12.3802C16.2368 11.456 15.9134 10.6705 15.2665 10.0236C14.6196 9.37673 13.8341 9.05329 12.9099 9.05329C11.9858 9.05329 11.2003 9.37673 10.5534 10.0236C9.90652 10.6705 9.58307 11.456 9.58307 12.3802C9.58307 13.3043 9.90652 14.0898 10.5534 14.7367C11.2003 15.3836 11.9858 15.707 12.9099 15.707ZM12.9099 17.9249C11.3759 17.9249 10.0682 17.3843 8.98701 16.3031C7.90578 15.2219 7.36516 13.9142 7.36516 12.3802C7.36516 10.8461 7.90578 9.53845 8.98701 8.45722C10.0682 7.37599 11.3759 6.83537 12.9099 6.83537C14.444 6.83537 15.7516 7.37599 16.8329 8.45722C17.9141 9.53845 18.4547 10.8461 18.4547 12.3802C18.4547 13.9142 17.9141 15.2219 16.8329 16.3031C15.7516 17.3843 14.444 17.9249 12.9099 17.9249ZM1.82038 13.4891C1.50618 13.4891 1.2428 13.3828 1.03025 13.1703C0.817701 12.9577 0.711426 12.6944 0.711426 12.3802C0.711426 12.0659 0.817701 11.8026 1.03025 11.59C1.2428 11.3775 1.50618 11.2712 1.82038 11.2712H4.03829C4.3525 11.2712 4.61587 11.3775 4.82842 11.59C5.04097 11.8026 5.14725 12.0659 5.14725 12.3802C5.14725 12.6944 5.04097 12.9577 4.82842 13.1703C4.61587 13.3828 4.3525 13.4891 4.03829 13.4891H1.82038ZM21.7816 13.4891C21.4674 13.4891 21.204 13.3828 20.9915 13.1703C20.7789 12.9577 20.6726 12.6944 20.6726 12.3802C20.6726 12.0659 20.7789 11.8026 20.9915 11.59C21.204 11.3775 21.4674 11.2712 21.7816 11.2712H23.9995C24.3137 11.2712 24.5771 11.3775 24.7896 11.59C25.0022 11.8026 25.1084 12.0659 25.1084 12.3802C25.1084 12.6944 25.0022 12.9577 24.7896 13.1703C24.5771 13.3828 24.3137 13.4891 23.9995 13.4891H21.7816ZM12.9099 4.61746C12.5957 4.61746 12.3324 4.51119 12.1198 4.29864C11.9073 4.08609 11.801 3.82271 11.801 3.50851V1.2906C11.801 0.976392 11.9073 0.713015 12.1198 0.500465C12.3324 0.287916 12.5957 0.181641 12.9099 0.181641C13.2241 0.181641 13.4875 0.287916 13.7001 0.500465C13.9126 0.713015 14.0189 0.976392 14.0189 1.2906V3.50851C14.0189 3.82271 13.9126 4.08609 13.7001 4.29864C13.4875 4.51119 13.2241 4.61746 12.9099 4.61746ZM12.9099 24.5787C12.5957 24.5787 12.3324 24.4724 12.1198 24.2598C11.9073 24.0473 11.801 23.7839 11.801 23.4697V21.2518C11.801 20.9376 11.9073 20.6742 12.1198 20.4617C12.3324 20.2491 12.5957 20.1428 12.9099 20.1428C13.2241 20.1428 13.4875 20.2491 13.7001 20.4617C13.9126 20.6742 14.0189 20.9376 14.0189 21.2518V23.4697C14.0189 23.7839 13.9126 24.0473 13.7001 24.2598C13.4875 24.4724 13.2241 24.5787 12.9099 24.5787ZM5.86807 6.89082L4.67594 5.72642C4.45415 5.52311 4.34788 5.26435 4.35712 4.95015C4.36636 4.63595 4.47263 4.36795 4.67594 4.14616C4.89773 3.92437 5.16573 3.81347 5.47993 3.81347C5.79414 3.81347 6.0529 3.92437 6.2562 4.14616L7.42061 5.33828C7.62392 5.56008 7.72557 5.81883 7.72557 6.11455C7.72557 6.41027 7.62392 6.66903 7.42061 6.89082C7.2173 7.11261 6.96316 7.21889 6.6582 7.20965C6.35324 7.20041 6.08986 7.09413 5.86807 6.89082ZM19.5637 20.6141L18.3993 19.422C18.196 19.2002 18.0943 18.9369 18.0943 18.6319C18.0943 18.3269 18.196 18.0728 18.3993 17.8695C18.6026 17.6477 18.8567 17.5414 19.1617 17.5507C19.4666 17.5599 19.73 17.6662 19.9518 17.8695L21.1439 19.0339C21.3657 19.2372 21.472 19.496 21.4628 19.8102C21.4535 20.1244 21.3472 20.3924 21.1439 20.6141C20.9221 20.8359 20.6541 20.9468 20.3399 20.9468C20.0257 20.9468 19.767 20.8359 19.5637 20.6141ZM18.3993 6.89082C18.1775 6.68751 18.0712 6.43338 18.0804 6.12842C18.0897 5.82345 18.196 5.56008 18.3993 5.33828L19.5637 4.14616C19.767 3.92437 20.0257 3.81809 20.3399 3.82733C20.6541 3.83657 20.9221 3.94285 21.1439 4.14616C21.3657 4.36795 21.4766 4.63595 21.4766 4.95015C21.4766 5.26435 21.3657 5.52311 21.1439 5.72642L19.9518 6.89082C19.73 7.09413 19.4713 7.19578 19.1755 7.19578C18.8798 7.19578 18.6211 7.09413 18.3993 6.89082ZM4.67594 20.6141C4.45415 20.3924 4.34326 20.1244 4.34326 19.8102C4.34326 19.496 4.45415 19.2372 4.67594 19.0339L5.86807 17.8695C6.08986 17.6662 6.35324 17.5645 6.6582 17.5645C6.96316 17.5645 7.2173 17.6662 7.42061 17.8695C7.6424 18.0728 7.74867 18.3269 7.73943 18.6319C7.73019 18.9369 7.62392 19.2002 7.42061 19.422L6.2562 20.6141C6.0529 20.8359 5.79414 20.9422 5.47993 20.933C5.16573 20.9237 4.89773 20.8175 4.67594 20.6141Z" fill="#FFF3C1"/>
</svg>
