<svg width="30" height="29" viewBox="0 0 30 29" fill="none" xmlns="http://www.w3.org/2000/svg">
<path d="M8.22162 13.0643C8.55755 12.3925 8.90548 11.7446 9.2654 11.1207C9.62532 10.4969 10.0212 9.873 10.4531 9.24914L8.43758 8.85322L5.41422 11.8766L8.22162 13.0643ZM25.5699 3.16643C23.8903 3.21442 22.0967 3.70632 20.1891 4.64212C18.2815 5.57792 16.5478 6.82565 14.9882 8.38532C13.9804 9.39311 13.0806 10.4729 12.2888 11.6246C11.4969 12.7764 10.909 13.8562 10.5251 14.8639L14.6283 18.9311C15.636 18.5472 16.7158 17.9593 17.8676 17.1674C19.0193 16.3756 20.0991 15.4758 21.1069 14.468C22.6665 12.9084 23.9143 11.1807 24.8501 9.28513C25.7859 7.38953 26.2778 5.60191 26.3258 3.92227C26.3258 3.82629 26.3078 3.73031 26.2718 3.63433C26.2358 3.53835 26.1818 3.45437 26.1098 3.38239C26.0378 3.3104 25.9538 3.25641 25.8579 3.22042C25.7619 3.18443 25.6659 3.16643 25.5699 3.16643ZM17.6516 11.8046C17.0997 11.2527 16.8238 10.5749 16.8238 9.77103C16.8238 8.9672 17.0997 8.28934 17.6516 7.73746C18.2035 7.18558 18.8873 6.90964 19.7032 6.90964C20.519 6.90964 21.2029 7.18558 21.7547 7.73746C22.3066 8.28934 22.5826 8.9672 22.5826 9.77103C22.5826 10.5749 22.3066 11.2527 21.7547 11.8046C21.2029 12.3565 20.519 12.6324 19.7032 12.6324C18.8873 12.6324 18.2035 12.3565 17.6516 11.8046ZM16.4279 21.2346L17.6156 24.078L20.639 21.0546L20.2431 19.039C19.6192 19.471 18.9953 19.8609 18.3715 20.2088C17.7476 20.5567 17.0997 20.8987 16.4279 21.2346ZM29.0612 2.01468C29.2531 4.65412 28.8212 7.22757 27.7655 9.73503C26.7097 12.2425 25.042 14.636 22.7625 16.9155L23.4824 20.4787C23.5783 20.9586 23.5544 21.4265 23.4104 21.8824C23.2664 22.3383 23.0265 22.7343 22.6905 23.0702L18.1555 27.6052C17.7956 27.9651 17.3637 28.1031 16.8598 28.0191C16.3559 27.9352 16.008 27.6532 15.816 27.1733L13.6205 22.0264L7.46578 15.8717L2.31888 13.6762C1.83898 13.4842 1.55104 13.1363 1.45506 12.6324C1.35908 12.1285 1.49106 11.6966 1.85098 11.3367L6.38601 6.80166C6.72194 6.46573 7.12386 6.22578 7.59176 6.08181C8.05966 5.93784 8.53356 5.91385 9.01345 6.00983L12.5767 6.72967C14.8562 4.45016 17.2497 2.78252 19.7572 1.72674C22.2646 0.670966 24.8381 0.239058 27.4775 0.431017C27.6695 0.455012 27.8614 0.509 28.0534 0.592982C28.2454 0.676965 28.4133 0.79094 28.5573 0.93491C28.7013 1.07888 28.8152 1.24684 28.8992 1.4388C28.9832 1.63076 29.0372 1.82272 29.0612 2.01468ZM3.6506 19.7229C4.49042 18.8831 5.5162 18.4572 6.72794 18.4452C7.93968 18.4332 8.96546 18.8471 9.80528 19.6869C10.6451 20.5267 11.059 21.5525 11.047 22.7643C11.035 23.976 10.6091 25.0018 9.76929 25.8416C8.61754 26.9934 7.25583 27.6772 5.68416 27.8932C4.1125 28.1091 2.53483 28.3251 0.951172 28.541C1.16713 26.9574 1.38308 25.3797 1.59903 23.808C1.81499 22.2364 2.49884 20.8747 3.6506 19.7229ZM5.70216 21.7385C5.29425 22.1464 5.01231 22.6383 4.85634 23.2142C4.70037 23.79 4.5744 24.3779 4.47842 24.9778C5.07829 24.8818 5.66617 24.7618 6.24204 24.6179C6.81792 24.4739 7.30982 24.1979 7.71773 23.79C8.00567 23.5021 8.16163 23.1542 8.18563 22.7463C8.20962 22.3383 8.07765 21.9904 7.78971 21.7025C7.50177 21.4145 7.15385 21.2766 6.74594 21.2886C6.33802 21.3006 5.9901 21.4505 5.70216 21.7385Z" fill="#FFF3C1"/>
</svg>
