<svg width="50" height="51" viewBox="0 0 50 51" fill="none" xmlns="http://www.w3.org/2000/svg">
<path d="M12.5 42.1667H37.5V21.3334H12.5V42.1667ZM25 35.9167C26.1459 35.9167 27.1268 35.5087 27.9427 34.6927C28.7587 33.8768 29.1667 32.8959 29.1667 31.75C29.1667 30.6042 28.7587 29.6233 27.9427 28.8073C27.1268 27.9914 26.1459 27.5834 25 27.5834C23.8542 27.5834 22.8733 27.9914 22.0573 28.8073C21.2414 29.6233 20.8334 30.6042 20.8334 31.75C20.8334 32.8959 21.2414 33.8768 22.0573 34.6927C22.8733 35.5087 23.8542 35.9167 25 35.9167ZM12.5 46.3334C11.3542 46.3334 10.3733 45.9254 9.55733 45.1094C8.74136 44.2934 8.33337 43.3125 8.33337 42.1667V21.3334C8.33337 20.1875 8.74136 19.2066 9.55733 18.3907C10.3733 17.5747 11.3542 17.1667 12.5 17.1667H27.0834V13C27.0834 10.1181 28.099 7.6615 30.1303 5.63025C32.1615 3.599 34.6181 2.58337 37.5 2.58337C40.382 2.58337 42.8386 3.599 44.8698 5.63025C46.9011 7.6615 47.9167 10.1181 47.9167 13H43.75C43.75 11.2639 43.1424 9.78824 41.9271 8.57296C40.7118 7.35768 39.2362 6.75004 37.5 6.75004C35.7639 6.75004 34.2882 7.35768 33.073 8.57296C31.8577 9.78824 31.25 11.2639 31.25 13V17.1667H37.5C38.6459 17.1667 39.6268 17.5747 40.4427 18.3907C41.2587 19.2066 41.6667 20.1875 41.6667 21.3334V42.1667C41.6667 43.3125 41.2587 44.2934 40.4427 45.1094C39.6268 45.9254 38.6459 46.3334 37.5 46.3334H12.5Z" fill="#FFF3C1"/>
</svg>
