<svg width="44" height="44" viewBox="0 0 44 44" fill="none" xmlns="http://www.w3.org/2000/svg">
<path d="M23.3963 5.81723L23.3962 5.81723C22.9196 5.34054 22.3192 5.10373 21.6405 5.10373C20.9619 5.10373 20.3615 5.34054 19.8848 5.81723C19.4081 6.29391 19.1713 6.89432 19.1713 7.57297V12.9831C19.1713 13.6617 19.4081 14.2621 19.8848 14.7388C20.3615 15.2155 20.9619 15.4523 21.6405 15.4523C22.3192 15.4523 22.9196 15.2155 23.3963 14.7388C23.8729 14.2621 24.1097 13.6617 24.1097 12.9831V7.57297C24.1097 6.89432 23.8729 6.29391 23.3963 5.81723ZM5.45779 23.7557L5.45779 23.7557C5.93447 24.2324 6.53489 24.4692 7.21353 24.4692H12.6236C13.3023 24.4692 13.9027 24.2324 14.3794 23.7557C14.8561 23.279 15.0929 22.6786 15.0929 21.9999C15.0929 21.3213 14.8561 20.7209 14.3794 20.2442C13.9027 19.7675 13.3023 19.5307 12.6236 19.5307H7.21353C6.53489 19.5307 5.93447 19.7675 5.45779 20.2442C4.98111 20.7209 4.7443 21.3213 4.7443 21.9999C4.7443 22.6786 4.98111 23.279 5.45779 23.7557ZM18.6224 25.018C19.4526 25.8482 20.4707 26.2726 21.6405 26.2726C22.8104 26.2726 23.8284 25.8482 24.6586 25.018C25.4888 24.1879 25.9131 23.1698 25.9131 21.9999C25.9131 20.8301 25.4888 19.812 24.6586 18.9818C23.8284 18.1517 22.8104 17.7273 21.6405 17.7273C20.4707 17.7273 19.4526 18.1517 18.6224 18.9818C17.7922 19.812 17.3679 20.8301 17.3679 21.9999C17.3679 23.1698 17.7922 24.1879 18.6224 25.018ZM19.1713 31.0168V36.4269C19.1713 37.1056 19.4081 37.706 19.8848 38.1827C20.3615 38.6594 20.9619 38.8962 21.6405 38.8962C22.3192 38.8962 22.9196 38.6594 23.3963 38.1827C23.8729 37.706 24.1097 37.1056 24.1097 36.4269V31.0168C24.1097 30.3382 23.8729 29.7378 23.3963 29.2611C22.9196 28.7844 22.3192 28.5476 21.6405 28.5476C20.9619 28.5476 20.3615 28.7844 19.8848 29.2611C19.4081 29.7378 19.1713 30.3382 19.1713 31.0168ZM36.0675 19.5307H30.6574C29.9787 19.5307 29.3783 19.7675 28.9016 20.2442C28.425 20.7209 28.1881 21.3213 28.1881 21.9999C28.1881 22.6786 28.425 23.279 28.9016 23.7557C29.3783 24.2324 29.9787 24.4692 30.6574 24.4692H36.0675C36.7461 24.4692 37.3466 24.2324 37.8232 23.7557C38.2999 23.279 38.5367 22.6786 38.5367 21.9999C38.5367 21.3213 38.2999 20.7209 37.8232 20.2442C37.3466 19.7675 36.7461 19.5307 36.0675 19.5307Z" fill="#FFF3C1" stroke="#FFF3C1" stroke-width="1.33172"/>
</svg>
