<svg width="50" height="51" viewBox="0 0 50 51" fill="none" xmlns="http://www.w3.org/2000/svg">
<path d="M29.1667 27.5834C27.4306 27.5834 25.9549 26.9757 24.7396 25.7605C23.5243 24.5452 22.9167 23.0695 22.9167 21.3334C22.9167 19.5973 23.5243 18.1216 24.7396 16.9063C25.9549 15.691 27.4306 15.0834 29.1667 15.0834C30.9028 15.0834 32.3785 15.691 33.5938 16.9063C34.8091 18.1216 35.4167 19.5973 35.4167 21.3334C35.4167 23.0695 34.8091 24.5452 33.5938 25.7605C32.3785 26.9757 30.9028 27.5834 29.1667 27.5834ZM14.5834 33.8334C13.4375 33.8334 12.4566 33.4254 11.6407 32.6094C10.8247 31.7934 10.4167 30.8125 10.4167 29.6667V13C10.4167 11.8542 10.8247 10.8733 11.6407 10.0573C12.4566 9.24136 13.4375 8.83337 14.5834 8.83337H43.75C44.8959 8.83337 45.8768 9.24136 46.6928 10.0573C47.5087 10.8733 47.9167 11.8542 47.9167 13V29.6667C47.9167 30.8125 47.5087 31.7934 46.6928 32.6094C45.8768 33.4254 44.8959 33.8334 43.75 33.8334H14.5834ZM18.75 29.6667H39.5834C39.5834 28.5209 39.9914 27.54 40.8073 26.724C41.6233 25.908 42.6042 25.5 43.75 25.5V17.1667C42.6042 17.1667 41.6233 16.7587 40.8073 15.9427C39.9914 15.1268 39.5834 14.1459 39.5834 13H18.75C18.75 14.1459 18.3421 15.1268 17.5261 15.9427C16.7101 16.7587 15.7292 17.1667 14.5834 17.1667V25.5C15.7292 25.5 16.7101 25.908 17.5261 26.724C18.3421 27.54 18.75 28.5209 18.75 29.6667ZM41.6667 42.1667H6.25004C5.10421 42.1667 4.1233 41.7587 3.30733 40.9427C2.49136 40.1268 2.08337 39.1459 2.08337 38V15.0834H6.25004V38H41.6667V42.1667Z" fill="#FFF3C1"/>
</svg>
