<svg width="35" height="35" viewBox="0 0 35 35" fill="none" xmlns="http://www.w3.org/2000/svg">
<path d="M17.1166 31.5418C16.3321 31.5418 15.6605 31.2624 15.1019 30.7037C14.5432 30.1451 14.2639 29.4735 14.2639 28.689H19.9694C19.9694 29.4735 19.6901 30.1451 19.1314 30.7037C18.5727 31.2624 17.9012 31.5418 17.1166 31.5418ZM12.8375 27.2626C12.4333 27.2626 12.0946 27.1259 11.8212 26.8525C11.5478 26.5791 11.4111 26.2403 11.4111 25.8362C11.4111 25.432 11.5478 25.0933 11.8212 24.8199C12.0946 24.5465 12.4333 24.4098 12.8375 24.4098H21.3958C21.8 24.4098 22.1387 24.5465 22.4121 24.8199C22.6855 25.0933 22.8222 25.432 22.8222 25.8362C22.8222 26.2403 22.6855 26.5791 22.4121 26.8525C22.1387 27.1259 21.8 27.2626 21.3958 27.2626H12.8375ZM11.7677 22.9834C10.1273 22.0087 8.82574 20.7012 7.86292 19.0608C6.90011 17.4205 6.4187 15.6375 6.4187 13.7119C6.4187 10.7402 7.45878 8.2143 9.53893 6.13415C11.6191 4.05399 14.145 3.01392 17.1166 3.01392C20.0883 3.01392 22.6142 4.05399 24.6943 6.13415C26.7745 8.2143 27.8146 10.7402 27.8146 13.7119C27.8146 15.6375 27.3332 17.4205 26.3704 19.0608C25.4075 20.7012 24.106 22.0087 22.4656 22.9834H11.7677ZM12.6235 20.1306H21.6098C22.6796 19.3699 23.5057 18.4308 24.0881 17.3135C24.6706 16.1962 24.9618 14.9956 24.9618 13.7119C24.9618 11.5247 24.2011 9.67041 22.6796 8.14893C21.1581 6.62744 19.3038 5.8667 17.1166 5.8667C14.9295 5.8667 13.0752 6.62744 11.5537 8.14893C10.0322 9.67041 9.27148 11.5247 9.27148 13.7119C9.27148 14.9956 9.56271 16.1962 10.1451 17.3135C10.7276 18.4308 11.5537 19.3699 12.6235 20.1306Z" fill="#FFF3C1"/>
</svg>
