<svg width="44" height="52" viewBox="0 0 44 52" fill="none" xmlns="http://www.w3.org/2000/svg">
<path d="M22 51.1667C22 45.0556 19.8611 39.8611 15.5833 35.5833C11.3056 31.3056 6.11111 29.1667 0 29.1667C0 35.2778 2.13889 40.4722 6.41667 44.75C10.6944 49.0278 15.8889 51.1667 22 51.1667ZM22 32.65C23.5889 32.65 24.9333 32.1 26.0333 31C27.1333 29.9 27.6833 28.5556 27.6833 26.9667V26.4167C28.1722 26.7833 28.6764 27.0583 29.1958 27.2417C29.7153 27.425 30.3111 27.5167 30.9833 27.5167C32.5722 27.5167 33.9167 26.9667 35.0167 25.8667C36.1167 24.7667 36.6667 23.4222 36.6667 21.8333C36.6667 20.6111 36.3764 19.5417 35.7958 18.625C35.2153 17.7083 34.4056 17.0667 33.3667 16.7C34.4056 16.3333 35.2153 15.6917 35.7958 14.775C36.3764 13.8583 36.6667 12.7889 36.6667 11.5667C36.6667 9.97778 36.1167 8.63333 35.0167 7.53333C33.9167 6.43333 32.5722 5.88333 30.9833 5.88333C30.3111 5.88333 29.7153 5.975 29.1958 6.15833C28.6764 6.34167 28.1722 6.61667 27.6833 6.98333V6.43333C27.6833 4.84445 27.1333 3.5 26.0333 2.4C24.9333 1.3 23.5889 0.75 22 0.75C20.4111 0.75 19.0667 1.3 17.9667 2.4C16.8667 3.5 16.3167 4.84445 16.3167 6.43333V6.98333C15.8278 6.61667 15.3236 6.34167 14.8042 6.15833C14.2847 5.975 13.6889 5.88333 13.0167 5.88333C11.4278 5.88333 10.0833 6.43333 8.98333 7.53333C7.88333 8.63333 7.33333 9.97778 7.33333 11.5667C7.33333 12.7889 7.62361 13.8583 8.20417 14.775C8.78472 15.6917 9.59445 16.3333 10.6333 16.7C9.59445 17.0667 8.78472 17.7083 8.20417 18.625C7.62361 19.5417 7.33333 20.6111 7.33333 21.8333C7.33333 23.4222 7.88333 24.7667 8.98333 25.8667C10.0833 26.9667 11.4278 27.5167 13.0167 27.5167C13.6889 27.5167 14.2847 27.425 14.8042 27.2417C15.3236 27.0583 15.8278 26.7833 16.3167 26.4167V26.9667C16.3167 28.5556 16.8667 29.9 17.9667 31C19.0667 32.1 20.4111 32.65 22 32.65ZM22 22.3833C20.4111 22.3833 19.0667 21.8486 17.9667 20.7792C16.8667 19.7097 16.3167 18.35 16.3167 16.7C16.3167 15.1111 16.8667 13.7667 17.9667 12.6667C19.0667 11.5667 20.4111 11.0167 22 11.0167C23.5889 11.0167 24.9333 11.5667 26.0333 12.6667C27.1333 13.7667 27.6833 15.1111 27.6833 16.7C27.6833 18.35 27.1333 19.7097 26.0333 20.7792C24.9333 21.8486 23.5889 22.3833 22 22.3833ZM22 51.1667C28.1111 51.1667 33.3056 49.0278 37.5833 44.75C41.8611 40.4722 44 35.2778 44 29.1667C37.8889 29.1667 32.6944 31.3056 28.4167 35.5833C24.1389 39.8611 22 45.0556 22 51.1667Z" fill="#FFF3C1"/>
</svg>
