<svg width="13" height="9" viewBox="0 0 13 9" fill="none" xmlns="http://www.w3.org/2000/svg">
<path d="M0.541626 8.29175V6.66675C0.541626 6.3598 0.647702 6.10251 0.859855 5.89487C1.07201 5.68723 1.32704 5.58341 1.62496 5.58341H3.39892C3.57947 5.58341 3.751 5.62855 3.9135 5.71883C4.076 5.80911 4.2069 5.93098 4.30621 6.08446C4.56802 6.43654 4.89076 6.71189 5.27444 6.9105C5.65812 7.10911 6.06663 7.20841 6.49996 7.20841C6.94232 7.20841 7.35534 7.10911 7.73902 6.9105C8.1227 6.71189 8.44093 6.43654 8.69371 6.08446C8.81107 5.93098 8.94874 5.80911 9.10673 5.71883C9.26472 5.62855 9.42947 5.58341 9.601 5.58341H11.375C11.6819 5.58341 11.9392 5.68723 12.1468 5.89487C12.3545 6.10251 12.4583 6.3598 12.4583 6.66675V8.29175C12.4583 8.44522 12.4064 8.57387 12.3026 8.67769C12.1987 8.7815 12.0701 8.83342 11.9166 8.83342H9.20829C9.05482 8.83342 8.92618 8.7815 8.82236 8.67769C8.71854 8.57387 8.66663 8.44522 8.66663 8.29175V7.60112C8.35065 7.82682 8.00986 7.99835 7.64423 8.11571C7.2786 8.23307 6.89718 8.29175 6.49996 8.29175C6.11176 8.29175 5.7326 8.23081 5.36246 8.10894C4.99232 7.98706 4.64926 7.81328 4.33329 7.58758V8.29175C4.33329 8.44522 4.28138 8.57387 4.17756 8.67769C4.07374 8.7815 3.9451 8.83342 3.79163 8.83342H1.08329C0.92982 8.83342 0.801175 8.7815 0.697355 8.67769C0.593536 8.57387 0.541626 8.44522 0.541626 8.29175ZM6.49996 6.66675C6.1569 6.66675 5.8319 6.58776 5.52496 6.42977C5.21801 6.27178 4.96072 6.05286 4.75308 5.773C4.59961 5.5473 4.40777 5.36901 4.17756 5.2381C3.94736 5.1072 3.69683 5.04175 3.426 5.04175C3.62461 4.70772 4.0444 4.44366 4.68538 4.24956C5.32635 4.05546 5.93121 3.95841 6.49996 3.95841C7.06871 3.95841 7.67357 4.05546 8.31454 4.24956C8.95551 4.44366 9.37531 4.70772 9.57392 5.04175C9.31211 5.04175 9.06385 5.1072 8.82913 5.2381C8.5944 5.36901 8.40031 5.5473 8.24683 5.773C8.04822 6.06189 7.79545 6.28307 7.4885 6.43654C7.18156 6.59001 6.85204 6.66675 6.49996 6.66675ZM2.16663 5.04175C1.71524 5.04175 1.33156 4.88376 1.01558 4.56779C0.699612 4.25182 0.541626 3.86814 0.541626 3.41675C0.541626 2.95633 0.699612 2.57039 1.01558 2.25894C1.33156 1.94748 1.71524 1.79175 2.16663 1.79175C2.62704 1.79175 3.01298 1.94748 3.32444 2.25894C3.6359 2.57039 3.79163 2.95633 3.79163 3.41675C3.79163 3.86814 3.6359 4.25182 3.32444 4.56779C3.01298 4.88376 2.62704 5.04175 2.16663 5.04175ZM10.8333 5.04175C10.3819 5.04175 9.99822 4.88376 9.68225 4.56779C9.36628 4.25182 9.20829 3.86814 9.20829 3.41675C9.20829 2.95633 9.36628 2.57039 9.68225 2.25894C9.99822 1.94748 10.3819 1.79175 10.8333 1.79175C11.2937 1.79175 11.6796 1.94748 11.9911 2.25894C12.3026 2.57039 12.4583 2.95633 12.4583 3.41675C12.4583 3.86814 12.3026 4.25182 11.9911 4.56779C11.6796 4.88376 11.2937 5.04175 10.8333 5.04175ZM6.49996 3.41675C6.04857 3.41675 5.66489 3.25876 5.34892 2.94279C5.03295 2.62682 4.87496 2.24314 4.87496 1.79175C4.87496 1.33133 5.03295 0.945394 5.34892 0.633936C5.66489 0.322477 6.04857 0.166748 6.49996 0.166748C6.96038 0.166748 7.34631 0.322477 7.65777 0.633936C7.96923 0.945394 8.12496 1.33133 8.12496 1.79175C8.12496 2.24314 7.96923 2.62682 7.65777 2.94279C7.34631 3.25876 6.96038 3.41675 6.49996 3.41675Z" fill="#937B3E"/>
</svg>
