<svg width="35" height="36" viewBox="0 0 35 36" fill="none" xmlns="http://www.w3.org/2000/svg">
<path d="M1.44434 28.2167V23.8834C1.44434 23.0649 1.7272 22.3788 2.29294 21.8251C2.85867 21.2714 3.53875 20.9945 4.33319 20.9945H9.06368C9.54515 20.9945 10.0026 21.1149 10.4359 21.3556C10.8692 21.5964 11.2183 21.9214 11.4831 22.3306C12.1812 23.2695 13.0419 24.0038 14.065 24.5334C15.0881 25.063 16.1775 25.3278 17.333 25.3278C18.5126 25.3278 19.614 25.063 20.6371 24.5334C21.6603 24.0038 22.5089 23.2695 23.1829 22.3306C23.4959 21.9214 23.863 21.5964 24.2843 21.3556C24.7056 21.1149 25.1449 20.9945 25.6023 20.9945H30.3328C31.1513 20.9945 31.8374 21.2714 32.3911 21.8251C32.9448 22.3788 33.2217 23.0649 33.2217 23.8834V28.2167C33.2217 28.6259 33.0833 28.969 32.8064 29.2458C32.5296 29.5227 32.1865 29.6611 31.7773 29.6611H24.5551C24.1459 29.6611 23.8028 29.5227 23.526 29.2458C23.2491 28.969 23.1107 28.6259 23.1107 28.2167V26.375C22.2681 26.9769 21.3593 27.4343 20.3844 27.7472C19.4094 28.0602 18.3923 28.2167 17.333 28.2167C16.2978 28.2167 15.2867 28.0542 14.2997 27.7292C13.3127 27.4042 12.3979 26.9408 11.5553 26.3389V28.2167C11.5553 28.6259 11.4169 28.969 11.14 29.2458C10.8632 29.5227 10.5201 29.6611 10.1109 29.6611H2.88876C2.47951 29.6611 2.13646 29.5227 1.85961 29.2458C1.58276 28.969 1.44434 28.6259 1.44434 28.2167ZM17.333 23.8834C16.4182 23.8834 15.5516 23.6727 14.733 23.2515C13.9145 22.8302 13.2284 22.2464 12.6747 21.5001C12.2655 20.8982 11.7539 20.4228 11.14 20.0737C10.5262 19.7247 9.85811 19.5501 9.1359 19.5501C9.66552 18.6594 10.785 17.9552 12.4942 17.4376C14.2034 16.9201 15.8164 16.6613 17.333 16.6613C18.8497 16.6613 20.4626 16.9201 22.1718 17.4376C23.8811 17.9552 25.0005 18.6594 25.5301 19.5501C24.832 19.5501 24.17 19.7247 23.544 20.0737C22.9181 20.4228 22.4005 20.8982 21.9913 21.5001C21.4617 22.2704 20.7876 22.8603 19.9691 23.2695C19.1506 23.6788 18.2719 23.8834 17.333 23.8834ZM5.77761 19.5501C4.57392 19.5501 3.55079 19.1288 2.70821 18.2862C1.86563 17.4437 1.44434 16.4205 1.44434 15.2168C1.44434 13.9891 1.86563 12.9599 2.70821 12.1294C3.55079 11.2988 4.57392 10.8836 5.77761 10.8836C7.00537 10.8836 8.03452 11.2988 8.86507 12.1294C9.69561 12.9599 10.1109 13.9891 10.1109 15.2168C10.1109 16.4205 9.69561 17.4437 8.86507 18.2862C8.03452 19.1288 7.00537 19.5501 5.77761 19.5501ZM28.8884 19.5501C27.6847 19.5501 26.6616 19.1288 25.819 18.2862C24.9764 17.4437 24.5551 16.4205 24.5551 15.2168C24.5551 13.9891 24.9764 12.9599 25.819 12.1294C26.6616 11.2988 27.6847 10.8836 28.8884 10.8836C30.1162 10.8836 31.1453 11.2988 31.9759 12.1294C32.8064 12.9599 33.2217 13.9891 33.2217 15.2168C33.2217 16.4205 32.8064 17.4437 31.9759 18.2862C31.1453 19.1288 30.1162 19.5501 28.8884 19.5501ZM17.333 15.2168C16.1293 15.2168 15.1062 14.7956 14.2636 13.953C13.421 13.1104 12.9997 12.0873 12.9997 10.8836C12.9997 9.65581 13.421 8.62665 14.2636 7.79611C15.1062 6.96557 16.1293 6.55029 17.333 6.55029C18.5608 6.55029 19.5899 6.96557 20.4205 7.79611C21.251 8.62665 21.6663 9.65581 21.6663 10.8836C21.6663 12.0873 21.251 13.1104 20.4205 13.953C19.5899 14.7956 18.5608 15.2168 17.333 15.2168Z" fill="#FFF3C1"/>
</svg>
