<svg width="13" height="13" viewBox="0 0 13 13" fill="none" xmlns="http://www.w3.org/2000/svg">
<path d="M0.541626 10.2917V8.66675C0.541626 8.3598 0.647702 8.10251 0.859855 7.89487C1.07201 7.68723 1.32704 7.58341 1.62496 7.58341H3.39892C3.57947 7.58341 3.751 7.62855 3.9135 7.71883C4.076 7.80911 4.2069 7.93098 4.30621 8.08446C4.56802 8.43654 4.89076 8.71189 5.27444 8.9105C5.65812 9.10911 6.06663 9.20841 6.49996 9.20841C6.94232 9.20841 7.35534 9.10911 7.73902 8.9105C8.1227 8.71189 8.44093 8.43654 8.69371 8.08446C8.81107 7.93098 8.94874 7.80911 9.10673 7.71883C9.26472 7.62855 9.42947 7.58341 9.601 7.58341H11.375C11.6819 7.58341 11.9392 7.68723 12.1468 7.89487C12.3545 8.10251 12.4583 8.3598 12.4583 8.66675V10.2917C12.4583 10.4452 12.4064 10.5739 12.3026 10.6777C12.1987 10.7815 12.0701 10.8334 11.9166 10.8334H9.20829C9.05482 10.8334 8.92618 10.7815 8.82236 10.6777C8.71854 10.5739 8.66663 10.4452 8.66663 10.2917V9.60112C8.35065 9.82682 8.00986 9.99835 7.64423 10.1157C7.2786 10.2331 6.89718 10.2917 6.49996 10.2917C6.11176 10.2917 5.7326 10.2308 5.36246 10.1089C4.99232 9.98706 4.64926 9.81328 4.33329 9.58758V10.2917C4.33329 10.4452 4.28138 10.5739 4.17756 10.6777C4.07374 10.7815 3.9451 10.8334 3.79163 10.8334H1.08329C0.92982 10.8334 0.801175 10.7815 0.697355 10.6777C0.593536 10.5739 0.541626 10.4452 0.541626 10.2917ZM6.49996 8.66675C6.1569 8.66675 5.8319 8.58776 5.52496 8.42977C5.21801 8.27178 4.96072 8.05286 4.75308 7.773C4.59961 7.5473 4.40777 7.36901 4.17756 7.2381C3.94736 7.1072 3.69683 7.04175 3.426 7.04175C3.62461 6.70772 4.0444 6.44366 4.68538 6.24956C5.32635 6.05546 5.93121 5.95841 6.49996 5.95841C7.06871 5.95841 7.67357 6.05546 8.31454 6.24956C8.95551 6.44366 9.37531 6.70772 9.57392 7.04175C9.31211 7.04175 9.06385 7.1072 8.82913 7.2381C8.5944 7.36901 8.40031 7.5473 8.24683 7.773C8.04822 8.06189 7.79545 8.28307 7.4885 8.43654C7.18156 8.59001 6.85204 8.66675 6.49996 8.66675ZM2.16663 7.04175C1.71524 7.04175 1.33156 6.88376 1.01558 6.56779C0.699612 6.25182 0.541626 5.86814 0.541626 5.41675C0.541626 4.95633 0.699612 4.57039 1.01558 4.25894C1.33156 3.94748 1.71524 3.79175 2.16663 3.79175C2.62704 3.79175 3.01298 3.94748 3.32444 4.25894C3.6359 4.57039 3.79163 4.95633 3.79163 5.41675C3.79163 5.86814 3.6359 6.25182 3.32444 6.56779C3.01298 6.88376 2.62704 7.04175 2.16663 7.04175ZM10.8333 7.04175C10.3819 7.04175 9.99822 6.88376 9.68225 6.56779C9.36628 6.25182 9.20829 5.86814 9.20829 5.41675C9.20829 4.95633 9.36628 4.57039 9.68225 4.25894C9.99822 3.94748 10.3819 3.79175 10.8333 3.79175C11.2937 3.79175 11.6796 3.94748 11.9911 4.25894C12.3026 4.57039 12.4583 4.95633 12.4583 5.41675C12.4583 5.86814 12.3026 6.25182 11.9911 6.56779C11.6796 6.88376 11.2937 7.04175 10.8333 7.04175ZM6.49996 5.41675C6.04857 5.41675 5.66489 5.25876 5.34892 4.94279C5.03295 4.62682 4.87496 4.24314 4.87496 3.79175C4.87496 3.33133 5.03295 2.94539 5.34892 2.63394C5.66489 2.32248 6.04857 2.16675 6.49996 2.16675C6.96038 2.16675 7.34631 2.32248 7.65777 2.63394C7.96923 2.94539 8.12496 3.33133 8.12496 3.79175C8.12496 4.24314 7.96923 4.62682 7.65777 4.94279C7.34631 5.25876 6.96038 5.41675 6.49996 5.41675Z" fill="#FFF3C1"/>
</svg>
