<svg width="34" height="34" viewBox="0 0 34 34" fill="none" xmlns="http://www.w3.org/2000/svg">
<g clip-path="url(#clip0_337_4126)">
<path d="M8.34922 32.2321C7.1896 32.2321 6.20393 31.8263 5.3922 31.0145C4.58047 30.2028 4.17461 29.2171 4.17461 28.0575C4.17461 26.8979 4.58047 25.9122 5.3922 25.1005C6.20393 24.2888 7.1896 23.8829 8.34922 23.8829C8.67391 23.8829 8.97541 23.9177 9.25372 23.9873C9.53202 24.0569 9.79873 24.1496 10.0539 24.2656L12.0368 21.7956C11.3874 21.0767 10.9352 20.2649 10.68 19.3604C10.4249 18.4559 10.3669 17.5514 10.5061 16.6469L7.68824 15.7076C7.29397 16.2875 6.79534 16.7513 6.19234 17.0992C5.58934 17.4471 4.91676 17.621 4.17461 17.621C3.015 17.621 2.02932 17.2151 1.21759 16.4034C0.405865 15.5917 0 14.606 0 13.4464C0 12.2868 0.405865 11.3011 1.21759 10.4894C2.02932 9.67766 3.015 9.27179 4.17461 9.27179C5.33422 9.27179 6.31989 9.67766 7.13162 10.4894C7.94335 11.3011 8.34922 12.2868 8.34922 13.4464V13.7247L11.1671 14.6988C11.6309 13.8639 12.2513 13.1565 13.0283 12.5767C13.8052 11.9969 14.6807 11.6258 15.6548 11.4635V8.43687C14.7503 8.18176 14.0023 7.68892 13.4109 6.95836C12.8195 6.22781 12.5238 5.37549 12.5238 4.40141C12.5238 3.2418 12.9297 2.25613 13.7414 1.4444C14.5532 0.632671 15.5388 0.226807 16.6984 0.226807C17.858 0.226807 18.8437 0.632671 19.6555 1.4444C20.4672 2.25613 20.873 3.2418 20.873 4.40141C20.873 5.37549 20.5715 6.22781 19.9685 6.95836C19.3655 7.68892 18.6234 8.18176 17.7421 8.43687V11.4635C18.7162 11.6258 19.5917 11.9969 20.3686 12.5767C21.1456 13.1565 21.7659 13.8639 22.2298 14.6988L25.0477 13.7247V13.4464C25.0477 12.2868 25.4535 11.3011 26.2652 10.4894C27.077 9.67766 28.0626 9.27179 29.2223 9.27179C30.3819 9.27179 31.3675 9.67766 32.1793 10.4894C32.991 11.3011 33.3969 12.2868 33.3969 13.4464C33.3969 14.606 32.991 15.5917 32.1793 16.4034C31.3675 17.2151 30.3819 17.621 29.2223 17.621C28.4801 17.621 27.8017 17.4471 27.1871 17.0992C26.5725 16.7513 26.0797 16.2875 25.7086 15.7076L22.8908 16.6469C23.0299 17.5514 22.9719 18.4501 22.7168 19.343C22.4617 20.2359 22.0095 21.0535 21.3601 21.7956L23.343 24.2308C23.5981 24.1148 23.8648 24.0279 24.1432 23.9699C24.4215 23.9119 24.723 23.8829 25.0477 23.8829C26.2073 23.8829 27.1929 24.2888 28.0047 25.1005C28.8164 25.9122 29.2223 26.8979 29.2223 28.0575C29.2223 29.2171 28.8164 30.2028 28.0047 31.0145C27.1929 31.8263 26.2073 32.2321 25.0477 32.2321C23.888 32.2321 22.9024 31.8263 22.0906 31.0145C21.2789 30.2028 20.873 29.2171 20.873 28.0575C20.873 27.5937 20.9484 27.1472 21.0992 26.7182C21.2499 26.2891 21.4529 25.9006 21.708 25.5528L19.725 23.0828C18.7741 23.6162 17.7595 23.8829 16.681 23.8829C15.6026 23.8829 14.5879 23.6162 13.6371 23.0828L11.6889 25.5528C11.944 25.9006 12.147 26.2891 12.2977 26.7182C12.4485 27.1472 12.5238 27.5937 12.5238 28.0575C12.5238 29.2171 12.118 30.2028 11.3062 31.0145C10.4945 31.8263 9.50883 32.2321 8.34922 32.2321ZM4.17461 14.8379C4.56888 14.8379 4.89937 14.7046 5.16608 14.4379C5.43279 14.1712 5.56614 13.8407 5.56614 13.4464C5.56614 13.0521 5.43279 12.7216 5.16608 12.4549C4.89937 12.1882 4.56888 12.0549 4.17461 12.0549C3.78034 12.0549 3.44985 12.1882 3.18314 12.4549C2.91643 12.7216 2.78307 13.0521 2.78307 13.4464C2.78307 13.8407 2.91643 14.1712 3.18314 14.4379C3.44985 14.7046 3.78034 14.8379 4.17461 14.8379ZM8.34922 29.4491C8.74349 29.4491 9.07398 29.3157 9.34069 29.049C9.6074 28.7823 9.74075 28.4518 9.74075 28.0575C9.74075 27.6633 9.6074 27.3328 9.34069 27.0661C9.07398 26.7993 8.74349 26.666 8.34922 26.666C7.95495 26.666 7.62446 26.7993 7.35775 27.0661C7.09104 27.3328 6.95768 27.6633 6.95768 28.0575C6.95768 28.4518 7.09104 28.7823 7.35775 29.049C7.62446 29.3157 7.95495 29.4491 8.34922 29.4491ZM16.6984 5.79295C17.0927 5.79295 17.4232 5.6596 17.6899 5.39288C17.9566 5.12617 18.09 4.79568 18.09 4.40141C18.09 4.00715 17.9566 3.67666 17.6899 3.40995C17.4232 3.14323 17.0927 3.00988 16.6984 3.00988C16.3042 3.00988 15.9737 3.14323 15.707 3.40995C15.4403 3.67666 15.3069 4.00715 15.3069 4.40141C15.3069 4.79568 15.4403 5.12617 15.707 5.39288C15.9737 5.6596 16.3042 5.79295 16.6984 5.79295ZM16.6984 21.0998C17.6725 21.0998 18.4958 20.7636 19.1684 20.091C19.841 19.4184 20.1773 18.5951 20.1773 17.621C20.1773 16.6469 19.841 15.8236 19.1684 15.151C18.4958 14.4785 17.6725 14.1422 16.6984 14.1422C15.7244 14.1422 14.901 14.4785 14.2285 15.151C13.5559 15.8236 13.2196 16.6469 13.2196 17.621C13.2196 18.5951 13.5559 19.4184 14.2285 20.091C14.901 20.7636 15.7244 21.0998 16.6984 21.0998ZM25.0477 29.4491C25.4419 29.4491 25.7724 29.3157 26.0391 29.049C26.3058 28.7823 26.4392 28.4518 26.4392 28.0575C26.4392 27.6633 26.3058 27.3328 26.0391 27.0661C25.7724 26.7993 25.4419 26.666 25.0477 26.666C24.6534 26.666 24.3229 26.7993 24.0562 27.0661C23.7895 27.3328 23.6561 27.6633 23.6561 28.0575C23.6561 28.4518 23.7895 28.7823 24.0562 29.049C24.3229 29.3157 24.6534 29.4491 25.0477 29.4491ZM29.2223 14.8379C29.6165 14.8379 29.947 14.7046 30.2137 14.4379C30.4804 14.1712 30.6138 13.8407 30.6138 13.4464C30.6138 13.0521 30.4804 12.7216 30.2137 12.4549C29.947 12.1882 29.6165 12.0549 29.2223 12.0549C28.828 12.0549 28.4975 12.1882 28.2308 12.4549C27.9641 12.7216 27.8307 13.0521 27.8307 13.4464C27.8307 13.8407 27.9641 14.1712 28.2308 14.4379C28.4975 14.7046 28.828 14.8379 29.2223 14.8379Z" fill="#FFF3C1"/>
</g>
<defs>
<clipPath id="clip0_337_4126">
<rect width="33.3969" height="33.3969" fill="white" transform="translate(0 0.226807)"/>
</clipPath>
</defs>
</svg>
