<svg width="44" height="44" viewBox="0 0 44 44" fill="none" xmlns="http://www.w3.org/2000/svg">
<path fill-rule="evenodd" clip-rule="evenodd" d="M15.7388 5.76959C16.9345 5.76959 18.0812 6.24459 18.9267 7.09008C19.7722 7.93558 20.2472 9.08231 20.2472 10.278V12.9831H23.8539V10.278C23.8538 9.13339 24.289 8.03154 25.0713 7.19598C25.8536 6.36041 26.9245 5.8537 28.0666 5.77861L28.4688 5.76959C29.6039 5.76995 30.7101 6.12732 31.6309 6.79112C32.5516 7.45491 33.2403 8.3915 33.5994 9.46831L39.3738 26.7897C39.8688 27.8934 40.1107 29.0938 40.082 30.3031C40.0533 31.5124 39.7546 32.7 39.2078 33.779C38.6609 34.8579 37.8798 35.801 36.9216 36.5392C35.9633 37.2774 34.8521 37.7921 33.6694 38.0455C32.4866 38.2989 31.2621 38.2848 30.0855 38.004C28.9089 37.7232 27.81 37.183 26.8691 36.4228C25.9282 35.6626 25.1691 34.7016 24.6474 33.6103C24.1257 32.5189 23.8546 31.3248 23.8539 30.1151V16.5898H20.2472V30.1151C20.2465 31.3248 19.9754 32.5189 19.4537 33.6103C18.932 34.7016 18.173 35.6626 17.2321 36.4228C16.2912 37.183 15.1922 37.7232 14.0156 38.004C12.839 38.2848 11.6146 38.2989 10.4318 38.0455C9.249 37.7921 8.13783 37.2774 7.17957 36.5392C6.22131 35.801 5.4402 34.8579 4.89338 33.779C4.34655 32.7 4.04786 31.5124 4.01913 30.3031C3.99041 29.0938 4.23239 27.8934 4.72737 26.7897L10.5 9.46831C10.8414 8.44479 11.4812 7.54676 12.3369 6.88959C13.1927 6.23243 14.2254 5.84616 15.3024 5.78041L15.7388 5.76959ZM12.132 25.6067C11.2876 25.6063 10.46 25.8432 9.74361 26.2902C9.0272 26.7372 8.45072 27.3764 8.07984 28.135C7.85983 28.7951 7.62359 29.41 7.62359 30.1151C7.62359 31.0068 7.88801 31.8785 8.3834 32.6199C8.87879 33.3613 9.58291 33.9391 10.4067 34.2804C11.2305 34.6216 12.137 34.7109 13.0116 34.5369C13.8861 34.363 14.6894 33.9336 15.32 33.3031C15.9505 32.6726 16.3799 31.8692 16.5538 30.9947C16.7278 30.1201 16.6385 29.2136 16.2973 28.3898C15.956 27.566 15.3782 26.8619 14.6368 26.3665C13.8954 25.8711 13.0237 25.6067 12.132 25.6067ZM31.9691 25.6067C31.0774 25.6067 30.2058 25.8711 29.4644 26.3665C28.723 26.8619 28.1451 27.566 27.8039 28.3898C27.4626 29.2136 27.3734 30.1201 27.5473 30.9947C27.7213 31.8692 28.1507 32.6726 28.7812 33.3031C29.4117 33.9336 30.215 34.363 31.0896 34.5369C31.9641 34.7109 32.8706 34.6216 33.6944 34.2804C34.5182 33.9391 35.2224 33.3613 35.7177 32.6199C36.2131 31.8785 36.4776 31.0068 36.4776 30.1151C36.4776 29.4118 36.2413 28.7951 36.0213 28.135C35.6504 27.3764 35.0739 26.7372 34.3575 26.2902C33.6411 25.8432 32.8136 25.6063 31.9691 25.6067ZM15.7388 9.37634C14.9272 9.37634 14.1879 9.81456 13.9228 10.6098L10.0347 22.2741C11.1501 21.9758 12.3164 21.919 13.4555 22.1075C14.5947 22.2959 15.6805 22.7253 16.6405 23.3669V10.278C16.6405 10.0389 16.5455 9.80953 16.3764 9.64044C16.2073 9.47134 15.9779 9.37634 15.7388 9.37634ZM28.4688 9.37634C27.9422 9.37634 27.4607 9.70635 27.4607 10.278V23.3669C28.4206 22.7253 29.5065 22.2959 30.6456 22.1075C31.7848 21.919 32.951 21.9758 34.0664 22.2741L30.1784 10.6098C30.0587 10.2506 29.829 9.93814 29.5219 9.71674C29.2147 9.49534 28.8456 9.37625 28.467 9.37634H28.4688Z" fill="#FFF3C1"/>
</svg>
