<svg width="763" height="566" viewBox="0 0 763 566" fill="none" xmlns="http://www.w3.org/2000/svg">
<g clip-path="url(#clip0_593_17172)">
<path d="M626.245 41.8454C626.245 41.8454 623.529 10.4661 621.72 2.61979C619.91 -5.2245 567.408 26.7592 571.631 28.8709C575.318 30.7133 606.802 12.7999 614.766 8.20435C615.397 7.84041 616.143 8.45726 615.905 9.14608C506.332 326.557 96.3824 320.28 75.7878 319.762C75.3457 319.751 74.9838 320.107 74.9838 320.549V564.123C74.9838 564.559 75.3375 564.911 75.7713 564.911H575.713C576.132 564.911 576.478 564.586 576.5 564.168C577.023 554.33 582.529 449.907 581.666 437.187C580.761 423.837 558.357 395.548 542.968 371.561C527.58 347.573 496.803 254.791 504.724 240.759C512.644 226.728 492.278 170.381 494.313 159.066C496.351 147.751 520.564 132.588 535.046 138.925C547.864 144.533 557.195 131.924 559.173 128.949C559.399 128.608 559.845 128.499 560.205 128.696C561.996 129.681 567.013 132.362 568.615 132.362C570.577 132.362 568.163 150.164 571.934 157.859C575.705 165.553 594.412 132.512 594.564 131.91C594.714 131.307 594.714 115.919 593.659 107.168C592.604 98.4168 584.003 94.1934 573.895 101.738C563.787 109.282 588.529 108.677 591.547 104.604C594.564 100.531 569.672 98.569 569.069 104.604C568.559 109.707 569.02 124.302 569.174 128.688C569.195 129.284 568.572 129.687 568.039 129.42C564.638 127.719 555.24 121.693 558.057 108.023C561.476 91.4279 579.077 90.7247 591.65 85.9975C604.222 81.2704 624.136 65.5798 636.306 65.882C648.477 66.1843 657.226 70.6091 661.048 80.4664C664.871 90.3237 669.698 129.146 661.751 135.381C653.806 141.617 640.328 160.324 632.282 171.688C624.237 183.053 601.413 205.241 589.637 205.482C574.853 205.784 566.203 190.698 564.996 188.383C563.789 186.069 562.28 209.201 567.914 215.841C573.546 222.478 588.432 211.516 587.125 215.438C585.817 219.361 545.234 259.943 546.441 256.524C547.648 253.105 582.398 218.557 580.185 220.064C577.973 221.573 565.3 223.181 562.483 214.331C559.667 205.482 562.685 191.5 560.372 196.027C558.059 200.555 515.011 198.038 506.864 185.668C498.718 173.298 518.833 191.099 538.848 193.412C558.863 195.725 565.191 191.234 566.306 184.461C568.282 172.447 583.204 148.053 598.29 132.161C613.376 116.268 647.572 95.2482 666.38 93.9405C685.188 92.6328 692.732 104.904 697.459 111.844C702.186 118.783 708.624 110.536 718.177 110.737C727.73 110.939 744.327 124.617 737.488 145.939C730.65 167.262 697.056 180.034 694.944 181.745C692.832 183.456 708.12 186.976 706.309 191.401C704.748 195.217 697.054 186.394 694.965 183.892C694.675 183.546 694.159 183.514 693.828 183.82C690.601 186.812 675.511 200.95 669.598 209.103C662.96 218.255 648.779 238.068 631.478 237.264C614.18 236.46 606.736 217.249 613.273 208.8C619.81 200.352 633.892 172.089 645.357 156.6C656.823 141.111 686.191 121.197 697.558 114.056C708.922 106.915 727.43 105.506 736.985 113.454C746.54 121.399 754.988 151.069 756.095 165.954C757.201 180.838 767.311 178.568 768.868 195.624C770.426 212.68 742.014 233.744 733.061 234.951C724.111 236.158 781.54 246.214 774.197 251.143C766.855 256.072 740.603 239.577 731.653 236.76C722.702 233.943 694.514 272.063 681.088 277.117C667.661 282.171 655.139 272.365 654.46 260.295C653.782 248.225 672.639 231.48 680.107 217.375C687.575 203.269 717.069 186.372 730.874 177.849C744.679 169.324 753.654 169.552 764.593 176.416C775.53 183.279 790.768 216.546 796.653 243.023C802.537 269.501 795.522 274.705 792.579 302.765C789.637 330.826 776.512 391.022 757.051 412.746C737.589 434.471 738.72 441.259 745.962 469.547C753.204 497.834 750.487 540.605 706.586 549.204C662.685 557.802 604.752 520.691 595.473 505.302C586.195 489.914 591.173 570.024 588.909 555.767C586.646 541.509 590.795 230.877 588.833 230.425C586.872 229.973 525.771 229.068 523.659 230.425C521.547 231.782 523.659 553.429 523.659 554.334C523.659 555.238 480.058 554.484 479.605 553.199C479.153 551.914 479.153 278.402 478.398 276.59C477.644 274.781 417.75 275.383 414.583 275.533C411.415 275.683 415.488 551.467 414.583 552.672C413.678 553.879 373.698 552.822 371.134 551.315C368.57 549.808 372.341 321.396 371.134 320.492C369.927 319.587 309.733 320.492 308.071 320.492C306.412 320.492 307.469 547.847 306.714 549.656C305.96 551.465 264.069 550.258 262.56 549.656C261.051 549.051 262.359 363.79 261.857 362.08C261.353 360.369 199.802 361.878 198.393 362.08C196.985 362.281 200.104 548.55 199.197 549.354C198.292 550.158 157.86 549.454 154.34 548.65C150.82 547.847 154.843 386.62 152.329 385.615C149.814 384.609 94.2213 386.495 91.9575 386.042C89.6936 385.59 90.1481 542.188 89.0151 547.166C87.8822 552.144 12.2993 543.319 2.11719 551.918" stroke="#FFF3C1" stroke-width="1.55783" stroke-miterlimit="10"/>
</g>
<defs>
<clipPath id="clip0_593_17172">
<rect width="798.434" height="565.499" fill="white" transform="translate(0.5 0.398071)"/>
</clipPath>
</defs>
</svg>
