<svg width="690" height="416" viewBox="0 0 690 416" fill="none" xmlns="http://www.w3.org/2000/svg">
<path d="M701.192 415.227C700.85 415.227 700.534 415.011 700.423 414.669C698.524 408.853 696.83 402.845 695.036 396.485C691.079 382.463 686.597 366.57 678.676 348.967C665.566 319.834 644.923 301.35 623.07 281.779C615.172 274.707 607.006 267.394 599.029 259.416C584.608 244.997 576.153 233.219 570.407 220.842C568.265 221.246 565.188 220.272 561.074 215.472C557.894 211.763 555.816 205.446 554.516 197.92V318.706C554.516 319.152 554.154 319.514 553.708 319.514H156.631C156.188 319.514 155.83 319.159 155.823 318.716C155.818 318.273 156.168 317.91 156.609 317.896L229.651 315.921V290.768C229.651 288.402 229.16 286.561 228.163 285.196C226.504 285.486 224.685 285.778 222.725 286.093C215.277 287.286 206.009 288.771 196.77 291.542C176.893 297.509 156.751 295.583 156.55 295.563C156.121 295.52 155.801 295.148 155.823 294.719C155.845 294.288 156.2 293.95 156.631 293.95C156.87 293.95 180.573 293.88 194.224 288.029C205.118 283.359 220.414 277.689 227.451 282.327C227.946 282.654 228.394 283.026 228.792 283.44C231.982 282.863 234.623 282.27 236.207 281.563C235.876 281.462 235.639 281.156 235.636 280.799L234.119 142.855C233.825 132.734 233.641 124.453 233.641 119.166C233.641 110.032 232.508 103.751 230.269 100.42C221.807 103.915 204.747 102.343 194.283 100.901C176.298 100.828 154.088 100.072 152.612 100.02C152.185 100.006 151.841 99.6595 151.831 99.2317C151.821 98.804 152.146 98.4421 152.573 98.4066C153.556 98.3238 176.757 96.4234 188.69 98.4151C190.568 98.7279 192.484 99.0221 194.412 99.2892C205.363 99.3349 214.182 99.1303 216.236 98.4455C216.814 98.2528 217.448 98.0025 218.125 97.7371C221.349 96.4707 225.764 94.736 229.353 97.1791C229.865 97.5274 230.342 97.9501 230.785 98.4472C231.781 97.9028 232.552 97.2603 233.054 96.5062C232.293 93.0807 230.863 87.0041 229.189 81.7762C227.87 79.7202 226.401 77.72 224.971 75.9058C224.83 76.014 224.658 76.0766 224.473 76.0766H162.617C158.822 76.0766 157.543 76.0766 157.12 75.0571C156.704 74.051 157.615 73.1414 160.05 70.7067C160.821 69.9357 161.436 69.2442 161.942 68.5645C156.838 70.4108 154.176 77.2094 153.407 79.5156C151.476 85.3099 151.454 97.0997 151.454 97.218V171.046L155.444 318.681C155.456 319.1 155.143 319.458 154.726 319.506C154.301 319.55 153.924 319.272 153.841 318.86C153.764 318.476 152.07 309.98 151.853 307.214C148.133 306.921 122.41 313.689 107.029 319.458C90.6624 325.597 58.6121 321.666 48.2578 309.243C43.5168 303.555 36.0588 300.405 28.2982 300.818C23.4085 301.08 19.2204 302.792 17.626 305.183C14.7619 309.479 6.24206 316.54 2.1115 314.908C0.261794 314.176 -0.384081 312.051 0.192473 308.593C0.770717 305.119 2.22309 302.858 4.50563 301.867C9.06396 299.896 15.149 303.89 15.406 304.062C15.7763 304.311 15.8778 304.811 15.6309 305.183C15.6242 305.193 15.6174 305.203 15.6089 305.214C15.8524 304.901 16.0773 304.591 16.2802 304.287C18.1755 301.445 22.7474 299.497 28.2103 299.205C36.4748 298.75 44.4332 302.13 49.4988 308.208C59.2917 319.962 90.894 323.777 106.459 317.947C119.498 313.057 150.48 304.148 152.999 305.9C153.282 306.096 153.444 306.399 153.444 306.73C153.444 306.957 153.473 307.303 153.525 307.743L149.831 171.068V97.2231C149.831 96.7294 149.855 85.0495 151.868 79.0084C153.042 75.4899 156.395 67.6109 163.137 66.593C163.925 64.953 164.382 63.0492 165.095 60.0836C165.308 59.1942 165.545 58.2119 165.819 57.1196C167.899 48.8027 174.066 46.6588 174.329 46.5726C174.393 46.5506 174.46 46.5371 174.526 46.5337C175.945 46.4323 177.291 46.3308 178.564 46.2294C178.444 46.1787 178.326 46.1246 178.212 46.0671C176.197 45.0594 175.258 42.6179 175.879 39.9921C176.516 37.2869 178.833 34.5597 182.564 34.5597C184.524 34.5597 186.984 34.3365 189.363 34.1201C195.666 33.5452 199.602 33.3034 201.094 34.7964C203.325 37.0282 203.325 39.326 203.325 41.3549C203.325 42.5131 203.325 43.5647 200.931 44.5521C201.459 44.542 201.988 44.5369 202.515 44.5369C212.975 44.5369 219 64.2277 219.252 65.0663C219.323 65.3047 219.281 65.5634 219.136 65.768C218.992 65.9708 218.76 66.096 218.512 66.1061C218.033 66.1264 170.538 68.1029 164.603 68.1029C164.458 68.1029 164.312 68.1063 164.17 68.1147C163.477 69.3321 162.556 70.4869 161.184 71.8564C160.177 72.8641 159.215 73.8262 158.817 74.3605C159.519 74.467 161.029 74.467 162.608 74.467H222.847L217.832 67.7783C217.577 67.4384 217.629 66.9616 217.949 66.6827C218.27 66.4054 218.75 66.4223 219.049 66.7215C219.384 67.0563 223.092 70.7929 226.893 75.7401C226.526 74.9624 226.156 74.281 225.787 73.7281C222.625 68.9838 222.977 48.8163 223.469 37.2176C223.579 34.6087 225.718 32.5629 228.337 32.5629H256.517C257.674 32.5629 258.737 32.9653 259.574 33.6399V25.4633C259.574 22.7767 261.76 20.5922 264.445 20.5922H321.05C323.357 20.5922 325.362 22.0665 326.04 24.2612C327.783 29.8999 330.487 40.6735 329.021 49.4672C328.071 55.1651 326.66 60.8985 325.443 65.3402C327.245 61.4345 328.667 57.3378 329.423 53.1801C332.306 37.3258 338.246 18.5007 341.529 8.69084C342.74 5.07597 346.123 2.58884 349.946 2.5043L427.736 0.77464C427.811 0.772949 427.877 0.772949 427.943 0.772949C431.886 0.772949 435.435 3.36152 436.618 7.12687C440.815 20.4688 448.915 46.2159 454.092 62.5724C453.015 57.894 451.703 52.2773 450.198 45.9064C449.889 44.6029 450.188 43.2502 451.022 42.2003C451.854 41.1486 453.1 40.545 454.442 40.545H497.713C500.428 40.545 502.636 42.7532 502.636 45.4685V66.4832H503.015V53.3239C503.015 52.8775 503.377 52.5157 503.823 52.5157H530.635C532.801 52.5157 534.563 54.2758 534.563 56.4416V66.4832H543.73C544.378 66.4832 550.115 66.5457 552.284 68.715C553.466 69.8951 553.724 71.7482 553.035 74.0696C552.678 75.2718 551.596 76.08 550.341 76.08H537.802L545.764 76.4587C546.195 76.479 546.535 76.8341 546.535 77.2669V96.4132H547.721C547.807 96.4132 547.895 96.4267 547.976 96.4555C548.481 96.6229 560.393 100.681 562.473 108.998C562.755 110.127 563.036 111.377 563.336 112.7C564.038 115.805 564.843 119.365 565.969 122.732C566.672 122.363 567.396 122.028 568.14 121.729C573.422 119.611 578.65 119.905 582.126 122.514C586.613 125.878 586.279 130.19 584.628 132.86C582.647 136.069 577.997 138.207 573.297 135.856C569.406 133.909 566.884 129.774 565.1 125.102C561.404 127.466 558.579 130.846 557.214 134.567C557.743 134.002 558.313 133.624 558.903 133.417C560.91 132.712 563.02 133.999 564.403 136.765C568.482 144.92 570.456 169.228 568.456 177.23C566.434 185.317 570.869 195.589 574.381 202.612C577.008 207.869 576.418 217.297 572.189 220.105C572.107 220.159 572.024 220.212 571.937 220.261C577.622 232.46 585.976 244.079 600.168 258.271C608.115 266.218 616.263 273.515 624.145 280.572C646.129 300.258 666.896 318.855 680.147 348.301C688.117 366.012 692.618 381.964 696.588 396.042C698.379 402.387 700.069 408.379 701.958 414.164C702.095 414.588 701.865 415.044 701.44 415.183C701.359 415.215 701.275 415.227 701.192 415.227ZM216.451 317.899H552.898V182.428C552.502 174.684 552.581 166.677 552.898 159.464V102.023H471.896C471.585 102.023 471.303 101.844 471.166 101.565C470.929 101.071 446.668 52.1488 380.133 54.1354C316.445 56.0088 295.472 112.239 293.121 145.17C292.779 149.963 292.519 156.576 292.789 164.255C293.744 151.008 298.788 137.075 308.131 121.819C319.694 102.94 333.407 88.9468 348.887 80.2241C364.628 71.3577 383.775 67.1121 404.25 67.9575C422.835 68.72 439.249 73.7129 451.715 82.3933C468.8 94.2913 478.059 112.44 482.817 125.569C490.415 146.533 492.057 168.501 487.565 189.098C477.996 232.968 439.531 265.998 396.102 267.638C373.116 268.503 353.637 264.613 337.906 256.044C326.233 259.607 315.295 263.786 306.731 269.498C285.958 283.343 248.501 282.295 238.749 281.759C237.47 283.171 234.381 284.048 229.887 284.892C230.805 286.448 231.269 288.414 231.269 290.773V316.712C231.269 317.15 230.92 317.509 230.483 317.521L216.451 317.899ZM7.33599 302.939C6.57514 302.939 5.83289 303.061 5.14813 303.359C3.40325 304.116 2.27381 305.968 1.79025 308.864C1.49099 310.654 1.40814 312.896 2.70834 313.409C5.26648 314.435 12.197 309.579 15.5819 305.257C15.3198 305.572 14.8582 305.645 14.5133 305.413C14.466 305.383 10.7429 302.939 7.33599 302.939ZM220.441 282.224C211.881 282.224 199.599 287.489 194.86 289.52C191.771 290.844 188.223 291.877 184.564 292.685C188.381 292.053 192.347 291.185 196.305 289.997C205.647 287.193 214.973 285.699 222.468 284.498C223.939 284.261 225.375 284.032 226.736 283.802C226.678 283.763 226.619 283.72 226.56 283.682C224.989 282.647 222.864 282.224 220.441 282.224ZM239.383 280.171C249.769 280.709 285.823 281.489 305.833 268.15C314.198 262.576 324.718 258.452 335.963 254.95C329.689 251.305 324.04 246.889 319.023 241.703C290.096 211.786 290.145 164.147 291.509 145.055C292.617 129.541 297.797 108.938 309.494 91.1076C306.765 94.0512 304.895 95.769 304.831 95.8282C304.682 95.9635 304.488 96.0379 304.286 96.0379H236.446C236.003 96.0379 235.644 95.6828 235.638 95.2415C235.631 94.7985 235.981 94.4333 236.424 94.4215L305.879 92.4365L318.643 76.0276L264.352 74.0882C263.911 74.073 263.564 73.7061 263.573 73.2665C263.581 72.8252 263.941 72.4719 264.381 72.4719H321.657L321.659 72.4685C322.461 69.9746 325.714 59.5256 327.433 49.2051C328.843 40.7394 326.202 30.2431 324.501 24.7413C324.035 23.2281 322.65 22.212 321.057 22.212H264.452C262.656 22.212 261.197 23.6728 261.197 25.4667V36.0594C261.304 36.4212 261.37 36.8016 261.388 37.1956L263.191 73.2412C263.202 73.4627 263.121 73.6791 262.969 73.8397C262.817 74.0003 262.604 74.0916 262.382 74.0916H230.457C230.021 74.0916 229.664 73.745 229.649 73.3105C229.634 72.8743 229.969 72.5057 230.403 72.4769L259.579 70.5325V36.3147C259.122 35.0635 257.922 34.1809 256.522 34.1809H228.342C226.592 34.1809 225.163 35.5454 225.091 37.2852C224.281 56.4028 225.047 69.6905 227.138 72.8303C228.359 74.6614 229.568 77.7116 230.665 81.0982C233.766 86.0048 236.062 91.2817 235.24 95.3869C235.142 95.8806 234.98 96.3439 234.762 96.7767C235.041 98.0685 235.21 98.9037 235.24 99.061L235.719 142.242C236.113 155.857 236.713 172.904 237.33 190.518C239.119 241.405 240.182 273.885 239.383 280.171ZM237.246 280.043C237.406 280.055 237.592 280.067 237.804 280.08C238.509 275.919 237.585 244.9 236.507 213.301L237.246 280.043ZM340.109 255.38C355.338 263.281 374.058 266.857 396.041 266.018C438.743 264.407 476.568 231.912 485.984 188.751C490.41 168.454 488.79 146.795 481.297 126.117C476.62 113.209 467.529 95.3751 450.79 83.7189C438.578 75.2143 422.463 70.3229 404.184 69.5722C383.996 68.7471 365.159 72.9132 349.682 81.6325C336.844 88.8639 325.23 99.7998 315.063 114.212C321.121 106.675 328.148 100.944 334.619 96.7091C360.163 79.989 396.207 74.8592 420.316 84.5017C462.338 101.311 478.581 148.765 476.693 177.094C475.237 198.913 463.736 219.907 442.512 239.488C421.712 258.678 384.346 260.303 365.675 256.817C360.187 255.792 355.185 254.294 350.602 252.424C347.08 253.376 343.566 254.353 340.109 255.38ZM353.246 251.714C357.172 253.182 361.401 254.372 365.973 255.226C384.334 258.648 421.051 257.086 441.417 238.298C462.326 219.004 473.651 198.375 475.08 176.982C476.935 149.142 460.986 102.507 419.715 85.9997C396.058 76.5348 360.642 81.6071 335.505 98.06C320.342 107.983 302.066 126.282 301.103 157.107C300.374 180.424 312.576 200.166 335.459 212.696C346.933 218.979 360.092 222.917 373.19 224.477C365.602 222.716 357.977 219.239 351.095 214.165C331.663 199.834 322.819 176.946 327.435 152.939C332.27 127.791 347.653 115.627 359.705 109.85C382.603 98.875 409.283 102.481 424.385 110.474C441.276 119.416 452.557 138.845 453.82 161.175C455.086 183.529 445.603 203.879 428.453 215.614C425.777 217.446 422.842 219.052 419.7 220.435C417.487 225.13 411.907 231.399 398.408 237.632C387.401 242.712 373.836 246.283 359.473 250.066C357.404 250.612 355.324 251.16 353.246 251.714ZM295.018 186.41C298.193 204.915 305.279 225.162 320.185 240.579C325.44 246.014 331.415 250.588 338.09 254.298C341.421 253.288 344.807 252.33 348.213 251.398C329.768 243.088 318.327 228.632 308.868 215.156C303.837 207.982 298.152 198.035 295.018 186.41ZM306.173 128.387C298.181 142.852 294.267 156.103 294.238 168.733C294.193 187.482 302.89 203.821 310.194 214.228C319.826 227.952 331.535 242.704 350.725 250.717C353.503 249.968 356.29 249.234 359.061 248.503C373.353 244.74 386.852 241.184 397.729 236.164C409.175 230.882 414.648 225.617 417.222 221.463C393.784 230.601 360.136 228.055 334.685 214.116C311.241 201.278 298.739 181.016 299.488 157.058C299.833 145.978 302.364 136.481 306.173 128.387ZM418.54 209.394C413.603 214.392 408.147 218.605 402.439 221.649C399.507 223.211 396.312 224.327 392.94 225.012C402.153 224.378 410.859 222.46 418.381 219.253C419.947 215.619 419.262 213.256 419.247 213.205C419.222 213.124 419.208 213.038 419.208 212.953C419.208 211.668 418.982 210.474 418.54 209.394ZM391.241 104.57C381.117 104.57 370.396 106.521 360.405 111.309C348.688 116.924 333.733 128.758 329.024 153.243C324.527 176.625 333.138 198.911 352.056 212.862C367.976 224.601 387.914 227.558 401.678 220.22C407.386 217.175 412.837 212.936 417.751 207.904C417.732 207.876 417.714 207.849 417.692 207.82C410.666 215.056 400.121 218.761 384.049 217.752C367.479 216.715 352.766 209.191 343.678 197.109C334.68 185.145 331.748 169.451 335.422 152.917C339.211 135.871 353.99 121.663 373.994 115.839C395.252 109.649 416.397 114.41 430.564 128.577C439.861 137.874 443.603 150.687 441.379 165.623C439.137 180.693 430.864 196.395 419.754 208.138C420.444 209.539 420.808 211.119 420.823 212.833C420.975 213.384 421.394 215.384 420.527 218.284C423.019 217.101 425.366 215.767 427.539 214.279C444.467 202.697 453.457 183.375 452.204 161.266C450.971 139.497 440.02 120.581 423.625 111.902C415.458 107.579 403.81 104.57 391.241 104.57ZM554.514 183.569C555.26 196.668 557.444 208.755 562.302 214.422C565.122 217.713 567.67 219.424 569.697 219.282C563.82 206.055 560.86 191.998 556.905 173.212C555.775 167.845 554.999 163.096 554.514 158.921V183.569ZM559.985 134.855C559.801 134.855 559.617 134.885 559.438 134.948C556.093 136.114 553.079 147.179 558.489 172.878C562.434 191.616 565.379 205.608 571.265 218.781C571.276 218.774 571.285 218.768 571.297 218.761C574.513 216.625 575.402 208.266 572.937 203.338C569.312 196.086 564.738 185.448 566.889 176.842C568.838 169.052 566.923 145.417 562.959 137.492C562.117 135.812 561.02 134.855 559.985 134.855ZM410.771 203.644C406.675 209.019 401.293 213.58 394.885 215.741C394.435 215.893 393.984 216.034 393.53 216.161C404.029 215.457 411.419 212.14 416.709 206.638C416.498 206.427 416.275 206.224 416.038 206.029C414.63 204.875 412.834 204.073 410.771 203.644ZM391.887 132.077C387.961 132.077 384.06 132.675 380.364 133.906C366.595 138.497 354.017 154.27 351.106 170.596C348.6 184.65 353.41 197.342 364.652 206.335C375.096 214.691 385.094 217.341 394.367 214.209C400.278 212.214 405.134 208.082 408.867 203.358C406.822 203.164 404.571 203.297 402.216 203.769C392.222 205.769 381.879 207.839 367.611 195.607C360.445 189.467 358.011 177.322 361.686 166.073C365.445 154.574 374.546 147.182 386.034 146.299C399.095 145.293 407.041 151.237 411.4 156.398C418.373 164.654 421.347 177.036 418.806 187.209C417.602 192.021 415.21 197.386 411.806 202.227C413.833 202.741 415.619 203.596 417.061 204.78C417.32 204.991 417.565 205.211 417.796 205.441C424.277 197.912 427.346 186.765 429.191 172.939C430.878 160.267 426.526 148.92 416.934 140.989C409.919 135.189 400.841 132.077 391.887 132.077ZM392.19 114.797C386.394 114.797 380.427 115.649 374.445 117.391C355.008 123.051 340.66 136.799 337.001 153.267C333.432 169.331 336.261 184.557 344.971 196.135C352.333 205.923 363.523 212.625 376.405 215.144C372.223 213.572 367.964 211.054 363.641 207.597C351.915 198.215 346.899 184.974 349.513 170.31C352.521 153.443 365.563 137.132 379.852 132.371C392.492 128.156 407.452 131.05 417.966 139.741C427.86 147.919 432.535 160.096 430.795 173.151C428.928 187.15 425.684 198.729 418.814 206.601C418.841 206.636 418.868 206.672 418.894 206.709C429.629 195.247 437.606 180.012 439.782 165.385C441.278 155.335 440.695 140.99 429.422 129.72C419.653 119.95 406.441 114.797 392.19 114.797ZM388.891 147.806C388.007 147.806 387.097 147.84 386.157 147.912C375.346 148.744 366.772 155.722 363.223 166.577C359.744 177.22 361.981 188.655 368.663 194.382C382.331 206.097 391.833 204.195 401.898 202.185C404.779 201.61 407.528 201.512 409.995 201.87C413.73 196.712 416.175 191.064 417.235 186.819C419.621 177.278 416.713 165.197 410.164 157.443C406.362 152.939 399.661 147.806 388.891 147.806ZM554.514 101.541V139.638C554.646 138.63 554.778 137.746 554.903 136.997C555.787 131.689 559.429 126.712 564.539 123.55C563.331 120.021 562.491 116.3 561.757 113.059C561.46 111.749 561.181 110.511 560.902 109.392C560.067 106.052 557.314 103.427 554.514 101.541ZM566.513 124.274C568.182 128.734 570.504 132.652 574.021 134.41C577.909 136.354 581.605 134.674 583.252 132.009C584.605 129.82 584.765 126.516 581.156 123.807C578.134 121.543 573.495 121.328 568.742 123.231C567.976 123.54 567.23 123.888 566.513 124.274ZM231.737 99.717C232.523 100.941 233.174 102.468 233.697 104.302L233.641 99.2267C233.637 99.2216 233.582 98.9494 233.479 98.4607C232.983 98.9274 232.398 99.3433 231.737 99.717ZM208.868 100.743C217.227 101.207 224.7 100.855 229.221 99.159C228.971 98.9189 228.712 98.7059 228.442 98.5216C225.559 96.5569 221.763 98.0499 218.715 99.2486C218.011 99.5259 217.349 99.7863 216.747 99.9858C215.619 100.361 212.772 100.601 208.868 100.743ZM472.388 100.405H552.68C550.245 99.0136 548.101 98.2156 547.58 98.0313H471.894C471.448 98.0313 471.086 97.6695 471.086 97.2231C471.086 96.7767 471.448 96.4149 471.894 96.4149H544.914V78.0396L503.782 76.0817C503.343 76.0597 503.003 75.6945 503.011 75.2549C503.023 74.8153 503.382 74.4653 503.82 74.4653H550.336C550.867 74.4653 551.327 74.1221 551.477 73.6114C551.77 72.6308 552.111 70.8386 551.134 69.8596C549.692 68.4174 545.296 68.1012 543.725 68.1012H505.813C505.367 68.1012 505.005 67.7394 505.005 67.293C505.005 66.8467 505.367 66.4848 505.813 66.4848H532.941V56.4433C532.941 55.1702 531.905 54.1337 530.632 54.1337H504.628V67.293C504.628 67.7394 504.266 68.1012 503.82 68.1012H502.633V75.2735C502.633 75.7198 502.271 76.0817 501.824 76.0817H459.924C459.552 76.0817 459.229 75.8297 459.139 75.4696L457.142 67.4875C457.083 67.2457 457.136 66.9904 457.29 66.7943C457.443 66.5981 457.678 66.4832 457.927 66.4832H501.016V45.4685C501.016 43.6459 499.533 42.1614 497.709 42.1614H454.439C453.594 42.1614 452.811 42.5418 452.287 43.2029C451.764 43.864 451.575 44.7128 451.769 45.5345C459.516 78.3135 459.432 78.3372 458.397 78.633C457.614 78.8579 457.339 78.0582 457.161 77.5256C455.555 72.7069 441.182 27.0273 435.076 7.61213C434.087 4.4656 431.064 2.3217 427.78 2.3944L349.991 4.12406C346.847 4.19338 344.065 6.23584 343.071 9.20652C339.801 18.9758 333.887 37.718 331.023 53.4727C329.766 60.3811 326.731 67.1138 323.154 73.1042C323.068 73.3747 323.017 73.5235 323.012 73.537C322.942 73.745 322.795 73.909 322.609 74.0037C321.864 75.2194 321.096 76.4029 320.322 77.5476C333.99 63.4972 353.339 53.307 380.087 52.5191C444.206 50.6541 469.717 95.3531 472.388 100.405ZM293.055 94.4181H303.969C304.056 94.3353 304.171 94.227 304.307 94.0969L293.055 94.4181ZM233.012 89.3323C233.252 90.2774 233.479 91.1938 233.687 92.0612C233.558 91.1836 233.328 90.2706 233.012 89.3323ZM309.673 74.0865L320.279 74.4653C320.323 74.467 320.367 74.4721 320.411 74.4805C320.496 74.3486 320.579 74.2184 320.662 74.0865H309.673ZM460.556 74.4653H501.016V68.1012H458.963L460.556 74.4653ZM254.743 72.4702H261.535L261.199 65.7341V71.2832C261.199 71.7093 260.869 72.061 260.445 72.0898L254.743 72.4702ZM174.758 48.1383C174.012 48.4223 169.14 50.5189 167.391 57.5119C167.119 58.6008 166.884 59.5763 166.673 60.4623C166.051 63.0475 165.608 64.8955 164.965 66.4815C171.561 66.4206 210.416 64.8211 217.386 64.532C216.031 60.5688 210.552 46.1516 202.524 46.1516C198.97 46.1516 195.484 46.4018 192.11 46.6436C191.074 46.718 190.073 46.789 189.114 46.8516C185.388 47.2861 180.691 47.7122 174.758 48.1383ZM196.405 35.2884C194.359 35.2884 191.786 35.5217 189.517 35.728C187.101 35.9478 184.602 36.1744 182.571 36.1744C179.724 36.1744 177.952 38.2777 177.46 40.3624C177.118 41.8131 177.301 43.798 178.943 44.6198C180.87 45.5835 184.529 45.5209 188.932 45.242C201.716 43.7558 201.716 42.3541 201.716 41.3515C201.716 39.3902 201.716 37.696 199.957 35.9376C199.472 35.4541 198.123 35.2884 196.405 35.2884Z" fill="#FFF3C1"/>
</svg>
